export let bass1 = [
        {
          "name": "A#1",
          "midi": 34,
          "time": 0,
          "velocity": 0.9448818897637795,
          "duration": 0.140845
        },
        {
          "name": "A#2",
          "midi": 46,
          "time": 0.140845,
          "velocity": 0.9448818897637795,
          "duration": 0.140845
        },
        {
          "name": "A#1",
          "midi": 34,
          "time": 0.28169,
          "velocity": 0.9448818897637795,
          "duration": 0.140845
        },
        {
          "name": "A#2",
          "midi": 46,
          "time": 0.422535,
          "velocity": 0.9448818897637795,
          "duration": 0.140845
        },
        {
          "name": "A#1",
          "midi": 34,
          "time": 0.84507,
          "velocity": 0.9448818897637795,
          "duration": 0.140845
        },
        {
          "name": "A#2",
          "midi": 46,
          "time": 0.985915,
          "velocity": 0.9448818897637795,
          "duration": 0.140845
        },
        {
          "name": "A#1",
          "midi": 34,
          "time": 1.12676,
          "velocity": 0.9448818897637795,
          "duration": 0.1408450000000001
        },
        {
          "name": "A#2",
          "midi": 46,
          "time": 1.267605,
          "velocity": 0.9448818897637795,
          "duration": 0.1408450000000001
        },
        {
          "name": "A#1",
          "midi": 34,
          "time": 1.6901400000000002,
          "velocity": 0.9448818897637795,
          "duration": 0.1408449999999999
        },
        {
          "name": "A#2",
          "midi": 46,
          "time": 1.830985,
          "velocity": 0.9448818897637795,
          "duration": 0.1408450000000001
        },
        {
          "name": "A#1",
          "midi": 34,
          "time": 1.9718300000000002,
          "velocity": 0.9448818897637795,
          "duration": 0.1408450000000001
        },
        {
          "name": "A#2",
          "midi": 46,
          "time": 2.1126750000000003,
          "velocity": 0.9448818897637795,
          "duration": 0.1408450000000001
        },
        {
          "name": "F1",
          "midi": 29,
          "time": 2.53521,
          "velocity": 0.9448818897637795,
          "duration": 0.2816900000000002
        },
        {
          "name": "F2",
          "midi": 41,
          "time": 2.9577450000000005,
          "velocity": 0.9448818897637795,
          "duration": 0.1408450000000001
        },
        {
          "name": "C2",
          "midi": 36,
          "time": 3.0985900000000006,
          "velocity": 0.9448818897637795,
          "duration": 0.1408450000000001
        },
        {
          "name": "F1",
          "midi": 29,
          "time": 3.2394350000000007,
          "velocity": 0.9448818897637795,
          "duration": 0.1408450000000001
        },
        {
          "name": "A#1",
          "midi": 34,
          "time": 3.380280000000001,
          "velocity": 0.9448818897637795,
          "duration": 0.1408450000000001
        },
        {
          "name": "A#2",
          "midi": 46,
          "time": 3.521125000000001,
          "velocity": 0.9448818897637795,
          "duration": 0.1408450000000001
        },
        {
          "name": "A#1",
          "midi": 34,
          "time": 3.661970000000001,
          "velocity": 0.9448818897637795,
          "duration": 0.1408450000000001
        },
        {
          "name": "A#2",
          "midi": 46,
          "time": 3.802815000000001,
          "velocity": 0.9448818897637795,
          "duration": 0.1408450000000001
        },
        {
          "name": "A#1",
          "midi": 34,
          "time": 4.2253500000000015,
          "velocity": 0.9448818897637795,
          "duration": 0.14084499999999966
        },
        {
          "name": "A#2",
          "midi": 46,
          "time": 4.366195000000001,
          "velocity": 0.9448818897637795,
          "duration": 0.14084499999999966
        },
        {
          "name": "A#1",
          "midi": 34,
          "time": 4.507040000000001,
          "velocity": 0.9448818897637795,
          "duration": 0.14084499999999966
        },
        {
          "name": "A#2",
          "midi": 46,
          "time": 4.6478850000000005,
          "velocity": 0.9448818897637795,
          "duration": 0.14084499999999966
        },
        {
          "name": "A#1",
          "midi": 34,
          "time": 5.07042,
          "velocity": 0.9448818897637795,
          "duration": 0.14084499999999966
        },
        {
          "name": "F2",
          "midi": 41,
          "time": 5.211265,
          "velocity": 0.9448818897637795,
          "duration": 0.14084499999999966
        },
        {
          "name": "A#2",
          "midi": 46,
          "time": 5.35211,
          "velocity": 0.9448818897637795,
          "duration": 0.4225349999999999
        },
        {
          "name": "C2",
          "midi": 36,
          "time": 5.915489999999999,
          "velocity": 0.9448818897637795,
          "duration": 0.14084499999999966
        },
        {
          "name": "G2",
          "midi": 43,
          "time": 6.056334999999999,
          "velocity": 0.9448818897637795,
          "duration": 0.14084499999999966
        },
        {
          "name": "C3",
          "midi": 48,
          "time": 6.197179999999999,
          "velocity": 0.9448818897637795,
          "duration": 0.4225349999999999
        },
        {
          "name": "D2",
          "midi": 38,
          "time": 6.760559999999998,
          "velocity": 0.9448818897637795,
          "duration": 0.14084499999999966
        },
        {
          "name": "A2",
          "midi": 45,
          "time": 6.901404999999998,
          "velocity": 0.9448818897637795,
          "duration": 0.14084499999999966
        },
        {
          "name": "D2",
          "midi": 38,
          "time": 7.0422499999999975,
          "velocity": 0.9448818897637795,
          "duration": 0.14084499999999966
        },
        {
          "name": "C3",
          "midi": 48,
          "time": 7.183094999999997,
          "velocity": 0.9448818897637795,
          "duration": 0.14084499999999966
        },
        {
          "name": "D2",
          "midi": 38,
          "time": 7.323939999999997,
          "velocity": 0.9448818897637795,
          "duration": 0.14084499999999966
        },
        {
          "name": "D3",
          "midi": 50,
          "time": 7.4647849999999965,
          "velocity": 0.9448818897637795,
          "duration": 0.14084499999999966
        },
        {
          "name": "D2",
          "midi": 38,
          "time": 7.605629999999996,
          "velocity": 0.9448818897637795,
          "duration": 0.14084499999999966
        },
        {
          "name": "A2",
          "midi": 45,
          "time": 7.746474999999996,
          "velocity": 0.9448818897637795,
          "duration": 0.14084499999999966
        },
        {
          "name": "D2",
          "midi": 38,
          "time": 7.8873199999999954,
          "velocity": 0.9448818897637795,
          "duration": 0.14084500000000055
        },
        {
          "name": "C3",
          "midi": 48,
          "time": 8.028164999999996,
          "velocity": 0.9448818897637795,
          "duration": 0.14084500000000055
        },
        {
          "name": "D2",
          "midi": 38,
          "time": 8.169009999999997,
          "velocity": 0.9448818897637795,
          "duration": 0.14084500000000055
        },
        {
          "name": "D3",
          "midi": 50,
          "time": 8.309854999999997,
          "velocity": 0.9448818897637795,
          "duration": 0.14084500000000055
        },
        {
          "name": "D2",
          "midi": 38,
          "time": 8.450699999999998,
          "velocity": 0.9448818897637795,
          "duration": 0.14084500000000055
        },
        {
          "name": "A2",
          "midi": 45,
          "time": 8.591544999999998,
          "velocity": 0.9448818897637795,
          "duration": 0.14084500000000055
        },
        {
          "name": "D2",
          "midi": 38,
          "time": 8.732389999999999,
          "velocity": 0.9448818897637795,
          "duration": 0.14084500000000055
        },
        {
          "name": "C3",
          "midi": 48,
          "time": 8.873235,
          "velocity": 0.9448818897637795,
          "duration": 0.14084500000000055
        },
        {
          "name": "D2",
          "midi": 38,
          "time": 9.01408,
          "velocity": 0.9448818897637795,
          "duration": 0.14084500000000055
        },
        {
          "name": "D3",
          "midi": 50,
          "time": 9.154925,
          "velocity": 0.9448818897637795,
          "duration": 0.14084500000000055
        },
        {
          "name": "D2",
          "midi": 38,
          "time": 9.295770000000001,
          "velocity": 0.9448818897637795,
          "duration": 0.14084500000000055
        },
        {
          "name": "A2",
          "midi": 45,
          "time": 9.436615000000002,
          "velocity": 0.9448818897637795,
          "duration": 0.14084500000000055
        },
        {
          "name": "D2",
          "midi": 38,
          "time": 9.577460000000002,
          "velocity": 0.9448818897637795,
          "duration": 0.14084500000000055
        },
        {
          "name": "C3",
          "midi": 48,
          "time": 9.718305000000003,
          "velocity": 0.9448818897637795,
          "duration": 0.14084500000000055
        },
        {
          "name": "D2",
          "midi": 38,
          "time": 9.859150000000003,
          "velocity": 0.9448818897637795,
          "duration": 0.14084500000000055
        },
        {
          "name": "D3",
          "midi": 50,
          "time": 9.999995000000004,
          "velocity": 0.9448818897637795,
          "duration": 0.14084500000000055
        },
        {
          "name": "D2",
          "midi": 38,
          "time": 10.140840000000004,
          "velocity": 0.9448818897637795,
          "duration": 0.14084500000000055
        },
        {
          "name": "A2",
          "midi": 45,
          "time": 10.281685000000005,
          "velocity": 0.9448818897637795,
          "duration": 0.14084500000000055
        },
        {
          "name": "D2",
          "midi": 38,
          "time": 10.422530000000005,
          "velocity": 0.9448818897637795,
          "duration": 0.14084500000000055
        },
        {
          "name": "C3",
          "midi": 48,
          "time": 10.563375000000006,
          "velocity": 0.9448818897637795,
          "duration": 0.14084500000000055
        },
        {
          "name": "D2",
          "midi": 38,
          "time": 10.704220000000007,
          "velocity": 0.9448818897637795,
          "duration": 0.14084500000000055
        },
        {
          "name": "D3",
          "midi": 50,
          "time": 10.845065000000007,
          "velocity": 0.9448818897637795,
          "duration": 0.14084500000000055
        },
        {
          "name": "D2",
          "midi": 38,
          "time": 10.985910000000008,
          "velocity": 0.9448818897637795,
          "duration": 0.14084500000000055
        },
        {
          "name": "A2",
          "midi": 45,
          "time": 11.126755000000008,
          "velocity": 0.9448818897637795,
          "duration": 0.14084500000000055
        },
        {
          "name": "D2",
          "midi": 38,
          "time": 11.267600000000009,
          "velocity": 0.9448818897637795,
          "duration": 0.14084500000000055
        },
        {
          "name": "C3",
          "midi": 48,
          "time": 11.40844500000001,
          "velocity": 0.9448818897637795,
          "duration": 0.14084500000000055
        },
        {
          "name": "D2",
          "midi": 38,
          "time": 11.54929000000001,
          "velocity": 0.9448818897637795,
          "duration": 0.14084500000000055
        },
        {
          "name": "D3",
          "midi": 50,
          "time": 11.69013500000001,
          "velocity": 0.9448818897637795,
          "duration": 0.14084500000000055
        },
        {
          "name": "D2",
          "midi": 38,
          "time": 11.830980000000011,
          "velocity": 0.9448818897637795,
          "duration": 0.14084500000000055
        },
        {
          "name": "A2",
          "midi": 45,
          "time": 11.971825000000011,
          "velocity": 0.9448818897637795,
          "duration": 0.14084500000000055
        },
        {
          "name": "D2",
          "midi": 38,
          "time": 12.112670000000012,
          "velocity": 0.9448818897637795,
          "duration": 0.14084500000000055
        },
        {
          "name": "C3",
          "midi": 48,
          "time": 12.253515000000013,
          "velocity": 0.9448818897637795,
          "duration": 0.14084500000000055
        },
        {
          "name": "D2",
          "midi": 38,
          "time": 12.394360000000013,
          "velocity": 0.9448818897637795,
          "duration": 0.14084500000000055
        },
        {
          "name": "D3",
          "midi": 50,
          "time": 12.535205000000014,
          "velocity": 0.9448818897637795,
          "duration": 0.14084500000000055
        },
        {
          "name": "D2",
          "midi": 38,
          "time": 12.676050000000014,
          "velocity": 0.9448818897637795,
          "duration": 0.14084500000000055
        },
        {
          "name": "A2",
          "midi": 45,
          "time": 12.816895000000015,
          "velocity": 0.9448818897637795,
          "duration": 0.14084500000000055
        },
        {
          "name": "D2",
          "midi": 38,
          "time": 12.957740000000015,
          "velocity": 0.9448818897637795,
          "duration": 0.14084500000000055
        },
        {
          "name": "C3",
          "midi": 48,
          "time": 13.098585000000016,
          "velocity": 0.9448818897637795,
          "duration": 0.14084500000000055
        },
        {
          "name": "D2",
          "midi": 38,
          "time": 13.239430000000016,
          "velocity": 0.9448818897637795,
          "duration": 0.14084500000000055
        },
        {
          "name": "D3",
          "midi": 50,
          "time": 13.380275000000017,
          "velocity": 0.9448818897637795,
          "duration": 0.14084500000000055
        },
        {
          "name": "C2",
          "midi": 36,
          "time": 13.521120000000018,
          "velocity": 0.9448818897637795,
          "duration": 0.14084500000000055
        },
        {
          "name": "G2",
          "midi": 43,
          "time": 13.661965000000018,
          "velocity": 0.9448818897637795,
          "duration": 0.14084500000000055
        },
        {
          "name": "C2",
          "midi": 36,
          "time": 13.802810000000019,
          "velocity": 0.9448818897637795,
          "duration": 0.14084500000000055
        },
        {
          "name": "A#2",
          "midi": 46,
          "time": 13.94365500000002,
          "velocity": 0.9448818897637795,
          "duration": 0.14084500000000055
        },
        {
          "name": "C2",
          "midi": 36,
          "time": 14.08450000000002,
          "velocity": 0.9448818897637795,
          "duration": 0.14084500000000055
        },
        {
          "name": "C3",
          "midi": 48,
          "time": 14.22534500000002,
          "velocity": 0.9448818897637795,
          "duration": 0.14084500000000055
        },
        {
          "name": "C2",
          "midi": 36,
          "time": 14.36619000000002,
          "velocity": 0.9448818897637795,
          "duration": 0.14084500000000055
        },
        {
          "name": "G2",
          "midi": 43,
          "time": 14.507035000000021,
          "velocity": 0.9448818897637795,
          "duration": 0.14084500000000055
        },
        {
          "name": "C2",
          "midi": 36,
          "time": 14.647880000000022,
          "velocity": 0.9448818897637795,
          "duration": 0.14084500000000055
        },
        {
          "name": "A#2",
          "midi": 46,
          "time": 14.788725000000023,
          "velocity": 0.9448818897637795,
          "duration": 0.14084500000000055
        },
        {
          "name": "C2",
          "midi": 36,
          "time": 14.929570000000023,
          "velocity": 0.9448818897637795,
          "duration": 0.14084500000000055
        },
        {
          "name": "C3",
          "midi": 48,
          "time": 15.070415000000024,
          "velocity": 0.9448818897637795,
          "duration": 0.14084500000000055
        },
        {
          "name": "C2",
          "midi": 36,
          "time": 15.211260000000024,
          "velocity": 0.9448818897637795,
          "duration": 0.14084500000000055
        },
        {
          "name": "G2",
          "midi": 43,
          "time": 15.352105000000025,
          "velocity": 0.9448818897637795,
          "duration": 0.14084500000000055
        },
        {
          "name": "C2",
          "midi": 36,
          "time": 15.492950000000025,
          "velocity": 0.9448818897637795,
          "duration": 0.14084500000000055
        },
        {
          "name": "A#2",
          "midi": 46,
          "time": 15.633795000000026,
          "velocity": 0.9448818897637795,
          "duration": 0.14084500000000055
        },
        {
          "name": "C2",
          "midi": 36,
          "time": 15.774640000000026,
          "velocity": 0.9448818897637795,
          "duration": 0.14084500000000055
        },
        {
          "name": "C3",
          "midi": 48,
          "time": 15.915485000000027,
          "velocity": 0.9448818897637795,
          "duration": 0.14084500000000055
        },
        {
          "name": "C2",
          "midi": 36,
          "time": 16.056330000000028,
          "velocity": 0.9448818897637795,
          "duration": 0.14084499999999878
        },
        {
          "name": "G2",
          "midi": 43,
          "time": 16.197175000000026,
          "velocity": 0.9448818897637795,
          "duration": 0.14084499999999878
        },
        {
          "name": "C2",
          "midi": 36,
          "time": 16.338020000000025,
          "velocity": 0.9448818897637795,
          "duration": 0.14084499999999878
        },
        {
          "name": "A#2",
          "midi": 46,
          "time": 16.478865000000024,
          "velocity": 0.9448818897637795,
          "duration": 0.14084499999999878
        },
        {
          "name": "C2",
          "midi": 36,
          "time": 16.619710000000023,
          "velocity": 0.9448818897637795,
          "duration": 0.14084499999999878
        },
        {
          "name": "C3",
          "midi": 48,
          "time": 16.76055500000002,
          "velocity": 0.9448818897637795,
          "duration": 0.14084499999999878
        },
        {
          "name": "D2",
          "midi": 38,
          "time": 16.90140000000002,
          "velocity": 0.9448818897637795,
          "duration": 0.14084499999999878
        },
        {
          "name": "A2",
          "midi": 45,
          "time": 17.04224500000002,
          "velocity": 0.9448818897637795,
          "duration": 0.14084499999999878
        },
        {
          "name": "D2",
          "midi": 38,
          "time": 17.183090000000018,
          "velocity": 0.9448818897637795,
          "duration": 0.14084499999999878
        },
        {
          "name": "C3",
          "midi": 48,
          "time": 17.323935000000017,
          "velocity": 0.9448818897637795,
          "duration": 0.14084499999999878
        },
        {
          "name": "D2",
          "midi": 38,
          "time": 17.464780000000015,
          "velocity": 0.9448818897637795,
          "duration": 0.14084499999999878
        },
        {
          "name": "D3",
          "midi": 50,
          "time": 17.605625000000014,
          "velocity": 0.9448818897637795,
          "duration": 0.14084499999999878
        },
        {
          "name": "D2",
          "midi": 38,
          "time": 17.746470000000013,
          "velocity": 0.9448818897637795,
          "duration": 0.14084499999999878
        },
        {
          "name": "A2",
          "midi": 45,
          "time": 17.88731500000001,
          "velocity": 0.9448818897637795,
          "duration": 0.14084499999999878
        },
        {
          "name": "D2",
          "midi": 38,
          "time": 18.02816000000001,
          "velocity": 0.9448818897637795,
          "duration": 0.14084499999999878
        },
        {
          "name": "C3",
          "midi": 48,
          "time": 18.16900500000001,
          "velocity": 0.9448818897637795,
          "duration": 0.14084499999999878
        },
        {
          "name": "D2",
          "midi": 38,
          "time": 18.309850000000008,
          "velocity": 0.9448818897637795,
          "duration": 0.14084499999999878
        },
        {
          "name": "D3",
          "midi": 50,
          "time": 18.450695000000007,
          "velocity": 0.9448818897637795,
          "duration": 0.14084499999999878
        },
        {
          "name": "D2",
          "midi": 38,
          "time": 18.591540000000006,
          "velocity": 0.9448818897637795,
          "duration": 0.14084499999999878
        },
        {
          "name": "A2",
          "midi": 45,
          "time": 18.732385000000004,
          "velocity": 0.9448818897637795,
          "duration": 0.14084499999999878
        },
        {
          "name": "D2",
          "midi": 38,
          "time": 18.873230000000003,
          "velocity": 0.9448818897637795,
          "duration": 0.14084499999999878
        },
        {
          "name": "C3",
          "midi": 48,
          "time": 19.014075000000002,
          "velocity": 0.9448818897637795,
          "duration": 0.14084499999999878
        },
        {
          "name": "D2",
          "midi": 38,
          "time": 19.15492,
          "velocity": 0.9448818897637795,
          "duration": 0.14084499999999878
        },
        {
          "name": "D3",
          "midi": 50,
          "time": 19.295765,
          "velocity": 0.9448818897637795,
          "duration": 0.14084499999999878
        },
        {
          "name": "D2",
          "midi": 38,
          "time": 19.436609999999998,
          "velocity": 0.9448818897637795,
          "duration": 0.14084499999999878
        },
        {
          "name": "A2",
          "midi": 45,
          "time": 19.577454999999997,
          "velocity": 0.9448818897637795,
          "duration": 0.14084499999999878
        },
        {
          "name": "D2",
          "midi": 38,
          "time": 19.718299999999996,
          "velocity": 0.9448818897637795,
          "duration": 0.14084499999999878
        },
        {
          "name": "C3",
          "midi": 48,
          "time": 19.859144999999994,
          "velocity": 0.9448818897637795,
          "duration": 0.14084499999999878
        },
        {
          "name": "D2",
          "midi": 38,
          "time": 19.999989999999993,
          "velocity": 0.9448818897637795,
          "duration": 0.14084499999999878
        },
        {
          "name": "D3",
          "midi": 50,
          "time": 20.140834999999992,
          "velocity": 0.9448818897637795,
          "duration": 0.14084499999999878
        },
        {
          "name": "C2",
          "midi": 36,
          "time": 20.28167999999999,
          "velocity": 0.9448818897637795,
          "duration": 0.14084499999999878
        },
        {
          "name": "G2",
          "midi": 43,
          "time": 20.42252499999999,
          "velocity": 0.9448818897637795,
          "duration": 0.14084499999999878
        },
        {
          "name": "C2",
          "midi": 36,
          "time": 20.56336999999999,
          "velocity": 0.9448818897637795,
          "duration": 0.14084499999999878
        },
        {
          "name": "A#2",
          "midi": 46,
          "time": 20.704214999999987,
          "velocity": 0.9448818897637795,
          "duration": 0.14084499999999878
        },
        {
          "name": "C2",
          "midi": 36,
          "time": 20.845059999999986,
          "velocity": 0.9448818897637795,
          "duration": 0.14084499999999878
        },
        {
          "name": "C3",
          "midi": 48,
          "time": 20.985904999999985,
          "velocity": 0.9448818897637795,
          "duration": 0.14084499999999878
        },
        {
          "name": "C2",
          "midi": 36,
          "time": 21.126749999999983,
          "velocity": 0.9448818897637795,
          "duration": 0.14084499999999878
        },
        {
          "name": "G2",
          "midi": 43,
          "time": 21.267594999999982,
          "velocity": 0.9448818897637795,
          "duration": 0.14084499999999878
        },
        {
          "name": "C2",
          "midi": 36,
          "time": 21.40843999999998,
          "velocity": 0.9448818897637795,
          "duration": 0.14084499999999878
        },
        {
          "name": "A#2",
          "midi": 46,
          "time": 21.54928499999998,
          "velocity": 0.9448818897637795,
          "duration": 0.14084499999999878
        },
        {
          "name": "C2",
          "midi": 36,
          "time": 21.69012999999998,
          "velocity": 0.9448818897637795,
          "duration": 0.14084499999999878
        },
        {
          "name": "C3",
          "midi": 48,
          "time": 21.830974999999977,
          "velocity": 0.9448818897637795,
          "duration": 0.14084499999999878
        },
        {
          "name": "C2",
          "midi": 36,
          "time": 21.971819999999976,
          "velocity": 0.9448818897637795,
          "duration": 0.14084499999999878
        },
        {
          "name": "G2",
          "midi": 43,
          "time": 22.112664999999975,
          "velocity": 0.9448818897637795,
          "duration": 0.14084499999999878
        },
        {
          "name": "C2",
          "midi": 36,
          "time": 22.253509999999974,
          "velocity": 0.9448818897637795,
          "duration": 0.14084499999999878
        },
        {
          "name": "A#2",
          "midi": 46,
          "time": 22.394354999999972,
          "velocity": 0.9448818897637795,
          "duration": 0.14084499999999878
        },
        {
          "name": "C2",
          "midi": 36,
          "time": 22.53519999999997,
          "velocity": 0.9448818897637795,
          "duration": 0.14084499999999878
        },
        {
          "name": "C3",
          "midi": 48,
          "time": 22.67604499999997,
          "velocity": 0.9448818897637795,
          "duration": 0.14084499999999878
        },
        {
          "name": "C2",
          "midi": 36,
          "time": 22.81688999999997,
          "velocity": 0.9448818897637795,
          "duration": 0.14084499999999878
        },
        {
          "name": "G2",
          "midi": 43,
          "time": 22.957734999999968,
          "velocity": 0.9448818897637795,
          "duration": 0.14084499999999878
        },
        {
          "name": "C2",
          "midi": 36,
          "time": 23.098579999999966,
          "velocity": 0.9448818897637795,
          "duration": 0.14084499999999878
        },
        {
          "name": "A#2",
          "midi": 46,
          "time": 23.239424999999965,
          "velocity": 0.9448818897637795,
          "duration": 0.14084499999999878
        },
        {
          "name": "C2",
          "midi": 36,
          "time": 23.380269999999964,
          "velocity": 0.9448818897637795,
          "duration": 0.14084499999999878
        },
        {
          "name": "C3",
          "midi": 48,
          "time": 23.521114999999963,
          "velocity": 0.9448818897637795,
          "duration": 0.14084499999999878
        },
        {
          "name": "A#1",
          "midi": 34,
          "time": 23.66195999999996,
          "velocity": 0.9448818897637795,
          "duration": 0.14084499999999878
        },
        {
          "name": "F2",
          "midi": 41,
          "time": 23.80280499999996,
          "velocity": 0.9448818897637795,
          "duration": 0.14084499999999878
        },
        {
          "name": "G#1",
          "midi": 32,
          "time": 23.94364999999996,
          "velocity": 0.9448818897637795,
          "duration": 0.14084499999999878
        },
        {
          "name": "F2",
          "midi": 41,
          "time": 24.084494999999958,
          "velocity": 0.9448818897637795,
          "duration": 0.14084499999999878
        },
        {
          "name": "F1",
          "midi": 29,
          "time": 24.225339999999957,
          "velocity": 0.9448818897637795,
          "duration": 0.14084499999999878
        },
        {
          "name": "F2",
          "midi": 41,
          "time": 24.366184999999955,
          "velocity": 0.9448818897637795,
          "duration": 0.14084499999999878
        },
        {
          "name": "A#1",
          "midi": 34,
          "time": 24.507029999999954,
          "velocity": 0.9448818897637795,
          "duration": 0.14084499999999878
        },
        {
          "name": "F2",
          "midi": 41,
          "time": 24.647874999999953,
          "velocity": 0.9448818897637795,
          "duration": 0.14084499999999878
        },
        {
          "name": "G#1",
          "midi": 32,
          "time": 24.78871999999995,
          "velocity": 0.9448818897637795,
          "duration": 0.14084499999999878
        },
        {
          "name": "F2",
          "midi": 41,
          "time": 24.92956499999995,
          "velocity": 0.9448818897637795,
          "duration": 0.14084499999999878
        },
        {
          "name": "F1",
          "midi": 29,
          "time": 25.07040999999995,
          "velocity": 0.9448818897637795,
          "duration": 0.14084499999999878
        },
        {
          "name": "F2",
          "midi": 41,
          "time": 25.211254999999948,
          "velocity": 0.9448818897637795,
          "duration": 0.14084499999999878
        },
        {
          "name": "A#1",
          "midi": 34,
          "time": 25.352099999999947,
          "velocity": 0.9448818897637795,
          "duration": 0.14084499999999878
        },
        {
          "name": "F2",
          "midi": 41,
          "time": 25.492944999999946,
          "velocity": 0.9448818897637795,
          "duration": 0.14084499999999878
        },
        {
          "name": "G#1",
          "midi": 32,
          "time": 25.633789999999944,
          "velocity": 0.9448818897637795,
          "duration": 0.14084499999999878
        },
        {
          "name": "F2",
          "midi": 41,
          "time": 25.774634999999943,
          "velocity": 0.9448818897637795,
          "duration": 0.14084499999999878
        },
        {
          "name": "F1",
          "midi": 29,
          "time": 25.915479999999942,
          "velocity": 0.9448818897637795,
          "duration": 0.14084499999999878
        },
        {
          "name": "F2",
          "midi": 41,
          "time": 26.05632499999994,
          "velocity": 0.9448818897637795,
          "duration": 0.14084499999999878
        },
        {
          "name": "A#1",
          "midi": 34,
          "time": 26.19716999999994,
          "velocity": 0.9448818897637795,
          "duration": 0.14084499999999878
        },
        {
          "name": "F2",
          "midi": 41,
          "time": 26.33801499999994,
          "velocity": 0.9448818897637795,
          "duration": 0.14084499999999878
        },
        {
          "name": "G#1",
          "midi": 32,
          "time": 26.478859999999937,
          "velocity": 0.9448818897637795,
          "duration": 0.14084499999999878
        },
        {
          "name": "F2",
          "midi": 41,
          "time": 26.619704999999936,
          "velocity": 0.9448818897637795,
          "duration": 0.14084499999999878
        },
        {
          "name": "F1",
          "midi": 29,
          "time": 26.760549999999935,
          "velocity": 0.9448818897637795,
          "duration": 0.14084499999999878
        },
        {
          "name": "F2",
          "midi": 41,
          "time": 26.901394999999933,
          "velocity": 0.9448818897637795,
          "duration": 0.14084499999999878
        },
        {
          "name": "A1",
          "midi": 33,
          "time": 27.042239999999932,
          "velocity": 0.9448818897637795,
          "duration": 0.14084499999999878
        },
        {
          "name": "E2",
          "midi": 40,
          "time": 27.18308499999993,
          "velocity": 0.9448818897637795,
          "duration": 0.14084499999999878
        },
        {
          "name": "G1",
          "midi": 31,
          "time": 27.32392999999993,
          "velocity": 0.9448818897637795,
          "duration": 0.14084499999999878
        },
        {
          "name": "E2",
          "midi": 40,
          "time": 27.46477499999993,
          "velocity": 0.9448818897637795,
          "duration": 0.14084499999999878
        },
        {
          "name": "E1",
          "midi": 28,
          "time": 27.605619999999927,
          "velocity": 0.9448818897637795,
          "duration": 0.14084499999999878
        },
        {
          "name": "E2",
          "midi": 40,
          "time": 27.746464999999926,
          "velocity": 0.9448818897637795,
          "duration": 0.14084499999999878
        },
        {
          "name": "A1",
          "midi": 33,
          "time": 27.887309999999925,
          "velocity": 0.9448818897637795,
          "duration": 0.14084499999999878
        },
        {
          "name": "E2",
          "midi": 40,
          "time": 28.028154999999924,
          "velocity": 0.9448818897637795,
          "duration": 0.14084499999999878
        },
        {
          "name": "G1",
          "midi": 31,
          "time": 28.168999999999922,
          "velocity": 0.9448818897637795,
          "duration": 0.14084499999999878
        },
        {
          "name": "E2",
          "midi": 40,
          "time": 28.30984499999992,
          "velocity": 0.9448818897637795,
          "duration": 0.14084499999999878
        },
        {
          "name": "E1",
          "midi": 28,
          "time": 28.45068999999992,
          "velocity": 0.9448818897637795,
          "duration": 0.14084499999999878
        },
        {
          "name": "E2",
          "midi": 40,
          "time": 28.59153499999992,
          "velocity": 0.9448818897637795,
          "duration": 0.14084499999999878
        },
        {
          "name": "A1",
          "midi": 33,
          "time": 28.732379999999917,
          "velocity": 0.9448818897637795,
          "duration": 0.14084499999999878
        },
        {
          "name": "E2",
          "midi": 40,
          "time": 28.873224999999916,
          "velocity": 0.9448818897637795,
          "duration": 0.14084499999999878
        },
        {
          "name": "G1",
          "midi": 31,
          "time": 29.014069999999915,
          "velocity": 0.9448818897637795,
          "duration": 0.14084499999999878
        },
        {
          "name": "E2",
          "midi": 40,
          "time": 29.154914999999914,
          "velocity": 0.9448818897637795,
          "duration": 0.14084499999999878
        },
        {
          "name": "E1",
          "midi": 28,
          "time": 29.295759999999913,
          "velocity": 0.9448818897637795,
          "duration": 0.14084499999999878
        },
        {
          "name": "E2",
          "midi": 40,
          "time": 29.43660499999991,
          "velocity": 0.9448818897637795,
          "duration": 0.14084499999999878
        },
        {
          "name": "A1",
          "midi": 33,
          "time": 29.57744999999991,
          "velocity": 0.9448818897637795,
          "duration": 0.14084499999999878
        },
        {
          "name": "E2",
          "midi": 40,
          "time": 29.71829499999991,
          "velocity": 0.9448818897637795,
          "duration": 0.14084499999999878
        },
        {
          "name": "G1",
          "midi": 31,
          "time": 29.859139999999908,
          "velocity": 0.9448818897637795,
          "duration": 0.14084499999999878
        },
        {
          "name": "E2",
          "midi": 40,
          "time": 29.999984999999906,
          "velocity": 0.9448818897637795,
          "duration": 0.14084499999999878
        },
        {
          "name": "E1",
          "midi": 28,
          "time": 30.140829999999905,
          "velocity": 0.9448818897637795,
          "duration": 0.14084499999999878
        },
        {
          "name": "E2",
          "midi": 40,
          "time": 30.281674999999904,
          "velocity": 0.9448818897637795,
          "duration": 0.14084499999999878
        },
        {
          "name": "A#1",
          "midi": 34,
          "time": 30.422519999999903,
          "velocity": 0.9448818897637795,
          "duration": 0.14084499999999878
        },
        {
          "name": "F2",
          "midi": 41,
          "time": 30.5633649999999,
          "velocity": 0.9448818897637795,
          "duration": 0.14084499999999878
        },
        {
          "name": "G#1",
          "midi": 32,
          "time": 30.7042099999999,
          "velocity": 0.9448818897637795,
          "duration": 0.14084499999999878
        },
        {
          "name": "F2",
          "midi": 41,
          "time": 30.8450549999999,
          "velocity": 0.9448818897637795,
          "duration": 0.14084499999999878
        },
        {
          "name": "F1",
          "midi": 29,
          "time": 30.985899999999898,
          "velocity": 0.9448818897637795,
          "duration": 0.14084499999999878
        },
        {
          "name": "F2",
          "midi": 41,
          "time": 31.126744999999897,
          "velocity": 0.9448818897637795,
          "duration": 0.14084499999999878
        },
        {
          "name": "A#1",
          "midi": 34,
          "time": 31.267589999999895,
          "velocity": 0.9448818897637795,
          "duration": 0.14084499999999878
        },
        {
          "name": "F2",
          "midi": 41,
          "time": 31.408434999999894,
          "velocity": 0.9448818897637795,
          "duration": 0.14084499999999878
        },
        {
          "name": "G#1",
          "midi": 32,
          "time": 31.549279999999893,
          "velocity": 0.9448818897637795,
          "duration": 0.14084499999999878
        },
        {
          "name": "F2",
          "midi": 41,
          "time": 31.69012499999989,
          "velocity": 0.9448818897637795,
          "duration": 0.14084499999999878
        },
        {
          "name": "F1",
          "midi": 29,
          "time": 31.83096999999989,
          "velocity": 0.9448818897637795,
          "duration": 0.14084499999999878
        },
        {
          "name": "F2",
          "midi": 41,
          "time": 31.97181499999989,
          "velocity": 0.9448818897637795,
          "duration": 0.14084500000000233
        },
        {
          "name": "A#1",
          "midi": 34,
          "time": 32.11265999999989,
          "velocity": 0.9448818897637795,
          "duration": 0.14084499999999878
        },
        {
          "name": "F2",
          "midi": 41,
          "time": 32.25350499999989,
          "velocity": 0.9448818897637795,
          "duration": 0.14084499999999878
        },
        {
          "name": "G#1",
          "midi": 32,
          "time": 32.39434999999989,
          "velocity": 0.9448818897637795,
          "duration": 0.14084499999999878
        },
        {
          "name": "F2",
          "midi": 41,
          "time": 32.53519499999989,
          "velocity": 0.9448818897637795,
          "duration": 0.14084499999999878
        },
        {
          "name": "F1",
          "midi": 29,
          "time": 32.67603999999989,
          "velocity": 0.9448818897637795,
          "duration": 0.14084499999999878
        },
        {
          "name": "F2",
          "midi": 41,
          "time": 32.816884999999886,
          "velocity": 0.9448818897637795,
          "duration": 0.14084499999999878
        },
        {
          "name": "A#1",
          "midi": 34,
          "time": 32.957729999999884,
          "velocity": 0.9448818897637795,
          "duration": 0.14084499999999878
        },
        {
          "name": "F2",
          "midi": 41,
          "time": 33.09857499999988,
          "velocity": 0.9448818897637795,
          "duration": 0.14084499999999878
        },
        {
          "name": "G#1",
          "midi": 32,
          "time": 33.23941999999988,
          "velocity": 0.9448818897637795,
          "duration": 0.14084499999999878
        },
        {
          "name": "F2",
          "midi": 41,
          "time": 33.38026499999988,
          "velocity": 0.9448818897637795,
          "duration": 0.14084499999999878
        },
        {
          "name": "F1",
          "midi": 29,
          "time": 33.52110999999988,
          "velocity": 0.9448818897637795,
          "duration": 0.14084499999999878
        },
        {
          "name": "F2",
          "midi": 41,
          "time": 33.66195499999988,
          "velocity": 0.9448818897637795,
          "duration": 0.14084499999999878
        },
        {
          "name": "A1",
          "midi": 33,
          "time": 33.80279999999988,
          "velocity": 0.9448818897637795,
          "duration": 0.14084499999999878
        },
        {
          "name": "E2",
          "midi": 40,
          "time": 33.943644999999876,
          "velocity": 0.9448818897637795,
          "duration": 0.14084499999999878
        },
        {
          "name": "G1",
          "midi": 31,
          "time": 34.084489999999874,
          "velocity": 0.9448818897637795,
          "duration": 0.14084499999999878
        },
        {
          "name": "E2",
          "midi": 40,
          "time": 34.22533499999987,
          "velocity": 0.9448818897637795,
          "duration": 0.14084499999999878
        },
        {
          "name": "E1",
          "midi": 28,
          "time": 34.36617999999987,
          "velocity": 0.9448818897637795,
          "duration": 0.14084499999999878
        },
        {
          "name": "E2",
          "midi": 40,
          "time": 34.50702499999987,
          "velocity": 0.9448818897637795,
          "duration": 0.14084499999999878
        },
        {
          "name": "A1",
          "midi": 33,
          "time": 34.64786999999987,
          "velocity": 0.9448818897637795,
          "duration": 0.14084499999999878
        },
        {
          "name": "E2",
          "midi": 40,
          "time": 34.78871499999987,
          "velocity": 0.9448818897637795,
          "duration": 0.14084499999999878
        },
        {
          "name": "G1",
          "midi": 31,
          "time": 34.92955999999987,
          "velocity": 0.9448818897637795,
          "duration": 0.14084499999999878
        },
        {
          "name": "E2",
          "midi": 40,
          "time": 35.070404999999866,
          "velocity": 0.9448818897637795,
          "duration": 0.14084499999999878
        },
        {
          "name": "E1",
          "midi": 28,
          "time": 35.211249999999865,
          "velocity": 0.9448818897637795,
          "duration": 0.14084499999999878
        },
        {
          "name": "E2",
          "midi": 40,
          "time": 35.35209499999986,
          "velocity": 0.9448818897637795,
          "duration": 0.14084499999999878
        },
        {
          "name": "D2",
          "midi": 38,
          "time": 35.49293999999986,
          "velocity": 0.9448818897637795,
          "duration": 0.14084499999999878
        },
        {
          "name": "A2",
          "midi": 45,
          "time": 35.63378499999986,
          "velocity": 0.9448818897637795,
          "duration": 0.14084499999999878
        },
        {
          "name": "D2",
          "midi": 38,
          "time": 35.77462999999986,
          "velocity": 0.9448818897637795,
          "duration": 0.14084499999999878
        },
        {
          "name": "C3",
          "midi": 48,
          "time": 35.91547499999986,
          "velocity": 0.9448818897637795,
          "duration": 0.14084499999999878
        },
        {
          "name": "D2",
          "midi": 38,
          "time": 36.05631999999986,
          "velocity": 0.9448818897637795,
          "duration": 0.14084499999999878
        },
        {
          "name": "D3",
          "midi": 50,
          "time": 36.197164999999856,
          "velocity": 0.9448818897637795,
          "duration": 0.14084499999999878
        },
        {
          "name": "D2",
          "midi": 38,
          "time": 36.338009999999855,
          "velocity": 0.9448818897637795,
          "duration": 0.14084499999999878
        },
        {
          "name": "A2",
          "midi": 45,
          "time": 36.478854999999854,
          "velocity": 0.9448818897637795,
          "duration": 0.14084499999999878
        },
        {
          "name": "D2",
          "midi": 38,
          "time": 36.61969999999985,
          "velocity": 0.9448818897637795,
          "duration": 0.14084499999999878
        },
        {
          "name": "C3",
          "midi": 48,
          "time": 36.76054499999985,
          "velocity": 0.9448818897637795,
          "duration": 0.14084499999999878
        },
        {
          "name": "D2",
          "midi": 38,
          "time": 36.90138999999985,
          "velocity": 0.9448818897637795,
          "duration": 0.14084499999999878
        },
        {
          "name": "D3",
          "midi": 50,
          "time": 37.04223499999985,
          "velocity": 0.9448818897637795,
          "duration": 0.14084499999999878
        },
        {
          "name": "D2",
          "midi": 38,
          "time": 37.18307999999985,
          "velocity": 0.9448818897637795,
          "duration": 0.14084499999999878
        },
        {
          "name": "A2",
          "midi": 45,
          "time": 37.323924999999846,
          "velocity": 0.9448818897637795,
          "duration": 0.14084499999999878
        },
        {
          "name": "D2",
          "midi": 38,
          "time": 37.464769999999845,
          "velocity": 0.9448818897637795,
          "duration": 0.14084499999999878
        },
        {
          "name": "C3",
          "midi": 48,
          "time": 37.605614999999844,
          "velocity": 0.9448818897637795,
          "duration": 0.14084499999999878
        },
        {
          "name": "D2",
          "midi": 38,
          "time": 37.74645999999984,
          "velocity": 0.9448818897637795,
          "duration": 0.14084499999999878
        },
        {
          "name": "D3",
          "midi": 50,
          "time": 37.88730499999984,
          "velocity": 0.9448818897637795,
          "duration": 0.14084499999999878
        },
        {
          "name": "D2",
          "midi": 38,
          "time": 38.02814999999984,
          "velocity": 0.9448818897637795,
          "duration": 0.14084499999999878
        },
        {
          "name": "A2",
          "midi": 45,
          "time": 38.16899499999984,
          "velocity": 0.9448818897637795,
          "duration": 0.14084499999999878
        },
        {
          "name": "D2",
          "midi": 38,
          "time": 38.30983999999984,
          "velocity": 0.9448818897637795,
          "duration": 0.14084499999999878
        },
        {
          "name": "C3",
          "midi": 48,
          "time": 38.45068499999984,
          "velocity": 0.9448818897637795,
          "duration": 0.14084499999999878
        },
        {
          "name": "D2",
          "midi": 38,
          "time": 38.591529999999835,
          "velocity": 0.9448818897637795,
          "duration": 0.14084499999999878
        },
        {
          "name": "D3",
          "midi": 50,
          "time": 38.732374999999834,
          "velocity": 0.9448818897637795,
          "duration": 0.14084499999999878
        },
        {
          "name": "D2",
          "midi": 38,
          "time": 38.87321999999983,
          "velocity": 0.9448818897637795,
          "duration": 0.14084499999999878
        },
        {
          "name": "A2",
          "midi": 45,
          "time": 39.01406499999983,
          "velocity": 0.9448818897637795,
          "duration": 0.14084499999999878
        },
        {
          "name": "D2",
          "midi": 38,
          "time": 39.15490999999983,
          "velocity": 0.9448818897637795,
          "duration": 0.14084499999999878
        },
        {
          "name": "C3",
          "midi": 48,
          "time": 39.29575499999983,
          "velocity": 0.9448818897637795,
          "duration": 0.14084499999999878
        },
        {
          "name": "D2",
          "midi": 38,
          "time": 39.43659999999983,
          "velocity": 0.9448818897637795,
          "duration": 0.14084499999999878
        },
        {
          "name": "D3",
          "midi": 50,
          "time": 39.57744499999983,
          "velocity": 0.9448818897637795,
          "duration": 0.14084499999999878
        },
        {
          "name": "D2",
          "midi": 38,
          "time": 39.718289999999826,
          "velocity": 0.9448818897637795,
          "duration": 0.14084499999999878
        },
        {
          "name": "A2",
          "midi": 45,
          "time": 39.859134999999824,
          "velocity": 0.9448818897637795,
          "duration": 0.14084499999999878
        },
        {
          "name": "D2",
          "midi": 38,
          "time": 39.99997999999982,
          "velocity": 0.9448818897637795,
          "duration": 0.14084499999999878
        },
        {
          "name": "C3",
          "midi": 48,
          "time": 40.14082499999982,
          "velocity": 0.9448818897637795,
          "duration": 0.14084499999999878
        },
        {
          "name": "D2",
          "midi": 38,
          "time": 40.28166999999982,
          "velocity": 0.9448818897637795,
          "duration": 0.14084499999999878
        },
        {
          "name": "D3",
          "midi": 50,
          "time": 40.42251499999982,
          "velocity": 0.9448818897637795,
          "duration": 0.14084499999999878
        },
        {
          "name": "C2",
          "midi": 36,
          "time": 40.56335999999982,
          "velocity": 0.9448818897637795,
          "duration": 0.14084499999999878
        },
        {
          "name": "G2",
          "midi": 43,
          "time": 40.70420499999982,
          "velocity": 0.9448818897637795,
          "duration": 0.14084499999999878
        },
        {
          "name": "C2",
          "midi": 36,
          "time": 40.845049999999816,
          "velocity": 0.9448818897637795,
          "duration": 0.14084499999999878
        },
        {
          "name": "A#2",
          "midi": 46,
          "time": 40.985894999999815,
          "velocity": 0.9448818897637795,
          "duration": 0.14084499999999878
        },
        {
          "name": "C2",
          "midi": 36,
          "time": 41.12673999999981,
          "velocity": 0.9448818897637795,
          "duration": 0.14084499999999878
        },
        {
          "name": "C3",
          "midi": 48,
          "time": 41.26758499999981,
          "velocity": 0.9448818897637795,
          "duration": 0.14084499999999878
        },
        {
          "name": "C2",
          "midi": 36,
          "time": 41.40842999999981,
          "velocity": 0.9448818897637795,
          "duration": 0.14084499999999878
        },
        {
          "name": "G2",
          "midi": 43,
          "time": 41.54927499999981,
          "velocity": 0.9448818897637795,
          "duration": 0.14084499999999878
        },
        {
          "name": "C2",
          "midi": 36,
          "time": 41.69011999999981,
          "velocity": 0.9448818897637795,
          "duration": 0.14084499999999878
        },
        {
          "name": "A#2",
          "midi": 46,
          "time": 41.83096499999981,
          "velocity": 0.9448818897637795,
          "duration": 0.14084499999999878
        },
        {
          "name": "C2",
          "midi": 36,
          "time": 41.971809999999806,
          "velocity": 0.9448818897637795,
          "duration": 0.14084499999999878
        },
        {
          "name": "C3",
          "midi": 48,
          "time": 42.112654999999805,
          "velocity": 0.9448818897637795,
          "duration": 0.14084499999999878
        },
        {
          "name": "C2",
          "midi": 36,
          "time": 42.2534999999998,
          "velocity": 0.9448818897637795,
          "duration": 0.14084499999999878
        },
        {
          "name": "G2",
          "midi": 43,
          "time": 42.3943449999998,
          "velocity": 0.9448818897637795,
          "duration": 0.14084499999999878
        },
        {
          "name": "C2",
          "midi": 36,
          "time": 42.5351899999998,
          "velocity": 0.9448818897637795,
          "duration": 0.14084499999999878
        },
        {
          "name": "A#2",
          "midi": 46,
          "time": 42.6760349999998,
          "velocity": 0.9448818897637795,
          "duration": 0.14084499999999878
        },
        {
          "name": "C2",
          "midi": 36,
          "time": 42.8168799999998,
          "velocity": 0.9448818897637795,
          "duration": 0.14084499999999878
        },
        {
          "name": "C3",
          "midi": 48,
          "time": 42.9577249999998,
          "velocity": 0.9448818897637795,
          "duration": 0.14084499999999878
        },
        {
          "name": "C2",
          "midi": 36,
          "time": 43.098569999999796,
          "velocity": 0.9448818897637795,
          "duration": 0.14084499999999878
        },
        {
          "name": "G2",
          "midi": 43,
          "time": 43.239414999999795,
          "velocity": 0.9448818897637795,
          "duration": 0.14084499999999878
        },
        {
          "name": "C2",
          "midi": 36,
          "time": 43.380259999999794,
          "velocity": 0.9448818897637795,
          "duration": 0.14084499999999878
        },
        {
          "name": "A#2",
          "midi": 46,
          "time": 43.52110499999979,
          "velocity": 0.9448818897637795,
          "duration": 0.14084499999999878
        },
        {
          "name": "C2",
          "midi": 36,
          "time": 43.66194999999979,
          "velocity": 0.9448818897637795,
          "duration": 0.14084499999999878
        },
        {
          "name": "C3",
          "midi": 48,
          "time": 43.80279499999979,
          "velocity": 0.9448818897637795,
          "duration": 0.14084499999999878
        },
        {
          "name": "D2",
          "midi": 38,
          "time": 43.94363999999979,
          "velocity": 0.9448818897637795,
          "duration": 0.14084499999999878
        },
        {
          "name": "A2",
          "midi": 45,
          "time": 44.08448499999979,
          "velocity": 0.9448818897637795,
          "duration": 0.14084499999999878
        },
        {
          "name": "D2",
          "midi": 38,
          "time": 44.225329999999786,
          "velocity": 0.9448818897637795,
          "duration": 0.14084499999999878
        },
        {
          "name": "C3",
          "midi": 48,
          "time": 44.366174999999785,
          "velocity": 0.9448818897637795,
          "duration": 0.14084499999999878
        },
        {
          "name": "D2",
          "midi": 38,
          "time": 44.507019999999784,
          "velocity": 0.9448818897637795,
          "duration": 0.14084499999999878
        },
        {
          "name": "D3",
          "midi": 50,
          "time": 44.64786499999978,
          "velocity": 0.9448818897637795,
          "duration": 0.14084499999999878
        },
        {
          "name": "D2",
          "midi": 38,
          "time": 44.78870999999978,
          "velocity": 0.9448818897637795,
          "duration": 0.14084499999999878
        },
        {
          "name": "A2",
          "midi": 45,
          "time": 44.92955499999978,
          "velocity": 0.9448818897637795,
          "duration": 0.14084499999999878
        },
        {
          "name": "D2",
          "midi": 38,
          "time": 45.07039999999978,
          "velocity": 0.9448818897637795,
          "duration": 0.14084499999999878
        },
        {
          "name": "C3",
          "midi": 48,
          "time": 45.21124499999978,
          "velocity": 0.9448818897637795,
          "duration": 0.14084499999999878
        },
        {
          "name": "D2",
          "midi": 38,
          "time": 45.35208999999978,
          "velocity": 0.9448818897637795,
          "duration": 0.14084499999999878
        },
        {
          "name": "D3",
          "midi": 50,
          "time": 45.492934999999775,
          "velocity": 0.9448818897637795,
          "duration": 0.14084499999999878
        },
        {
          "name": "D2",
          "midi": 38,
          "time": 45.633779999999774,
          "velocity": 0.9448818897637795,
          "duration": 0.14084499999999878
        },
        {
          "name": "A2",
          "midi": 45,
          "time": 45.77462499999977,
          "velocity": 0.9448818897637795,
          "duration": 0.14084499999999878
        },
        {
          "name": "D2",
          "midi": 38,
          "time": 45.91546999999977,
          "velocity": 0.9448818897637795,
          "duration": 0.14084499999999878
        },
        {
          "name": "C3",
          "midi": 48,
          "time": 46.05631499999977,
          "velocity": 0.9448818897637795,
          "duration": 0.14084499999999878
        },
        {
          "name": "D2",
          "midi": 38,
          "time": 46.19715999999977,
          "velocity": 0.9448818897637795,
          "duration": 0.14084499999999878
        },
        {
          "name": "D3",
          "midi": 50,
          "time": 46.33800499999977,
          "velocity": 0.9448818897637795,
          "duration": 0.14084499999999878
        },
        {
          "name": "D2",
          "midi": 38,
          "time": 46.47884999999977,
          "velocity": 0.9448818897637795,
          "duration": 0.14084499999999878
        },
        {
          "name": "A2",
          "midi": 45,
          "time": 46.619694999999766,
          "velocity": 0.9448818897637795,
          "duration": 0.14084499999999878
        },
        {
          "name": "D2",
          "midi": 38,
          "time": 46.760539999999764,
          "velocity": 0.9448818897637795,
          "duration": 0.14084499999999878
        },
        {
          "name": "C3",
          "midi": 48,
          "time": 46.90138499999976,
          "velocity": 0.9448818897637795,
          "duration": 0.14084499999999878
        },
        {
          "name": "D2",
          "midi": 38,
          "time": 47.04222999999976,
          "velocity": 0.9448818897637795,
          "duration": 0.14084499999999878
        },
        {
          "name": "D3",
          "midi": 50,
          "time": 47.18307499999976,
          "velocity": 0.9448818897637795,
          "duration": 0.14084499999999878
        },
        {
          "name": "C2",
          "midi": 36,
          "time": 47.32391999999976,
          "velocity": 0.9448818897637795,
          "duration": 0.14084499999999878
        },
        {
          "name": "G2",
          "midi": 43,
          "time": 47.46476499999976,
          "velocity": 0.9448818897637795,
          "duration": 0.14084499999999878
        },
        {
          "name": "C2",
          "midi": 36,
          "time": 47.60560999999976,
          "velocity": 0.9448818897637795,
          "duration": 0.14084499999999878
        },
        {
          "name": "A#2",
          "midi": 46,
          "time": 47.746454999999756,
          "velocity": 0.9448818897637795,
          "duration": 0.14084499999999878
        },
        {
          "name": "C2",
          "midi": 36,
          "time": 47.887299999999755,
          "velocity": 0.9448818897637795,
          "duration": 0.14084499999999878
        },
        {
          "name": "C3",
          "midi": 48,
          "time": 48.02814499999975,
          "velocity": 0.9448818897637795,
          "duration": 0.14084499999999878
        },
        {
          "name": "C2",
          "midi": 36,
          "time": 48.16898999999975,
          "velocity": 0.9448818897637795,
          "duration": 0.14084499999999878
        },
        {
          "name": "G2",
          "midi": 43,
          "time": 48.30983499999975,
          "velocity": 0.9448818897637795,
          "duration": 0.14084499999999878
        },
        {
          "name": "C2",
          "midi": 36,
          "time": 48.45067999999975,
          "velocity": 0.9448818897637795,
          "duration": 0.14084499999999878
        },
        {
          "name": "A#2",
          "midi": 46,
          "time": 48.59152499999975,
          "velocity": 0.9448818897637795,
          "duration": 0.14084499999999878
        },
        {
          "name": "C2",
          "midi": 36,
          "time": 48.73236999999975,
          "velocity": 0.9448818897637795,
          "duration": 0.14084499999999878
        },
        {
          "name": "C3",
          "midi": 48,
          "time": 48.873214999999746,
          "velocity": 0.9448818897637795,
          "duration": 0.14084499999999878
        },
        {
          "name": "C2",
          "midi": 36,
          "time": 49.014059999999745,
          "velocity": 0.9448818897637795,
          "duration": 0.14084499999999878
        },
        {
          "name": "G2",
          "midi": 43,
          "time": 49.154904999999744,
          "velocity": 0.9448818897637795,
          "duration": 0.14084499999999878
        },
        {
          "name": "C2",
          "midi": 36,
          "time": 49.29574999999974,
          "velocity": 0.9448818897637795,
          "duration": 0.14084499999999878
        },
        {
          "name": "A#2",
          "midi": 46,
          "time": 49.43659499999974,
          "velocity": 0.9448818897637795,
          "duration": 0.14084499999999878
        },
        {
          "name": "C2",
          "midi": 36,
          "time": 49.57743999999974,
          "velocity": 0.9448818897637795,
          "duration": 0.14084499999999878
        },
        {
          "name": "C3",
          "midi": 48,
          "time": 49.71828499999974,
          "velocity": 0.9448818897637795,
          "duration": 0.14084499999999878
        },
        {
          "name": "C2",
          "midi": 36,
          "time": 49.85912999999974,
          "velocity": 0.9448818897637795,
          "duration": 0.14084499999999878
        },
        {
          "name": "G2",
          "midi": 43,
          "time": 49.999974999999736,
          "velocity": 0.9448818897637795,
          "duration": 0.14084499999999878
        },
        {
          "name": "C2",
          "midi": 36,
          "time": 50.140819999999735,
          "velocity": 0.9448818897637795,
          "duration": 0.14084499999999878
        },
        {
          "name": "A#2",
          "midi": 46,
          "time": 50.281664999999734,
          "velocity": 0.9448818897637795,
          "duration": 0.14084499999999878
        },
        {
          "name": "C2",
          "midi": 36,
          "time": 50.42250999999973,
          "velocity": 0.9448818897637795,
          "duration": 0.14084499999999878
        },
        {
          "name": "C3",
          "midi": 48,
          "time": 50.56335499999973,
          "velocity": 0.9448818897637795,
          "duration": 0.14084499999999878
        },
        {
          "name": "A#1",
          "midi": 34,
          "time": 50.70419999999973,
          "velocity": 0.9448818897637795,
          "duration": 0.14084499999999878
        },
        {
          "name": "F2",
          "midi": 41,
          "time": 50.84504499999973,
          "velocity": 0.9448818897637795,
          "duration": 0.14084499999999878
        },
        {
          "name": "G#1",
          "midi": 32,
          "time": 50.98588999999973,
          "velocity": 0.9448818897637795,
          "duration": 0.14084499999999878
        },
        {
          "name": "F2",
          "midi": 41,
          "time": 51.12673499999973,
          "velocity": 0.9448818897637795,
          "duration": 0.14084499999999878
        },
        {
          "name": "F1",
          "midi": 29,
          "time": 51.267579999999725,
          "velocity": 0.9448818897637795,
          "duration": 0.14084499999999878
        },
        {
          "name": "F2",
          "midi": 41,
          "time": 51.408424999999724,
          "velocity": 0.9448818897637795,
          "duration": 0.14084499999999878
        },
        {
          "name": "A#1",
          "midi": 34,
          "time": 51.54926999999972,
          "velocity": 0.9448818897637795,
          "duration": 0.14084499999999878
        },
        {
          "name": "F2",
          "midi": 41,
          "time": 51.69011499999972,
          "velocity": 0.9448818897637795,
          "duration": 0.14084499999999878
        },
        {
          "name": "G#1",
          "midi": 32,
          "time": 51.83095999999972,
          "velocity": 0.9448818897637795,
          "duration": 0.14084499999999878
        },
        {
          "name": "F2",
          "midi": 41,
          "time": 51.97180499999972,
          "velocity": 0.9448818897637795,
          "duration": 0.14084499999999878
        },
        {
          "name": "F1",
          "midi": 29,
          "time": 52.11264999999972,
          "velocity": 0.9448818897637795,
          "duration": 0.14084499999999878
        },
        {
          "name": "F2",
          "midi": 41,
          "time": 52.25349499999972,
          "velocity": 0.9448818897637795,
          "duration": 0.14084499999999878
        },
        {
          "name": "A#1",
          "midi": 34,
          "time": 52.394339999999715,
          "velocity": 0.9448818897637795,
          "duration": 0.14084499999999878
        },
        {
          "name": "F2",
          "midi": 41,
          "time": 52.535184999999714,
          "velocity": 0.9448818897637795,
          "duration": 0.14084499999999878
        },
        {
          "name": "G#1",
          "midi": 32,
          "time": 52.67602999999971,
          "velocity": 0.9448818897637795,
          "duration": 0.14084499999999878
        },
        {
          "name": "F2",
          "midi": 41,
          "time": 52.81687499999971,
          "velocity": 0.9448818897637795,
          "duration": 0.14084499999999878
        },
        {
          "name": "F1",
          "midi": 29,
          "time": 52.95771999999971,
          "velocity": 0.9448818897637795,
          "duration": 0.14084499999999878
        },
        {
          "name": "F2",
          "midi": 41,
          "time": 53.09856499999971,
          "velocity": 0.9448818897637795,
          "duration": 0.14084499999999878
        },
        {
          "name": "A#1",
          "midi": 34,
          "time": 53.23940999999971,
          "velocity": 0.9448818897637795,
          "duration": 0.14084499999999878
        },
        {
          "name": "F2",
          "midi": 41,
          "time": 53.38025499999971,
          "velocity": 0.9448818897637795,
          "duration": 0.14084499999999878
        },
        {
          "name": "G#1",
          "midi": 32,
          "time": 53.521099999999706,
          "velocity": 0.9448818897637795,
          "duration": 0.14084499999999878
        },
        {
          "name": "F2",
          "midi": 41,
          "time": 53.661944999999704,
          "velocity": 0.9448818897637795,
          "duration": 0.14084499999999878
        },
        {
          "name": "F1",
          "midi": 29,
          "time": 53.8027899999997,
          "velocity": 0.9448818897637795,
          "duration": 0.14084499999999878
        },
        {
          "name": "F2",
          "midi": 41,
          "time": 53.9436349999997,
          "velocity": 0.9448818897637795,
          "duration": 0.14084499999999878
        },
        {
          "name": "A1",
          "midi": 33,
          "time": 54.0844799999997,
          "velocity": 0.9448818897637795,
          "duration": 0.14084499999999878
        },
        {
          "name": "E2",
          "midi": 40,
          "time": 54.2253249999997,
          "velocity": 0.9448818897637795,
          "duration": 0.14084499999999878
        },
        {
          "name": "G1",
          "midi": 31,
          "time": 54.3661699999997,
          "velocity": 0.9448818897637795,
          "duration": 0.14084499999999878
        },
        {
          "name": "E2",
          "midi": 40,
          "time": 54.5070149999997,
          "velocity": 0.9448818897637795,
          "duration": 0.14084499999999878
        },
        {
          "name": "E1",
          "midi": 28,
          "time": 54.647859999999696,
          "velocity": 0.9448818897637795,
          "duration": 0.14084499999999878
        },
        {
          "name": "E2",
          "midi": 40,
          "time": 54.788704999999695,
          "velocity": 0.9448818897637795,
          "duration": 0.14084499999999878
        },
        {
          "name": "A1",
          "midi": 33,
          "time": 54.92954999999969,
          "velocity": 0.9448818897637795,
          "duration": 0.14084499999999878
        },
        {
          "name": "E2",
          "midi": 40,
          "time": 55.07039499999969,
          "velocity": 0.9448818897637795,
          "duration": 0.14084499999999878
        },
        {
          "name": "G1",
          "midi": 31,
          "time": 55.21123999999969,
          "velocity": 0.9448818897637795,
          "duration": 0.14084499999999878
        },
        {
          "name": "E2",
          "midi": 40,
          "time": 55.35208499999969,
          "velocity": 0.9448818897637795,
          "duration": 0.14084499999999878
        },
        {
          "name": "E1",
          "midi": 28,
          "time": 55.49292999999969,
          "velocity": 0.9448818897637795,
          "duration": 0.14084499999999878
        },
        {
          "name": "E2",
          "midi": 40,
          "time": 55.63377499999969,
          "velocity": 0.9448818897637795,
          "duration": 0.14084499999999878
        },
        {
          "name": "A1",
          "midi": 33,
          "time": 55.774619999999686,
          "velocity": 0.9448818897637795,
          "duration": 0.14084499999999878
        },
        {
          "name": "E2",
          "midi": 40,
          "time": 55.915464999999685,
          "velocity": 0.9448818897637795,
          "duration": 0.14084499999999878
        },
        {
          "name": "G1",
          "midi": 31,
          "time": 56.056309999999684,
          "velocity": 0.9448818897637795,
          "duration": 0.14084499999999878
        },
        {
          "name": "E2",
          "midi": 40,
          "time": 56.19715499999968,
          "velocity": 0.9448818897637795,
          "duration": 0.14084499999999878
        },
        {
          "name": "E1",
          "midi": 28,
          "time": 56.33799999999968,
          "velocity": 0.9448818897637795,
          "duration": 0.14084499999999878
        },
        {
          "name": "E2",
          "midi": 40,
          "time": 56.47884499999968,
          "velocity": 0.9448818897637795,
          "duration": 0.14084499999999878
        },
        {
          "name": "A1",
          "midi": 33,
          "time": 56.61968999999968,
          "velocity": 0.9448818897637795,
          "duration": 0.14084499999999878
        },
        {
          "name": "E2",
          "midi": 40,
          "time": 56.76053499999968,
          "velocity": 0.9448818897637795,
          "duration": 0.14084499999999878
        },
        {
          "name": "G1",
          "midi": 31,
          "time": 56.901379999999676,
          "velocity": 0.9448818897637795,
          "duration": 0.14084499999999878
        },
        {
          "name": "E2",
          "midi": 40,
          "time": 57.042224999999675,
          "velocity": 0.9448818897637795,
          "duration": 0.14084499999999878
        },
        {
          "name": "E1",
          "midi": 28,
          "time": 57.183069999999674,
          "velocity": 0.9448818897637795,
          "duration": 0.14084499999999878
        },
        {
          "name": "E2",
          "midi": 40,
          "time": 57.32391499999967,
          "velocity": 0.9448818897637795,
          "duration": 0.14084499999999878
        },
        {
          "name": "A#1",
          "midi": 34,
          "time": 57.46475999999967,
          "velocity": 0.9448818897637795,
          "duration": 0.14084499999999878
        },
        {
          "name": "F2",
          "midi": 41,
          "time": 57.60560499999967,
          "velocity": 0.9448818897637795,
          "duration": 0.14084499999999878
        },
        {
          "name": "G#1",
          "midi": 32,
          "time": 57.74644999999967,
          "velocity": 0.9448818897637795,
          "duration": 0.14084499999999878
        },
        {
          "name": "F2",
          "midi": 41,
          "time": 57.88729499999967,
          "velocity": 0.9448818897637795,
          "duration": 0.14084499999999878
        },
        {
          "name": "F1",
          "midi": 29,
          "time": 58.02813999999967,
          "velocity": 0.9448818897637795,
          "duration": 0.14084499999999878
        },
        {
          "name": "F2",
          "midi": 41,
          "time": 58.168984999999665,
          "velocity": 0.9448818897637795,
          "duration": 0.14084499999999878
        },
        {
          "name": "A#1",
          "midi": 34,
          "time": 58.309829999999664,
          "velocity": 0.9448818897637795,
          "duration": 0.14084499999999878
        },
        {
          "name": "F2",
          "midi": 41,
          "time": 58.45067499999966,
          "velocity": 0.9448818897637795,
          "duration": 0.14084499999999878
        },
        {
          "name": "G#1",
          "midi": 32,
          "time": 58.59151999999966,
          "velocity": 0.9448818897637795,
          "duration": 0.14084499999999878
        },
        {
          "name": "F2",
          "midi": 41,
          "time": 58.73236499999966,
          "velocity": 0.9448818897637795,
          "duration": 0.14084499999999878
        },
        {
          "name": "F1",
          "midi": 29,
          "time": 58.87320999999966,
          "velocity": 0.9448818897637795,
          "duration": 0.14084499999999878
        },
        {
          "name": "F2",
          "midi": 41,
          "time": 59.01405499999966,
          "velocity": 0.9448818897637795,
          "duration": 0.14084499999999878
        },
        {
          "name": "A#1",
          "midi": 34,
          "time": 59.15489999999966,
          "velocity": 0.9448818897637795,
          "duration": 0.14084499999999878
        },
        {
          "name": "F2",
          "midi": 41,
          "time": 59.295744999999656,
          "velocity": 0.9448818897637795,
          "duration": 0.14084499999999878
        },
        {
          "name": "G#1",
          "midi": 32,
          "time": 59.436589999999654,
          "velocity": 0.9448818897637795,
          "duration": 0.14084499999999878
        },
        {
          "name": "F2",
          "midi": 41,
          "time": 59.57743499999965,
          "velocity": 0.9448818897637795,
          "duration": 0.14084499999999878
        },
        {
          "name": "F1",
          "midi": 29,
          "time": 59.71827999999965,
          "velocity": 0.9448818897637795,
          "duration": 0.14084499999999878
        },
        {
          "name": "F2",
          "midi": 41,
          "time": 59.85912499999965,
          "velocity": 0.9448818897637795,
          "duration": 0.14084499999999878
        },
        {
          "name": "A#1",
          "midi": 34,
          "time": 59.99996999999965,
          "velocity": 0.9448818897637795,
          "duration": 0.14084499999999878
        },
        {
          "name": "F2",
          "midi": 41,
          "time": 60.14081499999965,
          "velocity": 0.9448818897637795,
          "duration": 0.14084499999999878
        },
        {
          "name": "G#1",
          "midi": 32,
          "time": 60.28165999999965,
          "velocity": 0.9448818897637795,
          "duration": 0.14084499999999878
        },
        {
          "name": "F2",
          "midi": 41,
          "time": 60.422504999999646,
          "velocity": 0.9448818897637795,
          "duration": 0.14084499999999878
        },
        {
          "name": "F1",
          "midi": 29,
          "time": 60.563349999999645,
          "velocity": 0.9448818897637795,
          "duration": 0.14084499999999878
        },
        {
          "name": "F2",
          "midi": 41,
          "time": 60.70419499999964,
          "velocity": 0.9448818897637795,
          "duration": 0.14084499999999878
        },
        {
          "name": "A1",
          "midi": 33,
          "time": 60.84503999999964,
          "velocity": 0.9448818897637795,
          "duration": 0.14084499999999878
        },
        {
          "name": "E2",
          "midi": 40,
          "time": 60.98588499999964,
          "velocity": 0.9448818897637795,
          "duration": 0.14084499999999878
        },
        {
          "name": "G1",
          "midi": 31,
          "time": 61.12672999999964,
          "velocity": 0.9448818897637795,
          "duration": 0.14084499999999878
        },
        {
          "name": "E2",
          "midi": 40,
          "time": 61.26757499999964,
          "velocity": 0.9448818897637795,
          "duration": 0.14084499999999878
        },
        {
          "name": "E1",
          "midi": 28,
          "time": 61.40841999999964,
          "velocity": 0.9448818897637795,
          "duration": 0.14084499999999878
        },
        {
          "name": "E2",
          "midi": 40,
          "time": 61.549264999999636,
          "velocity": 0.9448818897637795,
          "duration": 0.14084499999999878
        },
        {
          "name": "A1",
          "midi": 33,
          "time": 61.690109999999635,
          "velocity": 0.9448818897637795,
          "duration": 0.14084499999999878
        },
        {
          "name": "E2",
          "midi": 40,
          "time": 61.83095499999963,
          "velocity": 0.9448818897637795,
          "duration": 0.14084499999999878
        },
        {
          "name": "G1",
          "midi": 31,
          "time": 61.97179999999963,
          "velocity": 0.9448818897637795,
          "duration": 0.14084499999999878
        },
        {
          "name": "E2",
          "midi": 40,
          "time": 62.11264499999963,
          "velocity": 0.9448818897637795,
          "duration": 0.14084499999999878
        },
        {
          "name": "E1",
          "midi": 28,
          "time": 62.25348999999963,
          "velocity": 0.9448818897637795,
          "duration": 0.14084499999999878
        },
        {
          "name": "E2",
          "midi": 40,
          "time": 62.39433499999963,
          "velocity": 0.9448818897637795,
          "duration": 0.14084499999999878
        },
        {
          "name": "D2",
          "midi": 38,
          "time": 62.53517999999963,
          "velocity": 0.9448818897637795,
          "duration": 0.14084499999999878
        },
        {
          "name": "A2",
          "midi": 45,
          "time": 62.676024999999626,
          "velocity": 0.9448818897637795,
          "duration": 0.14084499999999878
        },
        {
          "name": "D2",
          "midi": 38,
          "time": 62.816869999999625,
          "velocity": 0.9448818897637795,
          "duration": 0.14084499999999878
        },
        {
          "name": "C3",
          "midi": 48,
          "time": 62.957714999999624,
          "velocity": 0.9448818897637795,
          "duration": 0.14084499999999878
        },
        {
          "name": "D2",
          "midi": 38,
          "time": 63.09855999999962,
          "velocity": 0.9448818897637795,
          "duration": 0.14084499999999878
        },
        {
          "name": "D3",
          "midi": 50,
          "time": 63.23940499999962,
          "velocity": 0.9448818897637795,
          "duration": 0.14084499999999878
        },
        {
          "name": "D2",
          "midi": 38,
          "time": 63.38024999999962,
          "velocity": 0.9448818897637795,
          "duration": 0.14084499999999878
        },
        {
          "name": "A2",
          "midi": 45,
          "time": 63.52109499999962,
          "velocity": 0.9448818897637795,
          "duration": 0.14084499999999878
        },
        {
          "name": "D2",
          "midi": 38,
          "time": 63.66193999999962,
          "velocity": 0.9448818897637795,
          "duration": 0.14084499999999878
        },
        {
          "name": "C3",
          "midi": 48,
          "time": 63.802784999999616,
          "velocity": 0.9448818897637795,
          "duration": 0.14084499999999878
        },
        {
          "name": "D2",
          "midi": 38,
          "time": 63.943629999999615,
          "velocity": 0.9448818897637795,
          "duration": 0.14084499999999878
        },
        {
          "name": "D3",
          "midi": 50,
          "time": 64.08447499999961,
          "velocity": 0.9448818897637795,
          "duration": 0.14084499999999878
        }
      ];