export let bass2: any[] =  [
        {
          "name": "D2",
          "midi": 38,
          "time": 0,
          "velocity": 0.9448818897637795,
          "duration": 0.140845
        },
        {
          "name": "D2",
          "midi": 38,
          "time": 0.140845,
          "velocity": 0.9448818897637795,
          "duration": 0.140845
        },
        {
          "name": "F#2",
          "midi": 42,
          "time": 0.28169,
          "velocity": 0.9448818897637795,
          "duration": 0.140845
        },
        {
          "name": "B1",
          "midi": 35,
          "time": 0.28169,
          "velocity": 0.9448818897637795,
          "duration": 0.140845
        },
        {
          "name": "F#2",
          "midi": 42,
          "time": 0.422535,
          "velocity": 0.9448818897637795,
          "duration": 0.140845
        },
        {
          "name": "B1",
          "midi": 35,
          "time": 0.422535,
          "velocity": 0.9448818897637795,
          "duration": 0.140845
        },
        {
          "name": "D2",
          "midi": 38,
          "time": 0.56338,
          "velocity": 0.9448818897637795,
          "duration": 0.140845
        },
        {
          "name": "D2",
          "midi": 38,
          "time": 0.704225,
          "velocity": 0.9448818897637795,
          "duration": 0.140845
        },
        {
          "name": "D2",
          "midi": 38,
          "time": 0.84507,
          "velocity": 0.9448818897637795,
          "duration": 0.140845
        },
        {
          "name": "D2",
          "midi": 38,
          "time": 0.985915,
          "velocity": 0.9448818897637795,
          "duration": 0.140845
        },
        {
          "name": "F#2",
          "midi": 42,
          "time": 1.12676,
          "velocity": 0.9448818897637795,
          "duration": 0.1408450000000001
        },
        {
          "name": "B1",
          "midi": 35,
          "time": 1.12676,
          "velocity": 0.9448818897637795,
          "duration": 0.1408450000000001
        },
        {
          "name": "F#2",
          "midi": 42,
          "time": 1.267605,
          "velocity": 0.9448818897637795,
          "duration": 0.1408450000000001
        },
        {
          "name": "B1",
          "midi": 35,
          "time": 1.267605,
          "velocity": 0.9448818897637795,
          "duration": 0.1408450000000001
        },
        {
          "name": "D2",
          "midi": 38,
          "time": 1.4084500000000002,
          "velocity": 0.9448818897637795,
          "duration": 0.1408450000000001
        },
        {
          "name": "D2",
          "midi": 38,
          "time": 1.5492950000000003,
          "velocity": 0.9448818897637795,
          "duration": 0.1408450000000001
        },
        {
          "name": "D2",
          "midi": 38,
          "time": 1.6901400000000004,
          "velocity": 0.9448818897637795,
          "duration": 0.1408450000000001
        },
        {
          "name": "D2",
          "midi": 38,
          "time": 1.8309850000000005,
          "velocity": 0.9448818897637795,
          "duration": 0.1408450000000001
        },
        {
          "name": "F#2",
          "midi": 42,
          "time": 1.9718300000000006,
          "velocity": 0.9448818897637795,
          "duration": 0.1408450000000001
        },
        {
          "name": "B1",
          "midi": 35,
          "time": 1.9718300000000006,
          "velocity": 0.9448818897637795,
          "duration": 0.1408450000000001
        },
        {
          "name": "F#2",
          "midi": 42,
          "time": 2.1126750000000007,
          "velocity": 0.9448818897637795,
          "duration": 0.1408450000000001
        },
        {
          "name": "B1",
          "midi": 35,
          "time": 2.1126750000000007,
          "velocity": 0.9448818897637795,
          "duration": 0.1408450000000001
        },
        {
          "name": "D2",
          "midi": 38,
          "time": 2.253520000000001,
          "velocity": 0.9448818897637795,
          "duration": 0.1408450000000001
        },
        {
          "name": "D2",
          "midi": 38,
          "time": 2.394365000000001,
          "velocity": 0.9448818897637795,
          "duration": 0.1408450000000001
        },
        {
          "name": "D2",
          "midi": 38,
          "time": 2.535210000000001,
          "velocity": 0.9448818897637795,
          "duration": 0.1408450000000001
        },
        {
          "name": "D2",
          "midi": 38,
          "time": 2.676055000000001,
          "velocity": 0.9448818897637795,
          "duration": 0.1408450000000001
        },
        {
          "name": "D2",
          "midi": 38,
          "time": 2.8169000000000013,
          "velocity": 0.9448818897637795,
          "duration": 0.1408450000000001
        },
        {
          "name": "D2",
          "midi": 38,
          "time": 2.9577450000000014,
          "velocity": 0.9448818897637795,
          "duration": 0.1408450000000001
        },
        {
          "name": "D2",
          "midi": 38,
          "time": 3.0985900000000015,
          "velocity": 0.9448818897637795,
          "duration": 0.1408450000000001
        },
        {
          "name": "D2",
          "midi": 38,
          "time": 3.2394350000000016,
          "velocity": 0.9448818897637795,
          "duration": 0.1408450000000001
        },
        {
          "name": "D2",
          "midi": 38,
          "time": 3.3802800000000017,
          "velocity": 0.9448818897637795,
          "duration": 0.1408450000000001
        },
        {
          "name": "F#2",
          "midi": 42,
          "time": 3.521125000000002,
          "velocity": 0.9448818897637795,
          "duration": 0.1408450000000001
        },
        {
          "name": "B1",
          "midi": 35,
          "time": 3.521125000000002,
          "velocity": 0.9448818897637795,
          "duration": 0.1408450000000001
        },
        {
          "name": "D2",
          "midi": 38,
          "time": 3.661970000000002,
          "velocity": 0.9448818897637795,
          "duration": 0.1408450000000001
        },
        {
          "name": "F#2",
          "midi": 42,
          "time": 3.802815000000002,
          "velocity": 0.9448818897637795,
          "duration": 0.1408450000000001
        },
        {
          "name": "B1",
          "midi": 35,
          "time": 3.802815000000002,
          "velocity": 0.9448818897637795,
          "duration": 0.1408450000000001
        },
        {
          "name": "D2",
          "midi": 38,
          "time": 3.943660000000002,
          "velocity": 0.9448818897637795,
          "duration": 0.14084499999999966
        },
        {
          "name": "D2",
          "midi": 38,
          "time": 4.084505000000002,
          "velocity": 0.9448818897637795,
          "duration": 0.14084499999999966
        },
        {
          "name": "D2",
          "midi": 38,
          "time": 4.2253500000000015,
          "velocity": 0.9448818897637795,
          "duration": 0.14084499999999966
        },
        {
          "name": "F#2",
          "midi": 42,
          "time": 4.366195000000001,
          "velocity": 0.9448818897637795,
          "duration": 0.14084499999999966
        },
        {
          "name": "B1",
          "midi": 35,
          "time": 4.366195000000001,
          "velocity": 0.9448818897637795,
          "duration": 0.14084499999999966
        },
        {
          "name": "D2",
          "midi": 38,
          "time": 4.507040000000001,
          "velocity": 0.9448818897637795,
          "duration": 0.14084499999999966
        },
        {
          "name": "F#2",
          "midi": 42,
          "time": 4.6478850000000005,
          "velocity": 0.9448818897637795,
          "duration": 0.14084499999999966
        },
        {
          "name": "B1",
          "midi": 35,
          "time": 4.6478850000000005,
          "velocity": 0.9448818897637795,
          "duration": 0.14084499999999966
        },
        {
          "name": "D2",
          "midi": 38,
          "time": 4.78873,
          "velocity": 0.9448818897637795,
          "duration": 0.14084499999999966
        },
        {
          "name": "D2",
          "midi": 38,
          "time": 4.929575,
          "velocity": 0.9448818897637795,
          "duration": 0.14084499999999966
        },
        {
          "name": "D2",
          "midi": 38,
          "time": 5.0704199999999995,
          "velocity": 0.9448818897637795,
          "duration": 0.14084499999999966
        },
        {
          "name": "D2",
          "midi": 38,
          "time": 5.211264999999999,
          "velocity": 0.9448818897637795,
          "duration": 0.14084499999999966
        },
        {
          "name": "D2",
          "midi": 38,
          "time": 5.352109999999999,
          "velocity": 0.9448818897637795,
          "duration": 0.14084499999999966
        },
        {
          "name": "F#2",
          "midi": 42,
          "time": 5.633799999999998,
          "velocity": 0.9448818897637795,
          "duration": 0.14084499999999966
        },
        {
          "name": "B1",
          "midi": 35,
          "time": 5.633799999999998,
          "velocity": 0.9448818897637795,
          "duration": 0.14084499999999966
        },
        {
          "name": "F#2",
          "midi": 42,
          "time": 5.774644999999998,
          "velocity": 0.9448818897637795,
          "duration": 0.14084499999999966
        },
        {
          "name": "B1",
          "midi": 35,
          "time": 5.774644999999998,
          "velocity": 0.9448818897637795,
          "duration": 0.14084499999999966
        },
        {
          "name": "D2",
          "midi": 38,
          "time": 5.9154899999999975,
          "velocity": 0.9448818897637795,
          "duration": 0.14084499999999966
        },
        {
          "name": "D2",
          "midi": 38,
          "time": 6.056334999999997,
          "velocity": 0.9448818897637795,
          "duration": 0.14084499999999966
        },
        {
          "name": "D2",
          "midi": 38,
          "time": 6.197179999999997,
          "velocity": 0.9448818897637795,
          "duration": 0.14084499999999966
        },
        {
          "name": "F#2",
          "midi": 42,
          "time": 6.478869999999996,
          "velocity": 0.9448818897637795,
          "duration": 0.14084499999999966
        },
        {
          "name": "B1",
          "midi": 35,
          "time": 6.478869999999996,
          "velocity": 0.9448818897637795,
          "duration": 0.14084499999999966
        },
        {
          "name": "F#2",
          "midi": 42,
          "time": 6.619714999999996,
          "velocity": 0.9448818897637795,
          "duration": 0.14084499999999966
        },
        {
          "name": "B1",
          "midi": 35,
          "time": 6.619714999999996,
          "velocity": 0.9448818897637795,
          "duration": 0.14084499999999966
        },
        {
          "name": "D2",
          "midi": 38,
          "time": 6.7605599999999955,
          "velocity": 0.9448818897637795,
          "duration": 0.14084499999999966
        },
        {
          "name": "D2",
          "midi": 38,
          "time": 6.901404999999995,
          "velocity": 0.9448818897637795,
          "duration": 0.14084499999999966
        },
        {
          "name": "F#2",
          "midi": 42,
          "time": 7.042249999999995,
          "velocity": 0.9448818897637795,
          "duration": 0.14084499999999966
        },
        {
          "name": "B1",
          "midi": 35,
          "time": 7.042249999999995,
          "velocity": 0.9448818897637795,
          "duration": 0.14084499999999966
        },
        {
          "name": "D2",
          "midi": 38,
          "time": 7.1830949999999945,
          "velocity": 0.9448818897637795,
          "duration": 0.14084499999999966
        },
        {
          "name": "F#2",
          "midi": 42,
          "time": 7.323939999999994,
          "velocity": 0.9448818897637795,
          "duration": 0.14084499999999966
        },
        {
          "name": "B1",
          "midi": 35,
          "time": 7.323939999999994,
          "velocity": 0.9448818897637795,
          "duration": 0.14084499999999966
        },
        {
          "name": "D2",
          "midi": 38,
          "time": 7.464784999999994,
          "velocity": 0.9448818897637795,
          "duration": 0.14084499999999966
        },
        {
          "name": "D2",
          "midi": 38,
          "time": 7.6056299999999935,
          "velocity": 0.9448818897637795,
          "duration": 0.14084499999999966
        },
        {
          "name": "D2",
          "midi": 38,
          "time": 7.746474999999993,
          "velocity": 0.9448818897637795,
          "duration": 0.14084499999999966
        },
        {
          "name": "F#2",
          "midi": 42,
          "time": 7.887319999999993,
          "velocity": 0.9448818897637795,
          "duration": 0.14084499999999966
        },
        {
          "name": "B1",
          "midi": 35,
          "time": 7.887319999999993,
          "velocity": 0.9448818897637795,
          "duration": 0.14084499999999966
        },
        {
          "name": "D2",
          "midi": 38,
          "time": 8.028164999999992,
          "velocity": 0.9448818897637795,
          "duration": 0.14084500000000055
        },
        {
          "name": "F#2",
          "midi": 42,
          "time": 8.169009999999993,
          "velocity": 0.9448818897637795,
          "duration": 0.14084500000000055
        },
        {
          "name": "B1",
          "midi": 35,
          "time": 8.169009999999993,
          "velocity": 0.9448818897637795,
          "duration": 0.14084500000000055
        },
        {
          "name": "D2",
          "midi": 38,
          "time": 8.309854999999994,
          "velocity": 0.9448818897637795,
          "duration": 0.14084500000000055
        },
        {
          "name": "D2",
          "midi": 38,
          "time": 8.450699999999994,
          "velocity": 0.9448818897637795,
          "duration": 0.14084500000000055
        },
        {
          "name": "D2",
          "midi": 38,
          "time": 8.591544999999995,
          "velocity": 0.9448818897637795,
          "duration": 0.14084500000000055
        },
        {
          "name": "F#2",
          "midi": 42,
          "time": 8.732389999999995,
          "velocity": 0.9448818897637795,
          "duration": 0.14084500000000055
        },
        {
          "name": "B1",
          "midi": 35,
          "time": 8.732389999999995,
          "velocity": 0.9448818897637795,
          "duration": 0.14084500000000055
        },
        {
          "name": "D2",
          "midi": 38,
          "time": 8.873234999999996,
          "velocity": 0.9448818897637795,
          "duration": 0.14084500000000055
        },
        {
          "name": "F#2",
          "midi": 42,
          "time": 9.014079999999996,
          "velocity": 0.9448818897637795,
          "duration": 0.14084500000000055
        },
        {
          "name": "B1",
          "midi": 35,
          "time": 9.014079999999996,
          "velocity": 0.9448818897637795,
          "duration": 0.14084500000000055
        },
        {
          "name": "D2",
          "midi": 38,
          "time": 9.154924999999997,
          "velocity": 0.9448818897637795,
          "duration": 0.14084500000000055
        },
        {
          "name": "D2",
          "midi": 38,
          "time": 9.295769999999997,
          "velocity": 0.9448818897637795,
          "duration": 0.14084500000000055
        },
        {
          "name": "D2",
          "midi": 38,
          "time": 9.436614999999998,
          "velocity": 0.9448818897637795,
          "duration": 0.14084500000000055
        },
        {
          "name": "F#2",
          "midi": 42,
          "time": 9.577459999999999,
          "velocity": 0.9448818897637795,
          "duration": 0.14084500000000055
        },
        {
          "name": "B1",
          "midi": 35,
          "time": 9.577459999999999,
          "velocity": 0.9448818897637795,
          "duration": 0.14084500000000055
        },
        {
          "name": "D2",
          "midi": 38,
          "time": 9.718304999999999,
          "velocity": 0.9448818897637795,
          "duration": 0.14084500000000055
        },
        {
          "name": "F#2",
          "midi": 42,
          "time": 9.85915,
          "velocity": 0.9448818897637795,
          "duration": 0.14084500000000055
        },
        {
          "name": "B1",
          "midi": 35,
          "time": 9.85915,
          "velocity": 0.9448818897637795,
          "duration": 0.14084500000000055
        },
        {
          "name": "D2",
          "midi": 38,
          "time": 9.999995,
          "velocity": 0.9448818897637795,
          "duration": 0.14084500000000055
        },
        {
          "name": "F#2",
          "midi": 42,
          "time": 10.14084,
          "velocity": 0.9448818897637795,
          "duration": 0.14084500000000055
        },
        {
          "name": "B1",
          "midi": 35,
          "time": 10.14084,
          "velocity": 0.9448818897637795,
          "duration": 0.14084500000000055
        },
        {
          "name": "F#2",
          "midi": 42,
          "time": 10.422530000000002,
          "velocity": 0.9448818897637795,
          "duration": 0.14084500000000055
        },
        {
          "name": "D2",
          "midi": 38,
          "time": 10.563375000000002,
          "velocity": 0.9448818897637795,
          "duration": 0.14084500000000055
        },
        {
          "name": "F#2",
          "midi": 42,
          "time": 10.704220000000003,
          "velocity": 0.9448818897637795,
          "duration": 0.14084500000000055
        },
        {
          "name": "F#2",
          "midi": 42,
          "time": 10.845065000000004,
          "velocity": 0.9448818897637795,
          "duration": 0.14084500000000055
        },
        {
          "name": "F#2",
          "midi": 42,
          "time": 10.985910000000004,
          "velocity": 0.9448818897637795,
          "duration": 0.14084500000000055
        },
        {
          "name": "B1",
          "midi": 35,
          "time": 10.985910000000004,
          "velocity": 0.9448818897637795,
          "duration": 0.14084500000000055
        },
        {
          "name": "F#2",
          "midi": 42,
          "time": 11.267600000000005,
          "velocity": 0.9448818897637795,
          "duration": 0.14084500000000055
        },
        {
          "name": "B1",
          "midi": 35,
          "time": 11.267600000000005,
          "velocity": 0.9448818897637795,
          "duration": 0.14084500000000055
        },
        {
          "name": "D2",
          "midi": 38,
          "time": 11.408445000000006,
          "velocity": 0.9448818897637795,
          "duration": 0.14084500000000055
        },
        {
          "name": "F#2",
          "midi": 42,
          "time": 11.549290000000006,
          "velocity": 0.9448818897637795,
          "duration": 0.14084500000000055
        },
        {
          "name": "F#2",
          "midi": 42,
          "time": 11.690135000000007,
          "velocity": 0.9448818897637795,
          "duration": 0.14084500000000055
        },
        {
          "name": "F#2",
          "midi": 42,
          "time": 11.830980000000007,
          "velocity": 0.9448818897637795,
          "duration": 0.14084500000000055
        },
        {
          "name": "B1",
          "midi": 35,
          "time": 11.830980000000007,
          "velocity": 0.9448818897637795,
          "duration": 0.14084500000000055
        },
        {
          "name": "F#2",
          "midi": 42,
          "time": 12.112670000000008,
          "velocity": 0.9448818897637795,
          "duration": 0.14084500000000055
        },
        {
          "name": "D2",
          "midi": 38,
          "time": 12.253515000000009,
          "velocity": 0.9448818897637795,
          "duration": 0.14084500000000055
        },
        {
          "name": "F#2",
          "midi": 42,
          "time": 12.39436000000001,
          "velocity": 0.9448818897637795,
          "duration": 0.14084500000000055
        },
        {
          "name": "F#2",
          "midi": 42,
          "time": 12.53520500000001,
          "velocity": 0.9448818897637795,
          "duration": 0.14084500000000055
        },
        {
          "name": "F#2",
          "midi": 42,
          "time": 12.67605000000001,
          "velocity": 0.9448818897637795,
          "duration": 0.14084500000000055
        },
        {
          "name": "B1",
          "midi": 35,
          "time": 12.67605000000001,
          "velocity": 0.9448818897637795,
          "duration": 0.14084500000000055
        },
        {
          "name": "F#2",
          "midi": 42,
          "time": 12.957740000000012,
          "velocity": 0.9448818897637795,
          "duration": 0.14084500000000055
        },
        {
          "name": "B1",
          "midi": 35,
          "time": 12.957740000000012,
          "velocity": 0.9448818897637795,
          "duration": 0.14084500000000055
        },
        {
          "name": "D2",
          "midi": 38,
          "time": 13.098585000000012,
          "velocity": 0.9448818897637795,
          "duration": 0.14084500000000055
        },
        {
          "name": "F#2",
          "midi": 42,
          "time": 13.239430000000013,
          "velocity": 0.9448818897637795,
          "duration": 0.14084500000000055
        },
        {
          "name": "F#2",
          "midi": 42,
          "time": 13.380275000000013,
          "velocity": 0.9448818897637795,
          "duration": 0.14084500000000055
        },
        {
          "name": "D2",
          "midi": 38,
          "time": 13.521120000000014,
          "velocity": 0.9448818897637795,
          "duration": 0.14084500000000055
        },
        {
          "name": "D2",
          "midi": 38,
          "time": 13.661965000000015,
          "velocity": 0.9448818897637795,
          "duration": 0.14084500000000055
        },
        {
          "name": "F#2",
          "midi": 42,
          "time": 13.802810000000015,
          "velocity": 0.9448818897637795,
          "duration": 0.14084500000000055
        },
        {
          "name": "B1",
          "midi": 35,
          "time": 13.802810000000015,
          "velocity": 0.9448818897637795,
          "duration": 0.14084500000000055
        },
        {
          "name": "D2",
          "midi": 38,
          "time": 13.943655000000016,
          "velocity": 0.9448818897637795,
          "duration": 0.14084500000000055
        },
        {
          "name": "F#2",
          "midi": 42,
          "time": 14.084500000000016,
          "velocity": 0.9448818897637795,
          "duration": 0.14084500000000055
        },
        {
          "name": "B1",
          "midi": 35,
          "time": 14.084500000000016,
          "velocity": 0.9448818897637795,
          "duration": 0.14084500000000055
        },
        {
          "name": "D2",
          "midi": 38,
          "time": 14.225345000000017,
          "velocity": 0.9448818897637795,
          "duration": 0.14084500000000055
        },
        {
          "name": "F#2",
          "midi": 42,
          "time": 14.366190000000017,
          "velocity": 0.9448818897637795,
          "duration": 0.14084500000000055
        },
        {
          "name": "B1",
          "midi": 35,
          "time": 14.366190000000017,
          "velocity": 0.9448818897637795,
          "duration": 0.14084500000000055
        },
        {
          "name": "D2",
          "midi": 38,
          "time": 14.507035000000018,
          "velocity": 0.9448818897637795,
          "duration": 0.14084500000000055
        },
        {
          "name": "F#2",
          "midi": 42,
          "time": 14.647880000000018,
          "velocity": 0.9448818897637795,
          "duration": 0.14084500000000055
        },
        {
          "name": "B1",
          "midi": 35,
          "time": 14.647880000000018,
          "velocity": 0.9448818897637795,
          "duration": 0.14084500000000055
        },
        {
          "name": "D2",
          "midi": 38,
          "time": 14.788725000000019,
          "velocity": 0.9448818897637795,
          "duration": 0.14084500000000055
        },
        {
          "name": "F#2",
          "midi": 42,
          "time": 14.92957000000002,
          "velocity": 0.9448818897637795,
          "duration": 0.14084500000000055
        },
        {
          "name": "B1",
          "midi": 35,
          "time": 14.92957000000002,
          "velocity": 0.9448818897637795,
          "duration": 0.14084500000000055
        },
        {
          "name": "D2",
          "midi": 38,
          "time": 15.07041500000002,
          "velocity": 0.9448818897637795,
          "duration": 0.14084500000000055
        },
        {
          "name": "D2",
          "midi": 38,
          "time": 15.21126000000002,
          "velocity": 0.9448818897637795,
          "duration": 0.14084500000000055
        },
        {
          "name": "D2",
          "midi": 38,
          "time": 15.352105000000021,
          "velocity": 0.9448818897637795,
          "duration": 0.14084500000000055
        },
        {
          "name": "F#2",
          "midi": 42,
          "time": 15.492950000000022,
          "velocity": 0.9448818897637795,
          "duration": 0.14084500000000055
        },
        {
          "name": "B1",
          "midi": 35,
          "time": 15.492950000000022,
          "velocity": 0.9448818897637795,
          "duration": 0.14084500000000055
        },
        {
          "name": "D2",
          "midi": 38,
          "time": 15.633795000000022,
          "velocity": 0.9448818897637795,
          "duration": 0.14084500000000055
        },
        {
          "name": "F#2",
          "midi": 42,
          "time": 15.774640000000023,
          "velocity": 0.9448818897637795,
          "duration": 0.14084500000000055
        },
        {
          "name": "B1",
          "midi": 35,
          "time": 15.774640000000023,
          "velocity": 0.9448818897637795,
          "duration": 0.14084500000000055
        },
        {
          "name": "D2",
          "midi": 38,
          "time": 15.915485000000023,
          "velocity": 0.9448818897637795,
          "duration": 0.14084500000000055
        },
        {
          "name": "D2",
          "midi": 38,
          "time": 16.056330000000024,
          "velocity": 0.9448818897637795,
          "duration": 0.14084499999999878
        },
        {
          "name": "F#2",
          "midi": 42,
          "time": 16.197175000000023,
          "velocity": 0.9448818897637795,
          "duration": 0.14084499999999878
        },
        {
          "name": "B1",
          "midi": 35,
          "time": 16.197175000000023,
          "velocity": 0.9448818897637795,
          "duration": 0.14084499999999878
        },
        {
          "name": "D2",
          "midi": 38,
          "time": 16.33802000000002,
          "velocity": 0.9448818897637795,
          "duration": 0.14084499999999878
        },
        {
          "name": "D2",
          "midi": 38,
          "time": 16.47886500000002,
          "velocity": 0.9448818897637795,
          "duration": 0.14084499999999878
        },
        {
          "name": "D2",
          "midi": 38,
          "time": 16.61971000000002,
          "velocity": 0.9448818897637795,
          "duration": 0.14084499999999878
        },
        {
          "name": "D2",
          "midi": 38,
          "time": 16.760555000000018,
          "velocity": 0.9448818897637795,
          "duration": 0.14084499999999878
        },
        {
          "name": "F#2",
          "midi": 42,
          "time": 16.901400000000017,
          "velocity": 0.9448818897637795,
          "duration": 0.14084499999999878
        },
        {
          "name": "B1",
          "midi": 35,
          "time": 16.901400000000017,
          "velocity": 0.9448818897637795,
          "duration": 0.14084499999999878
        },
        {
          "name": "F#2",
          "midi": 42,
          "time": 17.183090000000014,
          "velocity": 0.9448818897637795,
          "duration": 0.14084499999999878
        },
        {
          "name": "D2",
          "midi": 38,
          "time": 17.323935000000013,
          "velocity": 0.9448818897637795,
          "duration": 0.14084499999999878
        },
        {
          "name": "F#2",
          "midi": 42,
          "time": 17.46478000000001,
          "velocity": 0.9448818897637795,
          "duration": 0.14084499999999878
        },
        {
          "name": "F#2",
          "midi": 42,
          "time": 17.60562500000001,
          "velocity": 0.9448818897637795,
          "duration": 0.14084499999999878
        },
        {
          "name": "F#2",
          "midi": 42,
          "time": 17.74647000000001,
          "velocity": 0.9448818897637795,
          "duration": 0.14084499999999878
        },
        {
          "name": "B1",
          "midi": 35,
          "time": 17.74647000000001,
          "velocity": 0.9448818897637795,
          "duration": 0.14084499999999878
        },
        {
          "name": "F#2",
          "midi": 42,
          "time": 18.028160000000007,
          "velocity": 0.9448818897637795,
          "duration": 0.14084499999999878
        },
        {
          "name": "B1",
          "midi": 35,
          "time": 18.028160000000007,
          "velocity": 0.9448818897637795,
          "duration": 0.14084499999999878
        },
        {
          "name": "D2",
          "midi": 38,
          "time": 18.169005000000006,
          "velocity": 0.9448818897637795,
          "duration": 0.14084499999999878
        },
        {
          "name": "F#2",
          "midi": 42,
          "time": 18.309850000000004,
          "velocity": 0.9448818897637795,
          "duration": 0.14084499999999878
        },
        {
          "name": "F#2",
          "midi": 42,
          "time": 18.450695000000003,
          "velocity": 0.9448818897637795,
          "duration": 0.14084499999999878
        },
        {
          "name": "F#2",
          "midi": 42,
          "time": 18.591540000000002,
          "velocity": 0.9448818897637795,
          "duration": 0.14084499999999878
        },
        {
          "name": "B1",
          "midi": 35,
          "time": 18.591540000000002,
          "velocity": 0.9448818897637795,
          "duration": 0.14084499999999878
        },
        {
          "name": "F#2",
          "midi": 42,
          "time": 18.87323,
          "velocity": 0.9448818897637795,
          "duration": 0.14084499999999878
        },
        {
          "name": "D2",
          "midi": 38,
          "time": 19.014075,
          "velocity": 0.9448818897637795,
          "duration": 0.14084499999999878
        },
        {
          "name": "F#2",
          "midi": 42,
          "time": 19.154919999999997,
          "velocity": 0.9448818897637795,
          "duration": 0.14084499999999878
        },
        {
          "name": "F#2",
          "midi": 42,
          "time": 19.295764999999996,
          "velocity": 0.9448818897637795,
          "duration": 0.14084499999999878
        },
        {
          "name": "F#2",
          "midi": 42,
          "time": 19.436609999999995,
          "velocity": 0.9448818897637795,
          "duration": 0.14084499999999878
        },
        {
          "name": "B1",
          "midi": 35,
          "time": 19.436609999999995,
          "velocity": 0.9448818897637795,
          "duration": 0.14084499999999878
        },
        {
          "name": "F#2",
          "midi": 42,
          "time": 19.718299999999992,
          "velocity": 0.9448818897637795,
          "duration": 0.14084499999999878
        },
        {
          "name": "B1",
          "midi": 35,
          "time": 19.718299999999992,
          "velocity": 0.9448818897637795,
          "duration": 0.14084499999999878
        },
        {
          "name": "D2",
          "midi": 38,
          "time": 19.85914499999999,
          "velocity": 0.9448818897637795,
          "duration": 0.14084499999999878
        },
        {
          "name": "F#2",
          "midi": 42,
          "time": 19.99998999999999,
          "velocity": 0.9448818897637795,
          "duration": 0.14084499999999878
        },
        {
          "name": "F#2",
          "midi": 42,
          "time": 20.14083499999999,
          "velocity": 0.9448818897637795,
          "duration": 0.14084499999999878
        },
        {
          "name": "D2",
          "midi": 38,
          "time": 20.281679999999987,
          "velocity": 0.9448818897637795,
          "duration": 0.14084499999999878
        },
        {
          "name": "D2",
          "midi": 38,
          "time": 20.422524999999986,
          "velocity": 0.9448818897637795,
          "duration": 0.14084499999999878
        },
        {
          "name": "F#2",
          "midi": 42,
          "time": 20.563369999999985,
          "velocity": 0.9448818897637795,
          "duration": 0.14084499999999878
        },
        {
          "name": "B1",
          "midi": 35,
          "time": 20.563369999999985,
          "velocity": 0.9448818897637795,
          "duration": 0.14084499999999878
        },
        {
          "name": "D2",
          "midi": 38,
          "time": 20.704214999999984,
          "velocity": 0.9448818897637795,
          "duration": 0.14084499999999878
        },
        {
          "name": "F#2",
          "midi": 42,
          "time": 20.845059999999982,
          "velocity": 0.9448818897637795,
          "duration": 0.14084499999999878
        },
        {
          "name": "B1",
          "midi": 35,
          "time": 20.845059999999982,
          "velocity": 0.9448818897637795,
          "duration": 0.14084499999999878
        },
        {
          "name": "D2",
          "midi": 38,
          "time": 20.98590499999998,
          "velocity": 0.9448818897637795,
          "duration": 0.14084499999999878
        },
        {
          "name": "F#2",
          "midi": 42,
          "time": 21.12674999999998,
          "velocity": 0.9448818897637795,
          "duration": 0.14084499999999878
        },
        {
          "name": "B1",
          "midi": 35,
          "time": 21.12674999999998,
          "velocity": 0.9448818897637795,
          "duration": 0.14084499999999878
        },
        {
          "name": "D2",
          "midi": 38,
          "time": 21.26759499999998,
          "velocity": 0.9448818897637795,
          "duration": 0.14084499999999878
        },
        {
          "name": "F#2",
          "midi": 42,
          "time": 21.408439999999977,
          "velocity": 0.9448818897637795,
          "duration": 0.14084499999999878
        },
        {
          "name": "B1",
          "midi": 35,
          "time": 21.408439999999977,
          "velocity": 0.9448818897637795,
          "duration": 0.14084499999999878
        },
        {
          "name": "D2",
          "midi": 38,
          "time": 21.549284999999976,
          "velocity": 0.9448818897637795,
          "duration": 0.14084499999999878
        },
        {
          "name": "F#2",
          "midi": 42,
          "time": 21.690129999999975,
          "velocity": 0.9448818897637795,
          "duration": 0.14084499999999878
        },
        {
          "name": "B1",
          "midi": 35,
          "time": 21.690129999999975,
          "velocity": 0.9448818897637795,
          "duration": 0.14084499999999878
        },
        {
          "name": "D2",
          "midi": 38,
          "time": 21.830974999999974,
          "velocity": 0.9448818897637795,
          "duration": 0.14084499999999878
        },
        {
          "name": "D2",
          "midi": 38,
          "time": 21.971819999999973,
          "velocity": 0.9448818897637795,
          "duration": 0.14084499999999878
        },
        {
          "name": "D2",
          "midi": 38,
          "time": 22.11266499999997,
          "velocity": 0.9448818897637795,
          "duration": 0.14084499999999878
        },
        {
          "name": "F#2",
          "midi": 42,
          "time": 22.25350999999997,
          "velocity": 0.9448818897637795,
          "duration": 0.14084499999999878
        },
        {
          "name": "B1",
          "midi": 35,
          "time": 22.25350999999997,
          "velocity": 0.9448818897637795,
          "duration": 0.14084499999999878
        },
        {
          "name": "D2",
          "midi": 38,
          "time": 22.39435499999997,
          "velocity": 0.9448818897637795,
          "duration": 0.14084499999999878
        },
        {
          "name": "F#2",
          "midi": 42,
          "time": 22.535199999999968,
          "velocity": 0.9448818897637795,
          "duration": 0.14084499999999878
        },
        {
          "name": "B1",
          "midi": 35,
          "time": 22.535199999999968,
          "velocity": 0.9448818897637795,
          "duration": 0.14084499999999878
        },
        {
          "name": "D2",
          "midi": 38,
          "time": 22.676044999999966,
          "velocity": 0.9448818897637795,
          "duration": 0.14084499999999878
        },
        {
          "name": "D2",
          "midi": 38,
          "time": 22.816889999999965,
          "velocity": 0.9448818897637795,
          "duration": 0.14084499999999878
        },
        {
          "name": "F#2",
          "midi": 42,
          "time": 22.957734999999964,
          "velocity": 0.9448818897637795,
          "duration": 0.14084499999999878
        },
        {
          "name": "B1",
          "midi": 35,
          "time": 22.957734999999964,
          "velocity": 0.9448818897637795,
          "duration": 0.14084499999999878
        },
        {
          "name": "D2",
          "midi": 38,
          "time": 23.098579999999963,
          "velocity": 0.9448818897637795,
          "duration": 0.14084499999999878
        },
        {
          "name": "D2",
          "midi": 38,
          "time": 23.23942499999996,
          "velocity": 0.9448818897637795,
          "duration": 0.14084499999999878
        },
        {
          "name": "D2",
          "midi": 38,
          "time": 23.38026999999996,
          "velocity": 0.9448818897637795,
          "duration": 0.14084499999999878
        },
        {
          "name": "D2",
          "midi": 38,
          "time": 23.52111499999996,
          "velocity": 0.9448818897637795,
          "duration": 0.14084499999999878
        },
        {
          "name": "F#2",
          "midi": 42,
          "time": 23.661959999999958,
          "velocity": 0.9448818897637795,
          "duration": 0.14084499999999878
        },
        {
          "name": "B1",
          "midi": 35,
          "time": 23.661959999999958,
          "velocity": 0.9448818897637795,
          "duration": 0.14084499999999878
        },
        {
          "name": "F#2",
          "midi": 42,
          "time": 23.943649999999955,
          "velocity": 0.9448818897637795,
          "duration": 0.14084499999999878
        },
        {
          "name": "D2",
          "midi": 38,
          "time": 24.084494999999954,
          "velocity": 0.9448818897637795,
          "duration": 0.14084499999999878
        },
        {
          "name": "F#2",
          "midi": 42,
          "time": 24.225339999999953,
          "velocity": 0.9448818897637795,
          "duration": 0.14084499999999878
        },
        {
          "name": "F#2",
          "midi": 42,
          "time": 24.366184999999952,
          "velocity": 0.9448818897637795,
          "duration": 0.14084499999999878
        },
        {
          "name": "F#2",
          "midi": 42,
          "time": 24.50702999999995,
          "velocity": 0.9448818897637795,
          "duration": 0.14084499999999878
        },
        {
          "name": "B1",
          "midi": 35,
          "time": 24.50702999999995,
          "velocity": 0.9448818897637795,
          "duration": 0.14084499999999878
        },
        {
          "name": "F#2",
          "midi": 42,
          "time": 24.788719999999948,
          "velocity": 0.9448818897637795,
          "duration": 0.14084499999999878
        },
        {
          "name": "B1",
          "midi": 35,
          "time": 24.788719999999948,
          "velocity": 0.9448818897637795,
          "duration": 0.14084499999999878
        },
        {
          "name": "D2",
          "midi": 38,
          "time": 24.929564999999947,
          "velocity": 0.9448818897637795,
          "duration": 0.14084499999999878
        },
        {
          "name": "F#2",
          "midi": 42,
          "time": 25.070409999999946,
          "velocity": 0.9448818897637795,
          "duration": 0.14084499999999878
        },
        {
          "name": "F#2",
          "midi": 42,
          "time": 25.211254999999944,
          "velocity": 0.9448818897637795,
          "duration": 0.14084499999999878
        },
        {
          "name": "F#2",
          "midi": 42,
          "time": 25.352099999999943,
          "velocity": 0.9448818897637795,
          "duration": 0.14084499999999878
        },
        {
          "name": "B1",
          "midi": 35,
          "time": 25.352099999999943,
          "velocity": 0.9448818897637795,
          "duration": 0.14084499999999878
        },
        {
          "name": "F#2",
          "midi": 42,
          "time": 25.63378999999994,
          "velocity": 0.9448818897637795,
          "duration": 0.14084499999999878
        },
        {
          "name": "D2",
          "midi": 38,
          "time": 25.77463499999994,
          "velocity": 0.9448818897637795,
          "duration": 0.14084499999999878
        },
        {
          "name": "F#2",
          "midi": 42,
          "time": 25.91547999999994,
          "velocity": 0.9448818897637795,
          "duration": 0.14084499999999878
        },
        {
          "name": "F#2",
          "midi": 42,
          "time": 26.056324999999937,
          "velocity": 0.9448818897637795,
          "duration": 0.14084499999999878
        },
        {
          "name": "F#2",
          "midi": 42,
          "time": 26.197169999999936,
          "velocity": 0.9448818897637795,
          "duration": 0.14084499999999878
        },
        {
          "name": "B1",
          "midi": 35,
          "time": 26.197169999999936,
          "velocity": 0.9448818897637795,
          "duration": 0.14084499999999878
        },
        {
          "name": "F#2",
          "midi": 42,
          "time": 26.478859999999933,
          "velocity": 0.9448818897637795,
          "duration": 0.14084499999999878
        },
        {
          "name": "B1",
          "midi": 35,
          "time": 26.478859999999933,
          "velocity": 0.9448818897637795,
          "duration": 0.14084499999999878
        },
        {
          "name": "D2",
          "midi": 38,
          "time": 26.619704999999932,
          "velocity": 0.9448818897637795,
          "duration": 0.14084499999999878
        },
        {
          "name": "F#2",
          "midi": 42,
          "time": 26.76054999999993,
          "velocity": 0.9448818897637795,
          "duration": 0.14084499999999878
        },
        {
          "name": "F#2",
          "midi": 42,
          "time": 26.90139499999993,
          "velocity": 0.9448818897637795,
          "duration": 0.14084499999999878
        },
        {
          "name": "F#2",
          "midi": 42,
          "time": 27.04223999999993,
          "velocity": 0.9448818897637795,
          "duration": 0.14084499999999878
        },
        {
          "name": "B1",
          "midi": 35,
          "time": 27.04223999999993,
          "velocity": 0.9448818897637795,
          "duration": 0.14084499999999878
        },
        {
          "name": "F#2",
          "midi": 42,
          "time": 27.323929999999926,
          "velocity": 0.9448818897637795,
          "duration": 0.14084499999999878
        },
        {
          "name": "D2",
          "midi": 38,
          "time": 27.464774999999925,
          "velocity": 0.9448818897637795,
          "duration": 0.14084499999999878
        },
        {
          "name": "F#2",
          "midi": 42,
          "time": 27.605619999999924,
          "velocity": 0.9448818897637795,
          "duration": 0.14084499999999878
        },
        {
          "name": "F#2",
          "midi": 42,
          "time": 27.746464999999922,
          "velocity": 0.9448818897637795,
          "duration": 0.14084499999999878
        },
        {
          "name": "F#2",
          "midi": 42,
          "time": 27.88730999999992,
          "velocity": 0.9448818897637795,
          "duration": 0.14084499999999878
        },
        {
          "name": "B1",
          "midi": 35,
          "time": 27.88730999999992,
          "velocity": 0.9448818897637795,
          "duration": 0.14084499999999878
        },
        {
          "name": "F#2",
          "midi": 42,
          "time": 28.16899999999992,
          "velocity": 0.9448818897637795,
          "duration": 0.14084499999999878
        },
        {
          "name": "B1",
          "midi": 35,
          "time": 28.16899999999992,
          "velocity": 0.9448818897637795,
          "duration": 0.14084499999999878
        },
        {
          "name": "D2",
          "midi": 38,
          "time": 28.309844999999918,
          "velocity": 0.9448818897637795,
          "duration": 0.14084499999999878
        },
        {
          "name": "F#2",
          "midi": 42,
          "time": 28.450689999999916,
          "velocity": 0.9448818897637795,
          "duration": 0.14084499999999878
        },
        {
          "name": "F#2",
          "midi": 42,
          "time": 28.591534999999915,
          "velocity": 0.9448818897637795,
          "duration": 0.14084499999999878
        },
        {
          "name": "F#2",
          "midi": 42,
          "time": 28.732379999999914,
          "velocity": 0.9448818897637795,
          "duration": 0.14084499999999878
        },
        {
          "name": "B1",
          "midi": 35,
          "time": 28.732379999999914,
          "velocity": 0.9448818897637795,
          "duration": 0.14084499999999878
        },
        {
          "name": "F#2",
          "midi": 42,
          "time": 29.01406999999991,
          "velocity": 0.9448818897637795,
          "duration": 0.14084499999999878
        },
        {
          "name": "D2",
          "midi": 38,
          "time": 29.15491499999991,
          "velocity": 0.9448818897637795,
          "duration": 0.14084499999999878
        },
        {
          "name": "F#2",
          "midi": 42,
          "time": 29.29575999999991,
          "velocity": 0.9448818897637795,
          "duration": 0.14084499999999878
        },
        {
          "name": "F#2",
          "midi": 42,
          "time": 29.436604999999908,
          "velocity": 0.9448818897637795,
          "duration": 0.14084499999999878
        },
        {
          "name": "F#2",
          "midi": 42,
          "time": 29.577449999999907,
          "velocity": 0.9448818897637795,
          "duration": 0.14084499999999878
        },
        {
          "name": "B1",
          "midi": 35,
          "time": 29.577449999999907,
          "velocity": 0.9448818897637795,
          "duration": 0.14084499999999878
        },
        {
          "name": "F#2",
          "midi": 42,
          "time": 29.859139999999904,
          "velocity": 0.9448818897637795,
          "duration": 0.14084499999999878
        },
        {
          "name": "B1",
          "midi": 35,
          "time": 29.859139999999904,
          "velocity": 0.9448818897637795,
          "duration": 0.14084499999999878
        },
        {
          "name": "D2",
          "midi": 38,
          "time": 29.999984999999903,
          "velocity": 0.9448818897637795,
          "duration": 0.14084499999999878
        },
        {
          "name": "F#2",
          "midi": 42,
          "time": 30.1408299999999,
          "velocity": 0.9448818897637795,
          "duration": 0.14084499999999878
        },
        {
          "name": "F#2",
          "midi": 42,
          "time": 30.2816749999999,
          "velocity": 0.9448818897637795,
          "duration": 0.14084499999999878
        },
        {
          "name": "F#2",
          "midi": 42,
          "time": 30.4225199999999,
          "velocity": 0.9448818897637795,
          "duration": 0.14084499999999878
        },
        {
          "name": "B1",
          "midi": 35,
          "time": 30.4225199999999,
          "velocity": 0.9448818897637795,
          "duration": 0.14084499999999878
        },
        {
          "name": "F#2",
          "midi": 42,
          "time": 30.704209999999897,
          "velocity": 0.9448818897637795,
          "duration": 0.14084499999999878
        },
        {
          "name": "D2",
          "midi": 38,
          "time": 30.845054999999896,
          "velocity": 0.9448818897637795,
          "duration": 0.14084499999999878
        },
        {
          "name": "F#2",
          "midi": 42,
          "time": 30.985899999999894,
          "velocity": 0.9448818897637795,
          "duration": 0.14084499999999878
        },
        {
          "name": "F#2",
          "midi": 42,
          "time": 31.126744999999893,
          "velocity": 0.9448818897637795,
          "duration": 0.14084499999999878
        },
        {
          "name": "F#2",
          "midi": 42,
          "time": 31.267589999999892,
          "velocity": 0.9448818897637795,
          "duration": 0.14084499999999878
        },
        {
          "name": "B1",
          "midi": 35,
          "time": 31.267589999999892,
          "velocity": 0.9448818897637795,
          "duration": 0.14084499999999878
        },
        {
          "name": "F#2",
          "midi": 42,
          "time": 31.54927999999989,
          "velocity": 0.9448818897637795,
          "duration": 0.14084499999999878
        },
        {
          "name": "B1",
          "midi": 35,
          "time": 31.54927999999989,
          "velocity": 0.9448818897637795,
          "duration": 0.14084499999999878
        },
        {
          "name": "D2",
          "midi": 38,
          "time": 31.690124999999888,
          "velocity": 0.9448818897637795,
          "duration": 0.14084499999999878
        },
        {
          "name": "F#2",
          "midi": 42,
          "time": 31.830969999999887,
          "velocity": 0.9448818897637795,
          "duration": 0.14084499999999878
        },
        {
          "name": "F#2",
          "midi": 42,
          "time": 31.971814999999886,
          "velocity": 0.9448818897637795,
          "duration": 0.14084499999999878
        },
        {
          "name": "F#2",
          "midi": 42,
          "time": 32.112659999999885,
          "velocity": 0.9448818897637795,
          "duration": 0.14084499999999878
        },
        {
          "name": "B1",
          "midi": 35,
          "time": 32.112659999999885,
          "velocity": 0.9448818897637795,
          "duration": 0.14084499999999878
        },
        {
          "name": "F#2",
          "midi": 42,
          "time": 32.39434999999988,
          "velocity": 0.9448818897637795,
          "duration": 0.14084499999999878
        },
        {
          "name": "D2",
          "midi": 38,
          "time": 32.53519499999988,
          "velocity": 0.9448818897637795,
          "duration": 0.14084499999999878
        },
        {
          "name": "F#2",
          "midi": 42,
          "time": 32.67603999999988,
          "velocity": 0.9448818897637795,
          "duration": 0.14084499999999878
        },
        {
          "name": "F#2",
          "midi": 42,
          "time": 32.81688499999988,
          "velocity": 0.9448818897637795,
          "duration": 0.14084499999999878
        },
        {
          "name": "F#2",
          "midi": 42,
          "time": 32.95772999999988,
          "velocity": 0.9448818897637795,
          "duration": 0.14084499999999878
        },
        {
          "name": "B1",
          "midi": 35,
          "time": 32.95772999999988,
          "velocity": 0.9448818897637795,
          "duration": 0.14084499999999878
        },
        {
          "name": "F#2",
          "midi": 42,
          "time": 33.239419999999875,
          "velocity": 0.9448818897637795,
          "duration": 0.14084499999999878
        },
        {
          "name": "B1",
          "midi": 35,
          "time": 33.239419999999875,
          "velocity": 0.9448818897637795,
          "duration": 0.14084499999999878
        },
        {
          "name": "D2",
          "midi": 38,
          "time": 33.38026499999987,
          "velocity": 0.9448818897637795,
          "duration": 0.14084499999999878
        },
        {
          "name": "F#2",
          "midi": 42,
          "time": 33.52110999999987,
          "velocity": 0.9448818897637795,
          "duration": 0.14084499999999878
        },
        {
          "name": "F#2",
          "midi": 42,
          "time": 33.66195499999987,
          "velocity": 0.9448818897637795,
          "duration": 0.14084499999999878
        },
        {
          "name": "F#2",
          "midi": 42,
          "time": 33.80279999999987,
          "velocity": 0.9448818897637795,
          "duration": 0.14084499999999878
        },
        {
          "name": "B1",
          "midi": 35,
          "time": 33.80279999999987,
          "velocity": 0.9448818897637795,
          "duration": 0.14084499999999878
        },
        {
          "name": "F#2",
          "midi": 42,
          "time": 34.08448999999987,
          "velocity": 0.9448818897637795,
          "duration": 0.14084499999999878
        },
        {
          "name": "D2",
          "midi": 38,
          "time": 34.225334999999866,
          "velocity": 0.9448818897637795,
          "duration": 0.14084499999999878
        },
        {
          "name": "F#2",
          "midi": 42,
          "time": 34.366179999999865,
          "velocity": 0.9448818897637795,
          "duration": 0.14084499999999878
        },
        {
          "name": "F#2",
          "midi": 42,
          "time": 34.507024999999864,
          "velocity": 0.9448818897637795,
          "duration": 0.14084499999999878
        },
        {
          "name": "F#2",
          "midi": 42,
          "time": 34.64786999999986,
          "velocity": 0.9448818897637795,
          "duration": 0.14084499999999878
        },
        {
          "name": "B1",
          "midi": 35,
          "time": 34.64786999999986,
          "velocity": 0.9448818897637795,
          "duration": 0.14084499999999878
        },
        {
          "name": "F#2",
          "midi": 42,
          "time": 34.92955999999986,
          "velocity": 0.9448818897637795,
          "duration": 0.14084499999999878
        },
        {
          "name": "B1",
          "midi": 35,
          "time": 34.92955999999986,
          "velocity": 0.9448818897637795,
          "duration": 0.14084499999999878
        },
        {
          "name": "D2",
          "midi": 38,
          "time": 35.07040499999986,
          "velocity": 0.9448818897637795,
          "duration": 0.14084499999999878
        },
        {
          "name": "F#2",
          "midi": 42,
          "time": 35.21124999999986,
          "velocity": 0.9448818897637795,
          "duration": 0.14084499999999878
        },
        {
          "name": "F#2",
          "midi": 42,
          "time": 35.352094999999856,
          "velocity": 0.9448818897637795,
          "duration": 0.14084499999999878
        },
        {
          "name": "F#2",
          "midi": 42,
          "time": 35.492939999999855,
          "velocity": 0.9448818897637795,
          "duration": 0.14084499999999878
        },
        {
          "name": "B1",
          "midi": 35,
          "time": 35.492939999999855,
          "velocity": 0.9448818897637795,
          "duration": 0.14084499999999878
        },
        {
          "name": "F#2",
          "midi": 42,
          "time": 35.77462999999985,
          "velocity": 0.9448818897637795,
          "duration": 0.14084499999999878
        },
        {
          "name": "D2",
          "midi": 38,
          "time": 35.91547499999985,
          "velocity": 0.9448818897637795,
          "duration": 0.14084499999999878
        },
        {
          "name": "F#2",
          "midi": 42,
          "time": 36.05631999999985,
          "velocity": 0.9448818897637795,
          "duration": 0.14084499999999878
        },
        {
          "name": "F#2",
          "midi": 42,
          "time": 36.19716499999985,
          "velocity": 0.9448818897637795,
          "duration": 0.14084499999999878
        },
        {
          "name": "F#2",
          "midi": 42,
          "time": 36.33800999999985,
          "velocity": 0.9448818897637795,
          "duration": 0.14084499999999878
        },
        {
          "name": "B1",
          "midi": 35,
          "time": 36.33800999999985,
          "velocity": 0.9448818897637795,
          "duration": 0.14084499999999878
        },
        {
          "name": "F#2",
          "midi": 42,
          "time": 36.619699999999845,
          "velocity": 0.9448818897637795,
          "duration": 0.14084499999999878
        },
        {
          "name": "B1",
          "midi": 35,
          "time": 36.619699999999845,
          "velocity": 0.9448818897637795,
          "duration": 0.14084499999999878
        },
        {
          "name": "D2",
          "midi": 38,
          "time": 36.760544999999844,
          "velocity": 0.9448818897637795,
          "duration": 0.14084499999999878
        },
        {
          "name": "F#2",
          "midi": 42,
          "time": 36.90138999999984,
          "velocity": 0.9448818897637795,
          "duration": 0.14084499999999878
        },
        {
          "name": "F#2",
          "midi": 42,
          "time": 37.04223499999984,
          "velocity": 0.9448818897637795,
          "duration": 0.14084499999999878
        },
        {
          "name": "F#2",
          "midi": 42,
          "time": 37.18307999999984,
          "velocity": 0.9448818897637795,
          "duration": 0.14084499999999878
        },
        {
          "name": "B1",
          "midi": 35,
          "time": 37.18307999999984,
          "velocity": 0.9448818897637795,
          "duration": 0.14084499999999878
        },
        {
          "name": "F#2",
          "midi": 42,
          "time": 37.46476999999984,
          "velocity": 0.9448818897637795,
          "duration": 0.14084499999999878
        },
        {
          "name": "D2",
          "midi": 38,
          "time": 37.60561499999984,
          "velocity": 0.9448818897637795,
          "duration": 0.14084499999999878
        },
        {
          "name": "F#2",
          "midi": 42,
          "time": 37.746459999999836,
          "velocity": 0.9448818897637795,
          "duration": 0.14084499999999878
        },
        {
          "name": "F#2",
          "midi": 42,
          "time": 37.887304999999834,
          "velocity": 0.9448818897637795,
          "duration": 0.14084499999999878
        },
        {
          "name": "F#2",
          "midi": 42,
          "time": 38.02814999999983,
          "velocity": 0.9448818897637795,
          "duration": 0.14084499999999878
        },
        {
          "name": "B1",
          "midi": 35,
          "time": 38.02814999999983,
          "velocity": 0.9448818897637795,
          "duration": 0.14084499999999878
        },
        {
          "name": "F#2",
          "midi": 42,
          "time": 38.30983999999983,
          "velocity": 0.9448818897637795,
          "duration": 0.14084499999999878
        },
        {
          "name": "B1",
          "midi": 35,
          "time": 38.30983999999983,
          "velocity": 0.9448818897637795,
          "duration": 0.14084499999999878
        },
        {
          "name": "D2",
          "midi": 38,
          "time": 38.45068499999983,
          "velocity": 0.9448818897637795,
          "duration": 0.14084499999999878
        },
        {
          "name": "F#2",
          "midi": 42,
          "time": 38.59152999999983,
          "velocity": 0.9448818897637795,
          "duration": 0.14084499999999878
        },
        {
          "name": "F#2",
          "midi": 42,
          "time": 38.73237499999983,
          "velocity": 0.9448818897637795,
          "duration": 0.14084499999999878
        },
        {
          "name": "F#2",
          "midi": 42,
          "time": 38.873219999999826,
          "velocity": 0.9448818897637795,
          "duration": 0.14084499999999878
        },
        {
          "name": "B1",
          "midi": 35,
          "time": 38.873219999999826,
          "velocity": 0.9448818897637795,
          "duration": 0.14084499999999878
        },
        {
          "name": "F#2",
          "midi": 42,
          "time": 39.15490999999982,
          "velocity": 0.9448818897637795,
          "duration": 0.14084499999999878
        },
        {
          "name": "D2",
          "midi": 38,
          "time": 39.29575499999982,
          "velocity": 0.9448818897637795,
          "duration": 0.14084499999999878
        },
        {
          "name": "F#2",
          "midi": 42,
          "time": 39.43659999999982,
          "velocity": 0.9448818897637795,
          "duration": 0.14084499999999878
        },
        {
          "name": "F#2",
          "midi": 42,
          "time": 39.57744499999982,
          "velocity": 0.9448818897637795,
          "duration": 0.14084499999999878
        },
        {
          "name": "F#2",
          "midi": 42,
          "time": 39.71828999999982,
          "velocity": 0.9448818897637795,
          "duration": 0.14084499999999878
        },
        {
          "name": "B1",
          "midi": 35,
          "time": 39.71828999999982,
          "velocity": 0.9448818897637795,
          "duration": 0.14084499999999878
        },
        {
          "name": "F#2",
          "midi": 42,
          "time": 39.999979999999816,
          "velocity": 0.9448818897637795,
          "duration": 0.14084499999999878
        },
        {
          "name": "B1",
          "midi": 35,
          "time": 39.999979999999816,
          "velocity": 0.9448818897637795,
          "duration": 0.14084499999999878
        },
        {
          "name": "D2",
          "midi": 38,
          "time": 40.140824999999815,
          "velocity": 0.9448818897637795,
          "duration": 0.14084499999999878
        },
        {
          "name": "F#2",
          "midi": 42,
          "time": 40.281669999999814,
          "velocity": 0.9448818897637795,
          "duration": 0.14084499999999878
        },
        {
          "name": "F#2",
          "midi": 42,
          "time": 40.42251499999981,
          "velocity": 0.9448818897637795,
          "duration": 0.14084499999999878
        },
        {
          "name": "D2",
          "midi": 38,
          "time": 40.56335999999981,
          "velocity": 0.9448818897637795,
          "duration": 0.14084499999999878
        },
        {
          "name": "D2",
          "midi": 38,
          "time": 40.70420499999981,
          "velocity": 0.9448818897637795,
          "duration": 0.14084499999999878
        },
        {
          "name": "F#2",
          "midi": 42,
          "time": 40.84504999999981,
          "velocity": 0.9448818897637795,
          "duration": 0.14084499999999878
        },
        {
          "name": "B1",
          "midi": 35,
          "time": 40.84504999999981,
          "velocity": 0.9448818897637795,
          "duration": 0.14084499999999878
        },
        {
          "name": "D2",
          "midi": 38,
          "time": 40.98589499999981,
          "velocity": 0.9448818897637795,
          "duration": 0.14084499999999878
        },
        {
          "name": "F#2",
          "midi": 42,
          "time": 41.126739999999806,
          "velocity": 0.9448818897637795,
          "duration": 0.14084499999999878
        },
        {
          "name": "B1",
          "midi": 35,
          "time": 41.126739999999806,
          "velocity": 0.9448818897637795,
          "duration": 0.14084499999999878
        },
        {
          "name": "D2",
          "midi": 38,
          "time": 41.267584999999805,
          "velocity": 0.9448818897637795,
          "duration": 0.14084499999999878
        },
        {
          "name": "F#2",
          "midi": 42,
          "time": 41.408429999999804,
          "velocity": 0.9448818897637795,
          "duration": 0.14084499999999878
        },
        {
          "name": "B1",
          "midi": 35,
          "time": 41.408429999999804,
          "velocity": 0.9448818897637795,
          "duration": 0.14084499999999878
        },
        {
          "name": "D2",
          "midi": 38,
          "time": 41.5492749999998,
          "velocity": 0.9448818897637795,
          "duration": 0.14084499999999878
        },
        {
          "name": "F#2",
          "midi": 42,
          "time": 41.6901199999998,
          "velocity": 0.9448818897637795,
          "duration": 0.14084499999999878
        },
        {
          "name": "B1",
          "midi": 35,
          "time": 41.6901199999998,
          "velocity": 0.9448818897637795,
          "duration": 0.14084499999999878
        },
        {
          "name": "D2",
          "midi": 38,
          "time": 41.8309649999998,
          "velocity": 0.9448818897637795,
          "duration": 0.14084499999999878
        },
        {
          "name": "F#2",
          "midi": 42,
          "time": 41.9718099999998,
          "velocity": 0.9448818897637795,
          "duration": 0.14084499999999878
        },
        {
          "name": "B1",
          "midi": 35,
          "time": 41.9718099999998,
          "velocity": 0.9448818897637795,
          "duration": 0.14084499999999878
        },
        {
          "name": "D2",
          "midi": 38,
          "time": 42.1126549999998,
          "velocity": 0.9448818897637795,
          "duration": 0.14084499999999878
        },
        {
          "name": "D2",
          "midi": 38,
          "time": 42.253499999999796,
          "velocity": 0.9448818897637795,
          "duration": 0.14084499999999878
        },
        {
          "name": "D2",
          "midi": 38,
          "time": 42.394344999999795,
          "velocity": 0.9448818897637795,
          "duration": 0.14084499999999878
        },
        {
          "name": "F#2",
          "midi": 42,
          "time": 42.535189999999794,
          "velocity": 0.9448818897637795,
          "duration": 0.14084499999999878
        },
        {
          "name": "B1",
          "midi": 35,
          "time": 42.535189999999794,
          "velocity": 0.9448818897637795,
          "duration": 0.14084499999999878
        },
        {
          "name": "D2",
          "midi": 38,
          "time": 42.67603499999979,
          "velocity": 0.9448818897637795,
          "duration": 0.14084499999999878
        },
        {
          "name": "F#2",
          "midi": 42,
          "time": 42.81687999999979,
          "velocity": 0.9448818897637795,
          "duration": 0.14084499999999878
        },
        {
          "name": "B1",
          "midi": 35,
          "time": 42.81687999999979,
          "velocity": 0.9448818897637795,
          "duration": 0.14084499999999878
        },
        {
          "name": "D2",
          "midi": 38,
          "time": 42.95772499999979,
          "velocity": 0.9448818897637795,
          "duration": 0.14084499999999878
        },
        {
          "name": "D2",
          "midi": 38,
          "time": 43.09856999999979,
          "velocity": 0.9448818897637795,
          "duration": 0.14084499999999878
        },
        {
          "name": "F#2",
          "midi": 42,
          "time": 43.23941499999979,
          "velocity": 0.9448818897637795,
          "duration": 0.14084499999999878
        },
        {
          "name": "B1",
          "midi": 35,
          "time": 43.23941499999979,
          "velocity": 0.9448818897637795,
          "duration": 0.14084499999999878
        },
        {
          "name": "D2",
          "midi": 38,
          "time": 43.38025999999979,
          "velocity": 0.9448818897637795,
          "duration": 0.14084499999999878
        },
        {
          "name": "D2",
          "midi": 38,
          "time": 43.521104999999785,
          "velocity": 0.9448818897637795,
          "duration": 0.14084499999999878
        },
        {
          "name": "D2",
          "midi": 38,
          "time": 43.661949999999784,
          "velocity": 0.9448818897637795,
          "duration": 0.14084499999999878
        },
        {
          "name": "D2",
          "midi": 38,
          "time": 43.80279499999978,
          "velocity": 0.9448818897637795,
          "duration": 0.14084499999999878
        },
        {
          "name": "F#2",
          "midi": 42,
          "time": 43.94363999999978,
          "velocity": 0.9448818897637795,
          "duration": 0.14084499999999878
        },
        {
          "name": "B1",
          "midi": 35,
          "time": 43.94363999999978,
          "velocity": 0.9448818897637795,
          "duration": 0.14084499999999878
        },
        {
          "name": "F#2",
          "midi": 42,
          "time": 44.22532999999978,
          "velocity": 0.9448818897637795,
          "duration": 0.14084499999999878
        },
        {
          "name": "D2",
          "midi": 38,
          "time": 44.36617499999978,
          "velocity": 0.9448818897637795,
          "duration": 0.14084499999999878
        },
        {
          "name": "F#2",
          "midi": 42,
          "time": 44.50701999999978,
          "velocity": 0.9448818897637795,
          "duration": 0.14084499999999878
        },
        {
          "name": "F#2",
          "midi": 42,
          "time": 44.647864999999776,
          "velocity": 0.9448818897637795,
          "duration": 0.14084499999999878
        },
        {
          "name": "F#2",
          "midi": 42,
          "time": 44.788709999999774,
          "velocity": 0.9448818897637795,
          "duration": 0.14084499999999878
        },
        {
          "name": "B1",
          "midi": 35,
          "time": 44.788709999999774,
          "velocity": 0.9448818897637795,
          "duration": 0.14084499999999878
        },
        {
          "name": "F#2",
          "midi": 42,
          "time": 45.07039999999977,
          "velocity": 0.9448818897637795,
          "duration": 0.14084499999999878
        },
        {
          "name": "B1",
          "midi": 35,
          "time": 45.07039999999977,
          "velocity": 0.9448818897637795,
          "duration": 0.14084499999999878
        },
        {
          "name": "D2",
          "midi": 38,
          "time": 45.21124499999977,
          "velocity": 0.9448818897637795,
          "duration": 0.14084499999999878
        },
        {
          "name": "F#2",
          "midi": 42,
          "time": 45.35208999999977,
          "velocity": 0.9448818897637795,
          "duration": 0.14084499999999878
        },
        {
          "name": "F#2",
          "midi": 42,
          "time": 45.49293499999977,
          "velocity": 0.9448818897637795,
          "duration": 0.14084499999999878
        },
        {
          "name": "F#2",
          "midi": 42,
          "time": 45.63377999999977,
          "velocity": 0.9448818897637795,
          "duration": 0.14084499999999878
        },
        {
          "name": "B1",
          "midi": 35,
          "time": 45.63377999999977,
          "velocity": 0.9448818897637795,
          "duration": 0.14084499999999878
        },
        {
          "name": "F#2",
          "midi": 42,
          "time": 45.915469999999765,
          "velocity": 0.9448818897637795,
          "duration": 0.14084499999999878
        },
        {
          "name": "D2",
          "midi": 38,
          "time": 46.05631499999976,
          "velocity": 0.9448818897637795,
          "duration": 0.14084499999999878
        },
        {
          "name": "F#2",
          "midi": 42,
          "time": 46.19715999999976,
          "velocity": 0.9448818897637795,
          "duration": 0.14084499999999878
        },
        {
          "name": "F#2",
          "midi": 42,
          "time": 46.33800499999976,
          "velocity": 0.9448818897637795,
          "duration": 0.14084499999999878
        },
        {
          "name": "F#2",
          "midi": 42,
          "time": 46.47884999999976,
          "velocity": 0.9448818897637795,
          "duration": 0.14084499999999878
        },
        {
          "name": "B1",
          "midi": 35,
          "time": 46.47884999999976,
          "velocity": 0.9448818897637795,
          "duration": 0.14084499999999878
        },
        {
          "name": "F#2",
          "midi": 42,
          "time": 46.76053999999976,
          "velocity": 0.9448818897637795,
          "duration": 0.14084499999999878
        },
        {
          "name": "B1",
          "midi": 35,
          "time": 46.76053999999976,
          "velocity": 0.9448818897637795,
          "duration": 0.14084499999999878
        },
        {
          "name": "D2",
          "midi": 38,
          "time": 46.901384999999756,
          "velocity": 0.9448818897637795,
          "duration": 0.14084499999999878
        },
        {
          "name": "F#2",
          "midi": 42,
          "time": 47.042229999999755,
          "velocity": 0.9448818897637795,
          "duration": 0.14084499999999878
        },
        {
          "name": "F#2",
          "midi": 42,
          "time": 47.183074999999754,
          "velocity": 0.9448818897637795,
          "duration": 0.14084499999999878
        },
        {
          "name": "D2",
          "midi": 38,
          "time": 47.32391999999975,
          "velocity": 0.9448818897637795,
          "duration": 0.14084499999999878
        },
        {
          "name": "D2",
          "midi": 38,
          "time": 47.46476499999975,
          "velocity": 0.9448818897637795,
          "duration": 0.14084499999999878
        },
        {
          "name": "F#2",
          "midi": 42,
          "time": 47.60560999999975,
          "velocity": 0.9448818897637795,
          "duration": 0.14084499999999878
        },
        {
          "name": "B1",
          "midi": 35,
          "time": 47.60560999999975,
          "velocity": 0.9448818897637795,
          "duration": 0.14084499999999878
        },
        {
          "name": "D2",
          "midi": 38,
          "time": 47.74645499999975,
          "velocity": 0.9448818897637795,
          "duration": 0.14084499999999878
        },
        {
          "name": "F#2",
          "midi": 42,
          "time": 47.88729999999975,
          "velocity": 0.9448818897637795,
          "duration": 0.14084499999999878
        },
        {
          "name": "B1",
          "midi": 35,
          "time": 47.88729999999975,
          "velocity": 0.9448818897637795,
          "duration": 0.14084499999999878
        },
        {
          "name": "D2",
          "midi": 38,
          "time": 48.028144999999746,
          "velocity": 0.9448818897637795,
          "duration": 0.14084499999999878
        },
        {
          "name": "F#2",
          "midi": 42,
          "time": 48.168989999999745,
          "velocity": 0.9448818897637795,
          "duration": 0.14084499999999878
        },
        {
          "name": "B1",
          "midi": 35,
          "time": 48.168989999999745,
          "velocity": 0.9448818897637795,
          "duration": 0.14084499999999878
        },
        {
          "name": "D2",
          "midi": 38,
          "time": 48.309834999999744,
          "velocity": 0.9448818897637795,
          "duration": 0.14084499999999878
        },
        {
          "name": "F#2",
          "midi": 42,
          "time": 48.45067999999974,
          "velocity": 0.9448818897637795,
          "duration": 0.14084499999999878
        },
        {
          "name": "B1",
          "midi": 35,
          "time": 48.45067999999974,
          "velocity": 0.9448818897637795,
          "duration": 0.14084499999999878
        },
        {
          "name": "D2",
          "midi": 38,
          "time": 48.59152499999974,
          "velocity": 0.9448818897637795,
          "duration": 0.14084499999999878
        },
        {
          "name": "F#2",
          "midi": 42,
          "time": 48.73236999999974,
          "velocity": 0.9448818897637795,
          "duration": 0.14084499999999878
        },
        {
          "name": "B1",
          "midi": 35,
          "time": 48.73236999999974,
          "velocity": 0.9448818897637795,
          "duration": 0.14084499999999878
        },
        {
          "name": "D2",
          "midi": 38,
          "time": 48.87321499999974,
          "velocity": 0.9448818897637795,
          "duration": 0.14084499999999878
        },
        {
          "name": "D2",
          "midi": 38,
          "time": 49.01405999999974,
          "velocity": 0.9448818897637795,
          "duration": 0.14084499999999878
        },
        {
          "name": "D2",
          "midi": 38,
          "time": 49.15490499999974,
          "velocity": 0.9448818897637795,
          "duration": 0.14084499999999878
        },
        {
          "name": "F#2",
          "midi": 42,
          "time": 49.295749999999735,
          "velocity": 0.9448818897637795,
          "duration": 0.14084499999999878
        },
        {
          "name": "B1",
          "midi": 35,
          "time": 49.295749999999735,
          "velocity": 0.9448818897637795,
          "duration": 0.14084499999999878
        },
        {
          "name": "D2",
          "midi": 38,
          "time": 49.436594999999734,
          "velocity": 0.9448818897637795,
          "duration": 0.14084499999999878
        },
        {
          "name": "F#2",
          "midi": 42,
          "time": 49.57743999999973,
          "velocity": 0.9448818897637795,
          "duration": 0.14084499999999878
        },
        {
          "name": "B1",
          "midi": 35,
          "time": 49.57743999999973,
          "velocity": 0.9448818897637795,
          "duration": 0.14084499999999878
        },
        {
          "name": "D2",
          "midi": 38,
          "time": 49.71828499999973,
          "velocity": 0.9448818897637795,
          "duration": 0.14084499999999878
        },
        {
          "name": "D2",
          "midi": 38,
          "time": 49.85912999999973,
          "velocity": 0.9448818897637795,
          "duration": 0.14084499999999878
        },
        {
          "name": "F#2",
          "midi": 42,
          "time": 49.99997499999973,
          "velocity": 0.9448818897637795,
          "duration": 0.14084499999999878
        },
        {
          "name": "B1",
          "midi": 35,
          "time": 49.99997499999973,
          "velocity": 0.9448818897637795,
          "duration": 0.14084499999999878
        },
        {
          "name": "D2",
          "midi": 38,
          "time": 50.14081999999973,
          "velocity": 0.9448818897637795,
          "duration": 0.14084499999999878
        },
        {
          "name": "D2",
          "midi": 38,
          "time": 50.28166499999973,
          "velocity": 0.9448818897637795,
          "duration": 0.14084499999999878
        },
        {
          "name": "D2",
          "midi": 38,
          "time": 50.422509999999725,
          "velocity": 0.9448818897637795,
          "duration": 0.14084499999999878
        },
        {
          "name": "D2",
          "midi": 38,
          "time": 50.563354999999724,
          "velocity": 0.9448818897637795,
          "duration": 0.14084499999999878
        },
        {
          "name": "F#2",
          "midi": 42,
          "time": 50.70419999999972,
          "velocity": 0.9448818897637795,
          "duration": 0.14084499999999878
        },
        {
          "name": "B1",
          "midi": 35,
          "time": 50.70419999999972,
          "velocity": 0.9448818897637795,
          "duration": 0.14084499999999878
        },
        {
          "name": "F#2",
          "midi": 42,
          "time": 50.98588999999972,
          "velocity": 0.9448818897637795,
          "duration": 0.14084499999999878
        },
        {
          "name": "D2",
          "midi": 38,
          "time": 51.12673499999972,
          "velocity": 0.9448818897637795,
          "duration": 0.14084499999999878
        },
        {
          "name": "F#2",
          "midi": 42,
          "time": 51.26757999999972,
          "velocity": 0.9448818897637795,
          "duration": 0.14084499999999878
        },
        {
          "name": "F#2",
          "midi": 42,
          "time": 51.40842499999972,
          "velocity": 0.9448818897637795,
          "duration": 0.14084499999999878
        },
        {
          "name": "F#2",
          "midi": 42,
          "time": 51.549269999999716,
          "velocity": 0.9448818897637795,
          "duration": 0.14084499999999878
        },
        {
          "name": "B1",
          "midi": 35,
          "time": 51.549269999999716,
          "velocity": 0.9448818897637795,
          "duration": 0.14084499999999878
        },
        {
          "name": "F#2",
          "midi": 42,
          "time": 51.83095999999971,
          "velocity": 0.9448818897637795,
          "duration": 0.14084499999999878
        },
        {
          "name": "B1",
          "midi": 35,
          "time": 51.83095999999971,
          "velocity": 0.9448818897637795,
          "duration": 0.14084499999999878
        },
        {
          "name": "D2",
          "midi": 38,
          "time": 51.97180499999971,
          "velocity": 0.9448818897637795,
          "duration": 0.14084499999999878
        },
        {
          "name": "F#2",
          "midi": 42,
          "time": 52.11264999999971,
          "velocity": 0.9448818897637795,
          "duration": 0.14084499999999878
        },
        {
          "name": "F#2",
          "midi": 42,
          "time": 52.25349499999971,
          "velocity": 0.9448818897637795,
          "duration": 0.14084499999999878
        },
        {
          "name": "F#2",
          "midi": 42,
          "time": 52.39433999999971,
          "velocity": 0.9448818897637795,
          "duration": 0.14084499999999878
        },
        {
          "name": "B1",
          "midi": 35,
          "time": 52.39433999999971,
          "velocity": 0.9448818897637795,
          "duration": 0.14084499999999878
        },
        {
          "name": "F#2",
          "midi": 42,
          "time": 52.676029999999706,
          "velocity": 0.9448818897637795,
          "duration": 0.14084499999999878
        },
        {
          "name": "D2",
          "midi": 38,
          "time": 52.816874999999705,
          "velocity": 0.9448818897637795,
          "duration": 0.14084499999999878
        },
        {
          "name": "F#2",
          "midi": 42,
          "time": 52.9577199999997,
          "velocity": 0.9448818897637795,
          "duration": 0.14084499999999878
        },
        {
          "name": "F#2",
          "midi": 42,
          "time": 53.0985649999997,
          "velocity": 0.9448818897637795,
          "duration": 0.14084499999999878
        },
        {
          "name": "F#2",
          "midi": 42,
          "time": 53.2394099999997,
          "velocity": 0.9448818897637795,
          "duration": 0.14084499999999878
        },
        {
          "name": "B1",
          "midi": 35,
          "time": 53.2394099999997,
          "velocity": 0.9448818897637795,
          "duration": 0.14084499999999878
        },
        {
          "name": "F#2",
          "midi": 42,
          "time": 53.5210999999997,
          "velocity": 0.9448818897637795,
          "duration": 0.14084499999999878
        },
        {
          "name": "B1",
          "midi": 35,
          "time": 53.5210999999997,
          "velocity": 0.9448818897637795,
          "duration": 0.14084499999999878
        },
        {
          "name": "D2",
          "midi": 38,
          "time": 53.6619449999997,
          "velocity": 0.9448818897637795,
          "duration": 0.14084499999999878
        },
        {
          "name": "F#2",
          "midi": 42,
          "time": 53.802789999999696,
          "velocity": 0.9448818897637795,
          "duration": 0.14084499999999878
        },
        {
          "name": "F#2",
          "midi": 42,
          "time": 53.943634999999695,
          "velocity": 0.9448818897637795,
          "duration": 0.14084499999999878
        },
        {
          "name": "F#2",
          "midi": 42,
          "time": 54.084479999999694,
          "velocity": 0.9448818897637795,
          "duration": 0.14084499999999878
        },
        {
          "name": "B1",
          "midi": 35,
          "time": 54.084479999999694,
          "velocity": 0.9448818897637795,
          "duration": 0.14084499999999878
        },
        {
          "name": "F#2",
          "midi": 42,
          "time": 54.36616999999969,
          "velocity": 0.9448818897637795,
          "duration": 0.14084499999999878
        },
        {
          "name": "D2",
          "midi": 38,
          "time": 54.50701499999969,
          "velocity": 0.9448818897637795,
          "duration": 0.14084499999999878
        },
        {
          "name": "F#2",
          "midi": 42,
          "time": 54.64785999999969,
          "velocity": 0.9448818897637795,
          "duration": 0.14084499999999878
        },
        {
          "name": "F#2",
          "midi": 42,
          "time": 54.78870499999969,
          "velocity": 0.9448818897637795,
          "duration": 0.14084499999999878
        },
        {
          "name": "F#2",
          "midi": 42,
          "time": 54.929549999999686,
          "velocity": 0.9448818897637795,
          "duration": 0.14084499999999878
        },
        {
          "name": "B1",
          "midi": 35,
          "time": 54.929549999999686,
          "velocity": 0.9448818897637795,
          "duration": 0.14084499999999878
        },
        {
          "name": "F#2",
          "midi": 42,
          "time": 55.211239999999684,
          "velocity": 0.9448818897637795,
          "duration": 0.14084499999999878
        },
        {
          "name": "B1",
          "midi": 35,
          "time": 55.211239999999684,
          "velocity": 0.9448818897637795,
          "duration": 0.14084499999999878
        },
        {
          "name": "D2",
          "midi": 38,
          "time": 55.35208499999968,
          "velocity": 0.9448818897637795,
          "duration": 0.14084499999999878
        },
        {
          "name": "F#2",
          "midi": 42,
          "time": 55.49292999999968,
          "velocity": 0.9448818897637795,
          "duration": 0.14084499999999878
        },
        {
          "name": "F#2",
          "midi": 42,
          "time": 55.63377499999968,
          "velocity": 0.9448818897637795,
          "duration": 0.14084499999999878
        },
        {
          "name": "F#2",
          "midi": 42,
          "time": 55.77461999999968,
          "velocity": 0.9448818897637795,
          "duration": 0.14084499999999878
        },
        {
          "name": "B1",
          "midi": 35,
          "time": 55.77461999999968,
          "velocity": 0.9448818897637795,
          "duration": 0.14084499999999878
        },
        {
          "name": "F#2",
          "midi": 42,
          "time": 56.05630999999968,
          "velocity": 0.9448818897637795,
          "duration": 0.14084499999999878
        },
        {
          "name": "D2",
          "midi": 38,
          "time": 56.197154999999675,
          "velocity": 0.9448818897637795,
          "duration": 0.14084499999999878
        },
        {
          "name": "F#2",
          "midi": 42,
          "time": 56.337999999999674,
          "velocity": 0.9448818897637795,
          "duration": 0.14084499999999878
        },
        {
          "name": "F#2",
          "midi": 42,
          "time": 56.47884499999967,
          "velocity": 0.9448818897637795,
          "duration": 0.14084499999999878
        },
        {
          "name": "F#2",
          "midi": 42,
          "time": 56.61968999999967,
          "velocity": 0.9448818897637795,
          "duration": 0.14084499999999878
        },
        {
          "name": "B1",
          "midi": 35,
          "time": 56.61968999999967,
          "velocity": 0.9448818897637795,
          "duration": 0.14084499999999878
        },
        {
          "name": "F#2",
          "midi": 42,
          "time": 56.90137999999967,
          "velocity": 0.9448818897637795,
          "duration": 0.14084499999999878
        },
        {
          "name": "B1",
          "midi": 35,
          "time": 56.90137999999967,
          "velocity": 0.9448818897637795,
          "duration": 0.14084499999999878
        },
        {
          "name": "D2",
          "midi": 38,
          "time": 57.04222499999967,
          "velocity": 0.9448818897637795,
          "duration": 0.14084499999999878
        },
        {
          "name": "F#2",
          "midi": 42,
          "time": 57.18306999999967,
          "velocity": 0.9448818897637795,
          "duration": 0.14084499999999878
        },
        {
          "name": "F#2",
          "midi": 42,
          "time": 57.323914999999666,
          "velocity": 0.9448818897637795,
          "duration": 0.14084499999999878
        },
        {
          "name": "F#2",
          "midi": 42,
          "time": 57.464759999999664,
          "velocity": 0.9448818897637795,
          "duration": 0.14084499999999878
        },
        {
          "name": "B1",
          "midi": 35,
          "time": 57.464759999999664,
          "velocity": 0.9448818897637795,
          "duration": 0.14084499999999878
        },
        {
          "name": "F#2",
          "midi": 42,
          "time": 57.74644999999966,
          "velocity": 0.9448818897637795,
          "duration": 0.14084499999999878
        },
        {
          "name": "D2",
          "midi": 38,
          "time": 57.88729499999966,
          "velocity": 0.9448818897637795,
          "duration": 0.14084499999999878
        },
        {
          "name": "F#2",
          "midi": 42,
          "time": 58.02813999999966,
          "velocity": 0.9448818897637795,
          "duration": 0.14084499999999878
        },
        {
          "name": "F#2",
          "midi": 42,
          "time": 58.16898499999966,
          "velocity": 0.9448818897637795,
          "duration": 0.14084499999999878
        },
        {
          "name": "F#2",
          "midi": 42,
          "time": 58.30982999999966,
          "velocity": 0.9448818897637795,
          "duration": 0.14084499999999878
        },
        {
          "name": "B1",
          "midi": 35,
          "time": 58.30982999999966,
          "velocity": 0.9448818897637795,
          "duration": 0.14084499999999878
        },
        {
          "name": "F#2",
          "midi": 42,
          "time": 58.591519999999655,
          "velocity": 0.9448818897637795,
          "duration": 0.14084499999999878
        },
        {
          "name": "B1",
          "midi": 35,
          "time": 58.591519999999655,
          "velocity": 0.9448818897637795,
          "duration": 0.14084499999999878
        },
        {
          "name": "D2",
          "midi": 38,
          "time": 58.73236499999965,
          "velocity": 0.9448818897637795,
          "duration": 0.14084499999999878
        },
        {
          "name": "F#2",
          "midi": 42,
          "time": 58.87320999999965,
          "velocity": 0.9448818897637795,
          "duration": 0.14084499999999878
        },
        {
          "name": "F#2",
          "midi": 42,
          "time": 59.01405499999965,
          "velocity": 0.9448818897637795,
          "duration": 0.14084499999999878
        },
        {
          "name": "F#2",
          "midi": 42,
          "time": 59.15489999999965,
          "velocity": 0.9448818897637795,
          "duration": 0.14084499999999878
        },
        {
          "name": "B1",
          "midi": 35,
          "time": 59.15489999999965,
          "velocity": 0.9448818897637795,
          "duration": 0.14084499999999878
        },
        {
          "name": "F#2",
          "midi": 42,
          "time": 59.43658999999965,
          "velocity": 0.9448818897637795,
          "duration": 0.14084499999999878
        },
        {
          "name": "D2",
          "midi": 38,
          "time": 59.577434999999646,
          "velocity": 0.9448818897637795,
          "duration": 0.14084499999999878
        },
        {
          "name": "F#2",
          "midi": 42,
          "time": 59.718279999999645,
          "velocity": 0.9448818897637795,
          "duration": 0.14084499999999878
        },
        {
          "name": "F#2",
          "midi": 42,
          "time": 59.85912499999964,
          "velocity": 0.9448818897637795,
          "duration": 0.14084499999999878
        },
        {
          "name": "F#2",
          "midi": 42,
          "time": 59.99996999999964,
          "velocity": 0.9448818897637795,
          "duration": 0.14084499999999878
        },
        {
          "name": "B1",
          "midi": 35,
          "time": 59.99996999999964,
          "velocity": 0.9448818897637795,
          "duration": 0.14084499999999878
        },
        {
          "name": "F#2",
          "midi": 42,
          "time": 60.28165999999964,
          "velocity": 0.9448818897637795,
          "duration": 0.14084499999999878
        },
        {
          "name": "B1",
          "midi": 35,
          "time": 60.28165999999964,
          "velocity": 0.9448818897637795,
          "duration": 0.14084499999999878
        },
        {
          "name": "D2",
          "midi": 38,
          "time": 60.42250499999964,
          "velocity": 0.9448818897637795,
          "duration": 0.14084499999999878
        },
        {
          "name": "F#2",
          "midi": 42,
          "time": 60.56334999999964,
          "velocity": 0.9448818897637795,
          "duration": 0.14084499999999878
        },
        {
          "name": "F#2",
          "midi": 42,
          "time": 60.704194999999636,
          "velocity": 0.9448818897637795,
          "duration": 0.14084499999999878
        },
        {
          "name": "F#2",
          "midi": 42,
          "time": 60.845039999999635,
          "velocity": 0.9448818897637795,
          "duration": 0.14084499999999878
        },
        {
          "name": "B1",
          "midi": 35,
          "time": 60.845039999999635,
          "velocity": 0.9448818897637795,
          "duration": 0.14084499999999878
        },
        {
          "name": "F#2",
          "midi": 42,
          "time": 61.12672999999963,
          "velocity": 0.9448818897637795,
          "duration": 0.14084499999999878
        },
        {
          "name": "D2",
          "midi": 38,
          "time": 61.26757499999963,
          "velocity": 0.9448818897637795,
          "duration": 0.14084499999999878
        },
        {
          "name": "F#2",
          "midi": 42,
          "time": 61.40841999999963,
          "velocity": 0.9448818897637795,
          "duration": 0.14084499999999878
        },
        {
          "name": "F#2",
          "midi": 42,
          "time": 61.54926499999963,
          "velocity": 0.9448818897637795,
          "duration": 0.14084499999999878
        },
        {
          "name": "F#2",
          "midi": 42,
          "time": 61.69010999999963,
          "velocity": 0.9448818897637795,
          "duration": 0.14084499999999878
        },
        {
          "name": "B1",
          "midi": 35,
          "time": 61.69010999999963,
          "velocity": 0.9448818897637795,
          "duration": 0.14084499999999878
        },
        {
          "name": "F#2",
          "midi": 42,
          "time": 61.971799999999625,
          "velocity": 0.9448818897637795,
          "duration": 0.14084499999999878
        },
        {
          "name": "B1",
          "midi": 35,
          "time": 61.971799999999625,
          "velocity": 0.9448818897637795,
          "duration": 0.14084499999999878
        },
        {
          "name": "D2",
          "midi": 38,
          "time": 62.112644999999624,
          "velocity": 0.9448818897637795,
          "duration": 0.14084499999999878
        },
        {
          "name": "F#2",
          "midi": 42,
          "time": 62.25348999999962,
          "velocity": 0.9448818897637795,
          "duration": 0.14084499999999878
        },
        {
          "name": "F#2",
          "midi": 42,
          "time": 62.39433499999962,
          "velocity": 0.9448818897637795,
          "duration": 0.14084499999999878
        },
        {
          "name": "F#2",
          "midi": 42,
          "time": 62.53517999999962,
          "velocity": 0.9448818897637795,
          "duration": 0.14084499999999878
        },
        {
          "name": "B1",
          "midi": 35,
          "time": 62.53517999999962,
          "velocity": 0.9448818897637795,
          "duration": 0.14084499999999878
        },
        {
          "name": "F#2",
          "midi": 42,
          "time": 62.81686999999962,
          "velocity": 0.9448818897637795,
          "duration": 0.14084499999999878
        },
        {
          "name": "D2",
          "midi": 38,
          "time": 62.95771499999962,
          "velocity": 0.9448818897637795,
          "duration": 0.14084499999999878
        },
        {
          "name": "F#2",
          "midi": 42,
          "time": 63.098559999999615,
          "velocity": 0.9448818897637795,
          "duration": 0.14084499999999878
        },
        {
          "name": "F#2",
          "midi": 42,
          "time": 63.239404999999614,
          "velocity": 0.9448818897637795,
          "duration": 0.14084499999999878
        },
        {
          "name": "F#2",
          "midi": 42,
          "time": 63.38024999999961,
          "velocity": 0.9448818897637795,
          "duration": 0.14084499999999878
        },
        {
          "name": "B1",
          "midi": 35,
          "time": 63.38024999999961,
          "velocity": 0.9448818897637795,
          "duration": 0.14084499999999878
        },
        {
          "name": "F#2",
          "midi": 42,
          "time": 63.66193999999961,
          "velocity": 0.9448818897637795,
          "duration": 0.14084499999999878
        },
        {
          "name": "B1",
          "midi": 35,
          "time": 63.66193999999961,
          "velocity": 0.9448818897637795,
          "duration": 0.14084499999999878
        },
        {
          "name": "D2",
          "midi": 38,
          "time": 63.80278499999961,
          "velocity": 0.9448818897637795,
          "duration": 0.14084499999999878
        },
        {
          "name": "F#2",
          "midi": 42,
          "time": 63.94362999999961,
          "velocity": 0.9448818897637795,
          "duration": 0.14084500000000588
        },
        {
          "name": "F#2",
          "midi": 42,
          "time": 64.08447499999961,
          "velocity": 0.9448818897637795,
          "duration": 0.14084499999999878
        }
      ];