export let synth2 = [
        {
          "name": "A#5",
          "midi": 82,
          "time": 0,
          "velocity": 0.9448818897637795,
          "duration": 0.56338
        },
        {
          "name": "F5",
          "midi": 77,
          "time": 0.56338,
          "velocity": 0.9448818897637795,
          "duration": 0.140845
        },
        {
          "name": "A#5",
          "midi": 82,
          "time": 0.704225,
          "velocity": 0.9448818897637795,
          "duration": 0.140845
        },
        {
          "name": "G#5",
          "midi": 80,
          "time": 0.84507,
          "velocity": 0.9448818897637795,
          "duration": 0.28169
        },
        {
          "name": "D#5",
          "midi": 75,
          "time": 1.12676,
          "velocity": 0.9448818897637795,
          "duration": 0.28169
        },
        {
          "name": "G5",
          "midi": 79,
          "time": 1.40845,
          "velocity": 0.9448818897637795,
          "duration": 0.28169
        },
        {
          "name": "F5",
          "midi": 77,
          "time": 1.69014,
          "velocity": 0.9448818897637795,
          "duration": 0.8450700000000002
        },
        {
          "name": "C5",
          "midi": 72,
          "time": 2.53521,
          "velocity": 0.9448818897637795,
          "duration": 0.1408450000000001
        },
        {
          "name": "D5",
          "midi": 74,
          "time": 2.6760550000000003,
          "velocity": 0.9448818897637795,
          "duration": 0.1408450000000001
        },
        {
          "name": "D#5",
          "midi": 75,
          "time": 2.8169000000000004,
          "velocity": 0.9448818897637795,
          "duration": 0.1408450000000001
        },
        {
          "name": "G#5",
          "midi": 80,
          "time": 2.9577450000000005,
          "velocity": 0.9448818897637795,
          "duration": 0.1408450000000001
        },
        {
          "name": "A#5",
          "midi": 82,
          "time": 3.0985900000000006,
          "velocity": 0.9448818897637795,
          "duration": 0.1408450000000001
        },
        {
          "name": "C6",
          "midi": 84,
          "time": 3.2394350000000007,
          "velocity": 0.9448818897637795,
          "duration": 0.1408450000000001
        },
        {
          "name": "A#5",
          "midi": 82,
          "time": 3.380280000000001,
          "velocity": 0.9448818897637795,
          "duration": 0.56338
        },
        {
          "name": "F5",
          "midi": 77,
          "time": 3.943660000000001,
          "velocity": 0.9448818897637795,
          "duration": 0.1408450000000001
        },
        {
          "name": "A#5",
          "midi": 82,
          "time": 4.084505000000001,
          "velocity": 0.9448818897637795,
          "duration": 0.14084499999999966
        },
        {
          "name": "G#5",
          "midi": 80,
          "time": 4.225350000000001,
          "velocity": 0.9448818897637795,
          "duration": 0.2816900000000002
        },
        {
          "name": "D#5",
          "midi": 75,
          "time": 4.507040000000001,
          "velocity": 0.9448818897637795,
          "duration": 0.2816900000000002
        },
        {
          "name": "G5",
          "midi": 79,
          "time": 4.788730000000001,
          "velocity": 0.9448818897637795,
          "duration": 0.2816900000000002
        },
        {
          "name": "F5",
          "midi": 77,
          "time": 5.070420000000001,
          "velocity": 0.9448818897637795,
          "duration": 0.8450699999999998
        },
        {
          "name": "G5",
          "midi": 79,
          "time": 5.915490000000001,
          "velocity": 0.9448818897637795,
          "duration": 0.8450699999999998
        },
        {
          "name": "A5",
          "midi": 81,
          "time": 6.760560000000001,
          "velocity": 0.9448818897637795,
          "duration": 3.38028
        },
        {
          "name": "D4",
          "midi": 62,
          "time": 10.14084,
          "velocity": 0.9448818897637795,
          "duration": 0.14084500000000055
        },
        {
          "name": "E4",
          "midi": 64,
          "time": 10.281685000000001,
          "velocity": 0.9448818897637795,
          "duration": 0.14084500000000055
        },
        {
          "name": "F4",
          "midi": 65,
          "time": 10.422530000000002,
          "velocity": 0.9448818897637795,
          "duration": 0.14084500000000055
        },
        {
          "name": "G4",
          "midi": 67,
          "time": 10.563375000000002,
          "velocity": 0.9448818897637795,
          "duration": 0.14084500000000055
        },
        {
          "name": "F4",
          "midi": 65,
          "time": 10.704220000000003,
          "velocity": 0.9448818897637795,
          "duration": 0.14084500000000055
        },
        {
          "name": "E4",
          "midi": 64,
          "time": 10.845065000000004,
          "velocity": 0.9448818897637795,
          "duration": 0.14084500000000055
        },
        {
          "name": "F4",
          "midi": 65,
          "time": 10.985910000000004,
          "velocity": 0.9448818897637795,
          "duration": 0.14084500000000055
        },
        {
          "name": "E4",
          "midi": 64,
          "time": 11.126755000000005,
          "velocity": 0.9448818897637795,
          "duration": 0.14084500000000055
        },
        {
          "name": "D4",
          "midi": 62,
          "time": 11.267600000000005,
          "velocity": 0.9448818897637795,
          "duration": 0.14084500000000055
        },
        {
          "name": "E4",
          "midi": 64,
          "time": 11.408445000000006,
          "velocity": 0.9448818897637795,
          "duration": 0.14084500000000055
        },
        {
          "name": "D4",
          "midi": 62,
          "time": 11.549290000000006,
          "velocity": 0.9448818897637795,
          "duration": 0.14084500000000055
        },
        {
          "name": "C4",
          "midi": 60,
          "time": 11.690135000000007,
          "velocity": 0.9448818897637795,
          "duration": 0.14084500000000055
        },
        {
          "name": "A3",
          "midi": 57,
          "time": 11.830980000000007,
          "velocity": 0.9448818897637795,
          "duration": 0.8450699999999998
        },
        {
          "name": "D4",
          "midi": 62,
          "time": 12.676050000000007,
          "velocity": 0.9448818897637795,
          "duration": 0.8450699999999998
        },
        {
          "name": "A#4",
          "midi": 70,
          "time": 13.661965000000007,
          "velocity": 0.9448818897637795,
          "duration": 0.14084500000000055
        },
        {
          "name": "A#4",
          "midi": 70,
          "time": 13.943655000000009,
          "velocity": 0.9448818897637795,
          "duration": 0.4225349999999999
        },
        {
          "name": "A#4",
          "midi": 70,
          "time": 14.507035000000009,
          "velocity": 0.9448818897637795,
          "duration": 0.14084500000000055
        },
        {
          "name": "A#4",
          "midi": 70,
          "time": 14.78872500000001,
          "velocity": 0.9448818897637795,
          "duration": 0.4225349999999999
        },
        {
          "name": "A#4",
          "midi": 70,
          "time": 15.35210500000001,
          "velocity": 0.9448818897637795,
          "duration": 0.14084500000000055
        },
        {
          "name": "A#4",
          "midi": 70,
          "time": 15.633795000000012,
          "velocity": 0.9448818897637795,
          "duration": 0.28168999999999933
        },
        {
          "name": "C5",
          "midi": 72,
          "time": 15.915485000000011,
          "velocity": 0.9448818897637795,
          "duration": 0.14084499999999878
        },
        {
          "name": "C#5",
          "midi": 73,
          "time": 16.05633000000001,
          "velocity": 0.9448818897637795,
          "duration": 0.2816900000000011
        },
        {
          "name": "C#5",
          "midi": 73,
          "time": 16.33802000000001,
          "velocity": 0.9448818897637795,
          "duration": 0.14084499999999878
        },
        {
          "name": "C#5",
          "midi": 73,
          "time": 16.47886500000001,
          "velocity": 0.9448818897637795,
          "duration": 0.14084499999999878
        },
        {
          "name": "C5",
          "midi": 72,
          "time": 16.61971000000001,
          "velocity": 0.9448818897637795,
          "duration": 0.14084499999999878
        },
        {
          "name": "A#4",
          "midi": 70,
          "time": 16.760555000000007,
          "velocity": 0.9448818897637795,
          "duration": 0.14084499999999878
        },
        {
          "name": "D4",
          "midi": 62,
          "time": 16.901400000000006,
          "velocity": 0.9448818897637795,
          "duration": 0.14084499999999878
        },
        {
          "name": "E4",
          "midi": 64,
          "time": 17.042245000000005,
          "velocity": 0.9448818897637795,
          "duration": 0.14084499999999878
        },
        {
          "name": "F4",
          "midi": 65,
          "time": 17.183090000000004,
          "velocity": 0.9448818897637795,
          "duration": 0.14084499999999878
        },
        {
          "name": "G4",
          "midi": 67,
          "time": 17.323935000000002,
          "velocity": 0.9448818897637795,
          "duration": 0.14084499999999878
        },
        {
          "name": "F4",
          "midi": 65,
          "time": 17.46478,
          "velocity": 0.9448818897637795,
          "duration": 0.14084499999999878
        },
        {
          "name": "E4",
          "midi": 64,
          "time": 17.605625,
          "velocity": 0.9448818897637795,
          "duration": 0.14084499999999878
        },
        {
          "name": "F4",
          "midi": 65,
          "time": 17.74647,
          "velocity": 0.9448818897637795,
          "duration": 0.14084499999999878
        },
        {
          "name": "E4",
          "midi": 64,
          "time": 17.887314999999997,
          "velocity": 0.9448818897637795,
          "duration": 0.14084499999999878
        },
        {
          "name": "D4",
          "midi": 62,
          "time": 18.028159999999996,
          "velocity": 0.9448818897637795,
          "duration": 0.14084499999999878
        },
        {
          "name": "E4",
          "midi": 64,
          "time": 18.169004999999995,
          "velocity": 0.9448818897637795,
          "duration": 0.14084499999999878
        },
        {
          "name": "D4",
          "midi": 62,
          "time": 18.309849999999994,
          "velocity": 0.9448818897637795,
          "duration": 0.14084499999999878
        },
        {
          "name": "C4",
          "midi": 60,
          "time": 18.450694999999993,
          "velocity": 0.9448818897637795,
          "duration": 0.14084499999999878
        },
        {
          "name": "A3",
          "midi": 57,
          "time": 18.59153999999999,
          "velocity": 0.9448818897637795,
          "duration": 0.8450699999999998
        },
        {
          "name": "D4",
          "midi": 62,
          "time": 19.43660999999999,
          "velocity": 0.9448818897637795,
          "duration": 0.8450699999999998
        },
        {
          "name": "A#4",
          "midi": 70,
          "time": 20.42252499999999,
          "velocity": 0.9448818897637795,
          "duration": 0.14084499999999878
        },
        {
          "name": "A#4",
          "midi": 70,
          "time": 20.704214999999987,
          "velocity": 0.9448818897637795,
          "duration": 0.4225349999999999
        },
        {
          "name": "A#4",
          "midi": 70,
          "time": 21.267594999999986,
          "velocity": 0.9448818897637795,
          "duration": 0.14084499999999878
        },
        {
          "name": "A#4",
          "midi": 70,
          "time": 21.549284999999983,
          "velocity": 0.9448818897637795,
          "duration": 0.4225349999999999
        },
        {
          "name": "A#4",
          "midi": 70,
          "time": 22.112664999999982,
          "velocity": 0.9448818897637795,
          "duration": 0.14084499999999878
        },
        {
          "name": "A#4",
          "midi": 70,
          "time": 22.39435499999998,
          "velocity": 0.9448818897637795,
          "duration": 0.2816900000000011
        },
        {
          "name": "C5",
          "midi": 72,
          "time": 22.67604499999998,
          "velocity": 0.9448818897637795,
          "duration": 0.14084499999999878
        },
        {
          "name": "C#5",
          "midi": 73,
          "time": 22.81688999999998,
          "velocity": 0.9448818897637795,
          "duration": 0.2816900000000011
        },
        {
          "name": "C#5",
          "midi": 73,
          "time": 23.09857999999998,
          "velocity": 0.9448818897637795,
          "duration": 0.14084499999999878
        },
        {
          "name": "C#5",
          "midi": 73,
          "time": 23.23942499999998,
          "velocity": 0.9448818897637795,
          "duration": 0.14084499999999878
        },
        {
          "name": "C5",
          "midi": 72,
          "time": 23.380269999999978,
          "velocity": 0.9448818897637795,
          "duration": 0.14084499999999878
        },
        {
          "name": "A#4",
          "midi": 70,
          "time": 23.521114999999977,
          "velocity": 0.9448818897637795,
          "duration": 0.14084499999999878
        },
        {
          "name": "D4",
          "midi": 62,
          "time": 23.661959999999976,
          "velocity": 0.9448818897637795,
          "duration": 0.4225349999999999
        },
        {
          "name": "E4",
          "midi": 64,
          "time": 24.084494999999976,
          "velocity": 0.9448818897637795,
          "duration": 0.4225349999999999
        },
        {
          "name": "F4",
          "midi": 65,
          "time": 24.507029999999975,
          "velocity": 0.9448818897637795,
          "duration": 0.4225349999999999
        },
        {
          "name": "G4",
          "midi": 67,
          "time": 24.929564999999975,
          "velocity": 0.9448818897637795,
          "duration": 0.14084499999999878
        },
        {
          "name": "G#4",
          "midi": 68,
          "time": 25.070409999999974,
          "velocity": 0.9448818897637795,
          "duration": 0.14084499999999878
        },
        {
          "name": "G4",
          "midi": 67,
          "time": 25.211254999999973,
          "velocity": 0.9448818897637795,
          "duration": 0.14084499999999878
        },
        {
          "name": "F4",
          "midi": 65,
          "time": 25.35209999999997,
          "velocity": 0.9448818897637795,
          "duration": 0.4225349999999999
        },
        {
          "name": "E4",
          "midi": 64,
          "time": 25.77463499999997,
          "velocity": 0.9448818897637795,
          "duration": 0.14084499999999878
        },
        {
          "name": "F4",
          "midi": 65,
          "time": 25.91547999999997,
          "velocity": 0.9448818897637795,
          "duration": 0.14084499999999878
        },
        {
          "name": "E4",
          "midi": 64,
          "time": 26.05632499999997,
          "velocity": 0.9448818897637795,
          "duration": 0.14084499999999878
        },
        {
          "name": "D4",
          "midi": 62,
          "time": 26.197169999999968,
          "velocity": 0.9448818897637795,
          "duration": 0.14084499999999878
        },
        {
          "name": "C4",
          "midi": 60,
          "time": 26.478859999999965,
          "velocity": 0.9448818897637795,
          "duration": 0.14084499999999878
        },
        {
          "name": "D4",
          "midi": 62,
          "time": 26.619704999999964,
          "velocity": 0.9448818897637795,
          "duration": 0.4225349999999999
        },
        {
          "name": "A3",
          "midi": 57,
          "time": 27.042239999999964,
          "velocity": 0.9448818897637795,
          "duration": 0.14084499999999878
        },
        {
          "name": "B3",
          "midi": 59,
          "time": 27.183084999999963,
          "velocity": 0.9448818897637795,
          "duration": 0.14084499999999878
        },
        {
          "name": "C4",
          "midi": 60,
          "time": 27.32392999999996,
          "velocity": 0.9448818897637795,
          "duration": 0.14084499999999878
        },
        {
          "name": "D4",
          "midi": 62,
          "time": 27.46477499999996,
          "velocity": 0.9448818897637795,
          "duration": 0.14084499999999878
        },
        {
          "name": "C4",
          "midi": 60,
          "time": 27.60561999999996,
          "velocity": 0.9448818897637795,
          "duration": 0.14084499999999878
        },
        {
          "name": "B3",
          "midi": 59,
          "time": 27.746464999999958,
          "velocity": 0.9448818897637795,
          "duration": 0.14084499999999878
        },
        {
          "name": "A3",
          "midi": 57,
          "time": 27.887309999999957,
          "velocity": 0.9448818897637795,
          "duration": 0.8450699999999998
        },
        {
          "name": "A4",
          "midi": 69,
          "time": 28.732379999999957,
          "velocity": 0.9448818897637795,
          "duration": 0.14084499999999878
        },
        {
          "name": "B4",
          "midi": 71,
          "time": 28.873224999999955,
          "velocity": 0.9448818897637795,
          "duration": 0.14084499999999878
        },
        {
          "name": "C5",
          "midi": 72,
          "time": 29.014069999999954,
          "velocity": 0.9448818897637795,
          "duration": 0.14084499999999878
        },
        {
          "name": "D5",
          "midi": 74,
          "time": 29.154914999999953,
          "velocity": 0.9448818897637795,
          "duration": 0.14084499999999878
        },
        {
          "name": "C5",
          "midi": 72,
          "time": 29.29575999999995,
          "velocity": 0.9448818897637795,
          "duration": 0.14084499999999878
        },
        {
          "name": "B4",
          "midi": 71,
          "time": 29.43660499999995,
          "velocity": 0.9448818897637795,
          "duration": 0.14084499999999878
        },
        {
          "name": "A4",
          "midi": 69,
          "time": 29.57744999999995,
          "velocity": 0.9448818897637795,
          "duration": 0.8450699999999998
        },
        {
          "name": "D5",
          "midi": 74,
          "time": 30.42251999999995,
          "velocity": 0.9448818897637795,
          "duration": 0.4225349999999999
        },
        {
          "name": "E5",
          "midi": 76,
          "time": 30.84505499999995,
          "velocity": 0.9448818897637795,
          "duration": 0.4225349999999999
        },
        {
          "name": "F5",
          "midi": 77,
          "time": 31.26758999999995,
          "velocity": 0.9448818897637795,
          "duration": 0.4225349999999999
        },
        {
          "name": "G5",
          "midi": 79,
          "time": 31.69012499999995,
          "velocity": 0.9448818897637795,
          "duration": 0.14084499999999878
        },
        {
          "name": "G#5",
          "midi": 80,
          "time": 31.830969999999947,
          "velocity": 0.9448818897637795,
          "duration": 0.14084499999999878
        },
        {
          "name": "G5",
          "midi": 79,
          "time": 31.971814999999946,
          "velocity": 0.9448818897637795,
          "duration": 0.14084500000000233
        },
        {
          "name": "F5",
          "midi": 77,
          "time": 32.11265999999995,
          "velocity": 0.9448818897637795,
          "duration": 0.42253500000000344
        },
        {
          "name": "E5",
          "midi": 76,
          "time": 32.53519499999995,
          "velocity": 0.9448818897637795,
          "duration": 0.14084499999999878
        },
        {
          "name": "F5",
          "midi": 77,
          "time": 32.67603999999995,
          "velocity": 0.9448818897637795,
          "duration": 0.14084499999999878
        },
        {
          "name": "E5",
          "midi": 76,
          "time": 32.81688499999995,
          "velocity": 0.9448818897637795,
          "duration": 0.14084499999999878
        },
        {
          "name": "D5",
          "midi": 74,
          "time": 32.95772999999995,
          "velocity": 0.9448818897637795,
          "duration": 0.14084499999999878
        },
        {
          "name": "C5",
          "midi": 72,
          "time": 33.239419999999946,
          "velocity": 0.9448818897637795,
          "duration": 0.14084499999999878
        },
        {
          "name": "D5",
          "midi": 74,
          "time": 33.380264999999945,
          "velocity": 0.9448818897637795,
          "duration": 0.42253500000000344
        },
        {
          "name": "A4",
          "midi": 69,
          "time": 33.80279999999995,
          "velocity": 0.9448818897637795,
          "duration": 0.14084499999999878
        },
        {
          "name": "B4",
          "midi": 71,
          "time": 33.94364499999995,
          "velocity": 0.9448818897637795,
          "duration": 0.14084499999999878
        },
        {
          "name": "C5",
          "midi": 72,
          "time": 34.084489999999946,
          "velocity": 0.9448818897637795,
          "duration": 0.14084499999999878
        },
        {
          "name": "D5",
          "midi": 74,
          "time": 34.225334999999944,
          "velocity": 0.9448818897637795,
          "duration": 0.14084499999999878
        },
        {
          "name": "C5",
          "midi": 72,
          "time": 34.36617999999994,
          "velocity": 0.9448818897637795,
          "duration": 0.14084499999999878
        },
        {
          "name": "B4",
          "midi": 71,
          "time": 34.50702499999994,
          "velocity": 0.9448818897637795,
          "duration": 0.14084499999999878
        },
        {
          "name": "A4",
          "midi": 69,
          "time": 34.64786999999994,
          "velocity": 0.9448818897637795,
          "duration": 0.8450699999999998
        },
        {
          "name": "D5",
          "midi": 74,
          "time": 35.49293999999994,
          "velocity": 0.9448818897637795,
          "duration": 1.6901399999999995
        },
        {
          "name": "D4",
          "midi": 62,
          "time": 37.18307999999994,
          "velocity": 0.9448818897637795,
          "duration": 0.14084499999999878
        },
        {
          "name": "E4",
          "midi": 64,
          "time": 37.32392499999994,
          "velocity": 0.9448818897637795,
          "duration": 0.14084499999999878
        },
        {
          "name": "F4",
          "midi": 65,
          "time": 37.46476999999994,
          "velocity": 0.9448818897637795,
          "duration": 0.14084499999999878
        },
        {
          "name": "G4",
          "midi": 67,
          "time": 37.605614999999936,
          "velocity": 0.9448818897637795,
          "duration": 0.14084499999999878
        },
        {
          "name": "F4",
          "midi": 65,
          "time": 37.746459999999935,
          "velocity": 0.9448818897637795,
          "duration": 0.14084499999999878
        },
        {
          "name": "E4",
          "midi": 64,
          "time": 37.887304999999934,
          "velocity": 0.9448818897637795,
          "duration": 0.14084499999999878
        },
        {
          "name": "F4",
          "midi": 65,
          "time": 38.02814999999993,
          "velocity": 0.9448818897637795,
          "duration": 0.14084499999999878
        },
        {
          "name": "E4",
          "midi": 64,
          "time": 38.16899499999993,
          "velocity": 0.9448818897637795,
          "duration": 0.14084499999999878
        },
        {
          "name": "D4",
          "midi": 62,
          "time": 38.30983999999993,
          "velocity": 0.9448818897637795,
          "duration": 0.14084499999999878
        },
        {
          "name": "E4",
          "midi": 64,
          "time": 38.45068499999993,
          "velocity": 0.9448818897637795,
          "duration": 0.14084499999999878
        },
        {
          "name": "D4",
          "midi": 62,
          "time": 38.59152999999993,
          "velocity": 0.9448818897637795,
          "duration": 0.14084499999999878
        },
        {
          "name": "C4",
          "midi": 60,
          "time": 38.73237499999993,
          "velocity": 0.9448818897637795,
          "duration": 0.14084499999999878
        },
        {
          "name": "A3",
          "midi": 57,
          "time": 38.873219999999925,
          "velocity": 0.9448818897637795,
          "duration": 0.8450699999999998
        },
        {
          "name": "D4",
          "midi": 62,
          "time": 39.718289999999925,
          "velocity": 0.9448818897637795,
          "duration": 0.8450699999999998
        },
        {
          "name": "A#4",
          "midi": 70,
          "time": 40.704204999999924,
          "velocity": 0.9448818897637795,
          "duration": 0.14084499999999878
        },
        {
          "name": "A#4",
          "midi": 70,
          "time": 40.98589499999992,
          "velocity": 0.9448818897637795,
          "duration": 0.42253500000000344
        },
        {
          "name": "A#4",
          "midi": 70,
          "time": 41.54927499999992,
          "velocity": 0.9448818897637795,
          "duration": 0.14084499999999878
        },
        {
          "name": "A#4",
          "midi": 70,
          "time": 41.83096499999992,
          "velocity": 0.9448818897637795,
          "duration": 0.42253500000000344
        },
        {
          "name": "A#4",
          "midi": 70,
          "time": 42.39434499999992,
          "velocity": 0.9448818897637795,
          "duration": 0.14084499999999878
        },
        {
          "name": "A#4",
          "midi": 70,
          "time": 42.67603499999992,
          "velocity": 0.9448818897637795,
          "duration": 0.28168999999999755
        },
        {
          "name": "C5",
          "midi": 72,
          "time": 42.95772499999992,
          "velocity": 0.9448818897637795,
          "duration": 0.14084499999999878
        },
        {
          "name": "C#5",
          "midi": 73,
          "time": 43.09856999999992,
          "velocity": 0.9448818897637795,
          "duration": 0.28168999999999755
        },
        {
          "name": "C#5",
          "midi": 73,
          "time": 43.380259999999915,
          "velocity": 0.9448818897637795,
          "duration": 0.14084499999999878
        },
        {
          "name": "C#5",
          "midi": 73,
          "time": 43.52110499999991,
          "velocity": 0.9448818897637795,
          "duration": 0.14084499999999878
        },
        {
          "name": "C5",
          "midi": 72,
          "time": 43.66194999999991,
          "velocity": 0.9448818897637795,
          "duration": 0.14084499999999878
        },
        {
          "name": "A#4",
          "midi": 70,
          "time": 43.80279499999991,
          "velocity": 0.9448818897637795,
          "duration": 0.14084499999999878
        },
        {
          "name": "D4",
          "midi": 62,
          "time": 43.94363999999991,
          "velocity": 0.9448818897637795,
          "duration": 0.14084499999999878
        },
        {
          "name": "E4",
          "midi": 64,
          "time": 44.08448499999991,
          "velocity": 0.9448818897637795,
          "duration": 0.14084499999999878
        },
        {
          "name": "F4",
          "midi": 65,
          "time": 44.22532999999991,
          "velocity": 0.9448818897637795,
          "duration": 0.14084499999999878
        },
        {
          "name": "G4",
          "midi": 67,
          "time": 44.366174999999906,
          "velocity": 0.9448818897637795,
          "duration": 0.14084499999999878
        },
        {
          "name": "F4",
          "midi": 65,
          "time": 44.507019999999905,
          "velocity": 0.9448818897637795,
          "duration": 0.14084499999999878
        },
        {
          "name": "E4",
          "midi": 64,
          "time": 44.6478649999999,
          "velocity": 0.9448818897637795,
          "duration": 0.14084499999999878
        },
        {
          "name": "F4",
          "midi": 65,
          "time": 44.7887099999999,
          "velocity": 0.9448818897637795,
          "duration": 0.14084499999999878
        },
        {
          "name": "E4",
          "midi": 64,
          "time": 44.9295549999999,
          "velocity": 0.9448818897637795,
          "duration": 0.14084499999999878
        },
        {
          "name": "D4",
          "midi": 62,
          "time": 45.0703999999999,
          "velocity": 0.9448818897637795,
          "duration": 0.14084499999999878
        },
        {
          "name": "E4",
          "midi": 64,
          "time": 45.2112449999999,
          "velocity": 0.9448818897637795,
          "duration": 0.14084499999999878
        },
        {
          "name": "D4",
          "midi": 62,
          "time": 45.3520899999999,
          "velocity": 0.9448818897637795,
          "duration": 0.14084499999999878
        },
        {
          "name": "C4",
          "midi": 60,
          "time": 45.492934999999896,
          "velocity": 0.9448818897637795,
          "duration": 0.14084499999999878
        },
        {
          "name": "A3",
          "midi": 57,
          "time": 45.633779999999895,
          "velocity": 0.9448818897637795,
          "duration": 0.8450699999999998
        },
        {
          "name": "D4",
          "midi": 62,
          "time": 46.478849999999895,
          "velocity": 0.9448818897637795,
          "duration": 0.8450699999999998
        },
        {
          "name": "A#4",
          "midi": 70,
          "time": 47.46476499999989,
          "velocity": 0.9448818897637795,
          "duration": 0.14084499999999878
        },
        {
          "name": "A#4",
          "midi": 70,
          "time": 47.74645499999989,
          "velocity": 0.9448818897637795,
          "duration": 0.42253500000000344
        },
        {
          "name": "A#4",
          "midi": 70,
          "time": 48.30983499999989,
          "velocity": 0.9448818897637795,
          "duration": 0.14084499999999878
        },
        {
          "name": "A#4",
          "midi": 70,
          "time": 48.59152499999989,
          "velocity": 0.9448818897637795,
          "duration": 0.42253500000000344
        },
        {
          "name": "A#4",
          "midi": 70,
          "time": 49.15490499999989,
          "velocity": 0.9448818897637795,
          "duration": 0.14084499999999878
        },
        {
          "name": "A#4",
          "midi": 70,
          "time": 49.43659499999989,
          "velocity": 0.9448818897637795,
          "duration": 0.28168999999999755
        },
        {
          "name": "C5",
          "midi": 72,
          "time": 49.71828499999989,
          "velocity": 0.9448818897637795,
          "duration": 0.14084499999999878
        },
        {
          "name": "C#5",
          "midi": 73,
          "time": 49.85912999999989,
          "velocity": 0.9448818897637795,
          "duration": 0.28168999999999755
        },
        {
          "name": "C#5",
          "midi": 73,
          "time": 50.140819999999884,
          "velocity": 0.9448818897637795,
          "duration": 0.14084499999999878
        },
        {
          "name": "C#5",
          "midi": 73,
          "time": 50.28166499999988,
          "velocity": 0.9448818897637795,
          "duration": 0.14084499999999878
        },
        {
          "name": "C5",
          "midi": 72,
          "time": 50.42250999999988,
          "velocity": 0.9448818897637795,
          "duration": 0.14084499999999878
        },
        {
          "name": "A#4",
          "midi": 70,
          "time": 50.56335499999988,
          "velocity": 0.9448818897637795,
          "duration": 0.14084499999999878
        },
        {
          "name": "D4",
          "midi": 62,
          "time": 50.70419999999988,
          "velocity": 0.9448818897637795,
          "duration": 0.42253500000000344
        },
        {
          "name": "E4",
          "midi": 64,
          "time": 51.12673499999988,
          "velocity": 0.9448818897637795,
          "duration": 0.42253500000000344
        },
        {
          "name": "F4",
          "midi": 65,
          "time": 51.549269999999886,
          "velocity": 0.9448818897637795,
          "duration": 0.42253500000000344
        },
        {
          "name": "G4",
          "midi": 67,
          "time": 51.97180499999989,
          "velocity": 0.9448818897637795,
          "duration": 0.14084499999999878
        },
        {
          "name": "G#4",
          "midi": 68,
          "time": 52.11264999999989,
          "velocity": 0.9448818897637795,
          "duration": 0.14084499999999878
        },
        {
          "name": "G4",
          "midi": 67,
          "time": 52.25349499999989,
          "velocity": 0.9448818897637795,
          "duration": 0.14084499999999878
        },
        {
          "name": "F4",
          "midi": 65,
          "time": 52.394339999999886,
          "velocity": 0.9448818897637795,
          "duration": 0.42253500000000344
        },
        {
          "name": "E4",
          "midi": 64,
          "time": 52.81687499999989,
          "velocity": 0.9448818897637795,
          "duration": 0.14084499999999878
        },
        {
          "name": "F4",
          "midi": 65,
          "time": 52.95771999999989,
          "velocity": 0.9448818897637795,
          "duration": 0.14084499999999878
        },
        {
          "name": "E4",
          "midi": 64,
          "time": 53.09856499999989,
          "velocity": 0.9448818897637795,
          "duration": 0.14084499999999878
        },
        {
          "name": "D4",
          "midi": 62,
          "time": 53.239409999999886,
          "velocity": 0.9448818897637795,
          "duration": 0.14084499999999878
        },
        {
          "name": "C4",
          "midi": 60,
          "time": 53.52109999999988,
          "velocity": 0.9448818897637795,
          "duration": 0.14084499999999878
        },
        {
          "name": "D4",
          "midi": 62,
          "time": 53.66194499999988,
          "velocity": 0.9448818897637795,
          "duration": 0.42253500000000344
        },
        {
          "name": "A3",
          "midi": 57,
          "time": 54.084479999999886,
          "velocity": 0.9448818897637795,
          "duration": 0.14084499999999878
        },
        {
          "name": "B3",
          "midi": 59,
          "time": 54.225324999999884,
          "velocity": 0.9448818897637795,
          "duration": 0.14084499999999878
        },
        {
          "name": "C4",
          "midi": 60,
          "time": 54.36616999999988,
          "velocity": 0.9448818897637795,
          "duration": 0.14084499999999878
        },
        {
          "name": "D4",
          "midi": 62,
          "time": 54.50701499999988,
          "velocity": 0.9448818897637795,
          "duration": 0.14084499999999878
        },
        {
          "name": "C4",
          "midi": 60,
          "time": 54.64785999999988,
          "velocity": 0.9448818897637795,
          "duration": 0.14084499999999878
        },
        {
          "name": "B3",
          "midi": 59,
          "time": 54.78870499999988,
          "velocity": 0.9448818897637795,
          "duration": 0.14084499999999878
        },
        {
          "name": "A3",
          "midi": 57,
          "time": 54.92954999999988,
          "velocity": 0.9448818897637795,
          "duration": 0.8450699999999998
        },
        {
          "name": "A4",
          "midi": 69,
          "time": 55.77461999999988,
          "velocity": 0.9448818897637795,
          "duration": 0.14084499999999878
        },
        {
          "name": "B4",
          "midi": 71,
          "time": 55.91546499999988,
          "velocity": 0.9448818897637795,
          "duration": 0.14084499999999878
        },
        {
          "name": "C5",
          "midi": 72,
          "time": 56.056309999999876,
          "velocity": 0.9448818897637795,
          "duration": 0.14084499999999878
        },
        {
          "name": "D5",
          "midi": 74,
          "time": 56.197154999999874,
          "velocity": 0.9448818897637795,
          "duration": 0.14084499999999878
        },
        {
          "name": "C5",
          "midi": 72,
          "time": 56.33799999999987,
          "velocity": 0.9448818897637795,
          "duration": 0.14084499999999878
        },
        {
          "name": "B4",
          "midi": 71,
          "time": 56.47884499999987,
          "velocity": 0.9448818897637795,
          "duration": 0.14084499999999878
        },
        {
          "name": "A4",
          "midi": 69,
          "time": 56.61968999999987,
          "velocity": 0.9448818897637795,
          "duration": 0.8450699999999998
        },
        {
          "name": "D5",
          "midi": 74,
          "time": 57.46475999999987,
          "velocity": 0.9448818897637795,
          "duration": 0.42253500000000344
        },
        {
          "name": "E5",
          "midi": 76,
          "time": 57.887294999999874,
          "velocity": 0.9448818897637795,
          "duration": 0.42253500000000344
        },
        {
          "name": "F5",
          "midi": 77,
          "time": 58.30982999999988,
          "velocity": 0.9448818897637795,
          "duration": 0.42253500000000344
        },
        {
          "name": "G5",
          "midi": 79,
          "time": 58.73236499999988,
          "velocity": 0.9448818897637795,
          "duration": 0.14084499999999878
        },
        {
          "name": "G#5",
          "midi": 80,
          "time": 58.87320999999988,
          "velocity": 0.9448818897637795,
          "duration": 0.14084499999999878
        },
        {
          "name": "G5",
          "midi": 79,
          "time": 59.01405499999988,
          "velocity": 0.9448818897637795,
          "duration": 0.14084499999999878
        },
        {
          "name": "F5",
          "midi": 77,
          "time": 59.15489999999988,
          "velocity": 0.9448818897637795,
          "duration": 0.42253500000000344
        },
        {
          "name": "E5",
          "midi": 76,
          "time": 59.57743499999988,
          "velocity": 0.9448818897637795,
          "duration": 0.14084499999999878
        },
        {
          "name": "F5",
          "midi": 77,
          "time": 59.71827999999988,
          "velocity": 0.9448818897637795,
          "duration": 0.14084499999999878
        },
        {
          "name": "E5",
          "midi": 76,
          "time": 59.85912499999988,
          "velocity": 0.9448818897637795,
          "duration": 0.14084499999999878
        },
        {
          "name": "D5",
          "midi": 74,
          "time": 59.99996999999988,
          "velocity": 0.9448818897637795,
          "duration": 0.14084499999999878
        },
        {
          "name": "C5",
          "midi": 72,
          "time": 60.281659999999874,
          "velocity": 0.9448818897637795,
          "duration": 0.14084499999999878
        },
        {
          "name": "D5",
          "midi": 74,
          "time": 60.42250499999987,
          "velocity": 0.9448818897637795,
          "duration": 0.42253500000000344
        },
        {
          "name": "A4",
          "midi": 69,
          "time": 60.84503999999988,
          "velocity": 0.9448818897637795,
          "duration": 0.14084499999999878
        },
        {
          "name": "B4",
          "midi": 71,
          "time": 60.985884999999875,
          "velocity": 0.9448818897637795,
          "duration": 0.14084499999999878
        },
        {
          "name": "C5",
          "midi": 72,
          "time": 61.126729999999874,
          "velocity": 0.9448818897637795,
          "duration": 0.14084499999999878
        },
        {
          "name": "D5",
          "midi": 74,
          "time": 61.26757499999987,
          "velocity": 0.9448818897637795,
          "duration": 0.14084499999999878
        },
        {
          "name": "C5",
          "midi": 72,
          "time": 61.40841999999987,
          "velocity": 0.9448818897637795,
          "duration": 0.14084499999999878
        },
        {
          "name": "B4",
          "midi": 71,
          "time": 61.54926499999987,
          "velocity": 0.9448818897637795,
          "duration": 0.14084499999999878
        },
        {
          "name": "A4",
          "midi": 69,
          "time": 61.69010999999987,
          "velocity": 0.9448818897637795,
          "duration": 0.8450699999999998
        },
        {
          "name": "D5",
          "midi": 74,
          "time": 62.53517999999987,
          "velocity": 0.9448818897637795,
          "duration": 1.6901399999999995
        }
      ];