export let synth1 =   [
        {
          "name": "D5",
          "midi": 74,
          "time": 0,
          "velocity": 0.9448818897637795,
          "duration": 0.56338
        },
        {
          "name": "A#4",
          "midi": 70,
          "time": 0.56338,
          "velocity": 0.9448818897637795,
          "duration": 0.28169
        },
        {
          "name": "C5",
          "midi": 72,
          "time": 0.84507,
          "velocity": 0.9448818897637795,
          "duration": 0.28169
        },
        {
          "name": "G#4",
          "midi": 68,
          "time": 1.12676,
          "velocity": 0.9448818897637795,
          "duration": 0.28169
        },
        {
          "name": "C5",
          "midi": 72,
          "time": 1.40845,
          "velocity": 0.9448818897637795,
          "duration": 0.28169
        },
        {
          "name": "A#4",
          "midi": 70,
          "time": 1.69014,
          "velocity": 0.9448818897637795,
          "duration": 0.56338
        },
        {
          "name": "F4",
          "midi": 65,
          "time": 2.25352,
          "velocity": 0.9448818897637795,
          "duration": 0.1408450000000001
        },
        {
          "name": "A#4",
          "midi": 70,
          "time": 2.394365,
          "velocity": 0.9448818897637795,
          "duration": 0.1408450000000001
        },
        {
          "name": "G#4",
          "midi": 68,
          "time": 2.53521,
          "velocity": 0.9448818897637795,
          "duration": 0.4225349999999999
        },
        {
          "name": "C5",
          "midi": 72,
          "time": 2.957745,
          "velocity": 0.9448818897637795,
          "duration": 0.1408450000000001
        },
        {
          "name": "D#5",
          "midi": 75,
          "time": 3.09859,
          "velocity": 0.9448818897637795,
          "duration": 0.1408450000000001
        },
        {
          "name": "G#5",
          "midi": 80,
          "time": 3.2394350000000003,
          "velocity": 0.9448818897637795,
          "duration": 0.1408450000000001
        },
        {
          "name": "D5",
          "midi": 74,
          "time": 3.3802800000000004,
          "velocity": 0.9448818897637795,
          "duration": 0.56338
        },
        {
          "name": "A#4",
          "midi": 70,
          "time": 3.9436600000000004,
          "velocity": 0.9448818897637795,
          "duration": 0.2816900000000002
        },
        {
          "name": "C5",
          "midi": 72,
          "time": 4.225350000000001,
          "velocity": 0.9448818897637795,
          "duration": 0.2816900000000002
        },
        {
          "name": "G#4",
          "midi": 68,
          "time": 4.507040000000001,
          "velocity": 0.9448818897637795,
          "duration": 0.2816900000000002
        },
        {
          "name": "C5",
          "midi": 72,
          "time": 4.788730000000001,
          "velocity": 0.9448818897637795,
          "duration": 0.2816900000000002
        },
        {
          "name": "A#4",
          "midi": 70,
          "time": 5.070420000000001,
          "velocity": 0.9448818897637795,
          "duration": 0.4225349999999999
        },
        {
          "name": "F4",
          "midi": 65,
          "time": 5.492955000000001,
          "velocity": 0.9448818897637795,
          "duration": 0.14084499999999966
        },
        {
          "name": "A#4",
          "midi": 70,
          "time": 5.633800000000001,
          "velocity": 0.9448818897637795,
          "duration": 0.14084499999999966
        },
        {
          "name": "D5",
          "midi": 74,
          "time": 5.7746450000000005,
          "velocity": 0.9448818897637795,
          "duration": 0.14084499999999966
        },
        {
          "name": "C5",
          "midi": 72,
          "time": 5.91549,
          "velocity": 0.9448818897637795,
          "duration": 0.4225349999999999
        },
        {
          "name": "G4",
          "midi": 67,
          "time": 6.338025,
          "velocity": 0.9448818897637795,
          "duration": 0.14084499999999966
        },
        {
          "name": "C5",
          "midi": 72,
          "time": 6.47887,
          "velocity": 0.9448818897637795,
          "duration": 0.14084499999999966
        },
        {
          "name": "E5",
          "midi": 76,
          "time": 6.619714999999999,
          "velocity": 0.9448818897637795,
          "duration": 0.14084499999999966
        },
        {
          "name": "F#5",
          "midi": 78,
          "time": 6.760559999999999,
          "velocity": 0.9448818897637795,
          "duration": 1.6901400000000004
        },
        {
          "name": "F5",
          "midi": 77,
          "time": 8.4507,
          "velocity": 0.9448818897637795,
          "duration": 1.6901399999999995
        },
        {
          "name": "D4",
          "midi": 62,
          "time": 10.140839999999999,
          "velocity": 0.9448818897637795,
          "duration": 0.14084500000000055
        },
        {
          "name": "E4",
          "midi": 64,
          "time": 10.281685,
          "velocity": 0.9448818897637795,
          "duration": 0.14084500000000055
        },
        {
          "name": "F4",
          "midi": 65,
          "time": 10.42253,
          "velocity": 0.9448818897637795,
          "duration": 0.14084500000000055
        },
        {
          "name": "G4",
          "midi": 67,
          "time": 10.563375,
          "velocity": 0.9448818897637795,
          "duration": 0.14084500000000055
        },
        {
          "name": "F4",
          "midi": 65,
          "time": 10.704220000000001,
          "velocity": 0.9448818897637795,
          "duration": 0.14084500000000055
        },
        {
          "name": "E4",
          "midi": 64,
          "time": 10.845065000000002,
          "velocity": 0.9448818897637795,
          "duration": 0.14084500000000055
        },
        {
          "name": "F4",
          "midi": 65,
          "time": 10.985910000000002,
          "velocity": 0.9448818897637795,
          "duration": 0.14084500000000055
        },
        {
          "name": "E4",
          "midi": 64,
          "time": 11.126755000000003,
          "velocity": 0.9448818897637795,
          "duration": 0.14084500000000055
        },
        {
          "name": "D4",
          "midi": 62,
          "time": 11.267600000000003,
          "velocity": 0.9448818897637795,
          "duration": 0.14084500000000055
        },
        {
          "name": "E4",
          "midi": 64,
          "time": 11.408445000000004,
          "velocity": 0.9448818897637795,
          "duration": 0.14084500000000055
        },
        {
          "name": "D4",
          "midi": 62,
          "time": 11.549290000000004,
          "velocity": 0.9448818897637795,
          "duration": 0.14084500000000055
        },
        {
          "name": "C4",
          "midi": 60,
          "time": 11.690135000000005,
          "velocity": 0.9448818897637795,
          "duration": 0.14084500000000055
        },
        {
          "name": "A3",
          "midi": 57,
          "time": 11.830980000000006,
          "velocity": 0.9448818897637795,
          "duration": 0.8450699999999998
        },
        {
          "name": "D4",
          "midi": 62,
          "time": 12.676050000000005,
          "velocity": 0.9448818897637795,
          "duration": 0.8450699999999998
        },
        {
          "name": "D#4",
          "midi": 63,
          "time": 13.661965000000006,
          "velocity": 0.9448818897637795,
          "duration": 0.14084500000000055
        },
        {
          "name": "D#4",
          "midi": 63,
          "time": 13.943655000000007,
          "velocity": 0.9448818897637795,
          "duration": 0.4225349999999999
        },
        {
          "name": "D#4",
          "midi": 63,
          "time": 14.507035000000007,
          "velocity": 0.9448818897637795,
          "duration": 0.14084500000000055
        },
        {
          "name": "D#4",
          "midi": 63,
          "time": 14.788725000000008,
          "velocity": 0.9448818897637795,
          "duration": 0.4225349999999999
        },
        {
          "name": "D#4",
          "midi": 63,
          "time": 15.352105000000009,
          "velocity": 0.9448818897637795,
          "duration": 0.14084500000000055
        },
        {
          "name": "D#4",
          "midi": 63,
          "time": 15.63379500000001,
          "velocity": 0.9448818897637795,
          "duration": 0.28168999999999933
        },
        {
          "name": "F4",
          "midi": 65,
          "time": 15.91548500000001,
          "velocity": 0.9448818897637795,
          "duration": 0.14084500000000055
        },
        {
          "name": "F#4",
          "midi": 66,
          "time": 16.05633000000001,
          "velocity": 0.9448818897637795,
          "duration": 0.2816900000000011
        },
        {
          "name": "F#4",
          "midi": 66,
          "time": 16.33802000000001,
          "velocity": 0.9448818897637795,
          "duration": 0.14084499999999878
        },
        {
          "name": "F#4",
          "midi": 66,
          "time": 16.47886500000001,
          "velocity": 0.9448818897637795,
          "duration": 0.14084499999999878
        },
        {
          "name": "F4",
          "midi": 65,
          "time": 16.61971000000001,
          "velocity": 0.9448818897637795,
          "duration": 0.14084499999999878
        },
        {
          "name": "D#4",
          "midi": 63,
          "time": 16.760555000000007,
          "velocity": 0.9448818897637795,
          "duration": 0.14084499999999878
        },
        {
          "name": "D4",
          "midi": 62,
          "time": 16.901400000000006,
          "velocity": 0.9448818897637795,
          "duration": 0.14084499999999878
        },
        {
          "name": "E4",
          "midi": 64,
          "time": 17.042245000000005,
          "velocity": 0.9448818897637795,
          "duration": 0.14084499999999878
        },
        {
          "name": "F4",
          "midi": 65,
          "time": 17.183090000000004,
          "velocity": 0.9448818897637795,
          "duration": 0.14084499999999878
        },
        {
          "name": "G4",
          "midi": 67,
          "time": 17.323935000000002,
          "velocity": 0.9448818897637795,
          "duration": 0.14084499999999878
        },
        {
          "name": "F4",
          "midi": 65,
          "time": 17.46478,
          "velocity": 0.9448818897637795,
          "duration": 0.14084499999999878
        },
        {
          "name": "E4",
          "midi": 64,
          "time": 17.605625,
          "velocity": 0.9448818897637795,
          "duration": 0.14084499999999878
        },
        {
          "name": "F4",
          "midi": 65,
          "time": 17.74647,
          "velocity": 0.9448818897637795,
          "duration": 0.14084499999999878
        },
        {
          "name": "E4",
          "midi": 64,
          "time": 17.887314999999997,
          "velocity": 0.9448818897637795,
          "duration": 0.14084499999999878
        },
        {
          "name": "D4",
          "midi": 62,
          "time": 18.028159999999996,
          "velocity": 0.9448818897637795,
          "duration": 0.14084499999999878
        },
        {
          "name": "E4",
          "midi": 64,
          "time": 18.169004999999995,
          "velocity": 0.9448818897637795,
          "duration": 0.14084499999999878
        },
        {
          "name": "D4",
          "midi": 62,
          "time": 18.309849999999994,
          "velocity": 0.9448818897637795,
          "duration": 0.14084499999999878
        },
        {
          "name": "C4",
          "midi": 60,
          "time": 18.450694999999993,
          "velocity": 0.9448818897637795,
          "duration": 0.14084499999999878
        },
        {
          "name": "A3",
          "midi": 57,
          "time": 18.59153999999999,
          "velocity": 0.9448818897637795,
          "duration": 0.8450699999999998
        },
        {
          "name": "D4",
          "midi": 62,
          "time": 19.43660999999999,
          "velocity": 0.9448818897637795,
          "duration": 0.8450699999999998
        },
        {
          "name": "D#4",
          "midi": 63,
          "time": 20.42252499999999,
          "velocity": 0.9448818897637795,
          "duration": 0.14084499999999878
        },
        {
          "name": "D#4",
          "midi": 63,
          "time": 20.704214999999987,
          "velocity": 0.9448818897637795,
          "duration": 0.4225349999999999
        },
        {
          "name": "D#4",
          "midi": 63,
          "time": 21.267594999999986,
          "velocity": 0.9448818897637795,
          "duration": 0.14084499999999878
        },
        {
          "name": "D#4",
          "midi": 63,
          "time": 21.549284999999983,
          "velocity": 0.9448818897637795,
          "duration": 0.4225349999999999
        },
        {
          "name": "D#4",
          "midi": 63,
          "time": 22.112664999999982,
          "velocity": 0.9448818897637795,
          "duration": 0.14084499999999878
        },
        {
          "name": "D#4",
          "midi": 63,
          "time": 22.39435499999998,
          "velocity": 0.9448818897637795,
          "duration": 0.2816900000000011
        },
        {
          "name": "F4",
          "midi": 65,
          "time": 22.67604499999998,
          "velocity": 0.9448818897637795,
          "duration": 0.14084499999999878
        },
        {
          "name": "F#4",
          "midi": 66,
          "time": 22.81688999999998,
          "velocity": 0.9448818897637795,
          "duration": 0.2816900000000011
        },
        {
          "name": "F#4",
          "midi": 66,
          "time": 23.09857999999998,
          "velocity": 0.9448818897637795,
          "duration": 0.14084499999999878
        },
        {
          "name": "F#4",
          "midi": 66,
          "time": 23.23942499999998,
          "velocity": 0.9448818897637795,
          "duration": 0.14084499999999878
        },
        {
          "name": "F4",
          "midi": 65,
          "time": 23.380269999999978,
          "velocity": 0.9448818897637795,
          "duration": 0.14084499999999878
        },
        {
          "name": "D#4",
          "midi": 63,
          "time": 23.521114999999977,
          "velocity": 0.9448818897637795,
          "duration": 0.14084499999999878
        },
        {
          "name": "D4",
          "midi": 62,
          "time": 23.661959999999976,
          "velocity": 0.9448818897637795,
          "duration": 0.4225349999999999
        },
        {
          "name": "E4",
          "midi": 64,
          "time": 24.084494999999976,
          "velocity": 0.9448818897637795,
          "duration": 0.4225349999999999
        },
        {
          "name": "F4",
          "midi": 65,
          "time": 24.507029999999975,
          "velocity": 0.9448818897637795,
          "duration": 0.4225349999999999
        },
        {
          "name": "G4",
          "midi": 67,
          "time": 24.929564999999975,
          "velocity": 0.9448818897637795,
          "duration": 0.14084499999999878
        },
        {
          "name": "G#4",
          "midi": 68,
          "time": 25.070409999999974,
          "velocity": 0.9448818897637795,
          "duration": 0.14084499999999878
        },
        {
          "name": "G4",
          "midi": 67,
          "time": 25.211254999999973,
          "velocity": 0.9448818897637795,
          "duration": 0.14084499999999878
        },
        {
          "name": "F4",
          "midi": 65,
          "time": 25.35209999999997,
          "velocity": 0.9448818897637795,
          "duration": 0.4225349999999999
        },
        {
          "name": "E4",
          "midi": 64,
          "time": 25.77463499999997,
          "velocity": 0.9448818897637795,
          "duration": 0.14084499999999878
        },
        {
          "name": "F4",
          "midi": 65,
          "time": 25.91547999999997,
          "velocity": 0.9448818897637795,
          "duration": 0.14084499999999878
        },
        {
          "name": "E4",
          "midi": 64,
          "time": 26.05632499999997,
          "velocity": 0.9448818897637795,
          "duration": 0.14084499999999878
        },
        {
          "name": "D4",
          "midi": 62,
          "time": 26.197169999999968,
          "velocity": 0.9448818897637795,
          "duration": 0.14084499999999878
        },
        {
          "name": "C4",
          "midi": 60,
          "time": 26.478859999999965,
          "velocity": 0.9448818897637795,
          "duration": 0.14084499999999878
        },
        {
          "name": "D4",
          "midi": 62,
          "time": 26.619704999999964,
          "velocity": 0.9448818897637795,
          "duration": 0.4225349999999999
        },
        {
          "name": "A3",
          "midi": 57,
          "time": 27.042239999999964,
          "velocity": 0.9448818897637795,
          "duration": 0.14084499999999878
        },
        {
          "name": "B3",
          "midi": 59,
          "time": 27.183084999999963,
          "velocity": 0.9448818897637795,
          "duration": 0.14084499999999878
        },
        {
          "name": "C4",
          "midi": 60,
          "time": 27.32392999999996,
          "velocity": 0.9448818897637795,
          "duration": 0.14084499999999878
        },
        {
          "name": "D4",
          "midi": 62,
          "time": 27.46477499999996,
          "velocity": 0.9448818897637795,
          "duration": 0.14084499999999878
        },
        {
          "name": "C4",
          "midi": 60,
          "time": 27.60561999999996,
          "velocity": 0.9448818897637795,
          "duration": 0.14084499999999878
        },
        {
          "name": "B3",
          "midi": 59,
          "time": 27.746464999999958,
          "velocity": 0.9448818897637795,
          "duration": 0.14084499999999878
        },
        {
          "name": "A3",
          "midi": 57,
          "time": 27.887309999999957,
          "velocity": 0.9448818897637795,
          "duration": 0.8450699999999998
        },
        {
          "name": "A4",
          "midi": 69,
          "time": 28.732379999999957,
          "velocity": 0.9448818897637795,
          "duration": 0.14084499999999878
        },
        {
          "name": "B4",
          "midi": 71,
          "time": 28.873224999999955,
          "velocity": 0.9448818897637795,
          "duration": 0.14084499999999878
        },
        {
          "name": "C5",
          "midi": 72,
          "time": 29.014069999999954,
          "velocity": 0.9448818897637795,
          "duration": 0.14084499999999878
        },
        {
          "name": "D5",
          "midi": 74,
          "time": 29.154914999999953,
          "velocity": 0.9448818897637795,
          "duration": 0.14084499999999878
        },
        {
          "name": "C5",
          "midi": 72,
          "time": 29.29575999999995,
          "velocity": 0.9448818897637795,
          "duration": 0.14084499999999878
        },
        {
          "name": "B4",
          "midi": 71,
          "time": 29.43660499999995,
          "velocity": 0.9448818897637795,
          "duration": 0.14084499999999878
        },
        {
          "name": "A4",
          "midi": 69,
          "time": 29.57744999999995,
          "velocity": 0.9448818897637795,
          "duration": 0.8450699999999998
        },
        {
          "name": "D5",
          "midi": 74,
          "time": 30.42251999999995,
          "velocity": 0.9448818897637795,
          "duration": 0.4225349999999999
        },
        {
          "name": "E5",
          "midi": 76,
          "time": 30.84505499999995,
          "velocity": 0.9448818897637795,
          "duration": 0.4225349999999999
        },
        {
          "name": "F5",
          "midi": 77,
          "time": 31.26758999999995,
          "velocity": 0.9448818897637795,
          "duration": 0.4225349999999999
        },
        {
          "name": "G5",
          "midi": 79,
          "time": 31.69012499999995,
          "velocity": 0.9448818897637795,
          "duration": 0.14084499999999878
        },
        {
          "name": "G#5",
          "midi": 80,
          "time": 31.830969999999947,
          "velocity": 0.9448818897637795,
          "duration": 0.14084499999999878
        },
        {
          "name": "G5",
          "midi": 79,
          "time": 31.971814999999946,
          "velocity": 0.9448818897637795,
          "duration": 0.14084500000000233
        },
        {
          "name": "F5",
          "midi": 77,
          "time": 32.11265999999995,
          "velocity": 0.9448818897637795,
          "duration": 0.42253500000000344
        },
        {
          "name": "E5",
          "midi": 76,
          "time": 32.53519499999995,
          "velocity": 0.9448818897637795,
          "duration": 0.14084499999999878
        },
        {
          "name": "F5",
          "midi": 77,
          "time": 32.67603999999995,
          "velocity": 0.9448818897637795,
          "duration": 0.14084499999999878
        },
        {
          "name": "E5",
          "midi": 76,
          "time": 32.81688499999995,
          "velocity": 0.9448818897637795,
          "duration": 0.14084499999999878
        },
        {
          "name": "D5",
          "midi": 74,
          "time": 32.95772999999995,
          "velocity": 0.9448818897637795,
          "duration": 0.14084499999999878
        },
        {
          "name": "C5",
          "midi": 72,
          "time": 33.239419999999946,
          "velocity": 0.9448818897637795,
          "duration": 0.14084499999999878
        },
        {
          "name": "D5",
          "midi": 74,
          "time": 33.380264999999945,
          "velocity": 0.9448818897637795,
          "duration": 0.42253500000000344
        },
        {
          "name": "A4",
          "midi": 69,
          "time": 33.80279999999995,
          "velocity": 0.9448818897637795,
          "duration": 0.14084499999999878
        },
        {
          "name": "B4",
          "midi": 71,
          "time": 33.94364499999995,
          "velocity": 0.9448818897637795,
          "duration": 0.14084499999999878
        },
        {
          "name": "C5",
          "midi": 72,
          "time": 34.084489999999946,
          "velocity": 0.9448818897637795,
          "duration": 0.14084499999999878
        },
        {
          "name": "D5",
          "midi": 74,
          "time": 34.225334999999944,
          "velocity": 0.9448818897637795,
          "duration": 0.14084499999999878
        },
        {
          "name": "C5",
          "midi": 72,
          "time": 34.36617999999994,
          "velocity": 0.9448818897637795,
          "duration": 0.14084499999999878
        },
        {
          "name": "B4",
          "midi": 71,
          "time": 34.50702499999994,
          "velocity": 0.9448818897637795,
          "duration": 0.14084499999999878
        },
        {
          "name": "E4",
          "midi": 64,
          "time": 34.64786999999994,
          "velocity": 0.9448818897637795,
          "duration": 0.42253500000000344
        },
        {
          "name": "C4",
          "midi": 60,
          "time": 35.070404999999944,
          "velocity": 0.9448818897637795,
          "duration": 0.42253500000000344
        },
        {
          "name": "F4",
          "midi": 65,
          "time": 35.49293999999995,
          "velocity": 0.9448818897637795,
          "duration": 1.6901399999999995
        },
        {
          "name": "D4",
          "midi": 62,
          "time": 37.18307999999995,
          "velocity": 0.9448818897637795,
          "duration": 0.14084499999999878
        },
        {
          "name": "E4",
          "midi": 64,
          "time": 37.323924999999946,
          "velocity": 0.9448818897637795,
          "duration": 0.14084499999999878
        },
        {
          "name": "F4",
          "midi": 65,
          "time": 37.464769999999945,
          "velocity": 0.9448818897637795,
          "duration": 0.14084499999999878
        },
        {
          "name": "G4",
          "midi": 67,
          "time": 37.60561499999994,
          "velocity": 0.9448818897637795,
          "duration": 0.14084499999999878
        },
        {
          "name": "F4",
          "midi": 65,
          "time": 37.74645999999994,
          "velocity": 0.9448818897637795,
          "duration": 0.14084499999999878
        },
        {
          "name": "E4",
          "midi": 64,
          "time": 37.88730499999994,
          "velocity": 0.9448818897637795,
          "duration": 0.14084499999999878
        },
        {
          "name": "F4",
          "midi": 65,
          "time": 38.02814999999994,
          "velocity": 0.9448818897637795,
          "duration": 0.14084499999999878
        },
        {
          "name": "E4",
          "midi": 64,
          "time": 38.16899499999994,
          "velocity": 0.9448818897637795,
          "duration": 0.14084499999999878
        },
        {
          "name": "D4",
          "midi": 62,
          "time": 38.30983999999994,
          "velocity": 0.9448818897637795,
          "duration": 0.14084499999999878
        },
        {
          "name": "E4",
          "midi": 64,
          "time": 38.450684999999936,
          "velocity": 0.9448818897637795,
          "duration": 0.14084499999999878
        },
        {
          "name": "D4",
          "midi": 62,
          "time": 38.591529999999935,
          "velocity": 0.9448818897637795,
          "duration": 0.14084499999999878
        },
        {
          "name": "C4",
          "midi": 60,
          "time": 38.732374999999934,
          "velocity": 0.9448818897637795,
          "duration": 0.14084499999999878
        },
        {
          "name": "A3",
          "midi": 57,
          "time": 38.87321999999993,
          "velocity": 0.9448818897637795,
          "duration": 0.8450699999999998
        },
        {
          "name": "D4",
          "midi": 62,
          "time": 39.71828999999993,
          "velocity": 0.9448818897637795,
          "duration": 0.8450699999999998
        },
        {
          "name": "D#4",
          "midi": 63,
          "time": 40.70420499999993,
          "velocity": 0.9448818897637795,
          "duration": 0.14084499999999878
        },
        {
          "name": "D#4",
          "midi": 63,
          "time": 40.98589499999993,
          "velocity": 0.9448818897637795,
          "duration": 0.42253500000000344
        },
        {
          "name": "D#4",
          "midi": 63,
          "time": 41.54927499999993,
          "velocity": 0.9448818897637795,
          "duration": 0.14084499999999878
        },
        {
          "name": "D#4",
          "midi": 63,
          "time": 41.83096499999993,
          "velocity": 0.9448818897637795,
          "duration": 0.42253500000000344
        },
        {
          "name": "D#4",
          "midi": 63,
          "time": 42.39434499999993,
          "velocity": 0.9448818897637795,
          "duration": 0.14084499999999878
        },
        {
          "name": "D#4",
          "midi": 63,
          "time": 42.67603499999993,
          "velocity": 0.9448818897637795,
          "duration": 0.28168999999999755
        },
        {
          "name": "F4",
          "midi": 65,
          "time": 42.957724999999925,
          "velocity": 0.9448818897637795,
          "duration": 0.14084499999999878
        },
        {
          "name": "F#4",
          "midi": 66,
          "time": 43.098569999999924,
          "velocity": 0.9448818897637795,
          "duration": 0.28168999999999755
        },
        {
          "name": "F#4",
          "midi": 66,
          "time": 43.38025999999992,
          "velocity": 0.9448818897637795,
          "duration": 0.14084499999999878
        },
        {
          "name": "F#4",
          "midi": 66,
          "time": 43.52110499999992,
          "velocity": 0.9448818897637795,
          "duration": 0.14084499999999878
        },
        {
          "name": "F4",
          "midi": 65,
          "time": 43.66194999999992,
          "velocity": 0.9448818897637795,
          "duration": 0.14084499999999878
        },
        {
          "name": "D#4",
          "midi": 63,
          "time": 43.80279499999992,
          "velocity": 0.9448818897637795,
          "duration": 0.14084499999999878
        },
        {
          "name": "D4",
          "midi": 62,
          "time": 43.94363999999992,
          "velocity": 0.9448818897637795,
          "duration": 0.14084499999999878
        },
        {
          "name": "E4",
          "midi": 64,
          "time": 44.084484999999916,
          "velocity": 0.9448818897637795,
          "duration": 0.14084499999999878
        },
        {
          "name": "F4",
          "midi": 65,
          "time": 44.225329999999914,
          "velocity": 0.9448818897637795,
          "duration": 0.14084499999999878
        },
        {
          "name": "G4",
          "midi": 67,
          "time": 44.36617499999991,
          "velocity": 0.9448818897637795,
          "duration": 0.14084499999999878
        },
        {
          "name": "F4",
          "midi": 65,
          "time": 44.50701999999991,
          "velocity": 0.9448818897637795,
          "duration": 0.14084499999999878
        },
        {
          "name": "E4",
          "midi": 64,
          "time": 44.64786499999991,
          "velocity": 0.9448818897637795,
          "duration": 0.14084499999999878
        },
        {
          "name": "F4",
          "midi": 65,
          "time": 44.78870999999991,
          "velocity": 0.9448818897637795,
          "duration": 0.14084499999999878
        },
        {
          "name": "E4",
          "midi": 64,
          "time": 44.92955499999991,
          "velocity": 0.9448818897637795,
          "duration": 0.14084499999999878
        },
        {
          "name": "D4",
          "midi": 62,
          "time": 45.07039999999991,
          "velocity": 0.9448818897637795,
          "duration": 0.14084499999999878
        },
        {
          "name": "E4",
          "midi": 64,
          "time": 45.211244999999906,
          "velocity": 0.9448818897637795,
          "duration": 0.14084499999999878
        },
        {
          "name": "D4",
          "midi": 62,
          "time": 45.352089999999905,
          "velocity": 0.9448818897637795,
          "duration": 0.14084499999999878
        },
        {
          "name": "C4",
          "midi": 60,
          "time": 45.4929349999999,
          "velocity": 0.9448818897637795,
          "duration": 0.14084499999999878
        },
        {
          "name": "A3",
          "midi": 57,
          "time": 45.6337799999999,
          "velocity": 0.9448818897637795,
          "duration": 0.8450699999999998
        },
        {
          "name": "D4",
          "midi": 62,
          "time": 46.4788499999999,
          "velocity": 0.9448818897637795,
          "duration": 0.8450699999999998
        },
        {
          "name": "D#4",
          "midi": 63,
          "time": 47.4647649999999,
          "velocity": 0.9448818897637795,
          "duration": 0.14084499999999878
        },
        {
          "name": "D#4",
          "midi": 63,
          "time": 47.7464549999999,
          "velocity": 0.9448818897637795,
          "duration": 0.42253500000000344
        },
        {
          "name": "D#4",
          "midi": 63,
          "time": 48.3098349999999,
          "velocity": 0.9448818897637795,
          "duration": 0.14084499999999878
        },
        {
          "name": "D#4",
          "midi": 63,
          "time": 48.5915249999999,
          "velocity": 0.9448818897637795,
          "duration": 0.42253500000000344
        },
        {
          "name": "D#4",
          "midi": 63,
          "time": 49.1549049999999,
          "velocity": 0.9448818897637795,
          "duration": 0.14084499999999878
        },
        {
          "name": "D#4",
          "midi": 63,
          "time": 49.4365949999999,
          "velocity": 0.9448818897637795,
          "duration": 0.28168999999999755
        },
        {
          "name": "F4",
          "midi": 65,
          "time": 49.718284999999895,
          "velocity": 0.9448818897637795,
          "duration": 0.14084499999999878
        },
        {
          "name": "F#4",
          "midi": 66,
          "time": 49.859129999999894,
          "velocity": 0.9448818897637795,
          "duration": 0.28168999999999755
        },
        {
          "name": "F#4",
          "midi": 66,
          "time": 50.14081999999989,
          "velocity": 0.9448818897637795,
          "duration": 0.14084499999999878
        },
        {
          "name": "F#4",
          "midi": 66,
          "time": 50.28166499999989,
          "velocity": 0.9448818897637795,
          "duration": 0.14084499999999878
        },
        {
          "name": "F4",
          "midi": 65,
          "time": 50.42250999999989,
          "velocity": 0.9448818897637795,
          "duration": 0.14084499999999878
        },
        {
          "name": "D#4",
          "midi": 63,
          "time": 50.56335499999989,
          "velocity": 0.9448818897637795,
          "duration": 0.14084499999999878
        },
        {
          "name": "D4",
          "midi": 62,
          "time": 50.70419999999989,
          "velocity": 0.9448818897637795,
          "duration": 0.42253500000000344
        },
        {
          "name": "E4",
          "midi": 64,
          "time": 51.12673499999989,
          "velocity": 0.9448818897637795,
          "duration": 0.42253500000000344
        },
        {
          "name": "F4",
          "midi": 65,
          "time": 51.54926999999989,
          "velocity": 0.9448818897637795,
          "duration": 0.42253500000000344
        },
        {
          "name": "G4",
          "midi": 67,
          "time": 51.9718049999999,
          "velocity": 0.9448818897637795,
          "duration": 0.14084499999999878
        },
        {
          "name": "G#4",
          "midi": 68,
          "time": 52.112649999999896,
          "velocity": 0.9448818897637795,
          "duration": 0.14084499999999878
        },
        {
          "name": "G4",
          "midi": 67,
          "time": 52.253494999999894,
          "velocity": 0.9448818897637795,
          "duration": 0.14084499999999878
        },
        {
          "name": "F4",
          "midi": 65,
          "time": 52.39433999999989,
          "velocity": 0.9448818897637795,
          "duration": 0.42253500000000344
        },
        {
          "name": "E4",
          "midi": 64,
          "time": 52.8168749999999,
          "velocity": 0.9448818897637795,
          "duration": 0.14084499999999878
        },
        {
          "name": "F4",
          "midi": 65,
          "time": 52.957719999999895,
          "velocity": 0.9448818897637795,
          "duration": 0.14084499999999878
        },
        {
          "name": "E4",
          "midi": 64,
          "time": 53.098564999999894,
          "velocity": 0.9448818897637795,
          "duration": 0.14084499999999878
        },
        {
          "name": "D4",
          "midi": 62,
          "time": 53.23940999999989,
          "velocity": 0.9448818897637795,
          "duration": 0.14084499999999878
        },
        {
          "name": "C4",
          "midi": 60,
          "time": 53.52109999999989,
          "velocity": 0.9448818897637795,
          "duration": 0.14084499999999878
        },
        {
          "name": "D4",
          "midi": 62,
          "time": 53.66194499999989,
          "velocity": 0.9448818897637795,
          "duration": 0.42253500000000344
        },
        {
          "name": "A3",
          "midi": 57,
          "time": 54.08447999999989,
          "velocity": 0.9448818897637795,
          "duration": 0.14084499999999878
        },
        {
          "name": "B3",
          "midi": 59,
          "time": 54.22532499999989,
          "velocity": 0.9448818897637795,
          "duration": 0.14084499999999878
        },
        {
          "name": "C4",
          "midi": 60,
          "time": 54.36616999999989,
          "velocity": 0.9448818897637795,
          "duration": 0.14084499999999878
        },
        {
          "name": "D4",
          "midi": 62,
          "time": 54.50701499999989,
          "velocity": 0.9448818897637795,
          "duration": 0.14084499999999878
        },
        {
          "name": "C4",
          "midi": 60,
          "time": 54.64785999999989,
          "velocity": 0.9448818897637795,
          "duration": 0.14084499999999878
        },
        {
          "name": "B3",
          "midi": 59,
          "time": 54.78870499999989,
          "velocity": 0.9448818897637795,
          "duration": 0.14084499999999878
        },
        {
          "name": "A3",
          "midi": 57,
          "time": 54.929549999999885,
          "velocity": 0.9448818897637795,
          "duration": 0.8450699999999998
        },
        {
          "name": "A4",
          "midi": 69,
          "time": 55.774619999999885,
          "velocity": 0.9448818897637795,
          "duration": 0.14084499999999878
        },
        {
          "name": "B4",
          "midi": 71,
          "time": 55.915464999999884,
          "velocity": 0.9448818897637795,
          "duration": 0.14084499999999878
        },
        {
          "name": "C5",
          "midi": 72,
          "time": 56.05630999999988,
          "velocity": 0.9448818897637795,
          "duration": 0.14084499999999878
        },
        {
          "name": "D5",
          "midi": 74,
          "time": 56.19715499999988,
          "velocity": 0.9448818897637795,
          "duration": 0.14084499999999878
        },
        {
          "name": "C5",
          "midi": 72,
          "time": 56.33799999999988,
          "velocity": 0.9448818897637795,
          "duration": 0.14084499999999878
        },
        {
          "name": "B4",
          "midi": 71,
          "time": 56.47884499999988,
          "velocity": 0.9448818897637795,
          "duration": 0.14084499999999878
        },
        {
          "name": "A4",
          "midi": 69,
          "time": 56.61968999999988,
          "velocity": 0.9448818897637795,
          "duration": 0.8450699999999998
        },
        {
          "name": "D5",
          "midi": 74,
          "time": 57.46475999999988,
          "velocity": 0.9448818897637795,
          "duration": 0.42253500000000344
        },
        {
          "name": "E5",
          "midi": 76,
          "time": 57.88729499999988,
          "velocity": 0.9448818897637795,
          "duration": 0.42253500000000344
        },
        {
          "name": "F5",
          "midi": 77,
          "time": 58.309829999999884,
          "velocity": 0.9448818897637795,
          "duration": 0.42253500000000344
        },
        {
          "name": "G5",
          "midi": 79,
          "time": 58.73236499999989,
          "velocity": 0.9448818897637795,
          "duration": 0.14084499999999878
        },
        {
          "name": "G#5",
          "midi": 80,
          "time": 58.87320999999989,
          "velocity": 0.9448818897637795,
          "duration": 0.14084499999999878
        },
        {
          "name": "G5",
          "midi": 79,
          "time": 59.014054999999885,
          "velocity": 0.9448818897637795,
          "duration": 0.14084499999999878
        },
        {
          "name": "F5",
          "midi": 77,
          "time": 59.154899999999884,
          "velocity": 0.9448818897637795,
          "duration": 0.42253500000000344
        },
        {
          "name": "E5",
          "midi": 76,
          "time": 59.57743499999989,
          "velocity": 0.9448818897637795,
          "duration": 0.14084499999999878
        },
        {
          "name": "F5",
          "midi": 77,
          "time": 59.718279999999886,
          "velocity": 0.9448818897637795,
          "duration": 0.14084499999999878
        },
        {
          "name": "E5",
          "midi": 76,
          "time": 59.859124999999885,
          "velocity": 0.9448818897637795,
          "duration": 0.14084499999999878
        },
        {
          "name": "D5",
          "midi": 74,
          "time": 59.999969999999884,
          "velocity": 0.9448818897637795,
          "duration": 0.14084499999999878
        },
        {
          "name": "C5",
          "midi": 72,
          "time": 60.28165999999988,
          "velocity": 0.9448818897637795,
          "duration": 0.14084499999999878
        },
        {
          "name": "D5",
          "midi": 74,
          "time": 60.42250499999988,
          "velocity": 0.9448818897637795,
          "duration": 0.42253500000000344
        },
        {
          "name": "A4",
          "midi": 69,
          "time": 60.845039999999884,
          "velocity": 0.9448818897637795,
          "duration": 0.14084499999999878
        },
        {
          "name": "B4",
          "midi": 71,
          "time": 60.98588499999988,
          "velocity": 0.9448818897637795,
          "duration": 0.14084499999999878
        },
        {
          "name": "C5",
          "midi": 72,
          "time": 61.12672999999988,
          "velocity": 0.9448818897637795,
          "duration": 0.14084499999999878
        },
        {
          "name": "D5",
          "midi": 74,
          "time": 61.26757499999988,
          "velocity": 0.9448818897637795,
          "duration": 0.14084499999999878
        },
        {
          "name": "C5",
          "midi": 72,
          "time": 61.40841999999988,
          "velocity": 0.9448818897637795,
          "duration": 0.14084499999999878
        },
        {
          "name": "B4",
          "midi": 71,
          "time": 61.54926499999988,
          "velocity": 0.9448818897637795,
          "duration": 0.14084499999999878
        },
        {
          "name": "E4",
          "midi": 64,
          "time": 61.690109999999876,
          "velocity": 0.9448818897637795,
          "duration": 0.42253500000000344
        },
        {
          "name": "C4",
          "midi": 60,
          "time": 62.11264499999988,
          "velocity": 0.9448818897637795,
          "duration": 0.42253500000000344
        },
        {
          "name": "F4",
          "midi": 65,
          "time": 62.53517999999988,
          "velocity": 0.9448818897637795,
          "duration": 1.6901399999999995
        }
      ];