export let bass2: any[] =  [
  {
    "name": "A4",
    "midi": 69,
    "time": 0,
    "velocity": 0.7244094488188977,
    "duration": 0.11318874999999999
  },
  {
    "name": "A4",
    "midi": 69,
    "time": 0.11810999999999999,
    "velocity": 0.7244094488188977,
    "duration": 0.11318875
  },
  {
    "name": "G4",
    "midi": 67,
    "time": 0.35433,
    "velocity": 0.7244094488188977,
    "duration": 0.11318875
  },
  {
    "name": "G4",
    "midi": 67,
    "time": 0.59055,
    "velocity": 0.7244094488188977,
    "duration": 0.6299199999999999
  },
  {
    "name": "D4",
    "midi": 62,
    "time": 1.29921,
    "velocity": 0.7244094488188977,
    "duration": 0.2312987499999999
  },
  {
    "name": "D4",
    "midi": 62,
    "time": 1.5354299999999999,
    "velocity": 0.7244094488188977,
    "duration": 0.11318874999999995
  },
  {
    "name": "C4",
    "midi": 60,
    "time": 1.6535399999999998,
    "velocity": 0.7244094488188977,
    "duration": 0.11318874999999995
  },
  {
    "name": "C4",
    "midi": 60,
    "time": 1.7716499999999997,
    "velocity": 0.7244094488188977,
    "duration": 0.11318874999999995
  },
  {
    "name": "D4",
    "midi": 62,
    "time": 1.8897599999999997,
    "velocity": 0.7244094488188977,
    "duration": 0.34940875000000005
  },
  {
    "name": "A#3",
    "midi": 58,
    "time": 2.24409,
    "velocity": 0.7244094488188977,
    "duration": 0.3494087499999998
  },
  {
    "name": "D4",
    "midi": 62,
    "time": 2.59842,
    "velocity": 0.7244094488188977,
    "duration": 0.2312987500000001
  },
  {
    "name": "C4",
    "midi": 60,
    "time": 2.8346400000000003,
    "velocity": 0.7244094488188977,
    "duration": 0.11318874999999995
  },
  {
    "name": "G4",
    "midi": 67,
    "time": 2.9527500000000004,
    "velocity": 0.7244094488188977,
    "duration": 0.82184875
  },
  {
    "name": "A4",
    "midi": 69,
    "time": 3.7795200000000007,
    "velocity": 0.7244094488188977,
    "duration": 0.11318874999999995
  },
  {
    "name": "A4",
    "midi": 69,
    "time": 3.897630000000001,
    "velocity": 0.7244094488188977,
    "duration": 0.1131887500000004
  },
  {
    "name": "G4",
    "midi": 67,
    "time": 4.133850000000002,
    "velocity": 0.7244094488188977,
    "duration": 0.11318874999999995
  },
  {
    "name": "G4",
    "midi": 67,
    "time": 4.370070000000002,
    "velocity": 0.7244094488188977,
    "duration": 0.6299200000000003
  },
  {
    "name": "D4",
    "midi": 62,
    "time": 5.078730000000002,
    "velocity": 0.7244094488188977,
    "duration": 0.23129874999999966
  },
  {
    "name": "D4",
    "midi": 62,
    "time": 5.314950000000001,
    "velocity": 0.7244094488188977,
    "duration": 0.11318874999999995
  },
  {
    "name": "C4",
    "midi": 60,
    "time": 5.433060000000001,
    "velocity": 0.7244094488188977,
    "duration": 0.11318874999999995
  },
  {
    "name": "C4",
    "midi": 60,
    "time": 5.551170000000001,
    "velocity": 0.7244094488188977,
    "duration": 0.11318874999999995
  },
  {
    "name": "D4",
    "midi": 62,
    "time": 5.6692800000000005,
    "velocity": 0.7244094488188977,
    "duration": 0.34940875000000027
  },
  {
    "name": "A#3",
    "midi": 58,
    "time": 6.023610000000001,
    "velocity": 0.7244094488188977,
    "duration": 0.34940875000000027
  },
  {
    "name": "D4",
    "midi": 62,
    "time": 6.377940000000001,
    "velocity": 0.7244094488188977,
    "duration": 0.23129874999999966
  },
  {
    "name": "C4",
    "midi": 60,
    "time": 6.61416,
    "velocity": 0.7244094488188977,
    "duration": 0.11318874999999995
  },
  {
    "name": "G4",
    "midi": 67,
    "time": 6.73227,
    "velocity": 0.7244094488188977,
    "duration": 0.82184875
  },
  {
    "name": "A4",
    "midi": 69,
    "time": 7.79526,
    "velocity": 0.7244094488188977,
    "duration": 0.07873999999999981
  },
  {
    "name": "D5",
    "midi": 74,
    "time": 8.14959,
    "velocity": 0.7244094488188977,
    "duration": 0.07873999999999981
  },
  {
    "name": "C#5",
    "midi": 73,
    "time": 8.503919999999999,
    "velocity": 0.7244094488188977,
    "duration": 0.07873999999999981
  },
  {
    "name": "D5",
    "midi": 74,
    "time": 8.622029999999999,
    "velocity": 0.7244094488188977,
    "duration": 0.07873999999999981
  },
  {
    "name": "C#5",
    "midi": 73,
    "time": 8.740139999999998,
    "velocity": 0.7244094488188977,
    "duration": 0.07873999999999981
  },
  {
    "name": "C5",
    "midi": 72,
    "time": 8.858249999999998,
    "velocity": 0.7244094488188977,
    "duration": 0.07873999999999981
  },
  {
    "name": "A5",
    "midi": 81,
    "time": 9.448799999999999,
    "velocity": 0.7244094488188977,
    "duration": 0.07873999999999981
  },
  {
    "name": "A5",
    "midi": 81,
    "time": 9.685019999999998,
    "velocity": 0.7244094488188977,
    "duration": 0.07873999999999981
  },
  {
    "name": "G#5",
    "midi": 80,
    "time": 9.803129999999998,
    "velocity": 0.7244094488188977,
    "duration": 0.07873999999999981
  },
  {
    "name": "G#5",
    "midi": 80,
    "time": 10.039349999999997,
    "velocity": 0.7244094488188977,
    "duration": 0.07873999999999981
  },
  {
    "name": "G5",
    "midi": 79,
    "time": 10.157459999999997,
    "velocity": 0.7244094488188977,
    "duration": 0.07873999999999981
  },
  {
    "name": "A5",
    "midi": 81,
    "time": 10.393679999999996,
    "velocity": 0.7244094488188977,
    "duration": 0.07873999999999981
  },
  {
    "name": "A5",
    "midi": 81,
    "time": 10.629899999999996,
    "velocity": 0.7244094488188977,
    "duration": 0.07873999999999981
  },
  {
    "name": "G#5",
    "midi": 80,
    "time": 10.748009999999995,
    "velocity": 0.7244094488188977,
    "duration": 0.07873999999999981
  },
  {
    "name": "G#5",
    "midi": 80,
    "time": 10.984229999999995,
    "velocity": 0.7244094488188977,
    "duration": 0.07873999999999981
  },
  {
    "name": "G5",
    "midi": 79,
    "time": 11.102339999999995,
    "velocity": 0.7244094488188977,
    "duration": 0.07873999999999981
  },
  {
    "name": "A4",
    "midi": 69,
    "time": 11.574779999999995,
    "velocity": 0.7244094488188977,
    "duration": 0.07873999999999981
  },
  {
    "name": "D5",
    "midi": 74,
    "time": 11.929109999999994,
    "velocity": 0.7244094488188977,
    "duration": 0.07873999999999981
  },
  {
    "name": "C#5",
    "midi": 73,
    "time": 12.283439999999993,
    "velocity": 0.7244094488188977,
    "duration": 0.07873999999999981
  },
  {
    "name": "D5",
    "midi": 74,
    "time": 12.401549999999993,
    "velocity": 0.7244094488188977,
    "duration": 0.07873999999999981
  },
  {
    "name": "C#5",
    "midi": 73,
    "time": 12.519659999999993,
    "velocity": 0.7244094488188977,
    "duration": 0.07873999999999981
  },
  {
    "name": "C5",
    "midi": 72,
    "time": 12.637769999999993,
    "velocity": 0.7244094488188977,
    "duration": 0.07873999999999981
  },
  {
    "name": "A5",
    "midi": 81,
    "time": 13.228319999999993,
    "velocity": 0.7244094488188977,
    "duration": 0.07873999999999981
  },
  {
    "name": "A5",
    "midi": 81,
    "time": 13.464539999999992,
    "velocity": 0.7244094488188977,
    "duration": 0.07873999999999981
  },
  {
    "name": "G#5",
    "midi": 80,
    "time": 13.582649999999992,
    "velocity": 0.7244094488188977,
    "duration": 0.07873999999999981
  },
  {
    "name": "G#5",
    "midi": 80,
    "time": 13.818869999999992,
    "velocity": 0.7244094488188977,
    "duration": 0.07873999999999981
  },
  {
    "name": "G5",
    "midi": 79,
    "time": 13.936979999999991,
    "velocity": 0.7244094488188977,
    "duration": 0.07873999999999981
  },
  {
    "name": "A5",
    "midi": 81,
    "time": 14.17319999999999,
    "velocity": 0.7244094488188977,
    "duration": 0.07873999999999981
  },
  {
    "name": "A5",
    "midi": 81,
    "time": 14.40941999999999,
    "velocity": 0.7244094488188977,
    "duration": 0.07873999999999981
  },
  {
    "name": "G#5",
    "midi": 80,
    "time": 14.52752999999999,
    "velocity": 0.7244094488188977,
    "duration": 0.07873999999999981
  },
  {
    "name": "G#5",
    "midi": 80,
    "time": 14.76374999999999,
    "velocity": 0.7244094488188977,
    "duration": 0.07873999999999981
  },
  {
    "name": "G5",
    "midi": 79,
    "time": 14.881859999999989,
    "velocity": 0.7244094488188977,
    "duration": 0.07873999999999981
  },
  {
    "name": "A#4",
    "midi": 70,
    "time": 15.118079999999988,
    "velocity": 0.7244094488188977,
    "duration": 0.34940875000000027
  },
  {
    "name": "C#5",
    "midi": 73,
    "time": 15.47240999999999,
    "velocity": 0.7244094488188977,
    "duration": 0.34940875000000027
  },
  {
    "name": "E5",
    "midi": 76,
    "time": 15.82673999999999,
    "velocity": 0.7244094488188977,
    "duration": 0.11318875000000084
  },
  {
    "name": "D5",
    "midi": 74,
    "time": 16.06295999999999,
    "velocity": 0.7244094488188977,
    "duration": 0.3494087499999985
  },
  {
    "name": "A4",
    "midi": 69,
    "time": 16.417289999999987,
    "velocity": 0.7244094488188977,
    "duration": 0.3494087499999985
  },
  {
    "name": "F4",
    "midi": 65,
    "time": 16.771619999999984,
    "velocity": 0.7244094488188977,
    "duration": 0.11318874999999906
  },
  {
    "name": "A#4",
    "midi": 70,
    "time": 17.007839999999984,
    "velocity": 0.7244094488188977,
    "duration": 0.3494087499999985
  },
  {
    "name": "C#5",
    "midi": 73,
    "time": 17.36216999999998,
    "velocity": 0.7244094488188977,
    "duration": 0.3494087499999985
  },
  {
    "name": "E5",
    "midi": 76,
    "time": 17.71649999999998,
    "velocity": 0.7244094488188977,
    "duration": 0.11318874999999906
  },
  {
    "name": "D5",
    "midi": 74,
    "time": 17.952719999999978,
    "velocity": 0.7244094488188977,
    "duration": 0.3494087499999985
  },
  {
    "name": "A4",
    "midi": 69,
    "time": 18.307049999999975,
    "velocity": 0.7244094488188977,
    "duration": 0.11318874999999906
  },
  {
    "name": "A#4",
    "midi": 70,
    "time": 18.897599999999976,
    "velocity": 0.7244094488188977,
    "duration": 0.3494087499999985
  },
  {
    "name": "C#5",
    "midi": 73,
    "time": 19.251929999999973,
    "velocity": 0.7244094488188977,
    "duration": 0.3494087499999985
  },
  {
    "name": "E5",
    "midi": 76,
    "time": 19.60625999999997,
    "velocity": 0.7244094488188977,
    "duration": 0.11318874999999906
  },
  {
    "name": "D5",
    "midi": 74,
    "time": 19.84247999999997,
    "velocity": 0.7244094488188977,
    "duration": 0.3494087499999985
  },
  {
    "name": "A4",
    "midi": 69,
    "time": 20.196809999999967,
    "velocity": 0.7244094488188977,
    "duration": 0.3494087499999985
  },
  {
    "name": "F4",
    "midi": 65,
    "time": 20.551139999999965,
    "velocity": 0.7244094488188977,
    "duration": 0.11318874999999906
  },
  {
    "name": "A#4",
    "midi": 70,
    "time": 20.787359999999964,
    "velocity": 0.7244094488188977,
    "duration": 0.3494087499999985
  },
  {
    "name": "C#5",
    "midi": 73,
    "time": 21.14168999999996,
    "velocity": 0.7244094488188977,
    "duration": 0.3494087499999985
  },
  {
    "name": "E5",
    "midi": 76,
    "time": 21.49601999999996,
    "velocity": 0.7244094488188977,
    "duration": 0.11318874999999906
  },
  {
    "name": "C#5",
    "midi": 73,
    "time": 21.73223999999996,
    "velocity": 0.7244094488188977,
    "duration": 0.3494087499999985
  },
  {
    "name": "E5",
    "midi": 76,
    "time": 22.086569999999956,
    "velocity": 0.7244094488188977,
    "duration": 0.3494087499999985
  },
  {
    "name": "G5",
    "midi": 79,
    "time": 22.440899999999953,
    "velocity": 0.7244094488188977,
    "duration": 0.11318874999999906
  },
  {
    "name": "A5",
    "midi": 81,
    "time": 22.677119999999952,
    "velocity": 0.7244094488188977,
    "duration": 0.11318874999999906
  },
  {
    "name": "A5",
    "midi": 81,
    "time": 22.79522999999995,
    "velocity": 0.7244094488188977,
    "duration": 0.11318874999999906
  },
  {
    "name": "A4",
    "midi": 69,
    "time": 22.91333999999995,
    "velocity": 0.7244094488188977,
    "duration": 0.11318874999999906
  },
  {
    "name": "A4",
    "midi": 69,
    "time": 23.031449999999946,
    "velocity": 0.7244094488188977,
    "duration": 1.4173200000000001
  },
  {
    "name": "F3",
    "midi": 53,
    "time": 24.566879999999948,
    "velocity": 0.7244094488188977,
    "duration": 0.11318874999999906
  },
  {
    "name": "F3",
    "midi": 53,
    "time": 24.803099999999947,
    "velocity": 0.7244094488188977,
    "duration": 0.11318874999999906
  },
  {
    "name": "A#3",
    "midi": 58,
    "time": 25.039319999999947,
    "velocity": 0.7244094488188977,
    "duration": 0.11318874999999906
  },
  {
    "name": "D4",
    "midi": 62,
    "time": 25.157429999999945,
    "velocity": 0.7244094488188977,
    "duration": 0.3494087499999985
  },
  {
    "name": "G3",
    "midi": 55,
    "time": 25.511759999999942,
    "velocity": 0.7244094488188977,
    "duration": 0.11318874999999906
  },
  {
    "name": "G3",
    "midi": 55,
    "time": 25.74797999999994,
    "velocity": 0.7244094488188977,
    "duration": 0.11318874999999906
  },
  {
    "name": "C4",
    "midi": 60,
    "time": 25.98419999999994,
    "velocity": 0.7244094488188977,
    "duration": 0.11318874999999906
  },
  {
    "name": "E4",
    "midi": 64,
    "time": 26.10230999999994,
    "velocity": 0.7244094488188977,
    "duration": 0.3494087499999985
  },
  {
    "name": "A5",
    "midi": 81,
    "time": 26.456639999999936,
    "velocity": 0.7244094488188977,
    "duration": 0.11318874999999906
  },
  {
    "name": "A5",
    "midi": 81,
    "time": 26.574749999999934,
    "velocity": 0.7244094488188977,
    "duration": 0.11318874999999906
  },
  {
    "name": "A4",
    "midi": 69,
    "time": 26.692859999999932,
    "velocity": 0.7244094488188977,
    "duration": 0.11318874999999906
  },
  {
    "name": "A4",
    "midi": 69,
    "time": 26.81096999999993,
    "velocity": 0.7244094488188977,
    "duration": 1.4173200000000001
  },
  {
    "name": "F3",
    "midi": 53,
    "time": 28.34639999999993,
    "velocity": 0.7244094488188977,
    "duration": 0.11318874999999906
  },
  {
    "name": "F3",
    "midi": 53,
    "time": 28.58261999999993,
    "velocity": 0.7244094488188977,
    "duration": 0.11318874999999906
  },
  {
    "name": "A#3",
    "midi": 58,
    "time": 28.81883999999993,
    "velocity": 0.7244094488188977,
    "duration": 0.11318874999999906
  },
  {
    "name": "D4",
    "midi": 62,
    "time": 28.93694999999993,
    "velocity": 0.7244094488188977,
    "duration": 0.3494087499999985
  },
  {
    "name": "G3",
    "midi": 55,
    "time": 29.291279999999926,
    "velocity": 0.7244094488188977,
    "duration": 0.11318874999999906
  },
  {
    "name": "A4",
    "midi": 69,
    "time": 30.236159999999924,
    "velocity": 0.7244094488188977,
    "duration": 0.11318874999999906
  },
  {
    "name": "A4",
    "midi": 69,
    "time": 30.35426999999992,
    "velocity": 0.7244094488188977,
    "duration": 0.11318874999999906
  },
  {
    "name": "G4",
    "midi": 67,
    "time": 30.59048999999992,
    "velocity": 0.7244094488188977,
    "duration": 0.11318874999999906
  },
  {
    "name": "G4",
    "midi": 67,
    "time": 30.82670999999992,
    "velocity": 0.7244094488188977,
    "duration": 0.6299199999999985
  },
  {
    "name": "D4",
    "midi": 62,
    "time": 31.53536999999992,
    "velocity": 0.7244094488188977,
    "duration": 0.23129875000000055
  },
  {
    "name": "D4",
    "midi": 62,
    "time": 31.771589999999918,
    "velocity": 0.7244094488188977,
    "duration": 0.11318874999999906
  },
  {
    "name": "C4",
    "midi": 60,
    "time": 31.889699999999916,
    "velocity": 0.7244094488188977,
    "duration": 0.11318875000000261
  },
  {
    "name": "C4",
    "midi": 60,
    "time": 32.00780999999992,
    "velocity": 0.7244094488188977,
    "duration": 0.11318874999999906
  },
  {
    "name": "D4",
    "midi": 62,
    "time": 32.12591999999992,
    "velocity": 0.7244094488188977,
    "duration": 0.34940875000000204
  },
  {
    "name": "A#3",
    "midi": 58,
    "time": 32.48024999999993,
    "velocity": 0.7244094488188977,
    "duration": 0.34940875000000204
  },
  {
    "name": "D4",
    "midi": 62,
    "time": 32.83457999999993,
    "velocity": 0.7244094488188977,
    "duration": 0.23129875000000055
  },
  {
    "name": "C4",
    "midi": 60,
    "time": 33.070799999999934,
    "velocity": 0.7244094488188977,
    "duration": 0.11318874999999906
  },
  {
    "name": "G4",
    "midi": 67,
    "time": 33.188909999999936,
    "velocity": 0.7244094488188977,
    "duration": 0.8218487500000009
  },
  {
    "name": "A4",
    "midi": 69,
    "time": 34.01567999999994,
    "velocity": 0.7244094488188977,
    "duration": 0.11318874999999906
  },
  {
    "name": "A4",
    "midi": 69,
    "time": 34.13378999999994,
    "velocity": 0.7244094488188977,
    "duration": 0.11318874999999906
  },
  {
    "name": "G4",
    "midi": 67,
    "time": 34.37000999999994,
    "velocity": 0.7244094488188977,
    "duration": 0.11318874999999906
  },
  {
    "name": "G4",
    "midi": 67,
    "time": 34.60622999999993,
    "velocity": 0.7244094488188977,
    "duration": 0.6299199999999985
  },
  {
    "name": "D4",
    "midi": 62,
    "time": 35.314889999999934,
    "velocity": 0.7244094488188977,
    "duration": 0.23129875000000055
  },
  {
    "name": "D4",
    "midi": 62,
    "time": 35.55110999999994,
    "velocity": 0.7244094488188977,
    "duration": 0.11318874999999906
  },
  {
    "name": "C4",
    "midi": 60,
    "time": 35.66921999999994,
    "velocity": 0.7244094488188977,
    "duration": 0.11318874999999906
  },
  {
    "name": "C4",
    "midi": 60,
    "time": 35.78732999999994,
    "velocity": 0.7244094488188977,
    "duration": 0.11318874999999906
  },
  {
    "name": "D4",
    "midi": 62,
    "time": 35.90543999999994,
    "velocity": 0.7244094488188977,
    "duration": 0.34940875000000204
  },
  {
    "name": "A#3",
    "midi": 58,
    "time": 36.259769999999946,
    "velocity": 0.7244094488188977,
    "duration": 0.34940875000000204
  },
  {
    "name": "D4",
    "midi": 62,
    "time": 36.61409999999995,
    "velocity": 0.7244094488188977,
    "duration": 0.23129875000000055
  },
  {
    "name": "C4",
    "midi": 60,
    "time": 36.850319999999954,
    "velocity": 0.7244094488188977,
    "duration": 0.11318874999999906
  },
  {
    "name": "G4",
    "midi": 67,
    "time": 36.968429999999955,
    "velocity": 0.7244094488188977,
    "duration": 0.8218487500000009
  },
  {
    "name": "A4",
    "midi": 69,
    "time": 38.03141999999996,
    "velocity": 0.7244094488188977,
    "duration": 0.07874000000000336
  },
  {
    "name": "D5",
    "midi": 74,
    "time": 38.385749999999966,
    "velocity": 0.7244094488188977,
    "duration": 0.07874000000000336
  },
  {
    "name": "C#5",
    "midi": 73,
    "time": 38.74007999999997,
    "velocity": 0.7244094488188977,
    "duration": 0.07874000000000336
  },
  {
    "name": "D5",
    "midi": 74,
    "time": 38.85818999999997,
    "velocity": 0.7244094488188977,
    "duration": 0.07874000000000336
  },
  {
    "name": "C#5",
    "midi": 73,
    "time": 38.97629999999997,
    "velocity": 0.7244094488188977,
    "duration": 0.07874000000000336
  },
  {
    "name": "C5",
    "midi": 72,
    "time": 39.094409999999975,
    "velocity": 0.7244094488188977,
    "duration": 0.07874000000000336
  },
  {
    "name": "A5",
    "midi": 81,
    "time": 39.684959999999975,
    "velocity": 0.7244094488188977,
    "duration": 0.07874000000000336
  },
  {
    "name": "A5",
    "midi": 81,
    "time": 39.92117999999998,
    "velocity": 0.7244094488188977,
    "duration": 0.07874000000000336
  },
  {
    "name": "G#5",
    "midi": 80,
    "time": 40.03928999999998,
    "velocity": 0.7244094488188977,
    "duration": 0.07874000000000336
  },
  {
    "name": "G#5",
    "midi": 80,
    "time": 40.27550999999998,
    "velocity": 0.7244094488188977,
    "duration": 0.07874000000000336
  },
  {
    "name": "G5",
    "midi": 79,
    "time": 40.393619999999984,
    "velocity": 0.7244094488188977,
    "duration": 0.07874000000000336
  },
  {
    "name": "A5",
    "midi": 81,
    "time": 40.62983999999999,
    "velocity": 0.7244094488188977,
    "duration": 0.07874000000000336
  },
  {
    "name": "A5",
    "midi": 81,
    "time": 40.86605999999999,
    "velocity": 0.7244094488188977,
    "duration": 0.07874000000000336
  },
  {
    "name": "G#5",
    "midi": 80,
    "time": 40.98416999999999,
    "velocity": 0.7244094488188977,
    "duration": 0.07874000000000336
  },
  {
    "name": "G#5",
    "midi": 80,
    "time": 41.220389999999995,
    "velocity": 0.7244094488188977,
    "duration": 0.07874000000000336
  },
  {
    "name": "G5",
    "midi": 79,
    "time": 41.338499999999996,
    "velocity": 0.7244094488188977,
    "duration": 0.07874000000000336
  },
  {
    "name": "A4",
    "midi": 69,
    "time": 41.81094,
    "velocity": 0.7244094488188977,
    "duration": 0.07874000000000336
  },
  {
    "name": "D5",
    "midi": 74,
    "time": 42.16527000000001,
    "velocity": 0.7244094488188977,
    "duration": 0.07874000000000336
  },
  {
    "name": "C#5",
    "midi": 73,
    "time": 42.51960000000001,
    "velocity": 0.7244094488188977,
    "duration": 0.07874000000000336
  },
  {
    "name": "D5",
    "midi": 74,
    "time": 42.63771000000001,
    "velocity": 0.7244094488188977,
    "duration": 0.07874000000000336
  },
  {
    "name": "C#5",
    "midi": 73,
    "time": 42.755820000000014,
    "velocity": 0.7244094488188977,
    "duration": 0.07874000000000336
  },
  {
    "name": "C5",
    "midi": 72,
    "time": 42.873930000000016,
    "velocity": 0.7244094488188977,
    "duration": 0.07874000000000336
  },
  {
    "name": "A5",
    "midi": 81,
    "time": 43.464480000000016,
    "velocity": 0.7244094488188977,
    "duration": 0.07874000000000336
  },
  {
    "name": "A5",
    "midi": 81,
    "time": 43.70070000000002,
    "velocity": 0.7244094488188977,
    "duration": 0.07874000000000336
  },
  {
    "name": "G#5",
    "midi": 80,
    "time": 43.81881000000002,
    "velocity": 0.7244094488188977,
    "duration": 0.07874000000000336
  },
  {
    "name": "G#5",
    "midi": 80,
    "time": 44.05503000000002,
    "velocity": 0.7244094488188977,
    "duration": 0.07874000000000336
  },
  {
    "name": "G5",
    "midi": 79,
    "time": 44.173140000000025,
    "velocity": 0.7244094488188977,
    "duration": 0.07874000000000336
  },
  {
    "name": "A5",
    "midi": 81,
    "time": 44.40936000000003,
    "velocity": 0.7244094488188977,
    "duration": 0.07874000000000336
  },
  {
    "name": "A5",
    "midi": 81,
    "time": 44.64558000000003,
    "velocity": 0.7244094488188977,
    "duration": 0.07874000000000336
  },
  {
    "name": "G#5",
    "midi": 80,
    "time": 44.76369000000003,
    "velocity": 0.7244094488188977,
    "duration": 0.07874000000000336
  },
  {
    "name": "G#5",
    "midi": 80,
    "time": 44.999910000000035,
    "velocity": 0.7244094488188977,
    "duration": 0.07874000000000336
  },
  {
    "name": "G5",
    "midi": 79,
    "time": 45.11802000000004,
    "velocity": 0.7244094488188977,
    "duration": 0.07874000000000336
  },
  {
    "name": "A#4",
    "midi": 70,
    "time": 45.35424000000004,
    "velocity": 0.7244094488188977,
    "duration": 0.34940875000000204
  },
  {
    "name": "C#5",
    "midi": 73,
    "time": 45.708570000000044,
    "velocity": 0.7244094488188977,
    "duration": 0.34940875000000204
  },
  {
    "name": "E5",
    "midi": 76,
    "time": 46.06290000000005,
    "velocity": 0.7244094488188977,
    "duration": 0.11318874999999906
  },
  {
    "name": "D5",
    "midi": 74,
    "time": 46.299120000000045,
    "velocity": 0.7244094488188977,
    "duration": 0.34940875000000204
  },
  {
    "name": "A4",
    "midi": 69,
    "time": 46.65345000000005,
    "velocity": 0.7244094488188977,
    "duration": 0.34940875000000204
  },
  {
    "name": "F4",
    "midi": 65,
    "time": 47.007780000000054,
    "velocity": 0.7244094488188977,
    "duration": 0.11318874999999906
  },
  {
    "name": "A#4",
    "midi": 70,
    "time": 47.24400000000005,
    "velocity": 0.7244094488188977,
    "duration": 0.34940875000000204
  },
  {
    "name": "C#5",
    "midi": 73,
    "time": 47.598330000000054,
    "velocity": 0.7244094488188977,
    "duration": 0.34940875000000204
  },
  {
    "name": "E5",
    "midi": 76,
    "time": 47.95266000000006,
    "velocity": 0.7244094488188977,
    "duration": 0.11318874999999906
  },
  {
    "name": "D5",
    "midi": 74,
    "time": 48.188880000000054,
    "velocity": 0.7244094488188977,
    "duration": 0.34940875000000204
  },
  {
    "name": "A4",
    "midi": 69,
    "time": 48.54321000000006,
    "velocity": 0.7244094488188977,
    "duration": 0.11318874999999906
  },
  {
    "name": "A#4",
    "midi": 70,
    "time": 49.13376000000006,
    "velocity": 0.7244094488188977,
    "duration": 0.34940875000000204
  },
  {
    "name": "C#5",
    "midi": 73,
    "time": 49.488090000000064,
    "velocity": 0.7244094488188977,
    "duration": 0.34940875000000204
  },
  {
    "name": "E5",
    "midi": 76,
    "time": 49.84242000000007,
    "velocity": 0.7244094488188977,
    "duration": 0.11318874999999906
  },
  {
    "name": "D5",
    "midi": 74,
    "time": 50.078640000000064,
    "velocity": 0.7244094488188977,
    "duration": 0.34940875000000204
  },
  {
    "name": "A4",
    "midi": 69,
    "time": 50.43297000000007,
    "velocity": 0.7244094488188977,
    "duration": 0.34940875000000204
  },
  {
    "name": "F4",
    "midi": 65,
    "time": 50.78730000000007,
    "velocity": 0.7244094488188977,
    "duration": 0.11318874999999906
  },
  {
    "name": "A#4",
    "midi": 70,
    "time": 51.02352000000007,
    "velocity": 0.7244094488188977,
    "duration": 0.34940875000000204
  },
  {
    "name": "C#5",
    "midi": 73,
    "time": 51.37785000000007,
    "velocity": 0.7244094488188977,
    "duration": 0.34940875000000204
  },
  {
    "name": "E5",
    "midi": 76,
    "time": 51.73218000000008,
    "velocity": 0.7244094488188977,
    "duration": 0.11318874999999906
  },
  {
    "name": "C#5",
    "midi": 73,
    "time": 51.968400000000074,
    "velocity": 0.7244094488188977,
    "duration": 0.34940875000000204
  },
  {
    "name": "E5",
    "midi": 76,
    "time": 52.32273000000008,
    "velocity": 0.7244094488188977,
    "duration": 0.34940875000000204
  },
  {
    "name": "G5",
    "midi": 79,
    "time": 52.67706000000008,
    "velocity": 0.7244094488188977,
    "duration": 0.11318874999999906
  },
  {
    "name": "A5",
    "midi": 81,
    "time": 52.91328000000008,
    "velocity": 0.7244094488188977,
    "duration": 0.11318874999999906
  },
  {
    "name": "A5",
    "midi": 81,
    "time": 53.03139000000008,
    "velocity": 0.7244094488188977,
    "duration": 0.11318874999999906
  },
  {
    "name": "A4",
    "midi": 69,
    "time": 53.14950000000008,
    "velocity": 0.7244094488188977,
    "duration": 0.11318874999999906
  },
  {
    "name": "A4",
    "midi": 69,
    "time": 53.26761000000008,
    "velocity": 0.7244094488188977,
    "duration": 1.4173199999999966
  },
  {
    "name": "F3",
    "midi": 53,
    "time": 54.80304000000008,
    "velocity": 0.7244094488188977,
    "duration": 0.11318874999999906
  },
  {
    "name": "F3",
    "midi": 53,
    "time": 55.03926000000008,
    "velocity": 0.7244094488188977,
    "duration": 0.11318874999999906
  },
  {
    "name": "A#3",
    "midi": 58,
    "time": 55.27548000000007,
    "velocity": 0.7244094488188977,
    "duration": 0.11318874999999906
  },
  {
    "name": "D4",
    "midi": 62,
    "time": 55.393590000000074,
    "velocity": 0.7244094488188977,
    "duration": 0.34940875000000204
  },
  {
    "name": "G3",
    "midi": 55,
    "time": 55.74792000000008,
    "velocity": 0.7244094488188977,
    "duration": 0.11318874999999906
  },
  {
    "name": "G3",
    "midi": 55,
    "time": 55.984140000000075,
    "velocity": 0.7244094488188977,
    "duration": 0.11318874999999906
  },
  {
    "name": "C4",
    "midi": 60,
    "time": 56.22036000000007,
    "velocity": 0.7244094488188977,
    "duration": 0.11318874999999906
  },
  {
    "name": "E4",
    "midi": 64,
    "time": 56.33847000000007,
    "velocity": 0.7244094488188977,
    "duration": 0.34940875000000204
  },
  {
    "name": "A5",
    "midi": 81,
    "time": 56.69280000000008,
    "velocity": 0.7244094488188977,
    "duration": 0.11318874999999906
  },
  {
    "name": "A5",
    "midi": 81,
    "time": 56.81091000000008,
    "velocity": 0.7244094488188977,
    "duration": 0.11318874999999906
  },
  {
    "name": "A4",
    "midi": 69,
    "time": 56.92902000000008,
    "velocity": 0.7244094488188977,
    "duration": 0.11318874999999906
  },
  {
    "name": "A4",
    "midi": 69,
    "time": 57.04713000000008,
    "velocity": 0.7244094488188977,
    "duration": 1.4173199999999966
  },
  {
    "name": "F3",
    "midi": 53,
    "time": 58.58256000000008,
    "velocity": 0.7244094488188977,
    "duration": 0.11318874999999906
  },
  {
    "name": "F3",
    "midi": 53,
    "time": 58.818780000000075,
    "velocity": 0.7244094488188977,
    "duration": 0.11318874999999906
  },
  {
    "name": "A#3",
    "midi": 58,
    "time": 59.05500000000007,
    "velocity": 0.7244094488188977,
    "duration": 0.11318874999999906
  },
  {
    "name": "D4",
    "midi": 62,
    "time": 59.17311000000007,
    "velocity": 0.7244094488188977,
    "duration": 0.34940875000000204
  },
  {
    "name": "G3",
    "midi": 55,
    "time": 59.52744000000008,
    "velocity": 0.7244094488188977,
    "duration": 0.11318874999999906
  },
  {
    "name": "A4",
    "midi": 69,
    "time": 60.472320000000074,
    "velocity": 0.7244094488188977,
    "duration": 0.11318874999999906
  },
  {
    "name": "A4",
    "midi": 69,
    "time": 60.590430000000076,
    "velocity": 0.7244094488188977,
    "duration": 0.11318874999999906
  },
  {
    "name": "G4",
    "midi": 67,
    "time": 60.82665000000007,
    "velocity": 0.7244094488188977,
    "duration": 0.11318874999999906
  },
  {
    "name": "G4",
    "midi": 67,
    "time": 61.06287000000007,
    "velocity": 0.7244094488188977,
    "duration": 0.6299199999999985
  },
  {
    "name": "D4",
    "midi": 62,
    "time": 61.77153000000007,
    "velocity": 0.7244094488188977,
    "duration": 0.23129875000000055
  },
  {
    "name": "D4",
    "midi": 62,
    "time": 62.00775000000007,
    "velocity": 0.7244094488188977,
    "duration": 0.11318874999999906
  },
  {
    "name": "C4",
    "midi": 60,
    "time": 62.125860000000074,
    "velocity": 0.7244094488188977,
    "duration": 0.11318874999999906
  },
  {
    "name": "C4",
    "midi": 60,
    "time": 62.243970000000076,
    "velocity": 0.7244094488188977,
    "duration": 0.11318874999999906
  },
  {
    "name": "D4",
    "midi": 62,
    "time": 62.36208000000008,
    "velocity": 0.7244094488188977,
    "duration": 0.34940875000000204
  },
  {
    "name": "A#3",
    "midi": 58,
    "time": 62.71641000000008,
    "velocity": 0.7244094488188977,
    "duration": 0.34940875000000204
  },
  {
    "name": "D4",
    "midi": 62,
    "time": 63.070740000000086,
    "velocity": 0.7244094488188977,
    "duration": 0.23129875000000055
  },
  {
    "name": "C4",
    "midi": 60,
    "time": 63.30696000000009,
    "velocity": 0.7244094488188977,
    "duration": 0.11318874999999906
  },
  {
    "name": "G4",
    "midi": 67,
    "time": 63.42507000000009,
    "velocity": 0.7244094488188977,
    "duration": 0.8218487500000009
  },
  {
    "name": "A4",
    "midi": 69,
    "time": 64.25184000000009,
    "velocity": 0.7244094488188977,
    "duration": 0.11318875000000617
  },
  {
    "name": "A4",
    "midi": 69,
    "time": 64.36995000000009,
    "velocity": 0.7244094488188977,
    "duration": 0.11318875000000617
  },
  {
    "name": "G4",
    "midi": 67,
    "time": 64.60617000000009,
    "velocity": 0.7244094488188977,
    "duration": 0.11318875000000617
  },
  {
    "name": "G4",
    "midi": 67,
    "time": 64.8423900000001,
    "velocity": 0.7244094488188977,
    "duration": 0.6299199999999985
  },
  {
    "name": "D4",
    "midi": 62,
    "time": 65.55105000000009,
    "velocity": 0.7244094488188977,
    "duration": 0.23129874999999345
  },
  {
    "name": "D4",
    "midi": 62,
    "time": 65.78727000000008,
    "velocity": 0.7244094488188977,
    "duration": 0.11318875000000617
  },
  {
    "name": "C4",
    "midi": 60,
    "time": 65.90538000000008,
    "velocity": 0.7244094488188977,
    "duration": 0.11318875000000617
  },
  {
    "name": "C4",
    "midi": 60,
    "time": 66.02349000000008,
    "velocity": 0.7244094488188977,
    "duration": 0.11318875000000617
  },
  {
    "name": "D4",
    "midi": 62,
    "time": 66.14160000000008,
    "velocity": 0.7244094488188977,
    "duration": 0.34940874999999494
  },
  {
    "name": "A#3",
    "midi": 58,
    "time": 66.49593000000007,
    "velocity": 0.7244094488188977,
    "duration": 0.34940874999999494
  },
  {
    "name": "D4",
    "midi": 62,
    "time": 66.85026000000006,
    "velocity": 0.7244094488188977,
    "duration": 0.23129874999999345
  },
  {
    "name": "C4",
    "midi": 60,
    "time": 67.08648000000005,
    "velocity": 0.7244094488188977,
    "duration": 0.11318875000000617
  },
  {
    "name": "G4",
    "midi": 67,
    "time": 67.20459000000005,
    "velocity": 0.7244094488188977,
    "duration": 0.8218487500000009
  },
  {
    "name": "A4",
    "midi": 69,
    "time": 68.26758000000005,
    "velocity": 0.7244094488188977,
    "duration": 0.07873999999999626
  },
  {
    "name": "D5",
    "midi": 74,
    "time": 68.62191000000004,
    "velocity": 0.7244094488188977,
    "duration": 0.07873999999999626
  },
  {
    "name": "C#5",
    "midi": 73,
    "time": 68.97624000000003,
    "velocity": 0.7244094488188977,
    "duration": 0.07873999999999626
  },
  {
    "name": "D5",
    "midi": 74,
    "time": 69.09435000000003,
    "velocity": 0.7244094488188977,
    "duration": 0.07873999999999626
  },
  {
    "name": "C#5",
    "midi": 73,
    "time": 69.21246000000004,
    "velocity": 0.7244094488188977,
    "duration": 0.07873999999999626
  },
  {
    "name": "C5",
    "midi": 72,
    "time": 69.33057000000004,
    "velocity": 0.7244094488188977,
    "duration": 0.07873999999999626
  },
  {
    "name": "A5",
    "midi": 81,
    "time": 69.92112000000003,
    "velocity": 0.7244094488188977,
    "duration": 0.07873999999999626
  },
  {
    "name": "A5",
    "midi": 81,
    "time": 70.15734000000003,
    "velocity": 0.7244094488188977,
    "duration": 0.07873999999999626
  },
  {
    "name": "G#5",
    "midi": 80,
    "time": 70.27545000000003,
    "velocity": 0.7244094488188977,
    "duration": 0.07873999999999626
  },
  {
    "name": "G#5",
    "midi": 80,
    "time": 70.51167000000004,
    "velocity": 0.7244094488188977,
    "duration": 0.07873999999999626
  },
  {
    "name": "G5",
    "midi": 79,
    "time": 70.62978000000004,
    "velocity": 0.7244094488188977,
    "duration": 0.07873999999999626
  },
  {
    "name": "A5",
    "midi": 81,
    "time": 70.86600000000004,
    "velocity": 0.7244094488188977,
    "duration": 0.07873999999999626
  },
  {
    "name": "A5",
    "midi": 81,
    "time": 71.10222000000005,
    "velocity": 0.7244094488188977,
    "duration": 0.07873999999999626
  },
  {
    "name": "G#5",
    "midi": 80,
    "time": 71.22033000000005,
    "velocity": 0.7244094488188977,
    "duration": 0.07873999999999626
  },
  {
    "name": "G#5",
    "midi": 80,
    "time": 71.45655000000005,
    "velocity": 0.7244094488188977,
    "duration": 0.07873999999999626
  },
  {
    "name": "G5",
    "midi": 79,
    "time": 71.57466000000005,
    "velocity": 0.7244094488188977,
    "duration": 0.07873999999999626
  },
  {
    "name": "A4",
    "midi": 69,
    "time": 72.04710000000004,
    "velocity": 0.7244094488188977,
    "duration": 0.07873999999999626
  },
  {
    "name": "D5",
    "midi": 74,
    "time": 72.40143000000003,
    "velocity": 0.7244094488188977,
    "duration": 0.07873999999999626
  },
  {
    "name": "C#5",
    "midi": 73,
    "time": 72.75576000000002,
    "velocity": 0.7244094488188977,
    "duration": 0.07873999999999626
  },
  {
    "name": "D5",
    "midi": 74,
    "time": 72.87387000000003,
    "velocity": 0.7244094488188977,
    "duration": 0.07873999999999626
  },
  {
    "name": "C#5",
    "midi": 73,
    "time": 72.99198000000003,
    "velocity": 0.7244094488188977,
    "duration": 0.07873999999999626
  },
  {
    "name": "C5",
    "midi": 72,
    "time": 73.11009000000003,
    "velocity": 0.7244094488188977,
    "duration": 0.07873999999999626
  },
  {
    "name": "A5",
    "midi": 81,
    "time": 73.70064000000002,
    "velocity": 0.7244094488188977,
    "duration": 0.07873999999999626
  },
  {
    "name": "A5",
    "midi": 81,
    "time": 73.93686000000002,
    "velocity": 0.7244094488188977,
    "duration": 0.07873999999999626
  },
  {
    "name": "G#5",
    "midi": 80,
    "time": 74.05497000000003,
    "velocity": 0.7244094488188977,
    "duration": 0.07873999999999626
  },
  {
    "name": "G#5",
    "midi": 80,
    "time": 74.29119000000003,
    "velocity": 0.7244094488188977,
    "duration": 0.07873999999999626
  },
  {
    "name": "G5",
    "midi": 79,
    "time": 74.40930000000003,
    "velocity": 0.7244094488188977,
    "duration": 0.07873999999999626
  },
  {
    "name": "A5",
    "midi": 81,
    "time": 74.64552000000003,
    "velocity": 0.7244094488188977,
    "duration": 0.07873999999999626
  },
  {
    "name": "A5",
    "midi": 81,
    "time": 74.88174000000004,
    "velocity": 0.7244094488188977,
    "duration": 0.07873999999999626
  },
  {
    "name": "G#5",
    "midi": 80,
    "time": 74.99985000000004,
    "velocity": 0.7244094488188977,
    "duration": 0.07873999999999626
  },
  {
    "name": "G#5",
    "midi": 80,
    "time": 75.23607000000004,
    "velocity": 0.7244094488188977,
    "duration": 0.07873999999999626
  },
  {
    "name": "G5",
    "midi": 79,
    "time": 75.35418000000004,
    "velocity": 0.7244094488188977,
    "duration": 0.07873999999999626
  },
  {
    "name": "A#4",
    "midi": 70,
    "time": 75.59040000000005,
    "velocity": 0.7244094488188977,
    "duration": 0.34940874999999494
  },
  {
    "name": "C#5",
    "midi": 73,
    "time": 75.94473000000004,
    "velocity": 0.7244094488188977,
    "duration": 0.34940874999999494
  },
  {
    "name": "E5",
    "midi": 76,
    "time": 76.29906000000003,
    "velocity": 0.7244094488188977,
    "duration": 0.11318875000000617
  },
  {
    "name": "D5",
    "midi": 74,
    "time": 76.53528000000003,
    "velocity": 0.7244094488188977,
    "duration": 0.34940874999999494
  },
  {
    "name": "A4",
    "midi": 69,
    "time": 76.88961000000002,
    "velocity": 0.7244094488188977,
    "duration": 0.34940874999999494
  },
  {
    "name": "F4",
    "midi": 65,
    "time": 77.24394000000001,
    "velocity": 0.7244094488188977,
    "duration": 0.11318875000000617
  },
  {
    "name": "A#4",
    "midi": 70,
    "time": 77.48016000000001,
    "velocity": 0.7244094488188977,
    "duration": 0.34940874999999494
  },
  {
    "name": "C#5",
    "midi": 73,
    "time": 77.83449,
    "velocity": 0.7244094488188977,
    "duration": 0.34940874999999494
  },
  {
    "name": "E5",
    "midi": 76,
    "time": 78.18881999999999,
    "velocity": 0.7244094488188977,
    "duration": 0.11318875000000617
  },
  {
    "name": "D5",
    "midi": 74,
    "time": 78.42504,
    "velocity": 0.7244094488188977,
    "duration": 0.34940874999999494
  },
  {
    "name": "A4",
    "midi": 69,
    "time": 78.77936999999999,
    "velocity": 0.7244094488188977,
    "duration": 0.11318875000000617
  },
  {
    "name": "A#4",
    "midi": 70,
    "time": 79.36992,
    "velocity": 0.7244094488188977,
    "duration": 0.34940874999999494
  },
  {
    "name": "C#5",
    "midi": 73,
    "time": 79.72424999999998,
    "velocity": 0.7244094488188977,
    "duration": 0.34940874999999494
  },
  {
    "name": "E5",
    "midi": 76,
    "time": 80.07857999999997,
    "velocity": 0.7244094488188977,
    "duration": 0.11318875000000617
  },
  {
    "name": "D5",
    "midi": 74,
    "time": 80.31479999999998,
    "velocity": 0.7244094488188977,
    "duration": 0.34940874999999494
  },
  {
    "name": "A4",
    "midi": 69,
    "time": 80.66912999999997,
    "velocity": 0.7244094488188977,
    "duration": 0.34940874999999494
  },
  {
    "name": "F4",
    "midi": 65,
    "time": 81.02345999999996,
    "velocity": 0.7244094488188977,
    "duration": 0.11318875000000617
  },
  {
    "name": "A#4",
    "midi": 70,
    "time": 81.25967999999996,
    "velocity": 0.7244094488188977,
    "duration": 0.34940874999999494
  },
  {
    "name": "C#5",
    "midi": 73,
    "time": 81.61400999999995,
    "velocity": 0.7244094488188977,
    "duration": 0.34940874999999494
  },
  {
    "name": "E5",
    "midi": 76,
    "time": 81.96833999999994,
    "velocity": 0.7244094488188977,
    "duration": 0.11318875000000617
  },
  {
    "name": "C#5",
    "midi": 73,
    "time": 82.20455999999994,
    "velocity": 0.7244094488188977,
    "duration": 0.34940874999999494
  },
  {
    "name": "E5",
    "midi": 76,
    "time": 82.55888999999993,
    "velocity": 0.7244094488188977,
    "duration": 0.34940874999999494
  },
  {
    "name": "G5",
    "midi": 79,
    "time": 82.91321999999992,
    "velocity": 0.7244094488188977,
    "duration": 0.11318875000000617
  },
  {
    "name": "A5",
    "midi": 81,
    "time": 83.14943999999993,
    "velocity": 0.7244094488188977,
    "duration": 0.11318875000000617
  },
  {
    "name": "A5",
    "midi": 81,
    "time": 83.26754999999993,
    "velocity": 0.7244094488188977,
    "duration": 0.11318875000000617
  },
  {
    "name": "A4",
    "midi": 69,
    "time": 83.38565999999993,
    "velocity": 0.7244094488188977,
    "duration": 0.11318875000000617
  },
  {
    "name": "A4",
    "midi": 69,
    "time": 83.50376999999993,
    "velocity": 0.7244094488188977,
    "duration": 1.4173200000000037
  },
  {
    "name": "F3",
    "midi": 53,
    "time": 85.03919999999994,
    "velocity": 0.7244094488188977,
    "duration": 0.11318875000000617
  },
  {
    "name": "F3",
    "midi": 53,
    "time": 85.27541999999994,
    "velocity": 0.7244094488188977,
    "duration": 0.11318875000000617
  },
  {
    "name": "A#3",
    "midi": 58,
    "time": 85.51163999999994,
    "velocity": 0.7244094488188977,
    "duration": 0.11318875000000617
  },
  {
    "name": "D4",
    "midi": 62,
    "time": 85.62974999999994,
    "velocity": 0.7244094488188977,
    "duration": 0.34940874999999494
  },
  {
    "name": "G3",
    "midi": 55,
    "time": 85.98407999999993,
    "velocity": 0.7244094488188977,
    "duration": 0.11318875000000617
  },
  {
    "name": "G3",
    "midi": 55,
    "time": 86.22029999999994,
    "velocity": 0.7244094488188977,
    "duration": 0.11318875000000617
  },
  {
    "name": "C4",
    "midi": 60,
    "time": 86.45651999999994,
    "velocity": 0.7244094488188977,
    "duration": 0.11318875000000617
  },
  {
    "name": "E4",
    "midi": 64,
    "time": 86.57462999999994,
    "velocity": 0.7244094488188977,
    "duration": 0.34940874999999494
  },
  {
    "name": "A5",
    "midi": 81,
    "time": 86.92895999999993,
    "velocity": 0.7244094488188977,
    "duration": 0.11318875000000617
  },
  {
    "name": "A5",
    "midi": 81,
    "time": 87.04706999999993,
    "velocity": 0.7244094488188977,
    "duration": 0.11318875000000617
  },
  {
    "name": "A4",
    "midi": 69,
    "time": 87.16517999999994,
    "velocity": 0.7244094488188977,
    "duration": 0.11318875000000617
  },
  {
    "name": "A4",
    "midi": 69,
    "time": 87.28328999999994,
    "velocity": 0.7244094488188977,
    "duration": 1.4173200000000037
  },
  {
    "name": "F3",
    "midi": 53,
    "time": 88.81871999999994,
    "velocity": 0.7244094488188977,
    "duration": 0.11318875000000617
  },
  {
    "name": "F3",
    "midi": 53,
    "time": 89.05493999999995,
    "velocity": 0.7244094488188977,
    "duration": 0.11318875000000617
  },
  {
    "name": "A#3",
    "midi": 58,
    "time": 89.29115999999995,
    "velocity": 0.7244094488188977,
    "duration": 0.11318875000000617
  },
  {
    "name": "D4",
    "midi": 62,
    "time": 89.40926999999995,
    "velocity": 0.7244094488188977,
    "duration": 0.34940874999999494
  },
  {
    "name": "G3",
    "midi": 55,
    "time": 89.76359999999994,
    "velocity": 0.7244094488188977,
    "duration": 0.11318875000000617
  }
];