export let bass1 =  [
  {
    "name": "D2",
    "midi": 38,
    "time": 0,
    "velocity": 0.7244094488188977,
    "duration": 0.11318874999999999
  },
  {
    "name": "D2",
    "midi": 38,
    "time": 0.23621999999999999,
    "velocity": 0.7244094488188977,
    "duration": 0.11318875
  },
  {
    "name": "D2",
    "midi": 38,
    "time": 0.35433,
    "velocity": 0.7244094488188977,
    "duration": 0.11318875
  },
  {
    "name": "D2",
    "midi": 38,
    "time": 0.47243999999999997,
    "velocity": 0.7244094488188977,
    "duration": 0.11318874999999995
  },
  {
    "name": "D2",
    "midi": 38,
    "time": 0.8267699999999999,
    "velocity": 0.7244094488188977,
    "duration": 0.11318874999999995
  },
  {
    "name": "D2",
    "midi": 38,
    "time": 0.9448799999999998,
    "velocity": 0.7244094488188977,
    "duration": 0.11318875000000006
  },
  {
    "name": "D2",
    "midi": 38,
    "time": 1.1810999999999998,
    "velocity": 0.7244094488188977,
    "duration": 0.11318874999999995
  },
  {
    "name": "D2",
    "midi": 38,
    "time": 1.2992099999999998,
    "velocity": 0.7244094488188977,
    "duration": 0.11318874999999995
  },
  {
    "name": "D2",
    "midi": 38,
    "time": 1.4173199999999997,
    "velocity": 0.7244094488188977,
    "duration": 0.11318874999999995
  },
  {
    "name": "D2",
    "midi": 38,
    "time": 1.5354299999999996,
    "velocity": 0.7244094488188977,
    "duration": 0.11318874999999995
  },
  {
    "name": "D2",
    "midi": 38,
    "time": 1.6535399999999996,
    "velocity": 0.7244094488188977,
    "duration": 0.11318874999999995
  },
  {
    "name": "D2",
    "midi": 38,
    "time": 1.7716499999999995,
    "velocity": 0.7244094488188977,
    "duration": 0.11318874999999995
  },
  {
    "name": "A#1",
    "midi": 34,
    "time": 1.8897599999999994,
    "velocity": 0.7244094488188977,
    "duration": 0.11318874999999995
  },
  {
    "name": "A#1",
    "midi": 34,
    "time": 2.1259799999999993,
    "velocity": 0.7244094488188977,
    "duration": 0.11318874999999995
  },
  {
    "name": "A#1",
    "midi": 34,
    "time": 2.2440899999999995,
    "velocity": 0.7244094488188977,
    "duration": 0.11318874999999995
  },
  {
    "name": "A#2",
    "midi": 46,
    "time": 2.3621999999999996,
    "velocity": 0.7244094488188977,
    "duration": 0.11318874999999995
  },
  {
    "name": "C2",
    "midi": 36,
    "time": 2.8346399999999994,
    "velocity": 0.7244094488188977,
    "duration": 0.11318874999999995
  },
  {
    "name": "C2",
    "midi": 36,
    "time": 2.9527499999999995,
    "velocity": 0.7244094488188977,
    "duration": 0.11318874999999995
  },
  {
    "name": "C3",
    "midi": 48,
    "time": 3.0708599999999997,
    "velocity": 0.7244094488188977,
    "duration": 0.11318874999999995
  },
  {
    "name": "C2",
    "midi": 36,
    "time": 3.18897,
    "velocity": 0.7244094488188977,
    "duration": 0.11318874999999995
  },
  {
    "name": "C2",
    "midi": 36,
    "time": 3.30708,
    "velocity": 0.7244094488188977,
    "duration": 0.11318874999999995
  },
  {
    "name": "C2",
    "midi": 36,
    "time": 3.42519,
    "velocity": 0.7244094488188977,
    "duration": 0.11318874999999995
  },
  {
    "name": "C2",
    "midi": 36,
    "time": 3.5433000000000003,
    "velocity": 0.7244094488188977,
    "duration": 0.11318874999999995
  },
  {
    "name": "C2",
    "midi": 36,
    "time": 3.6614100000000005,
    "velocity": 0.7244094488188977,
    "duration": 0.11318874999999995
  },
  {
    "name": "D2",
    "midi": 38,
    "time": 3.7795200000000007,
    "velocity": 0.7244094488188977,
    "duration": 0.11318874999999995
  },
  {
    "name": "D2",
    "midi": 38,
    "time": 4.015740000000001,
    "velocity": 0.7244094488188977,
    "duration": 0.11318874999999995
  },
  {
    "name": "D2",
    "midi": 38,
    "time": 4.133850000000001,
    "velocity": 0.7244094488188977,
    "duration": 0.11318874999999995
  },
  {
    "name": "D2",
    "midi": 38,
    "time": 4.25196,
    "velocity": 0.7244094488188977,
    "duration": 0.11318874999999995
  },
  {
    "name": "D2",
    "midi": 38,
    "time": 4.60629,
    "velocity": 0.7244094488188977,
    "duration": 0.11318874999999995
  },
  {
    "name": "D2",
    "midi": 38,
    "time": 4.7244,
    "velocity": 0.7244094488188977,
    "duration": 0.11318874999999995
  },
  {
    "name": "D2",
    "midi": 38,
    "time": 4.9606200000000005,
    "velocity": 0.7244094488188977,
    "duration": 0.11318874999999995
  },
  {
    "name": "D2",
    "midi": 38,
    "time": 5.07873,
    "velocity": 0.7244094488188977,
    "duration": 0.11318874999999995
  },
  {
    "name": "D2",
    "midi": 38,
    "time": 5.19684,
    "velocity": 0.7244094488188977,
    "duration": 0.11318874999999995
  },
  {
    "name": "D2",
    "midi": 38,
    "time": 5.31495,
    "velocity": 0.7244094488188977,
    "duration": 0.11318874999999995
  },
  {
    "name": "D2",
    "midi": 38,
    "time": 5.433059999999999,
    "velocity": 0.7244094488188977,
    "duration": 0.11318874999999995
  },
  {
    "name": "D2",
    "midi": 38,
    "time": 5.551169999999999,
    "velocity": 0.7244094488188977,
    "duration": 0.11318874999999995
  },
  {
    "name": "A#1",
    "midi": 34,
    "time": 5.669279999999999,
    "velocity": 0.7244094488188977,
    "duration": 0.11318874999999995
  },
  {
    "name": "A#1",
    "midi": 34,
    "time": 5.905499999999999,
    "velocity": 0.7244094488188977,
    "duration": 0.11318874999999995
  },
  {
    "name": "A#1",
    "midi": 34,
    "time": 6.023609999999999,
    "velocity": 0.7244094488188977,
    "duration": 0.11318874999999995
  },
  {
    "name": "A#2",
    "midi": 46,
    "time": 6.1417199999999985,
    "velocity": 0.7244094488188977,
    "duration": 0.11318874999999995
  },
  {
    "name": "C2",
    "midi": 36,
    "time": 6.614159999999998,
    "velocity": 0.7244094488188977,
    "duration": 0.11318874999999995
  },
  {
    "name": "C2",
    "midi": 36,
    "time": 6.732269999999998,
    "velocity": 0.7244094488188977,
    "duration": 0.11318874999999995
  },
  {
    "name": "C3",
    "midi": 48,
    "time": 6.850379999999998,
    "velocity": 0.7244094488188977,
    "duration": 0.11318874999999995
  },
  {
    "name": "C2",
    "midi": 36,
    "time": 6.968489999999997,
    "velocity": 0.7244094488188977,
    "duration": 0.11318874999999995
  },
  {
    "name": "C2",
    "midi": 36,
    "time": 7.086599999999997,
    "velocity": 0.7244094488188977,
    "duration": 0.11318874999999995
  },
  {
    "name": "C2",
    "midi": 36,
    "time": 7.204709999999997,
    "velocity": 0.7244094488188977,
    "duration": 0.11318874999999995
  },
  {
    "name": "C2",
    "midi": 36,
    "time": 7.3228199999999966,
    "velocity": 0.7244094488188977,
    "duration": 0.11318874999999995
  },
  {
    "name": "C2",
    "midi": 36,
    "time": 7.440929999999996,
    "velocity": 0.7244094488188977,
    "duration": 0.11318874999999995
  },
  {
    "name": "D2",
    "midi": 38,
    "time": 7.559039999999996,
    "velocity": 0.7244094488188977,
    "duration": 0.11318874999999995
  },
  {
    "name": "D2",
    "midi": 38,
    "time": 7.795259999999996,
    "velocity": 0.7244094488188977,
    "duration": 0.11318874999999995
  },
  {
    "name": "D2",
    "midi": 38,
    "time": 7.913369999999996,
    "velocity": 0.7244094488188977,
    "duration": 0.11318874999999995
  },
  {
    "name": "D2",
    "midi": 38,
    "time": 8.031479999999997,
    "velocity": 0.7244094488188977,
    "duration": 0.11318875000000084
  },
  {
    "name": "D2",
    "midi": 38,
    "time": 8.385809999999998,
    "velocity": 0.7244094488188977,
    "duration": 0.11318875000000084
  },
  {
    "name": "D2",
    "midi": 38,
    "time": 8.503919999999999,
    "velocity": 0.7244094488188977,
    "duration": 0.11318875000000084
  },
  {
    "name": "D2",
    "midi": 38,
    "time": 8.74014,
    "velocity": 0.7244094488188977,
    "duration": 0.11318875000000084
  },
  {
    "name": "D2",
    "midi": 38,
    "time": 8.858250000000002,
    "velocity": 0.7244094488188977,
    "duration": 0.11318875000000084
  },
  {
    "name": "D2",
    "midi": 38,
    "time": 8.976360000000003,
    "velocity": 0.7244094488188977,
    "duration": 0.11318875000000084
  },
  {
    "name": "D2",
    "midi": 38,
    "time": 9.094470000000005,
    "velocity": 0.7244094488188977,
    "duration": 0.11318875000000084
  },
  {
    "name": "D2",
    "midi": 38,
    "time": 9.212580000000006,
    "velocity": 0.7244094488188977,
    "duration": 0.11318875000000084
  },
  {
    "name": "D2",
    "midi": 38,
    "time": 9.330690000000008,
    "velocity": 0.7244094488188977,
    "duration": 0.11318875000000084
  },
  {
    "name": "A#1",
    "midi": 34,
    "time": 9.44880000000001,
    "velocity": 0.7244094488188977,
    "duration": 0.11318875000000084
  },
  {
    "name": "A#1",
    "midi": 34,
    "time": 9.68502000000001,
    "velocity": 0.7244094488188977,
    "duration": 0.11318875000000084
  },
  {
    "name": "A#1",
    "midi": 34,
    "time": 9.803130000000012,
    "velocity": 0.7244094488188977,
    "duration": 0.11318875000000084
  },
  {
    "name": "A#2",
    "midi": 46,
    "time": 9.921240000000013,
    "velocity": 0.7244094488188977,
    "duration": 0.11318875000000084
  },
  {
    "name": "A#1",
    "midi": 34,
    "time": 10.039350000000015,
    "velocity": 0.7244094488188977,
    "duration": 0.11318875000000084
  },
  {
    "name": "A#1",
    "midi": 34,
    "time": 10.275570000000016,
    "velocity": 0.7244094488188977,
    "duration": 0.11318875000000084
  },
  {
    "name": "A#1",
    "midi": 34,
    "time": 10.511790000000017,
    "velocity": 0.7244094488188977,
    "duration": 0.11318875000000084
  },
  {
    "name": "A#2",
    "midi": 46,
    "time": 10.629900000000019,
    "velocity": 0.7244094488188977,
    "duration": 0.11318875000000084
  },
  {
    "name": "A#2",
    "midi": 46,
    "time": 10.86612000000002,
    "velocity": 0.7244094488188977,
    "duration": 0.11318875000000084
  },
  {
    "name": "A#2",
    "midi": 46,
    "time": 11.102340000000021,
    "velocity": 0.7244094488188977,
    "duration": 0.11318875000000084
  },
  {
    "name": "D2",
    "midi": 38,
    "time": 11.338560000000022,
    "velocity": 0.7244094488188977,
    "duration": 0.11318875000000084
  },
  {
    "name": "D2",
    "midi": 38,
    "time": 11.574780000000024,
    "velocity": 0.7244094488188977,
    "duration": 0.11318875000000084
  },
  {
    "name": "D2",
    "midi": 38,
    "time": 11.692890000000025,
    "velocity": 0.7244094488188977,
    "duration": 0.11318875000000084
  },
  {
    "name": "D2",
    "midi": 38,
    "time": 11.811000000000027,
    "velocity": 0.7244094488188977,
    "duration": 0.11318875000000084
  },
  {
    "name": "D2",
    "midi": 38,
    "time": 12.165330000000028,
    "velocity": 0.7244094488188977,
    "duration": 0.11318875000000084
  },
  {
    "name": "D2",
    "midi": 38,
    "time": 12.283440000000029,
    "velocity": 0.7244094488188977,
    "duration": 0.11318875000000084
  },
  {
    "name": "D2",
    "midi": 38,
    "time": 12.51966000000003,
    "velocity": 0.7244094488188977,
    "duration": 0.11318875000000084
  },
  {
    "name": "D2",
    "midi": 38,
    "time": 12.637770000000032,
    "velocity": 0.7244094488188977,
    "duration": 0.11318875000000084
  },
  {
    "name": "D2",
    "midi": 38,
    "time": 12.755880000000033,
    "velocity": 0.7244094488188977,
    "duration": 0.11318875000000084
  },
  {
    "name": "D2",
    "midi": 38,
    "time": 12.873990000000035,
    "velocity": 0.7244094488188977,
    "duration": 0.11318875000000084
  },
  {
    "name": "D2",
    "midi": 38,
    "time": 12.992100000000036,
    "velocity": 0.7244094488188977,
    "duration": 0.11318875000000084
  },
  {
    "name": "D2",
    "midi": 38,
    "time": 13.110210000000038,
    "velocity": 0.7244094488188977,
    "duration": 0.11318875000000084
  },
  {
    "name": "A#1",
    "midi": 34,
    "time": 13.22832000000004,
    "velocity": 0.7244094488188977,
    "duration": 0.11318875000000084
  },
  {
    "name": "A#1",
    "midi": 34,
    "time": 13.46454000000004,
    "velocity": 0.7244094488188977,
    "duration": 0.11318875000000084
  },
  {
    "name": "A#1",
    "midi": 34,
    "time": 13.582650000000042,
    "velocity": 0.7244094488188977,
    "duration": 0.11318875000000084
  },
  {
    "name": "A#2",
    "midi": 46,
    "time": 13.700760000000043,
    "velocity": 0.7244094488188977,
    "duration": 0.11318875000000084
  },
  {
    "name": "A#1",
    "midi": 34,
    "time": 13.818870000000045,
    "velocity": 0.7244094488188977,
    "duration": 0.11318875000000084
  },
  {
    "name": "A#1",
    "midi": 34,
    "time": 14.055090000000046,
    "velocity": 0.7244094488188977,
    "duration": 0.11318875000000084
  },
  {
    "name": "A#1",
    "midi": 34,
    "time": 14.291310000000047,
    "velocity": 0.7244094488188977,
    "duration": 0.11318875000000084
  },
  {
    "name": "A#2",
    "midi": 46,
    "time": 14.409420000000049,
    "velocity": 0.7244094488188977,
    "duration": 0.11318875000000084
  },
  {
    "name": "A#2",
    "midi": 46,
    "time": 14.64564000000005,
    "velocity": 0.7244094488188977,
    "duration": 0.11318875000000084
  },
  {
    "name": "A#2",
    "midi": 46,
    "time": 14.881860000000051,
    "velocity": 0.7244094488188977,
    "duration": 0.11318875000000084
  },
  {
    "name": "C#2",
    "midi": 37,
    "time": 15.118080000000052,
    "velocity": 0.7244094488188977,
    "duration": 0.8267699999999998
  },
  {
    "name": "D2",
    "midi": 38,
    "time": 16.062960000000054,
    "velocity": 0.7244094488188977,
    "duration": 0.8267699999999998
  },
  {
    "name": "E2",
    "midi": 40,
    "time": 17.007840000000055,
    "velocity": 0.7244094488188977,
    "duration": 0.8267699999999998
  },
  {
    "name": "D2",
    "midi": 38,
    "time": 17.952720000000056,
    "velocity": 0.7244094488188977,
    "duration": 0.8267699999999998
  },
  {
    "name": "C#2",
    "midi": 37,
    "time": 18.897600000000057,
    "velocity": 0.7244094488188977,
    "duration": 0.8267699999999998
  },
  {
    "name": "D2",
    "midi": 38,
    "time": 19.84248000000006,
    "velocity": 0.7244094488188977,
    "duration": 0.8267699999999998
  },
  {
    "name": "E2",
    "midi": 40,
    "time": 20.78736000000006,
    "velocity": 0.7244094488188977,
    "duration": 0.8267699999999998
  },
  {
    "name": "A2",
    "midi": 45,
    "time": 21.73224000000006,
    "velocity": 0.7244094488188977,
    "duration": 0.8267699999999998
  },
  {
    "name": "D2",
    "midi": 38,
    "time": 22.677120000000063,
    "velocity": 0.7244094488188977,
    "duration": 0.11318874999999906
  },
  {
    "name": "D2",
    "midi": 38,
    "time": 22.913340000000062,
    "velocity": 0.7244094488188977,
    "duration": 0.11318874999999906
  },
  {
    "name": "D2",
    "midi": 38,
    "time": 23.26767000000006,
    "velocity": 0.7244094488188977,
    "duration": 0.11318874999999906
  },
  {
    "name": "C2",
    "midi": 36,
    "time": 23.385780000000057,
    "velocity": 0.7244094488188977,
    "duration": 0.23129875000000055
  },
  {
    "name": "D2",
    "midi": 38,
    "time": 23.622000000000057,
    "velocity": 0.7244094488188977,
    "duration": 0.11318874999999906
  },
  {
    "name": "A#1",
    "midi": 34,
    "time": 24.566880000000054,
    "velocity": 0.7244094488188977,
    "duration": 0.11318874999999906
  },
  {
    "name": "A#1",
    "midi": 34,
    "time": 24.803100000000054,
    "velocity": 0.7244094488188977,
    "duration": 0.11318874999999906
  },
  {
    "name": "C2",
    "midi": 36,
    "time": 25.511760000000052,
    "velocity": 0.7244094488188977,
    "duration": 0.11318874999999906
  },
  {
    "name": "C2",
    "midi": 36,
    "time": 25.74798000000005,
    "velocity": 0.7244094488188977,
    "duration": 0.11318874999999906
  },
  {
    "name": "D2",
    "midi": 38,
    "time": 26.45664000000005,
    "velocity": 0.7244094488188977,
    "duration": 0.11318874999999906
  },
  {
    "name": "D2",
    "midi": 38,
    "time": 26.69286000000005,
    "velocity": 0.7244094488188977,
    "duration": 0.11318874999999906
  },
  {
    "name": "D2",
    "midi": 38,
    "time": 27.047190000000047,
    "velocity": 0.7244094488188977,
    "duration": 0.11318874999999906
  },
  {
    "name": "C2",
    "midi": 36,
    "time": 27.165300000000045,
    "velocity": 0.7244094488188977,
    "duration": 0.23129875000000055
  },
  {
    "name": "D2",
    "midi": 38,
    "time": 27.401520000000044,
    "velocity": 0.7244094488188977,
    "duration": 0.11318874999999906
  },
  {
    "name": "A#1",
    "midi": 34,
    "time": 28.346400000000042,
    "velocity": 0.7244094488188977,
    "duration": 0.11318874999999906
  },
  {
    "name": "A#1",
    "midi": 34,
    "time": 28.58262000000004,
    "velocity": 0.7244094488188977,
    "duration": 0.11318874999999906
  },
  {
    "name": "C2",
    "midi": 36,
    "time": 29.29128000000004,
    "velocity": 0.7244094488188977,
    "duration": 0.11318874999999906
  },
  {
    "name": "C2",
    "midi": 36,
    "time": 29.52750000000004,
    "velocity": 0.7244094488188977,
    "duration": 0.11318874999999906
  },
  {
    "name": "A1",
    "midi": 33,
    "time": 29.76372000000004,
    "velocity": 0.7244094488188977,
    "duration": 0.11318874999999906
  },
  {
    "name": "C2",
    "midi": 36,
    "time": 29.881830000000036,
    "velocity": 0.7244094488188977,
    "duration": 0.3494087499999985
  },
  {
    "name": "D2",
    "midi": 38,
    "time": 30.236160000000034,
    "velocity": 0.7244094488188977,
    "duration": 0.11318874999999906
  },
  {
    "name": "D2",
    "midi": 38,
    "time": 30.472380000000033,
    "velocity": 0.7244094488188977,
    "duration": 0.11318874999999906
  },
  {
    "name": "D2",
    "midi": 38,
    "time": 30.59049000000003,
    "velocity": 0.7244094488188977,
    "duration": 0.11318874999999906
  },
  {
    "name": "D2",
    "midi": 38,
    "time": 30.70860000000003,
    "velocity": 0.7244094488188977,
    "duration": 0.11318874999999906
  },
  {
    "name": "D2",
    "midi": 38,
    "time": 31.062930000000026,
    "velocity": 0.7244094488188977,
    "duration": 0.11318874999999906
  },
  {
    "name": "D2",
    "midi": 38,
    "time": 31.181040000000024,
    "velocity": 0.7244094488188977,
    "duration": 0.11318874999999906
  },
  {
    "name": "D2",
    "midi": 38,
    "time": 31.417260000000024,
    "velocity": 0.7244094488188977,
    "duration": 0.11318874999999906
  },
  {
    "name": "D2",
    "midi": 38,
    "time": 31.53537000000002,
    "velocity": 0.7244094488188977,
    "duration": 0.11318874999999906
  },
  {
    "name": "D2",
    "midi": 38,
    "time": 31.65348000000002,
    "velocity": 0.7244094488188977,
    "duration": 0.11318874999999906
  },
  {
    "name": "D2",
    "midi": 38,
    "time": 31.771590000000018,
    "velocity": 0.7244094488188977,
    "duration": 0.11318874999999906
  },
  {
    "name": "D2",
    "midi": 38,
    "time": 31.889700000000015,
    "velocity": 0.7244094488188977,
    "duration": 0.11318875000000261
  },
  {
    "name": "D2",
    "midi": 38,
    "time": 32.00781000000002,
    "velocity": 0.7244094488188977,
    "duration": 0.11318874999999906
  },
  {
    "name": "A#1",
    "midi": 34,
    "time": 32.12592000000002,
    "velocity": 0.7244094488188977,
    "duration": 0.11318874999999906
  },
  {
    "name": "A#1",
    "midi": 34,
    "time": 32.36214000000002,
    "velocity": 0.7244094488188977,
    "duration": 0.11318874999999906
  },
  {
    "name": "A#1",
    "midi": 34,
    "time": 32.48025000000002,
    "velocity": 0.7244094488188977,
    "duration": 0.11318874999999906
  },
  {
    "name": "A#2",
    "midi": 46,
    "time": 32.59836000000002,
    "velocity": 0.7244094488188977,
    "duration": 0.11318874999999906
  },
  {
    "name": "C2",
    "midi": 36,
    "time": 33.07080000000002,
    "velocity": 0.7244094488188977,
    "duration": 0.11318874999999906
  },
  {
    "name": "C2",
    "midi": 36,
    "time": 33.18891000000002,
    "velocity": 0.7244094488188977,
    "duration": 0.11318874999999906
  },
  {
    "name": "C3",
    "midi": 48,
    "time": 33.30702000000002,
    "velocity": 0.7244094488188977,
    "duration": 0.11318874999999906
  },
  {
    "name": "C2",
    "midi": 36,
    "time": 33.425130000000024,
    "velocity": 0.7244094488188977,
    "duration": 0.11318874999999906
  },
  {
    "name": "C2",
    "midi": 36,
    "time": 33.543240000000026,
    "velocity": 0.7244094488188977,
    "duration": 0.11318874999999906
  },
  {
    "name": "C2",
    "midi": 36,
    "time": 33.66135000000003,
    "velocity": 0.7244094488188977,
    "duration": 0.11318874999999906
  },
  {
    "name": "C2",
    "midi": 36,
    "time": 33.77946000000003,
    "velocity": 0.7244094488188977,
    "duration": 0.11318874999999906
  },
  {
    "name": "C2",
    "midi": 36,
    "time": 33.89757000000003,
    "velocity": 0.7244094488188977,
    "duration": 0.11318874999999906
  },
  {
    "name": "D2",
    "midi": 38,
    "time": 34.01568000000003,
    "velocity": 0.7244094488188977,
    "duration": 0.11318874999999906
  },
  {
    "name": "D2",
    "midi": 38,
    "time": 34.25190000000003,
    "velocity": 0.7244094488188977,
    "duration": 0.11318874999999906
  },
  {
    "name": "D2",
    "midi": 38,
    "time": 34.37001000000003,
    "velocity": 0.7244094488188977,
    "duration": 0.11318874999999906
  },
  {
    "name": "D2",
    "midi": 38,
    "time": 34.48812000000003,
    "velocity": 0.7244094488188977,
    "duration": 0.11318874999999906
  },
  {
    "name": "D2",
    "midi": 38,
    "time": 34.84245000000003,
    "velocity": 0.7244094488188977,
    "duration": 0.11318874999999906
  },
  {
    "name": "D2",
    "midi": 38,
    "time": 34.96056000000003,
    "velocity": 0.7244094488188977,
    "duration": 0.11318874999999906
  },
  {
    "name": "D2",
    "midi": 38,
    "time": 35.196780000000025,
    "velocity": 0.7244094488188977,
    "duration": 0.11318874999999906
  },
  {
    "name": "D2",
    "midi": 38,
    "time": 35.31489000000003,
    "velocity": 0.7244094488188977,
    "duration": 0.11318874999999906
  },
  {
    "name": "D2",
    "midi": 38,
    "time": 35.43300000000003,
    "velocity": 0.7244094488188977,
    "duration": 0.11318874999999906
  },
  {
    "name": "D2",
    "midi": 38,
    "time": 35.55111000000003,
    "velocity": 0.7244094488188977,
    "duration": 0.11318874999999906
  },
  {
    "name": "D2",
    "midi": 38,
    "time": 35.66922000000003,
    "velocity": 0.7244094488188977,
    "duration": 0.11318874999999906
  },
  {
    "name": "D2",
    "midi": 38,
    "time": 35.78733000000003,
    "velocity": 0.7244094488188977,
    "duration": 0.11318874999999906
  },
  {
    "name": "A#1",
    "midi": 34,
    "time": 35.905440000000034,
    "velocity": 0.7244094488188977,
    "duration": 0.11318874999999906
  },
  {
    "name": "A#1",
    "midi": 34,
    "time": 36.14166000000003,
    "velocity": 0.7244094488188977,
    "duration": 0.11318874999999906
  },
  {
    "name": "A#1",
    "midi": 34,
    "time": 36.25977000000003,
    "velocity": 0.7244094488188977,
    "duration": 0.11318874999999906
  },
  {
    "name": "A#2",
    "midi": 46,
    "time": 36.37788000000003,
    "velocity": 0.7244094488188977,
    "duration": 0.11318874999999906
  },
  {
    "name": "C2",
    "midi": 36,
    "time": 36.85032000000003,
    "velocity": 0.7244094488188977,
    "duration": 0.11318874999999906
  },
  {
    "name": "C2",
    "midi": 36,
    "time": 36.96843000000003,
    "velocity": 0.7244094488188977,
    "duration": 0.11318874999999906
  },
  {
    "name": "C3",
    "midi": 48,
    "time": 37.086540000000035,
    "velocity": 0.7244094488188977,
    "duration": 0.11318874999999906
  },
  {
    "name": "C2",
    "midi": 36,
    "time": 37.204650000000036,
    "velocity": 0.7244094488188977,
    "duration": 0.11318874999999906
  },
  {
    "name": "C2",
    "midi": 36,
    "time": 37.32276000000004,
    "velocity": 0.7244094488188977,
    "duration": 0.11318874999999906
  },
  {
    "name": "C2",
    "midi": 36,
    "time": 37.44087000000004,
    "velocity": 0.7244094488188977,
    "duration": 0.11318874999999906
  },
  {
    "name": "C2",
    "midi": 36,
    "time": 37.55898000000004,
    "velocity": 0.7244094488188977,
    "duration": 0.11318874999999906
  },
  {
    "name": "C2",
    "midi": 36,
    "time": 37.67709000000004,
    "velocity": 0.7244094488188977,
    "duration": 0.11318874999999906
  },
  {
    "name": "D2",
    "midi": 38,
    "time": 37.795200000000044,
    "velocity": 0.7244094488188977,
    "duration": 0.11318874999999906
  },
  {
    "name": "D2",
    "midi": 38,
    "time": 38.03142000000004,
    "velocity": 0.7244094488188977,
    "duration": 0.11318874999999906
  },
  {
    "name": "D2",
    "midi": 38,
    "time": 38.14953000000004,
    "velocity": 0.7244094488188977,
    "duration": 0.11318874999999906
  },
  {
    "name": "D2",
    "midi": 38,
    "time": 38.26764000000004,
    "velocity": 0.7244094488188977,
    "duration": 0.11318874999999906
  },
  {
    "name": "D2",
    "midi": 38,
    "time": 38.62197000000004,
    "velocity": 0.7244094488188977,
    "duration": 0.11318874999999906
  },
  {
    "name": "D2",
    "midi": 38,
    "time": 38.74008000000004,
    "velocity": 0.7244094488188977,
    "duration": 0.11318874999999906
  },
  {
    "name": "D2",
    "midi": 38,
    "time": 38.97630000000004,
    "velocity": 0.7244094488188977,
    "duration": 0.11318874999999906
  },
  {
    "name": "D2",
    "midi": 38,
    "time": 39.09441000000004,
    "velocity": 0.7244094488188977,
    "duration": 0.11318874999999906
  },
  {
    "name": "D2",
    "midi": 38,
    "time": 39.21252000000004,
    "velocity": 0.7244094488188977,
    "duration": 0.11318874999999906
  },
  {
    "name": "D2",
    "midi": 38,
    "time": 39.33063000000004,
    "velocity": 0.7244094488188977,
    "duration": 0.11318874999999906
  },
  {
    "name": "D2",
    "midi": 38,
    "time": 39.44874000000004,
    "velocity": 0.7244094488188977,
    "duration": 0.11318874999999906
  },
  {
    "name": "D2",
    "midi": 38,
    "time": 39.566850000000045,
    "velocity": 0.7244094488188977,
    "duration": 0.11318874999999906
  },
  {
    "name": "A#1",
    "midi": 34,
    "time": 39.684960000000046,
    "velocity": 0.7244094488188977,
    "duration": 0.11318874999999906
  },
  {
    "name": "A#1",
    "midi": 34,
    "time": 39.92118000000004,
    "velocity": 0.7244094488188977,
    "duration": 0.11318874999999906
  },
  {
    "name": "A#1",
    "midi": 34,
    "time": 40.039290000000044,
    "velocity": 0.7244094488188977,
    "duration": 0.11318874999999906
  },
  {
    "name": "A#2",
    "midi": 46,
    "time": 40.157400000000045,
    "velocity": 0.7244094488188977,
    "duration": 0.11318874999999906
  },
  {
    "name": "A#1",
    "midi": 34,
    "time": 40.27551000000005,
    "velocity": 0.7244094488188977,
    "duration": 0.11318874999999906
  },
  {
    "name": "A#1",
    "midi": 34,
    "time": 40.51173000000004,
    "velocity": 0.7244094488188977,
    "duration": 0.11318874999999906
  },
  {
    "name": "A#1",
    "midi": 34,
    "time": 40.74795000000004,
    "velocity": 0.7244094488188977,
    "duration": 0.11318874999999906
  },
  {
    "name": "A#2",
    "midi": 46,
    "time": 40.86606000000004,
    "velocity": 0.7244094488188977,
    "duration": 0.11318874999999906
  },
  {
    "name": "A#2",
    "midi": 46,
    "time": 41.102280000000036,
    "velocity": 0.7244094488188977,
    "duration": 0.11318874999999906
  },
  {
    "name": "A#2",
    "midi": 46,
    "time": 41.33850000000003,
    "velocity": 0.7244094488188977,
    "duration": 0.11318874999999906
  },
  {
    "name": "D2",
    "midi": 38,
    "time": 41.57472000000003,
    "velocity": 0.7244094488188977,
    "duration": 0.11318874999999906
  },
  {
    "name": "D2",
    "midi": 38,
    "time": 41.81094000000002,
    "velocity": 0.7244094488188977,
    "duration": 0.11318874999999906
  },
  {
    "name": "D2",
    "midi": 38,
    "time": 41.929050000000025,
    "velocity": 0.7244094488188977,
    "duration": 0.11318874999999906
  },
  {
    "name": "D2",
    "midi": 38,
    "time": 42.04716000000003,
    "velocity": 0.7244094488188977,
    "duration": 0.11318874999999906
  },
  {
    "name": "D2",
    "midi": 38,
    "time": 42.401490000000024,
    "velocity": 0.7244094488188977,
    "duration": 0.11318874999999906
  },
  {
    "name": "D2",
    "midi": 38,
    "time": 42.519600000000025,
    "velocity": 0.7244094488188977,
    "duration": 0.11318874999999906
  },
  {
    "name": "D2",
    "midi": 38,
    "time": 42.75582000000002,
    "velocity": 0.7244094488188977,
    "duration": 0.11318874999999906
  },
  {
    "name": "D2",
    "midi": 38,
    "time": 42.87393000000002,
    "velocity": 0.7244094488188977,
    "duration": 0.11318874999999906
  },
  {
    "name": "D2",
    "midi": 38,
    "time": 42.992040000000024,
    "velocity": 0.7244094488188977,
    "duration": 0.11318874999999906
  },
  {
    "name": "D2",
    "midi": 38,
    "time": 43.110150000000026,
    "velocity": 0.7244094488188977,
    "duration": 0.11318874999999906
  },
  {
    "name": "D2",
    "midi": 38,
    "time": 43.22826000000003,
    "velocity": 0.7244094488188977,
    "duration": 0.11318874999999906
  },
  {
    "name": "D2",
    "midi": 38,
    "time": 43.34637000000003,
    "velocity": 0.7244094488188977,
    "duration": 0.11318874999999906
  },
  {
    "name": "A#1",
    "midi": 34,
    "time": 43.46448000000003,
    "velocity": 0.7244094488188977,
    "duration": 0.11318874999999906
  },
  {
    "name": "A#1",
    "midi": 34,
    "time": 43.700700000000026,
    "velocity": 0.7244094488188977,
    "duration": 0.11318874999999906
  },
  {
    "name": "A#1",
    "midi": 34,
    "time": 43.81881000000003,
    "velocity": 0.7244094488188977,
    "duration": 0.11318874999999906
  },
  {
    "name": "A#2",
    "midi": 46,
    "time": 43.93692000000003,
    "velocity": 0.7244094488188977,
    "duration": 0.11318874999999906
  },
  {
    "name": "A#1",
    "midi": 34,
    "time": 44.05503000000003,
    "velocity": 0.7244094488188977,
    "duration": 0.11318874999999906
  },
  {
    "name": "A#1",
    "midi": 34,
    "time": 44.291250000000026,
    "velocity": 0.7244094488188977,
    "duration": 0.11318874999999906
  },
  {
    "name": "A#1",
    "midi": 34,
    "time": 44.52747000000002,
    "velocity": 0.7244094488188977,
    "duration": 0.11318874999999906
  },
  {
    "name": "A#2",
    "midi": 46,
    "time": 44.645580000000024,
    "velocity": 0.7244094488188977,
    "duration": 0.11318874999999906
  },
  {
    "name": "A#2",
    "midi": 46,
    "time": 44.88180000000002,
    "velocity": 0.7244094488188977,
    "duration": 0.11318874999999906
  },
  {
    "name": "A#2",
    "midi": 46,
    "time": 45.118020000000016,
    "velocity": 0.7244094488188977,
    "duration": 0.11318874999999906
  },
  {
    "name": "C#2",
    "midi": 37,
    "time": 45.35424000000001,
    "velocity": 0.7244094488188977,
    "duration": 0.8267700000000033
  },
  {
    "name": "D2",
    "midi": 38,
    "time": 46.299120000000016,
    "velocity": 0.7244094488188977,
    "duration": 0.8267700000000033
  },
  {
    "name": "E2",
    "midi": 40,
    "time": 47.24400000000002,
    "velocity": 0.7244094488188977,
    "duration": 0.8267700000000033
  },
  {
    "name": "D2",
    "midi": 38,
    "time": 48.188880000000026,
    "velocity": 0.7244094488188977,
    "duration": 0.8267700000000033
  },
  {
    "name": "C#2",
    "midi": 37,
    "time": 49.13376000000003,
    "velocity": 0.7244094488188977,
    "duration": 0.8267700000000033
  },
  {
    "name": "D2",
    "midi": 38,
    "time": 50.078640000000036,
    "velocity": 0.7244094488188977,
    "duration": 0.8267700000000033
  },
  {
    "name": "E2",
    "midi": 40,
    "time": 51.02352000000004,
    "velocity": 0.7244094488188977,
    "duration": 0.8267700000000033
  },
  {
    "name": "A2",
    "midi": 45,
    "time": 51.968400000000045,
    "velocity": 0.7244094488188977,
    "duration": 0.8267700000000033
  },
  {
    "name": "D2",
    "midi": 38,
    "time": 52.91328000000005,
    "velocity": 0.7244094488188977,
    "duration": 0.11318874999999906
  },
  {
    "name": "D2",
    "midi": 38,
    "time": 53.149500000000046,
    "velocity": 0.7244094488188977,
    "duration": 0.11318874999999906
  },
  {
    "name": "D2",
    "midi": 38,
    "time": 53.50383000000004,
    "velocity": 0.7244094488188977,
    "duration": 0.11318874999999906
  },
  {
    "name": "C2",
    "midi": 36,
    "time": 53.621940000000045,
    "velocity": 0.7244094488188977,
    "duration": 0.23129875000000055
  },
  {
    "name": "D2",
    "midi": 38,
    "time": 53.85816000000005,
    "velocity": 0.7244094488188977,
    "duration": 0.11318874999999906
  },
  {
    "name": "A#1",
    "midi": 34,
    "time": 54.803040000000045,
    "velocity": 0.7244094488188977,
    "duration": 0.11318874999999906
  },
  {
    "name": "A#1",
    "midi": 34,
    "time": 55.03926000000004,
    "velocity": 0.7244094488188977,
    "duration": 0.11318874999999906
  },
  {
    "name": "C2",
    "midi": 36,
    "time": 55.74792000000004,
    "velocity": 0.7244094488188977,
    "duration": 0.11318874999999906
  },
  {
    "name": "C2",
    "midi": 36,
    "time": 55.98414000000004,
    "velocity": 0.7244094488188977,
    "duration": 0.11318874999999906
  },
  {
    "name": "D2",
    "midi": 38,
    "time": 56.69280000000004,
    "velocity": 0.7244094488188977,
    "duration": 0.11318874999999906
  },
  {
    "name": "D2",
    "midi": 38,
    "time": 56.92902000000004,
    "velocity": 0.7244094488188977,
    "duration": 0.11318874999999906
  },
  {
    "name": "D2",
    "midi": 38,
    "time": 57.283350000000034,
    "velocity": 0.7244094488188977,
    "duration": 0.11318874999999906
  },
  {
    "name": "C2",
    "midi": 36,
    "time": 57.401460000000036,
    "velocity": 0.7244094488188977,
    "duration": 0.23129875000000055
  },
  {
    "name": "D2",
    "midi": 38,
    "time": 57.63768000000004,
    "velocity": 0.7244094488188977,
    "duration": 0.11318874999999906
  },
  {
    "name": "A#1",
    "midi": 34,
    "time": 58.582560000000036,
    "velocity": 0.7244094488188977,
    "duration": 0.11318874999999906
  },
  {
    "name": "A#1",
    "midi": 34,
    "time": 58.81878000000003,
    "velocity": 0.7244094488188977,
    "duration": 0.11318874999999906
  },
  {
    "name": "C2",
    "midi": 36,
    "time": 59.527440000000034,
    "velocity": 0.7244094488188977,
    "duration": 0.11318874999999906
  },
  {
    "name": "C2",
    "midi": 36,
    "time": 59.76366000000003,
    "velocity": 0.7244094488188977,
    "duration": 0.11318874999999906
  },
  {
    "name": "A1",
    "midi": 33,
    "time": 59.999880000000026,
    "velocity": 0.7244094488188977,
    "duration": 0.11318874999999906
  },
  {
    "name": "C2",
    "midi": 36,
    "time": 60.11799000000003,
    "velocity": 0.7244094488188977,
    "duration": 0.34940875000000204
  },
  {
    "name": "D2",
    "midi": 38,
    "time": 60.47232000000003,
    "velocity": 0.7244094488188977,
    "duration": 0.11318874999999906
  },
  {
    "name": "D2",
    "midi": 38,
    "time": 60.70854000000003,
    "velocity": 0.7244094488188977,
    "duration": 0.11318874999999906
  },
  {
    "name": "D2",
    "midi": 38,
    "time": 60.82665000000003,
    "velocity": 0.7244094488188977,
    "duration": 0.11318874999999906
  },
  {
    "name": "D2",
    "midi": 38,
    "time": 60.94476000000003,
    "velocity": 0.7244094488188977,
    "duration": 0.11318874999999906
  },
  {
    "name": "D2",
    "midi": 38,
    "time": 61.29909000000003,
    "velocity": 0.7244094488188977,
    "duration": 0.11318874999999906
  },
  {
    "name": "D2",
    "midi": 38,
    "time": 61.41720000000003,
    "velocity": 0.7244094488188977,
    "duration": 0.11318874999999906
  },
  {
    "name": "D2",
    "midi": 38,
    "time": 61.653420000000025,
    "velocity": 0.7244094488188977,
    "duration": 0.11318874999999906
  },
  {
    "name": "D2",
    "midi": 38,
    "time": 61.77153000000003,
    "velocity": 0.7244094488188977,
    "duration": 0.11318874999999906
  },
  {
    "name": "D2",
    "midi": 38,
    "time": 61.88964000000003,
    "velocity": 0.7244094488188977,
    "duration": 0.11318874999999906
  },
  {
    "name": "D2",
    "midi": 38,
    "time": 62.00775000000003,
    "velocity": 0.7244094488188977,
    "duration": 0.11318874999999906
  },
  {
    "name": "D2",
    "midi": 38,
    "time": 62.12586000000003,
    "velocity": 0.7244094488188977,
    "duration": 0.11318874999999906
  },
  {
    "name": "D2",
    "midi": 38,
    "time": 62.24397000000003,
    "velocity": 0.7244094488188977,
    "duration": 0.11318874999999906
  },
  {
    "name": "A#1",
    "midi": 34,
    "time": 62.362080000000034,
    "velocity": 0.7244094488188977,
    "duration": 0.11318874999999906
  },
  {
    "name": "A#1",
    "midi": 34,
    "time": 62.59830000000003,
    "velocity": 0.7244094488188977,
    "duration": 0.11318874999999906
  },
  {
    "name": "A#1",
    "midi": 34,
    "time": 62.71641000000003,
    "velocity": 0.7244094488188977,
    "duration": 0.11318874999999906
  },
  {
    "name": "A#2",
    "midi": 46,
    "time": 62.83452000000003,
    "velocity": 0.7244094488188977,
    "duration": 0.11318874999999906
  },
  {
    "name": "C2",
    "midi": 36,
    "time": 63.30696000000003,
    "velocity": 0.7244094488188977,
    "duration": 0.11318874999999906
  },
  {
    "name": "C2",
    "midi": 36,
    "time": 63.425070000000034,
    "velocity": 0.7244094488188977,
    "duration": 0.11318874999999906
  },
  {
    "name": "C3",
    "midi": 48,
    "time": 63.543180000000035,
    "velocity": 0.7244094488188977,
    "duration": 0.11318874999999906
  },
  {
    "name": "C2",
    "midi": 36,
    "time": 63.66129000000004,
    "velocity": 0.7244094488188977,
    "duration": 0.11318874999999906
  },
  {
    "name": "C2",
    "midi": 36,
    "time": 63.77940000000004,
    "velocity": 0.7244094488188977,
    "duration": 0.11318874999999906
  },
  {
    "name": "C2",
    "midi": 36,
    "time": 63.89751000000004,
    "velocity": 0.7244094488188977,
    "duration": 0.11318875000000617
  },
  {
    "name": "C2",
    "midi": 36,
    "time": 64.01562000000004,
    "velocity": 0.7244094488188977,
    "duration": 0.11318875000000617
  },
  {
    "name": "C2",
    "midi": 36,
    "time": 64.13373000000004,
    "velocity": 0.7244094488188977,
    "duration": 0.11318875000000617
  },
  {
    "name": "D2",
    "midi": 38,
    "time": 64.25184000000004,
    "velocity": 0.7244094488188977,
    "duration": 0.11318875000000617
  },
  {
    "name": "D2",
    "midi": 38,
    "time": 64.48806000000005,
    "velocity": 0.7244094488188977,
    "duration": 0.11318875000000617
  },
  {
    "name": "D2",
    "midi": 38,
    "time": 64.60617000000005,
    "velocity": 0.7244094488188977,
    "duration": 0.11318875000000617
  },
  {
    "name": "D2",
    "midi": 38,
    "time": 64.72428000000005,
    "velocity": 0.7244094488188977,
    "duration": 0.11318875000000617
  },
  {
    "name": "D2",
    "midi": 38,
    "time": 65.07861000000005,
    "velocity": 0.7244094488188977,
    "duration": 0.11318875000000617
  },
  {
    "name": "D2",
    "midi": 38,
    "time": 65.19672000000006,
    "velocity": 0.7244094488188977,
    "duration": 0.11318875000000617
  },
  {
    "name": "D2",
    "midi": 38,
    "time": 65.43294000000006,
    "velocity": 0.7244094488188977,
    "duration": 0.11318875000000617
  },
  {
    "name": "D2",
    "midi": 38,
    "time": 65.55105000000006,
    "velocity": 0.7244094488188977,
    "duration": 0.11318875000000617
  },
  {
    "name": "D2",
    "midi": 38,
    "time": 65.66916000000006,
    "velocity": 0.7244094488188977,
    "duration": 0.11318875000000617
  },
  {
    "name": "D2",
    "midi": 38,
    "time": 65.78727000000006,
    "velocity": 0.7244094488188977,
    "duration": 0.11318875000000617
  },
  {
    "name": "D2",
    "midi": 38,
    "time": 65.90538000000006,
    "velocity": 0.7244094488188977,
    "duration": 0.11318875000000617
  },
  {
    "name": "D2",
    "midi": 38,
    "time": 66.02349000000007,
    "velocity": 0.7244094488188977,
    "duration": 0.11318875000000617
  },
  {
    "name": "A#1",
    "midi": 34,
    "time": 66.14160000000007,
    "velocity": 0.7244094488188977,
    "duration": 0.11318875000000617
  },
  {
    "name": "A#1",
    "midi": 34,
    "time": 66.37782000000007,
    "velocity": 0.7244094488188977,
    "duration": 0.11318875000000617
  },
  {
    "name": "A#1",
    "midi": 34,
    "time": 66.49593000000007,
    "velocity": 0.7244094488188977,
    "duration": 0.11318875000000617
  },
  {
    "name": "A#2",
    "midi": 46,
    "time": 66.61404000000007,
    "velocity": 0.7244094488188977,
    "duration": 0.11318875000000617
  },
  {
    "name": "C2",
    "midi": 36,
    "time": 67.08648000000008,
    "velocity": 0.7244094488188977,
    "duration": 0.11318875000000617
  },
  {
    "name": "C2",
    "midi": 36,
    "time": 67.20459000000008,
    "velocity": 0.7244094488188977,
    "duration": 0.11318875000000617
  },
  {
    "name": "C3",
    "midi": 48,
    "time": 67.32270000000008,
    "velocity": 0.7244094488188977,
    "duration": 0.11318875000000617
  },
  {
    "name": "C2",
    "midi": 36,
    "time": 67.44081000000008,
    "velocity": 0.7244094488188977,
    "duration": 0.11318875000000617
  },
  {
    "name": "C2",
    "midi": 36,
    "time": 67.55892000000009,
    "velocity": 0.7244094488188977,
    "duration": 0.11318875000000617
  },
  {
    "name": "C2",
    "midi": 36,
    "time": 67.67703000000009,
    "velocity": 0.7244094488188977,
    "duration": 0.11318875000000617
  },
  {
    "name": "C2",
    "midi": 36,
    "time": 67.79514000000009,
    "velocity": 0.7244094488188977,
    "duration": 0.11318875000000617
  },
  {
    "name": "C2",
    "midi": 36,
    "time": 67.91325000000009,
    "velocity": 0.7244094488188977,
    "duration": 0.11318875000000617
  },
  {
    "name": "D2",
    "midi": 38,
    "time": 68.03136000000009,
    "velocity": 0.7244094488188977,
    "duration": 0.11318875000000617
  },
  {
    "name": "D2",
    "midi": 38,
    "time": 68.2675800000001,
    "velocity": 0.7244094488188977,
    "duration": 0.11318875000000617
  },
  {
    "name": "D2",
    "midi": 38,
    "time": 68.3856900000001,
    "velocity": 0.7244094488188977,
    "duration": 0.11318875000000617
  },
  {
    "name": "D2",
    "midi": 38,
    "time": 68.5038000000001,
    "velocity": 0.7244094488188977,
    "duration": 0.11318875000000617
  },
  {
    "name": "D2",
    "midi": 38,
    "time": 68.8581300000001,
    "velocity": 0.7244094488188977,
    "duration": 0.11318875000000617
  },
  {
    "name": "D2",
    "midi": 38,
    "time": 68.9762400000001,
    "velocity": 0.7244094488188977,
    "duration": 0.11318875000000617
  },
  {
    "name": "D2",
    "midi": 38,
    "time": 69.2124600000001,
    "velocity": 0.7244094488188977,
    "duration": 0.11318875000000617
  },
  {
    "name": "D2",
    "midi": 38,
    "time": 69.33057000000011,
    "velocity": 0.7244094488188977,
    "duration": 0.11318875000000617
  },
  {
    "name": "D2",
    "midi": 38,
    "time": 69.44868000000011,
    "velocity": 0.7244094488188977,
    "duration": 0.11318875000000617
  },
  {
    "name": "D2",
    "midi": 38,
    "time": 69.56679000000011,
    "velocity": 0.7244094488188977,
    "duration": 0.11318875000000617
  },
  {
    "name": "D2",
    "midi": 38,
    "time": 69.68490000000011,
    "velocity": 0.7244094488188977,
    "duration": 0.11318875000000617
  },
  {
    "name": "D2",
    "midi": 38,
    "time": 69.80301000000011,
    "velocity": 0.7244094488188977,
    "duration": 0.11318875000000617
  },
  {
    "name": "A#1",
    "midi": 34,
    "time": 69.92112000000012,
    "velocity": 0.7244094488188977,
    "duration": 0.11318875000000617
  },
  {
    "name": "A#1",
    "midi": 34,
    "time": 70.15734000000012,
    "velocity": 0.7244094488188977,
    "duration": 0.11318875000000617
  },
  {
    "name": "A#1",
    "midi": 34,
    "time": 70.27545000000012,
    "velocity": 0.7244094488188977,
    "duration": 0.11318875000000617
  },
  {
    "name": "A#2",
    "midi": 46,
    "time": 70.39356000000012,
    "velocity": 0.7244094488188977,
    "duration": 0.11318875000000617
  },
  {
    "name": "A#1",
    "midi": 34,
    "time": 70.51167000000012,
    "velocity": 0.7244094488188977,
    "duration": 0.11318875000000617
  },
  {
    "name": "A#1",
    "midi": 34,
    "time": 70.74789000000013,
    "velocity": 0.7244094488188977,
    "duration": 0.11318875000000617
  },
  {
    "name": "A#1",
    "midi": 34,
    "time": 70.98411000000013,
    "velocity": 0.7244094488188977,
    "duration": 0.11318875000000617
  },
  {
    "name": "A#2",
    "midi": 46,
    "time": 71.10222000000013,
    "velocity": 0.7244094488188977,
    "duration": 0.11318875000000617
  },
  {
    "name": "A#2",
    "midi": 46,
    "time": 71.33844000000013,
    "velocity": 0.7244094488188977,
    "duration": 0.11318875000000617
  },
  {
    "name": "A#2",
    "midi": 46,
    "time": 71.57466000000014,
    "velocity": 0.7244094488188977,
    "duration": 0.11318875000000617
  },
  {
    "name": "D2",
    "midi": 38,
    "time": 71.81088000000014,
    "velocity": 0.7244094488188977,
    "duration": 0.11318875000000617
  },
  {
    "name": "D2",
    "midi": 38,
    "time": 72.04710000000014,
    "velocity": 0.7244094488188977,
    "duration": 0.11318875000000617
  },
  {
    "name": "D2",
    "midi": 38,
    "time": 72.16521000000014,
    "velocity": 0.7244094488188977,
    "duration": 0.11318875000000617
  },
  {
    "name": "D2",
    "midi": 38,
    "time": 72.28332000000015,
    "velocity": 0.7244094488188977,
    "duration": 0.11318875000000617
  },
  {
    "name": "D2",
    "midi": 38,
    "time": 72.63765000000015,
    "velocity": 0.7244094488188977,
    "duration": 0.11318875000000617
  },
  {
    "name": "D2",
    "midi": 38,
    "time": 72.75576000000015,
    "velocity": 0.7244094488188977,
    "duration": 0.11318875000000617
  },
  {
    "name": "D2",
    "midi": 38,
    "time": 72.99198000000015,
    "velocity": 0.7244094488188977,
    "duration": 0.11318875000000617
  },
  {
    "name": "D2",
    "midi": 38,
    "time": 73.11009000000016,
    "velocity": 0.7244094488188977,
    "duration": 0.11318875000000617
  },
  {
    "name": "D2",
    "midi": 38,
    "time": 73.22820000000016,
    "velocity": 0.7244094488188977,
    "duration": 0.11318875000000617
  },
  {
    "name": "D2",
    "midi": 38,
    "time": 73.34631000000016,
    "velocity": 0.7244094488188977,
    "duration": 0.11318875000000617
  },
  {
    "name": "D2",
    "midi": 38,
    "time": 73.46442000000016,
    "velocity": 0.7244094488188977,
    "duration": 0.11318875000000617
  },
  {
    "name": "D2",
    "midi": 38,
    "time": 73.58253000000016,
    "velocity": 0.7244094488188977,
    "duration": 0.11318875000000617
  },
  {
    "name": "A#1",
    "midi": 34,
    "time": 73.70064000000016,
    "velocity": 0.7244094488188977,
    "duration": 0.11318875000000617
  },
  {
    "name": "A#1",
    "midi": 34,
    "time": 73.93686000000017,
    "velocity": 0.7244094488188977,
    "duration": 0.11318875000000617
  },
  {
    "name": "A#1",
    "midi": 34,
    "time": 74.05497000000017,
    "velocity": 0.7244094488188977,
    "duration": 0.11318875000000617
  },
  {
    "name": "A#2",
    "midi": 46,
    "time": 74.17308000000017,
    "velocity": 0.7244094488188977,
    "duration": 0.11318875000000617
  },
  {
    "name": "A#1",
    "midi": 34,
    "time": 74.29119000000017,
    "velocity": 0.7244094488188977,
    "duration": 0.11318875000000617
  },
  {
    "name": "A#1",
    "midi": 34,
    "time": 74.52741000000017,
    "velocity": 0.7244094488188977,
    "duration": 0.11318875000000617
  },
  {
    "name": "A#1",
    "midi": 34,
    "time": 74.76363000000018,
    "velocity": 0.7244094488188977,
    "duration": 0.11318875000000617
  },
  {
    "name": "A#2",
    "midi": 46,
    "time": 74.88174000000018,
    "velocity": 0.7244094488188977,
    "duration": 0.11318875000000617
  },
  {
    "name": "A#2",
    "midi": 46,
    "time": 75.11796000000018,
    "velocity": 0.7244094488188977,
    "duration": 0.11318875000000617
  },
  {
    "name": "A#2",
    "midi": 46,
    "time": 75.35418000000018,
    "velocity": 0.7244094488188977,
    "duration": 0.11318875000000617
  },
  {
    "name": "C#2",
    "midi": 37,
    "time": 75.59040000000019,
    "velocity": 0.7244094488188977,
    "duration": 0.8267699999999962
  },
  {
    "name": "D2",
    "midi": 38,
    "time": 76.53528000000018,
    "velocity": 0.7244094488188977,
    "duration": 0.8267699999999962
  },
  {
    "name": "E2",
    "midi": 40,
    "time": 77.48016000000018,
    "velocity": 0.7244094488188977,
    "duration": 0.8267699999999962
  },
  {
    "name": "D2",
    "midi": 38,
    "time": 78.42504000000018,
    "velocity": 0.7244094488188977,
    "duration": 0.8267699999999962
  },
  {
    "name": "C#2",
    "midi": 37,
    "time": 79.36992000000018,
    "velocity": 0.7244094488188977,
    "duration": 0.8267699999999962
  },
  {
    "name": "D2",
    "midi": 38,
    "time": 80.31480000000018,
    "velocity": 0.7244094488188977,
    "duration": 0.8267699999999962
  },
  {
    "name": "E2",
    "midi": 40,
    "time": 81.25968000000017,
    "velocity": 0.7244094488188977,
    "duration": 0.8267699999999962
  },
  {
    "name": "A2",
    "midi": 45,
    "time": 82.20456000000017,
    "velocity": 0.7244094488188977,
    "duration": 0.8267699999999962
  },
  {
    "name": "D2",
    "midi": 38,
    "time": 83.14944000000017,
    "velocity": 0.7244094488188977,
    "duration": 0.11318875000000617
  },
  {
    "name": "D2",
    "midi": 38,
    "time": 83.38566000000017,
    "velocity": 0.7244094488188977,
    "duration": 0.11318875000000617
  },
  {
    "name": "D2",
    "midi": 38,
    "time": 83.73999000000018,
    "velocity": 0.7244094488188977,
    "duration": 0.11318875000000617
  },
  {
    "name": "C2",
    "midi": 36,
    "time": 83.85810000000018,
    "velocity": 0.7244094488188977,
    "duration": 0.23129874999999345
  },
  {
    "name": "D2",
    "midi": 38,
    "time": 84.09432000000017,
    "velocity": 0.7244094488188977,
    "duration": 0.11318875000000617
  },
  {
    "name": "A#1",
    "midi": 34,
    "time": 85.03920000000018,
    "velocity": 0.7244094488188977,
    "duration": 0.11318875000000617
  },
  {
    "name": "A#1",
    "midi": 34,
    "time": 85.27542000000018,
    "velocity": 0.7244094488188977,
    "duration": 0.11318875000000617
  },
  {
    "name": "C2",
    "midi": 36,
    "time": 85.98408000000019,
    "velocity": 0.7244094488188977,
    "duration": 0.11318875000000617
  },
  {
    "name": "C2",
    "midi": 36,
    "time": 86.2203000000002,
    "velocity": 0.7244094488188977,
    "duration": 0.11318875000000617
  },
  {
    "name": "D2",
    "midi": 38,
    "time": 86.9289600000002,
    "velocity": 0.7244094488188977,
    "duration": 0.11318875000000617
  },
  {
    "name": "D2",
    "midi": 38,
    "time": 87.1651800000002,
    "velocity": 0.7244094488188977,
    "duration": 0.11318875000000617
  },
  {
    "name": "D2",
    "midi": 38,
    "time": 87.51951000000021,
    "velocity": 0.7244094488188977,
    "duration": 0.11318875000000617
  },
  {
    "name": "C2",
    "midi": 36,
    "time": 87.63762000000021,
    "velocity": 0.7244094488188977,
    "duration": 0.23129874999999345
  },
  {
    "name": "D2",
    "midi": 38,
    "time": 87.8738400000002,
    "velocity": 0.7244094488188977,
    "duration": 0.11318875000000617
  },
  {
    "name": "A#1",
    "midi": 34,
    "time": 88.81872000000021,
    "velocity": 0.7244094488188977,
    "duration": 0.11318875000000617
  },
  {
    "name": "A#1",
    "midi": 34,
    "time": 89.05494000000022,
    "velocity": 0.7244094488188977,
    "duration": 0.11318875000000617
  },
  {
    "name": "C2",
    "midi": 36,
    "time": 89.76360000000022,
    "velocity": 0.7244094488188977,
    "duration": 0.11318875000000617
  },
  {
    "name": "C2",
    "midi": 36,
    "time": 89.99982000000023,
    "velocity": 0.7244094488188977,
    "duration": 0.11318875000000617
  },
  {
    "name": "A1",
    "midi": 33,
    "time": 90.23604000000023,
    "velocity": 0.7244094488188977,
    "duration": 0.11318875000000617
  },
  {
    "name": "C2",
    "midi": 36,
    "time": 90.35415000000023,
    "velocity": 0.7244094488188977,
    "duration": 0.34940874999999494
  }
];