export let synth2 = [
  {
    "name": "A4",
    "midi": 69,
    "time": 0.11810999999999999,
    "velocity": 0.3543307086614173,
    "duration": 0.11318875
  },
  {
    "name": "A4",
    "midi": 69,
    "time": 0.23621999999999999,
    "velocity": 0.3543307086614173,
    "duration": 0.11318875
  },
  {
    "name": "G4",
    "midi": 67,
    "time": 0.47243999999999997,
    "velocity": 0.3543307086614173,
    "duration": 0.11318874999999995
  },
  {
    "name": "G4",
    "midi": 67,
    "time": 0.70866,
    "velocity": 0.3543307086614173,
    "duration": 0.6299199999999999
  },
  {
    "name": "D4",
    "midi": 62,
    "time": 1.41732,
    "velocity": 0.3543307086614173,
    "duration": 0.2312987499999999
  },
  {
    "name": "D4",
    "midi": 62,
    "time": 1.6535399999999998,
    "velocity": 0.3543307086614173,
    "duration": 0.11318874999999995
  },
  {
    "name": "C4",
    "midi": 60,
    "time": 1.7716499999999997,
    "velocity": 0.3543307086614173,
    "duration": 0.11318874999999995
  },
  {
    "name": "C4",
    "midi": 60,
    "time": 1.8897599999999997,
    "velocity": 0.3543307086614173,
    "duration": 0.11318875000000017
  },
  {
    "name": "D4",
    "midi": 62,
    "time": 2.00787,
    "velocity": 0.3543307086614173,
    "duration": 0.3494087499999998
  },
  {
    "name": "A#3",
    "midi": 58,
    "time": 2.3622,
    "velocity": 0.3543307086614173,
    "duration": 0.3494087499999998
  },
  {
    "name": "D4",
    "midi": 62,
    "time": 2.71653,
    "velocity": 0.3543307086614173,
    "duration": 0.2312987500000001
  },
  {
    "name": "C4",
    "midi": 60,
    "time": 2.9527500000000004,
    "velocity": 0.3543307086614173,
    "duration": 0.11318874999999995
  },
  {
    "name": "G4",
    "midi": 67,
    "time": 3.0708600000000006,
    "velocity": 0.3543307086614173,
    "duration": 0.82184875
  },
  {
    "name": "A4",
    "midi": 69,
    "time": 3.897630000000001,
    "velocity": 0.3543307086614173,
    "duration": 0.1131887500000004
  },
  {
    "name": "A4",
    "midi": 69,
    "time": 4.015740000000001,
    "velocity": 0.3543307086614173,
    "duration": 0.11318874999999995
  },
  {
    "name": "G4",
    "midi": 67,
    "time": 4.251960000000001,
    "velocity": 0.3543307086614173,
    "duration": 0.11318874999999995
  },
  {
    "name": "G4",
    "midi": 67,
    "time": 4.488180000000002,
    "velocity": 0.3543307086614173,
    "duration": 0.6299200000000003
  },
  {
    "name": "D4",
    "midi": 62,
    "time": 5.196840000000002,
    "velocity": 0.3543307086614173,
    "duration": 0.23129874999999966
  },
  {
    "name": "D4",
    "midi": 62,
    "time": 5.433060000000001,
    "velocity": 0.3543307086614173,
    "duration": 0.11318874999999995
  },
  {
    "name": "C4",
    "midi": 60,
    "time": 5.551170000000001,
    "velocity": 0.3543307086614173,
    "duration": 0.11318874999999995
  },
  {
    "name": "C4",
    "midi": 60,
    "time": 5.6692800000000005,
    "velocity": 0.3543307086614173,
    "duration": 0.11318874999999995
  },
  {
    "name": "D4",
    "midi": 62,
    "time": 5.78739,
    "velocity": 0.3543307086614173,
    "duration": 0.34940875000000027
  },
  {
    "name": "A#3",
    "midi": 58,
    "time": 6.14172,
    "velocity": 0.3543307086614173,
    "duration": 0.34940875000000027
  },
  {
    "name": "D4",
    "midi": 62,
    "time": 6.49605,
    "velocity": 0.3543307086614173,
    "duration": 0.23129874999999966
  },
  {
    "name": "C4",
    "midi": 60,
    "time": 6.73227,
    "velocity": 0.3543307086614173,
    "duration": 0.11318874999999995
  },
  {
    "name": "G4",
    "midi": 67,
    "time": 6.8503799999999995,
    "velocity": 0.3543307086614173,
    "duration": 0.82184875
  },
  {
    "name": "A4",
    "midi": 69,
    "time": 7.91337,
    "velocity": 0.3543307086614173,
    "duration": 0.07873999999999981
  },
  {
    "name": "D5",
    "midi": 74,
    "time": 8.2677,
    "velocity": 0.3543307086614173,
    "duration": 0.07873999999999981
  },
  {
    "name": "C#5",
    "midi": 73,
    "time": 8.622029999999999,
    "velocity": 0.3543307086614173,
    "duration": 0.07873999999999981
  },
  {
    "name": "D5",
    "midi": 74,
    "time": 8.740139999999998,
    "velocity": 0.3543307086614173,
    "duration": 0.07873999999999981
  },
  {
    "name": "C#5",
    "midi": 73,
    "time": 8.858249999999998,
    "velocity": 0.3543307086614173,
    "duration": 0.07873999999999981
  },
  {
    "name": "C5",
    "midi": 72,
    "time": 8.976359999999998,
    "velocity": 0.3543307086614173,
    "duration": 0.07873999999999981
  },
  {
    "name": "A5",
    "midi": 81,
    "time": 9.566909999999998,
    "velocity": 0.3543307086614173,
    "duration": 0.07873999999999981
  },
  {
    "name": "A5",
    "midi": 81,
    "time": 9.803129999999998,
    "velocity": 0.3543307086614173,
    "duration": 0.07873999999999981
  },
  {
    "name": "G#5",
    "midi": 80,
    "time": 9.921239999999997,
    "velocity": 0.3543307086614173,
    "duration": 0.07873999999999981
  },
  {
    "name": "G#5",
    "midi": 80,
    "time": 10.157459999999997,
    "velocity": 0.3543307086614173,
    "duration": 0.07873999999999981
  },
  {
    "name": "G5",
    "midi": 79,
    "time": 10.275569999999997,
    "velocity": 0.3543307086614173,
    "duration": 0.07873999999999981
  },
  {
    "name": "A5",
    "midi": 81,
    "time": 10.511789999999996,
    "velocity": 0.3543307086614173,
    "duration": 0.07873999999999981
  },
  {
    "name": "A5",
    "midi": 81,
    "time": 10.748009999999995,
    "velocity": 0.3543307086614173,
    "duration": 0.07873999999999981
  },
  {
    "name": "G#5",
    "midi": 80,
    "time": 10.866119999999995,
    "velocity": 0.3543307086614173,
    "duration": 0.07873999999999981
  },
  {
    "name": "G#5",
    "midi": 80,
    "time": 11.102339999999995,
    "velocity": 0.3543307086614173,
    "duration": 0.07873999999999981
  },
  {
    "name": "G5",
    "midi": 79,
    "time": 11.220449999999994,
    "velocity": 0.3543307086614173,
    "duration": 0.07873999999999981
  },
  {
    "name": "A4",
    "midi": 69,
    "time": 11.692889999999995,
    "velocity": 0.3543307086614173,
    "duration": 0.07873999999999981
  },
  {
    "name": "D5",
    "midi": 74,
    "time": 12.047219999999994,
    "velocity": 0.3543307086614173,
    "duration": 0.07873999999999981
  },
  {
    "name": "C#5",
    "midi": 73,
    "time": 12.401549999999993,
    "velocity": 0.3543307086614173,
    "duration": 0.07873999999999981
  },
  {
    "name": "D5",
    "midi": 74,
    "time": 12.519659999999993,
    "velocity": 0.3543307086614173,
    "duration": 0.07873999999999981
  },
  {
    "name": "C#5",
    "midi": 73,
    "time": 12.637769999999993,
    "velocity": 0.3543307086614173,
    "duration": 0.07873999999999981
  },
  {
    "name": "C5",
    "midi": 72,
    "time": 12.755879999999992,
    "velocity": 0.3543307086614173,
    "duration": 0.07873999999999981
  },
  {
    "name": "A5",
    "midi": 81,
    "time": 13.346429999999993,
    "velocity": 0.3543307086614173,
    "duration": 0.07873999999999981
  },
  {
    "name": "A5",
    "midi": 81,
    "time": 13.582649999999992,
    "velocity": 0.3543307086614173,
    "duration": 0.07873999999999981
  },
  {
    "name": "G#5",
    "midi": 80,
    "time": 13.700759999999992,
    "velocity": 0.3543307086614173,
    "duration": 0.07873999999999981
  },
  {
    "name": "G#5",
    "midi": 80,
    "time": 13.936979999999991,
    "velocity": 0.3543307086614173,
    "duration": 0.07873999999999981
  },
  {
    "name": "G5",
    "midi": 79,
    "time": 14.055089999999991,
    "velocity": 0.3543307086614173,
    "duration": 0.07873999999999981
  },
  {
    "name": "A5",
    "midi": 81,
    "time": 14.29130999999999,
    "velocity": 0.3543307086614173,
    "duration": 0.07873999999999981
  },
  {
    "name": "A5",
    "midi": 81,
    "time": 14.52752999999999,
    "velocity": 0.3543307086614173,
    "duration": 0.07873999999999981
  },
  {
    "name": "G#5",
    "midi": 80,
    "time": 14.64563999999999,
    "velocity": 0.3543307086614173,
    "duration": 0.07873999999999981
  },
  {
    "name": "G#5",
    "midi": 80,
    "time": 14.881859999999989,
    "velocity": 0.3543307086614173,
    "duration": 0.07873999999999981
  },
  {
    "name": "G5",
    "midi": 79,
    "time": 14.999969999999989,
    "velocity": 0.3543307086614173,
    "duration": 0.07873999999999981
  },
  {
    "name": "A#4",
    "midi": 70,
    "time": 15.236189999999988,
    "velocity": 0.3543307086614173,
    "duration": 0.34940875000000027
  },
  {
    "name": "C#5",
    "midi": 73,
    "time": 15.590519999999989,
    "velocity": 0.3543307086614173,
    "duration": 0.34940875000000027
  },
  {
    "name": "E5",
    "midi": 76,
    "time": 15.94484999999999,
    "velocity": 0.3543307086614173,
    "duration": 0.11318875000000084
  },
  {
    "name": "D5",
    "midi": 74,
    "time": 16.18106999999999,
    "velocity": 0.3543307086614173,
    "duration": 0.3494087499999985
  },
  {
    "name": "A4",
    "midi": 69,
    "time": 16.53539999999999,
    "velocity": 0.3543307086614173,
    "duration": 0.3494087499999985
  },
  {
    "name": "F4",
    "midi": 65,
    "time": 16.889729999999986,
    "velocity": 0.3543307086614173,
    "duration": 0.11318874999999906
  },
  {
    "name": "A#4",
    "midi": 70,
    "time": 17.125949999999985,
    "velocity": 0.3543307086614173,
    "duration": 0.3494087499999985
  },
  {
    "name": "C#5",
    "midi": 73,
    "time": 17.480279999999983,
    "velocity": 0.3543307086614173,
    "duration": 0.3494087499999985
  },
  {
    "name": "E5",
    "midi": 76,
    "time": 17.83460999999998,
    "velocity": 0.3543307086614173,
    "duration": 0.11318874999999906
  },
  {
    "name": "D5",
    "midi": 74,
    "time": 18.07082999999998,
    "velocity": 0.3543307086614173,
    "duration": 0.3494087499999985
  },
  {
    "name": "A4",
    "midi": 69,
    "time": 18.425159999999977,
    "velocity": 0.3543307086614173,
    "duration": 0.11318874999999906
  },
  {
    "name": "A#4",
    "midi": 70,
    "time": 19.015709999999977,
    "velocity": 0.3543307086614173,
    "duration": 0.3494087499999985
  },
  {
    "name": "C#5",
    "midi": 73,
    "time": 19.370039999999975,
    "velocity": 0.3543307086614173,
    "duration": 0.3494087499999985
  },
  {
    "name": "E5",
    "midi": 76,
    "time": 19.724369999999972,
    "velocity": 0.3543307086614173,
    "duration": 0.11318874999999906
  },
  {
    "name": "D5",
    "midi": 74,
    "time": 19.96058999999997,
    "velocity": 0.3543307086614173,
    "duration": 0.3494087499999985
  },
  {
    "name": "A4",
    "midi": 69,
    "time": 20.31491999999997,
    "velocity": 0.3543307086614173,
    "duration": 0.3494087499999985
  },
  {
    "name": "F4",
    "midi": 65,
    "time": 20.669249999999966,
    "velocity": 0.3543307086614173,
    "duration": 0.11318874999999906
  },
  {
    "name": "A#4",
    "midi": 70,
    "time": 20.905469999999966,
    "velocity": 0.3543307086614173,
    "duration": 0.3494087499999985
  },
  {
    "name": "C#5",
    "midi": 73,
    "time": 21.259799999999963,
    "velocity": 0.3543307086614173,
    "duration": 0.3494087499999985
  },
  {
    "name": "E5",
    "midi": 76,
    "time": 21.61412999999996,
    "velocity": 0.3543307086614173,
    "duration": 0.11318874999999906
  },
  {
    "name": "C#5",
    "midi": 73,
    "time": 21.85034999999996,
    "velocity": 0.3543307086614173,
    "duration": 0.3494087499999985
  },
  {
    "name": "E5",
    "midi": 76,
    "time": 22.204679999999957,
    "velocity": 0.3543307086614173,
    "duration": 0.3494087499999985
  },
  {
    "name": "G5",
    "midi": 79,
    "time": 22.559009999999954,
    "velocity": 0.3543307086614173,
    "duration": 0.11318874999999906
  },
  {
    "name": "A5",
    "midi": 81,
    "time": 22.795229999999954,
    "velocity": 0.3543307086614173,
    "duration": 0.11318874999999906
  },
  {
    "name": "A5",
    "midi": 81,
    "time": 22.913339999999952,
    "velocity": 0.3543307086614173,
    "duration": 0.11318874999999906
  },
  {
    "name": "A4",
    "midi": 69,
    "time": 23.03144999999995,
    "velocity": 0.3543307086614173,
    "duration": 0.11318874999999906
  },
  {
    "name": "A4",
    "midi": 69,
    "time": 23.149559999999948,
    "velocity": 0.3543307086614173,
    "duration": 1.5305087499999992
  },
  {
    "name": "F3",
    "midi": 53,
    "time": 24.684989999999946,
    "velocity": 0.3543307086614173,
    "duration": 0.11318874999999906
  },
  {
    "name": "F3",
    "midi": 53,
    "time": 24.921209999999945,
    "velocity": 0.3543307086614173,
    "duration": 0.11318874999999906
  },
  {
    "name": "A#3",
    "midi": 58,
    "time": 25.157429999999945,
    "velocity": 0.3543307086614173,
    "duration": 0.11318874999999906
  },
  {
    "name": "D4",
    "midi": 62,
    "time": 25.275539999999943,
    "velocity": 0.3543307086614173,
    "duration": 0.3494087499999985
  },
  {
    "name": "G3",
    "midi": 55,
    "time": 25.62986999999994,
    "velocity": 0.3543307086614173,
    "duration": 0.11318874999999906
  },
  {
    "name": "G3",
    "midi": 55,
    "time": 25.86608999999994,
    "velocity": 0.3543307086614173,
    "duration": 0.11318874999999906
  },
  {
    "name": "C4",
    "midi": 60,
    "time": 26.10230999999994,
    "velocity": 0.3543307086614173,
    "duration": 0.11318874999999906
  },
  {
    "name": "E4",
    "midi": 64,
    "time": 26.220419999999937,
    "velocity": 0.3543307086614173,
    "duration": 0.3494087499999985
  },
  {
    "name": "A5",
    "midi": 81,
    "time": 26.574749999999934,
    "velocity": 0.3543307086614173,
    "duration": 0.11318874999999906
  },
  {
    "name": "A5",
    "midi": 81,
    "time": 26.692859999999932,
    "velocity": 0.3543307086614173,
    "duration": 0.11318874999999906
  },
  {
    "name": "A4",
    "midi": 69,
    "time": 26.81096999999993,
    "velocity": 0.3543307086614173,
    "duration": 0.11318874999999906
  },
  {
    "name": "A4",
    "midi": 69,
    "time": 26.929079999999928,
    "velocity": 0.3543307086614173,
    "duration": 1.5305087499999992
  },
  {
    "name": "F3",
    "midi": 53,
    "time": 28.464509999999926,
    "velocity": 0.3543307086614173,
    "duration": 0.11318874999999906
  },
  {
    "name": "F3",
    "midi": 53,
    "time": 28.700729999999925,
    "velocity": 0.3543307086614173,
    "duration": 0.11318874999999906
  },
  {
    "name": "A#3",
    "midi": 58,
    "time": 28.936949999999925,
    "velocity": 0.3543307086614173,
    "duration": 0.11318874999999906
  },
  {
    "name": "D4",
    "midi": 62,
    "time": 29.055059999999923,
    "velocity": 0.3543307086614173,
    "duration": 0.3494087499999985
  },
  {
    "name": "G3",
    "midi": 55,
    "time": 29.40938999999992,
    "velocity": 0.3543307086614173,
    "duration": 0.11318874999999906
  },
  {
    "name": "A4",
    "midi": 69,
    "time": 30.35426999999992,
    "velocity": 0.3543307086614173,
    "duration": 0.11318874999999906
  },
  {
    "name": "A4",
    "midi": 69,
    "time": 30.47237999999992,
    "velocity": 0.3543307086614173,
    "duration": 0.11318874999999906
  },
  {
    "name": "G4",
    "midi": 67,
    "time": 30.70859999999992,
    "velocity": 0.3543307086614173,
    "duration": 0.11318874999999906
  },
  {
    "name": "G4",
    "midi": 67,
    "time": 30.94481999999992,
    "velocity": 0.3543307086614173,
    "duration": 0.6299199999999985
  },
  {
    "name": "D4",
    "midi": 62,
    "time": 31.653479999999917,
    "velocity": 0.3543307086614173,
    "duration": 0.23129875000000055
  },
  {
    "name": "D4",
    "midi": 62,
    "time": 31.889699999999916,
    "velocity": 0.3543307086614173,
    "duration": 0.11318875000000261
  },
  {
    "name": "C4",
    "midi": 60,
    "time": 32.00780999999992,
    "velocity": 0.3543307086614173,
    "duration": 0.11318874999999906
  },
  {
    "name": "C4",
    "midi": 60,
    "time": 32.12591999999992,
    "velocity": 0.3543307086614173,
    "duration": 0.11318874999999906
  },
  {
    "name": "D4",
    "midi": 62,
    "time": 32.244029999999924,
    "velocity": 0.3543307086614173,
    "duration": 0.34940875000000204
  },
  {
    "name": "A#3",
    "midi": 58,
    "time": 32.59835999999993,
    "velocity": 0.3543307086614173,
    "duration": 0.34940875000000204
  },
  {
    "name": "D4",
    "midi": 62,
    "time": 32.95268999999993,
    "velocity": 0.3543307086614173,
    "duration": 0.23129875000000055
  },
  {
    "name": "C4",
    "midi": 60,
    "time": 33.188909999999936,
    "velocity": 0.3543307086614173,
    "duration": 0.11318874999999906
  },
  {
    "name": "G4",
    "midi": 67,
    "time": 33.30701999999994,
    "velocity": 0.3543307086614173,
    "duration": 0.8218487500000009
  },
  {
    "name": "A4",
    "midi": 69,
    "time": 34.13378999999994,
    "velocity": 0.3543307086614173,
    "duration": 0.11318874999999906
  },
  {
    "name": "A4",
    "midi": 69,
    "time": 34.25189999999994,
    "velocity": 0.3543307086614173,
    "duration": 0.11318874999999906
  },
  {
    "name": "G4",
    "midi": 67,
    "time": 34.48811999999994,
    "velocity": 0.3543307086614173,
    "duration": 0.11318874999999906
  },
  {
    "name": "G4",
    "midi": 67,
    "time": 34.724339999999934,
    "velocity": 0.3543307086614173,
    "duration": 0.6299199999999985
  },
  {
    "name": "D4",
    "midi": 62,
    "time": 35.432999999999936,
    "velocity": 0.3543307086614173,
    "duration": 0.23129875000000055
  },
  {
    "name": "D4",
    "midi": 62,
    "time": 35.66921999999994,
    "velocity": 0.3543307086614173,
    "duration": 0.11318874999999906
  },
  {
    "name": "C4",
    "midi": 60,
    "time": 35.78732999999994,
    "velocity": 0.3543307086614173,
    "duration": 0.11318874999999906
  },
  {
    "name": "C4",
    "midi": 60,
    "time": 35.90543999999994,
    "velocity": 0.3543307086614173,
    "duration": 0.11318874999999906
  },
  {
    "name": "D4",
    "midi": 62,
    "time": 36.02354999999994,
    "velocity": 0.3543307086614173,
    "duration": 0.34940875000000204
  },
  {
    "name": "A#3",
    "midi": 58,
    "time": 36.37787999999995,
    "velocity": 0.3543307086614173,
    "duration": 0.34940875000000204
  },
  {
    "name": "D4",
    "midi": 62,
    "time": 36.73220999999995,
    "velocity": 0.3543307086614173,
    "duration": 0.23129875000000055
  },
  {
    "name": "C4",
    "midi": 60,
    "time": 36.968429999999955,
    "velocity": 0.3543307086614173,
    "duration": 0.11318874999999906
  },
  {
    "name": "G4",
    "midi": 67,
    "time": 37.08653999999996,
    "velocity": 0.3543307086614173,
    "duration": 0.8218487500000009
  },
  {
    "name": "A4",
    "midi": 69,
    "time": 38.14952999999996,
    "velocity": 0.3543307086614173,
    "duration": 0.07874000000000336
  },
  {
    "name": "D5",
    "midi": 74,
    "time": 38.50385999999997,
    "velocity": 0.3543307086614173,
    "duration": 0.07874000000000336
  },
  {
    "name": "C#5",
    "midi": 73,
    "time": 38.85818999999997,
    "velocity": 0.3543307086614173,
    "duration": 0.07874000000000336
  },
  {
    "name": "D5",
    "midi": 74,
    "time": 38.97629999999997,
    "velocity": 0.3543307086614173,
    "duration": 0.07874000000000336
  },
  {
    "name": "C#5",
    "midi": 73,
    "time": 39.094409999999975,
    "velocity": 0.3543307086614173,
    "duration": 0.07874000000000336
  },
  {
    "name": "C5",
    "midi": 72,
    "time": 39.21251999999998,
    "velocity": 0.3543307086614173,
    "duration": 0.07874000000000336
  },
  {
    "name": "A5",
    "midi": 81,
    "time": 39.80306999999998,
    "velocity": 0.3543307086614173,
    "duration": 0.07874000000000336
  },
  {
    "name": "A5",
    "midi": 81,
    "time": 40.03928999999998,
    "velocity": 0.3543307086614173,
    "duration": 0.07874000000000336
  },
  {
    "name": "G#5",
    "midi": 80,
    "time": 40.15739999999998,
    "velocity": 0.3543307086614173,
    "duration": 0.07874000000000336
  },
  {
    "name": "G#5",
    "midi": 80,
    "time": 40.393619999999984,
    "velocity": 0.3543307086614173,
    "duration": 0.07874000000000336
  },
  {
    "name": "G5",
    "midi": 79,
    "time": 40.511729999999986,
    "velocity": 0.3543307086614173,
    "duration": 0.07874000000000336
  },
  {
    "name": "A5",
    "midi": 81,
    "time": 40.74794999999999,
    "velocity": 0.3543307086614173,
    "duration": 0.07874000000000336
  },
  {
    "name": "A5",
    "midi": 81,
    "time": 40.98416999999999,
    "velocity": 0.3543307086614173,
    "duration": 0.07874000000000336
  },
  {
    "name": "G#5",
    "midi": 80,
    "time": 41.10227999999999,
    "velocity": 0.3543307086614173,
    "duration": 0.07874000000000336
  },
  {
    "name": "G#5",
    "midi": 80,
    "time": 41.338499999999996,
    "velocity": 0.3543307086614173,
    "duration": 0.07874000000000336
  },
  {
    "name": "G5",
    "midi": 79,
    "time": 41.45661,
    "velocity": 0.3543307086614173,
    "duration": 0.07874000000000336
  },
  {
    "name": "A4",
    "midi": 69,
    "time": 41.929050000000004,
    "velocity": 0.3543307086614173,
    "duration": 0.07874000000000336
  },
  {
    "name": "D5",
    "midi": 74,
    "time": 42.28338000000001,
    "velocity": 0.3543307086614173,
    "duration": 0.07874000000000336
  },
  {
    "name": "C#5",
    "midi": 73,
    "time": 42.63771000000001,
    "velocity": 0.3543307086614173,
    "duration": 0.07874000000000336
  },
  {
    "name": "D5",
    "midi": 74,
    "time": 42.755820000000014,
    "velocity": 0.3543307086614173,
    "duration": 0.07874000000000336
  },
  {
    "name": "C#5",
    "midi": 73,
    "time": 42.873930000000016,
    "velocity": 0.3543307086614173,
    "duration": 0.07874000000000336
  },
  {
    "name": "C5",
    "midi": 72,
    "time": 42.99204000000002,
    "velocity": 0.3543307086614173,
    "duration": 0.07874000000000336
  },
  {
    "name": "A5",
    "midi": 81,
    "time": 43.58259000000002,
    "velocity": 0.3543307086614173,
    "duration": 0.07874000000000336
  },
  {
    "name": "A5",
    "midi": 81,
    "time": 43.81881000000002,
    "velocity": 0.3543307086614173,
    "duration": 0.07874000000000336
  },
  {
    "name": "G#5",
    "midi": 80,
    "time": 43.93692000000002,
    "velocity": 0.3543307086614173,
    "duration": 0.07874000000000336
  },
  {
    "name": "G#5",
    "midi": 80,
    "time": 44.173140000000025,
    "velocity": 0.3543307086614173,
    "duration": 0.07874000000000336
  },
  {
    "name": "G5",
    "midi": 79,
    "time": 44.291250000000026,
    "velocity": 0.3543307086614173,
    "duration": 0.07874000000000336
  },
  {
    "name": "A5",
    "midi": 81,
    "time": 44.52747000000003,
    "velocity": 0.3543307086614173,
    "duration": 0.07874000000000336
  },
  {
    "name": "A5",
    "midi": 81,
    "time": 44.76369000000003,
    "velocity": 0.3543307086614173,
    "duration": 0.07874000000000336
  },
  {
    "name": "G#5",
    "midi": 80,
    "time": 44.881800000000034,
    "velocity": 0.3543307086614173,
    "duration": 0.07874000000000336
  },
  {
    "name": "G#5",
    "midi": 80,
    "time": 45.11802000000004,
    "velocity": 0.3543307086614173,
    "duration": 0.07874000000000336
  },
  {
    "name": "G5",
    "midi": 79,
    "time": 45.23613000000004,
    "velocity": 0.3543307086614173,
    "duration": 0.07874000000000336
  },
  {
    "name": "A#4",
    "midi": 70,
    "time": 45.47235000000004,
    "velocity": 0.3543307086614173,
    "duration": 0.34940875000000204
  },
  {
    "name": "C#5",
    "midi": 73,
    "time": 45.826680000000046,
    "velocity": 0.3543307086614173,
    "duration": 0.34940875000000204
  },
  {
    "name": "E5",
    "midi": 76,
    "time": 46.18101000000005,
    "velocity": 0.3543307086614173,
    "duration": 0.11318874999999906
  },
  {
    "name": "D5",
    "midi": 74,
    "time": 46.417230000000046,
    "velocity": 0.3543307086614173,
    "duration": 0.34940875000000204
  },
  {
    "name": "A4",
    "midi": 69,
    "time": 46.77156000000005,
    "velocity": 0.3543307086614173,
    "duration": 0.34940875000000204
  },
  {
    "name": "F4",
    "midi": 65,
    "time": 47.125890000000055,
    "velocity": 0.3543307086614173,
    "duration": 0.11318874999999906
  },
  {
    "name": "A#4",
    "midi": 70,
    "time": 47.36211000000005,
    "velocity": 0.3543307086614173,
    "duration": 0.34940875000000204
  },
  {
    "name": "C#5",
    "midi": 73,
    "time": 47.716440000000055,
    "velocity": 0.3543307086614173,
    "duration": 0.34940875000000204
  },
  {
    "name": "E5",
    "midi": 76,
    "time": 48.07077000000006,
    "velocity": 0.3543307086614173,
    "duration": 0.11318874999999906
  },
  {
    "name": "D5",
    "midi": 74,
    "time": 48.306990000000056,
    "velocity": 0.3543307086614173,
    "duration": 0.34940875000000204
  },
  {
    "name": "A4",
    "midi": 69,
    "time": 48.66132000000006,
    "velocity": 0.3543307086614173,
    "duration": 0.11318874999999906
  },
  {
    "name": "A#4",
    "midi": 70,
    "time": 49.25187000000006,
    "velocity": 0.3543307086614173,
    "duration": 0.34940875000000204
  },
  {
    "name": "C#5",
    "midi": 73,
    "time": 49.606200000000065,
    "velocity": 0.3543307086614173,
    "duration": 0.34940875000000204
  },
  {
    "name": "E5",
    "midi": 76,
    "time": 49.96053000000007,
    "velocity": 0.3543307086614173,
    "duration": 0.11318874999999906
  },
  {
    "name": "D5",
    "midi": 74,
    "time": 50.196750000000065,
    "velocity": 0.3543307086614173,
    "duration": 0.34940875000000204
  },
  {
    "name": "A4",
    "midi": 69,
    "time": 50.55108000000007,
    "velocity": 0.3543307086614173,
    "duration": 0.34940875000000204
  },
  {
    "name": "F4",
    "midi": 65,
    "time": 50.905410000000074,
    "velocity": 0.3543307086614173,
    "duration": 0.11318874999999906
  },
  {
    "name": "A#4",
    "midi": 70,
    "time": 51.14163000000007,
    "velocity": 0.3543307086614173,
    "duration": 0.34940875000000204
  },
  {
    "name": "C#5",
    "midi": 73,
    "time": 51.495960000000075,
    "velocity": 0.3543307086614173,
    "duration": 0.34940875000000204
  },
  {
    "name": "E5",
    "midi": 76,
    "time": 51.85029000000008,
    "velocity": 0.3543307086614173,
    "duration": 0.11318874999999906
  },
  {
    "name": "C#5",
    "midi": 73,
    "time": 52.086510000000075,
    "velocity": 0.3543307086614173,
    "duration": 0.34940875000000204
  },
  {
    "name": "E5",
    "midi": 76,
    "time": 52.44084000000008,
    "velocity": 0.3543307086614173,
    "duration": 0.34940875000000204
  },
  {
    "name": "G5",
    "midi": 79,
    "time": 52.795170000000084,
    "velocity": 0.3543307086614173,
    "duration": 0.11318874999999906
  },
  {
    "name": "A5",
    "midi": 81,
    "time": 53.03139000000008,
    "velocity": 0.3543307086614173,
    "duration": 0.11318874999999906
  },
  {
    "name": "A5",
    "midi": 81,
    "time": 53.14950000000008,
    "velocity": 0.3543307086614173,
    "duration": 0.11318874999999906
  },
  {
    "name": "A4",
    "midi": 69,
    "time": 53.26761000000008,
    "velocity": 0.3543307086614173,
    "duration": 0.11318874999999906
  },
  {
    "name": "A4",
    "midi": 69,
    "time": 53.385720000000084,
    "velocity": 0.3543307086614173,
    "duration": 1.5305087500000027
  },
  {
    "name": "F3",
    "midi": 53,
    "time": 54.92115000000009,
    "velocity": 0.3543307086614173,
    "duration": 0.11318874999999906
  },
  {
    "name": "F3",
    "midi": 53,
    "time": 55.157370000000085,
    "velocity": 0.3543307086614173,
    "duration": 0.11318874999999906
  },
  {
    "name": "A#3",
    "midi": 58,
    "time": 55.39359000000008,
    "velocity": 0.3543307086614173,
    "duration": 0.11318874999999906
  },
  {
    "name": "D4",
    "midi": 62,
    "time": 55.51170000000008,
    "velocity": 0.3543307086614173,
    "duration": 0.34940875000000204
  },
  {
    "name": "G3",
    "midi": 55,
    "time": 55.86603000000009,
    "velocity": 0.3543307086614173,
    "duration": 0.11318874999999906
  },
  {
    "name": "G3",
    "midi": 55,
    "time": 56.10225000000008,
    "velocity": 0.3543307086614173,
    "duration": 0.11318874999999906
  },
  {
    "name": "C4",
    "midi": 60,
    "time": 56.33847000000008,
    "velocity": 0.3543307086614173,
    "duration": 0.11318874999999906
  },
  {
    "name": "E4",
    "midi": 64,
    "time": 56.45658000000008,
    "velocity": 0.3543307086614173,
    "duration": 0.34940875000000204
  },
  {
    "name": "A5",
    "midi": 81,
    "time": 56.810910000000085,
    "velocity": 0.3543307086614173,
    "duration": 0.11318874999999906
  },
  {
    "name": "A5",
    "midi": 81,
    "time": 56.92902000000009,
    "velocity": 0.3543307086614173,
    "duration": 0.11318874999999906
  },
  {
    "name": "A4",
    "midi": 69,
    "time": 57.04713000000009,
    "velocity": 0.3543307086614173,
    "duration": 0.11318874999999906
  },
  {
    "name": "A4",
    "midi": 69,
    "time": 57.16524000000009,
    "velocity": 0.3543307086614173,
    "duration": 1.5305087500000027
  },
  {
    "name": "F3",
    "midi": 53,
    "time": 58.700670000000095,
    "velocity": 0.3543307086614173,
    "duration": 0.11318874999999906
  },
  {
    "name": "F3",
    "midi": 53,
    "time": 58.93689000000009,
    "velocity": 0.3543307086614173,
    "duration": 0.11318874999999906
  },
  {
    "name": "A#3",
    "midi": 58,
    "time": 59.17311000000009,
    "velocity": 0.3543307086614173,
    "duration": 0.11318874999999906
  },
  {
    "name": "D4",
    "midi": 62,
    "time": 59.29122000000009,
    "velocity": 0.3543307086614173,
    "duration": 0.34940875000000204
  },
  {
    "name": "G3",
    "midi": 55,
    "time": 59.64555000000009,
    "velocity": 0.3543307086614173,
    "duration": 0.11318874999999906
  },
  {
    "name": "A4",
    "midi": 69,
    "time": 60.59043000000009,
    "velocity": 0.3543307086614173,
    "duration": 0.11318874999999906
  },
  {
    "name": "A4",
    "midi": 69,
    "time": 60.70854000000009,
    "velocity": 0.3543307086614173,
    "duration": 0.11318874999999906
  },
  {
    "name": "G4",
    "midi": 67,
    "time": 60.94476000000009,
    "velocity": 0.3543307086614173,
    "duration": 0.11318874999999906
  },
  {
    "name": "G4",
    "midi": 67,
    "time": 61.18098000000008,
    "velocity": 0.3543307086614173,
    "duration": 0.6299199999999985
  },
  {
    "name": "D4",
    "midi": 62,
    "time": 61.889640000000085,
    "velocity": 0.3543307086614173,
    "duration": 0.23129875000000055
  },
  {
    "name": "D4",
    "midi": 62,
    "time": 62.12586000000009,
    "velocity": 0.3543307086614173,
    "duration": 0.11318874999999906
  },
  {
    "name": "C4",
    "midi": 60,
    "time": 62.24397000000009,
    "velocity": 0.3543307086614173,
    "duration": 0.11318874999999906
  },
  {
    "name": "C4",
    "midi": 60,
    "time": 62.36208000000009,
    "velocity": 0.3543307086614173,
    "duration": 0.11318874999999906
  },
  {
    "name": "D4",
    "midi": 62,
    "time": 62.48019000000009,
    "velocity": 0.3543307086614173,
    "duration": 0.34940875000000204
  },
  {
    "name": "A#3",
    "midi": 58,
    "time": 62.8345200000001,
    "velocity": 0.3543307086614173,
    "duration": 0.34940875000000204
  },
  {
    "name": "D4",
    "midi": 62,
    "time": 63.1888500000001,
    "velocity": 0.3543307086614173,
    "duration": 0.23129875000000055
  },
  {
    "name": "C4",
    "midi": 60,
    "time": 63.425070000000105,
    "velocity": 0.3543307086614173,
    "duration": 0.11318874999999906
  },
  {
    "name": "G4",
    "midi": 67,
    "time": 63.543180000000106,
    "velocity": 0.3543307086614173,
    "duration": 0.8218487500000009
  },
  {
    "name": "A4",
    "midi": 69,
    "time": 64.3699500000001,
    "velocity": 0.3543307086614173,
    "duration": 0.11318875000000617
  },
  {
    "name": "A4",
    "midi": 69,
    "time": 64.4880600000001,
    "velocity": 0.3543307086614173,
    "duration": 0.11318875000000617
  },
  {
    "name": "G4",
    "midi": 67,
    "time": 64.7242800000001,
    "velocity": 0.3543307086614173,
    "duration": 0.11318875000000617
  },
  {
    "name": "G4",
    "midi": 67,
    "time": 64.96050000000011,
    "velocity": 0.3543307086614173,
    "duration": 0.6299199999999985
  },
  {
    "name": "D4",
    "midi": 62,
    "time": 65.6691600000001,
    "velocity": 0.3543307086614173,
    "duration": 0.23129874999999345
  },
  {
    "name": "D4",
    "midi": 62,
    "time": 65.9053800000001,
    "velocity": 0.3543307086614173,
    "duration": 0.11318875000000617
  },
  {
    "name": "C4",
    "midi": 60,
    "time": 66.0234900000001,
    "velocity": 0.3543307086614173,
    "duration": 0.11318875000000617
  },
  {
    "name": "C4",
    "midi": 60,
    "time": 66.1416000000001,
    "velocity": 0.3543307086614173,
    "duration": 0.11318875000000617
  },
  {
    "name": "D4",
    "midi": 62,
    "time": 66.2597100000001,
    "velocity": 0.3543307086614173,
    "duration": 0.34940874999999494
  },
  {
    "name": "A#3",
    "midi": 58,
    "time": 66.61404000000009,
    "velocity": 0.3543307086614173,
    "duration": 0.34940874999999494
  },
  {
    "name": "D4",
    "midi": 62,
    "time": 66.96837000000008,
    "velocity": 0.3543307086614173,
    "duration": 0.23129874999999345
  },
  {
    "name": "C4",
    "midi": 60,
    "time": 67.20459000000007,
    "velocity": 0.3543307086614173,
    "duration": 0.11318875000000617
  },
  {
    "name": "G4",
    "midi": 67,
    "time": 67.32270000000007,
    "velocity": 0.3543307086614173,
    "duration": 0.8218487500000009
  },
  {
    "name": "A4",
    "midi": 69,
    "time": 68.38569000000007,
    "velocity": 0.3543307086614173,
    "duration": 0.07873999999999626
  },
  {
    "name": "D5",
    "midi": 74,
    "time": 68.74002000000006,
    "velocity": 0.3543307086614173,
    "duration": 0.07873999999999626
  },
  {
    "name": "C#5",
    "midi": 73,
    "time": 69.09435000000005,
    "velocity": 0.3543307086614173,
    "duration": 0.07873999999999626
  },
  {
    "name": "D5",
    "midi": 74,
    "time": 69.21246000000005,
    "velocity": 0.3543307086614173,
    "duration": 0.07873999999999626
  },
  {
    "name": "C#5",
    "midi": 73,
    "time": 69.33057000000005,
    "velocity": 0.3543307086614173,
    "duration": 0.07873999999999626
  },
  {
    "name": "C5",
    "midi": 72,
    "time": 69.44868000000005,
    "velocity": 0.3543307086614173,
    "duration": 0.07873999999999626
  },
  {
    "name": "A5",
    "midi": 81,
    "time": 70.03923000000005,
    "velocity": 0.3543307086614173,
    "duration": 0.07873999999999626
  },
  {
    "name": "A5",
    "midi": 81,
    "time": 70.27545000000005,
    "velocity": 0.3543307086614173,
    "duration": 0.07873999999999626
  },
  {
    "name": "G#5",
    "midi": 80,
    "time": 70.39356000000005,
    "velocity": 0.3543307086614173,
    "duration": 0.07873999999999626
  },
  {
    "name": "G#5",
    "midi": 80,
    "time": 70.62978000000005,
    "velocity": 0.3543307086614173,
    "duration": 0.07873999999999626
  },
  {
    "name": "G5",
    "midi": 79,
    "time": 70.74789000000006,
    "velocity": 0.3543307086614173,
    "duration": 0.07873999999999626
  },
  {
    "name": "A5",
    "midi": 81,
    "time": 70.98411000000006,
    "velocity": 0.3543307086614173,
    "duration": 0.07873999999999626
  },
  {
    "name": "A5",
    "midi": 81,
    "time": 71.22033000000006,
    "velocity": 0.3543307086614173,
    "duration": 0.07873999999999626
  },
  {
    "name": "G#5",
    "midi": 80,
    "time": 71.33844000000006,
    "velocity": 0.3543307086614173,
    "duration": 0.07873999999999626
  },
  {
    "name": "G#5",
    "midi": 80,
    "time": 71.57466000000007,
    "velocity": 0.3543307086614173,
    "duration": 0.07873999999999626
  },
  {
    "name": "G5",
    "midi": 79,
    "time": 71.69277000000007,
    "velocity": 0.3543307086614173,
    "duration": 0.07873999999999626
  },
  {
    "name": "A4",
    "midi": 69,
    "time": 72.16521000000006,
    "velocity": 0.3543307086614173,
    "duration": 0.07873999999999626
  },
  {
    "name": "D5",
    "midi": 74,
    "time": 72.51954000000005,
    "velocity": 0.3543307086614173,
    "duration": 0.07873999999999626
  },
  {
    "name": "C#5",
    "midi": 73,
    "time": 72.87387000000004,
    "velocity": 0.3543307086614173,
    "duration": 0.07873999999999626
  },
  {
    "name": "D5",
    "midi": 74,
    "time": 72.99198000000004,
    "velocity": 0.3543307086614173,
    "duration": 0.07873999999999626
  },
  {
    "name": "C#5",
    "midi": 73,
    "time": 73.11009000000004,
    "velocity": 0.3543307086614173,
    "duration": 0.07873999999999626
  },
  {
    "name": "C5",
    "midi": 72,
    "time": 73.22820000000004,
    "velocity": 0.3543307086614173,
    "duration": 0.07873999999999626
  },
  {
    "name": "A5",
    "midi": 81,
    "time": 73.81875000000004,
    "velocity": 0.3543307086614173,
    "duration": 0.07873999999999626
  },
  {
    "name": "A5",
    "midi": 81,
    "time": 74.05497000000004,
    "velocity": 0.3543307086614173,
    "duration": 0.07873999999999626
  },
  {
    "name": "G#5",
    "midi": 80,
    "time": 74.17308000000004,
    "velocity": 0.3543307086614173,
    "duration": 0.07873999999999626
  },
  {
    "name": "G#5",
    "midi": 80,
    "time": 74.40930000000004,
    "velocity": 0.3543307086614173,
    "duration": 0.07873999999999626
  },
  {
    "name": "G5",
    "midi": 79,
    "time": 74.52741000000005,
    "velocity": 0.3543307086614173,
    "duration": 0.07873999999999626
  },
  {
    "name": "A5",
    "midi": 81,
    "time": 74.76363000000005,
    "velocity": 0.3543307086614173,
    "duration": 0.07873999999999626
  },
  {
    "name": "A5",
    "midi": 81,
    "time": 74.99985000000005,
    "velocity": 0.3543307086614173,
    "duration": 0.07873999999999626
  },
  {
    "name": "G#5",
    "midi": 80,
    "time": 75.11796000000005,
    "velocity": 0.3543307086614173,
    "duration": 0.07873999999999626
  },
  {
    "name": "G#5",
    "midi": 80,
    "time": 75.35418000000006,
    "velocity": 0.3543307086614173,
    "duration": 0.07873999999999626
  },
  {
    "name": "G5",
    "midi": 79,
    "time": 75.47229000000006,
    "velocity": 0.3543307086614173,
    "duration": 0.07873999999999626
  },
  {
    "name": "A#4",
    "midi": 70,
    "time": 75.70851000000006,
    "velocity": 0.3543307086614173,
    "duration": 0.34940874999999494
  },
  {
    "name": "C#5",
    "midi": 73,
    "time": 76.06284000000005,
    "velocity": 0.3543307086614173,
    "duration": 0.34940874999999494
  },
  {
    "name": "E5",
    "midi": 76,
    "time": 76.41717000000004,
    "velocity": 0.3543307086614173,
    "duration": 0.11318875000000617
  },
  {
    "name": "D5",
    "midi": 74,
    "time": 76.65339000000004,
    "velocity": 0.3543307086614173,
    "duration": 0.34940874999999494
  },
  {
    "name": "A4",
    "midi": 69,
    "time": 77.00772000000003,
    "velocity": 0.3543307086614173,
    "duration": 0.34940874999999494
  },
  {
    "name": "F4",
    "midi": 65,
    "time": 77.36205000000002,
    "velocity": 0.3543307086614173,
    "duration": 0.11318875000000617
  },
  {
    "name": "A#4",
    "midi": 70,
    "time": 77.59827000000003,
    "velocity": 0.3543307086614173,
    "duration": 0.34940874999999494
  },
  {
    "name": "C#5",
    "midi": 73,
    "time": 77.95260000000002,
    "velocity": 0.3543307086614173,
    "duration": 0.34940874999999494
  },
  {
    "name": "E5",
    "midi": 76,
    "time": 78.30693000000001,
    "velocity": 0.3543307086614173,
    "duration": 0.11318875000000617
  },
  {
    "name": "D5",
    "midi": 74,
    "time": 78.54315000000001,
    "velocity": 0.3543307086614173,
    "duration": 0.34940874999999494
  },
  {
    "name": "A4",
    "midi": 69,
    "time": 78.89748,
    "velocity": 0.3543307086614173,
    "duration": 0.11318875000000617
  },
  {
    "name": "A#4",
    "midi": 70,
    "time": 79.48803000000001,
    "velocity": 0.3543307086614173,
    "duration": 0.34940874999999494
  },
  {
    "name": "C#5",
    "midi": 73,
    "time": 79.84236,
    "velocity": 0.3543307086614173,
    "duration": 0.34940874999999494
  },
  {
    "name": "E5",
    "midi": 76,
    "time": 80.19668999999999,
    "velocity": 0.3543307086614173,
    "duration": 0.11318875000000617
  },
  {
    "name": "D5",
    "midi": 74,
    "time": 80.43290999999999,
    "velocity": 0.3543307086614173,
    "duration": 0.34940874999999494
  },
  {
    "name": "A4",
    "midi": 69,
    "time": 80.78723999999998,
    "velocity": 0.3543307086614173,
    "duration": 0.34940874999999494
  },
  {
    "name": "F4",
    "midi": 65,
    "time": 81.14156999999997,
    "velocity": 0.3543307086614173,
    "duration": 0.11318875000000617
  },
  {
    "name": "A#4",
    "midi": 70,
    "time": 81.37778999999998,
    "velocity": 0.3543307086614173,
    "duration": 0.34940874999999494
  },
  {
    "name": "C#5",
    "midi": 73,
    "time": 81.73211999999997,
    "velocity": 0.3543307086614173,
    "duration": 0.34940874999999494
  },
  {
    "name": "E5",
    "midi": 76,
    "time": 82.08644999999996,
    "velocity": 0.3543307086614173,
    "duration": 0.11318875000000617
  },
  {
    "name": "C#5",
    "midi": 73,
    "time": 82.32266999999996,
    "velocity": 0.3543307086614173,
    "duration": 0.34940874999999494
  },
  {
    "name": "E5",
    "midi": 76,
    "time": 82.67699999999995,
    "velocity": 0.3543307086614173,
    "duration": 0.34940874999999494
  },
  {
    "name": "G5",
    "midi": 79,
    "time": 83.03132999999994,
    "velocity": 0.3543307086614173,
    "duration": 0.11318875000000617
  },
  {
    "name": "A5",
    "midi": 81,
    "time": 83.26754999999994,
    "velocity": 0.3543307086614173,
    "duration": 0.11318875000000617
  },
  {
    "name": "A5",
    "midi": 81,
    "time": 83.38565999999994,
    "velocity": 0.3543307086614173,
    "duration": 0.11318875000000617
  },
  {
    "name": "A4",
    "midi": 69,
    "time": 83.50376999999995,
    "velocity": 0.3543307086614173,
    "duration": 0.11318875000000617
  },
  {
    "name": "A4",
    "midi": 69,
    "time": 83.62187999999995,
    "velocity": 0.3543307086614173,
    "duration": 1.5305087499999956
  },
  {
    "name": "F3",
    "midi": 53,
    "time": 85.15730999999994,
    "velocity": 0.3543307086614173,
    "duration": 0.11318875000000617
  },
  {
    "name": "F3",
    "midi": 53,
    "time": 85.39352999999994,
    "velocity": 0.3543307086614173,
    "duration": 0.11318875000000617
  },
  {
    "name": "A#3",
    "midi": 58,
    "time": 85.62974999999994,
    "velocity": 0.3543307086614173,
    "duration": 0.11318875000000617
  },
  {
    "name": "D4",
    "midi": 62,
    "time": 85.74785999999995,
    "velocity": 0.3543307086614173,
    "duration": 0.34940874999999494
  },
  {
    "name": "G3",
    "midi": 55,
    "time": 86.10218999999994,
    "velocity": 0.3543307086614173,
    "duration": 0.11318875000000617
  },
  {
    "name": "G3",
    "midi": 55,
    "time": 86.33840999999994,
    "velocity": 0.3543307086614173,
    "duration": 0.11318875000000617
  },
  {
    "name": "C4",
    "midi": 60,
    "time": 86.57462999999994,
    "velocity": 0.3543307086614173,
    "duration": 0.11318875000000617
  },
  {
    "name": "E4",
    "midi": 64,
    "time": 86.69273999999994,
    "velocity": 0.3543307086614173,
    "duration": 0.34940874999999494
  },
  {
    "name": "A5",
    "midi": 81,
    "time": 87.04706999999993,
    "velocity": 0.3543307086614173,
    "duration": 0.11318875000000617
  },
  {
    "name": "A5",
    "midi": 81,
    "time": 87.16517999999994,
    "velocity": 0.3543307086614173,
    "duration": 0.11318875000000617
  },
  {
    "name": "A4",
    "midi": 69,
    "time": 87.28328999999994,
    "velocity": 0.3543307086614173,
    "duration": 0.11318875000000617
  },
  {
    "name": "A4",
    "midi": 69,
    "time": 87.40139999999994,
    "velocity": 0.3543307086614173,
    "duration": 1.5305087499999956
  },
  {
    "name": "F3",
    "midi": 53,
    "time": 88.93682999999993,
    "velocity": 0.3543307086614173,
    "duration": 0.11318875000000617
  },
  {
    "name": "F3",
    "midi": 53,
    "time": 89.17304999999993,
    "velocity": 0.3543307086614173,
    "duration": 0.11318875000000617
  },
  {
    "name": "A#3",
    "midi": 58,
    "time": 89.40926999999994,
    "velocity": 0.3543307086614173,
    "duration": 0.11318875000000617
  },
  {
    "name": "D4",
    "midi": 62,
    "time": 89.52737999999994,
    "velocity": 0.3543307086614173,
    "duration": 0.34940874999999494
  },
  {
    "name": "G3",
    "midi": 55,
    "time": 89.88170999999993,
    "velocity": 0.3543307086614173,
    "duration": 0.11318875000000617
  }
];
