export let synth1 = [
  {
    "name": "D5",
    "midi": 74,
    "time": 0,
    "velocity": 0.7244094488188977,
    "duration": 0.11318874999999999
  },
  {
    "name": "D5",
    "midi": 74,
    "time": 0.11810999999999999,
    "velocity": 0.7244094488188977,
    "duration": 0.11318875
  },
  {
    "name": "C5",
    "midi": 72,
    "time": 0.35433,
    "velocity": 0.7244094488188977,
    "duration": 0.11318875
  },
  {
    "name": "B4",
    "midi": 71,
    "time": 0.59055,
    "velocity": 0.7244094488188977,
    "duration": 0.6299199999999999
  },
  {
    "name": "D4",
    "midi": 62,
    "time": 1.29921,
    "velocity": 0.7244094488188977,
    "duration": 0.2312987499999999
  },
  {
    "name": "E4",
    "midi": 64,
    "time": 1.5354299999999999,
    "velocity": 0.7244094488188977,
    "duration": 0.11318874999999995
  },
  {
    "name": "F4",
    "midi": 65,
    "time": 1.6535399999999998,
    "velocity": 0.7244094488188977,
    "duration": 0.11318874999999995
  },
  {
    "name": "G4",
    "midi": 67,
    "time": 1.7716499999999997,
    "velocity": 0.7244094488188977,
    "duration": 0.11318874999999995
  },
  {
    "name": "A4",
    "midi": 69,
    "time": 1.8897599999999997,
    "velocity": 0.7244094488188977,
    "duration": 0.34940875000000005
  },
  {
    "name": "D4",
    "midi": 62,
    "time": 2.24409,
    "velocity": 0.7244094488188977,
    "duration": 0.3494087499999998
  },
  {
    "name": "A4",
    "midi": 69,
    "time": 2.59842,
    "velocity": 0.7244094488188977,
    "duration": 0.2312987500000001
  },
  {
    "name": "G4",
    "midi": 67,
    "time": 2.8346400000000003,
    "velocity": 0.7244094488188977,
    "duration": 0.11318874999999995
  },
  {
    "name": "C5",
    "midi": 72,
    "time": 2.9527500000000004,
    "velocity": 0.7244094488188977,
    "duration": 0.82184875
  },
  {
    "name": "D5",
    "midi": 74,
    "time": 3.7795200000000007,
    "velocity": 0.7244094488188977,
    "duration": 0.11318874999999995
  },
  {
    "name": "D5",
    "midi": 74,
    "time": 3.897630000000001,
    "velocity": 0.7244094488188977,
    "duration": 0.1131887500000004
  },
  {
    "name": "C5",
    "midi": 72,
    "time": 4.133850000000002,
    "velocity": 0.7244094488188977,
    "duration": 0.11318874999999995
  },
  {
    "name": "B4",
    "midi": 71,
    "time": 4.370070000000002,
    "velocity": 0.7244094488188977,
    "duration": 0.6299200000000003
  },
  {
    "name": "D4",
    "midi": 62,
    "time": 5.078730000000002,
    "velocity": 0.7244094488188977,
    "duration": 0.23129874999999966
  },
  {
    "name": "E4",
    "midi": 64,
    "time": 5.314950000000001,
    "velocity": 0.7244094488188977,
    "duration": 0.11318874999999995
  },
  {
    "name": "F4",
    "midi": 65,
    "time": 5.433060000000001,
    "velocity": 0.7244094488188977,
    "duration": 0.11318874999999995
  },
  {
    "name": "G4",
    "midi": 67,
    "time": 5.551170000000001,
    "velocity": 0.7244094488188977,
    "duration": 0.11318874999999995
  },
  {
    "name": "A4",
    "midi": 69,
    "time": 5.6692800000000005,
    "velocity": 0.7244094488188977,
    "duration": 0.34940875000000027
  },
  {
    "name": "D4",
    "midi": 62,
    "time": 6.023610000000001,
    "velocity": 0.7244094488188977,
    "duration": 0.34940875000000027
  },
  {
    "name": "A4",
    "midi": 69,
    "time": 6.377940000000001,
    "velocity": 0.7244094488188977,
    "duration": 0.23129874999999966
  },
  {
    "name": "G4",
    "midi": 67,
    "time": 6.61416,
    "velocity": 0.7244094488188977,
    "duration": 0.11318874999999995
  },
  {
    "name": "C4",
    "midi": 60,
    "time": 6.73227,
    "velocity": 0.7244094488188977,
    "duration": 0.82184875
  },
  {
    "name": "D5",
    "midi": 74,
    "time": 7.79526,
    "velocity": 0.7244094488188977,
    "duration": 0.07873999999999981
  },
  {
    "name": "A5",
    "midi": 81,
    "time": 8.14959,
    "velocity": 0.7244094488188977,
    "duration": 0.07873999999999981
  },
  {
    "name": "G#5",
    "midi": 80,
    "time": 8.503919999999999,
    "velocity": 0.7244094488188977,
    "duration": 0.07873999999999981
  },
  {
    "name": "A5",
    "midi": 81,
    "time": 8.622029999999999,
    "velocity": 0.7244094488188977,
    "duration": 0.07873999999999981
  },
  {
    "name": "G#5",
    "midi": 80,
    "time": 8.740139999999998,
    "velocity": 0.7244094488188977,
    "duration": 0.07873999999999981
  },
  {
    "name": "F5",
    "midi": 77,
    "time": 8.858249999999998,
    "velocity": 0.7244094488188977,
    "duration": 0.07873999999999981
  },
  {
    "name": "F5",
    "midi": 77,
    "time": 9.685019999999998,
    "velocity": 0.7244094488188977,
    "duration": 0.07873999999999981
  },
  {
    "name": "D5",
    "midi": 74,
    "time": 9.803129999999998,
    "velocity": 0.7244094488188977,
    "duration": 0.07873999999999981
  },
  {
    "name": "F4",
    "midi": 65,
    "time": 10.157459999999997,
    "velocity": 0.7244094488188977,
    "duration": 0.07873999999999981
  },
  {
    "name": "D4",
    "midi": 62,
    "time": 10.275569999999997,
    "velocity": 0.7244094488188977,
    "duration": 0.07873999999999981
  },
  {
    "name": "F5",
    "midi": 77,
    "time": 10.511789999999996,
    "velocity": 0.7244094488188977,
    "duration": 0.07873999999999981
  },
  {
    "name": "D5",
    "midi": 74,
    "time": 10.629899999999996,
    "velocity": 0.7244094488188977,
    "duration": 0.07873999999999981
  },
  {
    "name": "F5",
    "midi": 77,
    "time": 10.748009999999995,
    "velocity": 0.7244094488188977,
    "duration": 0.07873999999999981
  },
  {
    "name": "D5",
    "midi": 74,
    "time": 10.866119999999995,
    "velocity": 0.7244094488188977,
    "duration": 0.07873999999999981
  },
  {
    "name": "F5",
    "midi": 77,
    "time": 10.984229999999995,
    "velocity": 0.7244094488188977,
    "duration": 0.07873999999999981
  },
  {
    "name": "D5",
    "midi": 74,
    "time": 11.102339999999995,
    "velocity": 0.7244094488188977,
    "duration": 0.07873999999999981
  },
  {
    "name": "F5",
    "midi": 77,
    "time": 11.220449999999994,
    "velocity": 0.7244094488188977,
    "duration": 0.07873999999999981
  },
  {
    "name": "D5",
    "midi": 74,
    "time": 11.574779999999993,
    "velocity": 0.7244094488188977,
    "duration": 0.07873999999999981
  },
  {
    "name": "A5",
    "midi": 81,
    "time": 11.929109999999993,
    "velocity": 0.7244094488188977,
    "duration": 0.07873999999999981
  },
  {
    "name": "G#5",
    "midi": 80,
    "time": 12.283439999999992,
    "velocity": 0.7244094488188977,
    "duration": 0.07873999999999981
  },
  {
    "name": "A5",
    "midi": 81,
    "time": 12.401549999999991,
    "velocity": 0.7244094488188977,
    "duration": 0.07873999999999981
  },
  {
    "name": "G#5",
    "midi": 80,
    "time": 12.519659999999991,
    "velocity": 0.7244094488188977,
    "duration": 0.07873999999999981
  },
  {
    "name": "F5",
    "midi": 77,
    "time": 12.63776999999999,
    "velocity": 0.7244094488188977,
    "duration": 0.07873999999999981
  },
  {
    "name": "F5",
    "midi": 77,
    "time": 13.46453999999999,
    "velocity": 0.7244094488188977,
    "duration": 0.11318875000000084
  },
  {
    "name": "D5",
    "midi": 74,
    "time": 13.582649999999992,
    "velocity": 0.7244094488188977,
    "duration": 0.11318875000000084
  },
  {
    "name": "F4",
    "midi": 65,
    "time": 13.936979999999993,
    "velocity": 0.7244094488188977,
    "duration": 0.11318875000000084
  },
  {
    "name": "D4",
    "midi": 62,
    "time": 14.055089999999995,
    "velocity": 0.7244094488188977,
    "duration": 0.11318875000000084
  },
  {
    "name": "F5",
    "midi": 77,
    "time": 14.291309999999996,
    "velocity": 0.7244094488188977,
    "duration": 0.11318875000000084
  },
  {
    "name": "D5",
    "midi": 74,
    "time": 14.409419999999997,
    "velocity": 0.7244094488188977,
    "duration": 0.11318875000000084
  },
  {
    "name": "F5",
    "midi": 77,
    "time": 14.527529999999999,
    "velocity": 0.7244094488188977,
    "duration": 0.11318875000000084
  },
  {
    "name": "D5",
    "midi": 74,
    "time": 14.64564,
    "velocity": 0.7244094488188977,
    "duration": 0.11318875000000084
  },
  {
    "name": "F5",
    "midi": 77,
    "time": 14.763750000000002,
    "velocity": 0.7244094488188977,
    "duration": 0.11318875000000084
  },
  {
    "name": "D5",
    "midi": 74,
    "time": 14.881860000000003,
    "velocity": 0.7244094488188977,
    "duration": 0.11318875000000084
  },
  {
    "name": "F5",
    "midi": 77,
    "time": 14.999970000000005,
    "velocity": 0.7244094488188977,
    "duration": 0.11318875000000084
  },
  {
    "name": "C#5",
    "midi": 73,
    "time": 15.118080000000006,
    "velocity": 0.7244094488188977,
    "duration": 0.34940875000000027
  },
  {
    "name": "E5",
    "midi": 76,
    "time": 15.472410000000007,
    "velocity": 0.7244094488188977,
    "duration": 0.34940875000000027
  },
  {
    "name": "A#5",
    "midi": 82,
    "time": 15.826740000000008,
    "velocity": 0.7244094488188977,
    "duration": 0.11318875000000084
  },
  {
    "name": "A5",
    "midi": 81,
    "time": 16.062960000000007,
    "velocity": 0.7244094488188977,
    "duration": 0.3494087499999985
  },
  {
    "name": "F5",
    "midi": 77,
    "time": 16.417290000000005,
    "velocity": 0.7244094488188977,
    "duration": 0.3494087499999985
  },
  {
    "name": "D5",
    "midi": 74,
    "time": 16.771620000000002,
    "velocity": 0.7244094488188977,
    "duration": 0.11318874999999906
  },
  {
    "name": "C#5",
    "midi": 73,
    "time": 17.00784,
    "velocity": 0.7244094488188977,
    "duration": 0.3494087499999985
  },
  {
    "name": "E5",
    "midi": 76,
    "time": 17.36217,
    "velocity": 0.7244094488188977,
    "duration": 0.3494087499999985
  },
  {
    "name": "A#5",
    "midi": 82,
    "time": 17.716499999999996,
    "velocity": 0.7244094488188977,
    "duration": 0.11318874999999906
  },
  {
    "name": "A5",
    "midi": 81,
    "time": 17.952719999999996,
    "velocity": 0.7244094488188977,
    "duration": 0.3494087499999985
  },
  {
    "name": "D5",
    "midi": 74,
    "time": 18.307049999999993,
    "velocity": 0.7244094488188977,
    "duration": 0.11318874999999906
  },
  {
    "name": "C#5",
    "midi": 73,
    "time": 18.897599999999994,
    "velocity": 0.7244094488188977,
    "duration": 0.3494087499999985
  },
  {
    "name": "E5",
    "midi": 76,
    "time": 19.25192999999999,
    "velocity": 0.7244094488188977,
    "duration": 0.3494087499999985
  },
  {
    "name": "A#5",
    "midi": 82,
    "time": 19.60625999999999,
    "velocity": 0.7244094488188977,
    "duration": 0.11318874999999906
  },
  {
    "name": "A5",
    "midi": 81,
    "time": 19.842479999999988,
    "velocity": 0.7244094488188977,
    "duration": 0.3494087499999985
  },
  {
    "name": "F5",
    "midi": 77,
    "time": 20.196809999999985,
    "velocity": 0.7244094488188977,
    "duration": 0.3494087499999985
  },
  {
    "name": "D5",
    "midi": 74,
    "time": 20.551139999999982,
    "velocity": 0.7244094488188977,
    "duration": 0.11318874999999906
  },
  {
    "name": "E5",
    "midi": 76,
    "time": 20.787359999999982,
    "velocity": 0.7244094488188977,
    "duration": 0.3494087499999985
  },
  {
    "name": "G5",
    "midi": 79,
    "time": 21.14168999999998,
    "velocity": 0.7244094488188977,
    "duration": 0.3494087499999985
  },
  {
    "name": "A#5",
    "midi": 82,
    "time": 21.496019999999977,
    "velocity": 0.7244094488188977,
    "duration": 0.11318874999999906
  },
  {
    "name": "A5",
    "midi": 81,
    "time": 21.732239999999976,
    "velocity": 0.7244094488188977,
    "duration": 0.3494087499999985
  },
  {
    "name": "B5",
    "midi": 83,
    "time": 22.086569999999973,
    "velocity": 0.7244094488188977,
    "duration": 0.3494087499999985
  },
  {
    "name": "C#6",
    "midi": 85,
    "time": 22.44089999999997,
    "velocity": 0.7244094488188977,
    "duration": 0.11318874999999906
  },
  {
    "name": "D6",
    "midi": 86,
    "time": 22.67711999999997,
    "velocity": 0.7244094488188977,
    "duration": 0.11318874999999906
  },
  {
    "name": "D6",
    "midi": 86,
    "time": 22.795229999999968,
    "velocity": 0.7244094488188977,
    "duration": 0.11318874999999906
  },
  {
    "name": "D5",
    "midi": 74,
    "time": 22.913339999999966,
    "velocity": 0.7244094488188977,
    "duration": 0.11318874999999906
  },
  {
    "name": "D5",
    "midi": 74,
    "time": 23.031449999999964,
    "velocity": 0.7244094488188977,
    "duration": 1.4173200000000001
  },
  {
    "name": "A#3",
    "midi": 58,
    "time": 24.566879999999966,
    "velocity": 0.7244094488188977,
    "duration": 0.11318874999999906
  },
  {
    "name": "A#3",
    "midi": 58,
    "time": 24.803099999999965,
    "velocity": 0.7244094488188977,
    "duration": 0.11318874999999906
  },
  {
    "name": "D4",
    "midi": 62,
    "time": 25.039319999999964,
    "velocity": 0.7244094488188977,
    "duration": 0.11318874999999906
  },
  {
    "name": "F4",
    "midi": 65,
    "time": 25.157429999999962,
    "velocity": 0.7244094488188977,
    "duration": 0.3494087499999985
  },
  {
    "name": "C4",
    "midi": 60,
    "time": 25.51175999999996,
    "velocity": 0.7244094488188977,
    "duration": 0.11318874999999906
  },
  {
    "name": "C4",
    "midi": 60,
    "time": 25.74797999999996,
    "velocity": 0.7244094488188977,
    "duration": 0.11318874999999906
  },
  {
    "name": "E4",
    "midi": 64,
    "time": 25.98419999999996,
    "velocity": 0.7244094488188977,
    "duration": 0.11318874999999906
  },
  {
    "name": "G4",
    "midi": 67,
    "time": 26.102309999999957,
    "velocity": 0.7244094488188977,
    "duration": 0.3494087499999985
  },
  {
    "name": "D6",
    "midi": 86,
    "time": 26.456639999999954,
    "velocity": 0.7244094488188977,
    "duration": 0.11318874999999906
  },
  {
    "name": "D6",
    "midi": 86,
    "time": 26.574749999999952,
    "velocity": 0.7244094488188977,
    "duration": 0.11318874999999906
  },
  {
    "name": "D5",
    "midi": 74,
    "time": 26.69285999999995,
    "velocity": 0.7244094488188977,
    "duration": 0.11318874999999906
  },
  {
    "name": "D5",
    "midi": 74,
    "time": 26.810969999999948,
    "velocity": 0.7244094488188977,
    "duration": 1.4173200000000001
  },
  {
    "name": "A#3",
    "midi": 58,
    "time": 28.34639999999995,
    "velocity": 0.7244094488188977,
    "duration": 0.11318874999999906
  },
  {
    "name": "A#3",
    "midi": 58,
    "time": 28.58261999999995,
    "velocity": 0.7244094488188977,
    "duration": 0.11318874999999906
  },
  {
    "name": "D4",
    "midi": 62,
    "time": 28.81883999999995,
    "velocity": 0.7244094488188977,
    "duration": 0.11318874999999906
  },
  {
    "name": "F4",
    "midi": 65,
    "time": 28.936949999999946,
    "velocity": 0.7244094488188977,
    "duration": 0.3494087499999985
  },
  {
    "name": "C4",
    "midi": 60,
    "time": 29.291279999999944,
    "velocity": 0.7244094488188977,
    "duration": 0.11318874999999906
  },
  {
    "name": "A2",
    "midi": 45,
    "time": 29.763719999999942,
    "velocity": 0.7244094488188977,
    "duration": 0.11318874999999906
  },
  {
    "name": "C3",
    "midi": 48,
    "time": 29.88182999999994,
    "velocity": 0.7244094488188977,
    "duration": 0.3494087499999985
  },
  {
    "name": "D5",
    "midi": 74,
    "time": 30.236159999999938,
    "velocity": 0.7244094488188977,
    "duration": 0.11318874999999906
  },
  {
    "name": "D5",
    "midi": 74,
    "time": 30.354269999999936,
    "velocity": 0.7244094488188977,
    "duration": 0.11318874999999906
  },
  {
    "name": "C5",
    "midi": 72,
    "time": 30.590489999999935,
    "velocity": 0.7244094488188977,
    "duration": 0.11318874999999906
  },
  {
    "name": "B4",
    "midi": 71,
    "time": 30.826709999999935,
    "velocity": 0.7244094488188977,
    "duration": 0.6299199999999985
  },
  {
    "name": "D4",
    "midi": 62,
    "time": 31.535369999999933,
    "velocity": 0.7244094488188977,
    "duration": 0.23129875000000055
  },
  {
    "name": "E4",
    "midi": 64,
    "time": 31.771589999999932,
    "velocity": 0.7244094488188977,
    "duration": 0.11318874999999906
  },
  {
    "name": "F4",
    "midi": 65,
    "time": 31.88969999999993,
    "velocity": 0.7244094488188977,
    "duration": 0.11318875000000261
  },
  {
    "name": "G4",
    "midi": 67,
    "time": 32.007809999999935,
    "velocity": 0.7244094488188977,
    "duration": 0.11318874999999906
  },
  {
    "name": "A4",
    "midi": 69,
    "time": 32.12591999999994,
    "velocity": 0.7244094488188977,
    "duration": 0.34940875000000204
  },
  {
    "name": "D4",
    "midi": 62,
    "time": 32.48024999999994,
    "velocity": 0.7244094488188977,
    "duration": 0.34940875000000204
  },
  {
    "name": "A4",
    "midi": 69,
    "time": 32.834579999999946,
    "velocity": 0.7244094488188977,
    "duration": 0.23129875000000055
  },
  {
    "name": "G4",
    "midi": 67,
    "time": 33.07079999999995,
    "velocity": 0.7244094488188977,
    "duration": 0.11318874999999906
  },
  {
    "name": "C5",
    "midi": 72,
    "time": 33.18890999999995,
    "velocity": 0.7244094488188977,
    "duration": 0.8218487500000009
  },
  {
    "name": "D5",
    "midi": 74,
    "time": 34.01567999999995,
    "velocity": 0.7244094488188977,
    "duration": 0.11318874999999906
  },
  {
    "name": "D5",
    "midi": 74,
    "time": 34.133789999999955,
    "velocity": 0.7244094488188977,
    "duration": 0.11318874999999906
  },
  {
    "name": "C5",
    "midi": 72,
    "time": 34.37000999999995,
    "velocity": 0.7244094488188977,
    "duration": 0.11318874999999906
  },
  {
    "name": "B4",
    "midi": 71,
    "time": 34.60622999999995,
    "velocity": 0.7244094488188977,
    "duration": 0.6299199999999985
  },
  {
    "name": "D4",
    "midi": 62,
    "time": 35.31488999999995,
    "velocity": 0.7244094488188977,
    "duration": 0.23129875000000055
  },
  {
    "name": "E4",
    "midi": 64,
    "time": 35.55110999999995,
    "velocity": 0.7244094488188977,
    "duration": 0.11318874999999906
  },
  {
    "name": "F4",
    "midi": 65,
    "time": 35.66921999999995,
    "velocity": 0.7244094488188977,
    "duration": 0.11318874999999906
  },
  {
    "name": "G4",
    "midi": 67,
    "time": 35.787329999999955,
    "velocity": 0.7244094488188977,
    "duration": 0.11318874999999906
  },
  {
    "name": "A4",
    "midi": 69,
    "time": 35.905439999999956,
    "velocity": 0.7244094488188977,
    "duration": 0.34940875000000204
  },
  {
    "name": "D4",
    "midi": 62,
    "time": 36.25976999999996,
    "velocity": 0.7244094488188977,
    "duration": 0.34940875000000204
  },
  {
    "name": "A4",
    "midi": 69,
    "time": 36.614099999999965,
    "velocity": 0.7244094488188977,
    "duration": 0.23129875000000055
  },
  {
    "name": "G4",
    "midi": 67,
    "time": 36.85031999999997,
    "velocity": 0.7244094488188977,
    "duration": 0.11318874999999906
  },
  {
    "name": "C4",
    "midi": 60,
    "time": 36.96842999999997,
    "velocity": 0.7244094488188977,
    "duration": 0.8218487500000009
  },
  {
    "name": "D5",
    "midi": 74,
    "time": 38.031419999999976,
    "velocity": 0.7244094488188977,
    "duration": 0.07874000000000336
  },
  {
    "name": "A5",
    "midi": 81,
    "time": 38.38574999999998,
    "velocity": 0.7244094488188977,
    "duration": 0.07874000000000336
  },
  {
    "name": "G#5",
    "midi": 80,
    "time": 38.740079999999985,
    "velocity": 0.7244094488188977,
    "duration": 0.07874000000000336
  },
  {
    "name": "A5",
    "midi": 81,
    "time": 38.858189999999986,
    "velocity": 0.7244094488188977,
    "duration": 0.07874000000000336
  },
  {
    "name": "G#5",
    "midi": 80,
    "time": 38.97629999999999,
    "velocity": 0.7244094488188977,
    "duration": 0.07874000000000336
  },
  {
    "name": "F5",
    "midi": 77,
    "time": 39.09440999999999,
    "velocity": 0.7244094488188977,
    "duration": 0.07874000000000336
  },
  {
    "name": "F5",
    "midi": 77,
    "time": 39.92117999999999,
    "velocity": 0.7244094488188977,
    "duration": 0.07874000000000336
  },
  {
    "name": "D5",
    "midi": 74,
    "time": 40.039289999999994,
    "velocity": 0.7244094488188977,
    "duration": 0.07874000000000336
  },
  {
    "name": "F4",
    "midi": 65,
    "time": 40.39362,
    "velocity": 0.7244094488188977,
    "duration": 0.07874000000000336
  },
  {
    "name": "D4",
    "midi": 62,
    "time": 40.51173,
    "velocity": 0.7244094488188977,
    "duration": 0.07874000000000336
  },
  {
    "name": "F5",
    "midi": 77,
    "time": 40.74795,
    "velocity": 0.7244094488188977,
    "duration": 0.07874000000000336
  },
  {
    "name": "D5",
    "midi": 74,
    "time": 40.866060000000004,
    "velocity": 0.7244094488188977,
    "duration": 0.07874000000000336
  },
  {
    "name": "F5",
    "midi": 77,
    "time": 40.984170000000006,
    "velocity": 0.7244094488188977,
    "duration": 0.07874000000000336
  },
  {
    "name": "D5",
    "midi": 74,
    "time": 41.10228000000001,
    "velocity": 0.7244094488188977,
    "duration": 0.07874000000000336
  },
  {
    "name": "F5",
    "midi": 77,
    "time": 41.22039000000001,
    "velocity": 0.7244094488188977,
    "duration": 0.07874000000000336
  },
  {
    "name": "D5",
    "midi": 74,
    "time": 41.33850000000001,
    "velocity": 0.7244094488188977,
    "duration": 0.07874000000000336
  },
  {
    "name": "F5",
    "midi": 77,
    "time": 41.45661000000001,
    "velocity": 0.7244094488188977,
    "duration": 0.07874000000000336
  },
  {
    "name": "D5",
    "midi": 74,
    "time": 41.810940000000016,
    "velocity": 0.7244094488188977,
    "duration": 0.07874000000000336
  },
  {
    "name": "A5",
    "midi": 81,
    "time": 42.16527000000002,
    "velocity": 0.7244094488188977,
    "duration": 0.07874000000000336
  },
  {
    "name": "G#5",
    "midi": 80,
    "time": 42.519600000000025,
    "velocity": 0.7244094488188977,
    "duration": 0.07874000000000336
  },
  {
    "name": "A5",
    "midi": 81,
    "time": 42.63771000000003,
    "velocity": 0.7244094488188977,
    "duration": 0.07874000000000336
  },
  {
    "name": "G#5",
    "midi": 80,
    "time": 42.75582000000003,
    "velocity": 0.7244094488188977,
    "duration": 0.07874000000000336
  },
  {
    "name": "F5",
    "midi": 77,
    "time": 42.87393000000003,
    "velocity": 0.7244094488188977,
    "duration": 0.07874000000000336
  },
  {
    "name": "F5",
    "midi": 77,
    "time": 43.70070000000003,
    "velocity": 0.7244094488188977,
    "duration": 0.11318874999999906
  },
  {
    "name": "D5",
    "midi": 74,
    "time": 43.818810000000035,
    "velocity": 0.7244094488188977,
    "duration": 0.11318874999999906
  },
  {
    "name": "F4",
    "midi": 65,
    "time": 44.17314000000003,
    "velocity": 0.7244094488188977,
    "duration": 0.11318874999999906
  },
  {
    "name": "D4",
    "midi": 62,
    "time": 44.29125000000003,
    "velocity": 0.7244094488188977,
    "duration": 0.11318874999999906
  },
  {
    "name": "F5",
    "midi": 77,
    "time": 44.52747000000003,
    "velocity": 0.7244094488188977,
    "duration": 0.11318874999999906
  },
  {
    "name": "D5",
    "midi": 74,
    "time": 44.64558000000003,
    "velocity": 0.7244094488188977,
    "duration": 0.11318874999999906
  },
  {
    "name": "F5",
    "midi": 77,
    "time": 44.76369000000003,
    "velocity": 0.7244094488188977,
    "duration": 0.11318874999999906
  },
  {
    "name": "D5",
    "midi": 74,
    "time": 44.881800000000034,
    "velocity": 0.7244094488188977,
    "duration": 0.11318874999999906
  },
  {
    "name": "F5",
    "midi": 77,
    "time": 44.999910000000035,
    "velocity": 0.7244094488188977,
    "duration": 0.11318874999999906
  },
  {
    "name": "D5",
    "midi": 74,
    "time": 45.11802000000004,
    "velocity": 0.7244094488188977,
    "duration": 0.11318874999999906
  },
  {
    "name": "F5",
    "midi": 77,
    "time": 45.23613000000004,
    "velocity": 0.7244094488188977,
    "duration": 0.11318874999999906
  },
  {
    "name": "C#5",
    "midi": 73,
    "time": 45.35424000000004,
    "velocity": 0.7244094488188977,
    "duration": 0.34940875000000204
  },
  {
    "name": "E5",
    "midi": 76,
    "time": 45.708570000000044,
    "velocity": 0.7244094488188977,
    "duration": 0.34940875000000204
  },
  {
    "name": "A#5",
    "midi": 82,
    "time": 46.06290000000005,
    "velocity": 0.7244094488188977,
    "duration": 0.11318874999999906
  },
  {
    "name": "A5",
    "midi": 81,
    "time": 46.299120000000045,
    "velocity": 0.7244094488188977,
    "duration": 0.34940875000000204
  },
  {
    "name": "F5",
    "midi": 77,
    "time": 46.65345000000005,
    "velocity": 0.7244094488188977,
    "duration": 0.34940875000000204
  },
  {
    "name": "D5",
    "midi": 74,
    "time": 47.007780000000054,
    "velocity": 0.7244094488188977,
    "duration": 0.11318874999999906
  },
  {
    "name": "C#5",
    "midi": 73,
    "time": 47.24400000000005,
    "velocity": 0.7244094488188977,
    "duration": 0.34940875000000204
  },
  {
    "name": "E5",
    "midi": 76,
    "time": 47.598330000000054,
    "velocity": 0.7244094488188977,
    "duration": 0.34940875000000204
  },
  {
    "name": "A#5",
    "midi": 82,
    "time": 47.95266000000006,
    "velocity": 0.7244094488188977,
    "duration": 0.11318874999999906
  },
  {
    "name": "A5",
    "midi": 81,
    "time": 48.188880000000054,
    "velocity": 0.7244094488188977,
    "duration": 0.34940875000000204
  },
  {
    "name": "D5",
    "midi": 74,
    "time": 48.54321000000006,
    "velocity": 0.7244094488188977,
    "duration": 0.11318874999999906
  },
  {
    "name": "C#5",
    "midi": 73,
    "time": 49.13376000000006,
    "velocity": 0.7244094488188977,
    "duration": 0.34940875000000204
  },
  {
    "name": "E5",
    "midi": 76,
    "time": 49.488090000000064,
    "velocity": 0.7244094488188977,
    "duration": 0.34940875000000204
  },
  {
    "name": "A#5",
    "midi": 82,
    "time": 49.84242000000007,
    "velocity": 0.7244094488188977,
    "duration": 0.11318874999999906
  },
  {
    "name": "A5",
    "midi": 81,
    "time": 50.078640000000064,
    "velocity": 0.7244094488188977,
    "duration": 0.34940875000000204
  },
  {
    "name": "F5",
    "midi": 77,
    "time": 50.43297000000007,
    "velocity": 0.7244094488188977,
    "duration": 0.34940875000000204
  },
  {
    "name": "D5",
    "midi": 74,
    "time": 50.78730000000007,
    "velocity": 0.7244094488188977,
    "duration": 0.11318874999999906
  },
  {
    "name": "E5",
    "midi": 76,
    "time": 51.02352000000007,
    "velocity": 0.7244094488188977,
    "duration": 0.34940875000000204
  },
  {
    "name": "G5",
    "midi": 79,
    "time": 51.37785000000007,
    "velocity": 0.7244094488188977,
    "duration": 0.34940875000000204
  },
  {
    "name": "A#5",
    "midi": 82,
    "time": 51.73218000000008,
    "velocity": 0.7244094488188977,
    "duration": 0.11318874999999906
  },
  {
    "name": "A5",
    "midi": 81,
    "time": 51.968400000000074,
    "velocity": 0.7244094488188977,
    "duration": 0.34940875000000204
  },
  {
    "name": "B5",
    "midi": 83,
    "time": 52.32273000000008,
    "velocity": 0.7244094488188977,
    "duration": 0.34940875000000204
  },
  {
    "name": "C#6",
    "midi": 85,
    "time": 52.67706000000008,
    "velocity": 0.7244094488188977,
    "duration": 0.11318874999999906
  },
  {
    "name": "D6",
    "midi": 86,
    "time": 52.91328000000008,
    "velocity": 0.7244094488188977,
    "duration": 0.11318874999999906
  },
  {
    "name": "D6",
    "midi": 86,
    "time": 53.03139000000008,
    "velocity": 0.7244094488188977,
    "duration": 0.11318874999999906
  },
  {
    "name": "D5",
    "midi": 74,
    "time": 53.14950000000008,
    "velocity": 0.7244094488188977,
    "duration": 0.11318874999999906
  },
  {
    "name": "D5",
    "midi": 74,
    "time": 53.26761000000008,
    "velocity": 0.7244094488188977,
    "duration": 1.4173199999999966
  },
  {
    "name": "A#3",
    "midi": 58,
    "time": 54.80304000000008,
    "velocity": 0.7244094488188977,
    "duration": 0.11318874999999906
  },
  {
    "name": "A#3",
    "midi": 58,
    "time": 55.03926000000008,
    "velocity": 0.7244094488188977,
    "duration": 0.11318874999999906
  },
  {
    "name": "D4",
    "midi": 62,
    "time": 55.27548000000007,
    "velocity": 0.7244094488188977,
    "duration": 0.11318874999999906
  },
  {
    "name": "F4",
    "midi": 65,
    "time": 55.393590000000074,
    "velocity": 0.7244094488188977,
    "duration": 0.34940875000000204
  },
  {
    "name": "C4",
    "midi": 60,
    "time": 55.74792000000008,
    "velocity": 0.7244094488188977,
    "duration": 0.11318874999999906
  },
  {
    "name": "C4",
    "midi": 60,
    "time": 55.984140000000075,
    "velocity": 0.7244094488188977,
    "duration": 0.11318874999999906
  },
  {
    "name": "E4",
    "midi": 64,
    "time": 56.22036000000007,
    "velocity": 0.7244094488188977,
    "duration": 0.11318874999999906
  },
  {
    "name": "G4",
    "midi": 67,
    "time": 56.33847000000007,
    "velocity": 0.7244094488188977,
    "duration": 0.34940875000000204
  },
  {
    "name": "D6",
    "midi": 86,
    "time": 56.69280000000008,
    "velocity": 0.7244094488188977,
    "duration": 0.11318874999999906
  },
  {
    "name": "D6",
    "midi": 86,
    "time": 56.81091000000008,
    "velocity": 0.7244094488188977,
    "duration": 0.11318874999999906
  },
  {
    "name": "D5",
    "midi": 74,
    "time": 56.92902000000008,
    "velocity": 0.7244094488188977,
    "duration": 0.11318874999999906
  },
  {
    "name": "D5",
    "midi": 74,
    "time": 57.04713000000008,
    "velocity": 0.7244094488188977,
    "duration": 1.4173199999999966
  },
  {
    "name": "A#3",
    "midi": 58,
    "time": 58.58256000000008,
    "velocity": 0.7244094488188977,
    "duration": 0.11318874999999906
  },
  {
    "name": "A#3",
    "midi": 58,
    "time": 58.818780000000075,
    "velocity": 0.7244094488188977,
    "duration": 0.11318874999999906
  },
  {
    "name": "D4",
    "midi": 62,
    "time": 59.05500000000007,
    "velocity": 0.7244094488188977,
    "duration": 0.11318874999999906
  },
  {
    "name": "F4",
    "midi": 65,
    "time": 59.17311000000007,
    "velocity": 0.7244094488188977,
    "duration": 0.34940875000000204
  },
  {
    "name": "C4",
    "midi": 60,
    "time": 59.52744000000008,
    "velocity": 0.7244094488188977,
    "duration": 0.11318874999999906
  },
  {
    "name": "A2",
    "midi": 45,
    "time": 59.999880000000076,
    "velocity": 0.7244094488188977,
    "duration": 0.11318874999999906
  },
  {
    "name": "C3",
    "midi": 48,
    "time": 60.11799000000008,
    "velocity": 0.7244094488188977,
    "duration": 0.34940875000000204
  },
  {
    "name": "D5",
    "midi": 74,
    "time": 60.47232000000008,
    "velocity": 0.7244094488188977,
    "duration": 0.11318874999999906
  },
  {
    "name": "D5",
    "midi": 74,
    "time": 60.59043000000008,
    "velocity": 0.7244094488188977,
    "duration": 0.11318874999999906
  },
  {
    "name": "C5",
    "midi": 72,
    "time": 60.82665000000008,
    "velocity": 0.7244094488188977,
    "duration": 0.11318874999999906
  },
  {
    "name": "B4",
    "midi": 71,
    "time": 61.062870000000075,
    "velocity": 0.7244094488188977,
    "duration": 0.6299199999999985
  },
  {
    "name": "D4",
    "midi": 62,
    "time": 61.77153000000008,
    "velocity": 0.7244094488188977,
    "duration": 0.23129875000000055
  },
  {
    "name": "E4",
    "midi": 64,
    "time": 62.00775000000008,
    "velocity": 0.7244094488188977,
    "duration": 0.11318874999999906
  },
  {
    "name": "F4",
    "midi": 65,
    "time": 62.12586000000008,
    "velocity": 0.7244094488188977,
    "duration": 0.11318874999999906
  },
  {
    "name": "G4",
    "midi": 67,
    "time": 62.24397000000008,
    "velocity": 0.7244094488188977,
    "duration": 0.11318874999999906
  },
  {
    "name": "A4",
    "midi": 69,
    "time": 62.362080000000084,
    "velocity": 0.7244094488188977,
    "duration": 0.34940875000000204
  },
  {
    "name": "D4",
    "midi": 62,
    "time": 62.71641000000009,
    "velocity": 0.7244094488188977,
    "duration": 0.34940875000000204
  },
  {
    "name": "A4",
    "midi": 69,
    "time": 63.07074000000009,
    "velocity": 0.7244094488188977,
    "duration": 0.23129875000000055
  },
  {
    "name": "G4",
    "midi": 67,
    "time": 63.306960000000096,
    "velocity": 0.7244094488188977,
    "duration": 0.11318874999999906
  },
  {
    "name": "C5",
    "midi": 72,
    "time": 63.4250700000001,
    "velocity": 0.7244094488188977,
    "duration": 0.8218487499999938
  },
  {
    "name": "D5",
    "midi": 74,
    "time": 64.25184000000009,
    "velocity": 0.7244094488188977,
    "duration": 0.11318875000000617
  },
  {
    "name": "D5",
    "midi": 74,
    "time": 64.36995000000009,
    "velocity": 0.7244094488188977,
    "duration": 0.11318875000000617
  },
  {
    "name": "C5",
    "midi": 72,
    "time": 64.60617000000009,
    "velocity": 0.7244094488188977,
    "duration": 0.11318875000000617
  },
  {
    "name": "B4",
    "midi": 71,
    "time": 64.8423900000001,
    "velocity": 0.7244094488188977,
    "duration": 0.6299199999999985
  },
  {
    "name": "D4",
    "midi": 62,
    "time": 65.55105000000009,
    "velocity": 0.7244094488188977,
    "duration": 0.23129874999999345
  },
  {
    "name": "E4",
    "midi": 64,
    "time": 65.78727000000008,
    "velocity": 0.7244094488188977,
    "duration": 0.11318875000000617
  },
  {
    "name": "F4",
    "midi": 65,
    "time": 65.90538000000008,
    "velocity": 0.7244094488188977,
    "duration": 0.11318875000000617
  },
  {
    "name": "G4",
    "midi": 67,
    "time": 66.02349000000008,
    "velocity": 0.7244094488188977,
    "duration": 0.11318875000000617
  },
  {
    "name": "A4",
    "midi": 69,
    "time": 66.14160000000008,
    "velocity": 0.7244094488188977,
    "duration": 0.34940874999999494
  },
  {
    "name": "D4",
    "midi": 62,
    "time": 66.49593000000007,
    "velocity": 0.7244094488188977,
    "duration": 0.34940874999999494
  },
  {
    "name": "A4",
    "midi": 69,
    "time": 66.85026000000006,
    "velocity": 0.7244094488188977,
    "duration": 0.23129874999999345
  },
  {
    "name": "G4",
    "midi": 67,
    "time": 67.08648000000005,
    "velocity": 0.7244094488188977,
    "duration": 0.11318875000000617
  },
  {
    "name": "C4",
    "midi": 60,
    "time": 67.20459000000005,
    "velocity": 0.7244094488188977,
    "duration": 0.8218487500000009
  },
  {
    "name": "D5",
    "midi": 74,
    "time": 68.26758000000005,
    "velocity": 0.7244094488188977,
    "duration": 0.07873999999999626
  },
  {
    "name": "A5",
    "midi": 81,
    "time": 68.62191000000004,
    "velocity": 0.7244094488188977,
    "duration": 0.07873999999999626
  },
  {
    "name": "G#5",
    "midi": 80,
    "time": 68.97624000000003,
    "velocity": 0.7244094488188977,
    "duration": 0.07873999999999626
  },
  {
    "name": "A5",
    "midi": 81,
    "time": 69.09435000000003,
    "velocity": 0.7244094488188977,
    "duration": 0.07873999999999626
  },
  {
    "name": "G#5",
    "midi": 80,
    "time": 69.21246000000004,
    "velocity": 0.7244094488188977,
    "duration": 0.07873999999999626
  },
  {
    "name": "F5",
    "midi": 77,
    "time": 69.33057000000004,
    "velocity": 0.7244094488188977,
    "duration": 0.07873999999999626
  },
  {
    "name": "F5",
    "midi": 77,
    "time": 70.15734000000003,
    "velocity": 0.7244094488188977,
    "duration": 0.07873999999999626
  },
  {
    "name": "D5",
    "midi": 74,
    "time": 70.27545000000003,
    "velocity": 0.7244094488188977,
    "duration": 0.07873999999999626
  },
  {
    "name": "F4",
    "midi": 65,
    "time": 70.62978000000003,
    "velocity": 0.7244094488188977,
    "duration": 0.07873999999999626
  },
  {
    "name": "D4",
    "midi": 62,
    "time": 70.74789000000003,
    "velocity": 0.7244094488188977,
    "duration": 0.07873999999999626
  },
  {
    "name": "F5",
    "midi": 77,
    "time": 70.98411000000003,
    "velocity": 0.7244094488188977,
    "duration": 0.07873999999999626
  },
  {
    "name": "D5",
    "midi": 74,
    "time": 71.10222000000003,
    "velocity": 0.7244094488188977,
    "duration": 0.07873999999999626
  },
  {
    "name": "F5",
    "midi": 77,
    "time": 71.22033000000003,
    "velocity": 0.7244094488188977,
    "duration": 0.07873999999999626
  },
  {
    "name": "D5",
    "midi": 74,
    "time": 71.33844000000003,
    "velocity": 0.7244094488188977,
    "duration": 0.07873999999999626
  },
  {
    "name": "F5",
    "midi": 77,
    "time": 71.45655000000004,
    "velocity": 0.7244094488188977,
    "duration": 0.07873999999999626
  },
  {
    "name": "D5",
    "midi": 74,
    "time": 71.57466000000004,
    "velocity": 0.7244094488188977,
    "duration": 0.07873999999999626
  },
  {
    "name": "F5",
    "midi": 77,
    "time": 71.69277000000004,
    "velocity": 0.7244094488188977,
    "duration": 0.07873999999999626
  },
  {
    "name": "D5",
    "midi": 74,
    "time": 72.04710000000003,
    "velocity": 0.7244094488188977,
    "duration": 0.07873999999999626
  },
  {
    "name": "A5",
    "midi": 81,
    "time": 72.40143000000002,
    "velocity": 0.7244094488188977,
    "duration": 0.07873999999999626
  },
  {
    "name": "G#5",
    "midi": 80,
    "time": 72.75576000000001,
    "velocity": 0.7244094488188977,
    "duration": 0.07873999999999626
  },
  {
    "name": "A5",
    "midi": 81,
    "time": 72.87387000000001,
    "velocity": 0.7244094488188977,
    "duration": 0.07873999999999626
  },
  {
    "name": "G#5",
    "midi": 80,
    "time": 72.99198000000001,
    "velocity": 0.7244094488188977,
    "duration": 0.07873999999999626
  },
  {
    "name": "F5",
    "midi": 77,
    "time": 73.11009000000001,
    "velocity": 0.7244094488188977,
    "duration": 0.07873999999999626
  },
  {
    "name": "F5",
    "midi": 77,
    "time": 73.93686000000001,
    "velocity": 0.7244094488188977,
    "duration": 0.11318875000000617
  },
  {
    "name": "D5",
    "midi": 74,
    "time": 74.05497000000001,
    "velocity": 0.7244094488188977,
    "duration": 0.11318875000000617
  },
  {
    "name": "F4",
    "midi": 65,
    "time": 74.40930000000002,
    "velocity": 0.7244094488188977,
    "duration": 0.11318875000000617
  },
  {
    "name": "D4",
    "midi": 62,
    "time": 74.52741000000002,
    "velocity": 0.7244094488188977,
    "duration": 0.11318875000000617
  },
  {
    "name": "F5",
    "midi": 77,
    "time": 74.76363000000002,
    "velocity": 0.7244094488188977,
    "duration": 0.11318875000000617
  },
  {
    "name": "D5",
    "midi": 74,
    "time": 74.88174000000002,
    "velocity": 0.7244094488188977,
    "duration": 0.11318875000000617
  },
  {
    "name": "F5",
    "midi": 77,
    "time": 74.99985000000002,
    "velocity": 0.7244094488188977,
    "duration": 0.11318875000000617
  },
  {
    "name": "D5",
    "midi": 74,
    "time": 75.11796000000002,
    "velocity": 0.7244094488188977,
    "duration": 0.11318875000000617
  },
  {
    "name": "F5",
    "midi": 77,
    "time": 75.23607000000003,
    "velocity": 0.7244094488188977,
    "duration": 0.11318875000000617
  },
  {
    "name": "D5",
    "midi": 74,
    "time": 75.35418000000003,
    "velocity": 0.7244094488188977,
    "duration": 0.11318875000000617
  },
  {
    "name": "F5",
    "midi": 77,
    "time": 75.47229000000003,
    "velocity": 0.7244094488188977,
    "duration": 0.11318875000000617
  },
  {
    "name": "C#5",
    "midi": 73,
    "time": 75.59040000000003,
    "velocity": 0.7244094488188977,
    "duration": 0.34940874999999494
  },
  {
    "name": "E5",
    "midi": 76,
    "time": 75.94473000000002,
    "velocity": 0.7244094488188977,
    "duration": 0.34940874999999494
  },
  {
    "name": "A#5",
    "midi": 82,
    "time": 76.29906000000001,
    "velocity": 0.7244094488188977,
    "duration": 0.11318875000000617
  },
  {
    "name": "A5",
    "midi": 81,
    "time": 76.53528000000001,
    "velocity": 0.7244094488188977,
    "duration": 0.34940874999999494
  },
  {
    "name": "F5",
    "midi": 77,
    "time": 76.88961,
    "velocity": 0.7244094488188977,
    "duration": 0.34940874999999494
  },
  {
    "name": "D5",
    "midi": 74,
    "time": 77.24394,
    "velocity": 0.7244094488188977,
    "duration": 0.11318875000000617
  },
  {
    "name": "C#5",
    "midi": 73,
    "time": 77.48016,
    "velocity": 0.7244094488188977,
    "duration": 0.34940874999999494
  },
  {
    "name": "E5",
    "midi": 76,
    "time": 77.83448999999999,
    "velocity": 0.7244094488188977,
    "duration": 0.34940874999999494
  },
  {
    "name": "A#5",
    "midi": 82,
    "time": 78.18881999999998,
    "velocity": 0.7244094488188977,
    "duration": 0.11318875000000617
  },
  {
    "name": "A5",
    "midi": 81,
    "time": 78.42503999999998,
    "velocity": 0.7244094488188977,
    "duration": 0.34940874999999494
  },
  {
    "name": "D5",
    "midi": 74,
    "time": 78.77936999999997,
    "velocity": 0.7244094488188977,
    "duration": 0.11318875000000617
  },
  {
    "name": "C#5",
    "midi": 73,
    "time": 79.36991999999998,
    "velocity": 0.7244094488188977,
    "duration": 0.34940874999999494
  },
  {
    "name": "E5",
    "midi": 76,
    "time": 79.72424999999997,
    "velocity": 0.7244094488188977,
    "duration": 0.34940874999999494
  },
  {
    "name": "A#5",
    "midi": 82,
    "time": 80.07857999999996,
    "velocity": 0.7244094488188977,
    "duration": 0.11318875000000617
  },
  {
    "name": "A5",
    "midi": 81,
    "time": 80.31479999999996,
    "velocity": 0.7244094488188977,
    "duration": 0.34940874999999494
  },
  {
    "name": "F5",
    "midi": 77,
    "time": 80.66912999999995,
    "velocity": 0.7244094488188977,
    "duration": 0.34940874999999494
  },
  {
    "name": "D5",
    "midi": 74,
    "time": 81.02345999999994,
    "velocity": 0.7244094488188977,
    "duration": 0.11318875000000617
  },
  {
    "name": "E5",
    "midi": 76,
    "time": 81.25967999999995,
    "velocity": 0.7244094488188977,
    "duration": 0.34940874999999494
  },
  {
    "name": "G5",
    "midi": 79,
    "time": 81.61400999999994,
    "velocity": 0.7244094488188977,
    "duration": 0.34940874999999494
  },
  {
    "name": "A#5",
    "midi": 82,
    "time": 81.96833999999993,
    "velocity": 0.7244094488188977,
    "duration": 0.11318875000000617
  },
  {
    "name": "A5",
    "midi": 81,
    "time": 82.20455999999993,
    "velocity": 0.7244094488188977,
    "duration": 0.34940874999999494
  },
  {
    "name": "B5",
    "midi": 83,
    "time": 82.55888999999992,
    "velocity": 0.7244094488188977,
    "duration": 0.34940874999999494
  },
  {
    "name": "C#6",
    "midi": 85,
    "time": 82.91321999999991,
    "velocity": 0.7244094488188977,
    "duration": 0.11318875000000617
  },
  {
    "name": "D6",
    "midi": 86,
    "time": 83.14943999999991,
    "velocity": 0.7244094488188977,
    "duration": 0.11318875000000617
  },
  {
    "name": "D6",
    "midi": 86,
    "time": 83.26754999999991,
    "velocity": 0.7244094488188977,
    "duration": 0.11318875000000617
  },
  {
    "name": "D5",
    "midi": 74,
    "time": 83.38565999999992,
    "velocity": 0.7244094488188977,
    "duration": 0.11318875000000617
  },
  {
    "name": "D5",
    "midi": 74,
    "time": 83.50376999999992,
    "velocity": 0.7244094488188977,
    "duration": 1.4173200000000037
  },
  {
    "name": "A#3",
    "midi": 58,
    "time": 85.03919999999992,
    "velocity": 0.7244094488188977,
    "duration": 0.11318875000000617
  },
  {
    "name": "A#3",
    "midi": 58,
    "time": 85.27541999999993,
    "velocity": 0.7244094488188977,
    "duration": 0.11318875000000617
  },
  {
    "name": "D4",
    "midi": 62,
    "time": 85.51163999999993,
    "velocity": 0.7244094488188977,
    "duration": 0.11318875000000617
  },
  {
    "name": "F4",
    "midi": 65,
    "time": 85.62974999999993,
    "velocity": 0.7244094488188977,
    "duration": 0.34940874999999494
  },
  {
    "name": "C4",
    "midi": 60,
    "time": 85.98407999999992,
    "velocity": 0.7244094488188977,
    "duration": 0.11318875000000617
  },
  {
    "name": "C4",
    "midi": 60,
    "time": 86.22029999999992,
    "velocity": 0.7244094488188977,
    "duration": 0.11318875000000617
  },
  {
    "name": "E4",
    "midi": 64,
    "time": 86.45651999999993,
    "velocity": 0.7244094488188977,
    "duration": 0.11318875000000617
  },
  {
    "name": "G4",
    "midi": 67,
    "time": 86.57462999999993,
    "velocity": 0.7244094488188977,
    "duration": 0.34940874999999494
  },
  {
    "name": "D6",
    "midi": 86,
    "time": 86.92895999999992,
    "velocity": 0.7244094488188977,
    "duration": 0.11318875000000617
  },
  {
    "name": "D6",
    "midi": 86,
    "time": 87.04706999999992,
    "velocity": 0.7244094488188977,
    "duration": 0.11318875000000617
  },
  {
    "name": "D5",
    "midi": 74,
    "time": 87.16517999999992,
    "velocity": 0.7244094488188977,
    "duration": 0.11318875000000617
  },
  {
    "name": "D5",
    "midi": 74,
    "time": 87.28328999999992,
    "velocity": 0.7244094488188977,
    "duration": 1.4173200000000037
  },
  {
    "name": "A#3",
    "midi": 58,
    "time": 88.81871999999993,
    "velocity": 0.7244094488188977,
    "duration": 0.11318875000000617
  },
  {
    "name": "A#3",
    "midi": 58,
    "time": 89.05493999999993,
    "velocity": 0.7244094488188977,
    "duration": 0.11318875000000617
  },
  {
    "name": "D4",
    "midi": 62,
    "time": 89.29115999999993,
    "velocity": 0.7244094488188977,
    "duration": 0.11318875000000617
  },
  {
    "name": "F4",
    "midi": 65,
    "time": 89.40926999999994,
    "velocity": 0.7244094488188977,
    "duration": 0.34940874999999494
  },
  {
    "name": "C4",
    "midi": 60,
    "time": 89.76359999999993,
    "velocity": 0.7244094488188977,
    "duration": 0.11318875000000617
  },
  {
    "name": "A2",
    "midi": 45,
    "time": 90.23603999999993,
    "velocity": 0.7244094488188977,
    "duration": 0.11318875000000617
  },
  {
    "name": "C3",
    "midi": 48,
    "time": 90.35414999999993,
    "velocity": 0.7244094488188977,
    "duration": 0.34940874999999494
  }
];