export let bass1 = [
        {
          "name": "E2",
          "midi": 40,
          "time": 0,
          "velocity": 1,
          "duration": 0.18292650000000002
        },
        {
          "name": "E2",
          "midi": 40,
          "time": 0.18292650000000002,
          "velocity": 1,
          "duration": 0.18292650000000002
        },
        {
          "name": "E2",
          "midi": 40,
          "time": 0.36585300000000004,
          "velocity": 1,
          "duration": 0.18292650000000005
        },
        {
          "name": "E2",
          "midi": 40,
          "time": 0.5487795000000001,
          "velocity": 1,
          "duration": 0.1829265
        },
        {
          "name": "E2",
          "midi": 40,
          "time": 0.7317060000000001,
          "velocity": 1,
          "duration": 0.1829265
        },
        {
          "name": "E2",
          "midi": 40,
          "time": 0.9146325000000001,
          "velocity": 1,
          "duration": 0.1829265000000001
        },
        {
          "name": "E2",
          "midi": 40,
          "time": 1.0975590000000002,
          "velocity": 1,
          "duration": 0.1829265
        },
        {
          "name": "E2",
          "midi": 40,
          "time": 1.2804855000000002,
          "velocity": 1,
          "duration": 0.1829265
        },
        {
          "name": "E2",
          "midi": 40,
          "time": 1.4634120000000002,
          "velocity": 1,
          "duration": 0.1829265
        },
        {
          "name": "E2",
          "midi": 40,
          "time": 1.6463385000000001,
          "velocity": 1,
          "duration": 0.1829265
        },
        {
          "name": "E2",
          "midi": 40,
          "time": 1.8292650000000001,
          "velocity": 1,
          "duration": 0.1829265
        },
        {
          "name": "E2",
          "midi": 40,
          "time": 2.0121915,
          "velocity": 1,
          "duration": 0.18292650000000021
        },
        {
          "name": "E2",
          "midi": 40,
          "time": 2.1951180000000003,
          "velocity": 1,
          "duration": 0.18292650000000021
        },
        {
          "name": "E2",
          "midi": 40,
          "time": 2.3780445000000006,
          "velocity": 1,
          "duration": 0.18292650000000021
        },
        {
          "name": "E2",
          "midi": 40,
          "time": 2.5609710000000008,
          "velocity": 1,
          "duration": 0.18292650000000021
        },
        {
          "name": "E2",
          "midi": 40,
          "time": 2.743897500000001,
          "velocity": 1,
          "duration": 0.18292650000000021
        },
        {
          "name": "E2",
          "midi": 40,
          "time": 2.926824000000001,
          "velocity": 1,
          "duration": 0.18292650000000021
        },
        {
          "name": "E2",
          "midi": 40,
          "time": 3.1097505000000014,
          "velocity": 1,
          "duration": 0.18292650000000021
        },
        {
          "name": "E2",
          "midi": 40,
          "time": 3.2926770000000016,
          "velocity": 1,
          "duration": 0.18292650000000021
        },
        {
          "name": "E2",
          "midi": 40,
          "time": 3.475603500000002,
          "velocity": 1,
          "duration": 0.18292650000000021
        },
        {
          "name": "E2",
          "midi": 40,
          "time": 3.658530000000002,
          "velocity": 1,
          "duration": 0.18292650000000021
        },
        {
          "name": "E2",
          "midi": 40,
          "time": 3.8414565000000023,
          "velocity": 1,
          "duration": 0.18292649999999977
        },
        {
          "name": "E2",
          "midi": 40,
          "time": 4.024383000000002,
          "velocity": 1,
          "duration": 0.18292649999999977
        },
        {
          "name": "E2",
          "midi": 40,
          "time": 4.207309500000002,
          "velocity": 1,
          "duration": 0.18292649999999977
        },
        {
          "name": "E2",
          "midi": 40,
          "time": 4.390236000000002,
          "velocity": 1,
          "duration": 0.18292649999999977
        },
        {
          "name": "E2",
          "midi": 40,
          "time": 4.573162500000001,
          "velocity": 1,
          "duration": 0.18292649999999977
        },
        {
          "name": "E2",
          "midi": 40,
          "time": 4.756089000000001,
          "velocity": 1,
          "duration": 0.18292649999999977
        },
        {
          "name": "E2",
          "midi": 40,
          "time": 4.939015500000001,
          "velocity": 1,
          "duration": 0.18292649999999977
        },
        {
          "name": "E2",
          "midi": 40,
          "time": 5.121942000000001,
          "velocity": 1,
          "duration": 0.18292649999999977
        },
        {
          "name": "E2",
          "midi": 40,
          "time": 5.3048685,
          "velocity": 1,
          "duration": 0.18292649999999977
        },
        {
          "name": "E2",
          "midi": 40,
          "time": 5.487795,
          "velocity": 1,
          "duration": 0.18292649999999977
        },
        {
          "name": "E2",
          "midi": 40,
          "time": 5.6707215,
          "velocity": 1,
          "duration": 0.18292649999999977
        },
        {
          "name": "E2",
          "midi": 40,
          "time": 5.853648,
          "velocity": 1,
          "duration": 0.18292649999999977
        },
        {
          "name": "E2",
          "midi": 40,
          "time": 6.0365744999999995,
          "velocity": 1,
          "duration": 0.18292649999999977
        },
        {
          "name": "E2",
          "midi": 40,
          "time": 6.219500999999999,
          "velocity": 1,
          "duration": 0.18292649999999977
        },
        {
          "name": "E2",
          "midi": 40,
          "time": 6.402427499999999,
          "velocity": 1,
          "duration": 0.18292649999999977
        },
        {
          "name": "E2",
          "midi": 40,
          "time": 6.585353999999999,
          "velocity": 1,
          "duration": 0.18292649999999977
        },
        {
          "name": "E2",
          "midi": 40,
          "time": 6.768280499999999,
          "velocity": 1,
          "duration": 0.18292649999999977
        },
        {
          "name": "E2",
          "midi": 40,
          "time": 6.951206999999998,
          "velocity": 1,
          "duration": 0.18292649999999977
        },
        {
          "name": "E2",
          "midi": 40,
          "time": 7.134133499999998,
          "velocity": 1,
          "duration": 0.18292649999999977
        },
        {
          "name": "E2",
          "midi": 40,
          "time": 7.317059999999998,
          "velocity": 1,
          "duration": 0.18292649999999977
        },
        {
          "name": "E2",
          "midi": 40,
          "time": 7.499986499999998,
          "velocity": 1,
          "duration": 0.18292649999999977
        },
        {
          "name": "E2",
          "midi": 40,
          "time": 7.682912999999997,
          "velocity": 1,
          "duration": 0.18292649999999977
        },
        {
          "name": "E2",
          "midi": 40,
          "time": 7.865839499999997,
          "velocity": 1,
          "duration": 0.18292649999999977
        },
        {
          "name": "E2",
          "midi": 40,
          "time": 8.048765999999997,
          "velocity": 1,
          "duration": 0.18292650000000066
        },
        {
          "name": "E2",
          "midi": 40,
          "time": 8.231692499999998,
          "velocity": 1,
          "duration": 0.18292650000000066
        },
        {
          "name": "E2",
          "midi": 40,
          "time": 8.414618999999998,
          "velocity": 1,
          "duration": 0.18292650000000066
        },
        {
          "name": "E2",
          "midi": 40,
          "time": 8.597545499999999,
          "velocity": 1,
          "duration": 0.18292650000000066
        },
        {
          "name": "A1",
          "midi": 33,
          "time": 8.780472,
          "velocity": 1,
          "duration": 0.18292650000000066
        },
        {
          "name": "A1",
          "midi": 33,
          "time": 8.9633985,
          "velocity": 1,
          "duration": 0.18292650000000066
        },
        {
          "name": "A1",
          "midi": 33,
          "time": 9.146325000000001,
          "velocity": 1,
          "duration": 0.18292650000000066
        },
        {
          "name": "A1",
          "midi": 33,
          "time": 9.329251500000002,
          "velocity": 1,
          "duration": 0.18292650000000066
        },
        {
          "name": "A1",
          "midi": 33,
          "time": 9.512178000000002,
          "velocity": 1,
          "duration": 0.18292650000000066
        },
        {
          "name": "A1",
          "midi": 33,
          "time": 9.695104500000003,
          "velocity": 1,
          "duration": 0.18292650000000066
        },
        {
          "name": "A1",
          "midi": 33,
          "time": 9.878031000000004,
          "velocity": 1,
          "duration": 0.18292650000000066
        },
        {
          "name": "A#1",
          "midi": 34,
          "time": 10.060957500000004,
          "velocity": 1,
          "duration": 0.36585299999999954
        },
        {
          "name": "A#1",
          "midi": 34,
          "time": 10.426810500000004,
          "velocity": 1,
          "duration": 0.18292650000000066
        },
        {
          "name": "A#1",
          "midi": 34,
          "time": 10.609737000000004,
          "velocity": 1,
          "duration": 0.18292650000000066
        },
        {
          "name": "A#1",
          "midi": 34,
          "time": 10.792663500000005,
          "velocity": 1,
          "duration": 0.18292650000000066
        },
        {
          "name": "B1",
          "midi": 35,
          "time": 11.707296000000007,
          "velocity": 1,
          "duration": 0.18292650000000066
        },
        {
          "name": "B1",
          "midi": 35,
          "time": 11.890222500000007,
          "velocity": 1,
          "duration": 0.18292650000000066
        },
        {
          "name": "B1",
          "midi": 35,
          "time": 12.073149000000008,
          "velocity": 1,
          "duration": 0.18292650000000066
        },
        {
          "name": "B1",
          "midi": 35,
          "time": 12.256075500000009,
          "velocity": 1,
          "duration": 0.18292650000000066
        },
        {
          "name": "B1",
          "midi": 35,
          "time": 12.43900200000001,
          "velocity": 1,
          "duration": 0.18292650000000066
        },
        {
          "name": "B1",
          "midi": 35,
          "time": 12.62192850000001,
          "velocity": 1,
          "duration": 0.18292650000000066
        },
        {
          "name": "B1",
          "midi": 35,
          "time": 12.80485500000001,
          "velocity": 1,
          "duration": 0.18292650000000066
        },
        {
          "name": "B1",
          "midi": 35,
          "time": 12.987781500000011,
          "velocity": 1,
          "duration": 0.18292650000000066
        },
        {
          "name": "A1",
          "midi": 33,
          "time": 13.170708000000012,
          "velocity": 1,
          "duration": 0.18292650000000066
        },
        {
          "name": "A1",
          "midi": 33,
          "time": 13.353634500000013,
          "velocity": 1,
          "duration": 0.18292650000000066
        },
        {
          "name": "A1",
          "midi": 33,
          "time": 13.536561000000013,
          "velocity": 1,
          "duration": 0.18292650000000066
        },
        {
          "name": "A1",
          "midi": 33,
          "time": 13.719487500000014,
          "velocity": 1,
          "duration": 0.18292650000000066
        },
        {
          "name": "A1",
          "midi": 33,
          "time": 13.902414000000014,
          "velocity": 1,
          "duration": 0.18292650000000066
        },
        {
          "name": "A1",
          "midi": 33,
          "time": 14.085340500000015,
          "velocity": 1,
          "duration": 0.18292650000000066
        },
        {
          "name": "A1",
          "midi": 33,
          "time": 14.268267000000016,
          "velocity": 1,
          "duration": 0.18292650000000066
        },
        {
          "name": "A1",
          "midi": 33,
          "time": 14.451193500000016,
          "velocity": 1,
          "duration": 0.18292650000000066
        },
        {
          "name": "D2",
          "midi": 38,
          "time": 14.634120000000017,
          "velocity": 1,
          "duration": 0.18292650000000066
        },
        {
          "name": "D2",
          "midi": 38,
          "time": 14.817046500000018,
          "velocity": 1,
          "duration": 0.18292650000000066
        },
        {
          "name": "D2",
          "midi": 38,
          "time": 14.999973000000018,
          "velocity": 1,
          "duration": 0.18292650000000066
        },
        {
          "name": "D2",
          "midi": 38,
          "time": 15.182899500000019,
          "velocity": 1,
          "duration": 0.18292650000000066
        },
        {
          "name": "D2",
          "midi": 38,
          "time": 15.36582600000002,
          "velocity": 1,
          "duration": 0.18292650000000066
        },
        {
          "name": "D2",
          "midi": 38,
          "time": 15.54875250000002,
          "velocity": 1,
          "duration": 0.18292650000000066
        },
        {
          "name": "D2",
          "midi": 38,
          "time": 15.731679000000021,
          "velocity": 1,
          "duration": 0.18292650000000066
        },
        {
          "name": "D2",
          "midi": 38,
          "time": 15.914605500000022,
          "velocity": 1,
          "duration": 0.18292650000000066
        },
        {
          "name": "E2",
          "midi": 40,
          "time": 16.097532000000022,
          "velocity": 1,
          "duration": 0.18292650000000066
        },
        {
          "name": "E2",
          "midi": 40,
          "time": 16.280458500000023,
          "velocity": 1,
          "duration": 0.18292650000000066
        },
        {
          "name": "E2",
          "midi": 40,
          "time": 16.463385000000024,
          "velocity": 1,
          "duration": 0.18292650000000066
        },
        {
          "name": "E2",
          "midi": 40,
          "time": 16.646311500000024,
          "velocity": 1,
          "duration": 0.18292650000000066
        },
        {
          "name": "E2",
          "midi": 40,
          "time": 16.829238000000025,
          "velocity": 1,
          "duration": 0.18292650000000066
        },
        {
          "name": "E2",
          "midi": 40,
          "time": 17.012164500000026,
          "velocity": 1,
          "duration": 0.18292650000000066
        },
        {
          "name": "E2",
          "midi": 40,
          "time": 17.195091000000026,
          "velocity": 1,
          "duration": 0.18292650000000066
        },
        {
          "name": "E2",
          "midi": 40,
          "time": 17.378017500000027,
          "velocity": 1,
          "duration": 0.18292650000000066
        },
        {
          "name": "G2",
          "midi": 43,
          "time": 17.560944000000028,
          "velocity": 1,
          "duration": 0.18292650000000066
        },
        {
          "name": "G2",
          "midi": 43,
          "time": 17.74387050000003,
          "velocity": 1,
          "duration": 0.18292650000000066
        },
        {
          "name": "G2",
          "midi": 43,
          "time": 17.92679700000003,
          "velocity": 1,
          "duration": 0.18292650000000066
        },
        {
          "name": "G2",
          "midi": 43,
          "time": 18.10972350000003,
          "velocity": 1,
          "duration": 0.18292650000000066
        },
        {
          "name": "G2",
          "midi": 43,
          "time": 18.29265000000003,
          "velocity": 1,
          "duration": 0.18292650000000066
        },
        {
          "name": "G2",
          "midi": 43,
          "time": 18.47557650000003,
          "velocity": 1,
          "duration": 0.18292650000000066
        },
        {
          "name": "G2",
          "midi": 43,
          "time": 18.65850300000003,
          "velocity": 1,
          "duration": 0.18292650000000066
        },
        {
          "name": "G2",
          "midi": 43,
          "time": 18.841429500000032,
          "velocity": 1,
          "duration": 0.18292650000000066
        },
        {
          "name": "F#2",
          "midi": 42,
          "time": 19.024356000000033,
          "velocity": 1,
          "duration": 0.18292650000000066
        },
        {
          "name": "F#2",
          "midi": 42,
          "time": 19.207282500000034,
          "velocity": 1,
          "duration": 0.18292650000000066
        },
        {
          "name": "F#2",
          "midi": 42,
          "time": 19.390209000000034,
          "velocity": 1,
          "duration": 0.18292650000000066
        },
        {
          "name": "F#2",
          "midi": 42,
          "time": 19.573135500000035,
          "velocity": 1,
          "duration": 0.18292650000000066
        },
        {
          "name": "F#2",
          "midi": 42,
          "time": 19.756062000000036,
          "velocity": 1,
          "duration": 0.18292650000000066
        },
        {
          "name": "F#2",
          "midi": 42,
          "time": 19.938988500000036,
          "velocity": 1,
          "duration": 0.18292650000000066
        },
        {
          "name": "F#2",
          "midi": 42,
          "time": 20.121915000000037,
          "velocity": 1,
          "duration": 0.18292650000000066
        },
        {
          "name": "F#2",
          "midi": 42,
          "time": 20.304841500000038,
          "velocity": 1,
          "duration": 0.18292650000000066
        },
        {
          "name": "E2",
          "midi": 40,
          "time": 20.487768000000038,
          "velocity": 1,
          "duration": 0.18292650000000066
        },
        {
          "name": "E2",
          "midi": 40,
          "time": 20.67069450000004,
          "velocity": 1,
          "duration": 0.18292650000000066
        },
        {
          "name": "E2",
          "midi": 40,
          "time": 20.85362100000004,
          "velocity": 1,
          "duration": 0.18292650000000066
        },
        {
          "name": "E2",
          "midi": 40,
          "time": 21.03654750000004,
          "velocity": 1,
          "duration": 0.18292650000000066
        },
        {
          "name": "E2",
          "midi": 40,
          "time": 21.21947400000004,
          "velocity": 1,
          "duration": 0.18292650000000066
        },
        {
          "name": "E2",
          "midi": 40,
          "time": 21.40240050000004,
          "velocity": 1,
          "duration": 0.18292650000000066
        },
        {
          "name": "E2",
          "midi": 40,
          "time": 21.585327000000042,
          "velocity": 1,
          "duration": 0.18292650000000066
        },
        {
          "name": "E2",
          "midi": 40,
          "time": 21.768253500000043,
          "velocity": 1,
          "duration": 0.18292650000000066
        },
        {
          "name": "E2",
          "midi": 40,
          "time": 21.951180000000043,
          "velocity": 1,
          "duration": 0.09146325000000033
        },
        {
          "name": "D2",
          "midi": 38,
          "time": 22.042643250000044,
          "velocity": 1,
          "duration": 0.09146325000000033
        },
        {
          "name": "E2",
          "midi": 40,
          "time": 22.134106500000044,
          "velocity": 1,
          "duration": 0.18292650000000066
        },
        {
          "name": "G2",
          "midi": 43,
          "time": 22.317033000000045,
          "velocity": 1,
          "duration": 0.18292650000000066
        },
        {
          "name": "E2",
          "midi": 40,
          "time": 22.499959500000045,
          "velocity": 1,
          "duration": 0.18292650000000066
        },
        {
          "name": "B1",
          "midi": 35,
          "time": 23.414592000000045,
          "velocity": 1,
          "duration": 0.18292650000000066
        },
        {
          "name": "B1",
          "midi": 35,
          "time": 23.597518500000046,
          "velocity": 1,
          "duration": 0.18292650000000066
        },
        {
          "name": "B1",
          "midi": 35,
          "time": 23.780445000000046,
          "velocity": 1,
          "duration": 0.18292650000000066
        },
        {
          "name": "B1",
          "midi": 35,
          "time": 23.963371500000047,
          "velocity": 1,
          "duration": 0.18292650000000066
        },
        {
          "name": "B1",
          "midi": 35,
          "time": 24.146298000000048,
          "velocity": 1,
          "duration": 0.18292650000000066
        },
        {
          "name": "B1",
          "midi": 35,
          "time": 24.32922450000005,
          "velocity": 1,
          "duration": 0.18292650000000066
        },
        {
          "name": "B1",
          "midi": 35,
          "time": 24.51215100000005,
          "velocity": 1,
          "duration": 0.18292650000000066
        },
        {
          "name": "B1",
          "midi": 35,
          "time": 24.69507750000005,
          "velocity": 1,
          "duration": 0.18292650000000066
        },
        {
          "name": "A1",
          "midi": 33,
          "time": 24.87800400000005,
          "velocity": 1,
          "duration": 0.18292650000000066
        },
        {
          "name": "A1",
          "midi": 33,
          "time": 25.06093050000005,
          "velocity": 1,
          "duration": 0.18292650000000066
        },
        {
          "name": "A1",
          "midi": 33,
          "time": 25.24385700000005,
          "velocity": 1,
          "duration": 0.18292650000000066
        },
        {
          "name": "A1",
          "midi": 33,
          "time": 25.426783500000052,
          "velocity": 1,
          "duration": 0.18292650000000066
        },
        {
          "name": "A1",
          "midi": 33,
          "time": 25.609710000000053,
          "velocity": 1,
          "duration": 0.18292650000000066
        },
        {
          "name": "A1",
          "midi": 33,
          "time": 25.792636500000054,
          "velocity": 1,
          "duration": 0.18292650000000066
        },
        {
          "name": "A1",
          "midi": 33,
          "time": 25.975563000000054,
          "velocity": 1,
          "duration": 0.18292650000000066
        },
        {
          "name": "A1",
          "midi": 33,
          "time": 26.158489500000055,
          "velocity": 1,
          "duration": 0.18292650000000066
        },
        {
          "name": "D2",
          "midi": 38,
          "time": 26.341416000000056,
          "velocity": 1,
          "duration": 0.18292650000000066
        },
        {
          "name": "D2",
          "midi": 38,
          "time": 26.524342500000056,
          "velocity": 1,
          "duration": 0.18292650000000066
        },
        {
          "name": "D2",
          "midi": 38,
          "time": 26.707269000000057,
          "velocity": 1,
          "duration": 0.18292650000000066
        },
        {
          "name": "D2",
          "midi": 38,
          "time": 26.890195500000058,
          "velocity": 1,
          "duration": 0.18292650000000066
        },
        {
          "name": "D2",
          "midi": 38,
          "time": 27.07312200000006,
          "velocity": 1,
          "duration": 0.18292650000000066
        },
        {
          "name": "D2",
          "midi": 38,
          "time": 27.25604850000006,
          "velocity": 1,
          "duration": 0.18292650000000066
        },
        {
          "name": "D2",
          "midi": 38,
          "time": 27.43897500000006,
          "velocity": 1,
          "duration": 0.18292650000000066
        },
        {
          "name": "D2",
          "midi": 38,
          "time": 27.62190150000006,
          "velocity": 1,
          "duration": 0.18292650000000066
        },
        {
          "name": "E2",
          "midi": 40,
          "time": 27.80482800000006,
          "velocity": 1,
          "duration": 0.18292650000000066
        },
        {
          "name": "E2",
          "midi": 40,
          "time": 27.98775450000006,
          "velocity": 1,
          "duration": 0.18292650000000066
        },
        {
          "name": "E2",
          "midi": 40,
          "time": 28.170681000000062,
          "velocity": 1,
          "duration": 0.18292650000000066
        },
        {
          "name": "E2",
          "midi": 40,
          "time": 28.353607500000063,
          "velocity": 1,
          "duration": 0.18292650000000066
        },
        {
          "name": "E2",
          "midi": 40,
          "time": 28.536534000000064,
          "velocity": 1,
          "duration": 0.18292650000000066
        },
        {
          "name": "E2",
          "midi": 40,
          "time": 28.719460500000064,
          "velocity": 1,
          "duration": 0.18292650000000066
        },
        {
          "name": "E2",
          "midi": 40,
          "time": 28.902387000000065,
          "velocity": 1,
          "duration": 0.18292650000000066
        },
        {
          "name": "E2",
          "midi": 40,
          "time": 29.085313500000066,
          "velocity": 1,
          "duration": 0.18292650000000066
        },
        {
          "name": "G2",
          "midi": 43,
          "time": 29.268240000000066,
          "velocity": 1,
          "duration": 0.18292650000000066
        },
        {
          "name": "G2",
          "midi": 43,
          "time": 29.451166500000067,
          "velocity": 1,
          "duration": 0.18292650000000066
        },
        {
          "name": "G2",
          "midi": 43,
          "time": 29.634093000000068,
          "velocity": 1,
          "duration": 0.18292650000000066
        },
        {
          "name": "G2",
          "midi": 43,
          "time": 29.817019500000068,
          "velocity": 1,
          "duration": 0.18292650000000066
        },
        {
          "name": "G2",
          "midi": 43,
          "time": 29.99994600000007,
          "velocity": 1,
          "duration": 0.18292650000000066
        },
        {
          "name": "G2",
          "midi": 43,
          "time": 30.18287250000007,
          "velocity": 1,
          "duration": 0.18292650000000066
        },
        {
          "name": "G2",
          "midi": 43,
          "time": 30.36579900000007,
          "velocity": 1,
          "duration": 0.18292650000000066
        },
        {
          "name": "G2",
          "midi": 43,
          "time": 30.54872550000007,
          "velocity": 1,
          "duration": 0.18292650000000066
        },
        {
          "name": "F#2",
          "midi": 42,
          "time": 30.73165200000007,
          "velocity": 1,
          "duration": 0.18292650000000066
        },
        {
          "name": "F#2",
          "midi": 42,
          "time": 30.914578500000072,
          "velocity": 1,
          "duration": 0.18292650000000066
        },
        {
          "name": "F#2",
          "midi": 42,
          "time": 31.097505000000073,
          "velocity": 1,
          "duration": 0.18292650000000066
        },
        {
          "name": "F#2",
          "midi": 42,
          "time": 31.280431500000073,
          "velocity": 1,
          "duration": 0.18292650000000066
        },
        {
          "name": "F#2",
          "midi": 42,
          "time": 31.463358000000074,
          "velocity": 1,
          "duration": 0.18292650000000066
        },
        {
          "name": "F#2",
          "midi": 42,
          "time": 31.646284500000075,
          "velocity": 1,
          "duration": 0.18292650000000066
        },
        {
          "name": "F#2",
          "midi": 42,
          "time": 31.829211000000075,
          "velocity": 1,
          "duration": 0.1829264999999971
        },
        {
          "name": "F#2",
          "midi": 42,
          "time": 32.01213750000007,
          "velocity": 1,
          "duration": 0.18292650000000066
        },
        {
          "name": "C2",
          "midi": 36,
          "time": 32.19506400000007,
          "velocity": 1,
          "duration": 0.18292650000000066
        },
        {
          "name": "C2",
          "midi": 36,
          "time": 32.377990500000074,
          "velocity": 1,
          "duration": 0.18292650000000066
        },
        {
          "name": "C2",
          "midi": 36,
          "time": 32.560917000000074,
          "velocity": 1,
          "duration": 0.18292650000000066
        },
        {
          "name": "C2",
          "midi": 36,
          "time": 32.743843500000075,
          "velocity": 1,
          "duration": 0.18292650000000066
        },
        {
          "name": "C2",
          "midi": 36,
          "time": 32.926770000000076,
          "velocity": 1,
          "duration": 0.18292650000000066
        },
        {
          "name": "C2",
          "midi": 36,
          "time": 33.10969650000008,
          "velocity": 1,
          "duration": 0.18292650000000066
        },
        {
          "name": "B1",
          "midi": 35,
          "time": 33.29262300000008,
          "velocity": 1,
          "duration": 0.18292650000000066
        },
        {
          "name": "A1",
          "midi": 33,
          "time": 33.47554950000008,
          "velocity": 1,
          "duration": 0.3658530000000013
        },
        {
          "name": "A1",
          "midi": 33,
          "time": 33.84140250000008,
          "velocity": 1,
          "duration": 0.18292650000000066
        },
        {
          "name": "A1",
          "midi": 33,
          "time": 34.02432900000008,
          "velocity": 1,
          "duration": 0.18292650000000066
        },
        {
          "name": "A1",
          "midi": 33,
          "time": 34.20725550000008,
          "velocity": 1,
          "duration": 0.18292650000000066
        },
        {
          "name": "A1",
          "midi": 33,
          "time": 34.39018200000008,
          "velocity": 1,
          "duration": 0.18292650000000066
        },
        {
          "name": "A1",
          "midi": 33,
          "time": 34.57310850000008,
          "velocity": 1,
          "duration": 0.18292650000000066
        },
        {
          "name": "A1",
          "midi": 33,
          "time": 34.75603500000008,
          "velocity": 1,
          "duration": 0.18292650000000066
        },
        {
          "name": "A1",
          "midi": 33,
          "time": 34.93896150000008,
          "velocity": 1,
          "duration": 0.18292650000000066
        },
        {
          "name": "E2",
          "midi": 40,
          "time": 35.121888000000084,
          "velocity": 1,
          "duration": 0.548779500000002
        },
        {
          "name": "F#2",
          "midi": 42,
          "time": 35.670667500000086,
          "velocity": 1,
          "duration": 0.7317060000000026
        },
        {
          "name": "G2",
          "midi": 43,
          "time": 36.40237350000009,
          "velocity": 1,
          "duration": 0.3658530000000013
        },
        {
          "name": "B2",
          "midi": 47,
          "time": 36.76822650000009,
          "velocity": 1,
          "duration": 0.18292650000000066
        },
        {
          "name": "A2",
          "midi": 45,
          "time": 36.95115300000009,
          "velocity": 1,
          "duration": 0.18292650000000066
        },
        {
          "name": "G2",
          "midi": 43,
          "time": 37.13407950000009,
          "velocity": 1,
          "duration": 0.18292650000000066
        },
        {
          "name": "D2",
          "midi": 38,
          "time": 37.31700600000009,
          "velocity": 1,
          "duration": 0.18292650000000066
        },
        {
          "name": "A2",
          "midi": 45,
          "time": 37.49993250000009,
          "velocity": 1,
          "duration": 0.18292650000000066
        },
        {
          "name": "G2",
          "midi": 43,
          "time": 37.68285900000009,
          "velocity": 1,
          "duration": 0.18292650000000066
        },
        {
          "name": "F#2",
          "midi": 42,
          "time": 37.865785500000094,
          "velocity": 1,
          "duration": 0.18292650000000066
        },
        {
          "name": "E2",
          "midi": 40,
          "time": 38.048712000000094,
          "velocity": 1,
          "duration": 0.548779500000002
        },
        {
          "name": "F#2",
          "midi": 42,
          "time": 38.597491500000096,
          "velocity": 1,
          "duration": 0.7317060000000026
        },
        {
          "name": "B1",
          "midi": 35,
          "time": 39.3291975000001,
          "velocity": 1,
          "duration": 0.3658530000000013
        },
        {
          "name": "D2",
          "midi": 38,
          "time": 39.6950505000001,
          "velocity": 1,
          "duration": 0.3658530000000013
        },
        {
          "name": "D3",
          "midi": 50,
          "time": 40.0609035000001,
          "velocity": 1,
          "duration": 0.18292650000000066
        },
        {
          "name": "E2",
          "midi": 40,
          "time": 40.2438300000001,
          "velocity": 1,
          "duration": 0.18292650000000066
        },
        {
          "name": "E3",
          "midi": 52,
          "time": 40.4267565000001,
          "velocity": 1,
          "duration": 0.18292650000000066
        },
        {
          "name": "F#2",
          "midi": 42,
          "time": 40.6096830000001,
          "velocity": 1,
          "duration": 0.18292650000000066
        },
        {
          "name": "F#3",
          "midi": 54,
          "time": 40.792609500000104,
          "velocity": 1,
          "duration": 0.18292650000000066
        },
        {
          "name": "E2",
          "midi": 40,
          "time": 40.975536000000105,
          "velocity": 1,
          "duration": 0.548779500000002
        },
        {
          "name": "F#2",
          "midi": 42,
          "time": 41.52431550000011,
          "velocity": 1,
          "duration": 0.7317060000000026
        },
        {
          "name": "G2",
          "midi": 43,
          "time": 42.25602150000011,
          "velocity": 1,
          "duration": 0.3658530000000013
        },
        {
          "name": "G3",
          "midi": 55,
          "time": 42.62187450000011,
          "velocity": 1,
          "duration": 0.18292650000000066
        },
        {
          "name": "F#2",
          "midi": 42,
          "time": 42.80480100000011,
          "velocity": 1,
          "duration": 0.18292650000000066
        },
        {
          "name": "F#3",
          "midi": 54,
          "time": 42.98772750000011,
          "velocity": 1,
          "duration": 0.18292650000000066
        },
        {
          "name": "D2",
          "midi": 38,
          "time": 43.17065400000011,
          "velocity": 1,
          "duration": 0.18292650000000066
        },
        {
          "name": "E2",
          "midi": 40,
          "time": 43.35358050000011,
          "velocity": 1,
          "duration": 0.18292650000000066
        },
        {
          "name": "G2",
          "midi": 43,
          "time": 43.536507000000114,
          "velocity": 1,
          "duration": 0.18292650000000066
        },
        {
          "name": "A2",
          "midi": 45,
          "time": 43.719433500000115,
          "velocity": 1,
          "duration": 0.3658530000000013
        },
        {
          "name": "A2",
          "midi": 45,
          "time": 44.085286500000116,
          "velocity": 1,
          "duration": 0.18292650000000066
        },
        {
          "name": "A2",
          "midi": 45,
          "time": 44.26821300000012,
          "velocity": 1,
          "duration": 0.18292650000000066
        },
        {
          "name": "A2",
          "midi": 45,
          "time": 44.45113950000012,
          "velocity": 1,
          "duration": 0.18292650000000066
        },
        {
          "name": "A2",
          "midi": 45,
          "time": 44.63406600000012,
          "velocity": 1,
          "duration": 0.18292650000000066
        },
        {
          "name": "A2",
          "midi": 45,
          "time": 44.81699250000012,
          "velocity": 1,
          "duration": 0.18292650000000066
        },
        {
          "name": "A2",
          "midi": 45,
          "time": 44.99991900000012,
          "velocity": 1,
          "duration": 0.18292650000000066
        },
        {
          "name": "A2",
          "midi": 45,
          "time": 45.18284550000012,
          "velocity": 1,
          "duration": 0.18292650000000066
        },
        {
          "name": "A2",
          "midi": 45,
          "time": 45.36577200000012,
          "velocity": 1,
          "duration": 0.18292650000000066
        },
        {
          "name": "A2",
          "midi": 45,
          "time": 45.54869850000012,
          "velocity": 1,
          "duration": 0.18292650000000066
        },
        {
          "name": "A2",
          "midi": 45,
          "time": 45.73162500000012,
          "velocity": 1,
          "duration": 0.18292650000000066
        },
        {
          "name": "A2",
          "midi": 45,
          "time": 45.91455150000012,
          "velocity": 1,
          "duration": 0.18292650000000066
        },
        {
          "name": "A2",
          "midi": 45,
          "time": 46.09747800000012,
          "velocity": 1,
          "duration": 0.18292650000000066
        },
        {
          "name": "A2",
          "midi": 45,
          "time": 46.280404500000124,
          "velocity": 1,
          "duration": 0.18292650000000066
        },
        {
          "name": "A2",
          "midi": 45,
          "time": 46.463331000000125,
          "velocity": 1,
          "duration": 0.18292650000000066
        },
        {
          "name": "A2",
          "midi": 45,
          "time": 46.646257500000125,
          "velocity": 1,
          "duration": 0.18292650000000066
        },
        {
          "name": "E2",
          "midi": 40,
          "time": 46.829184000000126,
          "velocity": 1,
          "duration": 0.18292650000000066
        },
        {
          "name": "E2",
          "midi": 40,
          "time": 47.01211050000013,
          "velocity": 1,
          "duration": 0.18292650000000066
        },
        {
          "name": "E2",
          "midi": 40,
          "time": 47.19503700000013,
          "velocity": 1,
          "duration": 0.18292650000000066
        },
        {
          "name": "E2",
          "midi": 40,
          "time": 47.37796350000013,
          "velocity": 1,
          "duration": 0.18292650000000066
        },
        {
          "name": "E2",
          "midi": 40,
          "time": 47.56089000000013,
          "velocity": 1,
          "duration": 0.18292650000000066
        },
        {
          "name": "E2",
          "midi": 40,
          "time": 47.74381650000013,
          "velocity": 1,
          "duration": 0.18292650000000066
        },
        {
          "name": "E2",
          "midi": 40,
          "time": 47.92674300000013,
          "velocity": 1,
          "duration": 0.18292650000000066
        },
        {
          "name": "E2",
          "midi": 40,
          "time": 48.10966950000013,
          "velocity": 1,
          "duration": 0.18292650000000066
        },
        {
          "name": "E2",
          "midi": 40,
          "time": 48.29259600000013,
          "velocity": 1,
          "duration": 0.18292650000000066
        },
        {
          "name": "E2",
          "midi": 40,
          "time": 48.47552250000013,
          "velocity": 1,
          "duration": 0.18292650000000066
        },
        {
          "name": "E2",
          "midi": 40,
          "time": 48.65844900000013,
          "velocity": 1,
          "duration": 0.18292650000000066
        },
        {
          "name": "E2",
          "midi": 40,
          "time": 48.84137550000013,
          "velocity": 1,
          "duration": 0.18292650000000066
        },
        {
          "name": "E2",
          "midi": 40,
          "time": 49.024302000000134,
          "velocity": 1,
          "duration": 0.18292650000000066
        },
        {
          "name": "E2",
          "midi": 40,
          "time": 49.207228500000134,
          "velocity": 1,
          "duration": 0.18292650000000066
        },
        {
          "name": "E2",
          "midi": 40,
          "time": 49.390155000000135,
          "velocity": 1,
          "duration": 0.18292650000000066
        },
        {
          "name": "E2",
          "midi": 40,
          "time": 49.573081500000136,
          "velocity": 1,
          "duration": 0.18292650000000066
        },
        {
          "name": "E2",
          "midi": 40,
          "time": 49.756008000000136,
          "velocity": 1,
          "duration": 0.18292650000000066
        },
        {
          "name": "E2",
          "midi": 40,
          "time": 49.93893450000014,
          "velocity": 1,
          "duration": 0.18292650000000066
        },
        {
          "name": "E2",
          "midi": 40,
          "time": 50.12186100000014,
          "velocity": 1,
          "duration": 0.18292650000000066
        },
        {
          "name": "E2",
          "midi": 40,
          "time": 50.30478750000014,
          "velocity": 1,
          "duration": 0.18292650000000066
        },
        {
          "name": "E2",
          "midi": 40,
          "time": 50.48771400000014,
          "velocity": 1,
          "duration": 0.18292650000000066
        },
        {
          "name": "E2",
          "midi": 40,
          "time": 50.67064050000014,
          "velocity": 1,
          "duration": 0.18292650000000066
        },
        {
          "name": "E2",
          "midi": 40,
          "time": 50.85356700000014,
          "velocity": 1,
          "duration": 0.18292650000000066
        },
        {
          "name": "E2",
          "midi": 40,
          "time": 51.03649350000014,
          "velocity": 1,
          "duration": 0.18292650000000066
        },
        {
          "name": "E2",
          "midi": 40,
          "time": 51.21942000000014,
          "velocity": 1,
          "duration": 0.18292650000000066
        },
        {
          "name": "E2",
          "midi": 40,
          "time": 51.40234650000014,
          "velocity": 1,
          "duration": 0.18292650000000066
        },
        {
          "name": "E2",
          "midi": 40,
          "time": 51.58527300000014,
          "velocity": 1,
          "duration": 0.18292650000000066
        },
        {
          "name": "E2",
          "midi": 40,
          "time": 51.768199500000144,
          "velocity": 1,
          "duration": 0.18292650000000066
        },
        {
          "name": "E2",
          "midi": 40,
          "time": 51.951126000000144,
          "velocity": 1,
          "duration": 0.18292650000000066
        },
        {
          "name": "E2",
          "midi": 40,
          "time": 52.134052500000145,
          "velocity": 1,
          "duration": 0.18292650000000066
        },
        {
          "name": "E2",
          "midi": 40,
          "time": 52.316979000000146,
          "velocity": 1,
          "duration": 0.18292650000000066
        },
        {
          "name": "E2",
          "midi": 40,
          "time": 52.499905500000146,
          "velocity": 1,
          "duration": 0.18292650000000066
        },
        {
          "name": "E2",
          "midi": 40,
          "time": 52.68283200000015,
          "velocity": 1,
          "duration": 0.18292650000000066
        },
        {
          "name": "E2",
          "midi": 40,
          "time": 52.86575850000015,
          "velocity": 1,
          "duration": 0.18292650000000066
        },
        {
          "name": "E2",
          "midi": 40,
          "time": 53.04868500000015,
          "velocity": 1,
          "duration": 0.18292650000000066
        },
        {
          "name": "E2",
          "midi": 40,
          "time": 53.23161150000015,
          "velocity": 1,
          "duration": 0.18292650000000066
        },
        {
          "name": "E2",
          "midi": 40,
          "time": 53.41453800000015,
          "velocity": 1,
          "duration": 0.18292650000000066
        },
        {
          "name": "E2",
          "midi": 40,
          "time": 53.59746450000015,
          "velocity": 1,
          "duration": 0.18292650000000066
        },
        {
          "name": "E2",
          "midi": 40,
          "time": 53.78039100000015,
          "velocity": 1,
          "duration": 0.18292650000000066
        },
        {
          "name": "E2",
          "midi": 40,
          "time": 53.96331750000015,
          "velocity": 1,
          "duration": 0.18292650000000066
        },
        {
          "name": "E2",
          "midi": 40,
          "time": 54.14624400000015,
          "velocity": 1,
          "duration": 0.18292650000000066
        },
        {
          "name": "E2",
          "midi": 40,
          "time": 54.32917050000015,
          "velocity": 1,
          "duration": 0.18292650000000066
        },
        {
          "name": "E2",
          "midi": 40,
          "time": 54.51209700000015,
          "velocity": 1,
          "duration": 0.18292650000000066
        },
        {
          "name": "E2",
          "midi": 40,
          "time": 54.695023500000154,
          "velocity": 1,
          "duration": 0.18292650000000066
        },
        {
          "name": "E2",
          "midi": 40,
          "time": 54.877950000000155,
          "velocity": 1,
          "duration": 0.18292650000000066
        },
        {
          "name": "E2",
          "midi": 40,
          "time": 55.060876500000155,
          "velocity": 1,
          "duration": 0.18292650000000066
        },
        {
          "name": "E2",
          "midi": 40,
          "time": 55.243803000000156,
          "velocity": 1,
          "duration": 0.18292650000000066
        },
        {
          "name": "E2",
          "midi": 40,
          "time": 55.42672950000016,
          "velocity": 1,
          "duration": 0.18292650000000066
        },
        {
          "name": "A1",
          "midi": 33,
          "time": 55.60965600000016,
          "velocity": 1,
          "duration": 0.18292650000000066
        },
        {
          "name": "A1",
          "midi": 33,
          "time": 55.79258250000016,
          "velocity": 1,
          "duration": 0.18292650000000066
        },
        {
          "name": "A1",
          "midi": 33,
          "time": 55.97550900000016,
          "velocity": 1,
          "duration": 0.18292650000000066
        },
        {
          "name": "A1",
          "midi": 33,
          "time": 56.15843550000016,
          "velocity": 1,
          "duration": 0.18292650000000066
        },
        {
          "name": "A1",
          "midi": 33,
          "time": 56.34136200000016,
          "velocity": 1,
          "duration": 0.18292650000000066
        },
        {
          "name": "A1",
          "midi": 33,
          "time": 56.52428850000016,
          "velocity": 1,
          "duration": 0.18292650000000066
        },
        {
          "name": "A1",
          "midi": 33,
          "time": 56.70721500000016,
          "velocity": 1,
          "duration": 0.18292650000000066
        },
        {
          "name": "A#1",
          "midi": 34,
          "time": 56.89014150000016,
          "velocity": 1,
          "duration": 0.3658530000000013
        },
        {
          "name": "A#1",
          "midi": 34,
          "time": 57.25599450000016,
          "velocity": 1,
          "duration": 0.18292650000000066
        },
        {
          "name": "A#1",
          "midi": 34,
          "time": 57.438921000000164,
          "velocity": 1,
          "duration": 0.18292650000000066
        },
        {
          "name": "A#1",
          "midi": 34,
          "time": 57.621847500000165,
          "velocity": 1,
          "duration": 0.18292650000000066
        },
        {
          "name": "B1",
          "midi": 35,
          "time": 58.53648000000017,
          "velocity": 1,
          "duration": 0.18292650000000066
        },
        {
          "name": "B1",
          "midi": 35,
          "time": 58.71940650000017,
          "velocity": 1,
          "duration": 0.18292650000000066
        },
        {
          "name": "B1",
          "midi": 35,
          "time": 58.90233300000017,
          "velocity": 1,
          "duration": 0.18292650000000066
        },
        {
          "name": "B1",
          "midi": 35,
          "time": 59.08525950000017,
          "velocity": 1,
          "duration": 0.18292650000000066
        },
        {
          "name": "B1",
          "midi": 35,
          "time": 59.26818600000017,
          "velocity": 1,
          "duration": 0.18292650000000066
        },
        {
          "name": "B1",
          "midi": 35,
          "time": 59.45111250000017,
          "velocity": 1,
          "duration": 0.18292650000000066
        },
        {
          "name": "B1",
          "midi": 35,
          "time": 59.63403900000017,
          "velocity": 1,
          "duration": 0.18292650000000066
        },
        {
          "name": "B1",
          "midi": 35,
          "time": 59.81696550000017,
          "velocity": 1,
          "duration": 0.18292650000000066
        },
        {
          "name": "A1",
          "midi": 33,
          "time": 59.99989200000017,
          "velocity": 1,
          "duration": 0.18292650000000066
        },
        {
          "name": "A1",
          "midi": 33,
          "time": 60.182818500000174,
          "velocity": 1,
          "duration": 0.18292650000000066
        },
        {
          "name": "A1",
          "midi": 33,
          "time": 60.365745000000175,
          "velocity": 1,
          "duration": 0.18292650000000066
        },
        {
          "name": "A1",
          "midi": 33,
          "time": 60.548671500000175,
          "velocity": 1,
          "duration": 0.18292650000000066
        },
        {
          "name": "A1",
          "midi": 33,
          "time": 60.731598000000176,
          "velocity": 1,
          "duration": 0.18292650000000066
        },
        {
          "name": "A1",
          "midi": 33,
          "time": 60.91452450000018,
          "velocity": 1,
          "duration": 0.18292650000000066
        },
        {
          "name": "A1",
          "midi": 33,
          "time": 61.09745100000018,
          "velocity": 1,
          "duration": 0.18292650000000066
        },
        {
          "name": "A1",
          "midi": 33,
          "time": 61.28037750000018,
          "velocity": 1,
          "duration": 0.18292650000000066
        },
        {
          "name": "D2",
          "midi": 38,
          "time": 61.46330400000018,
          "velocity": 1,
          "duration": 0.18292650000000066
        },
        {
          "name": "D2",
          "midi": 38,
          "time": 61.64623050000018,
          "velocity": 1,
          "duration": 0.18292650000000066
        },
        {
          "name": "D2",
          "midi": 38,
          "time": 61.82915700000018,
          "velocity": 1,
          "duration": 0.18292650000000066
        },
        {
          "name": "D2",
          "midi": 38,
          "time": 62.01208350000018,
          "velocity": 1,
          "duration": 0.18292650000000066
        },
        {
          "name": "D2",
          "midi": 38,
          "time": 62.19501000000018,
          "velocity": 1,
          "duration": 0.18292650000000066
        },
        {
          "name": "D2",
          "midi": 38,
          "time": 62.37793650000018,
          "velocity": 1,
          "duration": 0.18292650000000066
        },
        {
          "name": "D2",
          "midi": 38,
          "time": 62.56086300000018,
          "velocity": 1,
          "duration": 0.18292650000000066
        },
        {
          "name": "D2",
          "midi": 38,
          "time": 62.74378950000018,
          "velocity": 1,
          "duration": 0.18292650000000066
        },
        {
          "name": "E2",
          "midi": 40,
          "time": 62.926716000000184,
          "velocity": 1,
          "duration": 0.18292650000000066
        },
        {
          "name": "E2",
          "midi": 40,
          "time": 63.109642500000184,
          "velocity": 1,
          "duration": 0.18292650000000066
        },
        {
          "name": "E2",
          "midi": 40,
          "time": 63.292569000000185,
          "velocity": 1,
          "duration": 0.18292650000000066
        },
        {
          "name": "E2",
          "midi": 40,
          "time": 63.475495500000186,
          "velocity": 1,
          "duration": 0.18292650000000066
        },
        {
          "name": "E2",
          "midi": 40,
          "time": 63.658422000000186,
          "velocity": 1,
          "duration": 0.18292650000000066
        },
        {
          "name": "E2",
          "midi": 40,
          "time": 63.84134850000019,
          "velocity": 1,
          "duration": 0.18292650000000066
        },
        {
          "name": "E2",
          "midi": 40,
          "time": 64.02427500000019,
          "velocity": 1,
          "duration": 0.18292649999999355
        },
        {
          "name": "E2",
          "midi": 40,
          "time": 64.20720150000018,
          "velocity": 1,
          "duration": 0.18292649999999355
        },
        {
          "name": "G2",
          "midi": 43,
          "time": 64.39012800000017,
          "velocity": 1,
          "duration": 0.18292649999999355
        },
        {
          "name": "G2",
          "midi": 43,
          "time": 64.57305450000017,
          "velocity": 1,
          "duration": 0.18292649999999355
        },
        {
          "name": "G2",
          "midi": 43,
          "time": 64.75598100000016,
          "velocity": 1,
          "duration": 0.18292649999999355
        },
        {
          "name": "G2",
          "midi": 43,
          "time": 64.93890750000016,
          "velocity": 1,
          "duration": 0.18292649999999355
        },
        {
          "name": "G2",
          "midi": 43,
          "time": 65.12183400000015,
          "velocity": 1,
          "duration": 0.18292649999999355
        },
        {
          "name": "G2",
          "midi": 43,
          "time": 65.30476050000014,
          "velocity": 1,
          "duration": 0.18292649999999355
        },
        {
          "name": "G2",
          "midi": 43,
          "time": 65.48768700000014,
          "velocity": 1,
          "duration": 0.18292649999999355
        },
        {
          "name": "G2",
          "midi": 43,
          "time": 65.67061350000013,
          "velocity": 1,
          "duration": 0.18292649999999355
        },
        {
          "name": "F#2",
          "midi": 42,
          "time": 65.85354000000012,
          "velocity": 1,
          "duration": 0.18292649999999355
        },
        {
          "name": "F#2",
          "midi": 42,
          "time": 66.03646650000012,
          "velocity": 1,
          "duration": 0.18292649999999355
        },
        {
          "name": "F#2",
          "midi": 42,
          "time": 66.21939300000011,
          "velocity": 1,
          "duration": 0.18292649999999355
        },
        {
          "name": "F#2",
          "midi": 42,
          "time": 66.4023195000001,
          "velocity": 1,
          "duration": 0.18292649999999355
        },
        {
          "name": "F#2",
          "midi": 42,
          "time": 66.5852460000001,
          "velocity": 1,
          "duration": 0.18292649999999355
        },
        {
          "name": "F#2",
          "midi": 42,
          "time": 66.76817250000009,
          "velocity": 1,
          "duration": 0.18292649999999355
        },
        {
          "name": "F#2",
          "midi": 42,
          "time": 66.95109900000008,
          "velocity": 1,
          "duration": 0.18292649999999355
        },
        {
          "name": "F#2",
          "midi": 42,
          "time": 67.13402550000008,
          "velocity": 1,
          "duration": 0.18292649999999355
        },
        {
          "name": "E2",
          "midi": 40,
          "time": 67.31695200000007,
          "velocity": 1,
          "duration": 0.18292649999999355
        },
        {
          "name": "E2",
          "midi": 40,
          "time": 67.49987850000007,
          "velocity": 1,
          "duration": 0.18292649999999355
        },
        {
          "name": "E2",
          "midi": 40,
          "time": 67.68280500000006,
          "velocity": 1,
          "duration": 0.18292649999999355
        },
        {
          "name": "E2",
          "midi": 40,
          "time": 67.86573150000005,
          "velocity": 1,
          "duration": 0.18292649999999355
        },
        {
          "name": "E2",
          "midi": 40,
          "time": 68.04865800000005,
          "velocity": 1,
          "duration": 0.18292649999999355
        },
        {
          "name": "E2",
          "midi": 40,
          "time": 68.23158450000004,
          "velocity": 1,
          "duration": 0.18292649999999355
        },
        {
          "name": "E2",
          "midi": 40,
          "time": 68.41451100000003,
          "velocity": 1,
          "duration": 0.18292649999999355
        },
        {
          "name": "E2",
          "midi": 40,
          "time": 68.59743750000003,
          "velocity": 1,
          "duration": 0.18292649999999355
        },
        {
          "name": "E2",
          "midi": 40,
          "time": 68.78036400000002,
          "velocity": 1,
          "duration": 0.09146325000000388
        },
        {
          "name": "D2",
          "midi": 38,
          "time": 68.87182725000002,
          "velocity": 1,
          "duration": 0.09146325000000388
        },
        {
          "name": "E2",
          "midi": 40,
          "time": 68.96329050000003,
          "velocity": 1,
          "duration": 0.18292649999999355
        },
        {
          "name": "G2",
          "midi": 43,
          "time": 69.14621700000002,
          "velocity": 1,
          "duration": 0.18292649999999355
        },
        {
          "name": "E2",
          "midi": 40,
          "time": 69.32914350000001,
          "velocity": 1,
          "duration": 0.18292649999999355
        },
        {
          "name": "B1",
          "midi": 35,
          "time": 70.24377600000001,
          "velocity": 1,
          "duration": 0.18292649999999355
        },
        {
          "name": "B1",
          "midi": 35,
          "time": 70.4267025,
          "velocity": 1,
          "duration": 0.18292649999999355
        },
        {
          "name": "B1",
          "midi": 35,
          "time": 70.609629,
          "velocity": 1,
          "duration": 0.18292649999999355
        },
        {
          "name": "B1",
          "midi": 35,
          "time": 70.79255549999999,
          "velocity": 1,
          "duration": 0.18292649999999355
        },
        {
          "name": "B1",
          "midi": 35,
          "time": 70.97548199999999,
          "velocity": 1,
          "duration": 0.18292649999999355
        },
        {
          "name": "B1",
          "midi": 35,
          "time": 71.15840849999998,
          "velocity": 1,
          "duration": 0.18292649999999355
        },
        {
          "name": "B1",
          "midi": 35,
          "time": 71.34133499999997,
          "velocity": 1,
          "duration": 0.18292649999999355
        },
        {
          "name": "B1",
          "midi": 35,
          "time": 71.52426149999997,
          "velocity": 1,
          "duration": 0.18292649999999355
        },
        {
          "name": "A1",
          "midi": 33,
          "time": 71.70718799999996,
          "velocity": 1,
          "duration": 0.18292649999999355
        },
        {
          "name": "A1",
          "midi": 33,
          "time": 71.89011449999995,
          "velocity": 1,
          "duration": 0.18292649999999355
        },
        {
          "name": "A1",
          "midi": 33,
          "time": 72.07304099999995,
          "velocity": 1,
          "duration": 0.18292649999999355
        },
        {
          "name": "A1",
          "midi": 33,
          "time": 72.25596749999994,
          "velocity": 1,
          "duration": 0.18292649999999355
        },
        {
          "name": "A1",
          "midi": 33,
          "time": 72.43889399999993,
          "velocity": 1,
          "duration": 0.18292649999999355
        },
        {
          "name": "A1",
          "midi": 33,
          "time": 72.62182049999993,
          "velocity": 1,
          "duration": 0.18292649999999355
        },
        {
          "name": "A1",
          "midi": 33,
          "time": 72.80474699999992,
          "velocity": 1,
          "duration": 0.18292649999999355
        },
        {
          "name": "A1",
          "midi": 33,
          "time": 72.98767349999991,
          "velocity": 1,
          "duration": 0.18292649999999355
        },
        {
          "name": "D2",
          "midi": 38,
          "time": 73.17059999999991,
          "velocity": 1,
          "duration": 0.18292649999999355
        },
        {
          "name": "D2",
          "midi": 38,
          "time": 73.3535264999999,
          "velocity": 1,
          "duration": 0.18292649999999355
        },
        {
          "name": "D2",
          "midi": 38,
          "time": 73.5364529999999,
          "velocity": 1,
          "duration": 0.18292649999999355
        },
        {
          "name": "D2",
          "midi": 38,
          "time": 73.71937949999989,
          "velocity": 1,
          "duration": 0.18292649999999355
        },
        {
          "name": "D2",
          "midi": 38,
          "time": 73.90230599999988,
          "velocity": 1,
          "duration": 0.18292649999999355
        },
        {
          "name": "D2",
          "midi": 38,
          "time": 74.08523249999988,
          "velocity": 1,
          "duration": 0.18292649999999355
        },
        {
          "name": "D2",
          "midi": 38,
          "time": 74.26815899999987,
          "velocity": 1,
          "duration": 0.18292649999999355
        },
        {
          "name": "D2",
          "midi": 38,
          "time": 74.45108549999986,
          "velocity": 1,
          "duration": 0.18292649999999355
        },
        {
          "name": "E2",
          "midi": 40,
          "time": 74.63401199999986,
          "velocity": 1,
          "duration": 0.18292649999999355
        },
        {
          "name": "E2",
          "midi": 40,
          "time": 74.81693849999985,
          "velocity": 1,
          "duration": 0.18292649999999355
        },
        {
          "name": "E2",
          "midi": 40,
          "time": 74.99986499999984,
          "velocity": 1,
          "duration": 0.18292649999999355
        },
        {
          "name": "E2",
          "midi": 40,
          "time": 75.18279149999984,
          "velocity": 1,
          "duration": 0.18292649999999355
        },
        {
          "name": "E2",
          "midi": 40,
          "time": 75.36571799999983,
          "velocity": 1,
          "duration": 0.18292649999999355
        },
        {
          "name": "E2",
          "midi": 40,
          "time": 75.54864449999982,
          "velocity": 1,
          "duration": 0.18292649999999355
        },
        {
          "name": "E2",
          "midi": 40,
          "time": 75.73157099999982,
          "velocity": 1,
          "duration": 0.18292649999999355
        },
        {
          "name": "E2",
          "midi": 40,
          "time": 75.91449749999981,
          "velocity": 1,
          "duration": 0.18292649999999355
        },
        {
          "name": "G2",
          "midi": 43,
          "time": 76.0974239999998,
          "velocity": 1,
          "duration": 0.18292649999999355
        },
        {
          "name": "G2",
          "midi": 43,
          "time": 76.2803504999998,
          "velocity": 1,
          "duration": 0.18292649999999355
        },
        {
          "name": "G2",
          "midi": 43,
          "time": 76.46327699999979,
          "velocity": 1,
          "duration": 0.18292649999999355
        },
        {
          "name": "G2",
          "midi": 43,
          "time": 76.64620349999979,
          "velocity": 1,
          "duration": 0.18292649999999355
        },
        {
          "name": "G2",
          "midi": 43,
          "time": 76.82912999999978,
          "velocity": 1,
          "duration": 0.18292649999999355
        },
        {
          "name": "G2",
          "midi": 43,
          "time": 77.01205649999977,
          "velocity": 1,
          "duration": 0.18292649999999355
        },
        {
          "name": "G2",
          "midi": 43,
          "time": 77.19498299999977,
          "velocity": 1,
          "duration": 0.18292649999999355
        },
        {
          "name": "G2",
          "midi": 43,
          "time": 77.37790949999976,
          "velocity": 1,
          "duration": 0.18292649999999355
        },
        {
          "name": "F#2",
          "midi": 42,
          "time": 77.56083599999975,
          "velocity": 1,
          "duration": 0.18292649999999355
        },
        {
          "name": "F#2",
          "midi": 42,
          "time": 77.74376249999975,
          "velocity": 1,
          "duration": 0.18292649999999355
        },
        {
          "name": "F#2",
          "midi": 42,
          "time": 77.92668899999974,
          "velocity": 1,
          "duration": 0.18292649999999355
        },
        {
          "name": "F#2",
          "midi": 42,
          "time": 78.10961549999973,
          "velocity": 1,
          "duration": 0.18292649999999355
        },
        {
          "name": "F#2",
          "midi": 42,
          "time": 78.29254199999973,
          "velocity": 1,
          "duration": 0.18292649999999355
        },
        {
          "name": "F#2",
          "midi": 42,
          "time": 78.47546849999972,
          "velocity": 1,
          "duration": 0.18292649999999355
        },
        {
          "name": "F#2",
          "midi": 42,
          "time": 78.65839499999971,
          "velocity": 1,
          "duration": 0.18292649999999355
        },
        {
          "name": "F#2",
          "midi": 42,
          "time": 78.84132149999971,
          "velocity": 1,
          "duration": 0.18292649999999355
        },
        {
          "name": "C2",
          "midi": 36,
          "time": 79.0242479999997,
          "velocity": 1,
          "duration": 0.18292649999999355
        },
        {
          "name": "C2",
          "midi": 36,
          "time": 79.2071744999997,
          "velocity": 1,
          "duration": 0.18292649999999355
        },
        {
          "name": "C2",
          "midi": 36,
          "time": 79.39010099999969,
          "velocity": 1,
          "duration": 0.18292649999999355
        },
        {
          "name": "C2",
          "midi": 36,
          "time": 79.57302749999968,
          "velocity": 1,
          "duration": 0.18292649999999355
        },
        {
          "name": "C2",
          "midi": 36,
          "time": 79.75595399999968,
          "velocity": 1,
          "duration": 0.18292649999999355
        },
        {
          "name": "C2",
          "midi": 36,
          "time": 79.93888049999967,
          "velocity": 1,
          "duration": 0.18292649999999355
        },
        {
          "name": "B1",
          "midi": 35,
          "time": 80.12180699999966,
          "velocity": 1,
          "duration": 0.18292649999999355
        },
        {
          "name": "A1",
          "midi": 33,
          "time": 80.30473349999966,
          "velocity": 1,
          "duration": 0.3658530000000013
        },
        {
          "name": "A1",
          "midi": 33,
          "time": 80.67058649999966,
          "velocity": 1,
          "duration": 0.18292649999999355
        },
        {
          "name": "A1",
          "midi": 33,
          "time": 80.85351299999965,
          "velocity": 1,
          "duration": 0.18292649999999355
        },
        {
          "name": "A1",
          "midi": 33,
          "time": 81.03643949999964,
          "velocity": 1,
          "duration": 0.18292649999999355
        },
        {
          "name": "A1",
          "midi": 33,
          "time": 81.21936599999964,
          "velocity": 1,
          "duration": 0.18292649999999355
        },
        {
          "name": "A1",
          "midi": 33,
          "time": 81.40229249999963,
          "velocity": 1,
          "duration": 0.18292649999999355
        },
        {
          "name": "A1",
          "midi": 33,
          "time": 81.58521899999963,
          "velocity": 1,
          "duration": 0.18292649999999355
        },
        {
          "name": "A1",
          "midi": 33,
          "time": 81.76814549999962,
          "velocity": 1,
          "duration": 0.18292649999999355
        },
        {
          "name": "E2",
          "midi": 40,
          "time": 81.95107199999961,
          "velocity": 1,
          "duration": 0.5487794999999949
        },
        {
          "name": "F#2",
          "midi": 42,
          "time": 82.49985149999961,
          "velocity": 1,
          "duration": 0.7317060000000026
        },
        {
          "name": "G2",
          "midi": 43,
          "time": 83.23155749999961,
          "velocity": 1,
          "duration": 0.3658530000000013
        },
        {
          "name": "B2",
          "midi": 47,
          "time": 83.59741049999961,
          "velocity": 1,
          "duration": 0.18292649999999355
        },
        {
          "name": "A2",
          "midi": 45,
          "time": 83.7803369999996,
          "velocity": 1,
          "duration": 0.18292649999999355
        },
        {
          "name": "G2",
          "midi": 43,
          "time": 83.9632634999996,
          "velocity": 1,
          "duration": 0.18292649999999355
        },
        {
          "name": "D2",
          "midi": 38,
          "time": 84.14618999999959,
          "velocity": 1,
          "duration": 0.18292649999999355
        },
        {
          "name": "A2",
          "midi": 45,
          "time": 84.32911649999959,
          "velocity": 1,
          "duration": 0.18292649999999355
        },
        {
          "name": "G2",
          "midi": 43,
          "time": 84.51204299999958,
          "velocity": 1,
          "duration": 0.18292649999999355
        },
        {
          "name": "F#2",
          "midi": 42,
          "time": 84.69496949999957,
          "velocity": 1,
          "duration": 0.18292649999999355
        },
        {
          "name": "E2",
          "midi": 40,
          "time": 84.87789599999957,
          "velocity": 1,
          "duration": 0.5487794999999949
        },
        {
          "name": "F#2",
          "midi": 42,
          "time": 85.42667549999956,
          "velocity": 1,
          "duration": 0.7317060000000026
        },
        {
          "name": "B1",
          "midi": 35,
          "time": 86.15838149999956,
          "velocity": 1,
          "duration": 0.3658530000000013
        },
        {
          "name": "D2",
          "midi": 38,
          "time": 86.52423449999957,
          "velocity": 1,
          "duration": 0.3658530000000013
        },
        {
          "name": "D3",
          "midi": 50,
          "time": 86.89008749999957,
          "velocity": 1,
          "duration": 0.18292649999999355
        },
        {
          "name": "E2",
          "midi": 40,
          "time": 87.07301399999956,
          "velocity": 1,
          "duration": 0.18292649999999355
        },
        {
          "name": "E3",
          "midi": 52,
          "time": 87.25594049999955,
          "velocity": 1,
          "duration": 0.18292649999999355
        },
        {
          "name": "F#2",
          "midi": 42,
          "time": 87.43886699999955,
          "velocity": 1,
          "duration": 0.18292649999999355
        },
        {
          "name": "F#3",
          "midi": 54,
          "time": 87.62179349999954,
          "velocity": 1,
          "duration": 0.18292649999999355
        },
        {
          "name": "E2",
          "midi": 40,
          "time": 87.80471999999953,
          "velocity": 1,
          "duration": 0.5487794999999949
        },
        {
          "name": "F#2",
          "midi": 42,
          "time": 88.35349949999953,
          "velocity": 1,
          "duration": 0.7317060000000026
        },
        {
          "name": "G2",
          "midi": 43,
          "time": 89.08520549999953,
          "velocity": 1,
          "duration": 0.3658530000000013
        },
        {
          "name": "G3",
          "midi": 55,
          "time": 89.45105849999953,
          "velocity": 1,
          "duration": 0.18292649999999355
        },
        {
          "name": "F#2",
          "midi": 42,
          "time": 89.63398499999953,
          "velocity": 1,
          "duration": 0.18292649999999355
        },
        {
          "name": "F#3",
          "midi": 54,
          "time": 89.81691149999952,
          "velocity": 1,
          "duration": 0.18292649999999355
        },
        {
          "name": "D2",
          "midi": 38,
          "time": 89.99983799999951,
          "velocity": 1,
          "duration": 0.18292649999999355
        },
        {
          "name": "E2",
          "midi": 40,
          "time": 90.18276449999951,
          "velocity": 1,
          "duration": 0.18292649999999355
        },
        {
          "name": "G2",
          "midi": 43,
          "time": 90.3656909999995,
          "velocity": 1,
          "duration": 0.18292649999999355
        },
        {
          "name": "A2",
          "midi": 45,
          "time": 90.5486174999995,
          "velocity": 1,
          "duration": 0.3658530000000013
        },
        {
          "name": "A2",
          "midi": 45,
          "time": 90.9144704999995,
          "velocity": 1,
          "duration": 0.18292649999999355
        },
        {
          "name": "A2",
          "midi": 45,
          "time": 91.09739699999949,
          "velocity": 1,
          "duration": 0.18292649999999355
        },
        {
          "name": "A2",
          "midi": 45,
          "time": 91.28032349999948,
          "velocity": 1,
          "duration": 0.18292649999999355
        },
        {
          "name": "A2",
          "midi": 45,
          "time": 91.46324999999948,
          "velocity": 1,
          "duration": 0.18292649999999355
        },
        {
          "name": "A2",
          "midi": 45,
          "time": 91.64617649999947,
          "velocity": 1,
          "duration": 0.18292649999999355
        },
        {
          "name": "A2",
          "midi": 45,
          "time": 91.82910299999946,
          "velocity": 1,
          "duration": 0.18292649999999355
        },
        {
          "name": "A2",
          "midi": 45,
          "time": 92.01202949999946,
          "velocity": 1,
          "duration": 0.18292649999999355
        },
        {
          "name": "A2",
          "midi": 45,
          "time": 92.19495599999945,
          "velocity": 1,
          "duration": 0.18292649999999355
        },
        {
          "name": "A2",
          "midi": 45,
          "time": 92.37788249999944,
          "velocity": 1,
          "duration": 0.18292649999999355
        },
        {
          "name": "A2",
          "midi": 45,
          "time": 92.56080899999944,
          "velocity": 1,
          "duration": 0.18292649999999355
        },
        {
          "name": "A2",
          "midi": 45,
          "time": 92.74373549999943,
          "velocity": 1,
          "duration": 0.18292649999999355
        },
        {
          "name": "A2",
          "midi": 45,
          "time": 92.92666199999942,
          "velocity": 1,
          "duration": 0.18292649999999355
        },
        {
          "name": "A2",
          "midi": 45,
          "time": 93.10958849999942,
          "velocity": 1,
          "duration": 0.18292649999999355
        },
        {
          "name": "A2",
          "midi": 45,
          "time": 93.29251499999941,
          "velocity": 1,
          "duration": 0.18292649999999355
        },
        {
          "name": "A2",
          "midi": 45,
          "time": 93.4754414999994,
          "velocity": 1,
          "duration": 0.18292649999999355
        },
        {
          "name": "E2",
          "midi": 40,
          "time": 93.6583679999994,
          "velocity": 1,
          "duration": 0.5487794999999949
        },
        {
          "name": "F#2",
          "midi": 42,
          "time": 94.2071474999994,
          "velocity": 1,
          "duration": 0.7317060000000026
        },
        {
          "name": "G2",
          "midi": 43,
          "time": 94.9388534999994,
          "velocity": 1,
          "duration": 0.3658530000000013
        },
        {
          "name": "B2",
          "midi": 47,
          "time": 95.3047064999994,
          "velocity": 1,
          "duration": 0.18292650000000776
        },
        {
          "name": "A2",
          "midi": 45,
          "time": 95.4876329999994,
          "velocity": 1,
          "duration": 0.18292649999999355
        },
        {
          "name": "G2",
          "midi": 43,
          "time": 95.6705594999994,
          "velocity": 1,
          "duration": 0.18292649999999355
        },
        {
          "name": "D2",
          "midi": 38,
          "time": 95.85348599999939,
          "velocity": 1,
          "duration": 0.18292649999999355
        },
        {
          "name": "A2",
          "midi": 45,
          "time": 96.03641249999939,
          "velocity": 1,
          "duration": 0.18292649999999355
        },
        {
          "name": "G2",
          "midi": 43,
          "time": 96.21933899999938,
          "velocity": 1,
          "duration": 0.18292649999999355
        },
        {
          "name": "F#2",
          "midi": 42,
          "time": 96.40226549999937,
          "velocity": 1,
          "duration": 0.18292649999999355
        },
        {
          "name": "E2",
          "midi": 40,
          "time": 96.58519199999937,
          "velocity": 1,
          "duration": 0.5487794999999949
        },
        {
          "name": "F#2",
          "midi": 42,
          "time": 97.13397149999936,
          "velocity": 1,
          "duration": 0.7317060000000026
        },
        {
          "name": "B1",
          "midi": 35,
          "time": 97.86567749999936,
          "velocity": 1,
          "duration": 0.3658530000000013
        },
        {
          "name": "D2",
          "midi": 38,
          "time": 98.23153049999937,
          "velocity": 1,
          "duration": 0.3658530000000013
        },
        {
          "name": "D3",
          "midi": 50,
          "time": 98.59738349999937,
          "velocity": 1,
          "duration": 0.18292650000000776
        },
        {
          "name": "E2",
          "midi": 40,
          "time": 98.78030999999937,
          "velocity": 1,
          "duration": 0.18292649999999355
        },
        {
          "name": "E3",
          "midi": 52,
          "time": 98.96323649999937,
          "velocity": 1,
          "duration": 0.18292649999999355
        },
        {
          "name": "F#2",
          "midi": 42,
          "time": 99.14616299999936,
          "velocity": 1,
          "duration": 0.18292649999999355
        },
        {
          "name": "F#3",
          "midi": 54,
          "time": 99.32908949999936,
          "velocity": 1,
          "duration": 0.18292649999999355
        },
        {
          "name": "E2",
          "midi": 40,
          "time": 99.51201599999935,
          "velocity": 1,
          "duration": 0.5487794999999949
        },
        {
          "name": "F#2",
          "midi": 42,
          "time": 100.06079549999934,
          "velocity": 1,
          "duration": 0.7317060000000026
        },
        {
          "name": "G2",
          "midi": 43,
          "time": 100.79250149999935,
          "velocity": 1,
          "duration": 0.3658530000000013
        },
        {
          "name": "G3",
          "midi": 55,
          "time": 101.15835449999935,
          "velocity": 1,
          "duration": 0.18292650000000776
        },
        {
          "name": "F#2",
          "midi": 42,
          "time": 101.34128099999936,
          "velocity": 1,
          "duration": 0.18292649999999355
        },
        {
          "name": "F#3",
          "midi": 54,
          "time": 101.52420749999935,
          "velocity": 1,
          "duration": 0.18292649999999355
        },
        {
          "name": "D2",
          "midi": 38,
          "time": 101.70713399999934,
          "velocity": 1,
          "duration": 0.18292649999999355
        },
        {
          "name": "E2",
          "midi": 40,
          "time": 101.89006049999934,
          "velocity": 1,
          "duration": 0.18292649999999355
        },
        {
          "name": "G2",
          "midi": 43,
          "time": 102.07298699999933,
          "velocity": 1,
          "duration": 0.18292650000000776
        },
        {
          "name": "A2",
          "midi": 45,
          "time": 102.25591349999934,
          "velocity": 1,
          "duration": 0.3658530000000013
        },
        {
          "name": "A2",
          "midi": 45,
          "time": 102.62176649999934,
          "velocity": 1,
          "duration": 0.18292649999999355
        },
        {
          "name": "A2",
          "midi": 45,
          "time": 102.80469299999933,
          "velocity": 1,
          "duration": 0.18292649999999355
        },
        {
          "name": "A2",
          "midi": 45,
          "time": 102.98761949999933,
          "velocity": 1,
          "duration": 0.18292649999999355
        },
        {
          "name": "A2",
          "midi": 45,
          "time": 103.17054599999932,
          "velocity": 1,
          "duration": 0.18292649999999355
        },
        {
          "name": "A2",
          "midi": 45,
          "time": 103.35347249999931,
          "velocity": 1,
          "duration": 0.18292649999999355
        },
        {
          "name": "A2",
          "midi": 45,
          "time": 103.5363989999993,
          "velocity": 1,
          "duration": 0.18292649999999355
        },
        {
          "name": "A2",
          "midi": 45,
          "time": 103.7193254999993,
          "velocity": 1,
          "duration": 0.18292650000000776
        },
        {
          "name": "A2",
          "midi": 45,
          "time": 103.90225199999931,
          "velocity": 1,
          "duration": 0.18292649999999355
        },
        {
          "name": "A2",
          "midi": 45,
          "time": 104.0851784999993,
          "velocity": 1,
          "duration": 0.18292649999999355
        },
        {
          "name": "A2",
          "midi": 45,
          "time": 104.2681049999993,
          "velocity": 1,
          "duration": 0.18292649999999355
        },
        {
          "name": "A2",
          "midi": 45,
          "time": 104.45103149999929,
          "velocity": 1,
          "duration": 0.18292649999999355
        },
        {
          "name": "A2",
          "midi": 45,
          "time": 104.63395799999928,
          "velocity": 1,
          "duration": 0.18292650000000776
        },
        {
          "name": "A2",
          "midi": 45,
          "time": 104.81688449999929,
          "velocity": 1,
          "duration": 0.18292649999999355
        },
        {
          "name": "A2",
          "midi": 45,
          "time": 104.99981099999928,
          "velocity": 1,
          "duration": 0.18292649999999355
        },
        {
          "name": "A2",
          "midi": 45,
          "time": 105.18273749999928,
          "velocity": 1,
          "duration": 0.18292649999999355
        },
        {
          "name": "E2",
          "midi": 40,
          "time": 105.36566399999927,
          "velocity": 1,
          "duration": 0.5487794999999949
        },
        {
          "name": "F#2",
          "midi": 42,
          "time": 105.91444349999927,
          "velocity": 1,
          "duration": 0.7317060000000026
        },
        {
          "name": "G2",
          "midi": 43,
          "time": 106.64614949999927,
          "velocity": 1,
          "duration": 0.3658530000000013
        },
        {
          "name": "B2",
          "midi": 47,
          "time": 107.01200249999927,
          "velocity": 1,
          "duration": 0.18292649999999355
        },
        {
          "name": "A2",
          "midi": 45,
          "time": 107.19492899999926,
          "velocity": 1,
          "duration": 0.18292649999999355
        },
        {
          "name": "G2",
          "midi": 43,
          "time": 107.37785549999926,
          "velocity": 1,
          "duration": 0.18292649999999355
        },
        {
          "name": "D2",
          "midi": 38,
          "time": 107.56078199999925,
          "velocity": 1,
          "duration": 0.18292649999999355
        },
        {
          "name": "A2",
          "midi": 45,
          "time": 107.74370849999924,
          "velocity": 1,
          "duration": 0.18292649999999355
        },
        {
          "name": "G2",
          "midi": 43,
          "time": 107.92663499999924,
          "velocity": 1,
          "duration": 0.18292650000000776
        },
        {
          "name": "F#2",
          "midi": 42,
          "time": 108.10956149999924,
          "velocity": 1,
          "duration": 0.18292649999999355
        },
        {
          "name": "E2",
          "midi": 40,
          "time": 108.29248799999924,
          "velocity": 1,
          "duration": 0.5487794999999949
        },
        {
          "name": "F#2",
          "midi": 42,
          "time": 108.84126749999923,
          "velocity": 1,
          "duration": 0.7317060000000026
        },
        {
          "name": "B1",
          "midi": 35,
          "time": 109.57297349999924,
          "velocity": 1,
          "duration": 0.3658529999999871
        },
        {
          "name": "D2",
          "midi": 38,
          "time": 109.93882649999922,
          "velocity": 1,
          "duration": 0.3658530000000013
        },
        {
          "name": "D3",
          "midi": 50,
          "time": 110.30467949999922,
          "velocity": 1,
          "duration": 0.18292649999999355
        },
        {
          "name": "E2",
          "midi": 40,
          "time": 110.48760599999922,
          "velocity": 1,
          "duration": 0.18292649999999355
        },
        {
          "name": "E3",
          "midi": 52,
          "time": 110.67053249999921,
          "velocity": 1,
          "duration": 0.18292649999999355
        },
        {
          "name": "F#2",
          "midi": 42,
          "time": 110.8534589999992,
          "velocity": 1,
          "duration": 0.18292649999999355
        },
        {
          "name": "F#3",
          "midi": 54,
          "time": 111.0363854999992,
          "velocity": 1,
          "duration": 0.18292649999999355
        }
      ];