export let bass2 =    [
        {
          "name": "E3",
          "midi": 52,
          "time": 0,
          "velocity": 1,
          "duration": 0.18292650000000002
        },
        {
          "name": "F#2",
          "midi": 42,
          "time": 0.18292650000000002,
          "velocity": 1,
          "duration": 0.18292650000000002
        },
        {
          "name": "E6",
          "midi": 88,
          "time": 0.36585300000000004,
          "velocity": 0.6299212598425197,
          "duration": 0.36585300000000004
        },
        {
          "name": "F#2",
          "midi": 42,
          "time": 0.36585300000000004,
          "velocity": 1,
          "duration": 0.18292650000000005
        },
        {
          "name": "F#2",
          "midi": 42,
          "time": 0.5487795000000001,
          "velocity": 1,
          "duration": 0.1829265
        },
        {
          "name": "F#2",
          "midi": 42,
          "time": 0.7317060000000001,
          "velocity": 1,
          "duration": 0.1829265
        },
        {
          "name": "F#2",
          "midi": 42,
          "time": 0.9146325000000001,
          "velocity": 1,
          "duration": 0.1829265000000001
        },
        {
          "name": "E6",
          "midi": 88,
          "time": 1.0975590000000002,
          "velocity": 0.6299212598425197,
          "duration": 0.365853
        },
        {
          "name": "F#2",
          "midi": 42,
          "time": 1.0975590000000002,
          "velocity": 1,
          "duration": 0.1829265
        },
        {
          "name": "F#2",
          "midi": 42,
          "time": 1.2804855000000002,
          "velocity": 1,
          "duration": 0.1829265
        },
        {
          "name": "F#2",
          "midi": 42,
          "time": 1.4634120000000002,
          "velocity": 1,
          "duration": 0.1829265
        },
        {
          "name": "F#2",
          "midi": 42,
          "time": 1.6463385000000001,
          "velocity": 1,
          "duration": 0.1829265
        },
        {
          "name": "E6",
          "midi": 88,
          "time": 1.8292650000000001,
          "velocity": 0.6299212598425197,
          "duration": 0.3658530000000002
        },
        {
          "name": "F#2",
          "midi": 42,
          "time": 1.8292650000000001,
          "velocity": 1,
          "duration": 0.1829265
        },
        {
          "name": "F#2",
          "midi": 42,
          "time": 2.0121915,
          "velocity": 1,
          "duration": 0.18292650000000021
        },
        {
          "name": "F#2",
          "midi": 42,
          "time": 2.1951180000000003,
          "velocity": 1,
          "duration": 0.18292650000000021
        },
        {
          "name": "F#2",
          "midi": 42,
          "time": 2.3780445000000006,
          "velocity": 1,
          "duration": 0.18292650000000021
        },
        {
          "name": "E6",
          "midi": 88,
          "time": 2.5609710000000008,
          "velocity": 0.6299212598425197,
          "duration": 0.36585300000000043
        },
        {
          "name": "F#2",
          "midi": 42,
          "time": 2.5609710000000008,
          "velocity": 1,
          "duration": 0.18292650000000021
        },
        {
          "name": "A#2",
          "midi": 46,
          "time": 2.743897500000001,
          "velocity": 1,
          "duration": 0.18292650000000021
        },
        {
          "name": "F#2",
          "midi": 42,
          "time": 2.926824000000001,
          "velocity": 1,
          "duration": 0.18292650000000021
        },
        {
          "name": "F#2",
          "midi": 42,
          "time": 3.1097505000000014,
          "velocity": 1,
          "duration": 0.18292650000000021
        },
        {
          "name": "E6",
          "midi": 88,
          "time": 3.2926770000000016,
          "velocity": 0.6299212598425197,
          "duration": 0.36585300000000043
        },
        {
          "name": "F#2",
          "midi": 42,
          "time": 3.2926770000000016,
          "velocity": 1,
          "duration": 0.18292650000000021
        },
        {
          "name": "F#2",
          "midi": 42,
          "time": 3.475603500000002,
          "velocity": 1,
          "duration": 0.18292650000000021
        },
        {
          "name": "F#2",
          "midi": 42,
          "time": 3.658530000000002,
          "velocity": 1,
          "duration": 0.18292650000000021
        },
        {
          "name": "F#2",
          "midi": 42,
          "time": 3.8414565000000023,
          "velocity": 1,
          "duration": 0.18292649999999977
        },
        {
          "name": "E6",
          "midi": 88,
          "time": 4.024383000000002,
          "velocity": 0.6299212598425197,
          "duration": 0.36585299999999954
        },
        {
          "name": "F#2",
          "midi": 42,
          "time": 4.024383000000002,
          "velocity": 1,
          "duration": 0.18292649999999977
        },
        {
          "name": "F#2",
          "midi": 42,
          "time": 4.207309500000002,
          "velocity": 1,
          "duration": 0.18292649999999977
        },
        {
          "name": "F#2",
          "midi": 42,
          "time": 4.390236000000002,
          "velocity": 1,
          "duration": 0.18292649999999977
        },
        {
          "name": "F#2",
          "midi": 42,
          "time": 4.573162500000001,
          "velocity": 1,
          "duration": 0.18292649999999977
        },
        {
          "name": "E6",
          "midi": 88,
          "time": 4.756089000000001,
          "velocity": 0.6299212598425197,
          "duration": 0.36585299999999954
        },
        {
          "name": "F#2",
          "midi": 42,
          "time": 4.756089000000001,
          "velocity": 1,
          "duration": 0.18292649999999977
        },
        {
          "name": "F#2",
          "midi": 42,
          "time": 4.939015500000001,
          "velocity": 1,
          "duration": 0.18292649999999977
        },
        {
          "name": "F#2",
          "midi": 42,
          "time": 5.121942000000001,
          "velocity": 1,
          "duration": 0.18292649999999977
        },
        {
          "name": "F#2",
          "midi": 42,
          "time": 5.3048685,
          "velocity": 1,
          "duration": 0.18292649999999977
        },
        {
          "name": "E6",
          "midi": 88,
          "time": 5.487795,
          "velocity": 0.6299212598425197,
          "duration": 0.36585299999999954
        },
        {
          "name": "F#2",
          "midi": 42,
          "time": 5.487795,
          "velocity": 1,
          "duration": 0.18292649999999977
        },
        {
          "name": "A#2",
          "midi": 46,
          "time": 5.6707215,
          "velocity": 1,
          "duration": 0.18292649999999977
        },
        {
          "name": "E3",
          "midi": 52,
          "time": 5.853648,
          "velocity": 1,
          "duration": 0.18292649999999977
        },
        {
          "name": "F#2",
          "midi": 42,
          "time": 6.0365744999999995,
          "velocity": 1,
          "duration": 0.18292649999999977
        },
        {
          "name": "E6",
          "midi": 88,
          "time": 6.219500999999999,
          "velocity": 0.6299212598425197,
          "duration": 0.36585299999999954
        },
        {
          "name": "F#2",
          "midi": 42,
          "time": 6.219500999999999,
          "velocity": 1,
          "duration": 0.18292649999999977
        },
        {
          "name": "F#2",
          "midi": 42,
          "time": 6.402427499999999,
          "velocity": 1,
          "duration": 0.18292649999999977
        },
        {
          "name": "F#2",
          "midi": 42,
          "time": 6.585353999999999,
          "velocity": 1,
          "duration": 0.18292649999999977
        },
        {
          "name": "F#2",
          "midi": 42,
          "time": 6.768280499999999,
          "velocity": 1,
          "duration": 0.18292649999999977
        },
        {
          "name": "E6",
          "midi": 88,
          "time": 6.951206999999998,
          "velocity": 0.6299212598425197,
          "duration": 0.36585299999999954
        },
        {
          "name": "F#2",
          "midi": 42,
          "time": 6.951206999999998,
          "velocity": 1,
          "duration": 0.18292649999999977
        },
        {
          "name": "F#2",
          "midi": 42,
          "time": 7.134133499999998,
          "velocity": 1,
          "duration": 0.18292649999999977
        },
        {
          "name": "F#2",
          "midi": 42,
          "time": 7.317059999999998,
          "velocity": 1,
          "duration": 0.18292649999999977
        },
        {
          "name": "F#2",
          "midi": 42,
          "time": 7.499986499999998,
          "velocity": 1,
          "duration": 0.18292649999999977
        },
        {
          "name": "E6",
          "midi": 88,
          "time": 7.682912999999997,
          "velocity": 0.6299212598425197,
          "duration": 0.36585299999999954
        },
        {
          "name": "F#2",
          "midi": 42,
          "time": 7.682912999999997,
          "velocity": 1,
          "duration": 0.18292649999999977
        },
        {
          "name": "F#2",
          "midi": 42,
          "time": 7.865839499999997,
          "velocity": 1,
          "duration": 0.18292649999999977
        },
        {
          "name": "F#2",
          "midi": 42,
          "time": 8.048765999999997,
          "velocity": 1,
          "duration": 0.18292650000000066
        },
        {
          "name": "F#2",
          "midi": 42,
          "time": 8.231692499999998,
          "velocity": 1,
          "duration": 0.18292650000000066
        },
        {
          "name": "E6",
          "midi": 88,
          "time": 8.414618999999998,
          "velocity": 0.6299212598425197,
          "duration": 0.3658530000000013
        },
        {
          "name": "F#2",
          "midi": 42,
          "time": 8.414618999999998,
          "velocity": 1,
          "duration": 0.18292650000000066
        },
        {
          "name": "A#2",
          "midi": 46,
          "time": 8.597545499999999,
          "velocity": 1,
          "duration": 0.18292650000000066
        },
        {
          "name": "F#2",
          "midi": 42,
          "time": 8.780472,
          "velocity": 1,
          "duration": 0.18292650000000066
        },
        {
          "name": "F#2",
          "midi": 42,
          "time": 8.9633985,
          "velocity": 1,
          "duration": 0.18292650000000066
        },
        {
          "name": "E6",
          "midi": 88,
          "time": 9.146325000000001,
          "velocity": 0.6299212598425197,
          "duration": 0.3658530000000013
        },
        {
          "name": "F#2",
          "midi": 42,
          "time": 9.146325000000001,
          "velocity": 1,
          "duration": 0.18292650000000066
        },
        {
          "name": "F#2",
          "midi": 42,
          "time": 9.329251500000002,
          "velocity": 1,
          "duration": 0.18292650000000066
        },
        {
          "name": "F#2",
          "midi": 42,
          "time": 9.512178000000002,
          "velocity": 1,
          "duration": 0.18292650000000066
        },
        {
          "name": "F#2",
          "midi": 42,
          "time": 9.695104500000003,
          "velocity": 1,
          "duration": 0.18292650000000066
        },
        {
          "name": "E6",
          "midi": 88,
          "time": 9.878031000000004,
          "velocity": 0.6299212598425197,
          "duration": 0.3658530000000013
        },
        {
          "name": "F#2",
          "midi": 42,
          "time": 9.878031000000004,
          "velocity": 1,
          "duration": 0.18292650000000066
        },
        {
          "name": "F#2",
          "midi": 42,
          "time": 10.060957500000004,
          "velocity": 1,
          "duration": 0.18292650000000066
        },
        {
          "name": "F#2",
          "midi": 42,
          "time": 10.243884000000005,
          "velocity": 1,
          "duration": 0.18292650000000066
        },
        {
          "name": "E6",
          "midi": 88,
          "time": 10.426810500000006,
          "velocity": 0.6299212598425197,
          "duration": 0.18292650000000066
        },
        {
          "name": "F#2",
          "midi": 42,
          "time": 10.426810500000006,
          "velocity": 1,
          "duration": 0.18292650000000066
        },
        {
          "name": "E6",
          "midi": 88,
          "time": 10.609737000000006,
          "velocity": 0.6299212598425197,
          "duration": 0.18292650000000066
        },
        {
          "name": "F#2",
          "midi": 42,
          "time": 10.609737000000006,
          "velocity": 1,
          "duration": 0.18292650000000066
        },
        {
          "name": "E6",
          "midi": 88,
          "time": 10.792663500000007,
          "velocity": 0.6299212598425197,
          "duration": 0.18292650000000066
        },
        {
          "name": "A#2",
          "midi": 46,
          "time": 10.792663500000007,
          "velocity": 1,
          "duration": 0.18292650000000066
        },
        {
          "name": "E3",
          "midi": 52,
          "time": 11.707296000000008,
          "velocity": 1,
          "duration": 0.18292650000000066
        },
        {
          "name": "F#2",
          "midi": 42,
          "time": 11.890222500000009,
          "velocity": 1,
          "duration": 0.18292650000000066
        },
        {
          "name": "E6",
          "midi": 88,
          "time": 12.07314900000001,
          "velocity": 0.6299212598425197,
          "duration": 0.3658530000000013
        },
        {
          "name": "F#2",
          "midi": 42,
          "time": 12.07314900000001,
          "velocity": 1,
          "duration": 0.18292650000000066
        },
        {
          "name": "F#2",
          "midi": 42,
          "time": 12.25607550000001,
          "velocity": 1,
          "duration": 0.18292650000000066
        },
        {
          "name": "F#2",
          "midi": 42,
          "time": 12.439002000000011,
          "velocity": 1,
          "duration": 0.18292650000000066
        },
        {
          "name": "F#2",
          "midi": 42,
          "time": 12.621928500000012,
          "velocity": 1,
          "duration": 0.18292650000000066
        },
        {
          "name": "E6",
          "midi": 88,
          "time": 12.804855000000012,
          "velocity": 0.6299212598425197,
          "duration": 0.3658530000000013
        },
        {
          "name": "F#2",
          "midi": 42,
          "time": 12.804855000000012,
          "velocity": 1,
          "duration": 0.18292650000000066
        },
        {
          "name": "F#2",
          "midi": 42,
          "time": 12.987781500000013,
          "velocity": 1,
          "duration": 0.18292650000000066
        },
        {
          "name": "F#2",
          "midi": 42,
          "time": 13.170708000000014,
          "velocity": 1,
          "duration": 0.18292650000000066
        },
        {
          "name": "F#2",
          "midi": 42,
          "time": 13.353634500000014,
          "velocity": 1,
          "duration": 0.18292650000000066
        },
        {
          "name": "E6",
          "midi": 88,
          "time": 13.536561000000015,
          "velocity": 0.6299212598425197,
          "duration": 0.3658530000000013
        },
        {
          "name": "F#2",
          "midi": 42,
          "time": 13.536561000000015,
          "velocity": 1,
          "duration": 0.18292650000000066
        },
        {
          "name": "F#2",
          "midi": 42,
          "time": 13.719487500000016,
          "velocity": 1,
          "duration": 0.18292650000000066
        },
        {
          "name": "F#2",
          "midi": 42,
          "time": 13.902414000000016,
          "velocity": 1,
          "duration": 0.18292650000000066
        },
        {
          "name": "F#2",
          "midi": 42,
          "time": 14.085340500000017,
          "velocity": 1,
          "duration": 0.18292650000000066
        },
        {
          "name": "E6",
          "midi": 88,
          "time": 14.268267000000018,
          "velocity": 0.6299212598425197,
          "duration": 0.3658530000000013
        },
        {
          "name": "F#2",
          "midi": 42,
          "time": 14.268267000000018,
          "velocity": 1,
          "duration": 0.18292650000000066
        },
        {
          "name": "A#2",
          "midi": 46,
          "time": 14.451193500000018,
          "velocity": 1,
          "duration": 0.18292650000000066
        },
        {
          "name": "F#2",
          "midi": 42,
          "time": 14.634120000000019,
          "velocity": 1,
          "duration": 0.18292650000000066
        },
        {
          "name": "F#2",
          "midi": 42,
          "time": 14.81704650000002,
          "velocity": 1,
          "duration": 0.18292650000000066
        },
        {
          "name": "E6",
          "midi": 88,
          "time": 14.99997300000002,
          "velocity": 0.6299212598425197,
          "duration": 0.3658530000000013
        },
        {
          "name": "F#2",
          "midi": 42,
          "time": 14.99997300000002,
          "velocity": 1,
          "duration": 0.18292650000000066
        },
        {
          "name": "F#2",
          "midi": 42,
          "time": 15.18289950000002,
          "velocity": 1,
          "duration": 0.18292650000000066
        },
        {
          "name": "F#2",
          "midi": 42,
          "time": 15.365826000000022,
          "velocity": 1,
          "duration": 0.18292650000000066
        },
        {
          "name": "F#2",
          "midi": 42,
          "time": 15.548752500000022,
          "velocity": 1,
          "duration": 0.18292650000000066
        },
        {
          "name": "E6",
          "midi": 88,
          "time": 15.731679000000023,
          "velocity": 0.6299212598425197,
          "duration": 0.36585299999999954
        },
        {
          "name": "F#2",
          "midi": 42,
          "time": 15.731679000000023,
          "velocity": 1,
          "duration": 0.18292650000000066
        },
        {
          "name": "F#2",
          "midi": 42,
          "time": 15.914605500000023,
          "velocity": 1,
          "duration": 0.18292649999999888
        },
        {
          "name": "F#2",
          "midi": 42,
          "time": 16.097532000000022,
          "velocity": 1,
          "duration": 0.18292650000000066
        },
        {
          "name": "F#2",
          "midi": 42,
          "time": 16.280458500000023,
          "velocity": 1,
          "duration": 0.18292650000000066
        },
        {
          "name": "E6",
          "midi": 88,
          "time": 16.463385000000024,
          "velocity": 0.6299212598425197,
          "duration": 0.3658530000000013
        },
        {
          "name": "F#2",
          "midi": 42,
          "time": 16.463385000000024,
          "velocity": 1,
          "duration": 0.18292650000000066
        },
        {
          "name": "F#2",
          "midi": 42,
          "time": 16.646311500000024,
          "velocity": 1,
          "duration": 0.18292650000000066
        },
        {
          "name": "F#2",
          "midi": 42,
          "time": 16.829238000000025,
          "velocity": 1,
          "duration": 0.18292650000000066
        },
        {
          "name": "F#2",
          "midi": 42,
          "time": 17.012164500000026,
          "velocity": 1,
          "duration": 0.18292650000000066
        },
        {
          "name": "E6",
          "midi": 88,
          "time": 17.195091000000026,
          "velocity": 0.6299212598425197,
          "duration": 0.3658530000000013
        },
        {
          "name": "F#2",
          "midi": 42,
          "time": 17.195091000000026,
          "velocity": 1,
          "duration": 0.18292650000000066
        },
        {
          "name": "A#2",
          "midi": 46,
          "time": 17.378017500000027,
          "velocity": 1,
          "duration": 0.18292650000000066
        },
        {
          "name": "F#2",
          "midi": 42,
          "time": 17.560944000000028,
          "velocity": 1,
          "duration": 0.18292650000000066
        },
        {
          "name": "F#2",
          "midi": 42,
          "time": 17.74387050000003,
          "velocity": 1,
          "duration": 0.18292650000000066
        },
        {
          "name": "E6",
          "midi": 88,
          "time": 17.92679700000003,
          "velocity": 0.6299212598425197,
          "duration": 0.3658530000000013
        },
        {
          "name": "F#2",
          "midi": 42,
          "time": 17.92679700000003,
          "velocity": 1,
          "duration": 0.18292650000000066
        },
        {
          "name": "F#2",
          "midi": 42,
          "time": 18.10972350000003,
          "velocity": 1,
          "duration": 0.18292650000000066
        },
        {
          "name": "F#2",
          "midi": 42,
          "time": 18.29265000000003,
          "velocity": 1,
          "duration": 0.18292650000000066
        },
        {
          "name": "F#2",
          "midi": 42,
          "time": 18.47557650000003,
          "velocity": 1,
          "duration": 0.18292650000000066
        },
        {
          "name": "E6",
          "midi": 88,
          "time": 18.65850300000003,
          "velocity": 0.6299212598425197,
          "duration": 0.3658530000000013
        },
        {
          "name": "F#2",
          "midi": 42,
          "time": 18.65850300000003,
          "velocity": 1,
          "duration": 0.18292650000000066
        },
        {
          "name": "F#2",
          "midi": 42,
          "time": 18.841429500000032,
          "velocity": 1,
          "duration": 0.18292650000000066
        },
        {
          "name": "F#2",
          "midi": 42,
          "time": 19.024356000000033,
          "velocity": 1,
          "duration": 0.18292650000000066
        },
        {
          "name": "F#2",
          "midi": 42,
          "time": 19.207282500000034,
          "velocity": 1,
          "duration": 0.18292650000000066
        },
        {
          "name": "E6",
          "midi": 88,
          "time": 19.390209000000034,
          "velocity": 0.6299212598425197,
          "duration": 0.3658530000000013
        },
        {
          "name": "F#2",
          "midi": 42,
          "time": 19.390209000000034,
          "velocity": 1,
          "duration": 0.18292650000000066
        },
        {
          "name": "F#2",
          "midi": 42,
          "time": 19.573135500000035,
          "velocity": 1,
          "duration": 0.18292650000000066
        },
        {
          "name": "F#2",
          "midi": 42,
          "time": 19.756062000000036,
          "velocity": 1,
          "duration": 0.18292650000000066
        },
        {
          "name": "F#2",
          "midi": 42,
          "time": 19.938988500000036,
          "velocity": 1,
          "duration": 0.18292650000000066
        },
        {
          "name": "E6",
          "midi": 88,
          "time": 20.121915000000037,
          "velocity": 0.6299212598425197,
          "duration": 0.3658530000000013
        },
        {
          "name": "F#2",
          "midi": 42,
          "time": 20.121915000000037,
          "velocity": 1,
          "duration": 0.18292650000000066
        },
        {
          "name": "A#2",
          "midi": 46,
          "time": 20.304841500000038,
          "velocity": 1,
          "duration": 0.18292650000000066
        },
        {
          "name": "F#2",
          "midi": 42,
          "time": 20.487768000000038,
          "velocity": 1,
          "duration": 0.18292650000000066
        },
        {
          "name": "F#2",
          "midi": 42,
          "time": 20.67069450000004,
          "velocity": 1,
          "duration": 0.18292650000000066
        },
        {
          "name": "E6",
          "midi": 88,
          "time": 20.85362100000004,
          "velocity": 0.6299212598425197,
          "duration": 0.3658530000000013
        },
        {
          "name": "F#2",
          "midi": 42,
          "time": 20.85362100000004,
          "velocity": 1,
          "duration": 0.18292650000000066
        },
        {
          "name": "F#2",
          "midi": 42,
          "time": 21.03654750000004,
          "velocity": 1,
          "duration": 0.18292650000000066
        },
        {
          "name": "F#2",
          "midi": 42,
          "time": 21.21947400000004,
          "velocity": 1,
          "duration": 0.18292650000000066
        },
        {
          "name": "F#2",
          "midi": 42,
          "time": 21.40240050000004,
          "velocity": 1,
          "duration": 0.18292650000000066
        },
        {
          "name": "E6",
          "midi": 88,
          "time": 21.585327000000042,
          "velocity": 0.6299212598425197,
          "duration": 0.3658530000000013
        },
        {
          "name": "F#2",
          "midi": 42,
          "time": 21.585327000000042,
          "velocity": 1,
          "duration": 0.18292650000000066
        },
        {
          "name": "F#2",
          "midi": 42,
          "time": 21.768253500000043,
          "velocity": 1,
          "duration": 0.18292650000000066
        },
        {
          "name": "F#2",
          "midi": 42,
          "time": 21.951180000000043,
          "velocity": 1,
          "duration": 0.18292650000000066
        },
        {
          "name": "F#2",
          "midi": 42,
          "time": 22.134106500000044,
          "velocity": 1,
          "duration": 0.18292650000000066
        },
        {
          "name": "E6",
          "midi": 88,
          "time": 22.317033000000045,
          "velocity": 0.6299212598425197,
          "duration": 0.18292650000000066
        },
        {
          "name": "F#2",
          "midi": 42,
          "time": 22.317033000000045,
          "velocity": 1,
          "duration": 0.18292650000000066
        },
        {
          "name": "E6",
          "midi": 88,
          "time": 22.499959500000045,
          "velocity": 0.6299212598425197,
          "duration": 0.18292650000000066
        },
        {
          "name": "A#2",
          "midi": 46,
          "time": 22.499959500000045,
          "velocity": 1,
          "duration": 0.18292650000000066
        },
        {
          "name": "E3",
          "midi": 52,
          "time": 23.414592000000045,
          "velocity": 1,
          "duration": 0.18292650000000066
        },
        {
          "name": "F#2",
          "midi": 42,
          "time": 23.597518500000046,
          "velocity": 1,
          "duration": 0.18292650000000066
        },
        {
          "name": "E6",
          "midi": 88,
          "time": 23.780445000000046,
          "velocity": 0.6299212598425197,
          "duration": 0.3658530000000013
        },
        {
          "name": "F#2",
          "midi": 42,
          "time": 23.780445000000046,
          "velocity": 1,
          "duration": 0.18292650000000066
        },
        {
          "name": "F#2",
          "midi": 42,
          "time": 23.963371500000047,
          "velocity": 1,
          "duration": 0.18292650000000066
        },
        {
          "name": "F#2",
          "midi": 42,
          "time": 24.146298000000048,
          "velocity": 1,
          "duration": 0.18292650000000066
        },
        {
          "name": "F#2",
          "midi": 42,
          "time": 24.32922450000005,
          "velocity": 1,
          "duration": 0.18292650000000066
        },
        {
          "name": "E6",
          "midi": 88,
          "time": 24.51215100000005,
          "velocity": 0.6299212598425197,
          "duration": 0.3658530000000013
        },
        {
          "name": "F#2",
          "midi": 42,
          "time": 24.51215100000005,
          "velocity": 1,
          "duration": 0.18292650000000066
        },
        {
          "name": "F#2",
          "midi": 42,
          "time": 24.69507750000005,
          "velocity": 1,
          "duration": 0.18292650000000066
        },
        {
          "name": "F#2",
          "midi": 42,
          "time": 24.87800400000005,
          "velocity": 1,
          "duration": 0.18292650000000066
        },
        {
          "name": "F#2",
          "midi": 42,
          "time": 25.06093050000005,
          "velocity": 1,
          "duration": 0.18292650000000066
        },
        {
          "name": "E6",
          "midi": 88,
          "time": 25.24385700000005,
          "velocity": 0.6299212598425197,
          "duration": 0.3658530000000013
        },
        {
          "name": "F#2",
          "midi": 42,
          "time": 25.24385700000005,
          "velocity": 1,
          "duration": 0.18292650000000066
        },
        {
          "name": "F#2",
          "midi": 42,
          "time": 25.426783500000052,
          "velocity": 1,
          "duration": 0.18292650000000066
        },
        {
          "name": "F#2",
          "midi": 42,
          "time": 25.609710000000053,
          "velocity": 1,
          "duration": 0.18292650000000066
        },
        {
          "name": "F#2",
          "midi": 42,
          "time": 25.792636500000054,
          "velocity": 1,
          "duration": 0.18292650000000066
        },
        {
          "name": "E6",
          "midi": 88,
          "time": 25.975563000000054,
          "velocity": 0.6299212598425197,
          "duration": 0.3658530000000013
        },
        {
          "name": "F#2",
          "midi": 42,
          "time": 25.975563000000054,
          "velocity": 1,
          "duration": 0.18292650000000066
        },
        {
          "name": "A#2",
          "midi": 46,
          "time": 26.158489500000055,
          "velocity": 1,
          "duration": 0.18292650000000066
        },
        {
          "name": "F#2",
          "midi": 42,
          "time": 26.341416000000056,
          "velocity": 1,
          "duration": 0.18292650000000066
        },
        {
          "name": "F#2",
          "midi": 42,
          "time": 26.524342500000056,
          "velocity": 1,
          "duration": 0.18292650000000066
        },
        {
          "name": "E6",
          "midi": 88,
          "time": 26.707269000000057,
          "velocity": 0.6299212598425197,
          "duration": 0.3658530000000013
        },
        {
          "name": "F#2",
          "midi": 42,
          "time": 26.707269000000057,
          "velocity": 1,
          "duration": 0.18292650000000066
        },
        {
          "name": "F#2",
          "midi": 42,
          "time": 26.890195500000058,
          "velocity": 1,
          "duration": 0.18292650000000066
        },
        {
          "name": "F#2",
          "midi": 42,
          "time": 27.07312200000006,
          "velocity": 1,
          "duration": 0.18292650000000066
        },
        {
          "name": "F#2",
          "midi": 42,
          "time": 27.25604850000006,
          "velocity": 1,
          "duration": 0.18292650000000066
        },
        {
          "name": "E6",
          "midi": 88,
          "time": 27.43897500000006,
          "velocity": 0.6299212598425197,
          "duration": 0.3658530000000013
        },
        {
          "name": "F#2",
          "midi": 42,
          "time": 27.43897500000006,
          "velocity": 1,
          "duration": 0.18292650000000066
        },
        {
          "name": "F#2",
          "midi": 42,
          "time": 27.62190150000006,
          "velocity": 1,
          "duration": 0.18292650000000066
        },
        {
          "name": "F#2",
          "midi": 42,
          "time": 27.80482800000006,
          "velocity": 1,
          "duration": 0.18292650000000066
        },
        {
          "name": "F#2",
          "midi": 42,
          "time": 27.98775450000006,
          "velocity": 1,
          "duration": 0.18292650000000066
        },
        {
          "name": "E6",
          "midi": 88,
          "time": 28.170681000000062,
          "velocity": 0.6299212598425197,
          "duration": 0.3658530000000013
        },
        {
          "name": "F#2",
          "midi": 42,
          "time": 28.170681000000062,
          "velocity": 1,
          "duration": 0.18292650000000066
        },
        {
          "name": "F#2",
          "midi": 42,
          "time": 28.353607500000063,
          "velocity": 1,
          "duration": 0.18292650000000066
        },
        {
          "name": "F#2",
          "midi": 42,
          "time": 28.536534000000064,
          "velocity": 1,
          "duration": 0.18292650000000066
        },
        {
          "name": "F#2",
          "midi": 42,
          "time": 28.719460500000064,
          "velocity": 1,
          "duration": 0.18292650000000066
        },
        {
          "name": "E6",
          "midi": 88,
          "time": 28.902387000000065,
          "velocity": 0.6299212598425197,
          "duration": 0.3658530000000013
        },
        {
          "name": "F#2",
          "midi": 42,
          "time": 28.902387000000065,
          "velocity": 1,
          "duration": 0.18292650000000066
        },
        {
          "name": "A#2",
          "midi": 46,
          "time": 29.085313500000066,
          "velocity": 1,
          "duration": 0.18292650000000066
        },
        {
          "name": "F#2",
          "midi": 42,
          "time": 29.268240000000066,
          "velocity": 1,
          "duration": 0.18292650000000066
        },
        {
          "name": "F#2",
          "midi": 42,
          "time": 29.451166500000067,
          "velocity": 1,
          "duration": 0.18292650000000066
        },
        {
          "name": "E6",
          "midi": 88,
          "time": 29.634093000000068,
          "velocity": 0.6299212598425197,
          "duration": 0.3658530000000013
        },
        {
          "name": "F#2",
          "midi": 42,
          "time": 29.634093000000068,
          "velocity": 1,
          "duration": 0.18292650000000066
        },
        {
          "name": "F#2",
          "midi": 42,
          "time": 29.817019500000068,
          "velocity": 1,
          "duration": 0.18292650000000066
        },
        {
          "name": "F#2",
          "midi": 42,
          "time": 29.99994600000007,
          "velocity": 1,
          "duration": 0.18292650000000066
        },
        {
          "name": "F#2",
          "midi": 42,
          "time": 30.18287250000007,
          "velocity": 1,
          "duration": 0.18292650000000066
        },
        {
          "name": "E6",
          "midi": 88,
          "time": 30.36579900000007,
          "velocity": 0.6299212598425197,
          "duration": 0.3658530000000013
        },
        {
          "name": "F#2",
          "midi": 42,
          "time": 30.36579900000007,
          "velocity": 1,
          "duration": 0.18292650000000066
        },
        {
          "name": "F#2",
          "midi": 42,
          "time": 30.54872550000007,
          "velocity": 1,
          "duration": 0.18292650000000066
        },
        {
          "name": "F#2",
          "midi": 42,
          "time": 30.73165200000007,
          "velocity": 1,
          "duration": 0.18292650000000066
        },
        {
          "name": "F#2",
          "midi": 42,
          "time": 30.914578500000072,
          "velocity": 1,
          "duration": 0.18292650000000066
        },
        {
          "name": "E6",
          "midi": 88,
          "time": 31.097505000000073,
          "velocity": 0.6299212598425197,
          "duration": 0.3658530000000013
        },
        {
          "name": "F#2",
          "midi": 42,
          "time": 31.097505000000073,
          "velocity": 1,
          "duration": 0.18292650000000066
        },
        {
          "name": "F#2",
          "midi": 42,
          "time": 31.280431500000073,
          "velocity": 1,
          "duration": 0.18292650000000066
        },
        {
          "name": "F#2",
          "midi": 42,
          "time": 31.463358000000074,
          "velocity": 1,
          "duration": 0.18292650000000066
        },
        {
          "name": "F#2",
          "midi": 42,
          "time": 31.646284500000075,
          "velocity": 1,
          "duration": 0.18292650000000066
        },
        {
          "name": "E6",
          "midi": 88,
          "time": 31.829211000000075,
          "velocity": 0.6299212598425197,
          "duration": 0.36585299999999776
        },
        {
          "name": "F#2",
          "midi": 42,
          "time": 31.829211000000075,
          "velocity": 1,
          "duration": 0.1829264999999971
        },
        {
          "name": "A#2",
          "midi": 46,
          "time": 32.01213750000007,
          "velocity": 1,
          "duration": 0.18292650000000066
        },
        {
          "name": "F#2",
          "midi": 42,
          "time": 32.19506400000007,
          "velocity": 1,
          "duration": 0.18292650000000066
        },
        {
          "name": "F#2",
          "midi": 42,
          "time": 32.377990500000074,
          "velocity": 1,
          "duration": 0.18292650000000066
        },
        {
          "name": "E6",
          "midi": 88,
          "time": 32.560917000000074,
          "velocity": 0.6299212598425197,
          "duration": 0.3658530000000013
        },
        {
          "name": "F#2",
          "midi": 42,
          "time": 32.560917000000074,
          "velocity": 1,
          "duration": 0.18292650000000066
        },
        {
          "name": "F#2",
          "midi": 42,
          "time": 32.743843500000075,
          "velocity": 1,
          "duration": 0.18292650000000066
        },
        {
          "name": "F#2",
          "midi": 42,
          "time": 32.926770000000076,
          "velocity": 1,
          "duration": 0.18292650000000066
        },
        {
          "name": "F#2",
          "midi": 42,
          "time": 33.10969650000008,
          "velocity": 1,
          "duration": 0.18292650000000066
        },
        {
          "name": "E6",
          "midi": 88,
          "time": 33.29262300000008,
          "velocity": 0.6299212598425197,
          "duration": 0.3658530000000013
        },
        {
          "name": "F#2",
          "midi": 42,
          "time": 33.29262300000008,
          "velocity": 1,
          "duration": 0.18292650000000066
        },
        {
          "name": "A#2",
          "midi": 46,
          "time": 33.47554950000008,
          "velocity": 1,
          "duration": 0.18292650000000066
        },
        {
          "name": "F#2",
          "midi": 42,
          "time": 33.65847600000008,
          "velocity": 1,
          "duration": 0.18292650000000066
        },
        {
          "name": "F#2",
          "midi": 42,
          "time": 33.84140250000008,
          "velocity": 1,
          "duration": 0.18292650000000066
        },
        {
          "name": "E6",
          "midi": 88,
          "time": 34.02432900000008,
          "velocity": 0.6299212598425197,
          "duration": 0.3658530000000013
        },
        {
          "name": "F#2",
          "midi": 42,
          "time": 34.02432900000008,
          "velocity": 1,
          "duration": 0.18292650000000066
        },
        {
          "name": "F#2",
          "midi": 42,
          "time": 34.20725550000008,
          "velocity": 1,
          "duration": 0.18292650000000066
        },
        {
          "name": "E6",
          "midi": 88,
          "time": 34.39018200000008,
          "velocity": 0.6299212598425197,
          "duration": 0.3658530000000013
        },
        {
          "name": "F#2",
          "midi": 42,
          "time": 34.39018200000008,
          "velocity": 1,
          "duration": 0.18292650000000066
        },
        {
          "name": "F#2",
          "midi": 42,
          "time": 34.57310850000008,
          "velocity": 1,
          "duration": 0.18292650000000066
        },
        {
          "name": "E6",
          "midi": 88,
          "time": 34.75603500000008,
          "velocity": 0.6299212598425197,
          "duration": 0.18292650000000066
        },
        {
          "name": "F#2",
          "midi": 42,
          "time": 34.75603500000008,
          "velocity": 1,
          "duration": 0.18292650000000066
        },
        {
          "name": "E6",
          "midi": 88,
          "time": 34.93896150000008,
          "velocity": 0.6299212598425197,
          "duration": 0.09146324999999678
        },
        {
          "name": "E6",
          "midi": 88,
          "time": 35.03042475000008,
          "velocity": 0.6299212598425197,
          "duration": 0.09146324999999678
        },
        {
          "name": "E3",
          "midi": 52,
          "time": 35.12188800000008,
          "velocity": 1,
          "duration": 0.18292650000000066
        },
        {
          "name": "F#2",
          "midi": 42,
          "time": 35.30481450000008,
          "velocity": 1,
          "duration": 0.18292650000000066
        },
        {
          "name": "E6",
          "midi": 88,
          "time": 35.48774100000008,
          "velocity": 0.6299212598425197,
          "duration": 0.3658530000000013
        },
        {
          "name": "F#2",
          "midi": 42,
          "time": 35.48774100000008,
          "velocity": 1,
          "duration": 0.18292650000000066
        },
        {
          "name": "F#2",
          "midi": 42,
          "time": 35.67066750000008,
          "velocity": 1,
          "duration": 0.18292650000000066
        },
        {
          "name": "F#2",
          "midi": 42,
          "time": 35.85359400000008,
          "velocity": 1,
          "duration": 0.18292650000000066
        },
        {
          "name": "F#2",
          "midi": 42,
          "time": 36.03652050000008,
          "velocity": 1,
          "duration": 0.18292650000000066
        },
        {
          "name": "E6",
          "midi": 88,
          "time": 36.21944700000008,
          "velocity": 0.6299212598425197,
          "duration": 0.3658530000000013
        },
        {
          "name": "F#2",
          "midi": 42,
          "time": 36.21944700000008,
          "velocity": 1,
          "duration": 0.18292650000000066
        },
        {
          "name": "F#2",
          "midi": 42,
          "time": 36.40237350000008,
          "velocity": 1,
          "duration": 0.18292650000000066
        },
        {
          "name": "F#2",
          "midi": 42,
          "time": 36.58530000000008,
          "velocity": 1,
          "duration": 0.18292650000000066
        },
        {
          "name": "F#2",
          "midi": 42,
          "time": 36.76822650000008,
          "velocity": 1,
          "duration": 0.18292650000000066
        },
        {
          "name": "E6",
          "midi": 88,
          "time": 36.95115300000008,
          "velocity": 0.6299212598425197,
          "duration": 0.3658530000000013
        },
        {
          "name": "F#2",
          "midi": 42,
          "time": 36.95115300000008,
          "velocity": 1,
          "duration": 0.18292650000000066
        },
        {
          "name": "F#2",
          "midi": 42,
          "time": 37.134079500000084,
          "velocity": 1,
          "duration": 0.18292650000000066
        },
        {
          "name": "F#2",
          "midi": 42,
          "time": 37.317006000000084,
          "velocity": 1,
          "duration": 0.18292650000000066
        },
        {
          "name": "F#2",
          "midi": 42,
          "time": 37.499932500000085,
          "velocity": 1,
          "duration": 0.18292650000000066
        },
        {
          "name": "E6",
          "midi": 88,
          "time": 37.682859000000086,
          "velocity": 0.6299212598425197,
          "duration": 0.18292650000000066
        },
        {
          "name": "F#2",
          "midi": 42,
          "time": 37.682859000000086,
          "velocity": 1,
          "duration": 0.18292650000000066
        },
        {
          "name": "E6",
          "midi": 88,
          "time": 37.86578550000009,
          "velocity": 0.6299212598425197,
          "duration": 0.18292650000000066
        },
        {
          "name": "A#2",
          "midi": 46,
          "time": 37.86578550000009,
          "velocity": 1,
          "duration": 0.18292650000000066
        },
        {
          "name": "F#2",
          "midi": 42,
          "time": 38.04871200000009,
          "velocity": 1,
          "duration": 0.18292650000000066
        },
        {
          "name": "F#2",
          "midi": 42,
          "time": 38.23163850000009,
          "velocity": 1,
          "duration": 0.18292650000000066
        },
        {
          "name": "E6",
          "midi": 88,
          "time": 38.41456500000009,
          "velocity": 0.6299212598425197,
          "duration": 0.3658530000000013
        },
        {
          "name": "F#2",
          "midi": 42,
          "time": 38.41456500000009,
          "velocity": 1,
          "duration": 0.18292650000000066
        },
        {
          "name": "F#2",
          "midi": 42,
          "time": 38.59749150000009,
          "velocity": 1,
          "duration": 0.18292650000000066
        },
        {
          "name": "F#2",
          "midi": 42,
          "time": 38.78041800000009,
          "velocity": 1,
          "duration": 0.18292650000000066
        },
        {
          "name": "F#2",
          "midi": 42,
          "time": 38.96334450000009,
          "velocity": 1,
          "duration": 0.18292650000000066
        },
        {
          "name": "E6",
          "midi": 88,
          "time": 39.14627100000009,
          "velocity": 0.6299212598425197,
          "duration": 0.3658530000000013
        },
        {
          "name": "F#2",
          "midi": 42,
          "time": 39.14627100000009,
          "velocity": 1,
          "duration": 0.18292650000000066
        },
        {
          "name": "F#2",
          "midi": 42,
          "time": 39.32919750000009,
          "velocity": 1,
          "duration": 0.18292650000000066
        },
        {
          "name": "F#2",
          "midi": 42,
          "time": 39.51212400000009,
          "velocity": 1,
          "duration": 0.18292650000000066
        },
        {
          "name": "F#2",
          "midi": 42,
          "time": 39.69505050000009,
          "velocity": 1,
          "duration": 0.18292650000000066
        },
        {
          "name": "E6",
          "midi": 88,
          "time": 39.877977000000094,
          "velocity": 0.6299212598425197,
          "duration": 0.3658530000000013
        },
        {
          "name": "F#2",
          "midi": 42,
          "time": 39.877977000000094,
          "velocity": 1,
          "duration": 0.18292650000000066
        },
        {
          "name": "F#2",
          "midi": 42,
          "time": 40.060903500000094,
          "velocity": 1,
          "duration": 0.18292650000000066
        },
        {
          "name": "F#2",
          "midi": 42,
          "time": 40.243830000000095,
          "velocity": 1,
          "duration": 0.18292650000000066
        },
        {
          "name": "F#2",
          "midi": 42,
          "time": 40.426756500000096,
          "velocity": 1,
          "duration": 0.18292650000000066
        },
        {
          "name": "E6",
          "midi": 88,
          "time": 40.609683000000096,
          "velocity": 0.6299212598425197,
          "duration": 0.18292650000000066
        },
        {
          "name": "F#2",
          "midi": 42,
          "time": 40.609683000000096,
          "velocity": 1,
          "duration": 0.18292650000000066
        },
        {
          "name": "E6",
          "midi": 88,
          "time": 40.7926095000001,
          "velocity": 0.6299212598425197,
          "duration": 0.18292650000000066
        },
        {
          "name": "A#2",
          "midi": 46,
          "time": 40.7926095000001,
          "velocity": 1,
          "duration": 0.18292650000000066
        },
        {
          "name": "F#2",
          "midi": 42,
          "time": 40.9755360000001,
          "velocity": 1,
          "duration": 0.18292650000000066
        },
        {
          "name": "F#2",
          "midi": 42,
          "time": 41.1584625000001,
          "velocity": 1,
          "duration": 0.18292650000000066
        },
        {
          "name": "E6",
          "midi": 88,
          "time": 41.3413890000001,
          "velocity": 0.6299212598425197,
          "duration": 0.3658530000000013
        },
        {
          "name": "F#2",
          "midi": 42,
          "time": 41.3413890000001,
          "velocity": 1,
          "duration": 0.18292650000000066
        },
        {
          "name": "F#2",
          "midi": 42,
          "time": 41.5243155000001,
          "velocity": 1,
          "duration": 0.18292650000000066
        },
        {
          "name": "F#2",
          "midi": 42,
          "time": 41.7072420000001,
          "velocity": 1,
          "duration": 0.18292650000000066
        },
        {
          "name": "F#2",
          "midi": 42,
          "time": 41.8901685000001,
          "velocity": 1,
          "duration": 0.18292650000000066
        },
        {
          "name": "E6",
          "midi": 88,
          "time": 42.0730950000001,
          "velocity": 0.6299212598425197,
          "duration": 0.3658530000000013
        },
        {
          "name": "F#2",
          "midi": 42,
          "time": 42.0730950000001,
          "velocity": 1,
          "duration": 0.18292650000000066
        },
        {
          "name": "F#2",
          "midi": 42,
          "time": 42.2560215000001,
          "velocity": 1,
          "duration": 0.18292650000000066
        },
        {
          "name": "F#2",
          "midi": 42,
          "time": 42.4389480000001,
          "velocity": 1,
          "duration": 0.18292650000000066
        },
        {
          "name": "F#2",
          "midi": 42,
          "time": 42.621874500000104,
          "velocity": 1,
          "duration": 0.18292650000000066
        },
        {
          "name": "E6",
          "midi": 88,
          "time": 42.804801000000104,
          "velocity": 0.6299212598425197,
          "duration": 0.3658530000000013
        },
        {
          "name": "F#2",
          "midi": 42,
          "time": 42.804801000000104,
          "velocity": 1,
          "duration": 0.18292650000000066
        },
        {
          "name": "F#2",
          "midi": 42,
          "time": 42.987727500000105,
          "velocity": 1,
          "duration": 0.18292650000000066
        },
        {
          "name": "F#2",
          "midi": 42,
          "time": 43.170654000000106,
          "velocity": 1,
          "duration": 0.18292650000000066
        },
        {
          "name": "F#2",
          "midi": 42,
          "time": 43.353580500000106,
          "velocity": 1,
          "duration": 0.18292650000000066
        },
        {
          "name": "E6",
          "midi": 88,
          "time": 43.53650700000011,
          "velocity": 0.6299212598425197,
          "duration": 0.18292650000000066
        },
        {
          "name": "F#2",
          "midi": 42,
          "time": 43.53650700000011,
          "velocity": 1,
          "duration": 0.18292650000000066
        },
        {
          "name": "E3",
          "midi": 52,
          "time": 43.71943350000011,
          "velocity": 1,
          "duration": 0.18292650000000066
        },
        {
          "name": "F#2",
          "midi": 42,
          "time": 43.90236000000011,
          "velocity": 1,
          "duration": 0.18292650000000066
        },
        {
          "name": "F#2",
          "midi": 42,
          "time": 44.08528650000011,
          "velocity": 1,
          "duration": 0.18292650000000066
        },
        {
          "name": "E6",
          "midi": 88,
          "time": 44.26821300000011,
          "velocity": 0.6299212598425197,
          "duration": 0.3658530000000013
        },
        {
          "name": "F#2",
          "midi": 42,
          "time": 44.26821300000011,
          "velocity": 1,
          "duration": 0.18292650000000066
        },
        {
          "name": "F#2",
          "midi": 42,
          "time": 44.45113950000011,
          "velocity": 1,
          "duration": 0.18292650000000066
        },
        {
          "name": "F#2",
          "midi": 42,
          "time": 44.63406600000011,
          "velocity": 1,
          "duration": 0.18292650000000066
        },
        {
          "name": "F#2",
          "midi": 42,
          "time": 44.81699250000011,
          "velocity": 1,
          "duration": 0.18292650000000066
        },
        {
          "name": "E6",
          "midi": 88,
          "time": 44.99991900000011,
          "velocity": 0.6299212598425197,
          "duration": 0.3658530000000013
        },
        {
          "name": "F#2",
          "midi": 42,
          "time": 44.99991900000011,
          "velocity": 1,
          "duration": 0.18292650000000066
        },
        {
          "name": "F#2",
          "midi": 42,
          "time": 45.18284550000011,
          "velocity": 1,
          "duration": 0.18292650000000066
        },
        {
          "name": "F#2",
          "midi": 42,
          "time": 45.36577200000011,
          "velocity": 1,
          "duration": 0.18292650000000066
        },
        {
          "name": "F#2",
          "midi": 42,
          "time": 45.548698500000114,
          "velocity": 1,
          "duration": 0.18292650000000066
        },
        {
          "name": "E6",
          "midi": 88,
          "time": 45.731625000000115,
          "velocity": 0.6299212598425197,
          "duration": 0.3658530000000013
        },
        {
          "name": "F#2",
          "midi": 42,
          "time": 45.731625000000115,
          "velocity": 1,
          "duration": 0.18292650000000066
        },
        {
          "name": "F#2",
          "midi": 42,
          "time": 45.914551500000115,
          "velocity": 1,
          "duration": 0.18292650000000066
        },
        {
          "name": "E6",
          "midi": 88,
          "time": 46.097478000000116,
          "velocity": 0.6299212598425197,
          "duration": 0.3658530000000013
        },
        {
          "name": "F#2",
          "midi": 42,
          "time": 46.097478000000116,
          "velocity": 1,
          "duration": 0.18292650000000066
        },
        {
          "name": "F#2",
          "midi": 42,
          "time": 46.28040450000012,
          "velocity": 1,
          "duration": 0.18292650000000066
        },
        {
          "name": "E6",
          "midi": 88,
          "time": 46.46333100000012,
          "velocity": 0.6299212598425197,
          "duration": 0.18292650000000066
        },
        {
          "name": "F#2",
          "midi": 42,
          "time": 46.46333100000012,
          "velocity": 1,
          "duration": 0.18292650000000066
        },
        {
          "name": "E6",
          "midi": 88,
          "time": 46.64625750000012,
          "velocity": 0.6299212598425197,
          "duration": 0.09146324999999678
        },
        {
          "name": "E6",
          "midi": 88,
          "time": 46.737720750000115,
          "velocity": 0.6299212598425197,
          "duration": 0.09146324999999678
        },
        {
          "name": "E3",
          "midi": 52,
          "time": 46.82918400000011,
          "velocity": 1,
          "duration": 0.18292650000000066
        },
        {
          "name": "F#2",
          "midi": 42,
          "time": 47.01211050000011,
          "velocity": 1,
          "duration": 0.18292650000000066
        },
        {
          "name": "E6",
          "midi": 88,
          "time": 47.19503700000011,
          "velocity": 0.6299212598425197,
          "duration": 0.3658530000000013
        },
        {
          "name": "F#2",
          "midi": 42,
          "time": 47.19503700000011,
          "velocity": 1,
          "duration": 0.18292650000000066
        },
        {
          "name": "F#2",
          "midi": 42,
          "time": 47.377963500000114,
          "velocity": 1,
          "duration": 0.18292650000000066
        },
        {
          "name": "F#2",
          "midi": 42,
          "time": 47.560890000000114,
          "velocity": 1,
          "duration": 0.18292650000000066
        },
        {
          "name": "F#2",
          "midi": 42,
          "time": 47.743816500000115,
          "velocity": 1,
          "duration": 0.18292650000000066
        },
        {
          "name": "E6",
          "midi": 88,
          "time": 47.926743000000116,
          "velocity": 0.6299212598425197,
          "duration": 0.3658530000000013
        },
        {
          "name": "F#2",
          "midi": 42,
          "time": 47.926743000000116,
          "velocity": 1,
          "duration": 0.18292650000000066
        },
        {
          "name": "F#2",
          "midi": 42,
          "time": 48.109669500000116,
          "velocity": 1,
          "duration": 0.18292650000000066
        },
        {
          "name": "F#2",
          "midi": 42,
          "time": 48.29259600000012,
          "velocity": 1,
          "duration": 0.18292650000000066
        },
        {
          "name": "F#2",
          "midi": 42,
          "time": 48.47552250000012,
          "velocity": 1,
          "duration": 0.18292650000000066
        },
        {
          "name": "E6",
          "midi": 88,
          "time": 48.65844900000012,
          "velocity": 0.6299212598425197,
          "duration": 0.3658530000000013
        },
        {
          "name": "F#2",
          "midi": 42,
          "time": 48.65844900000012,
          "velocity": 1,
          "duration": 0.18292650000000066
        },
        {
          "name": "F#2",
          "midi": 42,
          "time": 48.84137550000012,
          "velocity": 1,
          "duration": 0.18292650000000066
        },
        {
          "name": "F#2",
          "midi": 42,
          "time": 49.02430200000012,
          "velocity": 1,
          "duration": 0.18292650000000066
        },
        {
          "name": "F#2",
          "midi": 42,
          "time": 49.20722850000012,
          "velocity": 1,
          "duration": 0.18292650000000066
        },
        {
          "name": "E6",
          "midi": 88,
          "time": 49.39015500000012,
          "velocity": 0.6299212598425197,
          "duration": 0.3658530000000013
        },
        {
          "name": "F#2",
          "midi": 42,
          "time": 49.39015500000012,
          "velocity": 1,
          "duration": 0.18292650000000066
        },
        {
          "name": "A#2",
          "midi": 46,
          "time": 49.57308150000012,
          "velocity": 1,
          "duration": 0.18292650000000066
        },
        {
          "name": "F#2",
          "midi": 42,
          "time": 49.75600800000012,
          "velocity": 1,
          "duration": 0.18292650000000066
        },
        {
          "name": "F#2",
          "midi": 42,
          "time": 49.93893450000012,
          "velocity": 1,
          "duration": 0.18292650000000066
        },
        {
          "name": "E6",
          "midi": 88,
          "time": 50.12186100000012,
          "velocity": 0.6299212598425197,
          "duration": 0.3658530000000013
        },
        {
          "name": "F#2",
          "midi": 42,
          "time": 50.12186100000012,
          "velocity": 1,
          "duration": 0.18292650000000066
        },
        {
          "name": "F#2",
          "midi": 42,
          "time": 50.304787500000124,
          "velocity": 1,
          "duration": 0.18292650000000066
        },
        {
          "name": "F#2",
          "midi": 42,
          "time": 50.487714000000125,
          "velocity": 1,
          "duration": 0.18292650000000066
        },
        {
          "name": "F#2",
          "midi": 42,
          "time": 50.670640500000125,
          "velocity": 1,
          "duration": 0.18292650000000066
        },
        {
          "name": "E6",
          "midi": 88,
          "time": 50.853567000000126,
          "velocity": 0.6299212598425197,
          "duration": 0.3658530000000013
        },
        {
          "name": "F#2",
          "midi": 42,
          "time": 50.853567000000126,
          "velocity": 1,
          "duration": 0.18292650000000066
        },
        {
          "name": "F#2",
          "midi": 42,
          "time": 51.03649350000013,
          "velocity": 1,
          "duration": 0.18292650000000066
        },
        {
          "name": "F#2",
          "midi": 42,
          "time": 51.21942000000013,
          "velocity": 1,
          "duration": 0.18292650000000066
        },
        {
          "name": "F#2",
          "midi": 42,
          "time": 51.40234650000013,
          "velocity": 1,
          "duration": 0.18292650000000066
        },
        {
          "name": "E6",
          "midi": 88,
          "time": 51.58527300000013,
          "velocity": 0.6299212598425197,
          "duration": 0.3658530000000013
        },
        {
          "name": "F#2",
          "midi": 42,
          "time": 51.58527300000013,
          "velocity": 1,
          "duration": 0.18292650000000066
        },
        {
          "name": "F#2",
          "midi": 42,
          "time": 51.76819950000013,
          "velocity": 1,
          "duration": 0.18292650000000066
        },
        {
          "name": "F#2",
          "midi": 42,
          "time": 51.95112600000013,
          "velocity": 1,
          "duration": 0.18292650000000066
        },
        {
          "name": "F#2",
          "midi": 42,
          "time": 52.13405250000013,
          "velocity": 1,
          "duration": 0.18292650000000066
        },
        {
          "name": "E6",
          "midi": 88,
          "time": 52.31697900000013,
          "velocity": 0.6299212598425197,
          "duration": 0.3658530000000013
        },
        {
          "name": "F#2",
          "midi": 42,
          "time": 52.31697900000013,
          "velocity": 1,
          "duration": 0.18292650000000066
        },
        {
          "name": "A#2",
          "midi": 46,
          "time": 52.49990550000013,
          "velocity": 1,
          "duration": 0.18292650000000066
        },
        {
          "name": "E3",
          "midi": 52,
          "time": 52.68283200000013,
          "velocity": 1,
          "duration": 0.18292650000000066
        },
        {
          "name": "F#2",
          "midi": 42,
          "time": 52.86575850000013,
          "velocity": 1,
          "duration": 0.18292650000000066
        },
        {
          "name": "E6",
          "midi": 88,
          "time": 53.048685000000134,
          "velocity": 0.6299212598425197,
          "duration": 0.3658530000000013
        },
        {
          "name": "F#2",
          "midi": 42,
          "time": 53.048685000000134,
          "velocity": 1,
          "duration": 0.18292650000000066
        },
        {
          "name": "F#2",
          "midi": 42,
          "time": 53.231611500000135,
          "velocity": 1,
          "duration": 0.18292650000000066
        },
        {
          "name": "F#2",
          "midi": 42,
          "time": 53.414538000000135,
          "velocity": 1,
          "duration": 0.18292650000000066
        },
        {
          "name": "F#2",
          "midi": 42,
          "time": 53.597464500000136,
          "velocity": 1,
          "duration": 0.18292650000000066
        },
        {
          "name": "E6",
          "midi": 88,
          "time": 53.78039100000014,
          "velocity": 0.6299212598425197,
          "duration": 0.3658530000000013
        },
        {
          "name": "F#2",
          "midi": 42,
          "time": 53.78039100000014,
          "velocity": 1,
          "duration": 0.18292650000000066
        },
        {
          "name": "F#2",
          "midi": 42,
          "time": 53.96331750000014,
          "velocity": 1,
          "duration": 0.18292650000000066
        },
        {
          "name": "F#2",
          "midi": 42,
          "time": 54.14624400000014,
          "velocity": 1,
          "duration": 0.18292650000000066
        },
        {
          "name": "F#2",
          "midi": 42,
          "time": 54.32917050000014,
          "velocity": 1,
          "duration": 0.18292650000000066
        },
        {
          "name": "E6",
          "midi": 88,
          "time": 54.51209700000014,
          "velocity": 0.6299212598425197,
          "duration": 0.3658530000000013
        },
        {
          "name": "F#2",
          "midi": 42,
          "time": 54.51209700000014,
          "velocity": 1,
          "duration": 0.18292650000000066
        },
        {
          "name": "F#2",
          "midi": 42,
          "time": 54.69502350000014,
          "velocity": 1,
          "duration": 0.18292650000000066
        },
        {
          "name": "F#2",
          "midi": 42,
          "time": 54.87795000000014,
          "velocity": 1,
          "duration": 0.18292650000000066
        },
        {
          "name": "F#2",
          "midi": 42,
          "time": 55.06087650000014,
          "velocity": 1,
          "duration": 0.18292650000000066
        },
        {
          "name": "E6",
          "midi": 88,
          "time": 55.24380300000014,
          "velocity": 0.6299212598425197,
          "duration": 0.3658530000000013
        },
        {
          "name": "F#2",
          "midi": 42,
          "time": 55.24380300000014,
          "velocity": 1,
          "duration": 0.18292650000000066
        },
        {
          "name": "A#2",
          "midi": 46,
          "time": 55.42672950000014,
          "velocity": 1,
          "duration": 0.18292650000000066
        },
        {
          "name": "F#2",
          "midi": 42,
          "time": 55.60965600000014,
          "velocity": 1,
          "duration": 0.18292650000000066
        },
        {
          "name": "F#2",
          "midi": 42,
          "time": 55.792582500000144,
          "velocity": 1,
          "duration": 0.18292650000000066
        },
        {
          "name": "E6",
          "midi": 88,
          "time": 55.975509000000145,
          "velocity": 0.6299212598425197,
          "duration": 0.3658530000000013
        },
        {
          "name": "F#2",
          "midi": 42,
          "time": 55.975509000000145,
          "velocity": 1,
          "duration": 0.18292650000000066
        },
        {
          "name": "F#2",
          "midi": 42,
          "time": 56.158435500000145,
          "velocity": 1,
          "duration": 0.18292650000000066
        },
        {
          "name": "F#2",
          "midi": 42,
          "time": 56.341362000000146,
          "velocity": 1,
          "duration": 0.18292650000000066
        },
        {
          "name": "F#2",
          "midi": 42,
          "time": 56.52428850000015,
          "velocity": 1,
          "duration": 0.18292650000000066
        },
        {
          "name": "E6",
          "midi": 88,
          "time": 56.70721500000015,
          "velocity": 0.6299212598425197,
          "duration": 0.3658530000000013
        },
        {
          "name": "F#2",
          "midi": 42,
          "time": 56.70721500000015,
          "velocity": 1,
          "duration": 0.18292650000000066
        },
        {
          "name": "F#2",
          "midi": 42,
          "time": 56.89014150000015,
          "velocity": 1,
          "duration": 0.18292650000000066
        },
        {
          "name": "F#2",
          "midi": 42,
          "time": 57.07306800000015,
          "velocity": 1,
          "duration": 0.18292650000000066
        },
        {
          "name": "E6",
          "midi": 88,
          "time": 57.25599450000015,
          "velocity": 0.6299212598425197,
          "duration": 0.18292650000000066
        },
        {
          "name": "F#2",
          "midi": 42,
          "time": 57.25599450000015,
          "velocity": 1,
          "duration": 0.18292650000000066
        },
        {
          "name": "E6",
          "midi": 88,
          "time": 57.43892100000015,
          "velocity": 0.6299212598425197,
          "duration": 0.18292650000000066
        },
        {
          "name": "F#2",
          "midi": 42,
          "time": 57.43892100000015,
          "velocity": 1,
          "duration": 0.18292650000000066
        },
        {
          "name": "E6",
          "midi": 88,
          "time": 57.62184750000015,
          "velocity": 0.6299212598425197,
          "duration": 0.18292650000000066
        },
        {
          "name": "A#2",
          "midi": 46,
          "time": 57.62184750000015,
          "velocity": 1,
          "duration": 0.18292650000000066
        },
        {
          "name": "E3",
          "midi": 52,
          "time": 58.536480000000154,
          "velocity": 1,
          "duration": 0.18292650000000066
        },
        {
          "name": "F#2",
          "midi": 42,
          "time": 58.719406500000154,
          "velocity": 1,
          "duration": 0.18292650000000066
        },
        {
          "name": "E6",
          "midi": 88,
          "time": 58.902333000000155,
          "velocity": 0.6299212598425197,
          "duration": 0.3658530000000013
        },
        {
          "name": "F#2",
          "midi": 42,
          "time": 58.902333000000155,
          "velocity": 1,
          "duration": 0.18292650000000066
        },
        {
          "name": "F#2",
          "midi": 42,
          "time": 59.085259500000156,
          "velocity": 1,
          "duration": 0.18292650000000066
        },
        {
          "name": "F#2",
          "midi": 42,
          "time": 59.268186000000156,
          "velocity": 1,
          "duration": 0.18292650000000066
        },
        {
          "name": "F#2",
          "midi": 42,
          "time": 59.45111250000016,
          "velocity": 1,
          "duration": 0.18292650000000066
        },
        {
          "name": "E6",
          "midi": 88,
          "time": 59.63403900000016,
          "velocity": 0.6299212598425197,
          "duration": 0.3658530000000013
        },
        {
          "name": "F#2",
          "midi": 42,
          "time": 59.63403900000016,
          "velocity": 1,
          "duration": 0.18292650000000066
        },
        {
          "name": "F#2",
          "midi": 42,
          "time": 59.81696550000016,
          "velocity": 1,
          "duration": 0.18292650000000066
        },
        {
          "name": "F#2",
          "midi": 42,
          "time": 59.99989200000016,
          "velocity": 1,
          "duration": 0.18292650000000066
        },
        {
          "name": "F#2",
          "midi": 42,
          "time": 60.18281850000016,
          "velocity": 1,
          "duration": 0.18292650000000066
        },
        {
          "name": "E6",
          "midi": 88,
          "time": 60.36574500000016,
          "velocity": 0.6299212598425197,
          "duration": 0.3658530000000013
        },
        {
          "name": "F#2",
          "midi": 42,
          "time": 60.36574500000016,
          "velocity": 1,
          "duration": 0.18292650000000066
        },
        {
          "name": "F#2",
          "midi": 42,
          "time": 60.54867150000016,
          "velocity": 1,
          "duration": 0.18292650000000066
        },
        {
          "name": "F#2",
          "midi": 42,
          "time": 60.73159800000016,
          "velocity": 1,
          "duration": 0.18292650000000066
        },
        {
          "name": "F#2",
          "midi": 42,
          "time": 60.91452450000016,
          "velocity": 1,
          "duration": 0.18292650000000066
        },
        {
          "name": "E6",
          "midi": 88,
          "time": 61.09745100000016,
          "velocity": 0.6299212598425197,
          "duration": 0.3658530000000013
        },
        {
          "name": "F#2",
          "midi": 42,
          "time": 61.09745100000016,
          "velocity": 1,
          "duration": 0.18292650000000066
        },
        {
          "name": "A#2",
          "midi": 46,
          "time": 61.280377500000164,
          "velocity": 1,
          "duration": 0.18292650000000066
        },
        {
          "name": "F#2",
          "midi": 42,
          "time": 61.463304000000164,
          "velocity": 1,
          "duration": 0.18292650000000066
        },
        {
          "name": "F#2",
          "midi": 42,
          "time": 61.646230500000165,
          "velocity": 1,
          "duration": 0.18292650000000066
        },
        {
          "name": "E6",
          "midi": 88,
          "time": 61.829157000000166,
          "velocity": 0.6299212598425197,
          "duration": 0.3658530000000013
        },
        {
          "name": "F#2",
          "midi": 42,
          "time": 61.829157000000166,
          "velocity": 1,
          "duration": 0.18292650000000066
        },
        {
          "name": "F#2",
          "midi": 42,
          "time": 62.012083500000166,
          "velocity": 1,
          "duration": 0.18292650000000066
        },
        {
          "name": "F#2",
          "midi": 42,
          "time": 62.19501000000017,
          "velocity": 1,
          "duration": 0.18292650000000066
        },
        {
          "name": "F#2",
          "midi": 42,
          "time": 62.37793650000017,
          "velocity": 1,
          "duration": 0.18292650000000066
        },
        {
          "name": "E6",
          "midi": 88,
          "time": 62.56086300000017,
          "velocity": 0.6299212598425197,
          "duration": 0.3658530000000013
        },
        {
          "name": "F#2",
          "midi": 42,
          "time": 62.56086300000017,
          "velocity": 1,
          "duration": 0.18292650000000066
        },
        {
          "name": "F#2",
          "midi": 42,
          "time": 62.74378950000017,
          "velocity": 1,
          "duration": 0.18292650000000066
        },
        {
          "name": "F#2",
          "midi": 42,
          "time": 62.92671600000017,
          "velocity": 1,
          "duration": 0.18292650000000066
        },
        {
          "name": "F#2",
          "midi": 42,
          "time": 63.10964250000017,
          "velocity": 1,
          "duration": 0.18292650000000066
        },
        {
          "name": "E6",
          "midi": 88,
          "time": 63.29256900000017,
          "velocity": 0.6299212598425197,
          "duration": 0.3658530000000013
        },
        {
          "name": "F#2",
          "midi": 42,
          "time": 63.29256900000017,
          "velocity": 1,
          "duration": 0.18292650000000066
        },
        {
          "name": "F#2",
          "midi": 42,
          "time": 63.47549550000017,
          "velocity": 1,
          "duration": 0.18292650000000066
        },
        {
          "name": "F#2",
          "midi": 42,
          "time": 63.65842200000017,
          "velocity": 1,
          "duration": 0.18292650000000066
        },
        {
          "name": "F#2",
          "midi": 42,
          "time": 63.84134850000017,
          "velocity": 1,
          "duration": 0.18292650000000066
        },
        {
          "name": "E6",
          "midi": 88,
          "time": 64.02427500000017,
          "velocity": 0.6299212598425197,
          "duration": 0.3658529999999871
        },
        {
          "name": "F#2",
          "midi": 42,
          "time": 64.02427500000017,
          "velocity": 1,
          "duration": 0.18292649999999355
        },
        {
          "name": "A#2",
          "midi": 46,
          "time": 64.20720150000017,
          "velocity": 1,
          "duration": 0.18292649999999355
        },
        {
          "name": "F#2",
          "midi": 42,
          "time": 64.39012800000016,
          "velocity": 1,
          "duration": 0.18292649999999355
        },
        {
          "name": "F#2",
          "midi": 42,
          "time": 64.57305450000015,
          "velocity": 1,
          "duration": 0.18292649999999355
        },
        {
          "name": "E6",
          "midi": 88,
          "time": 64.75598100000015,
          "velocity": 0.6299212598425197,
          "duration": 0.3658529999999871
        },
        {
          "name": "F#2",
          "midi": 42,
          "time": 64.75598100000015,
          "velocity": 1,
          "duration": 0.18292649999999355
        },
        {
          "name": "F#2",
          "midi": 42,
          "time": 64.93890750000014,
          "velocity": 1,
          "duration": 0.18292649999999355
        },
        {
          "name": "F#2",
          "midi": 42,
          "time": 65.12183400000013,
          "velocity": 1,
          "duration": 0.18292649999999355
        },
        {
          "name": "F#2",
          "midi": 42,
          "time": 65.30476050000013,
          "velocity": 1,
          "duration": 0.18292649999999355
        },
        {
          "name": "E6",
          "midi": 88,
          "time": 65.48768700000012,
          "velocity": 0.6299212598425197,
          "duration": 0.3658529999999871
        },
        {
          "name": "F#2",
          "midi": 42,
          "time": 65.48768700000012,
          "velocity": 1,
          "duration": 0.18292649999999355
        },
        {
          "name": "F#2",
          "midi": 42,
          "time": 65.67061350000012,
          "velocity": 1,
          "duration": 0.18292649999999355
        },
        {
          "name": "F#2",
          "midi": 42,
          "time": 65.85354000000011,
          "velocity": 1,
          "duration": 0.18292649999999355
        },
        {
          "name": "F#2",
          "midi": 42,
          "time": 66.0364665000001,
          "velocity": 1,
          "duration": 0.18292649999999355
        },
        {
          "name": "E6",
          "midi": 88,
          "time": 66.2193930000001,
          "velocity": 0.6299212598425197,
          "duration": 0.3658529999999871
        },
        {
          "name": "F#2",
          "midi": 42,
          "time": 66.2193930000001,
          "velocity": 1,
          "duration": 0.18292649999999355
        },
        {
          "name": "F#2",
          "midi": 42,
          "time": 66.40231950000009,
          "velocity": 1,
          "duration": 0.18292649999999355
        },
        {
          "name": "F#2",
          "midi": 42,
          "time": 66.58524600000008,
          "velocity": 1,
          "duration": 0.18292649999999355
        },
        {
          "name": "F#2",
          "midi": 42,
          "time": 66.76817250000008,
          "velocity": 1,
          "duration": 0.18292649999999355
        },
        {
          "name": "E6",
          "midi": 88,
          "time": 66.95109900000007,
          "velocity": 0.6299212598425197,
          "duration": 0.3658529999999871
        },
        {
          "name": "F#2",
          "midi": 42,
          "time": 66.95109900000007,
          "velocity": 1,
          "duration": 0.18292649999999355
        },
        {
          "name": "A#2",
          "midi": 46,
          "time": 67.13402550000006,
          "velocity": 1,
          "duration": 0.18292649999999355
        },
        {
          "name": "F#2",
          "midi": 42,
          "time": 67.31695200000006,
          "velocity": 1,
          "duration": 0.18292649999999355
        },
        {
          "name": "F#2",
          "midi": 42,
          "time": 67.49987850000005,
          "velocity": 1,
          "duration": 0.18292649999999355
        },
        {
          "name": "E6",
          "midi": 88,
          "time": 67.68280500000004,
          "velocity": 0.6299212598425197,
          "duration": 0.3658529999999871
        },
        {
          "name": "F#2",
          "midi": 42,
          "time": 67.68280500000004,
          "velocity": 1,
          "duration": 0.18292649999999355
        },
        {
          "name": "F#2",
          "midi": 42,
          "time": 67.86573150000004,
          "velocity": 1,
          "duration": 0.18292649999999355
        },
        {
          "name": "F#2",
          "midi": 42,
          "time": 68.04865800000003,
          "velocity": 1,
          "duration": 0.18292649999999355
        },
        {
          "name": "F#2",
          "midi": 42,
          "time": 68.23158450000003,
          "velocity": 1,
          "duration": 0.18292649999999355
        },
        {
          "name": "E6",
          "midi": 88,
          "time": 68.41451100000002,
          "velocity": 0.6299212598425197,
          "duration": 0.3658529999999871
        },
        {
          "name": "F#2",
          "midi": 42,
          "time": 68.41451100000002,
          "velocity": 1,
          "duration": 0.18292649999999355
        },
        {
          "name": "F#2",
          "midi": 42,
          "time": 68.59743750000001,
          "velocity": 1,
          "duration": 0.18292649999999355
        },
        {
          "name": "F#2",
          "midi": 42,
          "time": 68.780364,
          "velocity": 1,
          "duration": 0.18292649999999355
        },
        {
          "name": "F#2",
          "midi": 42,
          "time": 68.9632905,
          "velocity": 1,
          "duration": 0.18292649999999355
        },
        {
          "name": "E6",
          "midi": 88,
          "time": 69.146217,
          "velocity": 0.6299212598425197,
          "duration": 0.18292649999999355
        },
        {
          "name": "F#2",
          "midi": 42,
          "time": 69.146217,
          "velocity": 1,
          "duration": 0.18292649999999355
        },
        {
          "name": "E6",
          "midi": 88,
          "time": 69.32914349999999,
          "velocity": 0.6299212598425197,
          "duration": 0.18292649999999355
        },
        {
          "name": "A#2",
          "midi": 46,
          "time": 69.32914349999999,
          "velocity": 1,
          "duration": 0.18292649999999355
        },
        {
          "name": "E3",
          "midi": 52,
          "time": 70.24377599999998,
          "velocity": 1,
          "duration": 0.18292649999999355
        },
        {
          "name": "F#2",
          "midi": 42,
          "time": 70.42670249999998,
          "velocity": 1,
          "duration": 0.18292649999999355
        },
        {
          "name": "E6",
          "midi": 88,
          "time": 70.60962899999997,
          "velocity": 0.6299212598425197,
          "duration": 0.3658529999999871
        },
        {
          "name": "F#2",
          "midi": 42,
          "time": 70.60962899999997,
          "velocity": 1,
          "duration": 0.18292649999999355
        },
        {
          "name": "F#2",
          "midi": 42,
          "time": 70.79255549999996,
          "velocity": 1,
          "duration": 0.18292649999999355
        },
        {
          "name": "F#2",
          "midi": 42,
          "time": 70.97548199999996,
          "velocity": 1,
          "duration": 0.18292649999999355
        },
        {
          "name": "F#2",
          "midi": 42,
          "time": 71.15840849999995,
          "velocity": 1,
          "duration": 0.18292649999999355
        },
        {
          "name": "E6",
          "midi": 88,
          "time": 71.34133499999994,
          "velocity": 0.6299212598425197,
          "duration": 0.3658529999999871
        },
        {
          "name": "F#2",
          "midi": 42,
          "time": 71.34133499999994,
          "velocity": 1,
          "duration": 0.18292649999999355
        },
        {
          "name": "F#2",
          "midi": 42,
          "time": 71.52426149999994,
          "velocity": 1,
          "duration": 0.18292649999999355
        },
        {
          "name": "F#2",
          "midi": 42,
          "time": 71.70718799999993,
          "velocity": 1,
          "duration": 0.18292649999999355
        },
        {
          "name": "F#2",
          "midi": 42,
          "time": 71.89011449999992,
          "velocity": 1,
          "duration": 0.18292649999999355
        },
        {
          "name": "E6",
          "midi": 88,
          "time": 72.07304099999992,
          "velocity": 0.6299212598425197,
          "duration": 0.3658529999999871
        },
        {
          "name": "F#2",
          "midi": 42,
          "time": 72.07304099999992,
          "velocity": 1,
          "duration": 0.18292649999999355
        },
        {
          "name": "F#2",
          "midi": 42,
          "time": 72.25596749999991,
          "velocity": 1,
          "duration": 0.18292649999999355
        },
        {
          "name": "F#2",
          "midi": 42,
          "time": 72.4388939999999,
          "velocity": 1,
          "duration": 0.18292649999999355
        },
        {
          "name": "F#2",
          "midi": 42,
          "time": 72.6218204999999,
          "velocity": 1,
          "duration": 0.18292649999999355
        },
        {
          "name": "E6",
          "midi": 88,
          "time": 72.80474699999989,
          "velocity": 0.6299212598425197,
          "duration": 0.3658529999999871
        },
        {
          "name": "F#2",
          "midi": 42,
          "time": 72.80474699999989,
          "velocity": 1,
          "duration": 0.18292649999999355
        },
        {
          "name": "A#2",
          "midi": 46,
          "time": 72.98767349999989,
          "velocity": 1,
          "duration": 0.18292649999999355
        },
        {
          "name": "F#2",
          "midi": 42,
          "time": 73.17059999999988,
          "velocity": 1,
          "duration": 0.18292649999999355
        },
        {
          "name": "F#2",
          "midi": 42,
          "time": 73.35352649999987,
          "velocity": 1,
          "duration": 0.18292649999999355
        },
        {
          "name": "E6",
          "midi": 88,
          "time": 73.53645299999987,
          "velocity": 0.6299212598425197,
          "duration": 0.3658529999999871
        },
        {
          "name": "F#2",
          "midi": 42,
          "time": 73.53645299999987,
          "velocity": 1,
          "duration": 0.18292649999999355
        },
        {
          "name": "F#2",
          "midi": 42,
          "time": 73.71937949999986,
          "velocity": 1,
          "duration": 0.18292649999999355
        },
        {
          "name": "F#2",
          "midi": 42,
          "time": 73.90230599999985,
          "velocity": 1,
          "duration": 0.18292649999999355
        },
        {
          "name": "F#2",
          "midi": 42,
          "time": 74.08523249999985,
          "velocity": 1,
          "duration": 0.18292649999999355
        },
        {
          "name": "E6",
          "midi": 88,
          "time": 74.26815899999984,
          "velocity": 0.6299212598425197,
          "duration": 0.3658529999999871
        },
        {
          "name": "F#2",
          "midi": 42,
          "time": 74.26815899999984,
          "velocity": 1,
          "duration": 0.18292649999999355
        },
        {
          "name": "F#2",
          "midi": 42,
          "time": 74.45108549999983,
          "velocity": 1,
          "duration": 0.18292649999999355
        },
        {
          "name": "F#2",
          "midi": 42,
          "time": 74.63401199999983,
          "velocity": 1,
          "duration": 0.18292649999999355
        },
        {
          "name": "F#2",
          "midi": 42,
          "time": 74.81693849999982,
          "velocity": 1,
          "duration": 0.18292649999999355
        },
        {
          "name": "E6",
          "midi": 88,
          "time": 74.99986499999982,
          "velocity": 0.6299212598425197,
          "duration": 0.3658529999999871
        },
        {
          "name": "F#2",
          "midi": 42,
          "time": 74.99986499999982,
          "velocity": 1,
          "duration": 0.18292649999999355
        },
        {
          "name": "F#2",
          "midi": 42,
          "time": 75.18279149999981,
          "velocity": 1,
          "duration": 0.18292649999999355
        },
        {
          "name": "F#2",
          "midi": 42,
          "time": 75.3657179999998,
          "velocity": 1,
          "duration": 0.18292649999999355
        },
        {
          "name": "F#2",
          "midi": 42,
          "time": 75.5486444999998,
          "velocity": 1,
          "duration": 0.18292649999999355
        },
        {
          "name": "E6",
          "midi": 88,
          "time": 75.73157099999979,
          "velocity": 0.6299212598425197,
          "duration": 0.3658529999999871
        },
        {
          "name": "F#2",
          "midi": 42,
          "time": 75.73157099999979,
          "velocity": 1,
          "duration": 0.18292649999999355
        },
        {
          "name": "A#2",
          "midi": 46,
          "time": 75.91449749999978,
          "velocity": 1,
          "duration": 0.18292649999999355
        },
        {
          "name": "F#2",
          "midi": 42,
          "time": 76.09742399999978,
          "velocity": 1,
          "duration": 0.18292649999999355
        },
        {
          "name": "F#2",
          "midi": 42,
          "time": 76.28035049999977,
          "velocity": 1,
          "duration": 0.18292649999999355
        },
        {
          "name": "E6",
          "midi": 88,
          "time": 76.46327699999976,
          "velocity": 0.6299212598425197,
          "duration": 0.3658529999999871
        },
        {
          "name": "F#2",
          "midi": 42,
          "time": 76.46327699999976,
          "velocity": 1,
          "duration": 0.18292649999999355
        },
        {
          "name": "F#2",
          "midi": 42,
          "time": 76.64620349999976,
          "velocity": 1,
          "duration": 0.18292649999999355
        },
        {
          "name": "F#2",
          "midi": 42,
          "time": 76.82912999999975,
          "velocity": 1,
          "duration": 0.18292649999999355
        },
        {
          "name": "F#2",
          "midi": 42,
          "time": 77.01205649999974,
          "velocity": 1,
          "duration": 0.18292649999999355
        },
        {
          "name": "E6",
          "midi": 88,
          "time": 77.19498299999974,
          "velocity": 0.6299212598425197,
          "duration": 0.3658529999999871
        },
        {
          "name": "F#2",
          "midi": 42,
          "time": 77.19498299999974,
          "velocity": 1,
          "duration": 0.18292649999999355
        },
        {
          "name": "F#2",
          "midi": 42,
          "time": 77.37790949999973,
          "velocity": 1,
          "duration": 0.18292649999999355
        },
        {
          "name": "F#2",
          "midi": 42,
          "time": 77.56083599999972,
          "velocity": 1,
          "duration": 0.18292649999999355
        },
        {
          "name": "F#2",
          "midi": 42,
          "time": 77.74376249999972,
          "velocity": 1,
          "duration": 0.18292649999999355
        },
        {
          "name": "E6",
          "midi": 88,
          "time": 77.92668899999971,
          "velocity": 0.6299212598425197,
          "duration": 0.3658529999999871
        },
        {
          "name": "F#2",
          "midi": 42,
          "time": 77.92668899999971,
          "velocity": 1,
          "duration": 0.18292649999999355
        },
        {
          "name": "F#2",
          "midi": 42,
          "time": 78.1096154999997,
          "velocity": 1,
          "duration": 0.18292649999999355
        },
        {
          "name": "F#2",
          "midi": 42,
          "time": 78.2925419999997,
          "velocity": 1,
          "duration": 0.18292649999999355
        },
        {
          "name": "F#2",
          "midi": 42,
          "time": 78.47546849999969,
          "velocity": 1,
          "duration": 0.18292649999999355
        },
        {
          "name": "E6",
          "midi": 88,
          "time": 78.65839499999969,
          "velocity": 0.6299212598425197,
          "duration": 0.3658529999999871
        },
        {
          "name": "F#2",
          "midi": 42,
          "time": 78.65839499999969,
          "velocity": 1,
          "duration": 0.18292649999999355
        },
        {
          "name": "A#2",
          "midi": 46,
          "time": 78.84132149999968,
          "velocity": 1,
          "duration": 0.18292649999999355
        },
        {
          "name": "F#2",
          "midi": 42,
          "time": 79.02424799999967,
          "velocity": 1,
          "duration": 0.18292649999999355
        },
        {
          "name": "F#2",
          "midi": 42,
          "time": 79.20717449999967,
          "velocity": 1,
          "duration": 0.18292649999999355
        },
        {
          "name": "E6",
          "midi": 88,
          "time": 79.39010099999966,
          "velocity": 0.6299212598425197,
          "duration": 0.3658529999999871
        },
        {
          "name": "F#2",
          "midi": 42,
          "time": 79.39010099999966,
          "velocity": 1,
          "duration": 0.18292649999999355
        },
        {
          "name": "F#2",
          "midi": 42,
          "time": 79.57302749999965,
          "velocity": 1,
          "duration": 0.18292649999999355
        },
        {
          "name": "F#2",
          "midi": 42,
          "time": 79.75595399999965,
          "velocity": 1,
          "duration": 0.18292649999999355
        },
        {
          "name": "F#2",
          "midi": 42,
          "time": 79.93888049999964,
          "velocity": 1,
          "duration": 0.18292649999999355
        },
        {
          "name": "E6",
          "midi": 88,
          "time": 80.12180699999963,
          "velocity": 0.6299212598425197,
          "duration": 0.3658529999999871
        },
        {
          "name": "F#2",
          "midi": 42,
          "time": 80.12180699999963,
          "velocity": 1,
          "duration": 0.18292649999999355
        },
        {
          "name": "A#2",
          "midi": 46,
          "time": 80.30473349999963,
          "velocity": 1,
          "duration": 0.18292649999999355
        },
        {
          "name": "F#2",
          "midi": 42,
          "time": 80.48765999999962,
          "velocity": 1,
          "duration": 0.18292649999999355
        },
        {
          "name": "F#2",
          "midi": 42,
          "time": 80.67058649999962,
          "velocity": 1,
          "duration": 0.18292649999999355
        },
        {
          "name": "E6",
          "midi": 88,
          "time": 80.85351299999961,
          "velocity": 0.6299212598425197,
          "duration": 0.3658529999999871
        },
        {
          "name": "F#2",
          "midi": 42,
          "time": 80.85351299999961,
          "velocity": 1,
          "duration": 0.18292649999999355
        },
        {
          "name": "F#2",
          "midi": 42,
          "time": 81.0364394999996,
          "velocity": 1,
          "duration": 0.18292649999999355
        },
        {
          "name": "E6",
          "midi": 88,
          "time": 81.2193659999996,
          "velocity": 0.6299212598425197,
          "duration": 0.3658529999999871
        },
        {
          "name": "F#2",
          "midi": 42,
          "time": 81.2193659999996,
          "velocity": 1,
          "duration": 0.18292649999999355
        },
        {
          "name": "F#2",
          "midi": 42,
          "time": 81.40229249999959,
          "velocity": 1,
          "duration": 0.18292649999999355
        },
        {
          "name": "E6",
          "midi": 88,
          "time": 81.58521899999958,
          "velocity": 0.6299212598425197,
          "duration": 0.18292649999999355
        },
        {
          "name": "F#2",
          "midi": 42,
          "time": 81.58521899999958,
          "velocity": 1,
          "duration": 0.18292649999999355
        },
        {
          "name": "E6",
          "midi": 88,
          "time": 81.76814549999958,
          "velocity": 0.6299212598425197,
          "duration": 0.09146325000000388
        },
        {
          "name": "E6",
          "midi": 88,
          "time": 81.85960874999958,
          "velocity": 0.6299212598425197,
          "duration": 0.09146325000000388
        },
        {
          "name": "E3",
          "midi": 52,
          "time": 81.95107199999958,
          "velocity": 1,
          "duration": 0.18292649999999355
        },
        {
          "name": "F#2",
          "midi": 42,
          "time": 82.13399849999958,
          "velocity": 1,
          "duration": 0.18292649999999355
        },
        {
          "name": "E6",
          "midi": 88,
          "time": 82.31692499999957,
          "velocity": 0.6299212598425197,
          "duration": 0.3658529999999871
        },
        {
          "name": "F#2",
          "midi": 42,
          "time": 82.31692499999957,
          "velocity": 1,
          "duration": 0.18292649999999355
        },
        {
          "name": "F#2",
          "midi": 42,
          "time": 82.49985149999956,
          "velocity": 1,
          "duration": 0.18292649999999355
        },
        {
          "name": "F#2",
          "midi": 42,
          "time": 82.68277799999956,
          "velocity": 1,
          "duration": 0.18292649999999355
        },
        {
          "name": "F#2",
          "midi": 42,
          "time": 82.86570449999955,
          "velocity": 1,
          "duration": 0.18292649999999355
        },
        {
          "name": "E6",
          "midi": 88,
          "time": 83.04863099999955,
          "velocity": 0.6299212598425197,
          "duration": 0.3658529999999871
        },
        {
          "name": "F#2",
          "midi": 42,
          "time": 83.04863099999955,
          "velocity": 1,
          "duration": 0.18292649999999355
        },
        {
          "name": "F#2",
          "midi": 42,
          "time": 83.23155749999954,
          "velocity": 1,
          "duration": 0.18292649999999355
        },
        {
          "name": "F#2",
          "midi": 42,
          "time": 83.41448399999953,
          "velocity": 1,
          "duration": 0.18292649999999355
        },
        {
          "name": "F#2",
          "midi": 42,
          "time": 83.59741049999953,
          "velocity": 1,
          "duration": 0.18292649999999355
        },
        {
          "name": "E6",
          "midi": 88,
          "time": 83.78033699999952,
          "velocity": 0.6299212598425197,
          "duration": 0.3658529999999871
        },
        {
          "name": "F#2",
          "midi": 42,
          "time": 83.78033699999952,
          "velocity": 1,
          "duration": 0.18292649999999355
        },
        {
          "name": "F#2",
          "midi": 42,
          "time": 83.96326349999951,
          "velocity": 1,
          "duration": 0.18292649999999355
        },
        {
          "name": "F#2",
          "midi": 42,
          "time": 84.1461899999995,
          "velocity": 1,
          "duration": 0.18292649999999355
        },
        {
          "name": "F#2",
          "midi": 42,
          "time": 84.3291164999995,
          "velocity": 1,
          "duration": 0.18292649999999355
        },
        {
          "name": "E6",
          "midi": 88,
          "time": 84.5120429999995,
          "velocity": 0.6299212598425197,
          "duration": 0.18292649999999355
        },
        {
          "name": "F#2",
          "midi": 42,
          "time": 84.5120429999995,
          "velocity": 1,
          "duration": 0.18292649999999355
        },
        {
          "name": "E6",
          "midi": 88,
          "time": 84.69496949999949,
          "velocity": 0.6299212598425197,
          "duration": 0.18292649999999355
        },
        {
          "name": "A#2",
          "midi": 46,
          "time": 84.69496949999949,
          "velocity": 1,
          "duration": 0.18292649999999355
        },
        {
          "name": "F#2",
          "midi": 42,
          "time": 84.87789599999948,
          "velocity": 1,
          "duration": 0.18292649999999355
        },
        {
          "name": "F#2",
          "midi": 42,
          "time": 85.06082249999947,
          "velocity": 1,
          "duration": 0.18292649999999355
        },
        {
          "name": "E6",
          "midi": 88,
          "time": 85.24374899999947,
          "velocity": 0.6299212598425197,
          "duration": 0.3658529999999871
        },
        {
          "name": "F#2",
          "midi": 42,
          "time": 85.24374899999947,
          "velocity": 1,
          "duration": 0.18292649999999355
        },
        {
          "name": "F#2",
          "midi": 42,
          "time": 85.42667549999946,
          "velocity": 1,
          "duration": 0.18292649999999355
        },
        {
          "name": "F#2",
          "midi": 42,
          "time": 85.60960199999946,
          "velocity": 1,
          "duration": 0.18292649999999355
        },
        {
          "name": "F#2",
          "midi": 42,
          "time": 85.79252849999945,
          "velocity": 1,
          "duration": 0.18292649999999355
        },
        {
          "name": "E6",
          "midi": 88,
          "time": 85.97545499999944,
          "velocity": 0.6299212598425197,
          "duration": 0.3658529999999871
        },
        {
          "name": "F#2",
          "midi": 42,
          "time": 85.97545499999944,
          "velocity": 1,
          "duration": 0.18292649999999355
        },
        {
          "name": "F#2",
          "midi": 42,
          "time": 86.15838149999944,
          "velocity": 1,
          "duration": 0.18292649999999355
        },
        {
          "name": "F#2",
          "midi": 42,
          "time": 86.34130799999943,
          "velocity": 1,
          "duration": 0.18292649999999355
        },
        {
          "name": "F#2",
          "midi": 42,
          "time": 86.52423449999942,
          "velocity": 1,
          "duration": 0.18292649999999355
        },
        {
          "name": "E6",
          "midi": 88,
          "time": 86.70716099999942,
          "velocity": 0.6299212598425197,
          "duration": 0.3658529999999871
        },
        {
          "name": "F#2",
          "midi": 42,
          "time": 86.70716099999942,
          "velocity": 1,
          "duration": 0.18292649999999355
        },
        {
          "name": "F#2",
          "midi": 42,
          "time": 86.89008749999941,
          "velocity": 1,
          "duration": 0.18292649999999355
        },
        {
          "name": "F#2",
          "midi": 42,
          "time": 87.0730139999994,
          "velocity": 1,
          "duration": 0.18292649999999355
        },
        {
          "name": "F#2",
          "midi": 42,
          "time": 87.2559404999994,
          "velocity": 1,
          "duration": 0.18292649999999355
        },
        {
          "name": "E6",
          "midi": 88,
          "time": 87.43886699999939,
          "velocity": 0.6299212598425197,
          "duration": 0.18292649999999355
        },
        {
          "name": "F#2",
          "midi": 42,
          "time": 87.43886699999939,
          "velocity": 1,
          "duration": 0.18292649999999355
        },
        {
          "name": "E6",
          "midi": 88,
          "time": 87.62179349999938,
          "velocity": 0.6299212598425197,
          "duration": 0.18292649999999355
        },
        {
          "name": "A#2",
          "midi": 46,
          "time": 87.62179349999938,
          "velocity": 1,
          "duration": 0.18292649999999355
        },
        {
          "name": "F#2",
          "midi": 42,
          "time": 87.80471999999938,
          "velocity": 1,
          "duration": 0.18292649999999355
        },
        {
          "name": "F#2",
          "midi": 42,
          "time": 87.98764649999937,
          "velocity": 1,
          "duration": 0.18292649999999355
        },
        {
          "name": "E6",
          "midi": 88,
          "time": 88.17057299999937,
          "velocity": 0.6299212598425197,
          "duration": 0.3658529999999871
        },
        {
          "name": "F#2",
          "midi": 42,
          "time": 88.17057299999937,
          "velocity": 1,
          "duration": 0.18292649999999355
        },
        {
          "name": "F#2",
          "midi": 42,
          "time": 88.35349949999936,
          "velocity": 1,
          "duration": 0.18292649999999355
        },
        {
          "name": "F#2",
          "midi": 42,
          "time": 88.53642599999935,
          "velocity": 1,
          "duration": 0.18292649999999355
        },
        {
          "name": "F#2",
          "midi": 42,
          "time": 88.71935249999935,
          "velocity": 1,
          "duration": 0.18292649999999355
        },
        {
          "name": "E6",
          "midi": 88,
          "time": 88.90227899999934,
          "velocity": 0.6299212598425197,
          "duration": 0.3658529999999871
        },
        {
          "name": "F#2",
          "midi": 42,
          "time": 88.90227899999934,
          "velocity": 1,
          "duration": 0.18292649999999355
        },
        {
          "name": "F#2",
          "midi": 42,
          "time": 89.08520549999933,
          "velocity": 1,
          "duration": 0.18292649999999355
        },
        {
          "name": "F#2",
          "midi": 42,
          "time": 89.26813199999933,
          "velocity": 1,
          "duration": 0.18292649999999355
        },
        {
          "name": "F#2",
          "midi": 42,
          "time": 89.45105849999932,
          "velocity": 1,
          "duration": 0.18292649999999355
        },
        {
          "name": "E6",
          "midi": 88,
          "time": 89.63398499999931,
          "velocity": 0.6299212598425197,
          "duration": 0.3658529999999871
        },
        {
          "name": "F#2",
          "midi": 42,
          "time": 89.63398499999931,
          "velocity": 1,
          "duration": 0.18292649999999355
        },
        {
          "name": "F#2",
          "midi": 42,
          "time": 89.8169114999993,
          "velocity": 1,
          "duration": 0.18292649999999355
        },
        {
          "name": "F#2",
          "midi": 42,
          "time": 89.9998379999993,
          "velocity": 1,
          "duration": 0.18292649999999355
        },
        {
          "name": "F#2",
          "midi": 42,
          "time": 90.1827644999993,
          "velocity": 1,
          "duration": 0.18292649999999355
        },
        {
          "name": "E6",
          "midi": 88,
          "time": 90.36569099999929,
          "velocity": 0.6299212598425197,
          "duration": 0.18292649999999355
        },
        {
          "name": "F#2",
          "midi": 42,
          "time": 90.36569099999929,
          "velocity": 1,
          "duration": 0.18292649999999355
        },
        {
          "name": "E3",
          "midi": 52,
          "time": 90.54861749999928,
          "velocity": 1,
          "duration": 0.18292649999999355
        },
        {
          "name": "F#2",
          "midi": 42,
          "time": 90.73154399999927,
          "velocity": 1,
          "duration": 0.18292649999999355
        },
        {
          "name": "F#2",
          "midi": 42,
          "time": 90.91447049999927,
          "velocity": 1,
          "duration": 0.18292649999999355
        },
        {
          "name": "E6",
          "midi": 88,
          "time": 91.09739699999926,
          "velocity": 0.6299212598425197,
          "duration": 0.3658529999999871
        },
        {
          "name": "F#2",
          "midi": 42,
          "time": 91.09739699999926,
          "velocity": 1,
          "duration": 0.18292649999999355
        },
        {
          "name": "F#2",
          "midi": 42,
          "time": 91.28032349999926,
          "velocity": 1,
          "duration": 0.18292649999999355
        },
        {
          "name": "F#2",
          "midi": 42,
          "time": 91.46324999999925,
          "velocity": 1,
          "duration": 0.18292649999999355
        },
        {
          "name": "F#2",
          "midi": 42,
          "time": 91.64617649999924,
          "velocity": 1,
          "duration": 0.18292649999999355
        },
        {
          "name": "E6",
          "midi": 88,
          "time": 91.82910299999924,
          "velocity": 0.6299212598425197,
          "duration": 0.3658529999999871
        },
        {
          "name": "F#2",
          "midi": 42,
          "time": 91.82910299999924,
          "velocity": 1,
          "duration": 0.18292649999999355
        },
        {
          "name": "F#2",
          "midi": 42,
          "time": 92.01202949999923,
          "velocity": 1,
          "duration": 0.18292649999999355
        },
        {
          "name": "F#2",
          "midi": 42,
          "time": 92.19495599999922,
          "velocity": 1,
          "duration": 0.18292649999999355
        },
        {
          "name": "F#2",
          "midi": 42,
          "time": 92.37788249999922,
          "velocity": 1,
          "duration": 0.18292649999999355
        },
        {
          "name": "E6",
          "midi": 88,
          "time": 92.56080899999921,
          "velocity": 0.6299212598425197,
          "duration": 0.3658529999999871
        },
        {
          "name": "F#2",
          "midi": 42,
          "time": 92.56080899999921,
          "velocity": 1,
          "duration": 0.18292649999999355
        },
        {
          "name": "F#2",
          "midi": 42,
          "time": 92.7437354999992,
          "velocity": 1,
          "duration": 0.18292649999999355
        },
        {
          "name": "E6",
          "midi": 88,
          "time": 92.9266619999992,
          "velocity": 0.6299212598425197,
          "duration": 0.3658529999999871
        },
        {
          "name": "F#2",
          "midi": 42,
          "time": 92.9266619999992,
          "velocity": 1,
          "duration": 0.18292649999999355
        },
        {
          "name": "F#2",
          "midi": 42,
          "time": 93.10958849999919,
          "velocity": 1,
          "duration": 0.18292649999999355
        },
        {
          "name": "E6",
          "midi": 88,
          "time": 93.29251499999918,
          "velocity": 0.6299212598425197,
          "duration": 0.18292649999999355
        },
        {
          "name": "F#2",
          "midi": 42,
          "time": 93.29251499999918,
          "velocity": 1,
          "duration": 0.18292649999999355
        },
        {
          "name": "E6",
          "midi": 88,
          "time": 93.47544149999918,
          "velocity": 0.6299212598425197,
          "duration": 0.09146325000000388
        },
        {
          "name": "E6",
          "midi": 88,
          "time": 93.56690474999918,
          "velocity": 0.6299212598425197,
          "duration": 0.09146325000000388
        },
        {
          "name": "E3",
          "midi": 52,
          "time": 93.65836799999919,
          "velocity": 1,
          "duration": 0.18292649999999355
        },
        {
          "name": "F#2",
          "midi": 42,
          "time": 93.84129449999918,
          "velocity": 1,
          "duration": 0.18292649999999355
        },
        {
          "name": "E6",
          "midi": 88,
          "time": 94.02422099999917,
          "velocity": 0.6299212598425197,
          "duration": 0.3658529999999871
        },
        {
          "name": "F#2",
          "midi": 42,
          "time": 94.02422099999917,
          "velocity": 1,
          "duration": 0.18292649999999355
        },
        {
          "name": "F#2",
          "midi": 42,
          "time": 94.20714749999917,
          "velocity": 1,
          "duration": 0.18292649999999355
        },
        {
          "name": "F#2",
          "midi": 42,
          "time": 94.39007399999916,
          "velocity": 1,
          "duration": 0.18292649999999355
        },
        {
          "name": "F#2",
          "midi": 42,
          "time": 94.57300049999915,
          "velocity": 1,
          "duration": 0.18292649999999355
        },
        {
          "name": "E6",
          "midi": 88,
          "time": 94.75592699999915,
          "velocity": 0.6299212598425197,
          "duration": 0.3658529999999871
        },
        {
          "name": "F#2",
          "midi": 42,
          "time": 94.75592699999915,
          "velocity": 1,
          "duration": 0.18292649999999355
        },
        {
          "name": "F#2",
          "midi": 42,
          "time": 94.93885349999914,
          "velocity": 1,
          "duration": 0.18292649999999355
        },
        {
          "name": "F#2",
          "midi": 42,
          "time": 95.12177999999913,
          "velocity": 1,
          "duration": 0.18292649999999355
        },
        {
          "name": "F#2",
          "midi": 42,
          "time": 95.30470649999913,
          "velocity": 1,
          "duration": 0.18292649999999355
        },
        {
          "name": "E6",
          "midi": 88,
          "time": 95.48763299999912,
          "velocity": 0.6299212598425197,
          "duration": 0.3658529999999871
        },
        {
          "name": "F#2",
          "midi": 42,
          "time": 95.48763299999912,
          "velocity": 1,
          "duration": 0.18292649999999355
        },
        {
          "name": "F#2",
          "midi": 42,
          "time": 95.67055949999911,
          "velocity": 1,
          "duration": 0.18292649999999355
        },
        {
          "name": "F#2",
          "midi": 42,
          "time": 95.85348599999911,
          "velocity": 1,
          "duration": 0.18292649999999355
        },
        {
          "name": "F#2",
          "midi": 42,
          "time": 96.0364124999991,
          "velocity": 1,
          "duration": 0.18292649999999355
        },
        {
          "name": "E6",
          "midi": 88,
          "time": 96.2193389999991,
          "velocity": 0.6299212598425197,
          "duration": 0.18292649999999355
        },
        {
          "name": "F#2",
          "midi": 42,
          "time": 96.2193389999991,
          "velocity": 1,
          "duration": 0.18292649999999355
        },
        {
          "name": "E6",
          "midi": 88,
          "time": 96.40226549999909,
          "velocity": 0.6299212598425197,
          "duration": 0.18292649999999355
        },
        {
          "name": "A#2",
          "midi": 46,
          "time": 96.40226549999909,
          "velocity": 1,
          "duration": 0.18292649999999355
        },
        {
          "name": "F#2",
          "midi": 42,
          "time": 96.58519199999908,
          "velocity": 1,
          "duration": 0.18292649999999355
        },
        {
          "name": "F#2",
          "midi": 42,
          "time": 96.76811849999908,
          "velocity": 1,
          "duration": 0.18292649999999355
        },
        {
          "name": "E6",
          "midi": 88,
          "time": 96.95104499999907,
          "velocity": 0.6299212598425197,
          "duration": 0.3658529999999871
        },
        {
          "name": "F#2",
          "midi": 42,
          "time": 96.95104499999907,
          "velocity": 1,
          "duration": 0.18292649999999355
        },
        {
          "name": "F#2",
          "midi": 42,
          "time": 97.13397149999906,
          "velocity": 1,
          "duration": 0.18292649999999355
        },
        {
          "name": "F#2",
          "midi": 42,
          "time": 97.31689799999906,
          "velocity": 1,
          "duration": 0.18292649999999355
        },
        {
          "name": "F#2",
          "midi": 42,
          "time": 97.49982449999905,
          "velocity": 1,
          "duration": 0.18292649999999355
        },
        {
          "name": "E6",
          "midi": 88,
          "time": 97.68275099999904,
          "velocity": 0.6299212598425197,
          "duration": 0.3658529999999871
        },
        {
          "name": "F#2",
          "midi": 42,
          "time": 97.68275099999904,
          "velocity": 1,
          "duration": 0.18292649999999355
        },
        {
          "name": "F#2",
          "midi": 42,
          "time": 97.86567749999904,
          "velocity": 1,
          "duration": 0.18292649999999355
        },
        {
          "name": "F#2",
          "midi": 42,
          "time": 98.04860399999903,
          "velocity": 1,
          "duration": 0.18292649999999355
        },
        {
          "name": "F#2",
          "midi": 42,
          "time": 98.23153049999902,
          "velocity": 1,
          "duration": 0.18292649999999355
        },
        {
          "name": "E6",
          "midi": 88,
          "time": 98.41445699999902,
          "velocity": 0.6299212598425197,
          "duration": 0.3658529999999871
        },
        {
          "name": "F#2",
          "midi": 42,
          "time": 98.41445699999902,
          "velocity": 1,
          "duration": 0.18292649999999355
        },
        {
          "name": "F#2",
          "midi": 42,
          "time": 98.59738349999901,
          "velocity": 1,
          "duration": 0.18292649999999355
        },
        {
          "name": "F#2",
          "midi": 42,
          "time": 98.780309999999,
          "velocity": 1,
          "duration": 0.18292649999999355
        },
        {
          "name": "F#2",
          "midi": 42,
          "time": 98.963236499999,
          "velocity": 1,
          "duration": 0.18292649999999355
        },
        {
          "name": "E6",
          "midi": 88,
          "time": 99.14616299999899,
          "velocity": 0.6299212598425197,
          "duration": 0.18292649999999355
        },
        {
          "name": "F#2",
          "midi": 42,
          "time": 99.14616299999899,
          "velocity": 1,
          "duration": 0.18292649999999355
        },
        {
          "name": "E6",
          "midi": 88,
          "time": 99.32908949999899,
          "velocity": 0.6299212598425197,
          "duration": 0.18292649999999355
        },
        {
          "name": "A#2",
          "midi": 46,
          "time": 99.32908949999899,
          "velocity": 1,
          "duration": 0.18292649999999355
        },
        {
          "name": "F#2",
          "midi": 42,
          "time": 99.51201599999898,
          "velocity": 1,
          "duration": 0.18292649999999355
        },
        {
          "name": "F#2",
          "midi": 42,
          "time": 99.69494249999897,
          "velocity": 1,
          "duration": 0.18292649999999355
        },
        {
          "name": "E6",
          "midi": 88,
          "time": 99.87786899999897,
          "velocity": 0.6299212598425197,
          "duration": 0.3658529999999871
        },
        {
          "name": "F#2",
          "midi": 42,
          "time": 99.87786899999897,
          "velocity": 1,
          "duration": 0.18292649999999355
        },
        {
          "name": "F#2",
          "midi": 42,
          "time": 100.06079549999896,
          "velocity": 1,
          "duration": 0.18292649999999355
        },
        {
          "name": "F#2",
          "midi": 42,
          "time": 100.24372199999895,
          "velocity": 1,
          "duration": 0.18292649999999355
        },
        {
          "name": "F#2",
          "midi": 42,
          "time": 100.42664849999895,
          "velocity": 1,
          "duration": 0.18292649999999355
        },
        {
          "name": "E6",
          "midi": 88,
          "time": 100.60957499999894,
          "velocity": 0.6299212598425197,
          "duration": 0.3658529999999871
        },
        {
          "name": "F#2",
          "midi": 42,
          "time": 100.60957499999894,
          "velocity": 1,
          "duration": 0.18292649999999355
        },
        {
          "name": "F#2",
          "midi": 42,
          "time": 100.79250149999893,
          "velocity": 1,
          "duration": 0.18292649999999355
        },
        {
          "name": "F#2",
          "midi": 42,
          "time": 100.97542799999893,
          "velocity": 1,
          "duration": 0.18292649999999355
        },
        {
          "name": "F#2",
          "midi": 42,
          "time": 101.15835449999892,
          "velocity": 1,
          "duration": 0.18292649999999355
        },
        {
          "name": "E6",
          "midi": 88,
          "time": 101.34128099999892,
          "velocity": 0.6299212598425197,
          "duration": 0.3658529999999871
        },
        {
          "name": "F#2",
          "midi": 42,
          "time": 101.34128099999892,
          "velocity": 1,
          "duration": 0.18292649999999355
        },
        {
          "name": "F#2",
          "midi": 42,
          "time": 101.52420749999891,
          "velocity": 1,
          "duration": 0.18292649999999355
        },
        {
          "name": "F#2",
          "midi": 42,
          "time": 101.7071339999989,
          "velocity": 1,
          "duration": 0.18292649999999355
        },
        {
          "name": "F#2",
          "midi": 42,
          "time": 101.8900604999989,
          "velocity": 1,
          "duration": 0.18292649999999355
        },
        {
          "name": "E6",
          "midi": 88,
          "time": 102.07298699999889,
          "velocity": 0.6299212598425197,
          "duration": 0.18292649999999355
        },
        {
          "name": "F#2",
          "midi": 42,
          "time": 102.07298699999889,
          "velocity": 1,
          "duration": 0.18292649999999355
        },
        {
          "name": "E3",
          "midi": 52,
          "time": 102.25591349999888,
          "velocity": 1,
          "duration": 0.18292649999999355
        },
        {
          "name": "F#2",
          "midi": 42,
          "time": 102.43883999999888,
          "velocity": 1,
          "duration": 0.18292649999999355
        },
        {
          "name": "F#2",
          "midi": 42,
          "time": 102.62176649999887,
          "velocity": 1,
          "duration": 0.18292649999999355
        },
        {
          "name": "E6",
          "midi": 88,
          "time": 102.80469299999886,
          "velocity": 0.6299212598425197,
          "duration": 0.3658529999999871
        },
        {
          "name": "F#2",
          "midi": 42,
          "time": 102.80469299999886,
          "velocity": 1,
          "duration": 0.18292649999999355
        },
        {
          "name": "F#2",
          "midi": 42,
          "time": 102.98761949999886,
          "velocity": 1,
          "duration": 0.18292649999999355
        },
        {
          "name": "F#2",
          "midi": 42,
          "time": 103.17054599999885,
          "velocity": 1,
          "duration": 0.18292649999999355
        },
        {
          "name": "F#2",
          "midi": 42,
          "time": 103.35347249999884,
          "velocity": 1,
          "duration": 0.18292649999999355
        },
        {
          "name": "E6",
          "midi": 88,
          "time": 103.53639899999884,
          "velocity": 0.6299212598425197,
          "duration": 0.3658529999999871
        },
        {
          "name": "F#2",
          "midi": 42,
          "time": 103.53639899999884,
          "velocity": 1,
          "duration": 0.18292649999999355
        },
        {
          "name": "F#2",
          "midi": 42,
          "time": 103.71932549999883,
          "velocity": 1,
          "duration": 0.18292649999999355
        },
        {
          "name": "F#2",
          "midi": 42,
          "time": 103.90225199999882,
          "velocity": 1,
          "duration": 0.18292649999999355
        },
        {
          "name": "F#2",
          "midi": 42,
          "time": 104.08517849999882,
          "velocity": 1,
          "duration": 0.18292649999999355
        },
        {
          "name": "E6",
          "midi": 88,
          "time": 104.26810499999881,
          "velocity": 0.6299212598425197,
          "duration": 0.3658529999999871
        },
        {
          "name": "F#2",
          "midi": 42,
          "time": 104.26810499999881,
          "velocity": 1,
          "duration": 0.18292649999999355
        },
        {
          "name": "F#2",
          "midi": 42,
          "time": 104.4510314999988,
          "velocity": 1,
          "duration": 0.18292649999999355
        },
        {
          "name": "E6",
          "midi": 88,
          "time": 104.6339579999988,
          "velocity": 0.6299212598425197,
          "duration": 0.3658529999999871
        },
        {
          "name": "F#2",
          "midi": 42,
          "time": 104.6339579999988,
          "velocity": 1,
          "duration": 0.18292649999999355
        },
        {
          "name": "F#2",
          "midi": 42,
          "time": 104.81688449999879,
          "velocity": 1,
          "duration": 0.18292649999999355
        },
        {
          "name": "E6",
          "midi": 88,
          "time": 104.99981099999879,
          "velocity": 0.6299212598425197,
          "duration": 0.18292649999999355
        },
        {
          "name": "F#2",
          "midi": 42,
          "time": 104.99981099999879,
          "velocity": 1,
          "duration": 0.18292649999999355
        },
        {
          "name": "E6",
          "midi": 88,
          "time": 105.18273749999878,
          "velocity": 0.6299212598425197,
          "duration": 0.09146325000000388
        },
        {
          "name": "E6",
          "midi": 88,
          "time": 105.27420074999878,
          "velocity": 0.6299212598425197,
          "duration": 0.09146325000000388
        },
        {
          "name": "E3",
          "midi": 52,
          "time": 105.36566399999879,
          "velocity": 1,
          "duration": 0.18292649999999355
        },
        {
          "name": "F#2",
          "midi": 42,
          "time": 105.54859049999878,
          "velocity": 1,
          "duration": 0.18292649999999355
        },
        {
          "name": "E6",
          "midi": 88,
          "time": 105.73151699999877,
          "velocity": 0.6299212598425197,
          "duration": 0.3658529999999871
        },
        {
          "name": "F#2",
          "midi": 42,
          "time": 105.73151699999877,
          "velocity": 1,
          "duration": 0.18292649999999355
        },
        {
          "name": "F#2",
          "midi": 42,
          "time": 105.91444349999877,
          "velocity": 1,
          "duration": 0.18292649999999355
        },
        {
          "name": "F#2",
          "midi": 42,
          "time": 106.09736999999876,
          "velocity": 1,
          "duration": 0.18292649999999355
        },
        {
          "name": "F#2",
          "midi": 42,
          "time": 106.28029649999876,
          "velocity": 1,
          "duration": 0.18292649999999355
        },
        {
          "name": "E6",
          "midi": 88,
          "time": 106.46322299999875,
          "velocity": 0.6299212598425197,
          "duration": 0.3658529999999871
        },
        {
          "name": "F#2",
          "midi": 42,
          "time": 106.46322299999875,
          "velocity": 1,
          "duration": 0.18292649999999355
        },
        {
          "name": "F#2",
          "midi": 42,
          "time": 106.64614949999874,
          "velocity": 1,
          "duration": 0.18292649999999355
        },
        {
          "name": "F#2",
          "midi": 42,
          "time": 106.82907599999874,
          "velocity": 1,
          "duration": 0.18292649999999355
        },
        {
          "name": "F#2",
          "midi": 42,
          "time": 107.01200249999873,
          "velocity": 1,
          "duration": 0.18292649999999355
        },
        {
          "name": "E6",
          "midi": 88,
          "time": 107.19492899999872,
          "velocity": 0.6299212598425197,
          "duration": 0.3658529999999871
        },
        {
          "name": "F#2",
          "midi": 42,
          "time": 107.19492899999872,
          "velocity": 1,
          "duration": 0.18292649999999355
        },
        {
          "name": "F#2",
          "midi": 42,
          "time": 107.37785549999872,
          "velocity": 1,
          "duration": 0.18292649999999355
        },
        {
          "name": "F#2",
          "midi": 42,
          "time": 107.56078199999871,
          "velocity": 1,
          "duration": 0.18292649999999355
        },
        {
          "name": "F#2",
          "midi": 42,
          "time": 107.7437084999987,
          "velocity": 1,
          "duration": 0.18292649999999355
        },
        {
          "name": "E6",
          "midi": 88,
          "time": 107.9266349999987,
          "velocity": 0.6299212598425197,
          "duration": 0.18292649999999355
        },
        {
          "name": "F#2",
          "midi": 42,
          "time": 107.9266349999987,
          "velocity": 1,
          "duration": 0.18292649999999355
        },
        {
          "name": "E6",
          "midi": 88,
          "time": 108.10956149999869,
          "velocity": 0.6299212598425197,
          "duration": 0.18292649999999355
        },
        {
          "name": "A#2",
          "midi": 46,
          "time": 108.10956149999869,
          "velocity": 1,
          "duration": 0.18292649999999355
        },
        {
          "name": "F#2",
          "midi": 42,
          "time": 108.29248799999868,
          "velocity": 1,
          "duration": 0.18292649999999355
        },
        {
          "name": "F#2",
          "midi": 42,
          "time": 108.47541449999868,
          "velocity": 1,
          "duration": 0.18292649999999355
        },
        {
          "name": "E6",
          "midi": 88,
          "time": 108.65834099999867,
          "velocity": 0.6299212598425197,
          "duration": 0.3658529999999871
        },
        {
          "name": "F#2",
          "midi": 42,
          "time": 108.65834099999867,
          "velocity": 1,
          "duration": 0.18292649999999355
        },
        {
          "name": "F#2",
          "midi": 42,
          "time": 108.84126749999866,
          "velocity": 1,
          "duration": 0.18292649999999355
        },
        {
          "name": "F#2",
          "midi": 42,
          "time": 109.02419399999866,
          "velocity": 1,
          "duration": 0.18292649999999355
        },
        {
          "name": "F#2",
          "midi": 42,
          "time": 109.20712049999865,
          "velocity": 1,
          "duration": 0.18292649999999355
        },
        {
          "name": "E6",
          "midi": 88,
          "time": 109.39004699999865,
          "velocity": 0.6299212598425197,
          "duration": 0.3658529999999871
        },
        {
          "name": "F#2",
          "midi": 42,
          "time": 109.39004699999865,
          "velocity": 1,
          "duration": 0.18292649999999355
        },
        {
          "name": "F#2",
          "midi": 42,
          "time": 109.57297349999864,
          "velocity": 1,
          "duration": 0.18292649999999355
        },
        {
          "name": "F#2",
          "midi": 42,
          "time": 109.75589999999863,
          "velocity": 1,
          "duration": 0.18292649999999355
        },
        {
          "name": "F#2",
          "midi": 42,
          "time": 109.93882649999863,
          "velocity": 1,
          "duration": 0.18292649999999355
        },
        {
          "name": "E6",
          "midi": 88,
          "time": 110.12175299999862,
          "velocity": 0.6299212598425197,
          "duration": 0.3658529999999871
        },
        {
          "name": "F#2",
          "midi": 42,
          "time": 110.12175299999862,
          "velocity": 1,
          "duration": 0.18292649999999355
        },
        {
          "name": "F#2",
          "midi": 42,
          "time": 110.30467949999861,
          "velocity": 1,
          "duration": 0.18292649999999355
        },
        {
          "name": "F#2",
          "midi": 42,
          "time": 110.4876059999986,
          "velocity": 1,
          "duration": 0.18292649999999355
        },
        {
          "name": "F#2",
          "midi": 42,
          "time": 110.6705324999986,
          "velocity": 1,
          "duration": 0.18292649999999355
        },
        {
          "name": "E6",
          "midi": 88,
          "time": 110.8534589999986,
          "velocity": 0.6299212598425197,
          "duration": 0.18292649999999355
        },
        {
          "name": "F#2",
          "midi": 42,
          "time": 110.8534589999986,
          "velocity": 1,
          "duration": 0.18292649999999355
        },
        {
          "name": "E6",
          "midi": 88,
          "time": 111.03638549999859,
          "velocity": 0.6299212598425197,
          "duration": 0.18292649999999355
        },
        {
          "name": "A#2",
          "midi": 46,
          "time": 111.03638549999859,
          "velocity": 1,
          "duration": 0.18292649999999355
        }
      ];