export let synth2 =   [
        {
          "name": "D3",
          "midi": 50,
          "time": 0,
          "velocity": 1,
          "duration": 0.5487795000000001
        },
        {
          "name": "G3",
          "midi": 55,
          "time": 0,
          "velocity": 1,
          "duration": 0.5487795000000001
        },
        {
          "name": "B3",
          "midi": 59,
          "time": 0,
          "velocity": 1,
          "duration": 0.5487795000000001
        },
        {
          "name": "E3",
          "midi": 52,
          "time": 0.5487795000000001,
          "velocity": 1,
          "duration": 0.9146325000000001
        },
        {
          "name": "A3",
          "midi": 57,
          "time": 0.5487795000000001,
          "velocity": 1,
          "duration": 0.9146325000000001
        },
        {
          "name": "C#4",
          "midi": 61,
          "time": 0.5487795000000001,
          "velocity": 1,
          "duration": 0.9146325000000001
        },
        {
          "name": "G3",
          "midi": 55,
          "time": 1.4634120000000002,
          "velocity": 1,
          "duration": 0.5487795
        },
        {
          "name": "B3",
          "midi": 59,
          "time": 1.4634120000000002,
          "velocity": 1,
          "duration": 0.5487795
        },
        {
          "name": "D4",
          "midi": 62,
          "time": 1.4634120000000002,
          "velocity": 1,
          "duration": 0.5487795
        },
        {
          "name": "E3",
          "midi": 52,
          "time": 2.0121915,
          "velocity": 1,
          "duration": 0.9146325000000002
        },
        {
          "name": "A3",
          "midi": 57,
          "time": 2.0121915,
          "velocity": 1,
          "duration": 0.9146325000000002
        },
        {
          "name": "C#4",
          "midi": 61,
          "time": 2.0121915,
          "velocity": 1,
          "duration": 0.9146325000000002
        },
        {
          "name": "D3",
          "midi": 50,
          "time": 2.9268240000000003,
          "velocity": 1,
          "duration": 0.5487795000000002
        },
        {
          "name": "G3",
          "midi": 55,
          "time": 2.9268240000000003,
          "velocity": 1,
          "duration": 0.5487795000000002
        },
        {
          "name": "B3",
          "midi": 59,
          "time": 2.9268240000000003,
          "velocity": 1,
          "duration": 0.5487795000000002
        },
        {
          "name": "E3",
          "midi": 52,
          "time": 3.4756035000000005,
          "velocity": 1,
          "duration": 0.9146325000000002
        },
        {
          "name": "A3",
          "midi": 57,
          "time": 3.4756035000000005,
          "velocity": 1,
          "duration": 0.9146325000000002
        },
        {
          "name": "C#4",
          "midi": 61,
          "time": 3.4756035000000005,
          "velocity": 1,
          "duration": 0.9146325000000002
        },
        {
          "name": "G3",
          "midi": 55,
          "time": 4.390236000000001,
          "velocity": 1,
          "duration": 0.5487795000000002
        },
        {
          "name": "B3",
          "midi": 59,
          "time": 4.390236000000001,
          "velocity": 1,
          "duration": 0.5487795000000002
        },
        {
          "name": "D4",
          "midi": 62,
          "time": 4.390236000000001,
          "velocity": 1,
          "duration": 0.5487795000000002
        },
        {
          "name": "E3",
          "midi": 52,
          "time": 4.939015500000001,
          "velocity": 1,
          "duration": 0.9146324999999997
        },
        {
          "name": "A3",
          "midi": 57,
          "time": 4.939015500000001,
          "velocity": 1,
          "duration": 0.9146324999999997
        },
        {
          "name": "C#4",
          "midi": 61,
          "time": 4.939015500000001,
          "velocity": 1,
          "duration": 0.9146324999999997
        },
        {
          "name": "D3",
          "midi": 50,
          "time": 5.853648000000001,
          "velocity": 1,
          "duration": 0.5487795000000002
        },
        {
          "name": "G3",
          "midi": 55,
          "time": 5.853648000000001,
          "velocity": 1,
          "duration": 0.5487795000000002
        },
        {
          "name": "B3",
          "midi": 59,
          "time": 5.853648000000001,
          "velocity": 1,
          "duration": 0.5487795000000002
        },
        {
          "name": "E3",
          "midi": 52,
          "time": 6.402427500000001,
          "velocity": 1,
          "duration": 0.9146324999999997
        },
        {
          "name": "A3",
          "midi": 57,
          "time": 6.402427500000001,
          "velocity": 1,
          "duration": 0.9146324999999997
        },
        {
          "name": "C#4",
          "midi": 61,
          "time": 6.402427500000001,
          "velocity": 1,
          "duration": 0.9146324999999997
        },
        {
          "name": "G3",
          "midi": 55,
          "time": 7.317060000000001,
          "velocity": 1,
          "duration": 0.5487795000000002
        },
        {
          "name": "B3",
          "midi": 59,
          "time": 7.317060000000001,
          "velocity": 1,
          "duration": 0.5487795000000002
        },
        {
          "name": "D4",
          "midi": 62,
          "time": 7.317060000000001,
          "velocity": 1,
          "duration": 0.5487795000000002
        },
        {
          "name": "E3",
          "midi": 52,
          "time": 7.865839500000001,
          "velocity": 1,
          "duration": 0.9146325000000006
        },
        {
          "name": "A3",
          "midi": 57,
          "time": 7.865839500000001,
          "velocity": 1,
          "duration": 0.9146325000000006
        },
        {
          "name": "C#4",
          "midi": 61,
          "time": 7.865839500000001,
          "velocity": 1,
          "duration": 0.9146325000000006
        },
        {
          "name": "E3",
          "midi": 52,
          "time": 8.780472000000001,
          "velocity": 1,
          "duration": 1.2804854999999993
        },
        {
          "name": "G3",
          "midi": 55,
          "time": 8.780472000000001,
          "velocity": 1,
          "duration": 1.2804854999999993
        },
        {
          "name": "B3",
          "midi": 59,
          "time": 8.780472000000001,
          "velocity": 1,
          "duration": 1.2804854999999993
        },
        {
          "name": "F#3",
          "midi": 54,
          "time": 10.0609575,
          "velocity": 1,
          "duration": 0.36585299999999954
        },
        {
          "name": "A#3",
          "midi": 58,
          "time": 10.0609575,
          "velocity": 1,
          "duration": 0.36585299999999954
        },
        {
          "name": "C#4",
          "midi": 61,
          "time": 10.0609575,
          "velocity": 1,
          "duration": 0.36585299999999954
        },
        {
          "name": "F#3",
          "midi": 54,
          "time": 10.4268105,
          "velocity": 1,
          "duration": 0.18292650000000066
        },
        {
          "name": "A#3",
          "midi": 58,
          "time": 10.4268105,
          "velocity": 1,
          "duration": 0.18292650000000066
        },
        {
          "name": "C#4",
          "midi": 61,
          "time": 10.4268105,
          "velocity": 1,
          "duration": 0.18292650000000066
        },
        {
          "name": "F#3",
          "midi": 54,
          "time": 10.609737,
          "velocity": 1,
          "duration": 0.18292650000000066
        },
        {
          "name": "A#3",
          "midi": 58,
          "time": 10.609737,
          "velocity": 1,
          "duration": 0.18292650000000066
        },
        {
          "name": "C#4",
          "midi": 61,
          "time": 10.609737,
          "velocity": 1,
          "duration": 0.18292650000000066
        },
        {
          "name": "F#3",
          "midi": 54,
          "time": 10.792663500000002,
          "velocity": 1,
          "duration": 0.18292650000000066
        },
        {
          "name": "A#3",
          "midi": 58,
          "time": 10.792663500000002,
          "velocity": 1,
          "duration": 0.18292650000000066
        },
        {
          "name": "C#4",
          "midi": 61,
          "time": 10.792663500000002,
          "velocity": 1,
          "duration": 0.18292650000000066
        },
        {
          "name": "F#3",
          "midi": 54,
          "time": 11.707296000000003,
          "velocity": 1,
          "duration": 0.36585299999999954
        },
        {
          "name": "B3",
          "midi": 59,
          "time": 11.707296000000003,
          "velocity": 1,
          "duration": 0.36585299999999954
        },
        {
          "name": "D4",
          "midi": 62,
          "time": 11.707296000000003,
          "velocity": 1,
          "duration": 0.36585299999999954
        },
        {
          "name": "F#3",
          "midi": 54,
          "time": 12.073149000000003,
          "velocity": 1,
          "duration": 0.5487795000000002
        },
        {
          "name": "B3",
          "midi": 59,
          "time": 12.073149000000003,
          "velocity": 1,
          "duration": 0.5487795000000002
        },
        {
          "name": "D4",
          "midi": 62,
          "time": 12.073149000000003,
          "velocity": 1,
          "duration": 0.5487795000000002
        },
        {
          "name": "F#3",
          "midi": 54,
          "time": 12.621928500000003,
          "velocity": 1,
          "duration": 0.36585299999999954
        },
        {
          "name": "B3",
          "midi": 59,
          "time": 12.621928500000003,
          "velocity": 1,
          "duration": 0.36585299999999954
        },
        {
          "name": "D4",
          "midi": 62,
          "time": 12.621928500000003,
          "velocity": 1,
          "duration": 0.36585299999999954
        },
        {
          "name": "F#3",
          "midi": 54,
          "time": 12.987781500000002,
          "velocity": 1,
          "duration": 0.18292650000000066
        },
        {
          "name": "B3",
          "midi": 59,
          "time": 12.987781500000002,
          "velocity": 1,
          "duration": 0.18292650000000066
        },
        {
          "name": "D4",
          "midi": 62,
          "time": 12.987781500000002,
          "velocity": 1,
          "duration": 0.18292650000000066
        },
        {
          "name": "F#3",
          "midi": 54,
          "time": 13.170708000000003,
          "velocity": 1,
          "duration": 0.36585299999999954
        },
        {
          "name": "A3",
          "midi": 57,
          "time": 13.170708000000003,
          "velocity": 1,
          "duration": 0.36585299999999954
        },
        {
          "name": "C#4",
          "midi": 61,
          "time": 13.170708000000003,
          "velocity": 1,
          "duration": 0.36585299999999954
        },
        {
          "name": "F#3",
          "midi": 54,
          "time": 13.536561000000003,
          "velocity": 1,
          "duration": 0.18292650000000066
        },
        {
          "name": "A3",
          "midi": 57,
          "time": 13.536561000000003,
          "velocity": 1,
          "duration": 0.18292650000000066
        },
        {
          "name": "C#4",
          "midi": 61,
          "time": 13.536561000000003,
          "velocity": 1,
          "duration": 0.18292650000000066
        },
        {
          "name": "F#3",
          "midi": 54,
          "time": 13.719487500000003,
          "velocity": 1,
          "duration": 0.36585299999999954
        },
        {
          "name": "A3",
          "midi": 57,
          "time": 13.719487500000003,
          "velocity": 1,
          "duration": 0.36585299999999954
        },
        {
          "name": "C#4",
          "midi": 61,
          "time": 13.719487500000003,
          "velocity": 1,
          "duration": 0.36585299999999954
        },
        {
          "name": "F#3",
          "midi": 54,
          "time": 14.085340500000003,
          "velocity": 1,
          "duration": 0.18292650000000066
        },
        {
          "name": "A3",
          "midi": 57,
          "time": 14.085340500000003,
          "velocity": 1,
          "duration": 0.18292650000000066
        },
        {
          "name": "C#4",
          "midi": 61,
          "time": 14.085340500000003,
          "velocity": 1,
          "duration": 0.18292650000000066
        },
        {
          "name": "F#3",
          "midi": 54,
          "time": 14.268267000000003,
          "velocity": 1,
          "duration": 0.36585299999999954
        },
        {
          "name": "A3",
          "midi": 57,
          "time": 14.268267000000003,
          "velocity": 1,
          "duration": 0.36585299999999954
        },
        {
          "name": "C#4",
          "midi": 61,
          "time": 14.268267000000003,
          "velocity": 1,
          "duration": 0.36585299999999954
        },
        {
          "name": "F#3",
          "midi": 54,
          "time": 14.634120000000003,
          "velocity": 1,
          "duration": 0.36585299999999954
        },
        {
          "name": "A3",
          "midi": 57,
          "time": 14.634120000000003,
          "velocity": 1,
          "duration": 0.36585299999999954
        },
        {
          "name": "D4",
          "midi": 62,
          "time": 14.634120000000003,
          "velocity": 1,
          "duration": 0.36585299999999954
        },
        {
          "name": "F#3",
          "midi": 54,
          "time": 14.999973000000002,
          "velocity": 1,
          "duration": 0.5487795000000002
        },
        {
          "name": "A3",
          "midi": 57,
          "time": 14.999973000000002,
          "velocity": 1,
          "duration": 0.5487795000000002
        },
        {
          "name": "D4",
          "midi": 62,
          "time": 14.999973000000002,
          "velocity": 1,
          "duration": 0.5487795000000002
        },
        {
          "name": "F#3",
          "midi": 54,
          "time": 15.548752500000003,
          "velocity": 1,
          "duration": 0.36585299999999954
        },
        {
          "name": "A3",
          "midi": 57,
          "time": 15.548752500000003,
          "velocity": 1,
          "duration": 0.36585299999999954
        },
        {
          "name": "D4",
          "midi": 62,
          "time": 15.548752500000003,
          "velocity": 1,
          "duration": 0.36585299999999954
        },
        {
          "name": "F#3",
          "midi": 54,
          "time": 15.914605500000002,
          "velocity": 1,
          "duration": 0.18292649999999888
        },
        {
          "name": "A3",
          "midi": 57,
          "time": 15.914605500000002,
          "velocity": 1,
          "duration": 0.18292649999999888
        },
        {
          "name": "D4",
          "midi": 62,
          "time": 15.914605500000002,
          "velocity": 1,
          "duration": 0.18292649999999888
        },
        {
          "name": "E3",
          "midi": 52,
          "time": 16.097532,
          "velocity": 1,
          "duration": 0.5487794999999984
        },
        {
          "name": "G3",
          "midi": 55,
          "time": 16.097532,
          "velocity": 1,
          "duration": 0.5487794999999984
        },
        {
          "name": "B3",
          "midi": 59,
          "time": 16.097532,
          "velocity": 1,
          "duration": 0.5487794999999984
        },
        {
          "name": "E3",
          "midi": 52,
          "time": 16.6463115,
          "velocity": 1,
          "duration": 0.3658530000000013
        },
        {
          "name": "G3",
          "midi": 55,
          "time": 16.6463115,
          "velocity": 1,
          "duration": 0.3658530000000013
        },
        {
          "name": "B3",
          "midi": 59,
          "time": 16.6463115,
          "velocity": 1,
          "duration": 0.3658530000000013
        },
        {
          "name": "E3",
          "midi": 52,
          "time": 17.0121645,
          "velocity": 1,
          "duration": 0.18292650000000066
        },
        {
          "name": "G3",
          "midi": 55,
          "time": 17.0121645,
          "velocity": 1,
          "duration": 0.18292650000000066
        },
        {
          "name": "B3",
          "midi": 59,
          "time": 17.0121645,
          "velocity": 1,
          "duration": 0.18292650000000066
        },
        {
          "name": "E3",
          "midi": 52,
          "time": 17.195091,
          "velocity": 1,
          "duration": 0.3658530000000013
        },
        {
          "name": "G3",
          "midi": 55,
          "time": 17.195091,
          "velocity": 1,
          "duration": 0.3658530000000013
        },
        {
          "name": "B3",
          "midi": 59,
          "time": 17.195091,
          "velocity": 1,
          "duration": 0.3658530000000013
        },
        {
          "name": "D3",
          "midi": 50,
          "time": 17.560944000000003,
          "velocity": 1,
          "duration": 0.9146324999999997
        },
        {
          "name": "G3",
          "midi": 55,
          "time": 17.560944000000003,
          "velocity": 1,
          "duration": 0.9146324999999997
        },
        {
          "name": "B3",
          "midi": 59,
          "time": 17.560944000000003,
          "velocity": 1,
          "duration": 0.9146324999999997
        },
        {
          "name": "D3",
          "midi": 50,
          "time": 18.475576500000003,
          "velocity": 1,
          "duration": 0.5487794999999984
        },
        {
          "name": "G3",
          "midi": 55,
          "time": 18.475576500000003,
          "velocity": 1,
          "duration": 0.5487794999999984
        },
        {
          "name": "B3",
          "midi": 59,
          "time": 18.475576500000003,
          "velocity": 1,
          "duration": 0.5487794999999984
        },
        {
          "name": "F#3",
          "midi": 54,
          "time": 19.024356,
          "velocity": 1,
          "duration": 0.9146324999999997
        },
        {
          "name": "A3",
          "midi": 57,
          "time": 19.024356,
          "velocity": 1,
          "duration": 0.9146324999999997
        },
        {
          "name": "D4",
          "midi": 62,
          "time": 19.024356,
          "velocity": 1,
          "duration": 0.9146324999999997
        },
        {
          "name": "F#3",
          "midi": 54,
          "time": 19.9389885,
          "velocity": 1,
          "duration": 0.5487794999999984
        },
        {
          "name": "A3",
          "midi": 57,
          "time": 19.9389885,
          "velocity": 1,
          "duration": 0.5487794999999984
        },
        {
          "name": "D4",
          "midi": 62,
          "time": 19.9389885,
          "velocity": 1,
          "duration": 0.5487794999999984
        },
        {
          "name": "E3",
          "midi": 52,
          "time": 20.487768,
          "velocity": 1,
          "duration": 0.5487794999999984
        },
        {
          "name": "G3",
          "midi": 55,
          "time": 20.487768,
          "velocity": 1,
          "duration": 0.5487794999999984
        },
        {
          "name": "B3",
          "midi": 59,
          "time": 20.487768,
          "velocity": 1,
          "duration": 0.5487794999999984
        },
        {
          "name": "E3",
          "midi": 52,
          "time": 21.036547499999998,
          "velocity": 1,
          "duration": 0.3658530000000013
        },
        {
          "name": "G3",
          "midi": 55,
          "time": 21.036547499999998,
          "velocity": 1,
          "duration": 0.3658530000000013
        },
        {
          "name": "B3",
          "midi": 59,
          "time": 21.036547499999998,
          "velocity": 1,
          "duration": 0.3658530000000013
        },
        {
          "name": "E3",
          "midi": 52,
          "time": 21.4024005,
          "velocity": 1,
          "duration": 0.18292650000000066
        },
        {
          "name": "G3",
          "midi": 55,
          "time": 21.4024005,
          "velocity": 1,
          "duration": 0.18292650000000066
        },
        {
          "name": "B3",
          "midi": 59,
          "time": 21.4024005,
          "velocity": 1,
          "duration": 0.18292650000000066
        },
        {
          "name": "E3",
          "midi": 52,
          "time": 21.585327,
          "velocity": 1,
          "duration": 0.3658530000000013
        },
        {
          "name": "G3",
          "midi": 55,
          "time": 21.585327,
          "velocity": 1,
          "duration": 0.3658530000000013
        },
        {
          "name": "B3",
          "midi": 59,
          "time": 21.585327,
          "velocity": 1,
          "duration": 0.3658530000000013
        },
        {
          "name": "E3",
          "midi": 52,
          "time": 21.95118,
          "velocity": 1,
          "duration": 0.09146325000000033
        },
        {
          "name": "D3",
          "midi": 50,
          "time": 22.04264325,
          "velocity": 1,
          "duration": 0.09146325000000033
        },
        {
          "name": "E3",
          "midi": 52,
          "time": 22.1341065,
          "velocity": 1,
          "duration": 0.18292650000000066
        },
        {
          "name": "G3",
          "midi": 55,
          "time": 22.317033000000002,
          "velocity": 1,
          "duration": 0.18292650000000066
        },
        {
          "name": "E3",
          "midi": 52,
          "time": 22.499959500000003,
          "velocity": 1,
          "duration": 0.18292650000000066
        },
        {
          "name": "F#3",
          "midi": 54,
          "time": 23.414592000000003,
          "velocity": 1,
          "duration": 0.3658530000000013
        },
        {
          "name": "B3",
          "midi": 59,
          "time": 23.414592000000003,
          "velocity": 1,
          "duration": 0.3658530000000013
        },
        {
          "name": "D4",
          "midi": 62,
          "time": 23.414592000000003,
          "velocity": 1,
          "duration": 0.3658530000000013
        },
        {
          "name": "F#3",
          "midi": 54,
          "time": 23.780445000000004,
          "velocity": 1,
          "duration": 0.5487794999999984
        },
        {
          "name": "B3",
          "midi": 59,
          "time": 23.780445000000004,
          "velocity": 1,
          "duration": 0.5487794999999984
        },
        {
          "name": "D4",
          "midi": 62,
          "time": 23.780445000000004,
          "velocity": 1,
          "duration": 0.5487794999999984
        },
        {
          "name": "F#3",
          "midi": 54,
          "time": 24.329224500000002,
          "velocity": 1,
          "duration": 0.3658530000000013
        },
        {
          "name": "B3",
          "midi": 59,
          "time": 24.329224500000002,
          "velocity": 1,
          "duration": 0.3658530000000013
        },
        {
          "name": "D4",
          "midi": 62,
          "time": 24.329224500000002,
          "velocity": 1,
          "duration": 0.3658530000000013
        },
        {
          "name": "F#3",
          "midi": 54,
          "time": 24.695077500000004,
          "velocity": 1,
          "duration": 0.18292650000000066
        },
        {
          "name": "B3",
          "midi": 59,
          "time": 24.695077500000004,
          "velocity": 1,
          "duration": 0.18292650000000066
        },
        {
          "name": "D4",
          "midi": 62,
          "time": 24.695077500000004,
          "velocity": 1,
          "duration": 0.18292650000000066
        },
        {
          "name": "F#3",
          "midi": 54,
          "time": 24.878004000000004,
          "velocity": 1,
          "duration": 0.3658530000000013
        },
        {
          "name": "A3",
          "midi": 57,
          "time": 24.878004000000004,
          "velocity": 1,
          "duration": 0.3658530000000013
        },
        {
          "name": "C#4",
          "midi": 61,
          "time": 24.878004000000004,
          "velocity": 1,
          "duration": 0.3658530000000013
        },
        {
          "name": "F#3",
          "midi": 54,
          "time": 25.243857000000006,
          "velocity": 1,
          "duration": 0.18292650000000066
        },
        {
          "name": "A3",
          "midi": 57,
          "time": 25.243857000000006,
          "velocity": 1,
          "duration": 0.18292650000000066
        },
        {
          "name": "C#4",
          "midi": 61,
          "time": 25.243857000000006,
          "velocity": 1,
          "duration": 0.18292650000000066
        },
        {
          "name": "F#3",
          "midi": 54,
          "time": 25.426783500000006,
          "velocity": 1,
          "duration": 0.3658530000000013
        },
        {
          "name": "A3",
          "midi": 57,
          "time": 25.426783500000006,
          "velocity": 1,
          "duration": 0.3658530000000013
        },
        {
          "name": "C#4",
          "midi": 61,
          "time": 25.426783500000006,
          "velocity": 1,
          "duration": 0.3658530000000013
        },
        {
          "name": "F#3",
          "midi": 54,
          "time": 25.792636500000008,
          "velocity": 1,
          "duration": 0.18292650000000066
        },
        {
          "name": "A3",
          "midi": 57,
          "time": 25.792636500000008,
          "velocity": 1,
          "duration": 0.18292650000000066
        },
        {
          "name": "C#4",
          "midi": 61,
          "time": 25.792636500000008,
          "velocity": 1,
          "duration": 0.18292650000000066
        },
        {
          "name": "F#3",
          "midi": 54,
          "time": 25.975563000000008,
          "velocity": 1,
          "duration": 0.3658530000000013
        },
        {
          "name": "A3",
          "midi": 57,
          "time": 25.975563000000008,
          "velocity": 1,
          "duration": 0.3658530000000013
        },
        {
          "name": "C#4",
          "midi": 61,
          "time": 25.975563000000008,
          "velocity": 1,
          "duration": 0.3658530000000013
        },
        {
          "name": "F#3",
          "midi": 54,
          "time": 26.34141600000001,
          "velocity": 1,
          "duration": 0.3658530000000013
        },
        {
          "name": "A3",
          "midi": 57,
          "time": 26.34141600000001,
          "velocity": 1,
          "duration": 0.3658530000000013
        },
        {
          "name": "D4",
          "midi": 62,
          "time": 26.34141600000001,
          "velocity": 1,
          "duration": 0.3658530000000013
        },
        {
          "name": "F#3",
          "midi": 54,
          "time": 26.70726900000001,
          "velocity": 1,
          "duration": 0.5487794999999984
        },
        {
          "name": "A3",
          "midi": 57,
          "time": 26.70726900000001,
          "velocity": 1,
          "duration": 0.5487794999999984
        },
        {
          "name": "D4",
          "midi": 62,
          "time": 26.70726900000001,
          "velocity": 1,
          "duration": 0.5487794999999984
        },
        {
          "name": "F#3",
          "midi": 54,
          "time": 27.25604850000001,
          "velocity": 1,
          "duration": 0.18292650000000066
        },
        {
          "name": "A3",
          "midi": 57,
          "time": 27.25604850000001,
          "velocity": 1,
          "duration": 0.18292650000000066
        },
        {
          "name": "D4",
          "midi": 62,
          "time": 27.25604850000001,
          "velocity": 1,
          "duration": 0.3658530000000013
        },
        {
          "name": "A3",
          "midi": 57,
          "time": 27.43897500000001,
          "velocity": 1,
          "duration": 0.3658530000000013
        },
        {
          "name": "F#3",
          "midi": 54,
          "time": 27.62190150000001,
          "velocity": 1,
          "duration": 0.18292650000000066
        },
        {
          "name": "D4",
          "midi": 62,
          "time": 27.62190150000001,
          "velocity": 1,
          "duration": 0.18292650000000066
        },
        {
          "name": "E3",
          "midi": 52,
          "time": 27.80482800000001,
          "velocity": 1,
          "duration": 0.5487794999999984
        },
        {
          "name": "G3",
          "midi": 55,
          "time": 27.80482800000001,
          "velocity": 1,
          "duration": 0.5487794999999984
        },
        {
          "name": "B3",
          "midi": 59,
          "time": 27.80482800000001,
          "velocity": 1,
          "duration": 0.5487794999999984
        },
        {
          "name": "E3",
          "midi": 52,
          "time": 28.35360750000001,
          "velocity": 1,
          "duration": 0.3658530000000013
        },
        {
          "name": "G3",
          "midi": 55,
          "time": 28.35360750000001,
          "velocity": 1,
          "duration": 0.3658530000000013
        },
        {
          "name": "B3",
          "midi": 59,
          "time": 28.35360750000001,
          "velocity": 1,
          "duration": 0.3658530000000013
        },
        {
          "name": "E3",
          "midi": 52,
          "time": 28.71946050000001,
          "velocity": 1,
          "duration": 0.18292650000000066
        },
        {
          "name": "G3",
          "midi": 55,
          "time": 28.71946050000001,
          "velocity": 1,
          "duration": 0.18292650000000066
        },
        {
          "name": "B3",
          "midi": 59,
          "time": 28.71946050000001,
          "velocity": 1,
          "duration": 0.18292650000000066
        },
        {
          "name": "E3",
          "midi": 52,
          "time": 28.90238700000001,
          "velocity": 1,
          "duration": 0.3658530000000013
        },
        {
          "name": "G3",
          "midi": 55,
          "time": 28.90238700000001,
          "velocity": 1,
          "duration": 0.3658530000000013
        },
        {
          "name": "B3",
          "midi": 59,
          "time": 28.90238700000001,
          "velocity": 1,
          "duration": 0.3658530000000013
        },
        {
          "name": "D3",
          "midi": 50,
          "time": 29.268240000000013,
          "velocity": 1,
          "duration": 0.9146324999999997
        },
        {
          "name": "G3",
          "midi": 55,
          "time": 29.268240000000013,
          "velocity": 1,
          "duration": 0.9146324999999997
        },
        {
          "name": "B3",
          "midi": 59,
          "time": 29.268240000000013,
          "velocity": 1,
          "duration": 0.9146324999999997
        },
        {
          "name": "D3",
          "midi": 50,
          "time": 30.182872500000013,
          "velocity": 1,
          "duration": 0.5487794999999984
        },
        {
          "name": "G3",
          "midi": 55,
          "time": 30.182872500000013,
          "velocity": 1,
          "duration": 0.5487794999999984
        },
        {
          "name": "B3",
          "midi": 59,
          "time": 30.182872500000013,
          "velocity": 1,
          "duration": 0.5487794999999984
        },
        {
          "name": "F#3",
          "midi": 54,
          "time": 30.73165200000001,
          "velocity": 1,
          "duration": 0.9146324999999997
        },
        {
          "name": "A3",
          "midi": 57,
          "time": 30.73165200000001,
          "velocity": 1,
          "duration": 0.9146324999999997
        },
        {
          "name": "D4",
          "midi": 62,
          "time": 30.73165200000001,
          "velocity": 1,
          "duration": 0.9146324999999997
        },
        {
          "name": "F#3",
          "midi": 54,
          "time": 31.64628450000001,
          "velocity": 1,
          "duration": 0.5487794999999984
        },
        {
          "name": "A3",
          "midi": 57,
          "time": 31.64628450000001,
          "velocity": 1,
          "duration": 0.5487794999999984
        },
        {
          "name": "D4",
          "midi": 62,
          "time": 31.64628450000001,
          "velocity": 1,
          "duration": 0.5487794999999984
        },
        {
          "name": "E3",
          "midi": 52,
          "time": 32.19506400000001,
          "velocity": 1,
          "duration": 0.3658530000000013
        },
        {
          "name": "G3",
          "midi": 55,
          "time": 32.19506400000001,
          "velocity": 1,
          "duration": 0.3658530000000013
        },
        {
          "name": "C4",
          "midi": 60,
          "time": 32.19506400000001,
          "velocity": 1,
          "duration": 0.3658530000000013
        },
        {
          "name": "E3",
          "midi": 52,
          "time": 32.56091700000001,
          "velocity": 1,
          "duration": 0.548779500000002
        },
        {
          "name": "G3",
          "midi": 55,
          "time": 32.56091700000001,
          "velocity": 1,
          "duration": 0.548779500000002
        },
        {
          "name": "C4",
          "midi": 60,
          "time": 32.56091700000001,
          "velocity": 1,
          "duration": 0.548779500000002
        },
        {
          "name": "E3",
          "midi": 52,
          "time": 33.10969650000001,
          "velocity": 1,
          "duration": 0.18292650000000066
        },
        {
          "name": "G3",
          "midi": 55,
          "time": 33.10969650000001,
          "velocity": 1,
          "duration": 0.18292650000000066
        },
        {
          "name": "C4",
          "midi": 60,
          "time": 33.10969650000001,
          "velocity": 1,
          "duration": 0.18292650000000066
        },
        {
          "name": "G3",
          "midi": 55,
          "time": 33.29262300000001,
          "velocity": 1,
          "duration": 0.18292650000000066
        },
        {
          "name": "B3",
          "midi": 59,
          "time": 33.29262300000001,
          "velocity": 1,
          "duration": 0.18292650000000066
        },
        {
          "name": "D4",
          "midi": 62,
          "time": 33.29262300000001,
          "velocity": 1,
          "duration": 0.18292650000000066
        },
        {
          "name": "E3",
          "midi": 52,
          "time": 33.475549500000014,
          "velocity": 1,
          "duration": 0.3658530000000013
        },
        {
          "name": "G3",
          "midi": 55,
          "time": 33.475549500000014,
          "velocity": 1,
          "duration": 0.3658530000000013
        },
        {
          "name": "D4",
          "midi": 62,
          "time": 33.475549500000014,
          "velocity": 1,
          "duration": 0.3658530000000013
        },
        {
          "name": "E3",
          "midi": 52,
          "time": 33.841402500000015,
          "velocity": 1,
          "duration": 0.18292650000000066
        },
        {
          "name": "G3",
          "midi": 55,
          "time": 33.841402500000015,
          "velocity": 1,
          "duration": 0.3658530000000013
        },
        {
          "name": "D4",
          "midi": 62,
          "time": 33.841402500000015,
          "velocity": 1,
          "duration": 0.3658530000000013
        },
        {
          "name": "E3",
          "midi": 52,
          "time": 34.024329000000016,
          "velocity": 1,
          "duration": 0.18292650000000066
        },
        {
          "name": "E3",
          "midi": 52,
          "time": 34.20725550000002,
          "velocity": 1,
          "duration": 0.3658530000000013
        },
        {
          "name": "G3",
          "midi": 55,
          "time": 34.20725550000002,
          "velocity": 1,
          "duration": 0.3658530000000013
        },
        {
          "name": "C#4",
          "midi": 61,
          "time": 34.20725550000002,
          "velocity": 1,
          "duration": 0.3658530000000013
        },
        {
          "name": "E3",
          "midi": 52,
          "time": 34.57310850000002,
          "velocity": 1,
          "duration": 0.18292650000000066
        },
        {
          "name": "G3",
          "midi": 55,
          "time": 34.57310850000002,
          "velocity": 1,
          "duration": 0.18292650000000066
        },
        {
          "name": "C#4",
          "midi": 61,
          "time": 34.57310850000002,
          "velocity": 1,
          "duration": 0.18292650000000066
        },
        {
          "name": "E3",
          "midi": 52,
          "time": 34.75603500000002,
          "velocity": 1,
          "duration": 0.3658530000000013
        },
        {
          "name": "G3",
          "midi": 55,
          "time": 34.75603500000002,
          "velocity": 1,
          "duration": 0.3658530000000013
        },
        {
          "name": "C#4",
          "midi": 61,
          "time": 34.75603500000002,
          "velocity": 1,
          "duration": 0.3658530000000013
        },
        {
          "name": "E3",
          "midi": 52,
          "time": 35.12188800000002,
          "velocity": 1,
          "duration": 0.548779500000002
        },
        {
          "name": "G3",
          "midi": 55,
          "time": 35.12188800000002,
          "velocity": 1,
          "duration": 0.548779500000002
        },
        {
          "name": "B3",
          "midi": 59,
          "time": 35.12188800000002,
          "velocity": 1,
          "duration": 0.548779500000002
        },
        {
          "name": "F#3",
          "midi": 54,
          "time": 35.67066750000002,
          "velocity": 1,
          "duration": 0.7317060000000026
        },
        {
          "name": "A3",
          "midi": 57,
          "time": 35.67066750000002,
          "velocity": 1,
          "duration": 0.7317060000000026
        },
        {
          "name": "C#4",
          "midi": 61,
          "time": 35.67066750000002,
          "velocity": 1,
          "duration": 0.7317060000000026
        },
        {
          "name": "G3",
          "midi": 55,
          "time": 36.402373500000024,
          "velocity": 1,
          "duration": 1.6463384999999988
        },
        {
          "name": "B3",
          "midi": 59,
          "time": 36.402373500000024,
          "velocity": 1,
          "duration": 1.6463384999999988
        },
        {
          "name": "D4",
          "midi": 62,
          "time": 36.402373500000024,
          "velocity": 1,
          "duration": 1.6463384999999988
        },
        {
          "name": "D3",
          "midi": 50,
          "time": 38.04871200000002,
          "velocity": 1,
          "duration": 0.548779500000002
        },
        {
          "name": "G3",
          "midi": 55,
          "time": 38.04871200000002,
          "velocity": 1,
          "duration": 0.548779500000002
        },
        {
          "name": "B3",
          "midi": 59,
          "time": 38.04871200000002,
          "velocity": 1,
          "duration": 0.548779500000002
        },
        {
          "name": "E3",
          "midi": 52,
          "time": 38.597491500000025,
          "velocity": 1,
          "duration": 0.7317060000000026
        },
        {
          "name": "A3",
          "midi": 57,
          "time": 38.597491500000025,
          "velocity": 1,
          "duration": 0.7317060000000026
        },
        {
          "name": "C#4",
          "midi": 61,
          "time": 38.597491500000025,
          "velocity": 1,
          "duration": 0.7317060000000026
        },
        {
          "name": "F#3",
          "midi": 54,
          "time": 39.32919750000003,
          "velocity": 1,
          "duration": 1.6463384999999988
        },
        {
          "name": "B3",
          "midi": 59,
          "time": 39.32919750000003,
          "velocity": 1,
          "duration": 1.6463384999999988
        },
        {
          "name": "D4",
          "midi": 62,
          "time": 39.32919750000003,
          "velocity": 1,
          "duration": 1.6463384999999988
        },
        {
          "name": "D3",
          "midi": 50,
          "time": 40.97553600000003,
          "velocity": 1,
          "duration": 0.548779500000002
        },
        {
          "name": "G3",
          "midi": 55,
          "time": 40.97553600000003,
          "velocity": 1,
          "duration": 0.548779500000002
        },
        {
          "name": "B3",
          "midi": 59,
          "time": 40.97553600000003,
          "velocity": 1,
          "duration": 0.548779500000002
        },
        {
          "name": "E3",
          "midi": 52,
          "time": 41.52431550000003,
          "velocity": 1,
          "duration": 0.7317060000000026
        },
        {
          "name": "A3",
          "midi": 57,
          "time": 41.52431550000003,
          "velocity": 1,
          "duration": 0.7317060000000026
        },
        {
          "name": "C#4",
          "midi": 61,
          "time": 41.52431550000003,
          "velocity": 1,
          "duration": 0.7317060000000026
        },
        {
          "name": "F#3",
          "midi": 54,
          "time": 42.25602150000003,
          "velocity": 1,
          "duration": 1.2804854999999975
        },
        {
          "name": "B3",
          "midi": 59,
          "time": 42.25602150000003,
          "velocity": 1,
          "duration": 1.2804854999999975
        },
        {
          "name": "D4",
          "midi": 62,
          "time": 42.25602150000003,
          "velocity": 1,
          "duration": 1.2804854999999975
        },
        {
          "name": "F#3",
          "midi": 54,
          "time": 43.53650700000003,
          "velocity": 1,
          "duration": 0.18292650000000066
        },
        {
          "name": "B3",
          "midi": 59,
          "time": 43.53650700000003,
          "velocity": 1,
          "duration": 0.18292650000000066
        },
        {
          "name": "D4",
          "midi": 62,
          "time": 43.53650700000003,
          "velocity": 1,
          "duration": 0.18292650000000066
        },
        {
          "name": "E3",
          "midi": 52,
          "time": 43.71943350000003,
          "velocity": 1,
          "duration": 0.7317060000000026
        },
        {
          "name": "A3",
          "midi": 57,
          "time": 43.71943350000003,
          "velocity": 1,
          "duration": 0.7317060000000026
        },
        {
          "name": "C#4",
          "midi": 61,
          "time": 43.71943350000003,
          "velocity": 1,
          "duration": 0.7317060000000026
        },
        {
          "name": "E3",
          "midi": 52,
          "time": 44.45113950000003,
          "velocity": 1,
          "duration": 0.7317060000000026
        },
        {
          "name": "A3",
          "midi": 57,
          "time": 44.45113950000003,
          "velocity": 1,
          "duration": 0.7317060000000026
        },
        {
          "name": "C#4",
          "midi": 61,
          "time": 44.45113950000003,
          "velocity": 1,
          "duration": 0.7317060000000026
        },
        {
          "name": "E3",
          "midi": 52,
          "time": 45.182845500000035,
          "velocity": 1,
          "duration": 0.3658530000000013
        },
        {
          "name": "A3",
          "midi": 57,
          "time": 45.182845500000035,
          "velocity": 1,
          "duration": 0.3658530000000013
        },
        {
          "name": "C#4",
          "midi": 61,
          "time": 45.182845500000035,
          "velocity": 1,
          "duration": 0.3658530000000013
        },
        {
          "name": "E3",
          "midi": 52,
          "time": 45.548698500000036,
          "velocity": 1,
          "duration": 0.18292650000000066
        },
        {
          "name": "A3",
          "midi": 57,
          "time": 45.548698500000036,
          "velocity": 1,
          "duration": 0.18292650000000066
        },
        {
          "name": "C#4",
          "midi": 61,
          "time": 45.548698500000036,
          "velocity": 1,
          "duration": 0.18292650000000066
        },
        {
          "name": "E3",
          "midi": 52,
          "time": 45.73162500000004,
          "velocity": 1,
          "duration": 0.18292650000000066
        },
        {
          "name": "A3",
          "midi": 57,
          "time": 45.73162500000004,
          "velocity": 1,
          "duration": 0.18292650000000066
        },
        {
          "name": "C#4",
          "midi": 61,
          "time": 45.73162500000004,
          "velocity": 1,
          "duration": 0.18292650000000066
        },
        {
          "name": "E3",
          "midi": 52,
          "time": 45.91455150000004,
          "velocity": 1,
          "duration": 0.3658530000000013
        },
        {
          "name": "A3",
          "midi": 57,
          "time": 45.91455150000004,
          "velocity": 1,
          "duration": 0.3658530000000013
        },
        {
          "name": "C#4",
          "midi": 61,
          "time": 45.91455150000004,
          "velocity": 1,
          "duration": 0.3658530000000013
        },
        {
          "name": "E3",
          "midi": 52,
          "time": 46.28040450000004,
          "velocity": 1,
          "duration": 0.18292650000000066
        },
        {
          "name": "A3",
          "midi": 57,
          "time": 46.28040450000004,
          "velocity": 1,
          "duration": 0.18292650000000066
        },
        {
          "name": "C#4",
          "midi": 61,
          "time": 46.28040450000004,
          "velocity": 1,
          "duration": 0.18292650000000066
        },
        {
          "name": "E3",
          "midi": 52,
          "time": 46.46333100000004,
          "velocity": 1,
          "duration": 0.3658530000000013
        },
        {
          "name": "A3",
          "midi": 57,
          "time": 46.46333100000004,
          "velocity": 1,
          "duration": 0.3658530000000013
        },
        {
          "name": "C#4",
          "midi": 61,
          "time": 46.46333100000004,
          "velocity": 1,
          "duration": 0.3658530000000013
        },
        {
          "name": "D3",
          "midi": 50,
          "time": 46.82918400000004,
          "velocity": 1,
          "duration": 0.548779500000002
        },
        {
          "name": "G3",
          "midi": 55,
          "time": 46.82918400000004,
          "velocity": 1,
          "duration": 0.548779500000002
        },
        {
          "name": "B3",
          "midi": 59,
          "time": 46.82918400000004,
          "velocity": 1,
          "duration": 0.548779500000002
        },
        {
          "name": "E3",
          "midi": 52,
          "time": 47.37796350000004,
          "velocity": 1,
          "duration": 0.9146325000000033
        },
        {
          "name": "A3",
          "midi": 57,
          "time": 47.37796350000004,
          "velocity": 1,
          "duration": 0.9146325000000033
        },
        {
          "name": "C#4",
          "midi": 61,
          "time": 47.37796350000004,
          "velocity": 1,
          "duration": 0.9146325000000033
        },
        {
          "name": "G3",
          "midi": 55,
          "time": 48.292596000000046,
          "velocity": 1,
          "duration": 0.548779500000002
        },
        {
          "name": "B3",
          "midi": 59,
          "time": 48.292596000000046,
          "velocity": 1,
          "duration": 0.548779500000002
        },
        {
          "name": "D4",
          "midi": 62,
          "time": 48.292596000000046,
          "velocity": 1,
          "duration": 0.548779500000002
        },
        {
          "name": "E3",
          "midi": 52,
          "time": 48.84137550000005,
          "velocity": 1,
          "duration": 0.9146325000000033
        },
        {
          "name": "A3",
          "midi": 57,
          "time": 48.84137550000005,
          "velocity": 1,
          "duration": 0.9146325000000033
        },
        {
          "name": "C#4",
          "midi": 61,
          "time": 48.84137550000005,
          "velocity": 1,
          "duration": 0.9146325000000033
        },
        {
          "name": "D3",
          "midi": 50,
          "time": 49.75600800000005,
          "velocity": 1,
          "duration": 0.548779500000002
        },
        {
          "name": "G3",
          "midi": 55,
          "time": 49.75600800000005,
          "velocity": 1,
          "duration": 0.548779500000002
        },
        {
          "name": "B3",
          "midi": 59,
          "time": 49.75600800000005,
          "velocity": 1,
          "duration": 0.548779500000002
        },
        {
          "name": "E3",
          "midi": 52,
          "time": 50.30478750000005,
          "velocity": 1,
          "duration": 0.9146325000000033
        },
        {
          "name": "A3",
          "midi": 57,
          "time": 50.30478750000005,
          "velocity": 1,
          "duration": 0.9146325000000033
        },
        {
          "name": "C#4",
          "midi": 61,
          "time": 50.30478750000005,
          "velocity": 1,
          "duration": 0.9146325000000033
        },
        {
          "name": "G3",
          "midi": 55,
          "time": 51.219420000000056,
          "velocity": 1,
          "duration": 0.548779500000002
        },
        {
          "name": "B3",
          "midi": 59,
          "time": 51.219420000000056,
          "velocity": 1,
          "duration": 0.548779500000002
        },
        {
          "name": "D4",
          "midi": 62,
          "time": 51.219420000000056,
          "velocity": 1,
          "duration": 0.548779500000002
        },
        {
          "name": "E3",
          "midi": 52,
          "time": 51.76819950000006,
          "velocity": 1,
          "duration": 0.9146325000000033
        },
        {
          "name": "A3",
          "midi": 57,
          "time": 51.76819950000006,
          "velocity": 1,
          "duration": 0.9146325000000033
        },
        {
          "name": "C#4",
          "midi": 61,
          "time": 51.76819950000006,
          "velocity": 1,
          "duration": 0.9146325000000033
        },
        {
          "name": "D3",
          "midi": 50,
          "time": 52.68283200000006,
          "velocity": 1,
          "duration": 0.548779500000002
        },
        {
          "name": "G3",
          "midi": 55,
          "time": 52.68283200000006,
          "velocity": 1,
          "duration": 0.548779500000002
        },
        {
          "name": "B3",
          "midi": 59,
          "time": 52.68283200000006,
          "velocity": 1,
          "duration": 0.548779500000002
        },
        {
          "name": "E3",
          "midi": 52,
          "time": 53.231611500000064,
          "velocity": 1,
          "duration": 0.9146325000000033
        },
        {
          "name": "A3",
          "midi": 57,
          "time": 53.231611500000064,
          "velocity": 1,
          "duration": 0.9146325000000033
        },
        {
          "name": "C#4",
          "midi": 61,
          "time": 53.231611500000064,
          "velocity": 1,
          "duration": 0.9146325000000033
        },
        {
          "name": "G3",
          "midi": 55,
          "time": 54.14624400000007,
          "velocity": 1,
          "duration": 0.548779500000002
        },
        {
          "name": "B3",
          "midi": 59,
          "time": 54.14624400000007,
          "velocity": 1,
          "duration": 0.548779500000002
        },
        {
          "name": "D4",
          "midi": 62,
          "time": 54.14624400000007,
          "velocity": 1,
          "duration": 0.548779500000002
        },
        {
          "name": "E3",
          "midi": 52,
          "time": 54.69502350000007,
          "velocity": 1,
          "duration": 0.9146325000000033
        },
        {
          "name": "A3",
          "midi": 57,
          "time": 54.69502350000007,
          "velocity": 1,
          "duration": 0.9146325000000033
        },
        {
          "name": "C#4",
          "midi": 61,
          "time": 54.69502350000007,
          "velocity": 1,
          "duration": 0.9146325000000033
        },
        {
          "name": "E3",
          "midi": 52,
          "time": 55.60965600000007,
          "velocity": 1,
          "duration": 1.2804854999999975
        },
        {
          "name": "G3",
          "midi": 55,
          "time": 55.60965600000007,
          "velocity": 1,
          "duration": 1.2804854999999975
        },
        {
          "name": "B3",
          "midi": 59,
          "time": 55.60965600000007,
          "velocity": 1,
          "duration": 1.2804854999999975
        },
        {
          "name": "F#3",
          "midi": 54,
          "time": 56.89014150000007,
          "velocity": 1,
          "duration": 0.3658530000000013
        },
        {
          "name": "A#3",
          "midi": 58,
          "time": 56.89014150000007,
          "velocity": 1,
          "duration": 0.3658530000000013
        },
        {
          "name": "C#4",
          "midi": 61,
          "time": 56.89014150000007,
          "velocity": 1,
          "duration": 0.3658530000000013
        },
        {
          "name": "F#3",
          "midi": 54,
          "time": 57.25599450000007,
          "velocity": 1,
          "duration": 0.18292650000000066
        },
        {
          "name": "A#3",
          "midi": 58,
          "time": 57.25599450000007,
          "velocity": 1,
          "duration": 0.18292650000000066
        },
        {
          "name": "C#4",
          "midi": 61,
          "time": 57.25599450000007,
          "velocity": 1,
          "duration": 0.18292650000000066
        },
        {
          "name": "F#3",
          "midi": 54,
          "time": 57.43892100000007,
          "velocity": 1,
          "duration": 0.18292650000000066
        },
        {
          "name": "A#3",
          "midi": 58,
          "time": 57.43892100000007,
          "velocity": 1,
          "duration": 0.18292650000000066
        },
        {
          "name": "C#4",
          "midi": 61,
          "time": 57.43892100000007,
          "velocity": 1,
          "duration": 0.18292650000000066
        },
        {
          "name": "F#3",
          "midi": 54,
          "time": 57.62184750000007,
          "velocity": 1,
          "duration": 0.18292650000000066
        },
        {
          "name": "A#3",
          "midi": 58,
          "time": 57.62184750000007,
          "velocity": 1,
          "duration": 0.18292650000000066
        },
        {
          "name": "C#4",
          "midi": 61,
          "time": 57.62184750000007,
          "velocity": 1,
          "duration": 0.18292650000000066
        },
        {
          "name": "F#3",
          "midi": 54,
          "time": 58.536480000000076,
          "velocity": 1,
          "duration": 0.3658530000000013
        },
        {
          "name": "B3",
          "midi": 59,
          "time": 58.536480000000076,
          "velocity": 1,
          "duration": 0.3658530000000013
        },
        {
          "name": "D4",
          "midi": 62,
          "time": 58.536480000000076,
          "velocity": 1,
          "duration": 0.3658530000000013
        },
        {
          "name": "F#3",
          "midi": 54,
          "time": 58.90233300000008,
          "velocity": 1,
          "duration": 0.548779500000002
        },
        {
          "name": "B3",
          "midi": 59,
          "time": 58.90233300000008,
          "velocity": 1,
          "duration": 0.548779500000002
        },
        {
          "name": "D4",
          "midi": 62,
          "time": 58.90233300000008,
          "velocity": 1,
          "duration": 0.548779500000002
        },
        {
          "name": "F#3",
          "midi": 54,
          "time": 59.45111250000008,
          "velocity": 1,
          "duration": 0.3658530000000013
        },
        {
          "name": "B3",
          "midi": 59,
          "time": 59.45111250000008,
          "velocity": 1,
          "duration": 0.3658530000000013
        },
        {
          "name": "D4",
          "midi": 62,
          "time": 59.45111250000008,
          "velocity": 1,
          "duration": 0.3658530000000013
        },
        {
          "name": "F#3",
          "midi": 54,
          "time": 59.81696550000008,
          "velocity": 1,
          "duration": 0.18292650000000066
        },
        {
          "name": "B3",
          "midi": 59,
          "time": 59.81696550000008,
          "velocity": 1,
          "duration": 0.18292650000000066
        },
        {
          "name": "D4",
          "midi": 62,
          "time": 59.81696550000008,
          "velocity": 1,
          "duration": 0.18292650000000066
        },
        {
          "name": "F#3",
          "midi": 54,
          "time": 59.99989200000008,
          "velocity": 1,
          "duration": 0.3658530000000013
        },
        {
          "name": "A3",
          "midi": 57,
          "time": 59.99989200000008,
          "velocity": 1,
          "duration": 0.3658530000000013
        },
        {
          "name": "C#4",
          "midi": 61,
          "time": 59.99989200000008,
          "velocity": 1,
          "duration": 0.3658530000000013
        },
        {
          "name": "F#3",
          "midi": 54,
          "time": 60.36574500000008,
          "velocity": 1,
          "duration": 0.18292650000000066
        },
        {
          "name": "A3",
          "midi": 57,
          "time": 60.36574500000008,
          "velocity": 1,
          "duration": 0.18292650000000066
        },
        {
          "name": "C#4",
          "midi": 61,
          "time": 60.36574500000008,
          "velocity": 1,
          "duration": 0.18292650000000066
        },
        {
          "name": "F#3",
          "midi": 54,
          "time": 60.54867150000008,
          "velocity": 1,
          "duration": 0.3658530000000013
        },
        {
          "name": "A3",
          "midi": 57,
          "time": 60.54867150000008,
          "velocity": 1,
          "duration": 0.3658530000000013
        },
        {
          "name": "C#4",
          "midi": 61,
          "time": 60.54867150000008,
          "velocity": 1,
          "duration": 0.3658530000000013
        },
        {
          "name": "F#3",
          "midi": 54,
          "time": 60.914524500000084,
          "velocity": 1,
          "duration": 0.18292650000000066
        },
        {
          "name": "A3",
          "midi": 57,
          "time": 60.914524500000084,
          "velocity": 1,
          "duration": 0.18292650000000066
        },
        {
          "name": "C#4",
          "midi": 61,
          "time": 60.914524500000084,
          "velocity": 1,
          "duration": 0.18292650000000066
        },
        {
          "name": "F#3",
          "midi": 54,
          "time": 61.097451000000085,
          "velocity": 1,
          "duration": 0.3658530000000013
        },
        {
          "name": "A3",
          "midi": 57,
          "time": 61.097451000000085,
          "velocity": 1,
          "duration": 0.3658530000000013
        },
        {
          "name": "C#4",
          "midi": 61,
          "time": 61.097451000000085,
          "velocity": 1,
          "duration": 0.3658530000000013
        },
        {
          "name": "F#3",
          "midi": 54,
          "time": 61.463304000000086,
          "velocity": 1,
          "duration": 0.3658530000000013
        },
        {
          "name": "A3",
          "midi": 57,
          "time": 61.463304000000086,
          "velocity": 1,
          "duration": 0.3658530000000013
        },
        {
          "name": "D4",
          "midi": 62,
          "time": 61.463304000000086,
          "velocity": 1,
          "duration": 0.3658530000000013
        },
        {
          "name": "F#3",
          "midi": 54,
          "time": 61.82915700000009,
          "velocity": 1,
          "duration": 0.548779500000002
        },
        {
          "name": "A3",
          "midi": 57,
          "time": 61.82915700000009,
          "velocity": 1,
          "duration": 0.548779500000002
        },
        {
          "name": "D4",
          "midi": 62,
          "time": 61.82915700000009,
          "velocity": 1,
          "duration": 0.548779500000002
        },
        {
          "name": "F#3",
          "midi": 54,
          "time": 62.37793650000009,
          "velocity": 1,
          "duration": 0.3658530000000013
        },
        {
          "name": "A3",
          "midi": 57,
          "time": 62.37793650000009,
          "velocity": 1,
          "duration": 0.3658530000000013
        },
        {
          "name": "D4",
          "midi": 62,
          "time": 62.37793650000009,
          "velocity": 1,
          "duration": 0.3658530000000013
        },
        {
          "name": "F#3",
          "midi": 54,
          "time": 62.74378950000009,
          "velocity": 1,
          "duration": 0.18292650000000066
        },
        {
          "name": "A3",
          "midi": 57,
          "time": 62.74378950000009,
          "velocity": 1,
          "duration": 0.18292650000000066
        },
        {
          "name": "D4",
          "midi": 62,
          "time": 62.74378950000009,
          "velocity": 1,
          "duration": 0.18292650000000066
        },
        {
          "name": "E3",
          "midi": 52,
          "time": 62.92671600000009,
          "velocity": 1,
          "duration": 0.548779500000002
        },
        {
          "name": "G3",
          "midi": 55,
          "time": 62.92671600000009,
          "velocity": 1,
          "duration": 0.548779500000002
        },
        {
          "name": "B3",
          "midi": 59,
          "time": 62.92671600000009,
          "velocity": 1,
          "duration": 0.548779500000002
        },
        {
          "name": "E3",
          "midi": 52,
          "time": 63.47549550000009,
          "velocity": 1,
          "duration": 0.3658530000000013
        },
        {
          "name": "G3",
          "midi": 55,
          "time": 63.47549550000009,
          "velocity": 1,
          "duration": 0.3658530000000013
        },
        {
          "name": "B3",
          "midi": 59,
          "time": 63.47549550000009,
          "velocity": 1,
          "duration": 0.3658530000000013
        },
        {
          "name": "E3",
          "midi": 52,
          "time": 63.841348500000095,
          "velocity": 1,
          "duration": 0.18292649999999355
        },
        {
          "name": "G3",
          "midi": 55,
          "time": 63.841348500000095,
          "velocity": 1,
          "duration": 0.18292649999999355
        },
        {
          "name": "B3",
          "midi": 59,
          "time": 63.841348500000095,
          "velocity": 1,
          "duration": 0.18292649999999355
        },
        {
          "name": "E3",
          "midi": 52,
          "time": 64.02427500000009,
          "velocity": 1,
          "duration": 0.3658530000000013
        },
        {
          "name": "G3",
          "midi": 55,
          "time": 64.02427500000009,
          "velocity": 1,
          "duration": 0.3658530000000013
        },
        {
          "name": "B3",
          "midi": 59,
          "time": 64.02427500000009,
          "velocity": 1,
          "duration": 0.3658530000000013
        },
        {
          "name": "D3",
          "midi": 50,
          "time": 64.39012800000009,
          "velocity": 1,
          "duration": 0.9146324999999962
        },
        {
          "name": "G3",
          "midi": 55,
          "time": 64.39012800000009,
          "velocity": 1,
          "duration": 0.9146324999999962
        },
        {
          "name": "B3",
          "midi": 59,
          "time": 64.39012800000009,
          "velocity": 1,
          "duration": 0.9146324999999962
        },
        {
          "name": "D3",
          "midi": 50,
          "time": 65.30476050000009,
          "velocity": 1,
          "duration": 0.5487794999999949
        },
        {
          "name": "G3",
          "midi": 55,
          "time": 65.30476050000009,
          "velocity": 1,
          "duration": 0.5487794999999949
        },
        {
          "name": "B3",
          "midi": 59,
          "time": 65.30476050000009,
          "velocity": 1,
          "duration": 0.5487794999999949
        },
        {
          "name": "F#3",
          "midi": 54,
          "time": 65.85354000000008,
          "velocity": 1,
          "duration": 0.9146324999999962
        },
        {
          "name": "A3",
          "midi": 57,
          "time": 65.85354000000008,
          "velocity": 1,
          "duration": 0.9146324999999962
        },
        {
          "name": "D4",
          "midi": 62,
          "time": 65.85354000000008,
          "velocity": 1,
          "duration": 0.9146324999999962
        },
        {
          "name": "F#3",
          "midi": 54,
          "time": 66.76817250000008,
          "velocity": 1,
          "duration": 0.5487794999999949
        },
        {
          "name": "A3",
          "midi": 57,
          "time": 66.76817250000008,
          "velocity": 1,
          "duration": 0.5487794999999949
        },
        {
          "name": "D4",
          "midi": 62,
          "time": 66.76817250000008,
          "velocity": 1,
          "duration": 0.5487794999999949
        },
        {
          "name": "E3",
          "midi": 52,
          "time": 67.31695200000007,
          "velocity": 1,
          "duration": 0.5487794999999949
        },
        {
          "name": "G3",
          "midi": 55,
          "time": 67.31695200000007,
          "velocity": 1,
          "duration": 0.5487794999999949
        },
        {
          "name": "B3",
          "midi": 59,
          "time": 67.31695200000007,
          "velocity": 1,
          "duration": 0.5487794999999949
        },
        {
          "name": "E3",
          "midi": 52,
          "time": 67.86573150000007,
          "velocity": 1,
          "duration": 0.3658530000000013
        },
        {
          "name": "G3",
          "midi": 55,
          "time": 67.86573150000007,
          "velocity": 1,
          "duration": 0.3658530000000013
        },
        {
          "name": "B3",
          "midi": 59,
          "time": 67.86573150000007,
          "velocity": 1,
          "duration": 0.3658530000000013
        },
        {
          "name": "E3",
          "midi": 52,
          "time": 68.23158450000007,
          "velocity": 1,
          "duration": 0.18292649999999355
        },
        {
          "name": "G3",
          "midi": 55,
          "time": 68.23158450000007,
          "velocity": 1,
          "duration": 0.18292649999999355
        },
        {
          "name": "B3",
          "midi": 59,
          "time": 68.23158450000007,
          "velocity": 1,
          "duration": 0.18292649999999355
        },
        {
          "name": "E3",
          "midi": 52,
          "time": 68.41451100000006,
          "velocity": 1,
          "duration": 0.3658530000000013
        },
        {
          "name": "G3",
          "midi": 55,
          "time": 68.41451100000006,
          "velocity": 1,
          "duration": 0.3658530000000013
        },
        {
          "name": "B3",
          "midi": 59,
          "time": 68.41451100000006,
          "velocity": 1,
          "duration": 0.3658530000000013
        },
        {
          "name": "E3",
          "midi": 52,
          "time": 68.78036400000006,
          "velocity": 1,
          "duration": 0.09146325000000388
        },
        {
          "name": "D3",
          "midi": 50,
          "time": 68.87182725000007,
          "velocity": 1,
          "duration": 0.09146325000000388
        },
        {
          "name": "E3",
          "midi": 52,
          "time": 68.96329050000007,
          "velocity": 1,
          "duration": 0.18292649999999355
        },
        {
          "name": "G3",
          "midi": 55,
          "time": 69.14621700000006,
          "velocity": 1,
          "duration": 0.18292649999999355
        },
        {
          "name": "E3",
          "midi": 52,
          "time": 69.32914350000006,
          "velocity": 1,
          "duration": 0.18292649999999355
        },
        {
          "name": "F#3",
          "midi": 54,
          "time": 70.24377600000005,
          "velocity": 1,
          "duration": 0.3658530000000013
        },
        {
          "name": "B3",
          "midi": 59,
          "time": 70.24377600000005,
          "velocity": 1,
          "duration": 0.3658530000000013
        },
        {
          "name": "D4",
          "midi": 62,
          "time": 70.24377600000005,
          "velocity": 1,
          "duration": 0.3658530000000013
        },
        {
          "name": "F#3",
          "midi": 54,
          "time": 70.60962900000006,
          "velocity": 1,
          "duration": 0.5487794999999949
        },
        {
          "name": "B3",
          "midi": 59,
          "time": 70.60962900000006,
          "velocity": 1,
          "duration": 0.5487794999999949
        },
        {
          "name": "D4",
          "midi": 62,
          "time": 70.60962900000006,
          "velocity": 1,
          "duration": 0.5487794999999949
        },
        {
          "name": "F#3",
          "midi": 54,
          "time": 71.15840850000005,
          "velocity": 1,
          "duration": 0.3658530000000013
        },
        {
          "name": "B3",
          "midi": 59,
          "time": 71.15840850000005,
          "velocity": 1,
          "duration": 0.3658530000000013
        },
        {
          "name": "D4",
          "midi": 62,
          "time": 71.15840850000005,
          "velocity": 1,
          "duration": 0.3658530000000013
        },
        {
          "name": "F#3",
          "midi": 54,
          "time": 71.52426150000005,
          "velocity": 1,
          "duration": 0.18292649999999355
        },
        {
          "name": "B3",
          "midi": 59,
          "time": 71.52426150000005,
          "velocity": 1,
          "duration": 0.18292649999999355
        },
        {
          "name": "D4",
          "midi": 62,
          "time": 71.52426150000005,
          "velocity": 1,
          "duration": 0.18292649999999355
        },
        {
          "name": "F#3",
          "midi": 54,
          "time": 71.70718800000004,
          "velocity": 1,
          "duration": 0.3658530000000013
        },
        {
          "name": "A3",
          "midi": 57,
          "time": 71.70718800000004,
          "velocity": 1,
          "duration": 0.3658530000000013
        },
        {
          "name": "C#4",
          "midi": 61,
          "time": 71.70718800000004,
          "velocity": 1,
          "duration": 0.3658530000000013
        },
        {
          "name": "F#3",
          "midi": 54,
          "time": 72.07304100000005,
          "velocity": 1,
          "duration": 0.18292649999999355
        },
        {
          "name": "A3",
          "midi": 57,
          "time": 72.07304100000005,
          "velocity": 1,
          "duration": 0.18292649999999355
        },
        {
          "name": "C#4",
          "midi": 61,
          "time": 72.07304100000005,
          "velocity": 1,
          "duration": 0.18292649999999355
        },
        {
          "name": "F#3",
          "midi": 54,
          "time": 72.25596750000004,
          "velocity": 1,
          "duration": 0.3658530000000013
        },
        {
          "name": "A3",
          "midi": 57,
          "time": 72.25596750000004,
          "velocity": 1,
          "duration": 0.3658530000000013
        },
        {
          "name": "C#4",
          "midi": 61,
          "time": 72.25596750000004,
          "velocity": 1,
          "duration": 0.3658530000000013
        },
        {
          "name": "F#3",
          "midi": 54,
          "time": 72.62182050000004,
          "velocity": 1,
          "duration": 0.18292649999999355
        },
        {
          "name": "A3",
          "midi": 57,
          "time": 72.62182050000004,
          "velocity": 1,
          "duration": 0.18292649999999355
        },
        {
          "name": "C#4",
          "midi": 61,
          "time": 72.62182050000004,
          "velocity": 1,
          "duration": 0.18292649999999355
        },
        {
          "name": "F#3",
          "midi": 54,
          "time": 72.80474700000003,
          "velocity": 1,
          "duration": 0.3658530000000013
        },
        {
          "name": "A3",
          "midi": 57,
          "time": 72.80474700000003,
          "velocity": 1,
          "duration": 0.3658530000000013
        },
        {
          "name": "C#4",
          "midi": 61,
          "time": 72.80474700000003,
          "velocity": 1,
          "duration": 0.3658530000000013
        },
        {
          "name": "F#3",
          "midi": 54,
          "time": 73.17060000000004,
          "velocity": 1,
          "duration": 0.3658530000000013
        },
        {
          "name": "A3",
          "midi": 57,
          "time": 73.17060000000004,
          "velocity": 1,
          "duration": 0.3658530000000013
        },
        {
          "name": "D4",
          "midi": 62,
          "time": 73.17060000000004,
          "velocity": 1,
          "duration": 0.3658530000000013
        },
        {
          "name": "F#3",
          "midi": 54,
          "time": 73.53645300000004,
          "velocity": 1,
          "duration": 0.5487794999999949
        },
        {
          "name": "A3",
          "midi": 57,
          "time": 73.53645300000004,
          "velocity": 1,
          "duration": 0.5487794999999949
        },
        {
          "name": "D4",
          "midi": 62,
          "time": 73.53645300000004,
          "velocity": 1,
          "duration": 0.5487794999999949
        },
        {
          "name": "F#3",
          "midi": 54,
          "time": 74.08523250000003,
          "velocity": 1,
          "duration": 0.18292649999999355
        },
        {
          "name": "A3",
          "midi": 57,
          "time": 74.08523250000003,
          "velocity": 1,
          "duration": 0.18292649999999355
        },
        {
          "name": "D4",
          "midi": 62,
          "time": 74.08523250000003,
          "velocity": 1,
          "duration": 0.3658529999999871
        },
        {
          "name": "A3",
          "midi": 57,
          "time": 74.26815900000003,
          "velocity": 1,
          "duration": 0.3658529999999871
        },
        {
          "name": "F#3",
          "midi": 54,
          "time": 74.45108550000002,
          "velocity": 1,
          "duration": 0.18292649999999355
        },
        {
          "name": "D4",
          "midi": 62,
          "time": 74.45108550000002,
          "velocity": 1,
          "duration": 0.18292649999999355
        },
        {
          "name": "E3",
          "midi": 52,
          "time": 74.63401200000001,
          "velocity": 1,
          "duration": 0.5487794999999949
        },
        {
          "name": "G3",
          "midi": 55,
          "time": 74.63401200000001,
          "velocity": 1,
          "duration": 0.5487794999999949
        },
        {
          "name": "B3",
          "midi": 59,
          "time": 74.63401200000001,
          "velocity": 1,
          "duration": 0.5487794999999949
        },
        {
          "name": "E3",
          "midi": 52,
          "time": 75.18279150000001,
          "velocity": 1,
          "duration": 0.3658530000000013
        },
        {
          "name": "G3",
          "midi": 55,
          "time": 75.18279150000001,
          "velocity": 1,
          "duration": 0.3658530000000013
        },
        {
          "name": "B3",
          "midi": 59,
          "time": 75.18279150000001,
          "velocity": 1,
          "duration": 0.3658530000000013
        },
        {
          "name": "E3",
          "midi": 52,
          "time": 75.54864450000001,
          "velocity": 1,
          "duration": 0.18292649999999355
        },
        {
          "name": "G3",
          "midi": 55,
          "time": 75.54864450000001,
          "velocity": 1,
          "duration": 0.18292649999999355
        },
        {
          "name": "B3",
          "midi": 59,
          "time": 75.54864450000001,
          "velocity": 1,
          "duration": 0.18292649999999355
        },
        {
          "name": "E3",
          "midi": 52,
          "time": 75.731571,
          "velocity": 1,
          "duration": 0.3658530000000013
        },
        {
          "name": "G3",
          "midi": 55,
          "time": 75.731571,
          "velocity": 1,
          "duration": 0.3658530000000013
        },
        {
          "name": "B3",
          "midi": 59,
          "time": 75.731571,
          "velocity": 1,
          "duration": 0.3658530000000013
        },
        {
          "name": "D3",
          "midi": 50,
          "time": 76.097424,
          "velocity": 1,
          "duration": 0.9146324999999962
        },
        {
          "name": "G3",
          "midi": 55,
          "time": 76.097424,
          "velocity": 1,
          "duration": 0.9146324999999962
        },
        {
          "name": "B3",
          "midi": 59,
          "time": 76.097424,
          "velocity": 1,
          "duration": 0.9146324999999962
        },
        {
          "name": "D3",
          "midi": 50,
          "time": 77.0120565,
          "velocity": 1,
          "duration": 0.5487794999999949
        },
        {
          "name": "G3",
          "midi": 55,
          "time": 77.0120565,
          "velocity": 1,
          "duration": 0.5487794999999949
        },
        {
          "name": "B3",
          "midi": 59,
          "time": 77.0120565,
          "velocity": 1,
          "duration": 0.5487794999999949
        },
        {
          "name": "F#3",
          "midi": 54,
          "time": 77.560836,
          "velocity": 1,
          "duration": 0.9146324999999962
        },
        {
          "name": "A3",
          "midi": 57,
          "time": 77.560836,
          "velocity": 1,
          "duration": 0.9146324999999962
        },
        {
          "name": "D4",
          "midi": 62,
          "time": 77.560836,
          "velocity": 1,
          "duration": 0.9146324999999962
        },
        {
          "name": "F#3",
          "midi": 54,
          "time": 78.47546849999999,
          "velocity": 1,
          "duration": 0.5487794999999949
        },
        {
          "name": "A3",
          "midi": 57,
          "time": 78.47546849999999,
          "velocity": 1,
          "duration": 0.5487794999999949
        },
        {
          "name": "D4",
          "midi": 62,
          "time": 78.47546849999999,
          "velocity": 1,
          "duration": 0.5487794999999949
        },
        {
          "name": "E3",
          "midi": 52,
          "time": 79.02424799999999,
          "velocity": 1,
          "duration": 0.3658530000000013
        },
        {
          "name": "G3",
          "midi": 55,
          "time": 79.02424799999999,
          "velocity": 1,
          "duration": 0.3658530000000013
        },
        {
          "name": "C4",
          "midi": 60,
          "time": 79.02424799999999,
          "velocity": 1,
          "duration": 0.3658530000000013
        },
        {
          "name": "E3",
          "midi": 52,
          "time": 79.39010099999999,
          "velocity": 1,
          "duration": 0.5487794999999949
        },
        {
          "name": "G3",
          "midi": 55,
          "time": 79.39010099999999,
          "velocity": 1,
          "duration": 0.5487794999999949
        },
        {
          "name": "C4",
          "midi": 60,
          "time": 79.39010099999999,
          "velocity": 1,
          "duration": 0.5487794999999949
        },
        {
          "name": "E3",
          "midi": 52,
          "time": 79.93888049999998,
          "velocity": 1,
          "duration": 0.18292649999999355
        },
        {
          "name": "G3",
          "midi": 55,
          "time": 79.93888049999998,
          "velocity": 1,
          "duration": 0.18292649999999355
        },
        {
          "name": "C4",
          "midi": 60,
          "time": 79.93888049999998,
          "velocity": 1,
          "duration": 0.18292649999999355
        },
        {
          "name": "G3",
          "midi": 55,
          "time": 80.12180699999998,
          "velocity": 1,
          "duration": 0.18292649999999355
        },
        {
          "name": "B3",
          "midi": 59,
          "time": 80.12180699999998,
          "velocity": 1,
          "duration": 0.18292649999999355
        },
        {
          "name": "D4",
          "midi": 62,
          "time": 80.12180699999998,
          "velocity": 1,
          "duration": 0.18292649999999355
        },
        {
          "name": "E3",
          "midi": 52,
          "time": 80.30473349999997,
          "velocity": 1,
          "duration": 0.3658530000000013
        },
        {
          "name": "G3",
          "midi": 55,
          "time": 80.30473349999997,
          "velocity": 1,
          "duration": 0.3658530000000013
        },
        {
          "name": "D4",
          "midi": 62,
          "time": 80.30473349999997,
          "velocity": 1,
          "duration": 0.3658530000000013
        },
        {
          "name": "E3",
          "midi": 52,
          "time": 80.67058649999997,
          "velocity": 1,
          "duration": 0.18292649999999355
        },
        {
          "name": "G3",
          "midi": 55,
          "time": 80.67058649999997,
          "velocity": 1,
          "duration": 0.3658529999999871
        },
        {
          "name": "D4",
          "midi": 62,
          "time": 80.67058649999997,
          "velocity": 1,
          "duration": 0.3658529999999871
        },
        {
          "name": "E3",
          "midi": 52,
          "time": 80.85351299999996,
          "velocity": 1,
          "duration": 0.18292649999999355
        },
        {
          "name": "E3",
          "midi": 52,
          "time": 81.03643949999996,
          "velocity": 1,
          "duration": 0.3658530000000013
        },
        {
          "name": "G3",
          "midi": 55,
          "time": 81.03643949999996,
          "velocity": 1,
          "duration": 0.3658530000000013
        },
        {
          "name": "C#4",
          "midi": 61,
          "time": 81.03643949999996,
          "velocity": 1,
          "duration": 0.3658530000000013
        },
        {
          "name": "E3",
          "midi": 52,
          "time": 81.40229249999996,
          "velocity": 1,
          "duration": 0.18292649999999355
        },
        {
          "name": "G3",
          "midi": 55,
          "time": 81.40229249999996,
          "velocity": 1,
          "duration": 0.18292649999999355
        },
        {
          "name": "C#4",
          "midi": 61,
          "time": 81.40229249999996,
          "velocity": 1,
          "duration": 0.18292649999999355
        },
        {
          "name": "E3",
          "midi": 52,
          "time": 81.58521899999995,
          "velocity": 1,
          "duration": 0.3658530000000013
        },
        {
          "name": "G3",
          "midi": 55,
          "time": 81.58521899999995,
          "velocity": 1,
          "duration": 0.3658530000000013
        },
        {
          "name": "C#4",
          "midi": 61,
          "time": 81.58521899999995,
          "velocity": 1,
          "duration": 0.3658530000000013
        },
        {
          "name": "E3",
          "midi": 52,
          "time": 81.95107199999995,
          "velocity": 1,
          "duration": 0.5487794999999949
        },
        {
          "name": "G3",
          "midi": 55,
          "time": 81.95107199999995,
          "velocity": 1,
          "duration": 0.5487794999999949
        },
        {
          "name": "B3",
          "midi": 59,
          "time": 81.95107199999995,
          "velocity": 1,
          "duration": 0.5487794999999949
        },
        {
          "name": "F#3",
          "midi": 54,
          "time": 82.49985149999995,
          "velocity": 1,
          "duration": 0.7317060000000026
        },
        {
          "name": "A3",
          "midi": 57,
          "time": 82.49985149999995,
          "velocity": 1,
          "duration": 0.7317060000000026
        },
        {
          "name": "C#4",
          "midi": 61,
          "time": 82.49985149999995,
          "velocity": 1,
          "duration": 0.7317060000000026
        },
        {
          "name": "G3",
          "midi": 55,
          "time": 83.23155749999995,
          "velocity": 1,
          "duration": 1.6463384999999988
        },
        {
          "name": "B3",
          "midi": 59,
          "time": 83.23155749999995,
          "velocity": 1,
          "duration": 1.6463384999999988
        },
        {
          "name": "D4",
          "midi": 62,
          "time": 83.23155749999995,
          "velocity": 1,
          "duration": 1.6463384999999988
        },
        {
          "name": "D3",
          "midi": 50,
          "time": 84.87789599999995,
          "velocity": 1,
          "duration": 0.5487794999999949
        },
        {
          "name": "G3",
          "midi": 55,
          "time": 84.87789599999995,
          "velocity": 1,
          "duration": 0.5487794999999949
        },
        {
          "name": "B3",
          "midi": 59,
          "time": 84.87789599999995,
          "velocity": 1,
          "duration": 0.5487794999999949
        },
        {
          "name": "E3",
          "midi": 52,
          "time": 85.42667549999994,
          "velocity": 1,
          "duration": 0.7317060000000026
        },
        {
          "name": "A3",
          "midi": 57,
          "time": 85.42667549999994,
          "velocity": 1,
          "duration": 0.7317060000000026
        },
        {
          "name": "C#4",
          "midi": 61,
          "time": 85.42667549999994,
          "velocity": 1,
          "duration": 0.7317060000000026
        },
        {
          "name": "F#3",
          "midi": 54,
          "time": 86.15838149999995,
          "velocity": 1,
          "duration": 1.6463384999999988
        },
        {
          "name": "B3",
          "midi": 59,
          "time": 86.15838149999995,
          "velocity": 1,
          "duration": 1.6463384999999988
        },
        {
          "name": "D4",
          "midi": 62,
          "time": 86.15838149999995,
          "velocity": 1,
          "duration": 1.6463384999999988
        },
        {
          "name": "D3",
          "midi": 50,
          "time": 87.80471999999995,
          "velocity": 1,
          "duration": 0.5487794999999949
        },
        {
          "name": "G3",
          "midi": 55,
          "time": 87.80471999999995,
          "velocity": 1,
          "duration": 0.5487794999999949
        },
        {
          "name": "B3",
          "midi": 59,
          "time": 87.80471999999995,
          "velocity": 1,
          "duration": 0.5487794999999949
        },
        {
          "name": "E3",
          "midi": 52,
          "time": 88.35349949999994,
          "velocity": 1,
          "duration": 0.7317060000000026
        },
        {
          "name": "A3",
          "midi": 57,
          "time": 88.35349949999994,
          "velocity": 1,
          "duration": 0.7317060000000026
        },
        {
          "name": "C#4",
          "midi": 61,
          "time": 88.35349949999994,
          "velocity": 1,
          "duration": 0.7317060000000026
        },
        {
          "name": "F#3",
          "midi": 54,
          "time": 89.08520549999994,
          "velocity": 1,
          "duration": 1.2804854999999975
        },
        {
          "name": "B3",
          "midi": 59,
          "time": 89.08520549999994,
          "velocity": 1,
          "duration": 1.2804854999999975
        },
        {
          "name": "D4",
          "midi": 62,
          "time": 89.08520549999994,
          "velocity": 1,
          "duration": 1.2804854999999975
        },
        {
          "name": "F#3",
          "midi": 54,
          "time": 90.36569099999994,
          "velocity": 1,
          "duration": 0.18292649999999355
        },
        {
          "name": "B3",
          "midi": 59,
          "time": 90.36569099999994,
          "velocity": 1,
          "duration": 0.18292649999999355
        },
        {
          "name": "D4",
          "midi": 62,
          "time": 90.36569099999994,
          "velocity": 1,
          "duration": 0.18292649999999355
        },
        {
          "name": "E3",
          "midi": 52,
          "time": 90.54861749999993,
          "velocity": 1,
          "duration": 0.7317060000000026
        },
        {
          "name": "A3",
          "midi": 57,
          "time": 90.54861749999993,
          "velocity": 1,
          "duration": 0.7317060000000026
        },
        {
          "name": "C#4",
          "midi": 61,
          "time": 90.54861749999993,
          "velocity": 1,
          "duration": 0.7317060000000026
        },
        {
          "name": "E3",
          "midi": 52,
          "time": 91.28032349999994,
          "velocity": 1,
          "duration": 0.7317060000000026
        },
        {
          "name": "A3",
          "midi": 57,
          "time": 91.28032349999994,
          "velocity": 1,
          "duration": 0.7317060000000026
        },
        {
          "name": "C#4",
          "midi": 61,
          "time": 91.28032349999994,
          "velocity": 1,
          "duration": 0.7317060000000026
        },
        {
          "name": "E3",
          "midi": 52,
          "time": 92.01202949999994,
          "velocity": 1,
          "duration": 0.3658530000000013
        },
        {
          "name": "A3",
          "midi": 57,
          "time": 92.01202949999994,
          "velocity": 1,
          "duration": 0.3658530000000013
        },
        {
          "name": "C#4",
          "midi": 61,
          "time": 92.01202949999994,
          "velocity": 1,
          "duration": 0.3658530000000013
        },
        {
          "name": "E3",
          "midi": 52,
          "time": 92.37788249999994,
          "velocity": 1,
          "duration": 0.18292649999999355
        },
        {
          "name": "A3",
          "midi": 57,
          "time": 92.37788249999994,
          "velocity": 1,
          "duration": 0.18292649999999355
        },
        {
          "name": "C#4",
          "midi": 61,
          "time": 92.37788249999994,
          "velocity": 1,
          "duration": 0.18292649999999355
        },
        {
          "name": "E3",
          "midi": 52,
          "time": 92.56080899999994,
          "velocity": 1,
          "duration": 0.18292649999999355
        },
        {
          "name": "A3",
          "midi": 57,
          "time": 92.56080899999994,
          "velocity": 1,
          "duration": 0.18292649999999355
        },
        {
          "name": "C#4",
          "midi": 61,
          "time": 92.56080899999994,
          "velocity": 1,
          "duration": 0.18292649999999355
        },
        {
          "name": "E3",
          "midi": 52,
          "time": 92.74373549999993,
          "velocity": 1,
          "duration": 0.3658530000000013
        },
        {
          "name": "A3",
          "midi": 57,
          "time": 92.74373549999993,
          "velocity": 1,
          "duration": 0.3658530000000013
        },
        {
          "name": "C#4",
          "midi": 61,
          "time": 92.74373549999993,
          "velocity": 1,
          "duration": 0.3658530000000013
        },
        {
          "name": "E3",
          "midi": 52,
          "time": 93.10958849999993,
          "velocity": 1,
          "duration": 0.18292649999999355
        },
        {
          "name": "A3",
          "midi": 57,
          "time": 93.10958849999993,
          "velocity": 1,
          "duration": 0.18292649999999355
        },
        {
          "name": "C#4",
          "midi": 61,
          "time": 93.10958849999993,
          "velocity": 1,
          "duration": 0.18292649999999355
        },
        {
          "name": "E3",
          "midi": 52,
          "time": 93.29251499999992,
          "velocity": 1,
          "duration": 0.3658530000000013
        },
        {
          "name": "A3",
          "midi": 57,
          "time": 93.29251499999992,
          "velocity": 1,
          "duration": 0.3658530000000013
        },
        {
          "name": "C#4",
          "midi": 61,
          "time": 93.29251499999992,
          "velocity": 1,
          "duration": 0.3658530000000013
        },
        {
          "name": "E3",
          "midi": 52,
          "time": 93.65836799999992,
          "velocity": 1,
          "duration": 0.5487794999999949
        },
        {
          "name": "G3",
          "midi": 55,
          "time": 93.65836799999992,
          "velocity": 1,
          "duration": 0.5487794999999949
        },
        {
          "name": "B3",
          "midi": 59,
          "time": 93.65836799999992,
          "velocity": 1,
          "duration": 0.5487794999999949
        },
        {
          "name": "F#3",
          "midi": 54,
          "time": 94.20714749999992,
          "velocity": 1,
          "duration": 0.7317060000000026
        },
        {
          "name": "A3",
          "midi": 57,
          "time": 94.20714749999992,
          "velocity": 1,
          "duration": 0.7317060000000026
        },
        {
          "name": "C#4",
          "midi": 61,
          "time": 94.20714749999992,
          "velocity": 1,
          "duration": 0.7317060000000026
        },
        {
          "name": "G3",
          "midi": 55,
          "time": 94.93885349999992,
          "velocity": 1,
          "duration": 1.6463384999999988
        },
        {
          "name": "B3",
          "midi": 59,
          "time": 94.93885349999992,
          "velocity": 1,
          "duration": 1.6463384999999988
        },
        {
          "name": "D4",
          "midi": 62,
          "time": 94.93885349999992,
          "velocity": 1,
          "duration": 1.6463384999999988
        },
        {
          "name": "D3",
          "midi": 50,
          "time": 96.58519199999992,
          "velocity": 1,
          "duration": 0.5487794999999949
        },
        {
          "name": "G3",
          "midi": 55,
          "time": 96.58519199999992,
          "velocity": 1,
          "duration": 0.5487794999999949
        },
        {
          "name": "B3",
          "midi": 59,
          "time": 96.58519199999992,
          "velocity": 1,
          "duration": 0.5487794999999949
        },
        {
          "name": "E3",
          "midi": 52,
          "time": 97.13397149999992,
          "velocity": 1,
          "duration": 0.7317059999999884
        },
        {
          "name": "A3",
          "midi": 57,
          "time": 97.13397149999992,
          "velocity": 1,
          "duration": 0.7317059999999884
        },
        {
          "name": "C#4",
          "midi": 61,
          "time": 97.13397149999992,
          "velocity": 1,
          "duration": 0.7317059999999884
        },
        {
          "name": "F#3",
          "midi": 54,
          "time": 97.8656774999999,
          "velocity": 1,
          "duration": 1.6463384999999988
        },
        {
          "name": "B3",
          "midi": 59,
          "time": 97.8656774999999,
          "velocity": 1,
          "duration": 1.6463384999999988
        },
        {
          "name": "D4",
          "midi": 62,
          "time": 97.8656774999999,
          "velocity": 1,
          "duration": 1.6463384999999988
        },
        {
          "name": "D3",
          "midi": 50,
          "time": 99.5120159999999,
          "velocity": 1,
          "duration": 0.5487794999999949
        },
        {
          "name": "G3",
          "midi": 55,
          "time": 99.5120159999999,
          "velocity": 1,
          "duration": 0.5487794999999949
        },
        {
          "name": "B3",
          "midi": 59,
          "time": 99.5120159999999,
          "velocity": 1,
          "duration": 0.5487794999999949
        },
        {
          "name": "E3",
          "midi": 52,
          "time": 100.0607954999999,
          "velocity": 1,
          "duration": 0.7317060000000026
        },
        {
          "name": "A3",
          "midi": 57,
          "time": 100.0607954999999,
          "velocity": 1,
          "duration": 0.7317060000000026
        },
        {
          "name": "C#4",
          "midi": 61,
          "time": 100.0607954999999,
          "velocity": 1,
          "duration": 0.7317060000000026
        },
        {
          "name": "F#3",
          "midi": 54,
          "time": 100.7925014999999,
          "velocity": 1,
          "duration": 1.2804854999999975
        },
        {
          "name": "B3",
          "midi": 59,
          "time": 100.7925014999999,
          "velocity": 1,
          "duration": 1.2804854999999975
        },
        {
          "name": "D4",
          "midi": 62,
          "time": 100.7925014999999,
          "velocity": 1,
          "duration": 1.2804854999999975
        },
        {
          "name": "F#3",
          "midi": 54,
          "time": 102.0729869999999,
          "velocity": 1,
          "duration": 0.18292649999999355
        },
        {
          "name": "B3",
          "midi": 59,
          "time": 102.0729869999999,
          "velocity": 1,
          "duration": 0.18292649999999355
        },
        {
          "name": "D4",
          "midi": 62,
          "time": 102.0729869999999,
          "velocity": 1,
          "duration": 0.18292649999999355
        },
        {
          "name": "E3",
          "midi": 52,
          "time": 102.25591349999989,
          "velocity": 1,
          "duration": 0.7317060000000026
        },
        {
          "name": "A3",
          "midi": 57,
          "time": 102.25591349999989,
          "velocity": 1,
          "duration": 0.7317060000000026
        },
        {
          "name": "C#4",
          "midi": 61,
          "time": 102.25591349999989,
          "velocity": 1,
          "duration": 0.7317060000000026
        },
        {
          "name": "E3",
          "midi": 52,
          "time": 102.9876194999999,
          "velocity": 1,
          "duration": 0.7317060000000026
        },
        {
          "name": "A3",
          "midi": 57,
          "time": 102.9876194999999,
          "velocity": 1,
          "duration": 0.7317060000000026
        },
        {
          "name": "C#4",
          "midi": 61,
          "time": 102.9876194999999,
          "velocity": 1,
          "duration": 0.7317060000000026
        },
        {
          "name": "E3",
          "midi": 52,
          "time": 103.7193254999999,
          "velocity": 1,
          "duration": 0.3658530000000013
        },
        {
          "name": "A3",
          "midi": 57,
          "time": 103.7193254999999,
          "velocity": 1,
          "duration": 0.3658530000000013
        },
        {
          "name": "C#4",
          "midi": 61,
          "time": 103.7193254999999,
          "velocity": 1,
          "duration": 0.3658530000000013
        },
        {
          "name": "E3",
          "midi": 52,
          "time": 104.0851784999999,
          "velocity": 1,
          "duration": 0.18292649999999355
        },
        {
          "name": "A3",
          "midi": 57,
          "time": 104.0851784999999,
          "velocity": 1,
          "duration": 0.18292649999999355
        },
        {
          "name": "C#4",
          "midi": 61,
          "time": 104.0851784999999,
          "velocity": 1,
          "duration": 0.18292649999999355
        },
        {
          "name": "E3",
          "midi": 52,
          "time": 104.26810499999989,
          "velocity": 1,
          "duration": 0.18292649999999355
        },
        {
          "name": "A3",
          "midi": 57,
          "time": 104.26810499999989,
          "velocity": 1,
          "duration": 0.18292649999999355
        },
        {
          "name": "C#4",
          "midi": 61,
          "time": 104.26810499999989,
          "velocity": 1,
          "duration": 0.18292649999999355
        },
        {
          "name": "E3",
          "midi": 52,
          "time": 104.45103149999989,
          "velocity": 1,
          "duration": 0.3658530000000013
        },
        {
          "name": "A3",
          "midi": 57,
          "time": 104.45103149999989,
          "velocity": 1,
          "duration": 0.3658530000000013
        },
        {
          "name": "C#4",
          "midi": 61,
          "time": 104.45103149999989,
          "velocity": 1,
          "duration": 0.3658530000000013
        },
        {
          "name": "E3",
          "midi": 52,
          "time": 104.81688449999989,
          "velocity": 1,
          "duration": 0.18292650000000776
        },
        {
          "name": "A3",
          "midi": 57,
          "time": 104.81688449999989,
          "velocity": 1,
          "duration": 0.18292650000000776
        },
        {
          "name": "C#4",
          "midi": 61,
          "time": 104.81688449999989,
          "velocity": 1,
          "duration": 0.18292650000000776
        },
        {
          "name": "E3",
          "midi": 52,
          "time": 104.9998109999999,
          "velocity": 1,
          "duration": 0.3658530000000013
        },
        {
          "name": "A3",
          "midi": 57,
          "time": 104.9998109999999,
          "velocity": 1,
          "duration": 0.3658530000000013
        },
        {
          "name": "C#4",
          "midi": 61,
          "time": 104.9998109999999,
          "velocity": 1,
          "duration": 0.3658530000000013
        },
        {
          "name": "E3",
          "midi": 52,
          "time": 105.3656639999999,
          "velocity": 1,
          "duration": 0.5487794999999949
        },
        {
          "name": "G3",
          "midi": 55,
          "time": 105.3656639999999,
          "velocity": 1,
          "duration": 0.5487794999999949
        },
        {
          "name": "B3",
          "midi": 59,
          "time": 105.3656639999999,
          "velocity": 1,
          "duration": 0.5487794999999949
        },
        {
          "name": "F#3",
          "midi": 54,
          "time": 105.91444349999989,
          "velocity": 1,
          "duration": 0.7317060000000026
        },
        {
          "name": "A3",
          "midi": 57,
          "time": 105.91444349999989,
          "velocity": 1,
          "duration": 0.7317060000000026
        },
        {
          "name": "C#4",
          "midi": 61,
          "time": 105.91444349999989,
          "velocity": 1,
          "duration": 0.7317060000000026
        },
        {
          "name": "G3",
          "midi": 55,
          "time": 106.6461494999999,
          "velocity": 1,
          "duration": 1.6463384999999988
        },
        {
          "name": "B3",
          "midi": 59,
          "time": 106.6461494999999,
          "velocity": 1,
          "duration": 1.6463384999999988
        },
        {
          "name": "D4",
          "midi": 62,
          "time": 106.6461494999999,
          "velocity": 1,
          "duration": 1.6463384999999988
        },
        {
          "name": "D3",
          "midi": 50,
          "time": 108.29248799999989,
          "velocity": 1,
          "duration": 0.5487794999999949
        },
        {
          "name": "G3",
          "midi": 55,
          "time": 108.29248799999989,
          "velocity": 1,
          "duration": 0.5487794999999949
        },
        {
          "name": "B3",
          "midi": 59,
          "time": 108.29248799999989,
          "velocity": 1,
          "duration": 0.5487794999999949
        },
        {
          "name": "E3",
          "midi": 52,
          "time": 108.84126749999989,
          "velocity": 1,
          "duration": 0.7317060000000026
        },
        {
          "name": "A3",
          "midi": 57,
          "time": 108.84126749999989,
          "velocity": 1,
          "duration": 0.7317060000000026
        },
        {
          "name": "C#4",
          "midi": 61,
          "time": 108.84126749999989,
          "velocity": 1,
          "duration": 0.7317060000000026
        },
        {
          "name": "F#3",
          "midi": 54,
          "time": 109.57297349999989,
          "velocity": 1,
          "duration": 1.6463384999999988
        },
        {
          "name": "B3",
          "midi": 59,
          "time": 109.57297349999989,
          "velocity": 1,
          "duration": 1.6463384999999988
        },
        {
          "name": "D4",
          "midi": 62,
          "time": 109.57297349999989,
          "velocity": 1,
          "duration": 1.6463384999999988
        }
      ];