export let synth1 = [
        {
          "name": "D4",
          "midi": 62,
          "time": 0,
          "velocity": 1,
          "duration": 0.18292650000000002
        },
        {
          "name": "G4",
          "midi": 67,
          "time": 0.18292650000000002,
          "velocity": 1,
          "duration": 0.18292650000000002
        },
        {
          "name": "B4",
          "midi": 71,
          "time": 0.36585300000000004,
          "velocity": 1,
          "duration": 0.18292650000000005
        },
        {
          "name": "E4",
          "midi": 64,
          "time": 0.5487795000000001,
          "velocity": 1,
          "duration": 0.3658530000000001
        },
        {
          "name": "A4",
          "midi": 69,
          "time": 0.9146325000000002,
          "velocity": 1,
          "duration": 0.1829265
        },
        {
          "name": "C#5",
          "midi": 73,
          "time": 1.0975590000000002,
          "velocity": 1,
          "duration": 0.1829265
        },
        {
          "name": "G4",
          "midi": 67,
          "time": 1.4634120000000002,
          "velocity": 1,
          "duration": 0.1829265
        },
        {
          "name": "B4",
          "midi": 71,
          "time": 1.6463385000000001,
          "velocity": 1,
          "duration": 0.1829265
        },
        {
          "name": "D5",
          "midi": 74,
          "time": 1.8292650000000001,
          "velocity": 1,
          "duration": 0.1829265
        },
        {
          "name": "A4",
          "midi": 69,
          "time": 2.0121915,
          "velocity": 1,
          "duration": 0.365853
        },
        {
          "name": "C#5",
          "midi": 73,
          "time": 2.3780445,
          "velocity": 1,
          "duration": 0.18292650000000021
        },
        {
          "name": "E5",
          "midi": 76,
          "time": 2.5609710000000003,
          "velocity": 1,
          "duration": 0.18292650000000021
        },
        {
          "name": "D4",
          "midi": 62,
          "time": 2.9268240000000008,
          "velocity": 1,
          "duration": 0.18292650000000021
        },
        {
          "name": "G4",
          "midi": 67,
          "time": 3.109750500000001,
          "velocity": 1,
          "duration": 0.18292650000000021
        },
        {
          "name": "B4",
          "midi": 71,
          "time": 3.292677000000001,
          "velocity": 1,
          "duration": 0.18292650000000021
        },
        {
          "name": "E4",
          "midi": 64,
          "time": 3.4756035000000014,
          "velocity": 1,
          "duration": 0.365853
        },
        {
          "name": "A4",
          "midi": 69,
          "time": 3.8414565000000014,
          "velocity": 1,
          "duration": 0.18292649999999977
        },
        {
          "name": "C#5",
          "midi": 73,
          "time": 4.024383000000001,
          "velocity": 1,
          "duration": 0.18292649999999977
        },
        {
          "name": "G4",
          "midi": 67,
          "time": 4.390236000000001,
          "velocity": 1,
          "duration": 0.18292649999999977
        },
        {
          "name": "B4",
          "midi": 71,
          "time": 4.5731625000000005,
          "velocity": 1,
          "duration": 0.18292649999999977
        },
        {
          "name": "D5",
          "midi": 74,
          "time": 4.756089,
          "velocity": 1,
          "duration": 0.18292649999999977
        },
        {
          "name": "A4",
          "midi": 69,
          "time": 4.9390155,
          "velocity": 1,
          "duration": 0.36585300000000043
        },
        {
          "name": "C#5",
          "midi": 73,
          "time": 5.3048685,
          "velocity": 1,
          "duration": 0.18292649999999977
        },
        {
          "name": "E5",
          "midi": 76,
          "time": 5.487795,
          "velocity": 1,
          "duration": 0.18292649999999977
        },
        {
          "name": "A5",
          "midi": 81,
          "time": 5.6707215,
          "velocity": 1,
          "duration": 0.18292649999999977
        },
        {
          "name": "D4",
          "midi": 62,
          "time": 5.853648,
          "velocity": 1,
          "duration": 0.18292649999999977
        },
        {
          "name": "G4",
          "midi": 67,
          "time": 6.0365744999999995,
          "velocity": 1,
          "duration": 0.18292649999999977
        },
        {
          "name": "B4",
          "midi": 71,
          "time": 6.219500999999999,
          "velocity": 1,
          "duration": 0.18292649999999977
        },
        {
          "name": "E4",
          "midi": 64,
          "time": 6.402427499999999,
          "velocity": 1,
          "duration": 0.36585300000000043
        },
        {
          "name": "A4",
          "midi": 69,
          "time": 6.7682804999999995,
          "velocity": 1,
          "duration": 0.18292649999999977
        },
        {
          "name": "C#5",
          "midi": 73,
          "time": 6.951206999999999,
          "velocity": 1,
          "duration": 0.18292649999999977
        },
        {
          "name": "G4",
          "midi": 67,
          "time": 7.317059999999999,
          "velocity": 1,
          "duration": 0.18292649999999977
        },
        {
          "name": "B4",
          "midi": 71,
          "time": 7.499986499999999,
          "velocity": 1,
          "duration": 0.18292649999999977
        },
        {
          "name": "D5",
          "midi": 74,
          "time": 7.682912999999998,
          "velocity": 1,
          "duration": 0.18292649999999977
        },
        {
          "name": "A4",
          "midi": 69,
          "time": 7.865839499999998,
          "velocity": 1,
          "duration": 0.36585299999999954
        },
        {
          "name": "C#5",
          "midi": 73,
          "time": 8.231692499999998,
          "velocity": 1,
          "duration": 0.18292650000000066
        },
        {
          "name": "E5",
          "midi": 76,
          "time": 8.414618999999998,
          "velocity": 1,
          "duration": 0.18292650000000066
        },
        {
          "name": "A5",
          "midi": 81,
          "time": 8.597545499999999,
          "velocity": 1,
          "duration": 0.18292650000000066
        },
        {
          "name": "F#4",
          "midi": 66,
          "time": 11.341443,
          "velocity": 1,
          "duration": 0.18292650000000066
        },
        {
          "name": "A4",
          "midi": 69,
          "time": 11.5243695,
          "velocity": 1,
          "duration": 0.18292650000000066
        },
        {
          "name": "B4",
          "midi": 71,
          "time": 11.707296000000001,
          "velocity": 1,
          "duration": 0.9146324999999997
        },
        {
          "name": "D5",
          "midi": 74,
          "time": 12.621928500000001,
          "velocity": 1,
          "duration": 0.18292650000000066
        },
        {
          "name": "C#5",
          "midi": 73,
          "time": 12.804855000000002,
          "velocity": 1,
          "duration": 0.2743897499999992
        },
        {
          "name": "B4",
          "midi": 71,
          "time": 13.07924475,
          "velocity": 1,
          "duration": 0.09146325000000033
        },
        {
          "name": "C#5",
          "midi": 73,
          "time": 13.170708000000001,
          "velocity": 1,
          "duration": 0.9146324999999997
        },
        {
          "name": "E5",
          "midi": 76,
          "time": 14.085340500000001,
          "velocity": 1,
          "duration": 0.18292650000000066
        },
        {
          "name": "D5",
          "midi": 74,
          "time": 14.268267000000002,
          "velocity": 1,
          "duration": 0.2743897499999992
        },
        {
          "name": "C#5",
          "midi": 73,
          "time": 14.54265675,
          "velocity": 1,
          "duration": 0.09146325000000033
        },
        {
          "name": "D5",
          "midi": 74,
          "time": 14.634120000000001,
          "velocity": 1,
          "duration": 0.9146324999999997
        },
        {
          "name": "F#5",
          "midi": 78,
          "time": 15.5487525,
          "velocity": 1,
          "duration": 0.18292650000000066
        },
        {
          "name": "E5",
          "midi": 76,
          "time": 15.731679000000002,
          "velocity": 1,
          "duration": 0.18292650000000066
        },
        {
          "name": "D5",
          "midi": 74,
          "time": 15.914605500000002,
          "velocity": 1,
          "duration": 0.18292649999999888
        },
        {
          "name": "E5",
          "midi": 76,
          "time": 16.097532,
          "velocity": 1,
          "duration": 0.3658530000000013
        },
        {
          "name": "B4",
          "midi": 71,
          "time": 16.463385000000002,
          "velocity": 1,
          "duration": 0.18292650000000066
        },
        {
          "name": "E5",
          "midi": 76,
          "time": 16.646311500000003,
          "velocity": 1,
          "duration": 0.5487794999999984
        },
        {
          "name": "E5",
          "midi": 76,
          "time": 17.195091,
          "velocity": 1,
          "duration": 0.18292650000000066
        },
        {
          "name": "F#5",
          "midi": 78,
          "time": 17.378017500000002,
          "velocity": 1,
          "duration": 0.18292650000000066
        },
        {
          "name": "G5",
          "midi": 79,
          "time": 17.560944000000003,
          "velocity": 1,
          "duration": 0.9146324999999997
        },
        {
          "name": "D5",
          "midi": 74,
          "time": 18.475576500000003,
          "velocity": 1,
          "duration": 0.18292650000000066
        },
        {
          "name": "D5",
          "midi": 74,
          "time": 18.658503000000003,
          "velocity": 1,
          "duration": 0.18292650000000066
        },
        {
          "name": "G5",
          "midi": 79,
          "time": 18.841429500000004,
          "velocity": 1,
          "duration": 0.18292650000000066
        },
        {
          "name": "F#5",
          "midi": 78,
          "time": 19.024356000000004,
          "velocity": 1,
          "duration": 0.9146324999999997
        },
        {
          "name": "D5",
          "midi": 74,
          "time": 19.938988500000004,
          "velocity": 1,
          "duration": 0.18292650000000066
        },
        {
          "name": "D5",
          "midi": 74,
          "time": 20.121915000000005,
          "velocity": 1,
          "duration": 0.18292650000000066
        },
        {
          "name": "F#5",
          "midi": 78,
          "time": 20.304841500000006,
          "velocity": 1,
          "duration": 0.18292650000000066
        },
        {
          "name": "E5",
          "midi": 76,
          "time": 20.487768000000006,
          "velocity": 1,
          "duration": 1.4634120000000017
        },
        {
          "name": "F#4",
          "midi": 66,
          "time": 23.04873900000001,
          "velocity": 1,
          "duration": 0.18292650000000066
        },
        {
          "name": "A4",
          "midi": 69,
          "time": 23.23166550000001,
          "velocity": 1,
          "duration": 0.18292650000000066
        },
        {
          "name": "B4",
          "midi": 71,
          "time": 23.41459200000001,
          "velocity": 1,
          "duration": 0.9146324999999997
        },
        {
          "name": "D5",
          "midi": 74,
          "time": 24.32922450000001,
          "velocity": 1,
          "duration": 0.18292650000000066
        },
        {
          "name": "C#5",
          "midi": 73,
          "time": 24.51215100000001,
          "velocity": 1,
          "duration": 0.274389750000001
        },
        {
          "name": "B4",
          "midi": 71,
          "time": 24.78654075000001,
          "velocity": 1,
          "duration": 0.09146325000000033
        },
        {
          "name": "C#5",
          "midi": 73,
          "time": 24.87800400000001,
          "velocity": 1,
          "duration": 0.9146324999999997
        },
        {
          "name": "E5",
          "midi": 76,
          "time": 25.79263650000001,
          "velocity": 1,
          "duration": 0.18292650000000066
        },
        {
          "name": "D5",
          "midi": 74,
          "time": 25.97556300000001,
          "velocity": 1,
          "duration": 0.274389750000001
        },
        {
          "name": "C#5",
          "midi": 73,
          "time": 26.249952750000013,
          "velocity": 1,
          "duration": 0.09146325000000033
        },
        {
          "name": "D5",
          "midi": 74,
          "time": 26.341416000000013,
          "velocity": 1,
          "duration": 0.9146324999999997
        },
        {
          "name": "F#5",
          "midi": 78,
          "time": 27.256048500000013,
          "velocity": 1,
          "duration": 0.18292650000000066
        },
        {
          "name": "E5",
          "midi": 76,
          "time": 27.438975000000013,
          "velocity": 1,
          "duration": 0.18292650000000066
        },
        {
          "name": "D5",
          "midi": 74,
          "time": 27.621901500000014,
          "velocity": 1,
          "duration": 0.18292650000000066
        },
        {
          "name": "E5",
          "midi": 76,
          "time": 27.804828000000015,
          "velocity": 1,
          "duration": 0.3658530000000013
        },
        {
          "name": "B4",
          "midi": 71,
          "time": 28.170681000000016,
          "velocity": 1,
          "duration": 0.18292650000000066
        },
        {
          "name": "E5",
          "midi": 76,
          "time": 28.353607500000017,
          "velocity": 1,
          "duration": 0.5487794999999984
        },
        {
          "name": "E5",
          "midi": 76,
          "time": 28.902387000000015,
          "velocity": 1,
          "duration": 0.18292650000000066
        },
        {
          "name": "F#5",
          "midi": 78,
          "time": 29.085313500000016,
          "velocity": 1,
          "duration": 0.18292650000000066
        },
        {
          "name": "G5",
          "midi": 79,
          "time": 29.268240000000016,
          "velocity": 1,
          "duration": 0.9146324999999997
        },
        {
          "name": "D5",
          "midi": 74,
          "time": 30.182872500000016,
          "velocity": 1,
          "duration": 0.18292650000000066
        },
        {
          "name": "D5",
          "midi": 74,
          "time": 30.365799000000017,
          "velocity": 1,
          "duration": 0.18292650000000066
        },
        {
          "name": "G5",
          "midi": 79,
          "time": 30.548725500000018,
          "velocity": 1,
          "duration": 0.18292650000000066
        },
        {
          "name": "F#5",
          "midi": 78,
          "time": 30.731652000000018,
          "velocity": 1,
          "duration": 0.9146324999999997
        },
        {
          "name": "D5",
          "midi": 74,
          "time": 31.646284500000018,
          "velocity": 1,
          "duration": 0.18292650000000066
        },
        {
          "name": "D5",
          "midi": 74,
          "time": 31.82921100000002,
          "velocity": 1,
          "duration": 0.1829264999999971
        },
        {
          "name": "F#5",
          "midi": 78,
          "time": 32.012137500000016,
          "velocity": 1,
          "duration": 0.18292650000000066
        },
        {
          "name": "E5",
          "midi": 76,
          "time": 32.195064000000016,
          "velocity": 1,
          "duration": 0.9146325000000033
        },
        {
          "name": "E5",
          "midi": 76,
          "time": 33.10969650000002,
          "velocity": 1,
          "duration": 0.18292650000000066
        },
        {
          "name": "G5",
          "midi": 79,
          "time": 33.29262300000002,
          "velocity": 1,
          "duration": 0.18292650000000066
        },
        {
          "name": "A5",
          "midi": 81,
          "time": 33.47554950000002,
          "velocity": 1,
          "duration": 1.4634119999999982
        },
        {
          "name": "B4",
          "midi": 71,
          "time": 35.12188800000002,
          "velocity": 1,
          "duration": 0.548779500000002
        },
        {
          "name": "C#5",
          "midi": 73,
          "time": 35.67066750000002,
          "velocity": 1,
          "duration": 0.548779500000002
        },
        {
          "name": "E5",
          "midi": 76,
          "time": 36.219447000000024,
          "velocity": 1,
          "duration": 0.18292650000000066
        },
        {
          "name": "D5",
          "midi": 74,
          "time": 36.402373500000024,
          "velocity": 1,
          "duration": 1.6463384999999988
        },
        {
          "name": "B4",
          "midi": 71,
          "time": 38.04871200000002,
          "velocity": 1,
          "duration": 0.548779500000002
        },
        {
          "name": "C#5",
          "midi": 73,
          "time": 38.597491500000025,
          "velocity": 1,
          "duration": 0.548779500000002
        },
        {
          "name": "A4",
          "midi": 69,
          "time": 39.14627100000003,
          "velocity": 1,
          "duration": 0.18292650000000066
        },
        {
          "name": "D5",
          "midi": 74,
          "time": 39.32919750000003,
          "velocity": 1,
          "duration": 1.2804854999999975
        },
        {
          "name": "B4",
          "midi": 71,
          "time": 40.97553600000003,
          "velocity": 1,
          "duration": 0.548779500000002
        },
        {
          "name": "C#5",
          "midi": 73,
          "time": 41.52431550000003,
          "velocity": 1,
          "duration": 0.548779500000002
        },
        {
          "name": "E5",
          "midi": 76,
          "time": 42.07309500000003,
          "velocity": 1,
          "duration": 0.18292650000000066
        },
        {
          "name": "D5",
          "midi": 74,
          "time": 42.25602150000003,
          "velocity": 1,
          "duration": 1.0975589999999968
        },
        {
          "name": "B4",
          "midi": 71,
          "time": 43.35358050000003,
          "velocity": 1,
          "duration": 0.18292650000000066
        },
        {
          "name": "D5",
          "midi": 74,
          "time": 43.53650700000003,
          "velocity": 1,
          "duration": 0.18292650000000066
        },
        {
          "name": "E5",
          "midi": 76,
          "time": 43.71943350000003,
          "velocity": 1,
          "duration": 3.109750499999997
        },
        {
          "name": "D4",
          "midi": 62,
          "time": 46.829184000000026,
          "velocity": 1,
          "duration": 0.18292650000000066
        },
        {
          "name": "G4",
          "midi": 67,
          "time": 47.01211050000003,
          "velocity": 1,
          "duration": 0.18292650000000066
        },
        {
          "name": "B4",
          "midi": 71,
          "time": 47.19503700000003,
          "velocity": 1,
          "duration": 0.18292650000000066
        },
        {
          "name": "E4",
          "midi": 64,
          "time": 47.37796350000003,
          "velocity": 1,
          "duration": 0.3658530000000013
        },
        {
          "name": "A4",
          "midi": 69,
          "time": 47.74381650000003,
          "velocity": 1,
          "duration": 0.18292650000000066
        },
        {
          "name": "C#5",
          "midi": 73,
          "time": 47.92674300000003,
          "velocity": 1,
          "duration": 0.18292650000000066
        },
        {
          "name": "G4",
          "midi": 67,
          "time": 48.29259600000003,
          "velocity": 1,
          "duration": 0.18292650000000066
        },
        {
          "name": "B4",
          "midi": 71,
          "time": 48.47552250000003,
          "velocity": 1,
          "duration": 0.18292650000000066
        },
        {
          "name": "D5",
          "midi": 74,
          "time": 48.65844900000003,
          "velocity": 1,
          "duration": 0.18292650000000066
        },
        {
          "name": "A4",
          "midi": 69,
          "time": 48.841375500000034,
          "velocity": 1,
          "duration": 0.3658530000000013
        },
        {
          "name": "C#5",
          "midi": 73,
          "time": 49.207228500000035,
          "velocity": 1,
          "duration": 0.18292650000000066
        },
        {
          "name": "E5",
          "midi": 76,
          "time": 49.390155000000036,
          "velocity": 1,
          "duration": 0.18292650000000066
        },
        {
          "name": "D4",
          "midi": 62,
          "time": 49.75600800000004,
          "velocity": 1,
          "duration": 0.18292650000000066
        },
        {
          "name": "G4",
          "midi": 67,
          "time": 49.93893450000004,
          "velocity": 1,
          "duration": 0.18292650000000066
        },
        {
          "name": "B4",
          "midi": 71,
          "time": 50.12186100000004,
          "velocity": 1,
          "duration": 0.18292650000000066
        },
        {
          "name": "E4",
          "midi": 64,
          "time": 50.30478750000004,
          "velocity": 1,
          "duration": 0.3658530000000013
        },
        {
          "name": "A4",
          "midi": 69,
          "time": 50.67064050000004,
          "velocity": 1,
          "duration": 0.18292650000000066
        },
        {
          "name": "C#5",
          "midi": 73,
          "time": 50.85356700000004,
          "velocity": 1,
          "duration": 0.18292650000000066
        },
        {
          "name": "G4",
          "midi": 67,
          "time": 51.21942000000004,
          "velocity": 1,
          "duration": 0.18292650000000066
        },
        {
          "name": "B4",
          "midi": 71,
          "time": 51.40234650000004,
          "velocity": 1,
          "duration": 0.18292650000000066
        },
        {
          "name": "D5",
          "midi": 74,
          "time": 51.58527300000004,
          "velocity": 1,
          "duration": 0.18292650000000066
        },
        {
          "name": "A4",
          "midi": 69,
          "time": 51.768199500000044,
          "velocity": 1,
          "duration": 0.3658530000000013
        },
        {
          "name": "C#5",
          "midi": 73,
          "time": 52.134052500000045,
          "velocity": 1,
          "duration": 0.18292650000000066
        },
        {
          "name": "E5",
          "midi": 76,
          "time": 52.316979000000046,
          "velocity": 1,
          "duration": 0.18292650000000066
        },
        {
          "name": "A5",
          "midi": 81,
          "time": 52.49990550000005,
          "velocity": 1,
          "duration": 0.18292650000000066
        },
        {
          "name": "D4",
          "midi": 62,
          "time": 52.68283200000005,
          "velocity": 1,
          "duration": 0.18292650000000066
        },
        {
          "name": "G4",
          "midi": 67,
          "time": 52.86575850000005,
          "velocity": 1,
          "duration": 0.18292650000000066
        },
        {
          "name": "B4",
          "midi": 71,
          "time": 53.04868500000005,
          "velocity": 1,
          "duration": 0.18292650000000066
        },
        {
          "name": "E4",
          "midi": 64,
          "time": 53.23161150000005,
          "velocity": 1,
          "duration": 0.3658530000000013
        },
        {
          "name": "A4",
          "midi": 69,
          "time": 53.59746450000005,
          "velocity": 1,
          "duration": 0.18292650000000066
        },
        {
          "name": "C#5",
          "midi": 73,
          "time": 53.78039100000005,
          "velocity": 1,
          "duration": 0.18292650000000066
        },
        {
          "name": "G4",
          "midi": 67,
          "time": 54.14624400000005,
          "velocity": 1,
          "duration": 0.18292650000000066
        },
        {
          "name": "B4",
          "midi": 71,
          "time": 54.32917050000005,
          "velocity": 1,
          "duration": 0.18292650000000066
        },
        {
          "name": "D5",
          "midi": 74,
          "time": 54.512097000000054,
          "velocity": 1,
          "duration": 0.18292650000000066
        },
        {
          "name": "A4",
          "midi": 69,
          "time": 54.695023500000055,
          "velocity": 1,
          "duration": 0.3658530000000013
        },
        {
          "name": "C#5",
          "midi": 73,
          "time": 55.060876500000056,
          "velocity": 1,
          "duration": 0.18292650000000066
        },
        {
          "name": "E5",
          "midi": 76,
          "time": 55.24380300000006,
          "velocity": 1,
          "duration": 0.18292650000000066
        },
        {
          "name": "A5",
          "midi": 81,
          "time": 55.42672950000006,
          "velocity": 1,
          "duration": 0.18292650000000066
        },
        {
          "name": "F#4",
          "midi": 66,
          "time": 58.17062700000006,
          "velocity": 1,
          "duration": 0.18292650000000066
        },
        {
          "name": "A4",
          "midi": 69,
          "time": 58.35355350000006,
          "velocity": 1,
          "duration": 0.18292650000000066
        },
        {
          "name": "B4",
          "midi": 71,
          "time": 58.53648000000006,
          "velocity": 1,
          "duration": 0.9146325000000033
        },
        {
          "name": "D5",
          "midi": 74,
          "time": 59.451112500000065,
          "velocity": 1,
          "duration": 0.18292650000000066
        },
        {
          "name": "C#5",
          "midi": 73,
          "time": 59.634039000000065,
          "velocity": 1,
          "duration": 0.27438974999999743
        },
        {
          "name": "B4",
          "midi": 71,
          "time": 59.90842875000006,
          "velocity": 1,
          "duration": 0.09146324999999678
        },
        {
          "name": "C#5",
          "midi": 73,
          "time": 59.99989200000006,
          "velocity": 1,
          "duration": 0.9146325000000033
        },
        {
          "name": "E5",
          "midi": 76,
          "time": 60.91452450000006,
          "velocity": 1,
          "duration": 0.18292650000000066
        },
        {
          "name": "D5",
          "midi": 74,
          "time": 61.09745100000006,
          "velocity": 1,
          "duration": 0.27438974999999743
        },
        {
          "name": "C#5",
          "midi": 73,
          "time": 61.37184075000006,
          "velocity": 1,
          "duration": 0.09146324999999678
        },
        {
          "name": "D5",
          "midi": 74,
          "time": 61.46330400000006,
          "velocity": 1,
          "duration": 0.9146325000000033
        },
        {
          "name": "F#5",
          "midi": 78,
          "time": 62.37793650000006,
          "velocity": 1,
          "duration": 0.18292650000000066
        },
        {
          "name": "E5",
          "midi": 76,
          "time": 62.56086300000006,
          "velocity": 1,
          "duration": 0.18292650000000066
        },
        {
          "name": "D5",
          "midi": 74,
          "time": 62.74378950000006,
          "velocity": 1,
          "duration": 0.18292650000000066
        },
        {
          "name": "E5",
          "midi": 76,
          "time": 62.92671600000006,
          "velocity": 1,
          "duration": 0.3658530000000013
        },
        {
          "name": "B4",
          "midi": 71,
          "time": 63.292569000000064,
          "velocity": 1,
          "duration": 0.18292650000000066
        },
        {
          "name": "E5",
          "midi": 76,
          "time": 63.475495500000065,
          "velocity": 1,
          "duration": 0.5487794999999949
        },
        {
          "name": "E5",
          "midi": 76,
          "time": 64.02427500000006,
          "velocity": 1,
          "duration": 0.18292649999999355
        },
        {
          "name": "F#5",
          "midi": 78,
          "time": 64.20720150000005,
          "velocity": 1,
          "duration": 0.18292649999999355
        },
        {
          "name": "G5",
          "midi": 79,
          "time": 64.39012800000005,
          "velocity": 1,
          "duration": 0.9146324999999962
        },
        {
          "name": "D5",
          "midi": 74,
          "time": 65.30476050000004,
          "velocity": 1,
          "duration": 0.18292649999999355
        },
        {
          "name": "D5",
          "midi": 74,
          "time": 65.48768700000004,
          "velocity": 1,
          "duration": 0.18292649999999355
        },
        {
          "name": "G5",
          "midi": 79,
          "time": 65.67061350000003,
          "velocity": 1,
          "duration": 0.18292649999999355
        },
        {
          "name": "F#5",
          "midi": 78,
          "time": 65.85354000000002,
          "velocity": 1,
          "duration": 0.9146324999999962
        },
        {
          "name": "D5",
          "midi": 74,
          "time": 66.76817250000002,
          "velocity": 1,
          "duration": 0.18292649999999355
        },
        {
          "name": "D5",
          "midi": 74,
          "time": 66.95109900000001,
          "velocity": 1,
          "duration": 0.18292649999999355
        },
        {
          "name": "F#5",
          "midi": 78,
          "time": 67.1340255,
          "velocity": 1,
          "duration": 0.18292649999999355
        },
        {
          "name": "E5",
          "midi": 76,
          "time": 67.316952,
          "velocity": 1,
          "duration": 1.4634120000000053
        },
        {
          "name": "F#4",
          "midi": 66,
          "time": 69.87792300000001,
          "velocity": 1,
          "duration": 0.18292649999999355
        },
        {
          "name": "A4",
          "midi": 69,
          "time": 70.0608495,
          "velocity": 1,
          "duration": 0.18292649999999355
        },
        {
          "name": "B4",
          "midi": 71,
          "time": 70.243776,
          "velocity": 1,
          "duration": 0.9146324999999962
        },
        {
          "name": "D5",
          "midi": 74,
          "time": 71.1584085,
          "velocity": 1,
          "duration": 0.18292649999999355
        },
        {
          "name": "C#5",
          "midi": 73,
          "time": 71.34133499999999,
          "velocity": 1,
          "duration": 0.27438974999999743
        },
        {
          "name": "B4",
          "midi": 71,
          "time": 71.61572474999998,
          "velocity": 1,
          "duration": 0.09146325000000388
        },
        {
          "name": "C#5",
          "midi": 73,
          "time": 71.70718799999999,
          "velocity": 1,
          "duration": 0.9146324999999962
        },
        {
          "name": "E5",
          "midi": 76,
          "time": 72.62182049999998,
          "velocity": 1,
          "duration": 0.18292649999999355
        },
        {
          "name": "D5",
          "midi": 74,
          "time": 72.80474699999998,
          "velocity": 1,
          "duration": 0.27438974999999743
        },
        {
          "name": "C#5",
          "midi": 73,
          "time": 73.07913674999998,
          "velocity": 1,
          "duration": 0.09146325000000388
        },
        {
          "name": "D5",
          "midi": 74,
          "time": 73.17059999999998,
          "velocity": 1,
          "duration": 0.9146324999999962
        },
        {
          "name": "F#5",
          "midi": 78,
          "time": 74.08523249999998,
          "velocity": 1,
          "duration": 0.18292649999999355
        },
        {
          "name": "E5",
          "midi": 76,
          "time": 74.26815899999997,
          "velocity": 1,
          "duration": 0.18292649999999355
        },
        {
          "name": "D5",
          "midi": 74,
          "time": 74.45108549999996,
          "velocity": 1,
          "duration": 0.18292649999999355
        },
        {
          "name": "E5",
          "midi": 76,
          "time": 74.63401199999996,
          "velocity": 1,
          "duration": 0.3658530000000013
        },
        {
          "name": "B4",
          "midi": 71,
          "time": 74.99986499999996,
          "velocity": 1,
          "duration": 0.18292649999999355
        },
        {
          "name": "E5",
          "midi": 76,
          "time": 75.18279149999995,
          "velocity": 1,
          "duration": 0.5487794999999949
        },
        {
          "name": "E5",
          "midi": 76,
          "time": 75.73157099999995,
          "velocity": 1,
          "duration": 0.18292649999999355
        },
        {
          "name": "F#5",
          "midi": 78,
          "time": 75.91449749999994,
          "velocity": 1,
          "duration": 0.18292649999999355
        },
        {
          "name": "G5",
          "midi": 79,
          "time": 76.09742399999993,
          "velocity": 1,
          "duration": 0.9146324999999962
        },
        {
          "name": "D5",
          "midi": 74,
          "time": 77.01205649999993,
          "velocity": 1,
          "duration": 0.18292649999999355
        },
        {
          "name": "D5",
          "midi": 74,
          "time": 77.19498299999992,
          "velocity": 1,
          "duration": 0.18292649999999355
        },
        {
          "name": "G5",
          "midi": 79,
          "time": 77.37790949999992,
          "velocity": 1,
          "duration": 0.18292649999999355
        },
        {
          "name": "F#5",
          "midi": 78,
          "time": 77.56083599999991,
          "velocity": 1,
          "duration": 0.9146324999999962
        },
        {
          "name": "D5",
          "midi": 74,
          "time": 78.4754684999999,
          "velocity": 1,
          "duration": 0.18292649999999355
        },
        {
          "name": "D5",
          "midi": 74,
          "time": 78.6583949999999,
          "velocity": 1,
          "duration": 0.18292649999999355
        },
        {
          "name": "F#5",
          "midi": 78,
          "time": 78.84132149999989,
          "velocity": 1,
          "duration": 0.18292649999999355
        },
        {
          "name": "E5",
          "midi": 76,
          "time": 79.02424799999989,
          "velocity": 1,
          "duration": 0.9146324999999962
        },
        {
          "name": "E5",
          "midi": 76,
          "time": 79.93888049999988,
          "velocity": 1,
          "duration": 0.18292649999999355
        },
        {
          "name": "G5",
          "midi": 79,
          "time": 80.12180699999988,
          "velocity": 1,
          "duration": 0.18292649999999355
        },
        {
          "name": "A5",
          "midi": 81,
          "time": 80.30473349999987,
          "velocity": 1,
          "duration": 1.4634120000000053
        },
        {
          "name": "B4",
          "midi": 71,
          "time": 81.95107199999987,
          "velocity": 1,
          "duration": 0.5487794999999949
        },
        {
          "name": "C#5",
          "midi": 73,
          "time": 82.49985149999986,
          "velocity": 1,
          "duration": 0.5487794999999949
        },
        {
          "name": "E5",
          "midi": 76,
          "time": 83.04863099999986,
          "velocity": 1,
          "duration": 0.18292649999999355
        },
        {
          "name": "D5",
          "midi": 74,
          "time": 83.23155749999985,
          "velocity": 1,
          "duration": 1.6463384999999988
        },
        {
          "name": "B4",
          "midi": 71,
          "time": 84.87789599999985,
          "velocity": 1,
          "duration": 0.5487794999999949
        },
        {
          "name": "C#5",
          "midi": 73,
          "time": 85.42667549999985,
          "velocity": 1,
          "duration": 0.5487794999999949
        },
        {
          "name": "A4",
          "midi": 69,
          "time": 85.97545499999984,
          "velocity": 1,
          "duration": 0.18292649999999355
        },
        {
          "name": "D5",
          "midi": 74,
          "time": 86.15838149999983,
          "velocity": 1,
          "duration": 1.2804854999999975
        },
        {
          "name": "B4",
          "midi": 71,
          "time": 87.80471999999983,
          "velocity": 1,
          "duration": 0.5487794999999949
        },
        {
          "name": "C#5",
          "midi": 73,
          "time": 88.35349949999983,
          "velocity": 1,
          "duration": 0.5487794999999949
        },
        {
          "name": "E5",
          "midi": 76,
          "time": 88.90227899999982,
          "velocity": 1,
          "duration": 0.18292649999999355
        },
        {
          "name": "D5",
          "midi": 74,
          "time": 89.08520549999982,
          "velocity": 1,
          "duration": 1.097559000000004
        },
        {
          "name": "B4",
          "midi": 71,
          "time": 90.18276449999982,
          "velocity": 1,
          "duration": 0.18292649999999355
        },
        {
          "name": "D5",
          "midi": 74,
          "time": 90.36569099999981,
          "velocity": 1,
          "duration": 0.18292649999999355
        },
        {
          "name": "E5",
          "midi": 76,
          "time": 90.5486174999998,
          "velocity": 1,
          "duration": 3.109750500000004
        },
        {
          "name": "B4",
          "midi": 71,
          "time": 93.65836799999981,
          "velocity": 1,
          "duration": 0.5487794999999949
        },
        {
          "name": "C#5",
          "midi": 73,
          "time": 94.2071474999998,
          "velocity": 1,
          "duration": 0.5487794999999949
        },
        {
          "name": "E5",
          "midi": 76,
          "time": 94.7559269999998,
          "velocity": 1,
          "duration": 0.18292649999999355
        },
        {
          "name": "D5",
          "midi": 74,
          "time": 94.9388534999998,
          "velocity": 1,
          "duration": 1.6463384999999988
        },
        {
          "name": "B4",
          "midi": 71,
          "time": 96.5851919999998,
          "velocity": 1,
          "duration": 0.5487794999999949
        },
        {
          "name": "C#5",
          "midi": 73,
          "time": 97.13397149999979,
          "velocity": 1,
          "duration": 0.5487794999999949
        },
        {
          "name": "A4",
          "midi": 69,
          "time": 97.68275099999978,
          "velocity": 1,
          "duration": 0.18292649999999355
        },
        {
          "name": "D5",
          "midi": 74,
          "time": 97.86567749999978,
          "velocity": 1,
          "duration": 1.2804854999999975
        },
        {
          "name": "B4",
          "midi": 71,
          "time": 99.51201599999978,
          "velocity": 1,
          "duration": 0.5487794999999949
        },
        {
          "name": "C#5",
          "midi": 73,
          "time": 100.06079549999977,
          "velocity": 1,
          "duration": 0.5487794999999949
        },
        {
          "name": "E5",
          "midi": 76,
          "time": 100.60957499999977,
          "velocity": 1,
          "duration": 0.18292649999999355
        },
        {
          "name": "D5",
          "midi": 74,
          "time": 100.79250149999976,
          "velocity": 1,
          "duration": 1.0975589999999897
        },
        {
          "name": "B4",
          "midi": 71,
          "time": 101.89006049999975,
          "velocity": 1,
          "duration": 0.18292649999999355
        },
        {
          "name": "D5",
          "midi": 74,
          "time": 102.07298699999974,
          "velocity": 1,
          "duration": 0.18292649999999355
        },
        {
          "name": "E5",
          "midi": 76,
          "time": 102.25591349999974,
          "velocity": 1,
          "duration": 3.109750500000004
        },
        {
          "name": "B4",
          "midi": 71,
          "time": 105.36566399999974,
          "velocity": 1,
          "duration": 0.5487794999999949
        },
        {
          "name": "C#5",
          "midi": 73,
          "time": 105.91444349999973,
          "velocity": 1,
          "duration": 0.5487794999999949
        },
        {
          "name": "E5",
          "midi": 76,
          "time": 106.46322299999973,
          "velocity": 1,
          "duration": 0.18292649999999355
        },
        {
          "name": "D5",
          "midi": 74,
          "time": 106.64614949999972,
          "velocity": 1,
          "duration": 1.6463384999999988
        },
        {
          "name": "B4",
          "midi": 71,
          "time": 108.29248799999972,
          "velocity": 1,
          "duration": 0.5487794999999949
        },
        {
          "name": "C#5",
          "midi": 73,
          "time": 108.84126749999972,
          "velocity": 1,
          "duration": 0.5487794999999949
        },
        {
          "name": "A4",
          "midi": 69,
          "time": 109.39004699999971,
          "velocity": 1,
          "duration": 0.18292649999999355
        },
        {
          "name": "D5",
          "midi": 74,
          "time": 109.5729734999997,
          "velocity": 1,
          "duration": 1.2804854999999975
        }
      ];