export let bass1 =  [
  {
    "name": "D#2",
    "midi": 39,
    "time": 0,
    "velocity": 1,
    "duration": 0.23076899999999997
  },
  {
    "name": "E2",
    "midi": 40,
    "time": 0.46153799999999995,
    "velocity": 1,
    "duration": 0.23076899999999995
  },
  {
    "name": "D#2",
    "midi": 39,
    "time": 0.9230759999999999,
    "velocity": 1,
    "duration": 0.2307689999999999
  },
  {
    "name": "E2",
    "midi": 40,
    "time": 1.3846139999999998,
    "velocity": 1,
    "duration": 0.230769
  },
  {
    "name": "D#2",
    "midi": 39,
    "time": 1.8461519999999998,
    "velocity": 1,
    "duration": 0.23076899999999978
  },
  {
    "name": "E2",
    "midi": 40,
    "time": 2.3076899999999996,
    "velocity": 1,
    "duration": 0.230769
  },
  {
    "name": "D#2",
    "midi": 39,
    "time": 2.7692279999999996,
    "velocity": 1,
    "duration": 0.230769
  },
  {
    "name": "E2",
    "midi": 40,
    "time": 3.2307659999999996,
    "velocity": 1,
    "duration": 0.230769
  },
  {
    "name": "D#2",
    "midi": 39,
    "time": 3.6923039999999996,
    "velocity": 1,
    "duration": 0.230769
  },
  {
    "name": "E2",
    "midi": 40,
    "time": 4.153841999999999,
    "velocity": 1,
    "duration": 0.23076899999999956
  },
  {
    "name": "D#2",
    "midi": 39,
    "time": 4.615379999999998,
    "velocity": 1,
    "duration": 0.23076899999999956
  },
  {
    "name": "E2",
    "midi": 40,
    "time": 5.076917999999997,
    "velocity": 1,
    "duration": 0.23076899999999956
  },
  {
    "name": "D#2",
    "midi": 39,
    "time": 5.5384559999999965,
    "velocity": 1,
    "duration": 0.23076899999999956
  },
  {
    "name": "E2",
    "midi": 40,
    "time": 5.999993999999996,
    "velocity": 1,
    "duration": 0.23076899999999956
  },
  {
    "name": "D#2",
    "midi": 39,
    "time": 6.461531999999995,
    "velocity": 1,
    "duration": 0.23076899999999956
  },
  {
    "name": "E2",
    "midi": 40,
    "time": 6.923069999999994,
    "velocity": 1,
    "duration": 0.23076899999999956
  },
  {
    "name": "D#2",
    "midi": 39,
    "time": 7.384607999999993,
    "velocity": 1,
    "duration": 0.23076899999999956
  },
  {
    "name": "E2",
    "midi": 40,
    "time": 7.846145999999992,
    "velocity": 1,
    "duration": 0.23076900000000045
  },
  {
    "name": "D#2",
    "midi": 39,
    "time": 8.307683999999993,
    "velocity": 1,
    "duration": 0.23076900000000045
  },
  {
    "name": "E2",
    "midi": 40,
    "time": 8.769221999999994,
    "velocity": 1,
    "duration": 0.23076900000000045
  },
  {
    "name": "D#2",
    "midi": 39,
    "time": 9.230759999999995,
    "velocity": 1,
    "duration": 0.23076900000000045
  },
  {
    "name": "E2",
    "midi": 40,
    "time": 9.692297999999996,
    "velocity": 1,
    "duration": 0.23076900000000045
  },
  {
    "name": "D#2",
    "midi": 39,
    "time": 10.153835999999997,
    "velocity": 1,
    "duration": 0.23076900000000045
  },
  {
    "name": "E2",
    "midi": 40,
    "time": 10.615373999999997,
    "velocity": 1,
    "duration": 0.23076900000000045
  },
  {
    "name": "C2",
    "midi": 36,
    "time": 11.076911999999998,
    "velocity": 1,
    "duration": 0.11538449999999933
  },
  {
    "name": "C3",
    "midi": 48,
    "time": 11.192296499999998,
    "velocity": 1,
    "duration": 0.11538449999999933
  },
  {
    "name": "C2",
    "midi": 36,
    "time": 11.307680999999997,
    "velocity": 1,
    "duration": 0.11538449999999933
  },
  {
    "name": "C3",
    "midi": 48,
    "time": 11.423065499999996,
    "velocity": 1,
    "duration": 0.11538449999999933
  },
  {
    "name": "C2",
    "midi": 36,
    "time": 11.538449999999996,
    "velocity": 1,
    "duration": 0.11538449999999933
  },
  {
    "name": "C3",
    "midi": 48,
    "time": 11.653834499999995,
    "velocity": 1,
    "duration": 0.11538449999999933
  },
  {
    "name": "C2",
    "midi": 36,
    "time": 11.769218999999994,
    "velocity": 1,
    "duration": 0.11538449999999933
  },
  {
    "name": "C3",
    "midi": 48,
    "time": 11.884603499999994,
    "velocity": 1,
    "duration": 0.11538449999999933
  },
  {
    "name": "C2",
    "midi": 36,
    "time": 11.999987999999993,
    "velocity": 1,
    "duration": 0.11538449999999933
  },
  {
    "name": "C3",
    "midi": 48,
    "time": 12.115372499999992,
    "velocity": 1,
    "duration": 0.11538449999999933
  },
  {
    "name": "C2",
    "midi": 36,
    "time": 12.230756999999992,
    "velocity": 1,
    "duration": 0.11538449999999933
  },
  {
    "name": "C3",
    "midi": 48,
    "time": 12.346141499999991,
    "velocity": 1,
    "duration": 0.11538449999999933
  },
  {
    "name": "C2",
    "midi": 36,
    "time": 12.46152599999999,
    "velocity": 1,
    "duration": 0.11538449999999933
  },
  {
    "name": "C3",
    "midi": 48,
    "time": 12.57691049999999,
    "velocity": 1,
    "duration": 0.11538449999999933
  },
  {
    "name": "C2",
    "midi": 36,
    "time": 12.692294999999989,
    "velocity": 1,
    "duration": 0.11538449999999933
  },
  {
    "name": "C3",
    "midi": 48,
    "time": 12.807679499999988,
    "velocity": 1,
    "duration": 0.11538449999999933
  },
  {
    "name": "C2",
    "midi": 36,
    "time": 12.923063999999988,
    "velocity": 1,
    "duration": 0.11538449999999933
  },
  {
    "name": "C3",
    "midi": 48,
    "time": 13.038448499999987,
    "velocity": 1,
    "duration": 0.11538449999999933
  },
  {
    "name": "C2",
    "midi": 36,
    "time": 13.153832999999986,
    "velocity": 1,
    "duration": 0.11538449999999933
  },
  {
    "name": "C3",
    "midi": 48,
    "time": 13.269217499999986,
    "velocity": 1,
    "duration": 0.11538449999999933
  },
  {
    "name": "C2",
    "midi": 36,
    "time": 13.384601999999985,
    "velocity": 1,
    "duration": 0.11538449999999933
  },
  {
    "name": "C3",
    "midi": 48,
    "time": 13.499986499999984,
    "velocity": 1,
    "duration": 0.11538449999999933
  },
  {
    "name": "C2",
    "midi": 36,
    "time": 13.615370999999984,
    "velocity": 1,
    "duration": 0.11538449999999933
  },
  {
    "name": "C3",
    "midi": 48,
    "time": 13.730755499999983,
    "velocity": 1,
    "duration": 0.11538449999999933
  },
  {
    "name": "C2",
    "midi": 36,
    "time": 13.846139999999982,
    "velocity": 1,
    "duration": 0.11538449999999933
  },
  {
    "name": "C3",
    "midi": 48,
    "time": 13.961524499999982,
    "velocity": 1,
    "duration": 0.11538449999999933
  },
  {
    "name": "C2",
    "midi": 36,
    "time": 14.076908999999981,
    "velocity": 1,
    "duration": 0.11538449999999933
  },
  {
    "name": "C3",
    "midi": 48,
    "time": 14.19229349999998,
    "velocity": 1,
    "duration": 0.11538449999999933
  },
  {
    "name": "C2",
    "midi": 36,
    "time": 14.30767799999998,
    "velocity": 1,
    "duration": 0.11538449999999933
  },
  {
    "name": "C3",
    "midi": 48,
    "time": 14.423062499999979,
    "velocity": 1,
    "duration": 0.11538449999999933
  },
  {
    "name": "C2",
    "midi": 36,
    "time": 14.538446999999978,
    "velocity": 1,
    "duration": 0.11538449999999933
  },
  {
    "name": "C3",
    "midi": 48,
    "time": 14.653831499999978,
    "velocity": 1,
    "duration": 0.11538449999999933
  },
  {
    "name": "C2",
    "midi": 36,
    "time": 14.769215999999977,
    "velocity": 1,
    "duration": 0.11538449999999933
  },
  {
    "name": "C3",
    "midi": 48,
    "time": 14.884600499999976,
    "velocity": 1,
    "duration": 0.11538449999999933
  },
  {
    "name": "C2",
    "midi": 36,
    "time": 14.999984999999976,
    "velocity": 1,
    "duration": 0.11538449999999933
  },
  {
    "name": "C3",
    "midi": 48,
    "time": 15.115369499999975,
    "velocity": 1,
    "duration": 0.11538449999999933
  },
  {
    "name": "C2",
    "midi": 36,
    "time": 15.230753999999974,
    "velocity": 1,
    "duration": 0.11538449999999933
  },
  {
    "name": "C3",
    "midi": 48,
    "time": 15.346138499999974,
    "velocity": 1,
    "duration": 0.11538449999999933
  },
  {
    "name": "C2",
    "midi": 36,
    "time": 15.461522999999973,
    "velocity": 1,
    "duration": 0.11538449999999933
  },
  {
    "name": "C3",
    "midi": 48,
    "time": 15.576907499999972,
    "velocity": 1,
    "duration": 0.11538449999999933
  },
  {
    "name": "C2",
    "midi": 36,
    "time": 15.692291999999972,
    "velocity": 1,
    "duration": 0.11538449999999933
  },
  {
    "name": "C3",
    "midi": 48,
    "time": 15.807676499999971,
    "velocity": 1,
    "duration": 0.11538449999999933
  },
  {
    "name": "C2",
    "midi": 36,
    "time": 15.92306099999997,
    "velocity": 1,
    "duration": 0.11538449999999933
  },
  {
    "name": "C3",
    "midi": 48,
    "time": 16.03844549999997,
    "velocity": 1,
    "duration": 0.11538450000000111
  },
  {
    "name": "C#3",
    "midi": 49,
    "time": 16.15382999999997,
    "velocity": 1,
    "duration": 0.3461534999999998
  },
  {
    "name": "C3",
    "midi": 48,
    "time": 16.49998349999997,
    "velocity": 1,
    "duration": 0.3461534999999998
  },
  {
    "name": "A#2",
    "midi": 46,
    "time": 16.84613699999997,
    "velocity": 1,
    "duration": 0.23076899999999867
  },
  {
    "name": "G#2",
    "midi": 44,
    "time": 17.07690599999997,
    "velocity": 1,
    "duration": 0.23076899999999867
  },
  {
    "name": "A#2",
    "midi": 46,
    "time": 17.307674999999968,
    "velocity": 1,
    "duration": 0.3461534999999998
  },
  {
    "name": "G#2",
    "midi": 44,
    "time": 17.653828499999968,
    "velocity": 1,
    "duration": 0.3461534999999998
  },
  {
    "name": "F#2",
    "midi": 42,
    "time": 17.999981999999967,
    "velocity": 1,
    "duration": 0.23076899999999867
  },
  {
    "name": "F2",
    "midi": 41,
    "time": 18.230750999999966,
    "velocity": 1,
    "duration": 0.23076899999999867
  },
  {
    "name": "F#2",
    "midi": 42,
    "time": 18.461519999999965,
    "velocity": 1,
    "duration": 0.3461534999999998
  },
  {
    "name": "F2",
    "midi": 41,
    "time": 18.807673499999964,
    "velocity": 1,
    "duration": 0.3461534999999998
  },
  {
    "name": "D#2",
    "midi": 39,
    "time": 19.153826999999964,
    "velocity": 1,
    "duration": 0.23076899999999867
  },
  {
    "name": "C#2",
    "midi": 37,
    "time": 19.384595999999963,
    "velocity": 1,
    "duration": 0.23076899999999867
  },
  {
    "name": "C2",
    "midi": 36,
    "time": 19.61536499999996,
    "velocity": 1,
    "duration": 0.11538450000000111
  },
  {
    "name": "C3",
    "midi": 48,
    "time": 19.730749499999963,
    "velocity": 1,
    "duration": 0.11538450000000111
  },
  {
    "name": "C2",
    "midi": 36,
    "time": 19.846133999999964,
    "velocity": 1,
    "duration": 0.11538450000000111
  },
  {
    "name": "C3",
    "midi": 48,
    "time": 19.961518499999965,
    "velocity": 1,
    "duration": 0.11538450000000111
  },
  {
    "name": "C2",
    "midi": 36,
    "time": 20.076902999999966,
    "velocity": 1,
    "duration": 0.11538450000000111
  },
  {
    "name": "C3",
    "midi": 48,
    "time": 20.192287499999967,
    "velocity": 1,
    "duration": 0.11538450000000111
  },
  {
    "name": "C3",
    "midi": 48,
    "time": 20.307671999999968,
    "velocity": 1,
    "duration": 0.6923069999999996
  },
  {
    "name": "C2",
    "midi": 36,
    "time": 20.999978999999968,
    "velocity": 1,
    "duration": 0.11538450000000111
  },
  {
    "name": "C3",
    "midi": 48,
    "time": 21.11536349999997,
    "velocity": 1,
    "duration": 0.11538450000000111
  },
  {
    "name": "C2",
    "midi": 36,
    "time": 21.23074799999997,
    "velocity": 1,
    "duration": 0.11538450000000111
  },
  {
    "name": "C3",
    "midi": 48,
    "time": 21.34613249999997,
    "velocity": 1,
    "duration": 0.11538450000000111
  },
  {
    "name": "C2",
    "midi": 36,
    "time": 21.461516999999972,
    "velocity": 1,
    "duration": 0.11538450000000111
  },
  {
    "name": "C3",
    "midi": 48,
    "time": 21.576901499999973,
    "velocity": 1,
    "duration": 0.11538450000000111
  },
  {
    "name": "C3",
    "midi": 48,
    "time": 21.692285999999974,
    "velocity": 1,
    "duration": 0.6923069999999996
  },
  {
    "name": "C2",
    "midi": 36,
    "time": 22.384592999999974,
    "velocity": 1,
    "duration": 0.11538450000000111
  },
  {
    "name": "C3",
    "midi": 48,
    "time": 22.499977499999975,
    "velocity": 1,
    "duration": 0.11538450000000111
  },
  {
    "name": "C2",
    "midi": 36,
    "time": 22.615361999999976,
    "velocity": 1,
    "duration": 0.11538450000000111
  },
  {
    "name": "C3",
    "midi": 48,
    "time": 22.730746499999977,
    "velocity": 1,
    "duration": 0.11538450000000111
  },
  {
    "name": "C2",
    "midi": 36,
    "time": 22.84613099999998,
    "velocity": 1,
    "duration": 0.11538450000000111
  },
  {
    "name": "C3",
    "midi": 48,
    "time": 22.96151549999998,
    "velocity": 1,
    "duration": 0.11538450000000111
  },
  {
    "name": "C3",
    "midi": 48,
    "time": 23.07689999999998,
    "velocity": 1,
    "duration": 0.6923069999999996
  },
  {
    "name": "D#3",
    "midi": 51,
    "time": 23.76920699999998,
    "velocity": 1,
    "duration": 0.11538450000000111
  },
  {
    "name": "A#2",
    "midi": 46,
    "time": 23.88459149999998,
    "velocity": 1,
    "duration": 0.11538450000000111
  },
  {
    "name": "G2",
    "midi": 43,
    "time": 23.999975999999982,
    "velocity": 1,
    "duration": 0.11538450000000111
  },
  {
    "name": "D3",
    "midi": 50,
    "time": 24.115360499999984,
    "velocity": 1,
    "duration": 0.11538450000000111
  },
  {
    "name": "A2",
    "midi": 45,
    "time": 24.230744999999985,
    "velocity": 1,
    "duration": 0.11538450000000111
  },
  {
    "name": "F#2",
    "midi": 42,
    "time": 24.346129499999986,
    "velocity": 1,
    "duration": 0.11538450000000111
  },
  {
    "name": "C#3",
    "midi": 49,
    "time": 24.461513999999987,
    "velocity": 1,
    "duration": 0.11538450000000111
  },
  {
    "name": "G#2",
    "midi": 44,
    "time": 24.576898499999988,
    "velocity": 1,
    "duration": 0.11538450000000111
  },
  {
    "name": "F#2",
    "midi": 42,
    "time": 24.69228299999999,
    "velocity": 1,
    "duration": 0.11538450000000111
  },
  {
    "name": "C3",
    "midi": 48,
    "time": 24.80766749999999,
    "velocity": 1,
    "duration": 0.11538450000000111
  },
  {
    "name": "F#2",
    "midi": 42,
    "time": 24.92305199999999,
    "velocity": 1,
    "duration": 0.11538450000000111
  },
  {
    "name": "D#2",
    "midi": 39,
    "time": 25.038436499999992,
    "velocity": 1,
    "duration": 0.11538450000000111
  },
  {
    "name": "C2",
    "midi": 36,
    "time": 25.153820999999994,
    "velocity": 1,
    "duration": 0.11538450000000111
  },
  {
    "name": "C3",
    "midi": 48,
    "time": 25.269205499999995,
    "velocity": 1,
    "duration": 0.11538450000000111
  },
  {
    "name": "C2",
    "midi": 36,
    "time": 25.384589999999996,
    "velocity": 1,
    "duration": 0.11538450000000111
  },
  {
    "name": "C3",
    "midi": 48,
    "time": 25.499974499999997,
    "velocity": 1,
    "duration": 0.11538450000000111
  },
  {
    "name": "C2",
    "midi": 36,
    "time": 25.615358999999998,
    "velocity": 1,
    "duration": 0.11538450000000111
  },
  {
    "name": "C3",
    "midi": 48,
    "time": 25.7307435,
    "velocity": 1,
    "duration": 0.11538450000000111
  },
  {
    "name": "C3",
    "midi": 48,
    "time": 25.846128,
    "velocity": 1,
    "duration": 0.6923069999999996
  },
  {
    "name": "C2",
    "midi": 36,
    "time": 26.538435,
    "velocity": 1,
    "duration": 0.11538450000000111
  },
  {
    "name": "C3",
    "midi": 48,
    "time": 26.6538195,
    "velocity": 1,
    "duration": 0.11538450000000111
  },
  {
    "name": "C2",
    "midi": 36,
    "time": 26.769204000000002,
    "velocity": 1,
    "duration": 0.11538450000000111
  },
  {
    "name": "C3",
    "midi": 48,
    "time": 26.884588500000003,
    "velocity": 1,
    "duration": 0.11538450000000111
  },
  {
    "name": "C2",
    "midi": 36,
    "time": 26.999973000000004,
    "velocity": 1,
    "duration": 0.11538450000000111
  },
  {
    "name": "C3",
    "midi": 48,
    "time": 27.115357500000005,
    "velocity": 1,
    "duration": 0.11538450000000111
  },
  {
    "name": "C3",
    "midi": 48,
    "time": 27.230742000000006,
    "velocity": 1,
    "duration": 0.6923069999999996
  },
  {
    "name": "C#2",
    "midi": 37,
    "time": 27.923049000000006,
    "velocity": 1,
    "duration": 0.11538450000000111
  },
  {
    "name": "C#3",
    "midi": 49,
    "time": 28.038433500000007,
    "velocity": 1,
    "duration": 0.11538450000000111
  },
  {
    "name": "C#2",
    "midi": 37,
    "time": 28.15381800000001,
    "velocity": 1,
    "duration": 0.11538450000000111
  },
  {
    "name": "C#3",
    "midi": 49,
    "time": 28.26920250000001,
    "velocity": 1,
    "duration": 0.11538450000000111
  },
  {
    "name": "C#2",
    "midi": 37,
    "time": 28.38458700000001,
    "velocity": 1,
    "duration": 0.11538450000000111
  },
  {
    "name": "C#3",
    "midi": 49,
    "time": 28.49997150000001,
    "velocity": 1,
    "duration": 0.11538450000000111
  },
  {
    "name": "C#2",
    "midi": 37,
    "time": 28.615356000000013,
    "velocity": 1,
    "duration": 0.11538450000000111
  },
  {
    "name": "C#3",
    "midi": 49,
    "time": 28.730740500000014,
    "velocity": 1,
    "duration": 0.11538450000000111
  },
  {
    "name": "C#2",
    "midi": 37,
    "time": 28.846125000000015,
    "velocity": 1,
    "duration": 0.11538450000000111
  },
  {
    "name": "C#3",
    "midi": 49,
    "time": 28.961509500000016,
    "velocity": 1,
    "duration": 0.11538450000000111
  },
  {
    "name": "C#2",
    "midi": 37,
    "time": 29.076894000000017,
    "velocity": 1,
    "duration": 0.11538450000000111
  },
  {
    "name": "C#3",
    "midi": 49,
    "time": 29.19227850000002,
    "velocity": 1,
    "duration": 0.11538450000000111
  },
  {
    "name": "C#2",
    "midi": 37,
    "time": 29.30766300000002,
    "velocity": 1,
    "duration": 0.11538450000000111
  },
  {
    "name": "C#3",
    "midi": 49,
    "time": 29.42304750000002,
    "velocity": 1,
    "duration": 0.11538450000000111
  },
  {
    "name": "C#2",
    "midi": 37,
    "time": 29.53843200000002,
    "velocity": 1,
    "duration": 0.11538450000000111
  },
  {
    "name": "C#3",
    "midi": 49,
    "time": 29.653816500000023,
    "velocity": 1,
    "duration": 0.11538450000000111
  },
  {
    "name": "C#2",
    "midi": 37,
    "time": 29.769201000000024,
    "velocity": 1,
    "duration": 0.11538450000000111
  },
  {
    "name": "C#3",
    "midi": 49,
    "time": 29.884585500000025,
    "velocity": 1,
    "duration": 0.11538450000000111
  },
  {
    "name": "C#2",
    "midi": 37,
    "time": 29.999970000000026,
    "velocity": 1,
    "duration": 0.11538450000000111
  },
  {
    "name": "C#3",
    "midi": 49,
    "time": 30.115354500000027,
    "velocity": 1,
    "duration": 0.11538450000000111
  },
  {
    "name": "C#2",
    "midi": 37,
    "time": 30.23073900000003,
    "velocity": 1,
    "duration": 0.11538450000000111
  },
  {
    "name": "C#3",
    "midi": 49,
    "time": 30.34612350000003,
    "velocity": 1,
    "duration": 0.11538450000000111
  },
  {
    "name": "C#2",
    "midi": 37,
    "time": 30.46150800000003,
    "velocity": 1,
    "duration": 0.11538450000000111
  },
  {
    "name": "C#3",
    "midi": 49,
    "time": 30.57689250000003,
    "velocity": 1,
    "duration": 0.11538450000000111
  },
  {
    "name": "D#2",
    "midi": 39,
    "time": 30.692277000000033,
    "velocity": 1,
    "duration": 0.23076899999999867
  },
  {
    "name": "D#2",
    "midi": 39,
    "time": 31.038430500000032,
    "velocity": 1,
    "duration": 0.23076899999999867
  },
  {
    "name": "D2",
    "midi": 38,
    "time": 31.384584000000032,
    "velocity": 1,
    "duration": 0.23076899999999867
  },
  {
    "name": "D2",
    "midi": 38,
    "time": 31.61535300000003,
    "velocity": 1,
    "duration": 0.23076899999999867
  },
  {
    "name": "C#2",
    "midi": 37,
    "time": 31.84612200000003,
    "velocity": 1,
    "duration": 0.11538450000000111
  },
  {
    "name": "C#2",
    "midi": 37,
    "time": 31.96150650000003,
    "velocity": 1,
    "duration": 0.11538450000000111
  },
  {
    "name": "C#2",
    "midi": 37,
    "time": 32.07689100000003,
    "velocity": 1,
    "duration": 0.11538449999999756
  },
  {
    "name": "C#2",
    "midi": 37,
    "time": 32.19227550000003,
    "velocity": 1,
    "duration": 0.11538449999999756
  },
  {
    "name": "D#2",
    "midi": 39,
    "time": 32.30766000000003,
    "velocity": 1,
    "duration": 0.23076900000000222
  },
  {
    "name": "D#2",
    "midi": 39,
    "time": 32.65381350000003,
    "velocity": 1,
    "duration": 0.23076900000000222
  },
  {
    "name": "F2",
    "midi": 41,
    "time": 32.99996700000003,
    "velocity": 1,
    "duration": 0.23076900000000222
  },
  {
    "name": "F2",
    "midi": 41,
    "time": 33.23073600000003,
    "velocity": 1,
    "duration": 0.23076900000000222
  },
  {
    "name": "F#2",
    "midi": 42,
    "time": 33.46150500000003,
    "velocity": 1,
    "duration": 0.11538449999999756
  },
  {
    "name": "G#2",
    "midi": 44,
    "time": 33.57688950000003,
    "velocity": 1,
    "duration": 0.11538449999999756
  },
  {
    "name": "G#2",
    "midi": 44,
    "time": 33.692274000000026,
    "velocity": 1,
    "duration": 0.11538449999999756
  },
  {
    "name": "G#2",
    "midi": 44,
    "time": 33.807658500000024,
    "velocity": 1,
    "duration": 0.11538449999999756
  },
  {
    "name": "C2",
    "midi": 36,
    "time": 33.92304300000002,
    "velocity": 1,
    "duration": 0.11538449999999756
  },
  {
    "name": "C3",
    "midi": 48,
    "time": 34.03842750000002,
    "velocity": 1,
    "duration": 0.11538449999999756
  },
  {
    "name": "C2",
    "midi": 36,
    "time": 34.153812000000016,
    "velocity": 1,
    "duration": 0.11538449999999756
  },
  {
    "name": "C3",
    "midi": 48,
    "time": 34.269196500000014,
    "velocity": 1,
    "duration": 0.11538449999999756
  },
  {
    "name": "C2",
    "midi": 36,
    "time": 34.38458100000001,
    "velocity": 1,
    "duration": 0.11538449999999756
  },
  {
    "name": "C3",
    "midi": 48,
    "time": 34.49996550000001,
    "velocity": 1,
    "duration": 0.11538449999999756
  },
  {
    "name": "C2",
    "midi": 36,
    "time": 34.61535000000001,
    "velocity": 1,
    "duration": 0.11538449999999756
  },
  {
    "name": "C3",
    "midi": 48,
    "time": 34.730734500000004,
    "velocity": 1,
    "duration": 0.11538449999999756
  },
  {
    "name": "C2",
    "midi": 36,
    "time": 34.846119,
    "velocity": 1,
    "duration": 0.11538449999999756
  },
  {
    "name": "C3",
    "midi": 48,
    "time": 34.9615035,
    "velocity": 1,
    "duration": 0.11538449999999756
  },
  {
    "name": "C2",
    "midi": 36,
    "time": 35.076888,
    "velocity": 1,
    "duration": 0.11538449999999756
  },
  {
    "name": "C3",
    "midi": 48,
    "time": 35.192272499999994,
    "velocity": 1,
    "duration": 0.11538449999999756
  },
  {
    "name": "C2",
    "midi": 36,
    "time": 35.30765699999999,
    "velocity": 1,
    "duration": 0.11538449999999756
  },
  {
    "name": "C3",
    "midi": 48,
    "time": 35.42304149999999,
    "velocity": 1,
    "duration": 0.11538449999999756
  },
  {
    "name": "C2",
    "midi": 36,
    "time": 35.53842599999999,
    "velocity": 1,
    "duration": 0.11538449999999756
  },
  {
    "name": "C3",
    "midi": 48,
    "time": 35.653810499999985,
    "velocity": 1,
    "duration": 0.11538449999999756
  },
  {
    "name": "C2",
    "midi": 36,
    "time": 35.76919499999998,
    "velocity": 1,
    "duration": 0.11538449999999756
  },
  {
    "name": "C3",
    "midi": 48,
    "time": 35.88457949999998,
    "velocity": 1,
    "duration": 0.11538449999999756
  },
  {
    "name": "C2",
    "midi": 36,
    "time": 35.99996399999998,
    "velocity": 1,
    "duration": 0.11538449999999756
  },
  {
    "name": "C3",
    "midi": 48,
    "time": 36.115348499999975,
    "velocity": 1,
    "duration": 0.11538449999999756
  },
  {
    "name": "C2",
    "midi": 36,
    "time": 36.23073299999997,
    "velocity": 1,
    "duration": 0.11538449999999756
  },
  {
    "name": "C3",
    "midi": 48,
    "time": 36.34611749999997,
    "velocity": 1,
    "duration": 0.11538449999999756
  },
  {
    "name": "C2",
    "midi": 36,
    "time": 36.46150199999997,
    "velocity": 1,
    "duration": 0.11538449999999756
  },
  {
    "name": "C3",
    "midi": 48,
    "time": 36.576886499999965,
    "velocity": 1,
    "duration": 0.11538449999999756
  },
  {
    "name": "C2",
    "midi": 36,
    "time": 36.69227099999996,
    "velocity": 1,
    "duration": 0.11538449999999756
  },
  {
    "name": "C3",
    "midi": 48,
    "time": 36.80765549999996,
    "velocity": 1,
    "duration": 0.11538449999999756
  },
  {
    "name": "C2",
    "midi": 36,
    "time": 36.92303999999996,
    "velocity": 1,
    "duration": 0.11538449999999756
  },
  {
    "name": "C3",
    "midi": 48,
    "time": 37.038424499999955,
    "velocity": 1,
    "duration": 0.11538449999999756
  },
  {
    "name": "C2",
    "midi": 36,
    "time": 37.15380899999995,
    "velocity": 1,
    "duration": 0.11538449999999756
  },
  {
    "name": "C3",
    "midi": 48,
    "time": 37.26919349999995,
    "velocity": 1,
    "duration": 0.11538449999999756
  },
  {
    "name": "C2",
    "midi": 36,
    "time": 37.38457799999995,
    "velocity": 1,
    "duration": 0.11538449999999756
  },
  {
    "name": "C3",
    "midi": 48,
    "time": 37.499962499999945,
    "velocity": 1,
    "duration": 0.11538449999999756
  },
  {
    "name": "C2",
    "midi": 36,
    "time": 37.61534699999994,
    "velocity": 1,
    "duration": 0.11538449999999756
  },
  {
    "name": "C3",
    "midi": 48,
    "time": 37.73073149999994,
    "velocity": 1,
    "duration": 0.11538449999999756
  },
  {
    "name": "C2",
    "midi": 36,
    "time": 37.84611599999994,
    "velocity": 1,
    "duration": 0.11538449999999756
  },
  {
    "name": "C3",
    "midi": 48,
    "time": 37.961500499999936,
    "velocity": 1,
    "duration": 0.11538449999999756
  },
  {
    "name": "C2",
    "midi": 36,
    "time": 38.07688499999993,
    "velocity": 1,
    "duration": 0.11538449999999756
  },
  {
    "name": "C3",
    "midi": 48,
    "time": 38.19226949999993,
    "velocity": 1,
    "duration": 0.11538449999999756
  },
  {
    "name": "C2",
    "midi": 36,
    "time": 38.30765399999993,
    "velocity": 1,
    "duration": 0.11538449999999756
  },
  {
    "name": "C3",
    "midi": 48,
    "time": 38.423038499999926,
    "velocity": 1,
    "duration": 0.11538449999999756
  },
  {
    "name": "C2",
    "midi": 36,
    "time": 38.53842299999992,
    "velocity": 1,
    "duration": 0.11538449999999756
  },
  {
    "name": "C3",
    "midi": 48,
    "time": 38.65380749999992,
    "velocity": 1,
    "duration": 0.11538449999999756
  },
  {
    "name": "C2",
    "midi": 36,
    "time": 38.76919199999992,
    "velocity": 1,
    "duration": 0.11538449999999756
  },
  {
    "name": "C3",
    "midi": 48,
    "time": 38.884576499999916,
    "velocity": 1,
    "duration": 0.11538449999999756
  },
  {
    "name": "C#3",
    "midi": 49,
    "time": 38.999960999999914,
    "velocity": 1,
    "duration": 0.3461534999999998
  },
  {
    "name": "C3",
    "midi": 48,
    "time": 39.34611449999991,
    "velocity": 1,
    "duration": 0.3461534999999998
  },
  {
    "name": "A#2",
    "midi": 46,
    "time": 39.69226799999991,
    "velocity": 1,
    "duration": 0.23076900000000222
  },
  {
    "name": "G#2",
    "midi": 44,
    "time": 39.923036999999916,
    "velocity": 1,
    "duration": 0.23076900000000222
  },
  {
    "name": "A#2",
    "midi": 46,
    "time": 40.15380599999992,
    "velocity": 1,
    "duration": 0.3461534999999998
  },
  {
    "name": "G#2",
    "midi": 44,
    "time": 40.49995949999992,
    "velocity": 1,
    "duration": 0.3461534999999998
  },
  {
    "name": "F#2",
    "midi": 42,
    "time": 40.84611299999992,
    "velocity": 1,
    "duration": 0.23076900000000222
  },
  {
    "name": "F2",
    "midi": 41,
    "time": 41.07688199999992,
    "velocity": 1,
    "duration": 0.23076900000000222
  },
  {
    "name": "F#2",
    "midi": 42,
    "time": 41.30765099999992,
    "velocity": 1,
    "duration": 0.3461534999999998
  },
  {
    "name": "F2",
    "midi": 41,
    "time": 41.65380449999992,
    "velocity": 1,
    "duration": 0.3461534999999998
  },
  {
    "name": "D#2",
    "midi": 39,
    "time": 41.99995799999992,
    "velocity": 1,
    "duration": 0.23076900000000222
  },
  {
    "name": "C#2",
    "midi": 37,
    "time": 42.23072699999992,
    "velocity": 1,
    "duration": 0.23076900000000222
  },
  {
    "name": "C2",
    "midi": 36,
    "time": 42.461495999999926,
    "velocity": 1,
    "duration": 0.11538449999999756
  },
  {
    "name": "C3",
    "midi": 48,
    "time": 42.57688049999992,
    "velocity": 1,
    "duration": 0.11538449999999756
  },
  {
    "name": "C2",
    "midi": 36,
    "time": 42.69226499999992,
    "velocity": 1,
    "duration": 0.11538449999999756
  },
  {
    "name": "C3",
    "midi": 48,
    "time": 42.80764949999992,
    "velocity": 1,
    "duration": 0.11538449999999756
  },
  {
    "name": "C2",
    "midi": 36,
    "time": 42.923033999999916,
    "velocity": 1,
    "duration": 0.11538449999999756
  },
  {
    "name": "C3",
    "midi": 48,
    "time": 43.03841849999991,
    "velocity": 1,
    "duration": 0.11538449999999756
  },
  {
    "name": "C3",
    "midi": 48,
    "time": 43.15380299999991,
    "velocity": 1,
    "duration": 0.6923069999999996
  },
  {
    "name": "C2",
    "midi": 36,
    "time": 43.84610999999991,
    "velocity": 1,
    "duration": 0.11538449999999756
  },
  {
    "name": "C3",
    "midi": 48,
    "time": 43.96149449999991,
    "velocity": 1,
    "duration": 0.11538449999999756
  },
  {
    "name": "C2",
    "midi": 36,
    "time": 44.076878999999906,
    "velocity": 1,
    "duration": 0.11538449999999756
  },
  {
    "name": "C3",
    "midi": 48,
    "time": 44.1922634999999,
    "velocity": 1,
    "duration": 0.11538449999999756
  },
  {
    "name": "C2",
    "midi": 36,
    "time": 44.3076479999999,
    "velocity": 1,
    "duration": 0.11538449999999756
  },
  {
    "name": "C3",
    "midi": 48,
    "time": 44.4230324999999,
    "velocity": 1,
    "duration": 0.11538449999999756
  },
  {
    "name": "C3",
    "midi": 48,
    "time": 44.538416999999896,
    "velocity": 1,
    "duration": 0.6923069999999996
  },
  {
    "name": "C2",
    "midi": 36,
    "time": 45.230723999999896,
    "velocity": 1,
    "duration": 0.11538449999999756
  },
  {
    "name": "C3",
    "midi": 48,
    "time": 45.34610849999989,
    "velocity": 1,
    "duration": 0.11538449999999756
  },
  {
    "name": "C2",
    "midi": 36,
    "time": 45.46149299999989,
    "velocity": 1,
    "duration": 0.11538449999999756
  },
  {
    "name": "C3",
    "midi": 48,
    "time": 45.57687749999989,
    "velocity": 1,
    "duration": 0.11538449999999756
  },
  {
    "name": "C2",
    "midi": 36,
    "time": 45.692261999999886,
    "velocity": 1,
    "duration": 0.11538449999999756
  },
  {
    "name": "C3",
    "midi": 48,
    "time": 45.80764649999988,
    "velocity": 1,
    "duration": 0.11538449999999756
  },
  {
    "name": "C3",
    "midi": 48,
    "time": 45.92303099999988,
    "velocity": 1,
    "duration": 0.6923069999999996
  },
  {
    "name": "D#3",
    "midi": 51,
    "time": 46.61533799999988,
    "velocity": 1,
    "duration": 0.11538449999999756
  },
  {
    "name": "A#2",
    "midi": 46,
    "time": 46.73072249999988,
    "velocity": 1,
    "duration": 0.11538449999999756
  },
  {
    "name": "G2",
    "midi": 43,
    "time": 46.846106999999876,
    "velocity": 1,
    "duration": 0.11538449999999756
  },
  {
    "name": "D3",
    "midi": 50,
    "time": 46.96149149999987,
    "velocity": 1,
    "duration": 0.11538449999999756
  },
  {
    "name": "A2",
    "midi": 45,
    "time": 47.07687599999987,
    "velocity": 1,
    "duration": 0.11538449999999756
  },
  {
    "name": "F#2",
    "midi": 42,
    "time": 47.19226049999987,
    "velocity": 1,
    "duration": 0.11538449999999756
  },
  {
    "name": "C#3",
    "midi": 49,
    "time": 47.307644999999866,
    "velocity": 1,
    "duration": 0.11538449999999756
  },
  {
    "name": "G#2",
    "midi": 44,
    "time": 47.42302949999986,
    "velocity": 1,
    "duration": 0.11538449999999756
  },
  {
    "name": "F#2",
    "midi": 42,
    "time": 47.53841399999986,
    "velocity": 1,
    "duration": 0.11538449999999756
  },
  {
    "name": "C3",
    "midi": 48,
    "time": 47.65379849999986,
    "velocity": 1,
    "duration": 0.11538449999999756
  },
  {
    "name": "F#2",
    "midi": 42,
    "time": 47.769182999999856,
    "velocity": 1,
    "duration": 0.11538449999999756
  },
  {
    "name": "D#2",
    "midi": 39,
    "time": 47.884567499999854,
    "velocity": 1,
    "duration": 0.11538449999999756
  },
  {
    "name": "C2",
    "midi": 36,
    "time": 47.99995199999985,
    "velocity": 1,
    "duration": 0.11538449999999756
  },
  {
    "name": "C3",
    "midi": 48,
    "time": 48.11533649999985,
    "velocity": 1,
    "duration": 0.11538449999999756
  },
  {
    "name": "C2",
    "midi": 36,
    "time": 48.230720999999846,
    "velocity": 1,
    "duration": 0.11538449999999756
  },
  {
    "name": "C3",
    "midi": 48,
    "time": 48.346105499999844,
    "velocity": 1,
    "duration": 0.11538449999999756
  },
  {
    "name": "C2",
    "midi": 36,
    "time": 48.46148999999984,
    "velocity": 1,
    "duration": 0.11538449999999756
  },
  {
    "name": "C3",
    "midi": 48,
    "time": 48.57687449999984,
    "velocity": 1,
    "duration": 0.11538449999999756
  },
  {
    "name": "C3",
    "midi": 48,
    "time": 48.69225899999984,
    "velocity": 1,
    "duration": 0.6923069999999996
  },
  {
    "name": "C2",
    "midi": 36,
    "time": 49.384565999999836,
    "velocity": 1,
    "duration": 0.11538449999999756
  },
  {
    "name": "C3",
    "midi": 48,
    "time": 49.499950499999834,
    "velocity": 1,
    "duration": 0.11538449999999756
  },
  {
    "name": "C2",
    "midi": 36,
    "time": 49.61533499999983,
    "velocity": 1,
    "duration": 0.11538449999999756
  },
  {
    "name": "C3",
    "midi": 48,
    "time": 49.73071949999983,
    "velocity": 1,
    "duration": 0.11538449999999756
  },
  {
    "name": "C2",
    "midi": 36,
    "time": 49.846103999999826,
    "velocity": 1,
    "duration": 0.11538449999999756
  },
  {
    "name": "C3",
    "midi": 48,
    "time": 49.961488499999824,
    "velocity": 1,
    "duration": 0.11538449999999756
  },
  {
    "name": "C3",
    "midi": 48,
    "time": 50.07687299999982,
    "velocity": 1,
    "duration": 0.6923069999999996
  },
  {
    "name": "C#2",
    "midi": 37,
    "time": 50.76917999999982,
    "velocity": 1,
    "duration": 0.11538449999999756
  },
  {
    "name": "C#3",
    "midi": 49,
    "time": 50.88456449999982,
    "velocity": 1,
    "duration": 0.11538449999999756
  },
  {
    "name": "C#2",
    "midi": 37,
    "time": 50.999948999999816,
    "velocity": 1,
    "duration": 0.11538449999999756
  },
  {
    "name": "C#3",
    "midi": 49,
    "time": 51.115333499999814,
    "velocity": 1,
    "duration": 0.11538449999999756
  },
  {
    "name": "C#2",
    "midi": 37,
    "time": 51.23071799999981,
    "velocity": 1,
    "duration": 0.11538449999999756
  },
  {
    "name": "C#3",
    "midi": 49,
    "time": 51.34610249999981,
    "velocity": 1,
    "duration": 0.11538449999999756
  },
  {
    "name": "C#2",
    "midi": 37,
    "time": 51.461486999999806,
    "velocity": 1,
    "duration": 0.11538449999999756
  },
  {
    "name": "C#3",
    "midi": 49,
    "time": 51.576871499999804,
    "velocity": 1,
    "duration": 0.11538449999999756
  },
  {
    "name": "C#2",
    "midi": 37,
    "time": 51.6922559999998,
    "velocity": 1,
    "duration": 0.11538449999999756
  },
  {
    "name": "C#3",
    "midi": 49,
    "time": 51.8076404999998,
    "velocity": 1,
    "duration": 0.11538449999999756
  },
  {
    "name": "C#2",
    "midi": 37,
    "time": 51.9230249999998,
    "velocity": 1,
    "duration": 0.11538449999999756
  },
  {
    "name": "C#3",
    "midi": 49,
    "time": 52.038409499999794,
    "velocity": 1,
    "duration": 0.11538449999999756
  },
  {
    "name": "C#2",
    "midi": 37,
    "time": 52.15379399999979,
    "velocity": 1,
    "duration": 0.11538449999999756
  },
  {
    "name": "C#3",
    "midi": 49,
    "time": 52.26917849999979,
    "velocity": 1,
    "duration": 0.11538449999999756
  },
  {
    "name": "C#2",
    "midi": 37,
    "time": 52.38456299999979,
    "velocity": 1,
    "duration": 0.11538449999999756
  },
  {
    "name": "C#3",
    "midi": 49,
    "time": 52.499947499999784,
    "velocity": 1,
    "duration": 0.11538449999999756
  },
  {
    "name": "C#2",
    "midi": 37,
    "time": 52.61533199999978,
    "velocity": 1,
    "duration": 0.11538449999999756
  },
  {
    "name": "C#3",
    "midi": 49,
    "time": 52.73071649999978,
    "velocity": 1,
    "duration": 0.11538449999999756
  },
  {
    "name": "C#2",
    "midi": 37,
    "time": 52.84610099999978,
    "velocity": 1,
    "duration": 0.11538449999999756
  },
  {
    "name": "C#3",
    "midi": 49,
    "time": 52.961485499999775,
    "velocity": 1,
    "duration": 0.11538449999999756
  },
  {
    "name": "C#2",
    "midi": 37,
    "time": 53.07686999999977,
    "velocity": 1,
    "duration": 0.11538449999999756
  },
  {
    "name": "C#3",
    "midi": 49,
    "time": 53.19225449999977,
    "velocity": 1,
    "duration": 0.11538449999999756
  },
  {
    "name": "C#2",
    "midi": 37,
    "time": 53.30763899999977,
    "velocity": 1,
    "duration": 0.11538449999999756
  },
  {
    "name": "C#3",
    "midi": 49,
    "time": 53.423023499999765,
    "velocity": 1,
    "duration": 0.11538449999999756
  },
  {
    "name": "D#2",
    "midi": 39,
    "time": 53.53840799999976,
    "velocity": 1,
    "duration": 0.23076900000000222
  },
  {
    "name": "D#2",
    "midi": 39,
    "time": 53.88456149999976,
    "velocity": 1,
    "duration": 0.23076900000000222
  },
  {
    "name": "D2",
    "midi": 38,
    "time": 54.23071499999976,
    "velocity": 1,
    "duration": 0.23076900000000222
  },
  {
    "name": "D2",
    "midi": 38,
    "time": 54.461483999999764,
    "velocity": 1,
    "duration": 0.23076900000000222
  },
  {
    "name": "C#2",
    "midi": 37,
    "time": 54.692252999999766,
    "velocity": 1,
    "duration": 0.11538449999999756
  },
  {
    "name": "C#2",
    "midi": 37,
    "time": 54.807637499999764,
    "velocity": 1,
    "duration": 0.11538449999999756
  },
  {
    "name": "C#2",
    "midi": 37,
    "time": 54.92302199999976,
    "velocity": 1,
    "duration": 0.11538449999999756
  },
  {
    "name": "C#2",
    "midi": 37,
    "time": 55.03840649999976,
    "velocity": 1,
    "duration": 0.11538449999999756
  },
  {
    "name": "D#2",
    "midi": 39,
    "time": 55.15379099999976,
    "velocity": 1,
    "duration": 0.23076900000000222
  },
  {
    "name": "D#2",
    "midi": 39,
    "time": 55.499944499999756,
    "velocity": 1,
    "duration": 0.23076900000000222
  },
  {
    "name": "F2",
    "midi": 41,
    "time": 55.846097999999756,
    "velocity": 1,
    "duration": 0.23076900000000222
  },
  {
    "name": "F2",
    "midi": 41,
    "time": 56.07686699999976,
    "velocity": 1,
    "duration": 0.23076900000000222
  },
  {
    "name": "F#2",
    "midi": 42,
    "time": 56.30763599999976,
    "velocity": 1,
    "duration": 0.11538449999999756
  },
  {
    "name": "G#2",
    "midi": 44,
    "time": 56.42302049999976,
    "velocity": 1,
    "duration": 0.11538449999999756
  },
  {
    "name": "G#2",
    "midi": 44,
    "time": 56.538404999999756,
    "velocity": 1,
    "duration": 0.11538449999999756
  },
  {
    "name": "G#2",
    "midi": 44,
    "time": 56.65378949999975,
    "velocity": 1,
    "duration": 0.11538449999999756
  }
];