export let bass2: any[] = [
  {
    "name": "C2",
    "midi": 36,
    "time": 0,
    "velocity": 0.7874015748031497,
    "duration": 0.057692249999999994
  },
  {
    "name": "F#2",
    "midi": 42,
    "time": 0,
    "velocity": 0.7874015748031497,
    "duration": 0.057692249999999994
  },
  {
    "name": "C2",
    "midi": 36,
    "time": 0.46153799999999995,
    "velocity": 0.7874015748031497,
    "duration": 0.057692249999999945
  },
  {
    "name": "F#2",
    "midi": 42,
    "time": 0.46153799999999995,
    "velocity": 0.7874015748031497,
    "duration": 0.057692249999999945
  },
  {
    "name": "C2",
    "midi": 36,
    "time": 0.9230759999999998,
    "velocity": 0.7874015748031497,
    "duration": 0.05769225
  },
  {
    "name": "F#2",
    "midi": 42,
    "time": 0.9230759999999998,
    "velocity": 0.7874015748031497,
    "duration": 0.05769225
  },
  {
    "name": "C2",
    "midi": 36,
    "time": 1.3846139999999998,
    "velocity": 0.7874015748031497,
    "duration": 0.05769224999999989
  },
  {
    "name": "F#2",
    "midi": 42,
    "time": 1.3846139999999998,
    "velocity": 0.7874015748031497,
    "duration": 0.05769224999999989
  },
  {
    "name": "C2",
    "midi": 36,
    "time": 1.8461519999999996,
    "velocity": 0.7874015748031497,
    "duration": 0.05769224999999989
  },
  {
    "name": "F#2",
    "midi": 42,
    "time": 1.8461519999999996,
    "velocity": 0.7874015748031497,
    "duration": 0.05769224999999989
  },
  {
    "name": "C2",
    "midi": 36,
    "time": 2.3076899999999996,
    "velocity": 0.7874015748031497,
    "duration": 0.05769225000000011
  },
  {
    "name": "F#2",
    "midi": 42,
    "time": 2.3076899999999996,
    "velocity": 0.7874015748031497,
    "duration": 0.05769225000000011
  },
  {
    "name": "C2",
    "midi": 36,
    "time": 2.7692279999999996,
    "velocity": 0.7874015748031497,
    "duration": 0.05769225000000011
  },
  {
    "name": "F#2",
    "midi": 42,
    "time": 2.7692279999999996,
    "velocity": 0.7874015748031497,
    "duration": 0.05769225000000011
  },
  {
    "name": "C2",
    "midi": 36,
    "time": 3.2307659999999996,
    "velocity": 0.7874015748031497,
    "duration": 0.05769225000000011
  },
  {
    "name": "F#2",
    "midi": 42,
    "time": 3.2307659999999996,
    "velocity": 0.7874015748031497,
    "duration": 0.05769225000000011
  },
  {
    "name": "C2",
    "midi": 36,
    "time": 3.6923039999999996,
    "velocity": 0.7874015748031497,
    "duration": 0.05769225000000011
  },
  {
    "name": "F#2",
    "midi": 42,
    "time": 3.6923039999999996,
    "velocity": 0.7874015748031497,
    "duration": 0.05769225000000011
  },
  {
    "name": "F#2",
    "midi": 42,
    "time": 4.153842,
    "velocity": 0.7874015748031497,
    "duration": 0.05769224999999967
  },
  {
    "name": "C2",
    "midi": 36,
    "time": 4.153842,
    "velocity": 0.7874015748031497,
    "duration": 0.05769224999999967
  },
  {
    "name": "C2",
    "midi": 36,
    "time": 4.61538,
    "velocity": 0.7874015748031497,
    "duration": 0.05769224999999967
  },
  {
    "name": "F#2",
    "midi": 42,
    "time": 4.61538,
    "velocity": 0.7874015748031497,
    "duration": 0.05769224999999967
  },
  {
    "name": "C2",
    "midi": 36,
    "time": 5.076918,
    "velocity": 0.7874015748031497,
    "duration": 0.05769224999999967
  },
  {
    "name": "F#2",
    "midi": 42,
    "time": 5.076918,
    "velocity": 0.7874015748031497,
    "duration": 0.05769224999999967
  },
  {
    "name": "C2",
    "midi": 36,
    "time": 5.538456,
    "velocity": 0.7874015748031497,
    "duration": 0.05769224999999967
  },
  {
    "name": "F#2",
    "midi": 42,
    "time": 5.538456,
    "velocity": 0.7874015748031497,
    "duration": 0.05769224999999967
  },
  {
    "name": "C2",
    "midi": 36,
    "time": 5.999994,
    "velocity": 0.7874015748031497,
    "duration": 0.05769224999999967
  },
  {
    "name": "F#2",
    "midi": 42,
    "time": 5.999994,
    "velocity": 0.7874015748031497,
    "duration": 0.05769224999999967
  },
  {
    "name": "C2",
    "midi": 36,
    "time": 6.461532,
    "velocity": 0.7874015748031497,
    "duration": 0.05769224999999967
  },
  {
    "name": "F#2",
    "midi": 42,
    "time": 6.461532,
    "velocity": 0.7874015748031497,
    "duration": 0.05769224999999967
  },
  {
    "name": "C2",
    "midi": 36,
    "time": 6.92307,
    "velocity": 0.7874015748031497,
    "duration": 0.05769224999999967
  },
  {
    "name": "F#2",
    "midi": 42,
    "time": 6.92307,
    "velocity": 0.7874015748031497,
    "duration": 0.05769224999999967
  },
  {
    "name": "C2",
    "midi": 36,
    "time": 7.384608,
    "velocity": 0.7874015748031497,
    "duration": 0.05769224999999967
  },
  {
    "name": "F#2",
    "midi": 42,
    "time": 7.384608,
    "velocity": 0.7874015748031497,
    "duration": 0.05769224999999967
  },
  {
    "name": "C2",
    "midi": 36,
    "time": 7.846146,
    "velocity": 0.7874015748031497,
    "duration": 0.05769224999999967
  },
  {
    "name": "F#2",
    "midi": 42,
    "time": 7.846146,
    "velocity": 0.7874015748031497,
    "duration": 0.05769224999999967
  },
  {
    "name": "C2",
    "midi": 36,
    "time": 8.307684,
    "velocity": 0.7874015748031497,
    "duration": 0.057692250000000556
  },
  {
    "name": "F#2",
    "midi": 42,
    "time": 8.307684,
    "velocity": 0.7874015748031497,
    "duration": 0.057692250000000556
  },
  {
    "name": "C2",
    "midi": 36,
    "time": 8.769222000000001,
    "velocity": 0.7874015748031497,
    "duration": 0.057692250000000556
  },
  {
    "name": "F#2",
    "midi": 42,
    "time": 8.769222000000001,
    "velocity": 0.7874015748031497,
    "duration": 0.057692250000000556
  },
  {
    "name": "C2",
    "midi": 36,
    "time": 9.230760000000002,
    "velocity": 0.7874015748031497,
    "duration": 0.057692250000000556
  },
  {
    "name": "F#2",
    "midi": 42,
    "time": 9.230760000000002,
    "velocity": 0.7874015748031497,
    "duration": 0.057692250000000556
  },
  {
    "name": "C2",
    "midi": 36,
    "time": 9.692298000000003,
    "velocity": 0.7874015748031497,
    "duration": 0.057692250000000556
  },
  {
    "name": "F#2",
    "midi": 42,
    "time": 9.692298000000003,
    "velocity": 0.7874015748031497,
    "duration": 0.057692250000000556
  },
  {
    "name": "D2",
    "midi": 38,
    "time": 10.153836000000004,
    "velocity": 0.7874015748031497,
    "duration": 0.057692250000000556
  },
  {
    "name": "F#2",
    "midi": 42,
    "time": 10.153836000000004,
    "velocity": 0.7874015748031497,
    "duration": 0.057692250000000556
  },
  {
    "name": "D2",
    "midi": 38,
    "time": 10.269220500000005,
    "velocity": 0.7874015748031497,
    "duration": 0.057692250000000556
  },
  {
    "name": "F#2",
    "midi": 42,
    "time": 10.269220500000005,
    "velocity": 0.7874015748031497,
    "duration": 0.057692250000000556
  },
  {
    "name": "D2",
    "midi": 38,
    "time": 10.384605000000006,
    "velocity": 0.7874015748031497,
    "duration": 0.057692250000000556
  },
  {
    "name": "F#2",
    "midi": 42,
    "time": 10.384605000000006,
    "velocity": 0.7874015748031497,
    "duration": 0.057692250000000556
  },
  {
    "name": "D2",
    "midi": 38,
    "time": 10.499989500000007,
    "velocity": 0.7874015748031497,
    "duration": 0.057692250000000556
  },
  {
    "name": "F#2",
    "midi": 42,
    "time": 10.499989500000007,
    "velocity": 0.7874015748031497,
    "duration": 0.057692250000000556
  },
  {
    "name": "D2",
    "midi": 38,
    "time": 10.615374000000008,
    "velocity": 0.7874015748031497,
    "duration": 0.057692250000000556
  },
  {
    "name": "F#2",
    "midi": 42,
    "time": 10.615374000000008,
    "velocity": 0.7874015748031497,
    "duration": 0.057692250000000556
  },
  {
    "name": "D2",
    "midi": 38,
    "time": 10.73075850000001,
    "velocity": 0.7874015748031497,
    "duration": 0.057692250000000556
  },
  {
    "name": "F#2",
    "midi": 42,
    "time": 10.73075850000001,
    "velocity": 0.7874015748031497,
    "duration": 0.057692250000000556
  },
  {
    "name": "D2",
    "midi": 38,
    "time": 10.84614300000001,
    "velocity": 0.7874015748031497,
    "duration": 0.057692250000000556
  },
  {
    "name": "F#2",
    "midi": 42,
    "time": 10.84614300000001,
    "velocity": 0.7874015748031497,
    "duration": 0.057692250000000556
  },
  {
    "name": "C2",
    "midi": 36,
    "time": 10.961527500000011,
    "velocity": 0.7874015748031497,
    "duration": 0.057692250000000556
  },
  {
    "name": "F#2",
    "midi": 42,
    "time": 10.961527500000011,
    "velocity": 0.7874015748031497,
    "duration": 0.057692250000000556
  },
  {
    "name": "C2",
    "midi": 36,
    "time": 11.076912000000013,
    "velocity": 0.7874015748031497,
    "duration": 0.057692250000000556
  },
  {
    "name": "F#2",
    "midi": 42,
    "time": 11.076912000000013,
    "velocity": 0.7874015748031497,
    "duration": 0.057692250000000556
  },
  {
    "name": "C2",
    "midi": 36,
    "time": 11.192296500000014,
    "velocity": 0.7874015748031497,
    "duration": 0.057692250000000556
  },
  {
    "name": "F#2",
    "midi": 42,
    "time": 11.192296500000014,
    "velocity": 0.7874015748031497,
    "duration": 0.057692250000000556
  },
  {
    "name": "C2",
    "midi": 36,
    "time": 11.307681000000015,
    "velocity": 0.7874015748031497,
    "duration": 0.057692250000000556
  },
  {
    "name": "F#2",
    "midi": 42,
    "time": 11.307681000000015,
    "velocity": 0.7874015748031497,
    "duration": 0.057692250000000556
  },
  {
    "name": "C2",
    "midi": 36,
    "time": 11.423065500000016,
    "velocity": 0.7874015748031497,
    "duration": 0.057692250000000556
  },
  {
    "name": "F#2",
    "midi": 42,
    "time": 11.423065500000016,
    "velocity": 0.7874015748031497,
    "duration": 0.057692250000000556
  },
  {
    "name": "F#2",
    "midi": 42,
    "time": 11.538450000000017,
    "velocity": 0.7874015748031497,
    "duration": 0.057692250000000556
  },
  {
    "name": "F#2",
    "midi": 42,
    "time": 11.653834500000018,
    "velocity": 0.7874015748031497,
    "duration": 0.057692250000000556
  },
  {
    "name": "D2",
    "midi": 38,
    "time": 11.76921900000002,
    "velocity": 0.7874015748031497,
    "duration": 0.057692250000000556
  },
  {
    "name": "F#2",
    "midi": 42,
    "time": 11.76921900000002,
    "velocity": 0.7874015748031497,
    "duration": 0.057692250000000556
  },
  {
    "name": "F#2",
    "midi": 42,
    "time": 11.88460350000002,
    "velocity": 0.7874015748031497,
    "duration": 0.057692250000000556
  },
  {
    "name": "C2",
    "midi": 36,
    "time": 11.999988000000021,
    "velocity": 0.7874015748031497,
    "duration": 0.057692250000000556
  },
  {
    "name": "F#2",
    "midi": 42,
    "time": 11.999988000000021,
    "velocity": 0.7874015748031497,
    "duration": 0.057692250000000556
  },
  {
    "name": "F#2",
    "midi": 42,
    "time": 12.115372500000023,
    "velocity": 0.7874015748031497,
    "duration": 0.057692250000000556
  },
  {
    "name": "D2",
    "midi": 38,
    "time": 12.230757000000024,
    "velocity": 0.7874015748031497,
    "duration": 0.057692250000000556
  },
  {
    "name": "F#2",
    "midi": 42,
    "time": 12.230757000000024,
    "velocity": 0.7874015748031497,
    "duration": 0.057692250000000556
  },
  {
    "name": "F#2",
    "midi": 42,
    "time": 12.346141500000025,
    "velocity": 0.7874015748031497,
    "duration": 0.057692250000000556
  },
  {
    "name": "D2",
    "midi": 38,
    "time": 12.461526000000026,
    "velocity": 0.7874015748031497,
    "duration": 0.057692250000000556
  },
  {
    "name": "F#2",
    "midi": 42,
    "time": 12.461526000000026,
    "velocity": 0.7874015748031497,
    "duration": 0.057692250000000556
  },
  {
    "name": "F#2",
    "midi": 42,
    "time": 12.576910500000027,
    "velocity": 0.7874015748031497,
    "duration": 0.057692250000000556
  },
  {
    "name": "F#2",
    "midi": 42,
    "time": 12.692295000000028,
    "velocity": 0.7874015748031497,
    "duration": 0.057692250000000556
  },
  {
    "name": "F#2",
    "midi": 42,
    "time": 12.80767950000003,
    "velocity": 0.7874015748031497,
    "duration": 0.057692250000000556
  },
  {
    "name": "C2",
    "midi": 36,
    "time": 12.92306400000003,
    "velocity": 0.7874015748031497,
    "duration": 0.057692250000000556
  },
  {
    "name": "F#2",
    "midi": 42,
    "time": 12.92306400000003,
    "velocity": 0.7874015748031497,
    "duration": 0.057692250000000556
  },
  {
    "name": "C2",
    "midi": 36,
    "time": 13.038448500000031,
    "velocity": 0.7874015748031497,
    "duration": 0.057692250000000556
  },
  {
    "name": "F#2",
    "midi": 42,
    "time": 13.038448500000031,
    "velocity": 0.7874015748031497,
    "duration": 0.057692250000000556
  },
  {
    "name": "D2",
    "midi": 38,
    "time": 13.153833000000033,
    "velocity": 0.7874015748031497,
    "duration": 0.057692250000000556
  },
  {
    "name": "F#2",
    "midi": 42,
    "time": 13.153833000000033,
    "velocity": 0.7874015748031497,
    "duration": 0.057692250000000556
  },
  {
    "name": "D2",
    "midi": 38,
    "time": 13.269217500000034,
    "velocity": 0.7874015748031497,
    "duration": 0.057692250000000556
  },
  {
    "name": "F#2",
    "midi": 42,
    "time": 13.269217500000034,
    "velocity": 0.7874015748031497,
    "duration": 0.057692250000000556
  },
  {
    "name": "D2",
    "midi": 38,
    "time": 13.384602000000035,
    "velocity": 0.7874015748031497,
    "duration": 0.057692250000000556
  },
  {
    "name": "F#2",
    "midi": 42,
    "time": 13.384602000000035,
    "velocity": 0.7874015748031497,
    "duration": 0.057692250000000556
  },
  {
    "name": "D2",
    "midi": 38,
    "time": 13.499986500000036,
    "velocity": 0.7874015748031497,
    "duration": 0.057692250000000556
  },
  {
    "name": "F#2",
    "midi": 42,
    "time": 13.499986500000036,
    "velocity": 0.7874015748031497,
    "duration": 0.057692250000000556
  },
  {
    "name": "F#2",
    "midi": 42,
    "time": 13.615371000000037,
    "velocity": 0.7874015748031497,
    "duration": 0.057692250000000556
  },
  {
    "name": "C2",
    "midi": 36,
    "time": 13.615371000000037,
    "velocity": 0.7874015748031497,
    "duration": 0.057692250000000556
  },
  {
    "name": "F#2",
    "midi": 42,
    "time": 13.730755500000038,
    "velocity": 0.7874015748031497,
    "duration": 0.057692250000000556
  },
  {
    "name": "C2",
    "midi": 36,
    "time": 13.730755500000038,
    "velocity": 0.7874015748031497,
    "duration": 0.057692250000000556
  },
  {
    "name": "C2",
    "midi": 36,
    "time": 13.84614000000004,
    "velocity": 0.7874015748031497,
    "duration": 0.057692250000000556
  },
  {
    "name": "F#2",
    "midi": 42,
    "time": 13.84614000000004,
    "velocity": 0.7874015748031497,
    "duration": 0.057692250000000556
  },
  {
    "name": "C2",
    "midi": 36,
    "time": 13.96152450000004,
    "velocity": 0.7874015748031497,
    "duration": 0.057692250000000556
  },
  {
    "name": "F#2",
    "midi": 42,
    "time": 13.96152450000004,
    "velocity": 0.7874015748031497,
    "duration": 0.057692250000000556
  },
  {
    "name": "F#2",
    "midi": 42,
    "time": 14.076909000000041,
    "velocity": 0.7874015748031497,
    "duration": 0.057692250000000556
  },
  {
    "name": "F#2",
    "midi": 42,
    "time": 14.192293500000043,
    "velocity": 0.7874015748031497,
    "duration": 0.057692250000000556
  },
  {
    "name": "D2",
    "midi": 38,
    "time": 14.307678000000044,
    "velocity": 0.7874015748031497,
    "duration": 0.057692250000000556
  },
  {
    "name": "F#2",
    "midi": 42,
    "time": 14.307678000000044,
    "velocity": 0.7874015748031497,
    "duration": 0.057692250000000556
  },
  {
    "name": "F#2",
    "midi": 42,
    "time": 14.423062500000045,
    "velocity": 0.7874015748031497,
    "duration": 0.057692250000000556
  },
  {
    "name": "F#2",
    "midi": 42,
    "time": 14.538447000000046,
    "velocity": 0.7874015748031497,
    "duration": 0.057692250000000556
  },
  {
    "name": "C2",
    "midi": 36,
    "time": 14.538447000000046,
    "velocity": 0.7874015748031497,
    "duration": 0.057692250000000556
  },
  {
    "name": "F#2",
    "midi": 42,
    "time": 14.653831500000047,
    "velocity": 0.7874015748031497,
    "duration": 0.057692250000000556
  },
  {
    "name": "D2",
    "midi": 38,
    "time": 14.769216000000048,
    "velocity": 0.7874015748031497,
    "duration": 0.057692250000000556
  },
  {
    "name": "F#2",
    "midi": 42,
    "time": 14.769216000000048,
    "velocity": 0.7874015748031497,
    "duration": 0.057692250000000556
  },
  {
    "name": "F#2",
    "midi": 42,
    "time": 14.88460050000005,
    "velocity": 0.7874015748031497,
    "duration": 0.057692250000000556
  },
  {
    "name": "D2",
    "midi": 38,
    "time": 14.99998500000005,
    "velocity": 0.7874015748031497,
    "duration": 0.057692250000000556
  },
  {
    "name": "F#2",
    "midi": 42,
    "time": 14.99998500000005,
    "velocity": 0.7874015748031497,
    "duration": 0.057692250000000556
  },
  {
    "name": "F#2",
    "midi": 42,
    "time": 15.115369500000051,
    "velocity": 0.7874015748031497,
    "duration": 0.057692250000000556
  },
  {
    "name": "F#2",
    "midi": 42,
    "time": 15.230754000000053,
    "velocity": 0.7874015748031497,
    "duration": 0.057692250000000556
  },
  {
    "name": "F#2",
    "midi": 42,
    "time": 15.346138500000054,
    "velocity": 0.7874015748031497,
    "duration": 0.057692250000000556
  },
  {
    "name": "F#2",
    "midi": 42,
    "time": 15.461523000000055,
    "velocity": 0.7874015748031497,
    "duration": 0.057692250000000556
  },
  {
    "name": "C2",
    "midi": 36,
    "time": 15.461523000000055,
    "velocity": 0.7874015748031497,
    "duration": 0.057692250000000556
  },
  {
    "name": "F#2",
    "midi": 42,
    "time": 15.576907500000056,
    "velocity": 0.7874015748031497,
    "duration": 0.057692250000000556
  },
  {
    "name": "C2",
    "midi": 36,
    "time": 15.576907500000056,
    "velocity": 0.7874015748031497,
    "duration": 0.057692250000000556
  },
  {
    "name": "D2",
    "midi": 38,
    "time": 15.692292000000057,
    "velocity": 0.7874015748031497,
    "duration": 0.057692250000000556
  },
  {
    "name": "F#2",
    "midi": 42,
    "time": 15.692292000000057,
    "velocity": 0.7874015748031497,
    "duration": 0.057692250000000556
  },
  {
    "name": "D2",
    "midi": 38,
    "time": 15.807676500000058,
    "velocity": 0.7874015748031497,
    "duration": 0.057692250000000556
  },
  {
    "name": "F#2",
    "midi": 42,
    "time": 15.807676500000058,
    "velocity": 0.7874015748031497,
    "duration": 0.057692250000000556
  },
  {
    "name": "D2",
    "midi": 38,
    "time": 15.92306100000006,
    "velocity": 0.7874015748031497,
    "duration": 0.057692250000000556
  },
  {
    "name": "F#2",
    "midi": 42,
    "time": 15.92306100000006,
    "velocity": 0.7874015748031497,
    "duration": 0.057692250000000556
  },
  {
    "name": "D2",
    "midi": 38,
    "time": 16.03844550000006,
    "velocity": 0.7874015748031497,
    "duration": 0.05769224999999878
  },
  {
    "name": "F#2",
    "midi": 42,
    "time": 16.03844550000006,
    "velocity": 0.7874015748031497,
    "duration": 0.05769224999999878
  },
  {
    "name": "C2",
    "midi": 36,
    "time": 16.153830000000056,
    "velocity": 0.7874015748031497,
    "duration": 0.05769224999999878
  },
  {
    "name": "F#2",
    "midi": 42,
    "time": 16.153830000000056,
    "velocity": 0.7874015748031497,
    "duration": 0.05769224999999878
  },
  {
    "name": "F#2",
    "midi": 42,
    "time": 16.269214500000054,
    "velocity": 0.7874015748031497,
    "duration": 0.05769224999999878
  },
  {
    "name": "F#2",
    "midi": 42,
    "time": 16.38459900000005,
    "velocity": 0.7874015748031497,
    "duration": 0.05769224999999878
  },
  {
    "name": "C2",
    "midi": 36,
    "time": 16.49998350000005,
    "velocity": 0.7874015748031497,
    "duration": 0.05769224999999878
  },
  {
    "name": "F#2",
    "midi": 42,
    "time": 16.49998350000005,
    "velocity": 0.7874015748031497,
    "duration": 0.05769224999999878
  },
  {
    "name": "F#2",
    "midi": 42,
    "time": 16.615368000000046,
    "velocity": 0.7874015748031497,
    "duration": 0.05769224999999878
  },
  {
    "name": "F#2",
    "midi": 42,
    "time": 16.730752500000044,
    "velocity": 0.7874015748031497,
    "duration": 0.05769224999999878
  },
  {
    "name": "D2",
    "midi": 38,
    "time": 16.84613700000004,
    "velocity": 0.7874015748031497,
    "duration": 0.05769224999999878
  },
  {
    "name": "F#2",
    "midi": 42,
    "time": 16.84613700000004,
    "velocity": 0.7874015748031497,
    "duration": 0.05769224999999878
  },
  {
    "name": "F#2",
    "midi": 42,
    "time": 16.96152150000004,
    "velocity": 0.7874015748031497,
    "duration": 0.05769224999999878
  },
  {
    "name": "C2",
    "midi": 36,
    "time": 17.076906000000037,
    "velocity": 0.7874015748031497,
    "duration": 0.05769224999999878
  },
  {
    "name": "F#2",
    "midi": 42,
    "time": 17.076906000000037,
    "velocity": 0.7874015748031497,
    "duration": 0.05769224999999878
  },
  {
    "name": "F#2",
    "midi": 42,
    "time": 17.192290500000034,
    "velocity": 0.7874015748031497,
    "duration": 0.05769224999999878
  },
  {
    "name": "C2",
    "midi": 36,
    "time": 17.30767500000003,
    "velocity": 0.7874015748031497,
    "duration": 0.05769224999999878
  },
  {
    "name": "F#2",
    "midi": 42,
    "time": 17.30767500000003,
    "velocity": 0.7874015748031497,
    "duration": 0.05769224999999878
  },
  {
    "name": "F#2",
    "midi": 42,
    "time": 17.42305950000003,
    "velocity": 0.7874015748031497,
    "duration": 0.05769224999999878
  },
  {
    "name": "F#2",
    "midi": 42,
    "time": 17.538444000000027,
    "velocity": 0.7874015748031497,
    "duration": 0.05769224999999878
  },
  {
    "name": "C2",
    "midi": 36,
    "time": 17.653828500000024,
    "velocity": 0.7874015748031497,
    "duration": 0.05769224999999878
  },
  {
    "name": "F#2",
    "midi": 42,
    "time": 17.653828500000024,
    "velocity": 0.7874015748031497,
    "duration": 0.05769224999999878
  },
  {
    "name": "F#2",
    "midi": 42,
    "time": 17.769213000000022,
    "velocity": 0.7874015748031497,
    "duration": 0.05769224999999878
  },
  {
    "name": "F#2",
    "midi": 42,
    "time": 17.88459750000002,
    "velocity": 0.7874015748031497,
    "duration": 0.05769224999999878
  },
  {
    "name": "D2",
    "midi": 38,
    "time": 17.999982000000017,
    "velocity": 0.7874015748031497,
    "duration": 0.05769224999999878
  },
  {
    "name": "F#2",
    "midi": 42,
    "time": 17.999982000000017,
    "velocity": 0.7874015748031497,
    "duration": 0.05769224999999878
  },
  {
    "name": "F#2",
    "midi": 42,
    "time": 18.115366500000015,
    "velocity": 0.7874015748031497,
    "duration": 0.05769224999999878
  },
  {
    "name": "C2",
    "midi": 36,
    "time": 18.230751000000012,
    "velocity": 0.7874015748031497,
    "duration": 0.05769224999999878
  },
  {
    "name": "F#2",
    "midi": 42,
    "time": 18.230751000000012,
    "velocity": 0.7874015748031497,
    "duration": 0.05769224999999878
  },
  {
    "name": "F#2",
    "midi": 42,
    "time": 18.34613550000001,
    "velocity": 0.7874015748031497,
    "duration": 0.05769224999999878
  },
  {
    "name": "C2",
    "midi": 36,
    "time": 18.461520000000007,
    "velocity": 0.7874015748031497,
    "duration": 0.05769224999999878
  },
  {
    "name": "F#2",
    "midi": 42,
    "time": 18.461520000000007,
    "velocity": 0.7874015748031497,
    "duration": 0.05769224999999878
  },
  {
    "name": "F#2",
    "midi": 42,
    "time": 18.576904500000005,
    "velocity": 0.7874015748031497,
    "duration": 0.05769224999999878
  },
  {
    "name": "F#2",
    "midi": 42,
    "time": 18.692289000000002,
    "velocity": 0.7874015748031497,
    "duration": 0.05769224999999878
  },
  {
    "name": "C2",
    "midi": 36,
    "time": 18.8076735,
    "velocity": 0.7874015748031497,
    "duration": 0.05769224999999878
  },
  {
    "name": "F#2",
    "midi": 42,
    "time": 18.8076735,
    "velocity": 0.7874015748031497,
    "duration": 0.05769224999999878
  },
  {
    "name": "F#2",
    "midi": 42,
    "time": 18.923057999999997,
    "velocity": 0.7874015748031497,
    "duration": 0.05769224999999878
  },
  {
    "name": "F#2",
    "midi": 42,
    "time": 19.038442499999995,
    "velocity": 0.7874015748031497,
    "duration": 0.05769224999999878
  },
  {
    "name": "D2",
    "midi": 38,
    "time": 19.153826999999993,
    "velocity": 0.7874015748031497,
    "duration": 0.05769224999999878
  },
  {
    "name": "F#2",
    "midi": 42,
    "time": 19.153826999999993,
    "velocity": 0.7874015748031497,
    "duration": 0.05769224999999878
  },
  {
    "name": "D2",
    "midi": 38,
    "time": 19.26921149999999,
    "velocity": 0.7874015748031497,
    "duration": 0.05769224999999878
  },
  {
    "name": "F#2",
    "midi": 42,
    "time": 19.26921149999999,
    "velocity": 0.7874015748031497,
    "duration": 0.05769224999999878
  },
  {
    "name": "D2",
    "midi": 38,
    "time": 19.384595999999988,
    "velocity": 0.7874015748031497,
    "duration": 0.05769224999999878
  },
  {
    "name": "F#2",
    "midi": 42,
    "time": 19.384595999999988,
    "velocity": 0.7874015748031497,
    "duration": 0.05769224999999878
  },
  {
    "name": "D2",
    "midi": 38,
    "time": 19.499980499999985,
    "velocity": 0.7874015748031497,
    "duration": 0.05769224999999878
  },
  {
    "name": "F#2",
    "midi": 42,
    "time": 19.499980499999985,
    "velocity": 0.7874015748031497,
    "duration": 0.05769224999999878
  },
  {
    "name": "C2",
    "midi": 36,
    "time": 19.615364999999983,
    "velocity": 0.7874015748031497,
    "duration": 0.05769224999999878
  },
  {
    "name": "F#2",
    "midi": 42,
    "time": 19.615364999999983,
    "velocity": 0.7874015748031497,
    "duration": 0.05769224999999878
  },
  {
    "name": "C2",
    "midi": 36,
    "time": 19.73074949999998,
    "velocity": 0.7874015748031497,
    "duration": 0.05769224999999878
  },
  {
    "name": "F#2",
    "midi": 42,
    "time": 19.73074949999998,
    "velocity": 0.7874015748031497,
    "duration": 0.05769224999999878
  },
  {
    "name": "C2",
    "midi": 36,
    "time": 19.846133999999978,
    "velocity": 0.7874015748031497,
    "duration": 0.05769224999999878
  },
  {
    "name": "F#2",
    "midi": 42,
    "time": 19.846133999999978,
    "velocity": 0.7874015748031497,
    "duration": 0.05769224999999878
  },
  {
    "name": "C2",
    "midi": 36,
    "time": 19.961518499999976,
    "velocity": 0.7874015748031497,
    "duration": 0.05769224999999878
  },
  {
    "name": "F#2",
    "midi": 42,
    "time": 19.961518499999976,
    "velocity": 0.7874015748031497,
    "duration": 0.05769224999999878
  },
  {
    "name": "C2",
    "midi": 36,
    "time": 20.076902999999973,
    "velocity": 0.7874015748031497,
    "duration": 0.05769224999999878
  },
  {
    "name": "F#2",
    "midi": 42,
    "time": 20.076902999999973,
    "velocity": 0.7874015748031497,
    "duration": 0.05769224999999878
  },
  {
    "name": "C2",
    "midi": 36,
    "time": 20.19228749999997,
    "velocity": 0.7874015748031497,
    "duration": 0.05769224999999878
  },
  {
    "name": "F#2",
    "midi": 42,
    "time": 20.19228749999997,
    "velocity": 0.7874015748031497,
    "duration": 0.05769224999999878
  },
  {
    "name": "D2",
    "midi": 38,
    "time": 20.307671999999968,
    "velocity": 0.7874015748031497,
    "duration": 0.05769224999999878
  },
  {
    "name": "F#2",
    "midi": 42,
    "time": 20.307671999999968,
    "velocity": 0.7874015748031497,
    "duration": 0.05769224999999878
  },
  {
    "name": "D2",
    "midi": 38,
    "time": 20.423056499999966,
    "velocity": 0.7874015748031497,
    "duration": 0.05769224999999878
  },
  {
    "name": "F#2",
    "midi": 42,
    "time": 20.423056499999966,
    "velocity": 0.7874015748031497,
    "duration": 0.05769224999999878
  },
  {
    "name": "D2",
    "midi": 38,
    "time": 20.538440999999963,
    "velocity": 0.7874015748031497,
    "duration": 0.05769224999999878
  },
  {
    "name": "F#2",
    "midi": 42,
    "time": 20.538440999999963,
    "velocity": 0.7874015748031497,
    "duration": 0.05769224999999878
  },
  {
    "name": "C2",
    "midi": 36,
    "time": 20.65382549999996,
    "velocity": 0.7874015748031497,
    "duration": 0.05769224999999878
  },
  {
    "name": "F#2",
    "midi": 42,
    "time": 20.65382549999996,
    "velocity": 0.7874015748031497,
    "duration": 0.05769224999999878
  },
  {
    "name": "D2",
    "midi": 38,
    "time": 20.76920999999996,
    "velocity": 0.7874015748031497,
    "duration": 0.05769224999999878
  },
  {
    "name": "F#2",
    "midi": 42,
    "time": 20.76920999999996,
    "velocity": 0.7874015748031497,
    "duration": 0.05769224999999878
  },
  {
    "name": "C2",
    "midi": 36,
    "time": 20.884594499999956,
    "velocity": 0.7874015748031497,
    "duration": 0.05769224999999878
  },
  {
    "name": "F#2",
    "midi": 42,
    "time": 20.884594499999956,
    "velocity": 0.7874015748031497,
    "duration": 0.05769224999999878
  },
  {
    "name": "F#2",
    "midi": 42,
    "time": 20.999978999999954,
    "velocity": 0.7874015748031497,
    "duration": 0.05769224999999878
  },
  {
    "name": "C2",
    "midi": 36,
    "time": 20.999978999999954,
    "velocity": 0.7874015748031497,
    "duration": 0.05769224999999878
  },
  {
    "name": "F#2",
    "midi": 42,
    "time": 21.11536349999995,
    "velocity": 0.7874015748031497,
    "duration": 0.05769224999999878
  },
  {
    "name": "C2",
    "midi": 36,
    "time": 21.11536349999995,
    "velocity": 0.7874015748031497,
    "duration": 0.05769224999999878
  },
  {
    "name": "C2",
    "midi": 36,
    "time": 21.23074799999995,
    "velocity": 0.7874015748031497,
    "duration": 0.05769224999999878
  },
  {
    "name": "F#2",
    "midi": 42,
    "time": 21.23074799999995,
    "velocity": 0.7874015748031497,
    "duration": 0.05769224999999878
  },
  {
    "name": "C2",
    "midi": 36,
    "time": 21.346132499999946,
    "velocity": 0.7874015748031497,
    "duration": 0.05769224999999878
  },
  {
    "name": "F#2",
    "midi": 42,
    "time": 21.346132499999946,
    "velocity": 0.7874015748031497,
    "duration": 0.05769224999999878
  },
  {
    "name": "C2",
    "midi": 36,
    "time": 21.461516999999944,
    "velocity": 0.7874015748031497,
    "duration": 0.05769224999999878
  },
  {
    "name": "F#2",
    "midi": 42,
    "time": 21.461516999999944,
    "velocity": 0.7874015748031497,
    "duration": 0.05769224999999878
  },
  {
    "name": "C2",
    "midi": 36,
    "time": 21.57690149999994,
    "velocity": 0.7874015748031497,
    "duration": 0.05769224999999878
  },
  {
    "name": "F#2",
    "midi": 42,
    "time": 21.57690149999994,
    "velocity": 0.7874015748031497,
    "duration": 0.05769224999999878
  },
  {
    "name": "F#2",
    "midi": 42,
    "time": 21.69228599999994,
    "velocity": 0.7874015748031497,
    "duration": 0.05769224999999878
  },
  {
    "name": "D2",
    "midi": 38,
    "time": 21.69228599999994,
    "velocity": 0.7874015748031497,
    "duration": 0.05769224999999878
  },
  {
    "name": "F#2",
    "midi": 42,
    "time": 21.807670499999936,
    "velocity": 0.7874015748031497,
    "duration": 0.05769224999999878
  },
  {
    "name": "D2",
    "midi": 38,
    "time": 21.807670499999936,
    "velocity": 0.7874015748031497,
    "duration": 0.05769224999999878
  },
  {
    "name": "F#2",
    "midi": 42,
    "time": 21.923054999999934,
    "velocity": 0.7874015748031497,
    "duration": 0.05769224999999878
  },
  {
    "name": "D2",
    "midi": 38,
    "time": 21.923054999999934,
    "velocity": 0.7874015748031497,
    "duration": 0.05769224999999878
  },
  {
    "name": "F#2",
    "midi": 42,
    "time": 22.03843949999993,
    "velocity": 0.7874015748031497,
    "duration": 0.05769224999999878
  },
  {
    "name": "C2",
    "midi": 36,
    "time": 22.03843949999993,
    "velocity": 0.7874015748031497,
    "duration": 0.05769224999999878
  },
  {
    "name": "D2",
    "midi": 38,
    "time": 22.15382399999993,
    "velocity": 0.7874015748031497,
    "duration": 0.05769224999999878
  },
  {
    "name": "F#2",
    "midi": 42,
    "time": 22.15382399999993,
    "velocity": 0.7874015748031497,
    "duration": 0.05769224999999878
  },
  {
    "name": "C2",
    "midi": 36,
    "time": 22.269208499999927,
    "velocity": 0.7874015748031497,
    "duration": 0.05769224999999878
  },
  {
    "name": "F#2",
    "midi": 42,
    "time": 22.269208499999927,
    "velocity": 0.7874015748031497,
    "duration": 0.05769224999999878
  },
  {
    "name": "F#2",
    "midi": 42,
    "time": 22.384592999999924,
    "velocity": 0.7874015748031497,
    "duration": 0.05769224999999878
  },
  {
    "name": "C2",
    "midi": 36,
    "time": 22.384592999999924,
    "velocity": 0.7874015748031497,
    "duration": 0.05769224999999878
  },
  {
    "name": "F#2",
    "midi": 42,
    "time": 22.499977499999922,
    "velocity": 0.7874015748031497,
    "duration": 0.05769224999999878
  },
  {
    "name": "C2",
    "midi": 36,
    "time": 22.499977499999922,
    "velocity": 0.7874015748031497,
    "duration": 0.05769224999999878
  },
  {
    "name": "F#2",
    "midi": 42,
    "time": 22.61536199999992,
    "velocity": 0.7874015748031497,
    "duration": 0.05769224999999878
  },
  {
    "name": "C2",
    "midi": 36,
    "time": 22.61536199999992,
    "velocity": 0.7874015748031497,
    "duration": 0.05769224999999878
  },
  {
    "name": "F#2",
    "midi": 42,
    "time": 22.730746499999917,
    "velocity": 0.7874015748031497,
    "duration": 0.05769224999999878
  },
  {
    "name": "C2",
    "midi": 36,
    "time": 22.730746499999917,
    "velocity": 0.7874015748031497,
    "duration": 0.05769224999999878
  },
  {
    "name": "F#2",
    "midi": 42,
    "time": 22.846130999999914,
    "velocity": 0.7874015748031497,
    "duration": 0.05769224999999878
  },
  {
    "name": "C2",
    "midi": 36,
    "time": 22.846130999999914,
    "velocity": 0.7874015748031497,
    "duration": 0.05769224999999878
  },
  {
    "name": "F#2",
    "midi": 42,
    "time": 22.961515499999912,
    "velocity": 0.7874015748031497,
    "duration": 0.05769224999999878
  },
  {
    "name": "C2",
    "midi": 36,
    "time": 22.961515499999912,
    "velocity": 0.7874015748031497,
    "duration": 0.05769224999999878
  },
  {
    "name": "F#2",
    "midi": 42,
    "time": 23.07689999999991,
    "velocity": 0.7874015748031497,
    "duration": 0.05769224999999878
  },
  {
    "name": "D2",
    "midi": 38,
    "time": 23.07689999999991,
    "velocity": 0.7874015748031497,
    "duration": 0.05769224999999878
  },
  {
    "name": "F#2",
    "midi": 42,
    "time": 23.192284499999907,
    "velocity": 0.7874015748031497,
    "duration": 0.05769224999999878
  },
  {
    "name": "D2",
    "midi": 38,
    "time": 23.192284499999907,
    "velocity": 0.7874015748031497,
    "duration": 0.05769224999999878
  },
  {
    "name": "F#2",
    "midi": 42,
    "time": 23.307668999999905,
    "velocity": 0.7874015748031497,
    "duration": 0.05769224999999878
  },
  {
    "name": "D2",
    "midi": 38,
    "time": 23.307668999999905,
    "velocity": 0.7874015748031497,
    "duration": 0.05769224999999878
  },
  {
    "name": "F#2",
    "midi": 42,
    "time": 23.423053499999902,
    "velocity": 0.7874015748031497,
    "duration": 0.05769224999999878
  },
  {
    "name": "C2",
    "midi": 36,
    "time": 23.423053499999902,
    "velocity": 0.7874015748031497,
    "duration": 0.05769224999999878
  },
  {
    "name": "F#2",
    "midi": 42,
    "time": 23.5384379999999,
    "velocity": 0.7874015748031497,
    "duration": 0.05769224999999878
  },
  {
    "name": "D2",
    "midi": 38,
    "time": 23.5384379999999,
    "velocity": 0.7874015748031497,
    "duration": 0.05769224999999878
  },
  {
    "name": "F#2",
    "midi": 42,
    "time": 23.653822499999897,
    "velocity": 0.7874015748031497,
    "duration": 0.05769224999999878
  },
  {
    "name": "C2",
    "midi": 36,
    "time": 23.653822499999897,
    "velocity": 0.7874015748031497,
    "duration": 0.05769224999999878
  },
  {
    "name": "F#2",
    "midi": 42,
    "time": 23.769206999999895,
    "velocity": 0.7874015748031497,
    "duration": 0.05769224999999878
  },
  {
    "name": "D2",
    "midi": 38,
    "time": 23.769206999999895,
    "velocity": 0.7874015748031497,
    "duration": 0.05769224999999878
  },
  {
    "name": "F#2",
    "midi": 42,
    "time": 23.884591499999893,
    "velocity": 0.7874015748031497,
    "duration": 0.05769224999999878
  },
  {
    "name": "D2",
    "midi": 38,
    "time": 23.884591499999893,
    "velocity": 0.7874015748031497,
    "duration": 0.05769224999999878
  },
  {
    "name": "D2",
    "midi": 38,
    "time": 23.99997599999989,
    "velocity": 0.7874015748031497,
    "duration": 0.05769224999999878
  },
  {
    "name": "F#2",
    "midi": 42,
    "time": 23.99997599999989,
    "velocity": 0.7874015748031497,
    "duration": 0.05769224999999878
  },
  {
    "name": "D2",
    "midi": 38,
    "time": 24.115360499999888,
    "velocity": 0.7874015748031497,
    "duration": 0.05769224999999878
  },
  {
    "name": "F#2",
    "midi": 42,
    "time": 24.115360499999888,
    "velocity": 0.7874015748031497,
    "duration": 0.05769224999999878
  },
  {
    "name": "D2",
    "midi": 38,
    "time": 24.230744999999885,
    "velocity": 0.7874015748031497,
    "duration": 0.05769224999999878
  },
  {
    "name": "F#2",
    "midi": 42,
    "time": 24.230744999999885,
    "velocity": 0.7874015748031497,
    "duration": 0.05769224999999878
  },
  {
    "name": "D2",
    "midi": 38,
    "time": 24.346129499999883,
    "velocity": 0.7874015748031497,
    "duration": 0.05769224999999878
  },
  {
    "name": "F#2",
    "midi": 42,
    "time": 24.346129499999883,
    "velocity": 0.7874015748031497,
    "duration": 0.05769224999999878
  },
  {
    "name": "F#2",
    "midi": 42,
    "time": 24.46151399999988,
    "velocity": 0.7874015748031497,
    "duration": 0.05769224999999878
  },
  {
    "name": "D2",
    "midi": 38,
    "time": 24.46151399999988,
    "velocity": 0.7874015748031497,
    "duration": 0.05769224999999878
  },
  {
    "name": "D2",
    "midi": 38,
    "time": 24.576898499999878,
    "velocity": 0.7874015748031497,
    "duration": 0.05769224999999878
  },
  {
    "name": "F#2",
    "midi": 42,
    "time": 24.576898499999878,
    "velocity": 0.7874015748031497,
    "duration": 0.05769224999999878
  },
  {
    "name": "D2",
    "midi": 38,
    "time": 24.692282999999875,
    "velocity": 0.7874015748031497,
    "duration": 0.05769224999999878
  },
  {
    "name": "F#2",
    "midi": 42,
    "time": 24.692282999999875,
    "velocity": 0.7874015748031497,
    "duration": 0.05769224999999878
  },
  {
    "name": "F#2",
    "midi": 42,
    "time": 24.807667499999873,
    "velocity": 0.7874015748031497,
    "duration": 0.05769224999999878
  },
  {
    "name": "D2",
    "midi": 38,
    "time": 24.807667499999873,
    "velocity": 0.7874015748031497,
    "duration": 0.05769224999999878
  },
  {
    "name": "D2",
    "midi": 38,
    "time": 24.92305199999987,
    "velocity": 0.7874015748031497,
    "duration": 0.05769224999999878
  },
  {
    "name": "F#2",
    "midi": 42,
    "time": 24.92305199999987,
    "velocity": 0.7874015748031497,
    "duration": 0.05769224999999878
  },
  {
    "name": "D2",
    "midi": 38,
    "time": 25.038436499999868,
    "velocity": 0.7874015748031497,
    "duration": 0.05769224999999878
  },
  {
    "name": "F#2",
    "midi": 42,
    "time": 25.038436499999868,
    "velocity": 0.7874015748031497,
    "duration": 0.05769224999999878
  },
  {
    "name": "F#2",
    "midi": 42,
    "time": 25.153820999999866,
    "velocity": 0.7874015748031497,
    "duration": 0.05769224999999878
  },
  {
    "name": "C2",
    "midi": 36,
    "time": 25.153820999999866,
    "velocity": 0.7874015748031497,
    "duration": 0.05769224999999878
  },
  {
    "name": "F#2",
    "midi": 42,
    "time": 25.269205499999863,
    "velocity": 0.7874015748031497,
    "duration": 0.05769224999999878
  },
  {
    "name": "C2",
    "midi": 36,
    "time": 25.269205499999863,
    "velocity": 0.7874015748031497,
    "duration": 0.05769224999999878
  },
  {
    "name": "F#2",
    "midi": 42,
    "time": 25.38458999999986,
    "velocity": 0.7874015748031497,
    "duration": 0.05769224999999878
  },
  {
    "name": "C2",
    "midi": 36,
    "time": 25.38458999999986,
    "velocity": 0.7874015748031497,
    "duration": 0.05769224999999878
  },
  {
    "name": "F#2",
    "midi": 42,
    "time": 25.49997449999986,
    "velocity": 0.7874015748031497,
    "duration": 0.05769224999999878
  },
  {
    "name": "C2",
    "midi": 36,
    "time": 25.49997449999986,
    "velocity": 0.7874015748031497,
    "duration": 0.05769224999999878
  },
  {
    "name": "F#2",
    "midi": 42,
    "time": 25.615358999999856,
    "velocity": 0.7874015748031497,
    "duration": 0.05769224999999878
  },
  {
    "name": "C2",
    "midi": 36,
    "time": 25.615358999999856,
    "velocity": 0.7874015748031497,
    "duration": 0.05769224999999878
  },
  {
    "name": "F#2",
    "midi": 42,
    "time": 25.730743499999853,
    "velocity": 0.7874015748031497,
    "duration": 0.05769224999999878
  },
  {
    "name": "C2",
    "midi": 36,
    "time": 25.730743499999853,
    "velocity": 0.7874015748031497,
    "duration": 0.05769224999999878
  },
  {
    "name": "F#2",
    "midi": 42,
    "time": 25.84612799999985,
    "velocity": 0.7874015748031497,
    "duration": 0.05769224999999878
  },
  {
    "name": "D2",
    "midi": 38,
    "time": 25.84612799999985,
    "velocity": 0.7874015748031497,
    "duration": 0.05769224999999878
  },
  {
    "name": "F#2",
    "midi": 42,
    "time": 25.96151249999985,
    "velocity": 0.7874015748031497,
    "duration": 0.05769224999999878
  },
  {
    "name": "D2",
    "midi": 38,
    "time": 25.96151249999985,
    "velocity": 0.7874015748031497,
    "duration": 0.05769224999999878
  },
  {
    "name": "F#2",
    "midi": 42,
    "time": 26.076896999999846,
    "velocity": 0.7874015748031497,
    "duration": 0.05769224999999878
  },
  {
    "name": "D2",
    "midi": 38,
    "time": 26.076896999999846,
    "velocity": 0.7874015748031497,
    "duration": 0.05769224999999878
  },
  {
    "name": "F#2",
    "midi": 42,
    "time": 26.192281499999844,
    "velocity": 0.7874015748031497,
    "duration": 0.05769224999999878
  },
  {
    "name": "C2",
    "midi": 36,
    "time": 26.192281499999844,
    "velocity": 0.7874015748031497,
    "duration": 0.05769224999999878
  },
  {
    "name": "F#2",
    "midi": 42,
    "time": 26.30766599999984,
    "velocity": 0.7874015748031497,
    "duration": 0.05769224999999878
  },
  {
    "name": "D2",
    "midi": 38,
    "time": 26.30766599999984,
    "velocity": 0.7874015748031497,
    "duration": 0.05769224999999878
  },
  {
    "name": "F#2",
    "midi": 42,
    "time": 26.42305049999984,
    "velocity": 0.7874015748031497,
    "duration": 0.05769224999999878
  },
  {
    "name": "C2",
    "midi": 36,
    "time": 26.42305049999984,
    "velocity": 0.7874015748031497,
    "duration": 0.05769224999999878
  },
  {
    "name": "F#2",
    "midi": 42,
    "time": 26.538434999999836,
    "velocity": 0.7874015748031497,
    "duration": 0.05769224999999878
  },
  {
    "name": "C2",
    "midi": 36,
    "time": 26.538434999999836,
    "velocity": 0.7874015748031497,
    "duration": 0.05769224999999878
  },
  {
    "name": "F#2",
    "midi": 42,
    "time": 26.653819499999834,
    "velocity": 0.7874015748031497,
    "duration": 0.05769224999999878
  },
  {
    "name": "C2",
    "midi": 36,
    "time": 26.653819499999834,
    "velocity": 0.7874015748031497,
    "duration": 0.05769224999999878
  },
  {
    "name": "C2",
    "midi": 36,
    "time": 26.76920399999983,
    "velocity": 0.7874015748031497,
    "duration": 0.05769224999999878
  },
  {
    "name": "F#2",
    "midi": 42,
    "time": 26.76920399999983,
    "velocity": 0.7874015748031497,
    "duration": 0.05769224999999878
  },
  {
    "name": "C2",
    "midi": 36,
    "time": 26.88458849999983,
    "velocity": 0.7874015748031497,
    "duration": 0.05769224999999878
  },
  {
    "name": "F#2",
    "midi": 42,
    "time": 26.88458849999983,
    "velocity": 0.7874015748031497,
    "duration": 0.05769224999999878
  },
  {
    "name": "C2",
    "midi": 36,
    "time": 26.999972999999827,
    "velocity": 0.7874015748031497,
    "duration": 0.05769224999999878
  },
  {
    "name": "F#2",
    "midi": 42,
    "time": 26.999972999999827,
    "velocity": 0.7874015748031497,
    "duration": 0.05769224999999878
  },
  {
    "name": "C2",
    "midi": 36,
    "time": 27.115357499999824,
    "velocity": 0.7874015748031497,
    "duration": 0.05769224999999878
  },
  {
    "name": "F#2",
    "midi": 42,
    "time": 27.115357499999824,
    "velocity": 0.7874015748031497,
    "duration": 0.05769224999999878
  },
  {
    "name": "F#2",
    "midi": 42,
    "time": 27.23074199999982,
    "velocity": 0.7874015748031497,
    "duration": 0.05769224999999878
  },
  {
    "name": "D2",
    "midi": 38,
    "time": 27.23074199999982,
    "velocity": 0.7874015748031497,
    "duration": 0.05769224999999878
  },
  {
    "name": "F#2",
    "midi": 42,
    "time": 27.34612649999982,
    "velocity": 0.7874015748031497,
    "duration": 0.05769224999999878
  },
  {
    "name": "D2",
    "midi": 38,
    "time": 27.34612649999982,
    "velocity": 0.7874015748031497,
    "duration": 0.05769224999999878
  },
  {
    "name": "F#2",
    "midi": 42,
    "time": 27.461510999999817,
    "velocity": 0.7874015748031497,
    "duration": 0.05769224999999878
  },
  {
    "name": "D2",
    "midi": 38,
    "time": 27.461510999999817,
    "velocity": 0.7874015748031497,
    "duration": 0.05769224999999878
  },
  {
    "name": "F#2",
    "midi": 42,
    "time": 27.576895499999814,
    "velocity": 0.7874015748031497,
    "duration": 0.05769224999999878
  },
  {
    "name": "D2",
    "midi": 38,
    "time": 27.576895499999814,
    "velocity": 0.7874015748031497,
    "duration": 0.05769224999999878
  },
  {
    "name": "D2",
    "midi": 38,
    "time": 27.692279999999812,
    "velocity": 0.7874015748031497,
    "duration": 0.05769224999999878
  },
  {
    "name": "F#2",
    "midi": 42,
    "time": 27.692279999999812,
    "velocity": 0.7874015748031497,
    "duration": 0.05769224999999878
  },
  {
    "name": "D2",
    "midi": 38,
    "time": 27.80766449999981,
    "velocity": 0.7874015748031497,
    "duration": 0.05769224999999878
  },
  {
    "name": "F#2",
    "midi": 42,
    "time": 27.80766449999981,
    "velocity": 0.7874015748031497,
    "duration": 0.05769224999999878
  },
  {
    "name": "C2",
    "midi": 36,
    "time": 27.923048999999807,
    "velocity": 0.7874015748031497,
    "duration": 0.05769224999999878
  },
  {
    "name": "F#2",
    "midi": 42,
    "time": 27.923048999999807,
    "velocity": 0.7874015748031497,
    "duration": 0.05769224999999878
  },
  {
    "name": "C2",
    "midi": 36,
    "time": 28.038433499999805,
    "velocity": 0.7874015748031497,
    "duration": 0.05769224999999878
  },
  {
    "name": "F#2",
    "midi": 42,
    "time": 28.038433499999805,
    "velocity": 0.7874015748031497,
    "duration": 0.05769224999999878
  },
  {
    "name": "C2",
    "midi": 36,
    "time": 28.153817999999802,
    "velocity": 0.7874015748031497,
    "duration": 0.05769224999999878
  },
  {
    "name": "F#2",
    "midi": 42,
    "time": 28.153817999999802,
    "velocity": 0.7874015748031497,
    "duration": 0.05769224999999878
  },
  {
    "name": "D2",
    "midi": 38,
    "time": 28.2692024999998,
    "velocity": 0.7874015748031497,
    "duration": 0.05769224999999878
  },
  {
    "name": "F#2",
    "midi": 42,
    "time": 28.2692024999998,
    "velocity": 0.7874015748031497,
    "duration": 0.05769224999999878
  },
  {
    "name": "C2",
    "midi": 36,
    "time": 28.384586999999797,
    "velocity": 0.7874015748031497,
    "duration": 0.05769224999999878
  },
  {
    "name": "F#2",
    "midi": 42,
    "time": 28.384586999999797,
    "velocity": 0.7874015748031497,
    "duration": 0.05769224999999878
  },
  {
    "name": "C2",
    "midi": 36,
    "time": 28.499971499999795,
    "velocity": 0.7874015748031497,
    "duration": 0.05769224999999878
  },
  {
    "name": "F#2",
    "midi": 42,
    "time": 28.499971499999795,
    "velocity": 0.7874015748031497,
    "duration": 0.05769224999999878
  },
  {
    "name": "C2",
    "midi": 36,
    "time": 28.615355999999792,
    "velocity": 0.7874015748031497,
    "duration": 0.05769224999999878
  },
  {
    "name": "F#2",
    "midi": 42,
    "time": 28.615355999999792,
    "velocity": 0.7874015748031497,
    "duration": 0.05769224999999878
  },
  {
    "name": "F#2",
    "midi": 42,
    "time": 28.73074049999979,
    "velocity": 0.7874015748031497,
    "duration": 0.05769224999999878
  },
  {
    "name": "C2",
    "midi": 36,
    "time": 28.846124999999788,
    "velocity": 0.7874015748031497,
    "duration": 0.05769224999999878
  },
  {
    "name": "F#2",
    "midi": 42,
    "time": 28.846124999999788,
    "velocity": 0.7874015748031497,
    "duration": 0.05769224999999878
  },
  {
    "name": "D2",
    "midi": 38,
    "time": 28.961509499999785,
    "velocity": 0.7874015748031497,
    "duration": 0.05769224999999878
  },
  {
    "name": "F#2",
    "midi": 42,
    "time": 28.961509499999785,
    "velocity": 0.7874015748031497,
    "duration": 0.05769224999999878
  },
  {
    "name": "C2",
    "midi": 36,
    "time": 29.076893999999783,
    "velocity": 0.7874015748031497,
    "duration": 0.05769224999999878
  },
  {
    "name": "F#2",
    "midi": 42,
    "time": 29.076893999999783,
    "velocity": 0.7874015748031497,
    "duration": 0.05769224999999878
  },
  {
    "name": "C2",
    "midi": 36,
    "time": 29.19227849999978,
    "velocity": 0.7874015748031497,
    "duration": 0.05769224999999878
  },
  {
    "name": "F#2",
    "midi": 42,
    "time": 29.19227849999978,
    "velocity": 0.7874015748031497,
    "duration": 0.05769224999999878
  },
  {
    "name": "C2",
    "midi": 36,
    "time": 29.307662999999778,
    "velocity": 0.7874015748031497,
    "duration": 0.05769224999999878
  },
  {
    "name": "F#2",
    "midi": 42,
    "time": 29.307662999999778,
    "velocity": 0.7874015748031497,
    "duration": 0.05769224999999878
  },
  {
    "name": "C2",
    "midi": 36,
    "time": 29.423047499999775,
    "velocity": 0.7874015748031497,
    "duration": 0.05769224999999878
  },
  {
    "name": "F#2",
    "midi": 42,
    "time": 29.423047499999775,
    "velocity": 0.7874015748031497,
    "duration": 0.05769224999999878
  },
  {
    "name": "C2",
    "midi": 36,
    "time": 29.538431999999773,
    "velocity": 0.7874015748031497,
    "duration": 0.05769224999999878
  },
  {
    "name": "F#2",
    "midi": 42,
    "time": 29.538431999999773,
    "velocity": 0.7874015748031497,
    "duration": 0.05769224999999878
  },
  {
    "name": "D2",
    "midi": 38,
    "time": 29.65381649999977,
    "velocity": 0.7874015748031497,
    "duration": 0.05769224999999878
  },
  {
    "name": "F#2",
    "midi": 42,
    "time": 29.65381649999977,
    "velocity": 0.7874015748031497,
    "duration": 0.05769224999999878
  },
  {
    "name": "C2",
    "midi": 36,
    "time": 29.769200999999768,
    "velocity": 0.7874015748031497,
    "duration": 0.05769224999999878
  },
  {
    "name": "F#2",
    "midi": 42,
    "time": 29.769200999999768,
    "velocity": 0.7874015748031497,
    "duration": 0.05769224999999878
  },
  {
    "name": "C2",
    "midi": 36,
    "time": 29.884585499999766,
    "velocity": 0.7874015748031497,
    "duration": 0.05769224999999878
  },
  {
    "name": "F#2",
    "midi": 42,
    "time": 29.884585499999766,
    "velocity": 0.7874015748031497,
    "duration": 0.05769224999999878
  },
  {
    "name": "C2",
    "midi": 36,
    "time": 29.999969999999763,
    "velocity": 0.7874015748031497,
    "duration": 0.05769224999999878
  },
  {
    "name": "F#2",
    "midi": 42,
    "time": 29.999969999999763,
    "velocity": 0.7874015748031497,
    "duration": 0.05769224999999878
  },
  {
    "name": "F#2",
    "midi": 42,
    "time": 30.11535449999976,
    "velocity": 0.7874015748031497,
    "duration": 0.05769224999999878
  },
  {
    "name": "C2",
    "midi": 36,
    "time": 30.230738999999758,
    "velocity": 0.7874015748031497,
    "duration": 0.05769224999999878
  },
  {
    "name": "F#2",
    "midi": 42,
    "time": 30.230738999999758,
    "velocity": 0.7874015748031497,
    "duration": 0.05769224999999878
  },
  {
    "name": "D2",
    "midi": 38,
    "time": 30.346123499999756,
    "velocity": 0.7874015748031497,
    "duration": 0.05769224999999878
  },
  {
    "name": "F#2",
    "midi": 42,
    "time": 30.346123499999756,
    "velocity": 0.7874015748031497,
    "duration": 0.05769224999999878
  },
  {
    "name": "D2",
    "midi": 38,
    "time": 30.461507999999753,
    "velocity": 0.7874015748031497,
    "duration": 0.05769224999999878
  },
  {
    "name": "F#2",
    "midi": 42,
    "time": 30.461507999999753,
    "velocity": 0.7874015748031497,
    "duration": 0.05769224999999878
  },
  {
    "name": "D2",
    "midi": 38,
    "time": 30.57689249999975,
    "velocity": 0.7874015748031497,
    "duration": 0.05769224999999878
  },
  {
    "name": "F#2",
    "midi": 42,
    "time": 30.57689249999975,
    "velocity": 0.7874015748031497,
    "duration": 0.05769224999999878
  },
  {
    "name": "D2",
    "midi": 38,
    "time": 30.69227699999975,
    "velocity": 0.7874015748031497,
    "duration": 0.05769224999999878
  },
  {
    "name": "F#2",
    "midi": 42,
    "time": 30.69227699999975,
    "velocity": 0.7874015748031497,
    "duration": 0.05769224999999878
  },
  {
    "name": "C2",
    "midi": 36,
    "time": 30.807661499999746,
    "velocity": 0.7874015748031497,
    "duration": 0.05769224999999878
  },
  {
    "name": "F#2",
    "midi": 42,
    "time": 30.807661499999746,
    "velocity": 0.7874015748031497,
    "duration": 0.05769224999999878
  },
  {
    "name": "C2",
    "midi": 36,
    "time": 30.923045999999744,
    "velocity": 0.7874015748031497,
    "duration": 0.05769224999999878
  },
  {
    "name": "F#2",
    "midi": 42,
    "time": 30.923045999999744,
    "velocity": 0.7874015748031497,
    "duration": 0.05769224999999878
  },
  {
    "name": "D2",
    "midi": 38,
    "time": 31.03843049999974,
    "velocity": 0.7874015748031497,
    "duration": 0.05769224999999878
  },
  {
    "name": "F#2",
    "midi": 42,
    "time": 31.03843049999974,
    "velocity": 0.7874015748031497,
    "duration": 0.05769224999999878
  },
  {
    "name": "C2",
    "midi": 36,
    "time": 31.15381499999974,
    "velocity": 0.7874015748031497,
    "duration": 0.05769224999999878
  },
  {
    "name": "F#2",
    "midi": 42,
    "time": 31.15381499999974,
    "velocity": 0.7874015748031497,
    "duration": 0.05769224999999878
  },
  {
    "name": "C2",
    "midi": 36,
    "time": 31.269199499999736,
    "velocity": 0.7874015748031497,
    "duration": 0.05769224999999878
  },
  {
    "name": "F#2",
    "midi": 42,
    "time": 31.269199499999736,
    "velocity": 0.7874015748031497,
    "duration": 0.05769224999999878
  },
  {
    "name": "D2",
    "midi": 38,
    "time": 31.384583999999734,
    "velocity": 0.7874015748031497,
    "duration": 0.05769224999999878
  },
  {
    "name": "F#2",
    "midi": 42,
    "time": 31.384583999999734,
    "velocity": 0.7874015748031497,
    "duration": 0.05769224999999878
  },
  {
    "name": "C2",
    "midi": 36,
    "time": 31.49996849999973,
    "velocity": 0.7874015748031497,
    "duration": 0.05769224999999878
  },
  {
    "name": "F#2",
    "midi": 42,
    "time": 31.49996849999973,
    "velocity": 0.7874015748031497,
    "duration": 0.05769224999999878
  },
  {
    "name": "D2",
    "midi": 38,
    "time": 31.61535299999973,
    "velocity": 0.7874015748031497,
    "duration": 0.05769224999999878
  },
  {
    "name": "F#2",
    "midi": 42,
    "time": 31.61535299999973,
    "velocity": 0.7874015748031497,
    "duration": 0.05769224999999878
  },
  {
    "name": "C2",
    "midi": 36,
    "time": 31.730737499999726,
    "velocity": 0.7874015748031497,
    "duration": 0.05769224999999878
  },
  {
    "name": "F#2",
    "midi": 42,
    "time": 31.730737499999726,
    "velocity": 0.7874015748031497,
    "duration": 0.05769224999999878
  },
  {
    "name": "D2",
    "midi": 38,
    "time": 31.846121999999724,
    "velocity": 0.7874015748031497,
    "duration": 0.05769224999999878
  },
  {
    "name": "F#2",
    "midi": 42,
    "time": 31.846121999999724,
    "velocity": 0.7874015748031497,
    "duration": 0.05769224999999878
  },
  {
    "name": "D2",
    "midi": 38,
    "time": 31.96150649999972,
    "velocity": 0.7874015748031497,
    "duration": 0.05769225000000233
  },
  {
    "name": "F#2",
    "midi": 42,
    "time": 31.96150649999972,
    "velocity": 0.7874015748031497,
    "duration": 0.05769225000000233
  },
  {
    "name": "D2",
    "midi": 38,
    "time": 32.076890999999726,
    "velocity": 0.7874015748031497,
    "duration": 0.05769225000000233
  },
  {
    "name": "F#2",
    "midi": 42,
    "time": 32.076890999999726,
    "velocity": 0.7874015748031497,
    "duration": 0.05769225000000233
  },
  {
    "name": "D2",
    "midi": 38,
    "time": 32.19227549999973,
    "velocity": 0.7874015748031497,
    "duration": 0.05769225000000233
  },
  {
    "name": "F#2",
    "midi": 42,
    "time": 32.19227549999973,
    "velocity": 0.7874015748031497,
    "duration": 0.05769225000000233
  },
  {
    "name": "D2",
    "midi": 38,
    "time": 32.307659999999736,
    "velocity": 0.7874015748031497,
    "duration": 0.05769225000000233
  },
  {
    "name": "F#2",
    "midi": 42,
    "time": 32.307659999999736,
    "velocity": 0.7874015748031497,
    "duration": 0.05769225000000233
  },
  {
    "name": "C2",
    "midi": 36,
    "time": 32.42304449999974,
    "velocity": 0.7874015748031497,
    "duration": 0.05769225000000233
  },
  {
    "name": "F#2",
    "midi": 42,
    "time": 32.42304449999974,
    "velocity": 0.7874015748031497,
    "duration": 0.05769225000000233
  },
  {
    "name": "C2",
    "midi": 36,
    "time": 32.538428999999745,
    "velocity": 0.7874015748031497,
    "duration": 0.05769225000000233
  },
  {
    "name": "F#2",
    "midi": 42,
    "time": 32.538428999999745,
    "velocity": 0.7874015748031497,
    "duration": 0.05769225000000233
  },
  {
    "name": "D2",
    "midi": 38,
    "time": 32.65381349999975,
    "velocity": 0.7874015748031497,
    "duration": 0.05769225000000233
  },
  {
    "name": "F#2",
    "midi": 42,
    "time": 32.65381349999975,
    "velocity": 0.7874015748031497,
    "duration": 0.05769225000000233
  },
  {
    "name": "C2",
    "midi": 36,
    "time": 32.769197999999754,
    "velocity": 0.7874015748031497,
    "duration": 0.05769225000000233
  },
  {
    "name": "F#2",
    "midi": 42,
    "time": 32.769197999999754,
    "velocity": 0.7874015748031497,
    "duration": 0.05769225000000233
  },
  {
    "name": "C2",
    "midi": 36,
    "time": 32.88458249999976,
    "velocity": 0.7874015748031497,
    "duration": 0.05769225000000233
  },
  {
    "name": "F#2",
    "midi": 42,
    "time": 32.88458249999976,
    "velocity": 0.7874015748031497,
    "duration": 0.05769225000000233
  },
  {
    "name": "D2",
    "midi": 38,
    "time": 32.999966999999764,
    "velocity": 0.7874015748031497,
    "duration": 0.05769225000000233
  },
  {
    "name": "F#2",
    "midi": 42,
    "time": 32.999966999999764,
    "velocity": 0.7874015748031497,
    "duration": 0.05769225000000233
  },
  {
    "name": "C2",
    "midi": 36,
    "time": 33.11535149999977,
    "velocity": 0.7874015748031497,
    "duration": 0.05769225000000233
  },
  {
    "name": "F#2",
    "midi": 42,
    "time": 33.11535149999977,
    "velocity": 0.7874015748031497,
    "duration": 0.05769225000000233
  },
  {
    "name": "D2",
    "midi": 38,
    "time": 33.23073599999977,
    "velocity": 0.7874015748031497,
    "duration": 0.05769225000000233
  },
  {
    "name": "F#2",
    "midi": 42,
    "time": 33.23073599999977,
    "velocity": 0.7874015748031497,
    "duration": 0.05769225000000233
  },
  {
    "name": "C2",
    "midi": 36,
    "time": 33.34612049999978,
    "velocity": 0.7874015748031497,
    "duration": 0.05769225000000233
  },
  {
    "name": "F#2",
    "midi": 42,
    "time": 33.34612049999978,
    "velocity": 0.7874015748031497,
    "duration": 0.05769225000000233
  },
  {
    "name": "D2",
    "midi": 38,
    "time": 33.46150499999978,
    "velocity": 0.7874015748031497,
    "duration": 0.05769225000000233
  },
  {
    "name": "F#2",
    "midi": 42,
    "time": 33.46150499999978,
    "velocity": 0.7874015748031497,
    "duration": 0.05769225000000233
  },
  {
    "name": "D2",
    "midi": 38,
    "time": 33.57688949999979,
    "velocity": 0.7874015748031497,
    "duration": 0.05769225000000233
  },
  {
    "name": "F#2",
    "midi": 42,
    "time": 33.57688949999979,
    "velocity": 0.7874015748031497,
    "duration": 0.05769225000000233
  },
  {
    "name": "D2",
    "midi": 38,
    "time": 33.69227399999979,
    "velocity": 0.7874015748031497,
    "duration": 0.05769225000000233
  },
  {
    "name": "F#2",
    "midi": 42,
    "time": 33.69227399999979,
    "velocity": 0.7874015748031497,
    "duration": 0.05769225000000233
  },
  {
    "name": "D2",
    "midi": 38,
    "time": 33.807658499999796,
    "velocity": 0.7874015748031497,
    "duration": 0.05769225000000233
  },
  {
    "name": "F#2",
    "midi": 42,
    "time": 33.807658499999796,
    "velocity": 0.7874015748031497,
    "duration": 0.05769225000000233
  },
  {
    "name": "C2",
    "midi": 36,
    "time": 33.9230429999998,
    "velocity": 0.7874015748031497,
    "duration": 0.05769225000000233
  },
  {
    "name": "F#2",
    "midi": 42,
    "time": 33.9230429999998,
    "velocity": 0.7874015748031497,
    "duration": 0.05769225000000233
  },
  {
    "name": "C2",
    "midi": 36,
    "time": 34.038427499999806,
    "velocity": 0.7874015748031497,
    "duration": 0.05769225000000233
  },
  {
    "name": "F#2",
    "midi": 42,
    "time": 34.038427499999806,
    "velocity": 0.7874015748031497,
    "duration": 0.05769225000000233
  },
  {
    "name": "C2",
    "midi": 36,
    "time": 34.15381199999981,
    "velocity": 0.7874015748031497,
    "duration": 0.05769225000000233
  },
  {
    "name": "F#2",
    "midi": 42,
    "time": 34.15381199999981,
    "velocity": 0.7874015748031497,
    "duration": 0.05769225000000233
  },
  {
    "name": "C2",
    "midi": 36,
    "time": 34.269196499999815,
    "velocity": 0.7874015748031497,
    "duration": 0.05769225000000233
  },
  {
    "name": "F#2",
    "midi": 42,
    "time": 34.269196499999815,
    "velocity": 0.7874015748031497,
    "duration": 0.05769225000000233
  },
  {
    "name": "F#2",
    "midi": 42,
    "time": 34.38458099999982,
    "velocity": 0.7874015748031497,
    "duration": 0.05769225000000233
  },
  {
    "name": "F#2",
    "midi": 42,
    "time": 34.499965499999824,
    "velocity": 0.7874015748031497,
    "duration": 0.05769225000000233
  },
  {
    "name": "D2",
    "midi": 38,
    "time": 34.61534999999983,
    "velocity": 0.7874015748031497,
    "duration": 0.05769225000000233
  },
  {
    "name": "F#2",
    "midi": 42,
    "time": 34.61534999999983,
    "velocity": 0.7874015748031497,
    "duration": 0.05769225000000233
  },
  {
    "name": "F#2",
    "midi": 42,
    "time": 34.73073449999983,
    "velocity": 0.7874015748031497,
    "duration": 0.05769225000000233
  },
  {
    "name": "C2",
    "midi": 36,
    "time": 34.84611899999984,
    "velocity": 0.7874015748031497,
    "duration": 0.05769225000000233
  },
  {
    "name": "F#2",
    "midi": 42,
    "time": 34.84611899999984,
    "velocity": 0.7874015748031497,
    "duration": 0.05769225000000233
  },
  {
    "name": "F#2",
    "midi": 42,
    "time": 34.96150349999984,
    "velocity": 0.7874015748031497,
    "duration": 0.05769225000000233
  },
  {
    "name": "D2",
    "midi": 38,
    "time": 35.07688799999985,
    "velocity": 0.7874015748031497,
    "duration": 0.05769225000000233
  },
  {
    "name": "F#2",
    "midi": 42,
    "time": 35.07688799999985,
    "velocity": 0.7874015748031497,
    "duration": 0.05769225000000233
  },
  {
    "name": "F#2",
    "midi": 42,
    "time": 35.19227249999985,
    "velocity": 0.7874015748031497,
    "duration": 0.05769225000000233
  },
  {
    "name": "D2",
    "midi": 38,
    "time": 35.30765699999986,
    "velocity": 0.7874015748031497,
    "duration": 0.05769225000000233
  },
  {
    "name": "F#2",
    "midi": 42,
    "time": 35.30765699999986,
    "velocity": 0.7874015748031497,
    "duration": 0.05769225000000233
  },
  {
    "name": "F#2",
    "midi": 42,
    "time": 35.42304149999986,
    "velocity": 0.7874015748031497,
    "duration": 0.05769225000000233
  },
  {
    "name": "F#2",
    "midi": 42,
    "time": 35.538425999999866,
    "velocity": 0.7874015748031497,
    "duration": 0.05769225000000233
  },
  {
    "name": "F#2",
    "midi": 42,
    "time": 35.65381049999987,
    "velocity": 0.7874015748031497,
    "duration": 0.05769225000000233
  },
  {
    "name": "C2",
    "midi": 36,
    "time": 35.769194999999876,
    "velocity": 0.7874015748031497,
    "duration": 0.05769225000000233
  },
  {
    "name": "F#2",
    "midi": 42,
    "time": 35.769194999999876,
    "velocity": 0.7874015748031497,
    "duration": 0.05769225000000233
  },
  {
    "name": "C2",
    "midi": 36,
    "time": 35.88457949999988,
    "velocity": 0.7874015748031497,
    "duration": 0.05769225000000233
  },
  {
    "name": "F#2",
    "midi": 42,
    "time": 35.88457949999988,
    "velocity": 0.7874015748031497,
    "duration": 0.05769225000000233
  },
  {
    "name": "D2",
    "midi": 38,
    "time": 35.999963999999885,
    "velocity": 0.7874015748031497,
    "duration": 0.05769225000000233
  },
  {
    "name": "F#2",
    "midi": 42,
    "time": 35.999963999999885,
    "velocity": 0.7874015748031497,
    "duration": 0.05769225000000233
  },
  {
    "name": "D2",
    "midi": 38,
    "time": 36.11534849999989,
    "velocity": 0.7874015748031497,
    "duration": 0.05769225000000233
  },
  {
    "name": "F#2",
    "midi": 42,
    "time": 36.11534849999989,
    "velocity": 0.7874015748031497,
    "duration": 0.05769225000000233
  },
  {
    "name": "D2",
    "midi": 38,
    "time": 36.230732999999894,
    "velocity": 0.7874015748031497,
    "duration": 0.05769225000000233
  },
  {
    "name": "F#2",
    "midi": 42,
    "time": 36.230732999999894,
    "velocity": 0.7874015748031497,
    "duration": 0.05769225000000233
  },
  {
    "name": "D2",
    "midi": 38,
    "time": 36.3461174999999,
    "velocity": 0.7874015748031497,
    "duration": 0.05769225000000233
  },
  {
    "name": "F#2",
    "midi": 42,
    "time": 36.3461174999999,
    "velocity": 0.7874015748031497,
    "duration": 0.05769225000000233
  },
  {
    "name": "F#2",
    "midi": 42,
    "time": 36.4615019999999,
    "velocity": 0.7874015748031497,
    "duration": 0.05769225000000233
  },
  {
    "name": "C2",
    "midi": 36,
    "time": 36.4615019999999,
    "velocity": 0.7874015748031497,
    "duration": 0.05769225000000233
  },
  {
    "name": "F#2",
    "midi": 42,
    "time": 36.57688649999991,
    "velocity": 0.7874015748031497,
    "duration": 0.05769225000000233
  },
  {
    "name": "C2",
    "midi": 36,
    "time": 36.57688649999991,
    "velocity": 0.7874015748031497,
    "duration": 0.05769225000000233
  },
  {
    "name": "C2",
    "midi": 36,
    "time": 36.69227099999991,
    "velocity": 0.7874015748031497,
    "duration": 0.05769225000000233
  },
  {
    "name": "F#2",
    "midi": 42,
    "time": 36.69227099999991,
    "velocity": 0.7874015748031497,
    "duration": 0.05769225000000233
  },
  {
    "name": "C2",
    "midi": 36,
    "time": 36.80765549999992,
    "velocity": 0.7874015748031497,
    "duration": 0.05769225000000233
  },
  {
    "name": "F#2",
    "midi": 42,
    "time": 36.80765549999992,
    "velocity": 0.7874015748031497,
    "duration": 0.05769225000000233
  },
  {
    "name": "F#2",
    "midi": 42,
    "time": 36.92303999999992,
    "velocity": 0.7874015748031497,
    "duration": 0.05769225000000233
  },
  {
    "name": "F#2",
    "midi": 42,
    "time": 37.03842449999993,
    "velocity": 0.7874015748031497,
    "duration": 0.05769225000000233
  },
  {
    "name": "D2",
    "midi": 38,
    "time": 37.15380899999993,
    "velocity": 0.7874015748031497,
    "duration": 0.05769225000000233
  },
  {
    "name": "F#2",
    "midi": 42,
    "time": 37.15380899999993,
    "velocity": 0.7874015748031497,
    "duration": 0.05769225000000233
  },
  {
    "name": "F#2",
    "midi": 42,
    "time": 37.269193499999936,
    "velocity": 0.7874015748031497,
    "duration": 0.05769225000000233
  },
  {
    "name": "F#2",
    "midi": 42,
    "time": 37.38457799999994,
    "velocity": 0.7874015748031497,
    "duration": 0.05769225000000233
  },
  {
    "name": "C2",
    "midi": 36,
    "time": 37.38457799999994,
    "velocity": 0.7874015748031497,
    "duration": 0.05769225000000233
  },
  {
    "name": "F#2",
    "midi": 42,
    "time": 37.499962499999945,
    "velocity": 0.7874015748031497,
    "duration": 0.05769225000000233
  },
  {
    "name": "D2",
    "midi": 38,
    "time": 37.61534699999995,
    "velocity": 0.7874015748031497,
    "duration": 0.05769225000000233
  },
  {
    "name": "F#2",
    "midi": 42,
    "time": 37.61534699999995,
    "velocity": 0.7874015748031497,
    "duration": 0.05769225000000233
  },
  {
    "name": "F#2",
    "midi": 42,
    "time": 37.730731499999955,
    "velocity": 0.7874015748031497,
    "duration": 0.05769225000000233
  },
  {
    "name": "D2",
    "midi": 38,
    "time": 37.84611599999996,
    "velocity": 0.7874015748031497,
    "duration": 0.05769225000000233
  },
  {
    "name": "F#2",
    "midi": 42,
    "time": 37.84611599999996,
    "velocity": 0.7874015748031497,
    "duration": 0.05769225000000233
  },
  {
    "name": "F#2",
    "midi": 42,
    "time": 37.961500499999964,
    "velocity": 0.7874015748031497,
    "duration": 0.05769225000000233
  },
  {
    "name": "F#2",
    "midi": 42,
    "time": 38.07688499999997,
    "velocity": 0.7874015748031497,
    "duration": 0.05769225000000233
  },
  {
    "name": "F#2",
    "midi": 42,
    "time": 38.19226949999997,
    "velocity": 0.7874015748031497,
    "duration": 0.05769225000000233
  },
  {
    "name": "F#2",
    "midi": 42,
    "time": 38.30765399999998,
    "velocity": 0.7874015748031497,
    "duration": 0.05769225000000233
  },
  {
    "name": "C2",
    "midi": 36,
    "time": 38.30765399999998,
    "velocity": 0.7874015748031497,
    "duration": 0.05769225000000233
  },
  {
    "name": "F#2",
    "midi": 42,
    "time": 38.42303849999998,
    "velocity": 0.7874015748031497,
    "duration": 0.05769225000000233
  },
  {
    "name": "C2",
    "midi": 36,
    "time": 38.42303849999998,
    "velocity": 0.7874015748031497,
    "duration": 0.05769225000000233
  },
  {
    "name": "D2",
    "midi": 38,
    "time": 38.53842299999999,
    "velocity": 0.7874015748031497,
    "duration": 0.05769225000000233
  },
  {
    "name": "F#2",
    "midi": 42,
    "time": 38.53842299999999,
    "velocity": 0.7874015748031497,
    "duration": 0.05769225000000233
  },
  {
    "name": "D2",
    "midi": 38,
    "time": 38.65380749999999,
    "velocity": 0.7874015748031497,
    "duration": 0.05769225000000233
  },
  {
    "name": "F#2",
    "midi": 42,
    "time": 38.65380749999999,
    "velocity": 0.7874015748031497,
    "duration": 0.05769225000000233
  },
  {
    "name": "D2",
    "midi": 38,
    "time": 38.769192,
    "velocity": 0.7874015748031497,
    "duration": 0.05769225000000233
  },
  {
    "name": "F#2",
    "midi": 42,
    "time": 38.769192,
    "velocity": 0.7874015748031497,
    "duration": 0.05769225000000233
  },
  {
    "name": "D2",
    "midi": 38,
    "time": 38.8845765,
    "velocity": 0.7874015748031497,
    "duration": 0.05769225000000233
  },
  {
    "name": "F#2",
    "midi": 42,
    "time": 38.8845765,
    "velocity": 0.7874015748031497,
    "duration": 0.05769225000000233
  },
  {
    "name": "C2",
    "midi": 36,
    "time": 38.999961000000006,
    "velocity": 0.7874015748031497,
    "duration": 0.05769225000000233
  },
  {
    "name": "F#2",
    "midi": 42,
    "time": 38.999961000000006,
    "velocity": 0.7874015748031497,
    "duration": 0.05769225000000233
  },
  {
    "name": "F#2",
    "midi": 42,
    "time": 39.11534550000001,
    "velocity": 0.7874015748031497,
    "duration": 0.05769225000000233
  },
  {
    "name": "F#2",
    "midi": 42,
    "time": 39.230730000000015,
    "velocity": 0.7874015748031497,
    "duration": 0.05769225000000233
  },
  {
    "name": "C2",
    "midi": 36,
    "time": 39.34611450000002,
    "velocity": 0.7874015748031497,
    "duration": 0.05769225000000233
  },
  {
    "name": "F#2",
    "midi": 42,
    "time": 39.34611450000002,
    "velocity": 0.7874015748031497,
    "duration": 0.05769225000000233
  },
  {
    "name": "F#2",
    "midi": 42,
    "time": 39.461499000000025,
    "velocity": 0.7874015748031497,
    "duration": 0.05769225000000233
  },
  {
    "name": "F#2",
    "midi": 42,
    "time": 39.57688350000003,
    "velocity": 0.7874015748031497,
    "duration": 0.05769225000000233
  },
  {
    "name": "D2",
    "midi": 38,
    "time": 39.692268000000034,
    "velocity": 0.7874015748031497,
    "duration": 0.05769225000000233
  },
  {
    "name": "F#2",
    "midi": 42,
    "time": 39.692268000000034,
    "velocity": 0.7874015748031497,
    "duration": 0.05769225000000233
  },
  {
    "name": "F#2",
    "midi": 42,
    "time": 39.80765250000004,
    "velocity": 0.7874015748031497,
    "duration": 0.05769225000000233
  },
  {
    "name": "C2",
    "midi": 36,
    "time": 39.92303700000004,
    "velocity": 0.7874015748031497,
    "duration": 0.05769225000000233
  },
  {
    "name": "F#2",
    "midi": 42,
    "time": 39.92303700000004,
    "velocity": 0.7874015748031497,
    "duration": 0.05769225000000233
  },
  {
    "name": "F#2",
    "midi": 42,
    "time": 40.03842150000005,
    "velocity": 0.7874015748031497,
    "duration": 0.05769225000000233
  },
  {
    "name": "C2",
    "midi": 36,
    "time": 40.15380600000005,
    "velocity": 0.7874015748031497,
    "duration": 0.05769225000000233
  },
  {
    "name": "F#2",
    "midi": 42,
    "time": 40.15380600000005,
    "velocity": 0.7874015748031497,
    "duration": 0.05769225000000233
  },
  {
    "name": "F#2",
    "midi": 42,
    "time": 40.26919050000006,
    "velocity": 0.7874015748031497,
    "duration": 0.05769225000000233
  },
  {
    "name": "F#2",
    "midi": 42,
    "time": 40.38457500000006,
    "velocity": 0.7874015748031497,
    "duration": 0.05769225000000233
  },
  {
    "name": "C2",
    "midi": 36,
    "time": 40.49995950000007,
    "velocity": 0.7874015748031497,
    "duration": 0.05769225000000233
  },
  {
    "name": "F#2",
    "midi": 42,
    "time": 40.49995950000007,
    "velocity": 0.7874015748031497,
    "duration": 0.05769225000000233
  },
  {
    "name": "F#2",
    "midi": 42,
    "time": 40.61534400000007,
    "velocity": 0.7874015748031497,
    "duration": 0.05769225000000233
  },
  {
    "name": "F#2",
    "midi": 42,
    "time": 40.730728500000076,
    "velocity": 0.7874015748031497,
    "duration": 0.05769225000000233
  },
  {
    "name": "D2",
    "midi": 38,
    "time": 40.84611300000008,
    "velocity": 0.7874015748031497,
    "duration": 0.05769225000000233
  },
  {
    "name": "F#2",
    "midi": 42,
    "time": 40.84611300000008,
    "velocity": 0.7874015748031497,
    "duration": 0.05769225000000233
  },
  {
    "name": "F#2",
    "midi": 42,
    "time": 40.961497500000085,
    "velocity": 0.7874015748031497,
    "duration": 0.05769225000000233
  },
  {
    "name": "C2",
    "midi": 36,
    "time": 41.07688200000009,
    "velocity": 0.7874015748031497,
    "duration": 0.05769225000000233
  },
  {
    "name": "F#2",
    "midi": 42,
    "time": 41.07688200000009,
    "velocity": 0.7874015748031497,
    "duration": 0.05769225000000233
  },
  {
    "name": "F#2",
    "midi": 42,
    "time": 41.192266500000095,
    "velocity": 0.7874015748031497,
    "duration": 0.05769225000000233
  },
  {
    "name": "C2",
    "midi": 36,
    "time": 41.3076510000001,
    "velocity": 0.7874015748031497,
    "duration": 0.05769225000000233
  },
  {
    "name": "F#2",
    "midi": 42,
    "time": 41.3076510000001,
    "velocity": 0.7874015748031497,
    "duration": 0.05769225000000233
  },
  {
    "name": "F#2",
    "midi": 42,
    "time": 41.423035500000104,
    "velocity": 0.7874015748031497,
    "duration": 0.05769225000000233
  },
  {
    "name": "F#2",
    "midi": 42,
    "time": 41.53842000000011,
    "velocity": 0.7874015748031497,
    "duration": 0.05769225000000233
  },
  {
    "name": "C2",
    "midi": 36,
    "time": 41.65380450000011,
    "velocity": 0.7874015748031497,
    "duration": 0.05769225000000233
  },
  {
    "name": "F#2",
    "midi": 42,
    "time": 41.65380450000011,
    "velocity": 0.7874015748031497,
    "duration": 0.05769225000000233
  },
  {
    "name": "F#2",
    "midi": 42,
    "time": 41.76918900000012,
    "velocity": 0.7874015748031497,
    "duration": 0.05769225000000233
  },
  {
    "name": "F#2",
    "midi": 42,
    "time": 41.88457350000012,
    "velocity": 0.7874015748031497,
    "duration": 0.05769225000000233
  },
  {
    "name": "D2",
    "midi": 38,
    "time": 41.99995800000013,
    "velocity": 0.7874015748031497,
    "duration": 0.05769225000000233
  },
  {
    "name": "F#2",
    "midi": 42,
    "time": 41.99995800000013,
    "velocity": 0.7874015748031497,
    "duration": 0.05769225000000233
  },
  {
    "name": "D2",
    "midi": 38,
    "time": 42.11534250000013,
    "velocity": 0.7874015748031497,
    "duration": 0.05769225000000233
  },
  {
    "name": "F#2",
    "midi": 42,
    "time": 42.11534250000013,
    "velocity": 0.7874015748031497,
    "duration": 0.05769225000000233
  },
  {
    "name": "D2",
    "midi": 38,
    "time": 42.23072700000014,
    "velocity": 0.7874015748031497,
    "duration": 0.05769225000000233
  },
  {
    "name": "F#2",
    "midi": 42,
    "time": 42.23072700000014,
    "velocity": 0.7874015748031497,
    "duration": 0.05769225000000233
  },
  {
    "name": "D2",
    "midi": 38,
    "time": 42.34611150000014,
    "velocity": 0.7874015748031497,
    "duration": 0.05769225000000233
  },
  {
    "name": "F#2",
    "midi": 42,
    "time": 42.34611150000014,
    "velocity": 0.7874015748031497,
    "duration": 0.05769225000000233
  },
  {
    "name": "C2",
    "midi": 36,
    "time": 42.461496000000146,
    "velocity": 0.7874015748031497,
    "duration": 0.05769225000000233
  },
  {
    "name": "F#2",
    "midi": 42,
    "time": 42.461496000000146,
    "velocity": 0.7874015748031497,
    "duration": 0.05769225000000233
  },
  {
    "name": "C2",
    "midi": 36,
    "time": 42.57688050000015,
    "velocity": 0.7874015748031497,
    "duration": 0.05769225000000233
  },
  {
    "name": "F#2",
    "midi": 42,
    "time": 42.57688050000015,
    "velocity": 0.7874015748031497,
    "duration": 0.05769225000000233
  },
  {
    "name": "C2",
    "midi": 36,
    "time": 42.692265000000155,
    "velocity": 0.7874015748031497,
    "duration": 0.05769225000000233
  },
  {
    "name": "F#2",
    "midi": 42,
    "time": 42.692265000000155,
    "velocity": 0.7874015748031497,
    "duration": 0.05769225000000233
  },
  {
    "name": "C2",
    "midi": 36,
    "time": 42.80764950000016,
    "velocity": 0.7874015748031497,
    "duration": 0.05769225000000233
  },
  {
    "name": "F#2",
    "midi": 42,
    "time": 42.80764950000016,
    "velocity": 0.7874015748031497,
    "duration": 0.05769225000000233
  },
  {
    "name": "C2",
    "midi": 36,
    "time": 42.923034000000165,
    "velocity": 0.7874015748031497,
    "duration": 0.05769225000000233
  },
  {
    "name": "F#2",
    "midi": 42,
    "time": 42.923034000000165,
    "velocity": 0.7874015748031497,
    "duration": 0.05769225000000233
  },
  {
    "name": "C2",
    "midi": 36,
    "time": 43.03841850000017,
    "velocity": 0.7874015748031497,
    "duration": 0.05769225000000233
  },
  {
    "name": "F#2",
    "midi": 42,
    "time": 43.03841850000017,
    "velocity": 0.7874015748031497,
    "duration": 0.05769225000000233
  },
  {
    "name": "D2",
    "midi": 38,
    "time": 43.153803000000174,
    "velocity": 0.7874015748031497,
    "duration": 0.05769225000000233
  },
  {
    "name": "F#2",
    "midi": 42,
    "time": 43.153803000000174,
    "velocity": 0.7874015748031497,
    "duration": 0.05769225000000233
  },
  {
    "name": "D2",
    "midi": 38,
    "time": 43.26918750000018,
    "velocity": 0.7874015748031497,
    "duration": 0.05769225000000233
  },
  {
    "name": "F#2",
    "midi": 42,
    "time": 43.26918750000018,
    "velocity": 0.7874015748031497,
    "duration": 0.05769225000000233
  },
  {
    "name": "D2",
    "midi": 38,
    "time": 43.38457200000018,
    "velocity": 0.7874015748031497,
    "duration": 0.05769225000000233
  },
  {
    "name": "F#2",
    "midi": 42,
    "time": 43.38457200000018,
    "velocity": 0.7874015748031497,
    "duration": 0.05769225000000233
  },
  {
    "name": "C2",
    "midi": 36,
    "time": 43.49995650000019,
    "velocity": 0.7874015748031497,
    "duration": 0.05769225000000233
  },
  {
    "name": "F#2",
    "midi": 42,
    "time": 43.49995650000019,
    "velocity": 0.7874015748031497,
    "duration": 0.05769225000000233
  },
  {
    "name": "D2",
    "midi": 38,
    "time": 43.61534100000019,
    "velocity": 0.7874015748031497,
    "duration": 0.05769225000000233
  },
  {
    "name": "F#2",
    "midi": 42,
    "time": 43.61534100000019,
    "velocity": 0.7874015748031497,
    "duration": 0.05769225000000233
  },
  {
    "name": "C2",
    "midi": 36,
    "time": 43.7307255000002,
    "velocity": 0.7874015748031497,
    "duration": 0.05769225000000233
  },
  {
    "name": "F#2",
    "midi": 42,
    "time": 43.7307255000002,
    "velocity": 0.7874015748031497,
    "duration": 0.05769225000000233
  },
  {
    "name": "F#2",
    "midi": 42,
    "time": 43.8461100000002,
    "velocity": 0.7874015748031497,
    "duration": 0.05769225000000233
  },
  {
    "name": "C2",
    "midi": 36,
    "time": 43.8461100000002,
    "velocity": 0.7874015748031497,
    "duration": 0.05769225000000233
  },
  {
    "name": "F#2",
    "midi": 42,
    "time": 43.96149450000021,
    "velocity": 0.7874015748031497,
    "duration": 0.05769225000000233
  },
  {
    "name": "C2",
    "midi": 36,
    "time": 43.96149450000021,
    "velocity": 0.7874015748031497,
    "duration": 0.05769225000000233
  },
  {
    "name": "C2",
    "midi": 36,
    "time": 44.07687900000021,
    "velocity": 0.7874015748031497,
    "duration": 0.05769225000000233
  },
  {
    "name": "F#2",
    "midi": 42,
    "time": 44.07687900000021,
    "velocity": 0.7874015748031497,
    "duration": 0.05769225000000233
  },
  {
    "name": "C2",
    "midi": 36,
    "time": 44.192263500000216,
    "velocity": 0.7874015748031497,
    "duration": 0.05769225000000233
  },
  {
    "name": "F#2",
    "midi": 42,
    "time": 44.192263500000216,
    "velocity": 0.7874015748031497,
    "duration": 0.05769225000000233
  },
  {
    "name": "C2",
    "midi": 36,
    "time": 44.30764800000022,
    "velocity": 0.7874015748031497,
    "duration": 0.05769225000000233
  },
  {
    "name": "F#2",
    "midi": 42,
    "time": 44.30764800000022,
    "velocity": 0.7874015748031497,
    "duration": 0.05769225000000233
  },
  {
    "name": "C2",
    "midi": 36,
    "time": 44.423032500000225,
    "velocity": 0.7874015748031497,
    "duration": 0.05769225000000233
  },
  {
    "name": "F#2",
    "midi": 42,
    "time": 44.423032500000225,
    "velocity": 0.7874015748031497,
    "duration": 0.05769225000000233
  },
  {
    "name": "F#2",
    "midi": 42,
    "time": 44.53841700000023,
    "velocity": 0.7874015748031497,
    "duration": 0.05769225000000233
  },
  {
    "name": "D2",
    "midi": 38,
    "time": 44.53841700000023,
    "velocity": 0.7874015748031497,
    "duration": 0.05769225000000233
  },
  {
    "name": "F#2",
    "midi": 42,
    "time": 44.653801500000235,
    "velocity": 0.7874015748031497,
    "duration": 0.05769225000000233
  },
  {
    "name": "D2",
    "midi": 38,
    "time": 44.653801500000235,
    "velocity": 0.7874015748031497,
    "duration": 0.05769225000000233
  },
  {
    "name": "F#2",
    "midi": 42,
    "time": 44.76918600000024,
    "velocity": 0.7874015748031497,
    "duration": 0.05769225000000233
  },
  {
    "name": "D2",
    "midi": 38,
    "time": 44.76918600000024,
    "velocity": 0.7874015748031497,
    "duration": 0.05769225000000233
  },
  {
    "name": "F#2",
    "midi": 42,
    "time": 44.884570500000244,
    "velocity": 0.7874015748031497,
    "duration": 0.05769225000000233
  },
  {
    "name": "C2",
    "midi": 36,
    "time": 44.884570500000244,
    "velocity": 0.7874015748031497,
    "duration": 0.05769225000000233
  },
  {
    "name": "D2",
    "midi": 38,
    "time": 44.99995500000025,
    "velocity": 0.7874015748031497,
    "duration": 0.05769225000000233
  },
  {
    "name": "F#2",
    "midi": 42,
    "time": 44.99995500000025,
    "velocity": 0.7874015748031497,
    "duration": 0.05769225000000233
  },
  {
    "name": "C2",
    "midi": 36,
    "time": 45.11533950000025,
    "velocity": 0.7874015748031497,
    "duration": 0.05769225000000233
  },
  {
    "name": "F#2",
    "midi": 42,
    "time": 45.11533950000025,
    "velocity": 0.7874015748031497,
    "duration": 0.05769225000000233
  },
  {
    "name": "F#2",
    "midi": 42,
    "time": 45.23072400000026,
    "velocity": 0.7874015748031497,
    "duration": 0.05769225000000233
  },
  {
    "name": "C2",
    "midi": 36,
    "time": 45.23072400000026,
    "velocity": 0.7874015748031497,
    "duration": 0.05769225000000233
  },
  {
    "name": "F#2",
    "midi": 42,
    "time": 45.34610850000026,
    "velocity": 0.7874015748031497,
    "duration": 0.05769225000000233
  },
  {
    "name": "C2",
    "midi": 36,
    "time": 45.34610850000026,
    "velocity": 0.7874015748031497,
    "duration": 0.05769225000000233
  },
  {
    "name": "F#2",
    "midi": 42,
    "time": 45.46149300000027,
    "velocity": 0.7874015748031497,
    "duration": 0.05769225000000233
  },
  {
    "name": "C2",
    "midi": 36,
    "time": 45.46149300000027,
    "velocity": 0.7874015748031497,
    "duration": 0.05769225000000233
  },
  {
    "name": "F#2",
    "midi": 42,
    "time": 45.57687750000027,
    "velocity": 0.7874015748031497,
    "duration": 0.05769225000000233
  },
  {
    "name": "C2",
    "midi": 36,
    "time": 45.57687750000027,
    "velocity": 0.7874015748031497,
    "duration": 0.05769225000000233
  },
  {
    "name": "F#2",
    "midi": 42,
    "time": 45.69226200000028,
    "velocity": 0.7874015748031497,
    "duration": 0.05769225000000233
  },
  {
    "name": "C2",
    "midi": 36,
    "time": 45.69226200000028,
    "velocity": 0.7874015748031497,
    "duration": 0.05769225000000233
  },
  {
    "name": "F#2",
    "midi": 42,
    "time": 45.80764650000028,
    "velocity": 0.7874015748031497,
    "duration": 0.05769225000000233
  },
  {
    "name": "C2",
    "midi": 36,
    "time": 45.80764650000028,
    "velocity": 0.7874015748031497,
    "duration": 0.05769225000000233
  },
  {
    "name": "D2",
    "midi": 38,
    "time": 45.923031000000286,
    "velocity": 0.7874015748031497,
    "duration": 0.05769225000000233
  },
  {
    "name": "F#2",
    "midi": 42,
    "time": 45.923031000000286,
    "velocity": 0.7874015748031497,
    "duration": 0.05769225000000233
  },
  {
    "name": "D2",
    "midi": 38,
    "time": 46.03841550000029,
    "velocity": 0.7874015748031497,
    "duration": 0.05769225000000233
  },
  {
    "name": "F#2",
    "midi": 42,
    "time": 46.03841550000029,
    "velocity": 0.7874015748031497,
    "duration": 0.05769225000000233
  },
  {
    "name": "D2",
    "midi": 38,
    "time": 46.153800000000295,
    "velocity": 0.7874015748031497,
    "duration": 0.05769225000000233
  },
  {
    "name": "F#2",
    "midi": 42,
    "time": 46.153800000000295,
    "velocity": 0.7874015748031497,
    "duration": 0.05769225000000233
  },
  {
    "name": "C2",
    "midi": 36,
    "time": 46.2691845000003,
    "velocity": 0.7874015748031497,
    "duration": 0.05769225000000233
  },
  {
    "name": "F#2",
    "midi": 42,
    "time": 46.2691845000003,
    "velocity": 0.7874015748031497,
    "duration": 0.05769225000000233
  },
  {
    "name": "D2",
    "midi": 38,
    "time": 46.384569000000305,
    "velocity": 0.7874015748031497,
    "duration": 0.05769225000000233
  },
  {
    "name": "F#2",
    "midi": 42,
    "time": 46.384569000000305,
    "velocity": 0.7874015748031497,
    "duration": 0.05769225000000233
  },
  {
    "name": "C2",
    "midi": 36,
    "time": 46.49995350000031,
    "velocity": 0.7874015748031497,
    "duration": 0.05769225000000233
  },
  {
    "name": "F#2",
    "midi": 42,
    "time": 46.49995350000031,
    "velocity": 0.7874015748031497,
    "duration": 0.05769225000000233
  },
  {
    "name": "F#2",
    "midi": 42,
    "time": 46.615338000000314,
    "velocity": 0.7874015748031497,
    "duration": 0.05769225000000233
  },
  {
    "name": "D2",
    "midi": 38,
    "time": 46.615338000000314,
    "velocity": 0.7874015748031497,
    "duration": 0.05769225000000233
  },
  {
    "name": "F#2",
    "midi": 42,
    "time": 46.73072250000032,
    "velocity": 0.7874015748031497,
    "duration": 0.05769225000000233
  },
  {
    "name": "D2",
    "midi": 38,
    "time": 46.73072250000032,
    "velocity": 0.7874015748031497,
    "duration": 0.05769225000000233
  },
  {
    "name": "D2",
    "midi": 38,
    "time": 46.84610700000032,
    "velocity": 0.7874015748031497,
    "duration": 0.05769225000000233
  },
  {
    "name": "F#2",
    "midi": 42,
    "time": 46.84610700000032,
    "velocity": 0.7874015748031497,
    "duration": 0.05769225000000233
  },
  {
    "name": "D2",
    "midi": 38,
    "time": 46.96149150000033,
    "velocity": 0.7874015748031497,
    "duration": 0.05769225000000233
  },
  {
    "name": "F#2",
    "midi": 42,
    "time": 46.96149150000033,
    "velocity": 0.7874015748031497,
    "duration": 0.05769225000000233
  },
  {
    "name": "D2",
    "midi": 38,
    "time": 47.07687600000033,
    "velocity": 0.7874015748031497,
    "duration": 0.05769225000000233
  },
  {
    "name": "F#2",
    "midi": 42,
    "time": 47.07687600000033,
    "velocity": 0.7874015748031497,
    "duration": 0.05769225000000233
  },
  {
    "name": "D2",
    "midi": 38,
    "time": 47.19226050000034,
    "velocity": 0.7874015748031497,
    "duration": 0.05769225000000233
  },
  {
    "name": "F#2",
    "midi": 42,
    "time": 47.19226050000034,
    "velocity": 0.7874015748031497,
    "duration": 0.05769225000000233
  },
  {
    "name": "F#2",
    "midi": 42,
    "time": 47.30764500000034,
    "velocity": 0.7874015748031497,
    "duration": 0.05769225000000233
  },
  {
    "name": "D2",
    "midi": 38,
    "time": 47.30764500000034,
    "velocity": 0.7874015748031497,
    "duration": 0.05769225000000233
  },
  {
    "name": "D2",
    "midi": 38,
    "time": 47.42302950000035,
    "velocity": 0.7874015748031497,
    "duration": 0.05769225000000233
  },
  {
    "name": "F#2",
    "midi": 42,
    "time": 47.42302950000035,
    "velocity": 0.7874015748031497,
    "duration": 0.05769225000000233
  },
  {
    "name": "D2",
    "midi": 38,
    "time": 47.53841400000035,
    "velocity": 0.7874015748031497,
    "duration": 0.05769225000000233
  },
  {
    "name": "F#2",
    "midi": 42,
    "time": 47.53841400000035,
    "velocity": 0.7874015748031497,
    "duration": 0.05769225000000233
  },
  {
    "name": "F#2",
    "midi": 42,
    "time": 47.653798500000356,
    "velocity": 0.7874015748031497,
    "duration": 0.05769225000000233
  },
  {
    "name": "D2",
    "midi": 38,
    "time": 47.653798500000356,
    "velocity": 0.7874015748031497,
    "duration": 0.05769225000000233
  },
  {
    "name": "D2",
    "midi": 38,
    "time": 47.76918300000036,
    "velocity": 0.7874015748031497,
    "duration": 0.05769225000000233
  },
  {
    "name": "F#2",
    "midi": 42,
    "time": 47.76918300000036,
    "velocity": 0.7874015748031497,
    "duration": 0.05769225000000233
  },
  {
    "name": "D2",
    "midi": 38,
    "time": 47.884567500000365,
    "velocity": 0.7874015748031497,
    "duration": 0.05769225000000233
  },
  {
    "name": "F#2",
    "midi": 42,
    "time": 47.884567500000365,
    "velocity": 0.7874015748031497,
    "duration": 0.05769225000000233
  },
  {
    "name": "F#2",
    "midi": 42,
    "time": 47.99995200000037,
    "velocity": 0.7874015748031497,
    "duration": 0.05769225000000233
  },
  {
    "name": "C2",
    "midi": 36,
    "time": 47.99995200000037,
    "velocity": 0.7874015748031497,
    "duration": 0.05769225000000233
  },
  {
    "name": "F#2",
    "midi": 42,
    "time": 48.115336500000375,
    "velocity": 0.7874015748031497,
    "duration": 0.05769225000000233
  },
  {
    "name": "C2",
    "midi": 36,
    "time": 48.115336500000375,
    "velocity": 0.7874015748031497,
    "duration": 0.05769225000000233
  },
  {
    "name": "F#2",
    "midi": 42,
    "time": 48.23072100000038,
    "velocity": 0.7874015748031497,
    "duration": 0.05769225000000233
  },
  {
    "name": "C2",
    "midi": 36,
    "time": 48.23072100000038,
    "velocity": 0.7874015748031497,
    "duration": 0.05769225000000233
  },
  {
    "name": "F#2",
    "midi": 42,
    "time": 48.346105500000384,
    "velocity": 0.7874015748031497,
    "duration": 0.05769225000000233
  },
  {
    "name": "C2",
    "midi": 36,
    "time": 48.346105500000384,
    "velocity": 0.7874015748031497,
    "duration": 0.05769225000000233
  },
  {
    "name": "F#2",
    "midi": 42,
    "time": 48.46149000000039,
    "velocity": 0.7874015748031497,
    "duration": 0.05769225000000233
  },
  {
    "name": "C2",
    "midi": 36,
    "time": 48.46149000000039,
    "velocity": 0.7874015748031497,
    "duration": 0.05769225000000233
  },
  {
    "name": "F#2",
    "midi": 42,
    "time": 48.57687450000039,
    "velocity": 0.7874015748031497,
    "duration": 0.05769225000000233
  },
  {
    "name": "C2",
    "midi": 36,
    "time": 48.57687450000039,
    "velocity": 0.7874015748031497,
    "duration": 0.05769225000000233
  },
  {
    "name": "D2",
    "midi": 38,
    "time": 48.6922590000004,
    "velocity": 0.7874015748031497,
    "duration": 0.05769225000000233
  },
  {
    "name": "F#2",
    "midi": 42,
    "time": 48.6922590000004,
    "velocity": 0.7874015748031497,
    "duration": 0.05769225000000233
  },
  {
    "name": "D2",
    "midi": 38,
    "time": 48.8076435000004,
    "velocity": 0.7874015748031497,
    "duration": 0.05769225000000233
  },
  {
    "name": "F#2",
    "midi": 42,
    "time": 48.8076435000004,
    "velocity": 0.7874015748031497,
    "duration": 0.05769225000000233
  },
  {
    "name": "D2",
    "midi": 38,
    "time": 48.92302800000041,
    "velocity": 0.7874015748031497,
    "duration": 0.05769225000000233
  },
  {
    "name": "F#2",
    "midi": 42,
    "time": 48.92302800000041,
    "velocity": 0.7874015748031497,
    "duration": 0.05769225000000233
  },
  {
    "name": "C2",
    "midi": 36,
    "time": 49.03841250000041,
    "velocity": 0.7874015748031497,
    "duration": 0.05769225000000233
  },
  {
    "name": "F#2",
    "midi": 42,
    "time": 49.03841250000041,
    "velocity": 0.7874015748031497,
    "duration": 0.05769225000000233
  },
  {
    "name": "D2",
    "midi": 38,
    "time": 49.15379700000042,
    "velocity": 0.7874015748031497,
    "duration": 0.05769225000000233
  },
  {
    "name": "F#2",
    "midi": 42,
    "time": 49.15379700000042,
    "velocity": 0.7874015748031497,
    "duration": 0.05769225000000233
  },
  {
    "name": "C2",
    "midi": 36,
    "time": 49.26918150000042,
    "velocity": 0.7874015748031497,
    "duration": 0.05769225000000233
  },
  {
    "name": "F#2",
    "midi": 42,
    "time": 49.26918150000042,
    "velocity": 0.7874015748031497,
    "duration": 0.05769225000000233
  },
  {
    "name": "F#2",
    "midi": 42,
    "time": 49.384566000000426,
    "velocity": 0.7874015748031497,
    "duration": 0.05769225000000233
  },
  {
    "name": "C2",
    "midi": 36,
    "time": 49.384566000000426,
    "velocity": 0.7874015748031497,
    "duration": 0.05769225000000233
  },
  {
    "name": "F#2",
    "midi": 42,
    "time": 49.49995050000043,
    "velocity": 0.7874015748031497,
    "duration": 0.05769225000000233
  },
  {
    "name": "C2",
    "midi": 36,
    "time": 49.49995050000043,
    "velocity": 0.7874015748031497,
    "duration": 0.05769225000000233
  },
  {
    "name": "C2",
    "midi": 36,
    "time": 49.615335000000435,
    "velocity": 0.7874015748031497,
    "duration": 0.05769225000000233
  },
  {
    "name": "F#2",
    "midi": 42,
    "time": 49.615335000000435,
    "velocity": 0.7874015748031497,
    "duration": 0.05769225000000233
  },
  {
    "name": "C2",
    "midi": 36,
    "time": 49.73071950000044,
    "velocity": 0.7874015748031497,
    "duration": 0.05769225000000233
  },
  {
    "name": "F#2",
    "midi": 42,
    "time": 49.73071950000044,
    "velocity": 0.7874015748031497,
    "duration": 0.05769225000000233
  },
  {
    "name": "C2",
    "midi": 36,
    "time": 49.846104000000445,
    "velocity": 0.7874015748031497,
    "duration": 0.05769225000000233
  },
  {
    "name": "F#2",
    "midi": 42,
    "time": 49.846104000000445,
    "velocity": 0.7874015748031497,
    "duration": 0.05769225000000233
  },
  {
    "name": "C2",
    "midi": 36,
    "time": 49.96148850000045,
    "velocity": 0.7874015748031497,
    "duration": 0.05769225000000233
  },
  {
    "name": "F#2",
    "midi": 42,
    "time": 49.96148850000045,
    "velocity": 0.7874015748031497,
    "duration": 0.05769225000000233
  },
  {
    "name": "F#2",
    "midi": 42,
    "time": 50.076873000000454,
    "velocity": 0.7874015748031497,
    "duration": 0.05769225000000233
  },
  {
    "name": "D2",
    "midi": 38,
    "time": 50.076873000000454,
    "velocity": 0.7874015748031497,
    "duration": 0.05769225000000233
  },
  {
    "name": "F#2",
    "midi": 42,
    "time": 50.19225750000046,
    "velocity": 0.7874015748031497,
    "duration": 0.05769225000000233
  },
  {
    "name": "D2",
    "midi": 38,
    "time": 50.19225750000046,
    "velocity": 0.7874015748031497,
    "duration": 0.05769225000000233
  },
  {
    "name": "F#2",
    "midi": 42,
    "time": 50.30764200000046,
    "velocity": 0.7874015748031497,
    "duration": 0.05769225000000233
  },
  {
    "name": "D2",
    "midi": 38,
    "time": 50.30764200000046,
    "velocity": 0.7874015748031497,
    "duration": 0.05769225000000233
  },
  {
    "name": "F#2",
    "midi": 42,
    "time": 50.42302650000047,
    "velocity": 0.7874015748031497,
    "duration": 0.05769225000000233
  },
  {
    "name": "D2",
    "midi": 38,
    "time": 50.42302650000047,
    "velocity": 0.7874015748031497,
    "duration": 0.05769225000000233
  },
  {
    "name": "D2",
    "midi": 38,
    "time": 50.53841100000047,
    "velocity": 0.7874015748031497,
    "duration": 0.05769225000000233
  },
  {
    "name": "F#2",
    "midi": 42,
    "time": 50.53841100000047,
    "velocity": 0.7874015748031497,
    "duration": 0.05769225000000233
  },
  {
    "name": "D2",
    "midi": 38,
    "time": 50.65379550000048,
    "velocity": 0.7874015748031497,
    "duration": 0.05769225000000233
  },
  {
    "name": "F#2",
    "midi": 42,
    "time": 50.65379550000048,
    "velocity": 0.7874015748031497,
    "duration": 0.05769225000000233
  },
  {
    "name": "C2",
    "midi": 36,
    "time": 50.76918000000048,
    "velocity": 0.7874015748031497,
    "duration": 0.05769225000000233
  },
  {
    "name": "F#2",
    "midi": 42,
    "time": 50.76918000000048,
    "velocity": 0.7874015748031497,
    "duration": 0.05769225000000233
  },
  {
    "name": "C2",
    "midi": 36,
    "time": 50.88456450000049,
    "velocity": 0.7874015748031497,
    "duration": 0.05769225000000233
  },
  {
    "name": "F#2",
    "midi": 42,
    "time": 50.88456450000049,
    "velocity": 0.7874015748031497,
    "duration": 0.05769225000000233
  },
  {
    "name": "C2",
    "midi": 36,
    "time": 50.99994900000049,
    "velocity": 0.7874015748031497,
    "duration": 0.05769225000000233
  },
  {
    "name": "F#2",
    "midi": 42,
    "time": 50.99994900000049,
    "velocity": 0.7874015748031497,
    "duration": 0.05769225000000233
  },
  {
    "name": "D2",
    "midi": 38,
    "time": 51.115333500000496,
    "velocity": 0.7874015748031497,
    "duration": 0.05769225000000233
  },
  {
    "name": "F#2",
    "midi": 42,
    "time": 51.115333500000496,
    "velocity": 0.7874015748031497,
    "duration": 0.05769225000000233
  },
  {
    "name": "C2",
    "midi": 36,
    "time": 51.2307180000005,
    "velocity": 0.7874015748031497,
    "duration": 0.05769225000000233
  },
  {
    "name": "F#2",
    "midi": 42,
    "time": 51.2307180000005,
    "velocity": 0.7874015748031497,
    "duration": 0.05769225000000233
  },
  {
    "name": "C2",
    "midi": 36,
    "time": 51.346102500000505,
    "velocity": 0.7874015748031497,
    "duration": 0.05769225000000233
  },
  {
    "name": "F#2",
    "midi": 42,
    "time": 51.346102500000505,
    "velocity": 0.7874015748031497,
    "duration": 0.05769225000000233
  },
  {
    "name": "C2",
    "midi": 36,
    "time": 51.46148700000051,
    "velocity": 0.7874015748031497,
    "duration": 0.05769225000000233
  },
  {
    "name": "F#2",
    "midi": 42,
    "time": 51.46148700000051,
    "velocity": 0.7874015748031497,
    "duration": 0.05769225000000233
  },
  {
    "name": "F#2",
    "midi": 42,
    "time": 51.576871500000514,
    "velocity": 0.7874015748031497,
    "duration": 0.05769225000000233
  },
  {
    "name": "C2",
    "midi": 36,
    "time": 51.69225600000052,
    "velocity": 0.7874015748031497,
    "duration": 0.05769225000000233
  },
  {
    "name": "F#2",
    "midi": 42,
    "time": 51.69225600000052,
    "velocity": 0.7874015748031497,
    "duration": 0.05769225000000233
  },
  {
    "name": "D2",
    "midi": 38,
    "time": 51.807640500000524,
    "velocity": 0.7874015748031497,
    "duration": 0.05769225000000233
  },
  {
    "name": "F#2",
    "midi": 42,
    "time": 51.807640500000524,
    "velocity": 0.7874015748031497,
    "duration": 0.05769225000000233
  },
  {
    "name": "C2",
    "midi": 36,
    "time": 51.92302500000053,
    "velocity": 0.7874015748031497,
    "duration": 0.05769225000000233
  },
  {
    "name": "F#2",
    "midi": 42,
    "time": 51.92302500000053,
    "velocity": 0.7874015748031497,
    "duration": 0.05769225000000233
  },
  {
    "name": "C2",
    "midi": 36,
    "time": 52.03840950000053,
    "velocity": 0.7874015748031497,
    "duration": 0.05769225000000233
  },
  {
    "name": "F#2",
    "midi": 42,
    "time": 52.03840950000053,
    "velocity": 0.7874015748031497,
    "duration": 0.05769225000000233
  },
  {
    "name": "C2",
    "midi": 36,
    "time": 52.15379400000054,
    "velocity": 0.7874015748031497,
    "duration": 0.05769225000000233
  },
  {
    "name": "F#2",
    "midi": 42,
    "time": 52.15379400000054,
    "velocity": 0.7874015748031497,
    "duration": 0.05769225000000233
  },
  {
    "name": "C2",
    "midi": 36,
    "time": 52.26917850000054,
    "velocity": 0.7874015748031497,
    "duration": 0.05769225000000233
  },
  {
    "name": "F#2",
    "midi": 42,
    "time": 52.26917850000054,
    "velocity": 0.7874015748031497,
    "duration": 0.05769225000000233
  },
  {
    "name": "C2",
    "midi": 36,
    "time": 52.38456300000055,
    "velocity": 0.7874015748031497,
    "duration": 0.05769225000000233
  },
  {
    "name": "F#2",
    "midi": 42,
    "time": 52.38456300000055,
    "velocity": 0.7874015748031497,
    "duration": 0.05769225000000233
  },
  {
    "name": "D2",
    "midi": 38,
    "time": 52.49994750000055,
    "velocity": 0.7874015748031497,
    "duration": 0.05769225000000233
  },
  {
    "name": "F#2",
    "midi": 42,
    "time": 52.49994750000055,
    "velocity": 0.7874015748031497,
    "duration": 0.05769225000000233
  },
  {
    "name": "C2",
    "midi": 36,
    "time": 52.615332000000556,
    "velocity": 0.7874015748031497,
    "duration": 0.05769225000000233
  },
  {
    "name": "F#2",
    "midi": 42,
    "time": 52.615332000000556,
    "velocity": 0.7874015748031497,
    "duration": 0.05769225000000233
  },
  {
    "name": "C2",
    "midi": 36,
    "time": 52.73071650000056,
    "velocity": 0.7874015748031497,
    "duration": 0.05769225000000233
  },
  {
    "name": "F#2",
    "midi": 42,
    "time": 52.73071650000056,
    "velocity": 0.7874015748031497,
    "duration": 0.05769225000000233
  },
  {
    "name": "C2",
    "midi": 36,
    "time": 52.846101000000566,
    "velocity": 0.7874015748031497,
    "duration": 0.05769225000000233
  },
  {
    "name": "F#2",
    "midi": 42,
    "time": 52.846101000000566,
    "velocity": 0.7874015748031497,
    "duration": 0.05769225000000233
  },
  {
    "name": "F#2",
    "midi": 42,
    "time": 52.96148550000057,
    "velocity": 0.7874015748031497,
    "duration": 0.05769225000000233
  },
  {
    "name": "C2",
    "midi": 36,
    "time": 53.076870000000575,
    "velocity": 0.7874015748031497,
    "duration": 0.05769225000000233
  },
  {
    "name": "F#2",
    "midi": 42,
    "time": 53.076870000000575,
    "velocity": 0.7874015748031497,
    "duration": 0.05769225000000233
  },
  {
    "name": "D2",
    "midi": 38,
    "time": 53.19225450000058,
    "velocity": 0.7874015748031497,
    "duration": 0.05769225000000233
  },
  {
    "name": "F#2",
    "midi": 42,
    "time": 53.19225450000058,
    "velocity": 0.7874015748031497,
    "duration": 0.05769225000000233
  },
  {
    "name": "D2",
    "midi": 38,
    "time": 53.307639000000584,
    "velocity": 0.7874015748031497,
    "duration": 0.05769225000000233
  },
  {
    "name": "F#2",
    "midi": 42,
    "time": 53.307639000000584,
    "velocity": 0.7874015748031497,
    "duration": 0.05769225000000233
  },
  {
    "name": "D2",
    "midi": 38,
    "time": 53.42302350000059,
    "velocity": 0.7874015748031497,
    "duration": 0.05769225000000233
  },
  {
    "name": "F#2",
    "midi": 42,
    "time": 53.42302350000059,
    "velocity": 0.7874015748031497,
    "duration": 0.05769225000000233
  },
  {
    "name": "D2",
    "midi": 38,
    "time": 53.538408000000594,
    "velocity": 0.7874015748031497,
    "duration": 0.05769225000000233
  },
  {
    "name": "F#2",
    "midi": 42,
    "time": 53.538408000000594,
    "velocity": 0.7874015748031497,
    "duration": 0.05769225000000233
  },
  {
    "name": "C2",
    "midi": 36,
    "time": 53.6537925000006,
    "velocity": 0.7874015748031497,
    "duration": 0.05769225000000233
  },
  {
    "name": "F#2",
    "midi": 42,
    "time": 53.6537925000006,
    "velocity": 0.7874015748031497,
    "duration": 0.05769225000000233
  },
  {
    "name": "C2",
    "midi": 36,
    "time": 53.7691770000006,
    "velocity": 0.7874015748031497,
    "duration": 0.05769225000000233
  },
  {
    "name": "F#2",
    "midi": 42,
    "time": 53.7691770000006,
    "velocity": 0.7874015748031497,
    "duration": 0.05769225000000233
  },
  {
    "name": "D2",
    "midi": 38,
    "time": 53.88456150000061,
    "velocity": 0.7874015748031497,
    "duration": 0.05769225000000233
  },
  {
    "name": "F#2",
    "midi": 42,
    "time": 53.88456150000061,
    "velocity": 0.7874015748031497,
    "duration": 0.05769225000000233
  },
  {
    "name": "C2",
    "midi": 36,
    "time": 53.99994600000061,
    "velocity": 0.7874015748031497,
    "duration": 0.05769225000000233
  },
  {
    "name": "F#2",
    "midi": 42,
    "time": 53.99994600000061,
    "velocity": 0.7874015748031497,
    "duration": 0.05769225000000233
  },
  {
    "name": "C2",
    "midi": 36,
    "time": 54.11533050000062,
    "velocity": 0.7874015748031497,
    "duration": 0.05769225000000233
  },
  {
    "name": "F#2",
    "midi": 42,
    "time": 54.11533050000062,
    "velocity": 0.7874015748031497,
    "duration": 0.05769225000000233
  },
  {
    "name": "D2",
    "midi": 38,
    "time": 54.23071500000062,
    "velocity": 0.7874015748031497,
    "duration": 0.05769225000000233
  },
  {
    "name": "F#2",
    "midi": 42,
    "time": 54.23071500000062,
    "velocity": 0.7874015748031497,
    "duration": 0.05769225000000233
  },
  {
    "name": "C2",
    "midi": 36,
    "time": 54.346099500000626,
    "velocity": 0.7874015748031497,
    "duration": 0.05769225000000233
  },
  {
    "name": "F#2",
    "midi": 42,
    "time": 54.346099500000626,
    "velocity": 0.7874015748031497,
    "duration": 0.05769225000000233
  },
  {
    "name": "D2",
    "midi": 38,
    "time": 54.46148400000063,
    "velocity": 0.7874015748031497,
    "duration": 0.05769225000000233
  },
  {
    "name": "F#2",
    "midi": 42,
    "time": 54.46148400000063,
    "velocity": 0.7874015748031497,
    "duration": 0.05769225000000233
  },
  {
    "name": "C2",
    "midi": 36,
    "time": 54.576868500000636,
    "velocity": 0.7874015748031497,
    "duration": 0.05769225000000233
  },
  {
    "name": "F#2",
    "midi": 42,
    "time": 54.576868500000636,
    "velocity": 0.7874015748031497,
    "duration": 0.05769225000000233
  },
  {
    "name": "D2",
    "midi": 38,
    "time": 54.69225300000064,
    "velocity": 0.7874015748031497,
    "duration": 0.05769225000000233
  },
  {
    "name": "F#2",
    "midi": 42,
    "time": 54.69225300000064,
    "velocity": 0.7874015748031497,
    "duration": 0.05769225000000233
  },
  {
    "name": "D2",
    "midi": 38,
    "time": 54.807637500000645,
    "velocity": 0.7874015748031497,
    "duration": 0.05769225000000233
  },
  {
    "name": "F#2",
    "midi": 42,
    "time": 54.807637500000645,
    "velocity": 0.7874015748031497,
    "duration": 0.05769225000000233
  },
  {
    "name": "D2",
    "midi": 38,
    "time": 54.92302200000065,
    "velocity": 0.7874015748031497,
    "duration": 0.05769225000000233
  },
  {
    "name": "F#2",
    "midi": 42,
    "time": 54.92302200000065,
    "velocity": 0.7874015748031497,
    "duration": 0.05769225000000233
  },
  {
    "name": "D2",
    "midi": 38,
    "time": 55.038406500000654,
    "velocity": 0.7874015748031497,
    "duration": 0.05769225000000233
  },
  {
    "name": "F#2",
    "midi": 42,
    "time": 55.038406500000654,
    "velocity": 0.7874015748031497,
    "duration": 0.05769225000000233
  },
  {
    "name": "D2",
    "midi": 38,
    "time": 55.15379100000066,
    "velocity": 0.7874015748031497,
    "duration": 0.05769225000000233
  },
  {
    "name": "F#2",
    "midi": 42,
    "time": 55.15379100000066,
    "velocity": 0.7874015748031497,
    "duration": 0.05769225000000233
  },
  {
    "name": "C2",
    "midi": 36,
    "time": 55.269175500000664,
    "velocity": 0.7874015748031497,
    "duration": 0.05769225000000233
  },
  {
    "name": "F#2",
    "midi": 42,
    "time": 55.269175500000664,
    "velocity": 0.7874015748031497,
    "duration": 0.05769225000000233
  },
  {
    "name": "C2",
    "midi": 36,
    "time": 55.38456000000067,
    "velocity": 0.7874015748031497,
    "duration": 0.05769225000000233
  },
  {
    "name": "F#2",
    "midi": 42,
    "time": 55.38456000000067,
    "velocity": 0.7874015748031497,
    "duration": 0.05769225000000233
  },
  {
    "name": "D2",
    "midi": 38,
    "time": 55.49994450000067,
    "velocity": 0.7874015748031497,
    "duration": 0.05769225000000233
  },
  {
    "name": "F#2",
    "midi": 42,
    "time": 55.49994450000067,
    "velocity": 0.7874015748031497,
    "duration": 0.05769225000000233
  },
  {
    "name": "C2",
    "midi": 36,
    "time": 55.61532900000068,
    "velocity": 0.7874015748031497,
    "duration": 0.05769225000000233
  },
  {
    "name": "F#2",
    "midi": 42,
    "time": 55.61532900000068,
    "velocity": 0.7874015748031497,
    "duration": 0.05769225000000233
  },
  {
    "name": "C2",
    "midi": 36,
    "time": 55.73071350000068,
    "velocity": 0.7874015748031497,
    "duration": 0.05769225000000233
  },
  {
    "name": "F#2",
    "midi": 42,
    "time": 55.73071350000068,
    "velocity": 0.7874015748031497,
    "duration": 0.05769225000000233
  },
  {
    "name": "D2",
    "midi": 38,
    "time": 55.84609800000069,
    "velocity": 0.7874015748031497,
    "duration": 0.05769225000000233
  },
  {
    "name": "F#2",
    "midi": 42,
    "time": 55.84609800000069,
    "velocity": 0.7874015748031497,
    "duration": 0.05769225000000233
  },
  {
    "name": "C2",
    "midi": 36,
    "time": 55.96148250000069,
    "velocity": 0.7874015748031497,
    "duration": 0.05769225000000233
  },
  {
    "name": "F#2",
    "midi": 42,
    "time": 55.96148250000069,
    "velocity": 0.7874015748031497,
    "duration": 0.05769225000000233
  },
  {
    "name": "D2",
    "midi": 38,
    "time": 56.076867000000696,
    "velocity": 0.7874015748031497,
    "duration": 0.05769225000000233
  },
  {
    "name": "F#2",
    "midi": 42,
    "time": 56.076867000000696,
    "velocity": 0.7874015748031497,
    "duration": 0.05769225000000233
  },
  {
    "name": "C2",
    "midi": 36,
    "time": 56.1922515000007,
    "velocity": 0.7874015748031497,
    "duration": 0.05769225000000233
  },
  {
    "name": "F#2",
    "midi": 42,
    "time": 56.1922515000007,
    "velocity": 0.7874015748031497,
    "duration": 0.05769225000000233
  },
  {
    "name": "D2",
    "midi": 38,
    "time": 56.307636000000706,
    "velocity": 0.7874015748031497,
    "duration": 0.05769225000000233
  },
  {
    "name": "F#2",
    "midi": 42,
    "time": 56.307636000000706,
    "velocity": 0.7874015748031497,
    "duration": 0.05769225000000233
  },
  {
    "name": "D2",
    "midi": 38,
    "time": 56.42302050000071,
    "velocity": 0.7874015748031497,
    "duration": 0.05769225000000233
  },
  {
    "name": "F#2",
    "midi": 42,
    "time": 56.42302050000071,
    "velocity": 0.7874015748031497,
    "duration": 0.05769225000000233
  },
  {
    "name": "D2",
    "midi": 38,
    "time": 56.538405000000715,
    "velocity": 0.7874015748031497,
    "duration": 0.05769225000000233
  },
  {
    "name": "F#2",
    "midi": 42,
    "time": 56.538405000000715,
    "velocity": 0.7874015748031497,
    "duration": 0.05769225000000233
  },
  {
    "name": "D2",
    "midi": 38,
    "time": 56.65378950000072,
    "velocity": 0.7874015748031497,
    "duration": 0.05769225000000233
  },
  {
    "name": "F#2",
    "midi": 42,
    "time": 56.65378950000072,
    "velocity": 0.7874015748031497,
    "duration": 0.05769225000000233
  }
];