export let synth2 = [
  {
    "name": "A#3",
    "midi": 58,
    "time": 11.076911999999998,
    "velocity": 1,
    "duration": 0.3461534999999998
  },
  {
    "name": "D#4",
    "midi": 63,
    "time": 11.423065499999998,
    "velocity": 1,
    "duration": 0.3461534999999998
  },
  {
    "name": "A#4",
    "midi": 70,
    "time": 11.769218999999998,
    "velocity": 1,
    "duration": 0.23076900000000045
  },
  {
    "name": "D#5",
    "midi": 75,
    "time": 11.999987999999998,
    "velocity": 1,
    "duration": 0.23076900000000045
  },
  {
    "name": "C4",
    "midi": 60,
    "time": 12.230756999999999,
    "velocity": 1,
    "duration": 0.23076900000000045
  },
  {
    "name": "F5",
    "midi": 77,
    "time": 12.461526,
    "velocity": 1,
    "duration": 0.4615379999999991
  },
  {
    "name": "A#3",
    "midi": 58,
    "time": 13.615370999999998,
    "velocity": 1,
    "duration": 0.3461534999999998
  },
  {
    "name": "D#4",
    "midi": 63,
    "time": 13.961524499999998,
    "velocity": 1,
    "duration": 0.3461534999999998
  },
  {
    "name": "A#4",
    "midi": 70,
    "time": 14.307677999999997,
    "velocity": 1,
    "duration": 0.23076900000000045
  },
  {
    "name": "D#5",
    "midi": 75,
    "time": 14.538446999999998,
    "velocity": 1,
    "duration": 0.23076900000000045
  },
  {
    "name": "C4",
    "midi": 60,
    "time": 14.769215999999998,
    "velocity": 1,
    "duration": 0.23076900000000045
  },
  {
    "name": "F5",
    "midi": 77,
    "time": 14.999984999999999,
    "velocity": 1,
    "duration": 0.4615379999999991
  },
  {
    "name": "A#4",
    "midi": 70,
    "time": 16.15383,
    "velocity": 1,
    "duration": 0.3461534999999998
  },
  {
    "name": "A#5",
    "midi": 82,
    "time": 16.4999835,
    "velocity": 1,
    "duration": 0.11538450000000111
  },
  {
    "name": "G#5",
    "midi": 80,
    "time": 16.615368,
    "velocity": 1,
    "duration": 0.11538450000000111
  },
  {
    "name": "F#5",
    "midi": 78,
    "time": 16.7307525,
    "velocity": 1,
    "duration": 0.11538450000000111
  },
  {
    "name": "F5",
    "midi": 77,
    "time": 16.846137000000002,
    "velocity": 1,
    "duration": 0.11538450000000111
  },
  {
    "name": "D#5",
    "midi": 75,
    "time": 16.961521500000003,
    "velocity": 1,
    "duration": 0.11538450000000111
  },
  {
    "name": "C#5",
    "midi": 73,
    "time": 17.076906000000005,
    "velocity": 1,
    "duration": 0.11538450000000111
  },
  {
    "name": "C5",
    "midi": 72,
    "time": 17.192290500000006,
    "velocity": 1,
    "duration": 0.11538450000000111
  },
  {
    "name": "A#4",
    "midi": 70,
    "time": 17.307675000000007,
    "velocity": 1,
    "duration": 0.11538450000000111
  },
  {
    "name": "G#4",
    "midi": 68,
    "time": 17.423059500000008,
    "velocity": 1,
    "duration": 0.11538450000000111
  },
  {
    "name": "A#4",
    "midi": 70,
    "time": 17.53844400000001,
    "velocity": 1,
    "duration": 0.11538450000000111
  },
  {
    "name": "A#5",
    "midi": 82,
    "time": 17.65382850000001,
    "velocity": 1,
    "duration": 0.11538450000000111
  },
  {
    "name": "G#5",
    "midi": 80,
    "time": 17.76921300000001,
    "velocity": 1,
    "duration": 0.11538450000000111
  },
  {
    "name": "F#5",
    "midi": 78,
    "time": 17.884597500000012,
    "velocity": 1,
    "duration": 0.11538450000000111
  },
  {
    "name": "F5",
    "midi": 77,
    "time": 17.999982000000013,
    "velocity": 1,
    "duration": 0.11538450000000111
  },
  {
    "name": "D#5",
    "midi": 75,
    "time": 18.115366500000015,
    "velocity": 1,
    "duration": 0.11538450000000111
  },
  {
    "name": "C#5",
    "midi": 73,
    "time": 18.230751000000016,
    "velocity": 1,
    "duration": 0.11538450000000111
  },
  {
    "name": "C5",
    "midi": 72,
    "time": 18.346135500000017,
    "velocity": 1,
    "duration": 0.11538450000000111
  },
  {
    "name": "A#4",
    "midi": 70,
    "time": 18.461520000000018,
    "velocity": 1,
    "duration": 0.11538450000000111
  },
  {
    "name": "G#4",
    "midi": 68,
    "time": 18.57690450000002,
    "velocity": 1,
    "duration": 0.11538450000000111
  },
  {
    "name": "A#4",
    "midi": 70,
    "time": 18.69228900000002,
    "velocity": 1,
    "duration": 0.11538450000000111
  },
  {
    "name": "A#5",
    "midi": 82,
    "time": 18.80767350000002,
    "velocity": 1,
    "duration": 0.11538450000000111
  },
  {
    "name": "G#5",
    "midi": 80,
    "time": 18.923058000000022,
    "velocity": 1,
    "duration": 0.11538450000000111
  },
  {
    "name": "F#5",
    "midi": 78,
    "time": 19.038442500000023,
    "velocity": 1,
    "duration": 0.11538450000000111
  },
  {
    "name": "F5",
    "midi": 77,
    "time": 19.153827000000025,
    "velocity": 1,
    "duration": 0.11538450000000111
  },
  {
    "name": "D#5",
    "midi": 75,
    "time": 19.269211500000026,
    "velocity": 1,
    "duration": 0.11538450000000111
  },
  {
    "name": "C#5",
    "midi": 73,
    "time": 19.384596000000027,
    "velocity": 1,
    "duration": 0.11538450000000111
  },
  {
    "name": "C5",
    "midi": 72,
    "time": 19.499980500000028,
    "velocity": 1,
    "duration": 0.11538450000000111
  },
  {
    "name": "C3",
    "midi": 48,
    "time": 19.61536500000003,
    "velocity": 1,
    "duration": 0.11538450000000111
  },
  {
    "name": "C4",
    "midi": 60,
    "time": 19.73074950000003,
    "velocity": 1,
    "duration": 0.11538450000000111
  },
  {
    "name": "C3",
    "midi": 48,
    "time": 19.84613400000003,
    "velocity": 1,
    "duration": 0.11538450000000111
  },
  {
    "name": "C4",
    "midi": 60,
    "time": 19.961518500000032,
    "velocity": 1,
    "duration": 0.11538450000000111
  },
  {
    "name": "C3",
    "midi": 48,
    "time": 20.076903000000033,
    "velocity": 1,
    "duration": 0.11538450000000111
  },
  {
    "name": "C4",
    "midi": 60,
    "time": 20.192287500000035,
    "velocity": 1,
    "duration": 0.11538450000000111
  },
  {
    "name": "A#2",
    "midi": 46,
    "time": 20.307672000000036,
    "velocity": 1,
    "duration": 0.11538450000000111
  },
  {
    "name": "A#3",
    "midi": 58,
    "time": 20.423056500000037,
    "velocity": 1,
    "duration": 0.11538450000000111
  },
  {
    "name": "A#2",
    "midi": 46,
    "time": 20.538441000000038,
    "velocity": 1,
    "duration": 0.23076899999999867
  },
  {
    "name": "A#2",
    "midi": 46,
    "time": 20.769210000000037,
    "velocity": 1,
    "duration": 0.23076899999999867
  },
  {
    "name": "C3",
    "midi": 48,
    "time": 20.999979000000035,
    "velocity": 1,
    "duration": 0.11538450000000111
  },
  {
    "name": "C4",
    "midi": 60,
    "time": 21.115363500000036,
    "velocity": 1,
    "duration": 0.11538450000000111
  },
  {
    "name": "C3",
    "midi": 48,
    "time": 21.230748000000037,
    "velocity": 1,
    "duration": 0.11538450000000111
  },
  {
    "name": "C4",
    "midi": 60,
    "time": 21.34613250000004,
    "velocity": 1,
    "duration": 0.11538450000000111
  },
  {
    "name": "C3",
    "midi": 48,
    "time": 21.46151700000004,
    "velocity": 1,
    "duration": 0.11538450000000111
  },
  {
    "name": "C4",
    "midi": 60,
    "time": 21.57690150000004,
    "velocity": 1,
    "duration": 0.11538450000000111
  },
  {
    "name": "A2",
    "midi": 45,
    "time": 21.692286000000042,
    "velocity": 1,
    "duration": 0.11538450000000111
  },
  {
    "name": "A3",
    "midi": 57,
    "time": 21.807670500000043,
    "velocity": 1,
    "duration": 0.11538450000000111
  },
  {
    "name": "A2",
    "midi": 45,
    "time": 21.923055000000044,
    "velocity": 1,
    "duration": 0.23076899999999867
  },
  {
    "name": "A2",
    "midi": 45,
    "time": 22.153824000000043,
    "velocity": 1,
    "duration": 0.23076899999999867
  },
  {
    "name": "C3",
    "midi": 48,
    "time": 22.38459300000004,
    "velocity": 1,
    "duration": 0.11538450000000111
  },
  {
    "name": "C4",
    "midi": 60,
    "time": 22.499977500000043,
    "velocity": 1,
    "duration": 0.11538450000000111
  },
  {
    "name": "C3",
    "midi": 48,
    "time": 22.615362000000044,
    "velocity": 1,
    "duration": 0.11538450000000111
  },
  {
    "name": "C4",
    "midi": 60,
    "time": 22.730746500000045,
    "velocity": 1,
    "duration": 0.11538450000000111
  },
  {
    "name": "C3",
    "midi": 48,
    "time": 22.846131000000046,
    "velocity": 1,
    "duration": 0.11538450000000111
  },
  {
    "name": "C4",
    "midi": 60,
    "time": 22.961515500000047,
    "velocity": 1,
    "duration": 0.11538450000000111
  },
  {
    "name": "G#2",
    "midi": 44,
    "time": 23.076900000000048,
    "velocity": 1,
    "duration": 0.11538450000000111
  },
  {
    "name": "G#3",
    "midi": 56,
    "time": 23.19228450000005,
    "velocity": 1,
    "duration": 0.11538450000000111
  },
  {
    "name": "G#2",
    "midi": 44,
    "time": 23.30766900000005,
    "velocity": 1,
    "duration": 0.23076899999999867
  },
  {
    "name": "G#2",
    "midi": 44,
    "time": 23.53843800000005,
    "velocity": 1,
    "duration": 0.23076899999999867
  },
  {
    "name": "D#4",
    "midi": 63,
    "time": 23.769207000000048,
    "velocity": 1,
    "duration": 0.11538450000000111
  },
  {
    "name": "A#3",
    "midi": 58,
    "time": 23.88459150000005,
    "velocity": 1,
    "duration": 0.11538450000000111
  },
  {
    "name": "G3",
    "midi": 55,
    "time": 23.99997600000005,
    "velocity": 1,
    "duration": 0.11538450000000111
  },
  {
    "name": "D4",
    "midi": 62,
    "time": 24.11536050000005,
    "velocity": 1,
    "duration": 0.11538450000000111
  },
  {
    "name": "A3",
    "midi": 57,
    "time": 24.230745000000052,
    "velocity": 1,
    "duration": 0.11538450000000111
  },
  {
    "name": "F#3",
    "midi": 54,
    "time": 24.346129500000053,
    "velocity": 1,
    "duration": 0.11538450000000111
  },
  {
    "name": "C#4",
    "midi": 61,
    "time": 24.461514000000054,
    "velocity": 1,
    "duration": 0.11538450000000111
  },
  {
    "name": "G#3",
    "midi": 56,
    "time": 24.576898500000055,
    "velocity": 1,
    "duration": 0.11538450000000111
  },
  {
    "name": "F#3",
    "midi": 54,
    "time": 24.692283000000057,
    "velocity": 1,
    "duration": 0.11538450000000111
  },
  {
    "name": "C4",
    "midi": 60,
    "time": 24.807667500000058,
    "velocity": 1,
    "duration": 0.11538450000000111
  },
  {
    "name": "F#3",
    "midi": 54,
    "time": 24.92305200000006,
    "velocity": 1,
    "duration": 0.11538450000000111
  },
  {
    "name": "D#3",
    "midi": 51,
    "time": 25.03843650000006,
    "velocity": 1,
    "duration": 0.11538450000000111
  },
  {
    "name": "C3",
    "midi": 48,
    "time": 25.15382100000006,
    "velocity": 1,
    "duration": 0.11538450000000111
  },
  {
    "name": "C4",
    "midi": 60,
    "time": 25.269205500000062,
    "velocity": 1,
    "duration": 0.11538450000000111
  },
  {
    "name": "C3",
    "midi": 48,
    "time": 25.384590000000063,
    "velocity": 1,
    "duration": 0.11538450000000111
  },
  {
    "name": "C4",
    "midi": 60,
    "time": 25.499974500000064,
    "velocity": 1,
    "duration": 0.11538450000000111
  },
  {
    "name": "C3",
    "midi": 48,
    "time": 25.615359000000065,
    "velocity": 1,
    "duration": 0.11538450000000111
  },
  {
    "name": "C4",
    "midi": 60,
    "time": 25.730743500000067,
    "velocity": 1,
    "duration": 0.11538450000000111
  },
  {
    "name": "A#2",
    "midi": 46,
    "time": 25.846128000000068,
    "velocity": 1,
    "duration": 0.11538450000000111
  },
  {
    "name": "A#3",
    "midi": 58,
    "time": 25.96151250000007,
    "velocity": 1,
    "duration": 0.11538450000000111
  },
  {
    "name": "A#2",
    "midi": 46,
    "time": 26.07689700000007,
    "velocity": 1,
    "duration": 0.23076899999999867
  },
  {
    "name": "A#2",
    "midi": 46,
    "time": 26.30766600000007,
    "velocity": 1,
    "duration": 0.23076899999999867
  },
  {
    "name": "C3",
    "midi": 48,
    "time": 26.538435000000067,
    "velocity": 1,
    "duration": 0.11538450000000111
  },
  {
    "name": "C4",
    "midi": 60,
    "time": 26.65381950000007,
    "velocity": 1,
    "duration": 0.11538450000000111
  },
  {
    "name": "C3",
    "midi": 48,
    "time": 26.76920400000007,
    "velocity": 1,
    "duration": 0.11538450000000111
  },
  {
    "name": "C4",
    "midi": 60,
    "time": 26.88458850000007,
    "velocity": 1,
    "duration": 0.11538450000000111
  },
  {
    "name": "C3",
    "midi": 48,
    "time": 26.99997300000007,
    "velocity": 1,
    "duration": 0.11538450000000111
  },
  {
    "name": "C4",
    "midi": 60,
    "time": 27.115357500000073,
    "velocity": 1,
    "duration": 0.11538450000000111
  },
  {
    "name": "A2",
    "midi": 45,
    "time": 27.230742000000074,
    "velocity": 1,
    "duration": 0.11538450000000111
  },
  {
    "name": "A3",
    "midi": 57,
    "time": 27.346126500000075,
    "velocity": 1,
    "duration": 0.11538450000000111
  },
  {
    "name": "A2",
    "midi": 45,
    "time": 27.461511000000076,
    "velocity": 1,
    "duration": 0.23076899999999867
  },
  {
    "name": "A2",
    "midi": 45,
    "time": 27.692280000000075,
    "velocity": 1,
    "duration": 0.23076899999999867
  },
  {
    "name": "G#3",
    "midi": 56,
    "time": 27.923049000000074,
    "velocity": 1,
    "duration": 0.11538450000000111
  },
  {
    "name": "G#3",
    "midi": 56,
    "time": 28.038433500000075,
    "velocity": 1,
    "duration": 0.11538450000000111
  },
  {
    "name": "G#3",
    "midi": 56,
    "time": 28.153818000000076,
    "velocity": 1,
    "duration": 0.11538450000000111
  },
  {
    "name": "G#3",
    "midi": 56,
    "time": 28.269202500000077,
    "velocity": 1,
    "duration": 0.11538450000000111
  },
  {
    "name": "G#3",
    "midi": 56,
    "time": 28.384587000000078,
    "velocity": 1,
    "duration": 0.11538450000000111
  },
  {
    "name": "G#3",
    "midi": 56,
    "time": 28.49997150000008,
    "velocity": 1,
    "duration": 0.11538450000000111
  },
  {
    "name": "G#3",
    "midi": 56,
    "time": 28.61535600000008,
    "velocity": 1,
    "duration": 0.23076899999999867
  },
  {
    "name": "G#3",
    "midi": 56,
    "time": 28.84612500000008,
    "velocity": 1,
    "duration": 0.11538450000000111
  },
  {
    "name": "A#3",
    "midi": 58,
    "time": 28.96150950000008,
    "velocity": 1,
    "duration": 0.3461534999999998
  },
  {
    "name": "G#4",
    "midi": 68,
    "time": 29.30766300000008,
    "velocity": 1,
    "duration": 0.11538450000000111
  },
  {
    "name": "G#4",
    "midi": 68,
    "time": 29.42304750000008,
    "velocity": 1,
    "duration": 0.11538450000000111
  },
  {
    "name": "G#4",
    "midi": 68,
    "time": 29.538432000000082,
    "velocity": 1,
    "duration": 0.11538450000000111
  },
  {
    "name": "G#4",
    "midi": 68,
    "time": 29.653816500000083,
    "velocity": 1,
    "duration": 0.11538450000000111
  },
  {
    "name": "G#4",
    "midi": 68,
    "time": 29.769201000000084,
    "velocity": 1,
    "duration": 0.11538450000000111
  },
  {
    "name": "G#4",
    "midi": 68,
    "time": 29.884585500000085,
    "velocity": 1,
    "duration": 0.11538450000000111
  },
  {
    "name": "G#4",
    "midi": 68,
    "time": 29.999970000000086,
    "velocity": 1,
    "duration": 0.23076899999999867
  },
  {
    "name": "A#4",
    "midi": 70,
    "time": 30.230739000000085,
    "velocity": 1,
    "duration": 0.23076899999999867
  },
  {
    "name": "D#5",
    "midi": 75,
    "time": 30.461508000000084,
    "velocity": 1,
    "duration": 0.11538450000000111
  },
  {
    "name": "G5",
    "midi": 79,
    "time": 30.576892500000085,
    "velocity": 1,
    "duration": 0.11538450000000111
  },
  {
    "name": "F#5",
    "midi": 78,
    "time": 30.692277000000086,
    "velocity": 1,
    "duration": 0.11538450000000111
  },
  {
    "name": "F#5",
    "midi": 78,
    "time": 30.807661500000087,
    "velocity": 1,
    "duration": 0.11538450000000111
  },
  {
    "name": "F#5",
    "midi": 78,
    "time": 30.923046000000088,
    "velocity": 1,
    "duration": 0.11538450000000111
  },
  {
    "name": "D#5",
    "midi": 75,
    "time": 31.03843050000009,
    "velocity": 1,
    "duration": 0.11538450000000111
  },
  {
    "name": "D#5",
    "midi": 75,
    "time": 31.15381500000009,
    "velocity": 1,
    "duration": 0.11538450000000111
  },
  {
    "name": "D#5",
    "midi": 75,
    "time": 31.26919950000009,
    "velocity": 1,
    "duration": 0.11538450000000111
  },
  {
    "name": "F#5",
    "midi": 78,
    "time": 31.384584000000093,
    "velocity": 1,
    "duration": 0.11538450000000111
  },
  {
    "name": "F#5",
    "midi": 78,
    "time": 31.499968500000094,
    "velocity": 1,
    "duration": 0.11538450000000111
  },
  {
    "name": "D5",
    "midi": 74,
    "time": 31.615353000000095,
    "velocity": 1,
    "duration": 0.11538450000000111
  },
  {
    "name": "D5",
    "midi": 74,
    "time": 31.730737500000096,
    "velocity": 1,
    "duration": 0.11538450000000111
  },
  {
    "name": "F5",
    "midi": 77,
    "time": 31.846122000000097,
    "velocity": 1,
    "duration": 0.11538450000000111
  },
  {
    "name": "F5",
    "midi": 77,
    "time": 31.961506500000098,
    "velocity": 1,
    "duration": 0.11538449999999756
  },
  {
    "name": "C#5",
    "midi": 73,
    "time": 32.076891000000096,
    "velocity": 1,
    "duration": 0.11538449999999756
  },
  {
    "name": "C#5",
    "midi": 73,
    "time": 32.19227550000009,
    "velocity": 1,
    "duration": 0.11538449999999756
  },
  {
    "name": "F#5",
    "midi": 78,
    "time": 32.30766000000009,
    "velocity": 1,
    "duration": 0.11538449999999756
  },
  {
    "name": "F#5",
    "midi": 78,
    "time": 32.42304450000009,
    "velocity": 1,
    "duration": 0.11538449999999756
  },
  {
    "name": "F#5",
    "midi": 78,
    "time": 32.538429000000086,
    "velocity": 1,
    "duration": 0.11538449999999756
  },
  {
    "name": "D#5",
    "midi": 75,
    "time": 32.65381350000008,
    "velocity": 1,
    "duration": 0.11538449999999756
  },
  {
    "name": "D#5",
    "midi": 75,
    "time": 32.76919800000008,
    "velocity": 1,
    "duration": 0.11538449999999756
  },
  {
    "name": "D#5",
    "midi": 75,
    "time": 32.88458250000008,
    "velocity": 1,
    "duration": 0.11538449999999756
  },
  {
    "name": "G#5",
    "midi": 80,
    "time": 32.999967000000076,
    "velocity": 1,
    "duration": 0.11538449999999756
  },
  {
    "name": "G#5",
    "midi": 80,
    "time": 33.115351500000074,
    "velocity": 1,
    "duration": 0.11538449999999756
  },
  {
    "name": "F5",
    "midi": 77,
    "time": 33.23073600000007,
    "velocity": 1,
    "duration": 0.11538449999999756
  },
  {
    "name": "F5",
    "midi": 77,
    "time": 33.34612050000007,
    "velocity": 1,
    "duration": 0.11538449999999756
  },
  {
    "name": "A#5",
    "midi": 82,
    "time": 33.461505000000066,
    "velocity": 1,
    "duration": 0.11538449999999756
  },
  {
    "name": "C#6",
    "midi": 85,
    "time": 33.576889500000064,
    "velocity": 1,
    "duration": 0.46153799999999734
  },
  {
    "name": "A#3",
    "midi": 58,
    "time": 33.923043000000064,
    "velocity": 1,
    "duration": 0.3461534999999998
  },
  {
    "name": "D#4",
    "midi": 63,
    "time": 34.269196500000064,
    "velocity": 1,
    "duration": 0.3461534999999998
  },
  {
    "name": "A#4",
    "midi": 70,
    "time": 34.61535000000006,
    "velocity": 1,
    "duration": 0.23076900000000222
  },
  {
    "name": "D#5",
    "midi": 75,
    "time": 34.846119000000066,
    "velocity": 1,
    "duration": 0.23076900000000222
  },
  {
    "name": "C4",
    "midi": 60,
    "time": 35.07688800000007,
    "velocity": 1,
    "duration": 0.23076900000000222
  },
  {
    "name": "F5",
    "midi": 77,
    "time": 35.30765700000007,
    "velocity": 1,
    "duration": 0.46153799999999734
  },
  {
    "name": "A#3",
    "midi": 58,
    "time": 36.46150200000007,
    "velocity": 1,
    "duration": 0.3461534999999998
  },
  {
    "name": "D#4",
    "midi": 63,
    "time": 36.80765550000007,
    "velocity": 1,
    "duration": 0.3461534999999998
  },
  {
    "name": "A#4",
    "midi": 70,
    "time": 37.15380900000007,
    "velocity": 1,
    "duration": 0.23076900000000222
  },
  {
    "name": "D#5",
    "midi": 75,
    "time": 37.38457800000007,
    "velocity": 1,
    "duration": 0.23076900000000222
  },
  {
    "name": "C4",
    "midi": 60,
    "time": 37.61534700000007,
    "velocity": 1,
    "duration": 0.23076900000000222
  },
  {
    "name": "F5",
    "midi": 77,
    "time": 37.84611600000007,
    "velocity": 1,
    "duration": 0.46153799999999734
  },
  {
    "name": "A#4",
    "midi": 70,
    "time": 38.99996100000007,
    "velocity": 1,
    "duration": 0.3461534999999998
  },
  {
    "name": "A#5",
    "midi": 82,
    "time": 39.34611450000007,
    "velocity": 1,
    "duration": 0.11538449999999756
  },
  {
    "name": "G#5",
    "midi": 80,
    "time": 39.46149900000007,
    "velocity": 1,
    "duration": 0.11538449999999756
  },
  {
    "name": "F#5",
    "midi": 78,
    "time": 39.576883500000065,
    "velocity": 1,
    "duration": 0.11538449999999756
  },
  {
    "name": "F5",
    "midi": 77,
    "time": 39.69226800000006,
    "velocity": 1,
    "duration": 0.11538449999999756
  },
  {
    "name": "D#5",
    "midi": 75,
    "time": 39.80765250000006,
    "velocity": 1,
    "duration": 0.11538449999999756
  },
  {
    "name": "C#5",
    "midi": 73,
    "time": 39.92303700000006,
    "velocity": 1,
    "duration": 0.11538449999999756
  },
  {
    "name": "C5",
    "midi": 72,
    "time": 40.038421500000055,
    "velocity": 1,
    "duration": 0.11538449999999756
  },
  {
    "name": "A#4",
    "midi": 70,
    "time": 40.15380600000005,
    "velocity": 1,
    "duration": 0.11538449999999756
  },
  {
    "name": "G#4",
    "midi": 68,
    "time": 40.26919050000005,
    "velocity": 1,
    "duration": 0.11538449999999756
  },
  {
    "name": "A#4",
    "midi": 70,
    "time": 40.38457500000005,
    "velocity": 1,
    "duration": 0.11538449999999756
  },
  {
    "name": "A#5",
    "midi": 82,
    "time": 40.499959500000045,
    "velocity": 1,
    "duration": 0.11538449999999756
  },
  {
    "name": "G#5",
    "midi": 80,
    "time": 40.61534400000004,
    "velocity": 1,
    "duration": 0.11538449999999756
  },
  {
    "name": "F#5",
    "midi": 78,
    "time": 40.73072850000004,
    "velocity": 1,
    "duration": 0.11538449999999756
  },
  {
    "name": "F5",
    "midi": 77,
    "time": 40.84611300000004,
    "velocity": 1,
    "duration": 0.11538449999999756
  },
  {
    "name": "D#5",
    "midi": 75,
    "time": 40.961497500000036,
    "velocity": 1,
    "duration": 0.11538449999999756
  },
  {
    "name": "C#5",
    "midi": 73,
    "time": 41.07688200000003,
    "velocity": 1,
    "duration": 0.11538449999999756
  },
  {
    "name": "C5",
    "midi": 72,
    "time": 41.19226650000003,
    "velocity": 1,
    "duration": 0.11538449999999756
  },
  {
    "name": "A#4",
    "midi": 70,
    "time": 41.30765100000003,
    "velocity": 1,
    "duration": 0.11538449999999756
  },
  {
    "name": "G#4",
    "midi": 68,
    "time": 41.423035500000026,
    "velocity": 1,
    "duration": 0.11538449999999756
  },
  {
    "name": "A#4",
    "midi": 70,
    "time": 41.53842000000002,
    "velocity": 1,
    "duration": 0.11538449999999756
  },
  {
    "name": "A#5",
    "midi": 82,
    "time": 41.65380450000002,
    "velocity": 1,
    "duration": 0.11538449999999756
  },
  {
    "name": "G#5",
    "midi": 80,
    "time": 41.76918900000002,
    "velocity": 1,
    "duration": 0.11538449999999756
  },
  {
    "name": "F#5",
    "midi": 78,
    "time": 41.884573500000016,
    "velocity": 1,
    "duration": 0.11538449999999756
  },
  {
    "name": "F5",
    "midi": 77,
    "time": 41.999958000000014,
    "velocity": 1,
    "duration": 0.11538449999999756
  },
  {
    "name": "D#5",
    "midi": 75,
    "time": 42.11534250000001,
    "velocity": 1,
    "duration": 0.11538449999999756
  },
  {
    "name": "C#5",
    "midi": 73,
    "time": 42.23072700000001,
    "velocity": 1,
    "duration": 0.11538449999999756
  },
  {
    "name": "C5",
    "midi": 72,
    "time": 42.346111500000006,
    "velocity": 1,
    "duration": 0.11538449999999756
  },
  {
    "name": "C3",
    "midi": 48,
    "time": 42.461496000000004,
    "velocity": 1,
    "duration": 0.11538449999999756
  },
  {
    "name": "C4",
    "midi": 60,
    "time": 42.5768805,
    "velocity": 1,
    "duration": 0.11538449999999756
  },
  {
    "name": "C3",
    "midi": 48,
    "time": 42.692265,
    "velocity": 1,
    "duration": 0.11538449999999756
  },
  {
    "name": "C4",
    "midi": 60,
    "time": 42.8076495,
    "velocity": 1,
    "duration": 0.11538449999999756
  },
  {
    "name": "C3",
    "midi": 48,
    "time": 42.923033999999994,
    "velocity": 1,
    "duration": 0.11538449999999756
  },
  {
    "name": "C4",
    "midi": 60,
    "time": 43.03841849999999,
    "velocity": 1,
    "duration": 0.11538449999999756
  },
  {
    "name": "A#2",
    "midi": 46,
    "time": 43.15380299999999,
    "velocity": 1,
    "duration": 0.11538449999999756
  },
  {
    "name": "A#3",
    "midi": 58,
    "time": 43.26918749999999,
    "velocity": 1,
    "duration": 0.11538449999999756
  },
  {
    "name": "A#2",
    "midi": 46,
    "time": 43.384571999999984,
    "velocity": 1,
    "duration": 0.23076900000000222
  },
  {
    "name": "A#2",
    "midi": 46,
    "time": 43.61534099999999,
    "velocity": 1,
    "duration": 0.23076900000000222
  },
  {
    "name": "C3",
    "midi": 48,
    "time": 43.84610999999999,
    "velocity": 1,
    "duration": 0.11538449999999756
  },
  {
    "name": "C4",
    "midi": 60,
    "time": 43.961494499999986,
    "velocity": 1,
    "duration": 0.11538449999999756
  },
  {
    "name": "C3",
    "midi": 48,
    "time": 44.076878999999984,
    "velocity": 1,
    "duration": 0.11538449999999756
  },
  {
    "name": "C4",
    "midi": 60,
    "time": 44.19226349999998,
    "velocity": 1,
    "duration": 0.11538449999999756
  },
  {
    "name": "C3",
    "midi": 48,
    "time": 44.30764799999998,
    "velocity": 1,
    "duration": 0.11538449999999756
  },
  {
    "name": "C4",
    "midi": 60,
    "time": 44.42303249999998,
    "velocity": 1,
    "duration": 0.11538449999999756
  },
  {
    "name": "A2",
    "midi": 45,
    "time": 44.538416999999974,
    "velocity": 1,
    "duration": 0.11538449999999756
  },
  {
    "name": "A3",
    "midi": 57,
    "time": 44.65380149999997,
    "velocity": 1,
    "duration": 0.11538449999999756
  },
  {
    "name": "A2",
    "midi": 45,
    "time": 44.76918599999997,
    "velocity": 1,
    "duration": 0.23076900000000222
  },
  {
    "name": "A2",
    "midi": 45,
    "time": 44.99995499999997,
    "velocity": 1,
    "duration": 0.23076900000000222
  },
  {
    "name": "C3",
    "midi": 48,
    "time": 45.230723999999974,
    "velocity": 1,
    "duration": 0.11538449999999756
  },
  {
    "name": "C4",
    "midi": 60,
    "time": 45.34610849999997,
    "velocity": 1,
    "duration": 0.11538449999999756
  },
  {
    "name": "C3",
    "midi": 48,
    "time": 45.46149299999997,
    "velocity": 1,
    "duration": 0.11538449999999756
  },
  {
    "name": "C4",
    "midi": 60,
    "time": 45.576877499999966,
    "velocity": 1,
    "duration": 0.11538449999999756
  },
  {
    "name": "C3",
    "midi": 48,
    "time": 45.692261999999964,
    "velocity": 1,
    "duration": 0.11538449999999756
  },
  {
    "name": "C4",
    "midi": 60,
    "time": 45.80764649999996,
    "velocity": 1,
    "duration": 0.11538449999999756
  },
  {
    "name": "G#2",
    "midi": 44,
    "time": 45.92303099999996,
    "velocity": 1,
    "duration": 0.11538449999999756
  },
  {
    "name": "G#3",
    "midi": 56,
    "time": 46.03841549999996,
    "velocity": 1,
    "duration": 0.11538449999999756
  },
  {
    "name": "G#2",
    "midi": 44,
    "time": 46.153799999999954,
    "velocity": 1,
    "duration": 0.23076900000000222
  },
  {
    "name": "G#2",
    "midi": 44,
    "time": 46.384568999999956,
    "velocity": 1,
    "duration": 0.23076900000000222
  },
  {
    "name": "D#4",
    "midi": 63,
    "time": 46.61533799999996,
    "velocity": 1,
    "duration": 0.11538449999999756
  },
  {
    "name": "A#3",
    "midi": 58,
    "time": 46.730722499999956,
    "velocity": 1,
    "duration": 0.11538449999999756
  },
  {
    "name": "G3",
    "midi": 55,
    "time": 46.846106999999954,
    "velocity": 1,
    "duration": 0.11538449999999756
  },
  {
    "name": "D4",
    "midi": 62,
    "time": 46.96149149999995,
    "velocity": 1,
    "duration": 0.11538449999999756
  },
  {
    "name": "A3",
    "midi": 57,
    "time": 47.07687599999995,
    "velocity": 1,
    "duration": 0.11538449999999756
  },
  {
    "name": "F#3",
    "midi": 54,
    "time": 47.192260499999946,
    "velocity": 1,
    "duration": 0.11538449999999756
  },
  {
    "name": "C#4",
    "midi": 61,
    "time": 47.307644999999944,
    "velocity": 1,
    "duration": 0.11538449999999756
  },
  {
    "name": "G#3",
    "midi": 56,
    "time": 47.42302949999994,
    "velocity": 1,
    "duration": 0.11538449999999756
  },
  {
    "name": "F#3",
    "midi": 54,
    "time": 47.53841399999994,
    "velocity": 1,
    "duration": 0.11538449999999756
  },
  {
    "name": "C4",
    "midi": 60,
    "time": 47.65379849999994,
    "velocity": 1,
    "duration": 0.11538449999999756
  },
  {
    "name": "F#3",
    "midi": 54,
    "time": 47.769182999999934,
    "velocity": 1,
    "duration": 0.11538449999999756
  },
  {
    "name": "D#3",
    "midi": 51,
    "time": 47.88456749999993,
    "velocity": 1,
    "duration": 0.11538449999999756
  },
  {
    "name": "C3",
    "midi": 48,
    "time": 47.99995199999993,
    "velocity": 1,
    "duration": 0.11538449999999756
  },
  {
    "name": "C4",
    "midi": 60,
    "time": 48.11533649999993,
    "velocity": 1,
    "duration": 0.11538449999999756
  },
  {
    "name": "C3",
    "midi": 48,
    "time": 48.230720999999924,
    "velocity": 1,
    "duration": 0.11538449999999756
  },
  {
    "name": "C4",
    "midi": 60,
    "time": 48.34610549999992,
    "velocity": 1,
    "duration": 0.11538449999999756
  },
  {
    "name": "C3",
    "midi": 48,
    "time": 48.46148999999992,
    "velocity": 1,
    "duration": 0.11538449999999756
  },
  {
    "name": "C4",
    "midi": 60,
    "time": 48.57687449999992,
    "velocity": 1,
    "duration": 0.11538449999999756
  },
  {
    "name": "A#2",
    "midi": 46,
    "time": 48.692258999999915,
    "velocity": 1,
    "duration": 0.11538449999999756
  },
  {
    "name": "A#3",
    "midi": 58,
    "time": 48.80764349999991,
    "velocity": 1,
    "duration": 0.11538449999999756
  },
  {
    "name": "A#2",
    "midi": 46,
    "time": 48.92302799999991,
    "velocity": 1,
    "duration": 0.23076900000000222
  },
  {
    "name": "A#2",
    "midi": 46,
    "time": 49.15379699999991,
    "velocity": 1,
    "duration": 0.23076900000000222
  },
  {
    "name": "C3",
    "midi": 48,
    "time": 49.384565999999914,
    "velocity": 1,
    "duration": 0.11538449999999756
  },
  {
    "name": "C4",
    "midi": 60,
    "time": 49.49995049999991,
    "velocity": 1,
    "duration": 0.11538449999999756
  },
  {
    "name": "C3",
    "midi": 48,
    "time": 49.61533499999991,
    "velocity": 1,
    "duration": 0.11538449999999756
  },
  {
    "name": "C4",
    "midi": 60,
    "time": 49.73071949999991,
    "velocity": 1,
    "duration": 0.11538449999999756
  },
  {
    "name": "C3",
    "midi": 48,
    "time": 49.846103999999904,
    "velocity": 1,
    "duration": 0.11538449999999756
  },
  {
    "name": "C4",
    "midi": 60,
    "time": 49.9614884999999,
    "velocity": 1,
    "duration": 0.11538449999999756
  },
  {
    "name": "A2",
    "midi": 45,
    "time": 50.0768729999999,
    "velocity": 1,
    "duration": 0.11538449999999756
  },
  {
    "name": "A3",
    "midi": 57,
    "time": 50.1922574999999,
    "velocity": 1,
    "duration": 0.11538449999999756
  },
  {
    "name": "A2",
    "midi": 45,
    "time": 50.307641999999895,
    "velocity": 1,
    "duration": 0.23076900000000222
  },
  {
    "name": "A2",
    "midi": 45,
    "time": 50.5384109999999,
    "velocity": 1,
    "duration": 0.23076900000000222
  },
  {
    "name": "G#3",
    "midi": 56,
    "time": 50.7691799999999,
    "velocity": 1,
    "duration": 0.11538449999999756
  },
  {
    "name": "G#3",
    "midi": 56,
    "time": 50.8845644999999,
    "velocity": 1,
    "duration": 0.11538449999999756
  },
  {
    "name": "G#3",
    "midi": 56,
    "time": 50.999948999999894,
    "velocity": 1,
    "duration": 0.11538449999999756
  },
  {
    "name": "G#3",
    "midi": 56,
    "time": 51.11533349999989,
    "velocity": 1,
    "duration": 0.11538449999999756
  },
  {
    "name": "G#3",
    "midi": 56,
    "time": 51.23071799999989,
    "velocity": 1,
    "duration": 0.11538449999999756
  },
  {
    "name": "G#3",
    "midi": 56,
    "time": 51.34610249999989,
    "velocity": 1,
    "duration": 0.11538449999999756
  },
  {
    "name": "G#3",
    "midi": 56,
    "time": 51.461486999999885,
    "velocity": 1,
    "duration": 0.23076900000000222
  },
  {
    "name": "G#3",
    "midi": 56,
    "time": 51.69225599999989,
    "velocity": 1,
    "duration": 0.11538449999999756
  },
  {
    "name": "A#3",
    "midi": 58,
    "time": 51.807640499999884,
    "velocity": 1,
    "duration": 0.3461534999999998
  },
  {
    "name": "G#4",
    "midi": 68,
    "time": 52.153793999999884,
    "velocity": 1,
    "duration": 0.11538449999999756
  },
  {
    "name": "G#4",
    "midi": 68,
    "time": 52.26917849999988,
    "velocity": 1,
    "duration": 0.11538449999999756
  },
  {
    "name": "G#4",
    "midi": 68,
    "time": 52.38456299999988,
    "velocity": 1,
    "duration": 0.11538449999999756
  },
  {
    "name": "G#4",
    "midi": 68,
    "time": 52.49994749999988,
    "velocity": 1,
    "duration": 0.11538449999999756
  },
  {
    "name": "G#4",
    "midi": 68,
    "time": 52.615331999999874,
    "velocity": 1,
    "duration": 0.11538449999999756
  },
  {
    "name": "G#4",
    "midi": 68,
    "time": 52.73071649999987,
    "velocity": 1,
    "duration": 0.11538449999999756
  },
  {
    "name": "G#4",
    "midi": 68,
    "time": 52.84610099999987,
    "velocity": 1,
    "duration": 0.23076900000000222
  },
  {
    "name": "A#4",
    "midi": 70,
    "time": 53.07686999999987,
    "velocity": 1,
    "duration": 0.23076900000000222
  },
  {
    "name": "D#5",
    "midi": 75,
    "time": 53.307638999999874,
    "velocity": 1,
    "duration": 0.11538449999999756
  },
  {
    "name": "G5",
    "midi": 79,
    "time": 53.42302349999987,
    "velocity": 1,
    "duration": 0.11538449999999756
  },
  {
    "name": "F#5",
    "midi": 78,
    "time": 53.53840799999987,
    "velocity": 1,
    "duration": 0.11538449999999756
  },
  {
    "name": "F#5",
    "midi": 78,
    "time": 53.65379249999987,
    "velocity": 1,
    "duration": 0.11538449999999756
  },
  {
    "name": "F#5",
    "midi": 78,
    "time": 53.769176999999864,
    "velocity": 1,
    "duration": 0.11538449999999756
  },
  {
    "name": "D#5",
    "midi": 75,
    "time": 53.88456149999986,
    "velocity": 1,
    "duration": 0.11538449999999756
  },
  {
    "name": "D#5",
    "midi": 75,
    "time": 53.99994599999986,
    "velocity": 1,
    "duration": 0.11538449999999756
  },
  {
    "name": "D#5",
    "midi": 75,
    "time": 54.11533049999986,
    "velocity": 1,
    "duration": 0.11538449999999756
  },
  {
    "name": "F#5",
    "midi": 78,
    "time": 54.230714999999854,
    "velocity": 1,
    "duration": 0.11538449999999756
  },
  {
    "name": "F#5",
    "midi": 78,
    "time": 54.34609949999985,
    "velocity": 1,
    "duration": 0.11538449999999756
  },
  {
    "name": "D5",
    "midi": 74,
    "time": 54.46148399999985,
    "velocity": 1,
    "duration": 0.11538449999999756
  },
  {
    "name": "D5",
    "midi": 74,
    "time": 54.57686849999985,
    "velocity": 1,
    "duration": 0.11538449999999756
  },
  {
    "name": "F5",
    "midi": 77,
    "time": 54.692252999999845,
    "velocity": 1,
    "duration": 0.11538449999999756
  },
  {
    "name": "F5",
    "midi": 77,
    "time": 54.80763749999984,
    "velocity": 1,
    "duration": 0.11538449999999756
  },
  {
    "name": "C#5",
    "midi": 73,
    "time": 54.92302199999984,
    "velocity": 1,
    "duration": 0.11538449999999756
  },
  {
    "name": "C#5",
    "midi": 73,
    "time": 55.03840649999984,
    "velocity": 1,
    "duration": 0.11538449999999756
  },
  {
    "name": "F#5",
    "midi": 78,
    "time": 55.153790999999835,
    "velocity": 1,
    "duration": 0.11538449999999756
  },
  {
    "name": "F#5",
    "midi": 78,
    "time": 55.26917549999983,
    "velocity": 1,
    "duration": 0.11538449999999756
  },
  {
    "name": "F#5",
    "midi": 78,
    "time": 55.38455999999983,
    "velocity": 1,
    "duration": 0.11538449999999756
  },
  {
    "name": "D#5",
    "midi": 75,
    "time": 55.49994449999983,
    "velocity": 1,
    "duration": 0.11538449999999756
  },
  {
    "name": "D#5",
    "midi": 75,
    "time": 55.615328999999825,
    "velocity": 1,
    "duration": 0.11538449999999756
  },
  {
    "name": "D#5",
    "midi": 75,
    "time": 55.73071349999982,
    "velocity": 1,
    "duration": 0.11538449999999756
  },
  {
    "name": "G#5",
    "midi": 80,
    "time": 55.84609799999982,
    "velocity": 1,
    "duration": 0.11538449999999756
  },
  {
    "name": "G#5",
    "midi": 80,
    "time": 55.96148249999982,
    "velocity": 1,
    "duration": 0.11538449999999756
  },
  {
    "name": "F5",
    "midi": 77,
    "time": 56.076866999999815,
    "velocity": 1,
    "duration": 0.11538449999999756
  },
  {
    "name": "F5",
    "midi": 77,
    "time": 56.19225149999981,
    "velocity": 1,
    "duration": 0.11538449999999756
  },
  {
    "name": "A#5",
    "midi": 82,
    "time": 56.30763599999981,
    "velocity": 1,
    "duration": 0.11538449999999756
  },
  {
    "name": "C#6",
    "midi": 85,
    "time": 56.42302049999981,
    "velocity": 1,
    "duration": 0.46153799999999734
  }
];