export let synth1 =  [
  {
    "name": "D#4",
    "midi": 63,
    "time": 11.076911999999998,
    "velocity": 1,
    "duration": 0.3461534999999998
  },
  {
    "name": "F#4",
    "midi": 66,
    "time": 11.423065499999998,
    "velocity": 1,
    "duration": 0.3461534999999998
  },
  {
    "name": "D#5",
    "midi": 75,
    "time": 11.769218999999998,
    "velocity": 1,
    "duration": 0.23076900000000045
  },
  {
    "name": "F#5",
    "midi": 78,
    "time": 11.999987999999998,
    "velocity": 1,
    "duration": 0.23076900000000045
  },
  {
    "name": "F4",
    "midi": 65,
    "time": 12.230756999999999,
    "velocity": 1,
    "duration": 0.23076900000000045
  },
  {
    "name": "A5",
    "midi": 81,
    "time": 12.461526,
    "velocity": 1,
    "duration": 0.4615379999999991
  },
  {
    "name": "D#4",
    "midi": 63,
    "time": 13.615370999999998,
    "velocity": 1,
    "duration": 0.3461534999999998
  },
  {
    "name": "F#4",
    "midi": 66,
    "time": 13.961524499999998,
    "velocity": 1,
    "duration": 0.3461534999999998
  },
  {
    "name": "D#5",
    "midi": 75,
    "time": 14.307677999999997,
    "velocity": 1,
    "duration": 0.23076900000000045
  },
  {
    "name": "F#5",
    "midi": 78,
    "time": 14.538446999999998,
    "velocity": 1,
    "duration": 0.23076900000000045
  },
  {
    "name": "F4",
    "midi": 65,
    "time": 14.769215999999998,
    "velocity": 1,
    "duration": 0.23076900000000045
  },
  {
    "name": "A5",
    "midi": 81,
    "time": 14.999984999999999,
    "velocity": 1,
    "duration": 0.4615379999999991
  },
  {
    "name": "A#4",
    "midi": 70,
    "time": 16.15383,
    "velocity": 1,
    "duration": 0.11538450000000111
  },
  {
    "name": "A#5",
    "midi": 82,
    "time": 16.2692145,
    "velocity": 1,
    "duration": 0.11538450000000111
  },
  {
    "name": "G#5",
    "midi": 80,
    "time": 16.384599,
    "velocity": 1,
    "duration": 0.11538450000000111
  },
  {
    "name": "F#5",
    "midi": 78,
    "time": 16.499983500000003,
    "velocity": 1,
    "duration": 0.11538450000000111
  },
  {
    "name": "F5",
    "midi": 77,
    "time": 16.615368000000004,
    "velocity": 1,
    "duration": 0.11538450000000111
  },
  {
    "name": "D#5",
    "midi": 75,
    "time": 16.730752500000005,
    "velocity": 1,
    "duration": 0.11538450000000111
  },
  {
    "name": "C#5",
    "midi": 73,
    "time": 16.846137000000006,
    "velocity": 1,
    "duration": 0.11538450000000111
  },
  {
    "name": "C5",
    "midi": 72,
    "time": 16.961521500000007,
    "velocity": 1,
    "duration": 0.11538450000000111
  },
  {
    "name": "A#4",
    "midi": 70,
    "time": 17.076906000000008,
    "velocity": 1,
    "duration": 0.11538450000000111
  },
  {
    "name": "G#4",
    "midi": 68,
    "time": 17.19229050000001,
    "velocity": 1,
    "duration": 0.11538450000000111
  },
  {
    "name": "A#4",
    "midi": 70,
    "time": 17.30767500000001,
    "velocity": 1,
    "duration": 0.11538450000000111
  },
  {
    "name": "A#5",
    "midi": 82,
    "time": 17.42305950000001,
    "velocity": 1,
    "duration": 0.11538450000000111
  },
  {
    "name": "G#5",
    "midi": 80,
    "time": 17.538444000000013,
    "velocity": 1,
    "duration": 0.11538450000000111
  },
  {
    "name": "F#5",
    "midi": 78,
    "time": 17.653828500000014,
    "velocity": 1,
    "duration": 0.11538450000000111
  },
  {
    "name": "F5",
    "midi": 77,
    "time": 17.769213000000015,
    "velocity": 1,
    "duration": 0.11538450000000111
  },
  {
    "name": "D#5",
    "midi": 75,
    "time": 17.884597500000016,
    "velocity": 1,
    "duration": 0.11538450000000111
  },
  {
    "name": "C#5",
    "midi": 73,
    "time": 17.999982000000017,
    "velocity": 1,
    "duration": 0.11538450000000111
  },
  {
    "name": "C5",
    "midi": 72,
    "time": 18.115366500000018,
    "velocity": 1,
    "duration": 0.11538450000000111
  },
  {
    "name": "A#4",
    "midi": 70,
    "time": 18.23075100000002,
    "velocity": 1,
    "duration": 0.11538450000000111
  },
  {
    "name": "G#4",
    "midi": 68,
    "time": 18.34613550000002,
    "velocity": 1,
    "duration": 0.11538450000000111
  },
  {
    "name": "A#4",
    "midi": 70,
    "time": 18.46152000000002,
    "velocity": 1,
    "duration": 0.11538450000000111
  },
  {
    "name": "A#5",
    "midi": 82,
    "time": 18.576904500000023,
    "velocity": 1,
    "duration": 0.11538450000000111
  },
  {
    "name": "G#5",
    "midi": 80,
    "time": 18.692289000000024,
    "velocity": 1,
    "duration": 0.11538450000000111
  },
  {
    "name": "F#5",
    "midi": 78,
    "time": 18.807673500000025,
    "velocity": 1,
    "duration": 0.11538450000000111
  },
  {
    "name": "F5",
    "midi": 77,
    "time": 18.923058000000026,
    "velocity": 1,
    "duration": 0.11538450000000111
  },
  {
    "name": "D#5",
    "midi": 75,
    "time": 19.038442500000027,
    "velocity": 1,
    "duration": 0.11538450000000111
  },
  {
    "name": "C#5",
    "midi": 73,
    "time": 19.153827000000028,
    "velocity": 1,
    "duration": 0.11538450000000111
  },
  {
    "name": "C5",
    "midi": 72,
    "time": 19.26921150000003,
    "velocity": 1,
    "duration": 0.11538450000000111
  },
  {
    "name": "A#4",
    "midi": 70,
    "time": 19.38459600000003,
    "velocity": 1,
    "duration": 0.11538450000000111
  },
  {
    "name": "G#4",
    "midi": 68,
    "time": 19.49998050000003,
    "velocity": 1,
    "duration": 0.11538450000000111
  },
  {
    "name": "G5",
    "midi": 79,
    "time": 19.615365000000033,
    "velocity": 1,
    "duration": 0.6923069999999996
  },
  {
    "name": "A#2",
    "midi": 46,
    "time": 20.307672000000032,
    "velocity": 1,
    "duration": 0.11538450000000111
  },
  {
    "name": "A#3",
    "midi": 58,
    "time": 20.423056500000033,
    "velocity": 1,
    "duration": 0.11538450000000111
  },
  {
    "name": "A#2",
    "midi": 46,
    "time": 20.538441000000034,
    "velocity": 1,
    "duration": 0.23076899999999867
  },
  {
    "name": "A#2",
    "midi": 46,
    "time": 20.769210000000033,
    "velocity": 1,
    "duration": 0.23076899999999867
  },
  {
    "name": "F#5",
    "midi": 78,
    "time": 20.99997900000003,
    "velocity": 1,
    "duration": 0.6923069999999996
  },
  {
    "name": "A2",
    "midi": 45,
    "time": 21.69228600000003,
    "velocity": 1,
    "duration": 0.11538450000000111
  },
  {
    "name": "A3",
    "midi": 57,
    "time": 21.807670500000032,
    "velocity": 1,
    "duration": 0.11538450000000111
  },
  {
    "name": "A2",
    "midi": 45,
    "time": 21.923055000000033,
    "velocity": 1,
    "duration": 0.23076899999999867
  },
  {
    "name": "A2",
    "midi": 45,
    "time": 22.153824000000032,
    "velocity": 1,
    "duration": 0.23076899999999867
  },
  {
    "name": "F5",
    "midi": 77,
    "time": 22.38459300000003,
    "velocity": 1,
    "duration": 0.6923069999999996
  },
  {
    "name": "G#2",
    "midi": 44,
    "time": 23.07690000000003,
    "velocity": 1,
    "duration": 0.11538450000000111
  },
  {
    "name": "G#3",
    "midi": 56,
    "time": 23.19228450000003,
    "velocity": 1,
    "duration": 0.11538450000000111
  },
  {
    "name": "G#2",
    "midi": 44,
    "time": 23.307669000000033,
    "velocity": 1,
    "duration": 0.23076899999999867
  },
  {
    "name": "G#2",
    "midi": 44,
    "time": 23.53843800000003,
    "velocity": 1,
    "duration": 0.23076899999999867
  },
  {
    "name": "D#5",
    "midi": 75,
    "time": 23.76920700000003,
    "velocity": 1,
    "duration": 0.11538450000000111
  },
  {
    "name": "A#3",
    "midi": 58,
    "time": 23.88459150000003,
    "velocity": 1,
    "duration": 0.11538450000000111
  },
  {
    "name": "G3",
    "midi": 55,
    "time": 23.999976000000032,
    "velocity": 1,
    "duration": 0.11538450000000111
  },
  {
    "name": "D4",
    "midi": 62,
    "time": 24.115360500000033,
    "velocity": 1,
    "duration": 0.11538450000000111
  },
  {
    "name": "A3",
    "midi": 57,
    "time": 24.230745000000034,
    "velocity": 1,
    "duration": 0.11538450000000111
  },
  {
    "name": "F#3",
    "midi": 54,
    "time": 24.346129500000036,
    "velocity": 1,
    "duration": 0.11538450000000111
  },
  {
    "name": "C#4",
    "midi": 61,
    "time": 24.461514000000037,
    "velocity": 1,
    "duration": 0.11538450000000111
  },
  {
    "name": "G#3",
    "midi": 56,
    "time": 24.576898500000038,
    "velocity": 1,
    "duration": 0.11538450000000111
  },
  {
    "name": "F#3",
    "midi": 54,
    "time": 24.69228300000004,
    "velocity": 1,
    "duration": 0.11538450000000111
  },
  {
    "name": "C4",
    "midi": 60,
    "time": 24.80766750000004,
    "velocity": 1,
    "duration": 0.11538450000000111
  },
  {
    "name": "F#3",
    "midi": 54,
    "time": 24.92305200000004,
    "velocity": 1,
    "duration": 0.11538450000000111
  },
  {
    "name": "D#3",
    "midi": 51,
    "time": 25.038436500000042,
    "velocity": 1,
    "duration": 0.11538450000000111
  },
  {
    "name": "G5",
    "midi": 79,
    "time": 25.153821000000043,
    "velocity": 1,
    "duration": 0.6923069999999996
  },
  {
    "name": "A#2",
    "midi": 46,
    "time": 25.846128000000043,
    "velocity": 1,
    "duration": 0.11538450000000111
  },
  {
    "name": "A#3",
    "midi": 58,
    "time": 25.961512500000044,
    "velocity": 1,
    "duration": 0.11538450000000111
  },
  {
    "name": "A#2",
    "midi": 46,
    "time": 26.076897000000045,
    "velocity": 1,
    "duration": 0.23076899999999867
  },
  {
    "name": "A#2",
    "midi": 46,
    "time": 26.307666000000044,
    "velocity": 1,
    "duration": 0.23076899999999867
  },
  {
    "name": "F#5",
    "midi": 78,
    "time": 26.538435000000042,
    "velocity": 1,
    "duration": 0.6923069999999996
  },
  {
    "name": "A2",
    "midi": 45,
    "time": 27.230742000000042,
    "velocity": 1,
    "duration": 0.11538450000000111
  },
  {
    "name": "A3",
    "midi": 57,
    "time": 27.346126500000043,
    "velocity": 1,
    "duration": 0.11538450000000111
  },
  {
    "name": "A2",
    "midi": 45,
    "time": 27.461511000000044,
    "velocity": 1,
    "duration": 0.23076899999999867
  },
  {
    "name": "A2",
    "midi": 45,
    "time": 27.692280000000043,
    "velocity": 1,
    "duration": 0.23076899999999867
  },
  {
    "name": "C#4",
    "midi": 61,
    "time": 27.92304900000004,
    "velocity": 1,
    "duration": 0.11538450000000111
  },
  {
    "name": "C#4",
    "midi": 61,
    "time": 28.038433500000043,
    "velocity": 1,
    "duration": 0.11538450000000111
  },
  {
    "name": "C#4",
    "midi": 61,
    "time": 28.153818000000044,
    "velocity": 1,
    "duration": 0.11538450000000111
  },
  {
    "name": "C#4",
    "midi": 61,
    "time": 28.269202500000045,
    "velocity": 1,
    "duration": 0.11538450000000111
  },
  {
    "name": "C#4",
    "midi": 61,
    "time": 28.384587000000046,
    "velocity": 1,
    "duration": 0.11538450000000111
  },
  {
    "name": "C#4",
    "midi": 61,
    "time": 28.499971500000047,
    "velocity": 1,
    "duration": 0.11538450000000111
  },
  {
    "name": "C#4",
    "midi": 61,
    "time": 28.615356000000048,
    "velocity": 1,
    "duration": 0.23076899999999867
  },
  {
    "name": "C#4",
    "midi": 61,
    "time": 28.846125000000047,
    "velocity": 1,
    "duration": 0.11538450000000111
  },
  {
    "name": "D#4",
    "midi": 63,
    "time": 28.961509500000048,
    "velocity": 1,
    "duration": 0.3461534999999998
  },
  {
    "name": "C#5",
    "midi": 73,
    "time": 29.307663000000048,
    "velocity": 1,
    "duration": 0.11538450000000111
  },
  {
    "name": "C#5",
    "midi": 73,
    "time": 29.42304750000005,
    "velocity": 1,
    "duration": 0.11538450000000111
  },
  {
    "name": "C#5",
    "midi": 73,
    "time": 29.53843200000005,
    "velocity": 1,
    "duration": 0.11538450000000111
  },
  {
    "name": "C#5",
    "midi": 73,
    "time": 29.65381650000005,
    "velocity": 1,
    "duration": 0.11538450000000111
  },
  {
    "name": "C#5",
    "midi": 73,
    "time": 29.769201000000052,
    "velocity": 1,
    "duration": 0.11538450000000111
  },
  {
    "name": "C#5",
    "midi": 73,
    "time": 29.884585500000053,
    "velocity": 1,
    "duration": 0.11538450000000111
  },
  {
    "name": "C#5",
    "midi": 73,
    "time": 29.999970000000054,
    "velocity": 1,
    "duration": 0.23076899999999867
  },
  {
    "name": "D#5",
    "midi": 75,
    "time": 30.230739000000053,
    "velocity": 1,
    "duration": 0.23076899999999867
  },
  {
    "name": "G5",
    "midi": 79,
    "time": 30.46150800000005,
    "velocity": 1,
    "duration": 0.11538450000000111
  },
  {
    "name": "A#5",
    "midi": 82,
    "time": 30.576892500000053,
    "velocity": 1,
    "duration": 0.11538450000000111
  },
  {
    "name": "D#6",
    "midi": 87,
    "time": 30.692277000000054,
    "velocity": 1,
    "duration": 0.11538450000000111
  },
  {
    "name": "D#6",
    "midi": 87,
    "time": 30.807661500000055,
    "velocity": 1,
    "duration": 0.11538450000000111
  },
  {
    "name": "D#6",
    "midi": 87,
    "time": 30.923046000000056,
    "velocity": 1,
    "duration": 0.11538450000000111
  },
  {
    "name": "A#5",
    "midi": 82,
    "time": 31.038430500000057,
    "velocity": 1,
    "duration": 0.11538450000000111
  },
  {
    "name": "A#5",
    "midi": 82,
    "time": 31.15381500000006,
    "velocity": 1,
    "duration": 0.11538450000000111
  },
  {
    "name": "A#5",
    "midi": 82,
    "time": 31.26919950000006,
    "velocity": 1,
    "duration": 0.11538450000000111
  },
  {
    "name": "D6",
    "midi": 86,
    "time": 31.38458400000006,
    "velocity": 1,
    "duration": 0.11538450000000111
  },
  {
    "name": "D6",
    "midi": 86,
    "time": 31.49996850000006,
    "velocity": 1,
    "duration": 0.11538450000000111
  },
  {
    "name": "A#5",
    "midi": 82,
    "time": 31.615353000000063,
    "velocity": 1,
    "duration": 0.11538450000000111
  },
  {
    "name": "A#5",
    "midi": 82,
    "time": 31.730737500000064,
    "velocity": 1,
    "duration": 0.11538450000000111
  },
  {
    "name": "C#6",
    "midi": 85,
    "time": 31.846122000000065,
    "velocity": 1,
    "duration": 0.11538450000000111
  },
  {
    "name": "C#6",
    "midi": 85,
    "time": 31.961506500000066,
    "velocity": 1,
    "duration": 0.11538450000000111
  },
  {
    "name": "G#5",
    "midi": 80,
    "time": 32.07689100000007,
    "velocity": 1,
    "duration": 0.11538449999999756
  },
  {
    "name": "G#5",
    "midi": 80,
    "time": 32.192275500000065,
    "velocity": 1,
    "duration": 0.11538449999999756
  },
  {
    "name": "D#6",
    "midi": 87,
    "time": 32.30766000000006,
    "velocity": 1,
    "duration": 0.11538449999999756
  },
  {
    "name": "D#6",
    "midi": 87,
    "time": 32.42304450000006,
    "velocity": 1,
    "duration": 0.11538449999999756
  },
  {
    "name": "D#6",
    "midi": 87,
    "time": 32.53842900000006,
    "velocity": 1,
    "duration": 0.11538449999999756
  },
  {
    "name": "A#5",
    "midi": 82,
    "time": 32.653813500000055,
    "velocity": 1,
    "duration": 0.11538449999999756
  },
  {
    "name": "A#5",
    "midi": 82,
    "time": 32.76919800000005,
    "velocity": 1,
    "duration": 0.11538449999999756
  },
  {
    "name": "A#5",
    "midi": 82,
    "time": 32.88458250000005,
    "velocity": 1,
    "duration": 0.11538449999999756
  },
  {
    "name": "F6",
    "midi": 89,
    "time": 32.99996700000005,
    "velocity": 1,
    "duration": 0.11538449999999756
  },
  {
    "name": "F6",
    "midi": 89,
    "time": 33.115351500000045,
    "velocity": 1,
    "duration": 0.11538449999999756
  },
  {
    "name": "C6",
    "midi": 84,
    "time": 33.23073600000004,
    "velocity": 1,
    "duration": 0.11538449999999756
  },
  {
    "name": "C6",
    "midi": 84,
    "time": 33.34612050000004,
    "velocity": 1,
    "duration": 0.11538449999999756
  },
  {
    "name": "F#6",
    "midi": 90,
    "time": 33.46150500000004,
    "velocity": 1,
    "duration": 0.11538449999999756
  },
  {
    "name": "G#6",
    "midi": 92,
    "time": 33.576889500000036,
    "velocity": 1,
    "duration": 0.3461534999999998
  },
  {
    "name": "D#4",
    "midi": 63,
    "time": 33.923043000000035,
    "velocity": 1,
    "duration": 0.3461534999999998
  },
  {
    "name": "F#4",
    "midi": 66,
    "time": 34.269196500000035,
    "velocity": 1,
    "duration": 0.3461534999999998
  },
  {
    "name": "D#5",
    "midi": 75,
    "time": 34.615350000000035,
    "velocity": 1,
    "duration": 0.23076900000000222
  },
  {
    "name": "F#5",
    "midi": 78,
    "time": 34.84611900000004,
    "velocity": 1,
    "duration": 0.23076900000000222
  },
  {
    "name": "F4",
    "midi": 65,
    "time": 35.07688800000004,
    "velocity": 1,
    "duration": 0.23076900000000222
  },
  {
    "name": "A5",
    "midi": 81,
    "time": 35.30765700000004,
    "velocity": 1,
    "duration": 0.46153799999999734
  },
  {
    "name": "D#4",
    "midi": 63,
    "time": 36.46150200000004,
    "velocity": 1,
    "duration": 0.3461534999999998
  },
  {
    "name": "F#4",
    "midi": 66,
    "time": 36.80765550000004,
    "velocity": 1,
    "duration": 0.3461534999999998
  },
  {
    "name": "D#5",
    "midi": 75,
    "time": 37.15380900000004,
    "velocity": 1,
    "duration": 0.23076900000000222
  },
  {
    "name": "F#5",
    "midi": 78,
    "time": 37.38457800000004,
    "velocity": 1,
    "duration": 0.23076900000000222
  },
  {
    "name": "F4",
    "midi": 65,
    "time": 37.61534700000004,
    "velocity": 1,
    "duration": 0.23076900000000222
  },
  {
    "name": "A5",
    "midi": 81,
    "time": 37.846116000000045,
    "velocity": 1,
    "duration": 0.46153799999999734
  },
  {
    "name": "A#4",
    "midi": 70,
    "time": 38.99996100000004,
    "velocity": 1,
    "duration": 0.11538449999999756
  },
  {
    "name": "A#5",
    "midi": 82,
    "time": 39.11534550000004,
    "velocity": 1,
    "duration": 0.11538449999999756
  },
  {
    "name": "G#5",
    "midi": 80,
    "time": 39.23073000000004,
    "velocity": 1,
    "duration": 0.11538449999999756
  },
  {
    "name": "F#5",
    "midi": 78,
    "time": 39.346114500000034,
    "velocity": 1,
    "duration": 0.11538449999999756
  },
  {
    "name": "F5",
    "midi": 77,
    "time": 39.46149900000003,
    "velocity": 1,
    "duration": 0.11538449999999756
  },
  {
    "name": "D#5",
    "midi": 75,
    "time": 39.57688350000003,
    "velocity": 1,
    "duration": 0.11538449999999756
  },
  {
    "name": "C#5",
    "midi": 73,
    "time": 39.69226800000003,
    "velocity": 1,
    "duration": 0.11538449999999756
  },
  {
    "name": "C5",
    "midi": 72,
    "time": 39.807652500000025,
    "velocity": 1,
    "duration": 0.11538449999999756
  },
  {
    "name": "A#4",
    "midi": 70,
    "time": 39.92303700000002,
    "velocity": 1,
    "duration": 0.11538449999999756
  },
  {
    "name": "G#4",
    "midi": 68,
    "time": 40.03842150000002,
    "velocity": 1,
    "duration": 0.11538449999999756
  },
  {
    "name": "A#4",
    "midi": 70,
    "time": 40.15380600000002,
    "velocity": 1,
    "duration": 0.11538449999999756
  },
  {
    "name": "A#5",
    "midi": 82,
    "time": 40.269190500000015,
    "velocity": 1,
    "duration": 0.11538449999999756
  },
  {
    "name": "G#5",
    "midi": 80,
    "time": 40.38457500000001,
    "velocity": 1,
    "duration": 0.11538449999999756
  },
  {
    "name": "F#5",
    "midi": 78,
    "time": 40.49995950000001,
    "velocity": 1,
    "duration": 0.11538449999999756
  },
  {
    "name": "F5",
    "midi": 77,
    "time": 40.61534400000001,
    "velocity": 1,
    "duration": 0.11538449999999756
  },
  {
    "name": "D#5",
    "midi": 75,
    "time": 40.730728500000005,
    "velocity": 1,
    "duration": 0.11538449999999756
  },
  {
    "name": "C#5",
    "midi": 73,
    "time": 40.846113,
    "velocity": 1,
    "duration": 0.11538449999999756
  },
  {
    "name": "C5",
    "midi": 72,
    "time": 40.9614975,
    "velocity": 1,
    "duration": 0.11538449999999756
  },
  {
    "name": "A#4",
    "midi": 70,
    "time": 41.076882,
    "velocity": 1,
    "duration": 0.11538449999999756
  },
  {
    "name": "G#4",
    "midi": 68,
    "time": 41.192266499999995,
    "velocity": 1,
    "duration": 0.11538449999999756
  },
  {
    "name": "A#4",
    "midi": 70,
    "time": 41.30765099999999,
    "velocity": 1,
    "duration": 0.11538449999999756
  },
  {
    "name": "A#5",
    "midi": 82,
    "time": 41.42303549999999,
    "velocity": 1,
    "duration": 0.11538449999999756
  },
  {
    "name": "G#5",
    "midi": 80,
    "time": 41.53841999999999,
    "velocity": 1,
    "duration": 0.11538449999999756
  },
  {
    "name": "F#5",
    "midi": 78,
    "time": 41.653804499999985,
    "velocity": 1,
    "duration": 0.11538449999999756
  },
  {
    "name": "F5",
    "midi": 77,
    "time": 41.76918899999998,
    "velocity": 1,
    "duration": 0.11538449999999756
  },
  {
    "name": "D#5",
    "midi": 75,
    "time": 41.88457349999998,
    "velocity": 1,
    "duration": 0.11538449999999756
  },
  {
    "name": "C#5",
    "midi": 73,
    "time": 41.99995799999998,
    "velocity": 1,
    "duration": 0.11538449999999756
  },
  {
    "name": "C5",
    "midi": 72,
    "time": 42.115342499999976,
    "velocity": 1,
    "duration": 0.11538449999999756
  },
  {
    "name": "A#4",
    "midi": 70,
    "time": 42.23072699999997,
    "velocity": 1,
    "duration": 0.11538449999999756
  },
  {
    "name": "G#4",
    "midi": 68,
    "time": 42.34611149999997,
    "velocity": 1,
    "duration": 0.11538449999999756
  },
  {
    "name": "G5",
    "midi": 79,
    "time": 42.46149599999997,
    "velocity": 1,
    "duration": 0.6923069999999996
  },
  {
    "name": "A#2",
    "midi": 46,
    "time": 43.15380299999997,
    "velocity": 1,
    "duration": 0.11538449999999756
  },
  {
    "name": "A#3",
    "midi": 58,
    "time": 43.269187499999965,
    "velocity": 1,
    "duration": 0.11538449999999756
  },
  {
    "name": "A#2",
    "midi": 46,
    "time": 43.38457199999996,
    "velocity": 1,
    "duration": 0.23076900000000222
  },
  {
    "name": "A#2",
    "midi": 46,
    "time": 43.615340999999965,
    "velocity": 1,
    "duration": 0.23076900000000222
  },
  {
    "name": "F#5",
    "midi": 78,
    "time": 43.84610999999997,
    "velocity": 1,
    "duration": 0.6923069999999996
  },
  {
    "name": "A2",
    "midi": 45,
    "time": 44.53841699999997,
    "velocity": 1,
    "duration": 0.11538449999999756
  },
  {
    "name": "A3",
    "midi": 57,
    "time": 44.653801499999965,
    "velocity": 1,
    "duration": 0.11538449999999756
  },
  {
    "name": "A2",
    "midi": 45,
    "time": 44.76918599999996,
    "velocity": 1,
    "duration": 0.23076900000000222
  },
  {
    "name": "A2",
    "midi": 45,
    "time": 44.999954999999964,
    "velocity": 1,
    "duration": 0.23076900000000222
  },
  {
    "name": "F5",
    "midi": 77,
    "time": 45.23072399999997,
    "velocity": 1,
    "duration": 0.6923069999999996
  },
  {
    "name": "G#2",
    "midi": 44,
    "time": 45.923030999999966,
    "velocity": 1,
    "duration": 0.11538449999999756
  },
  {
    "name": "G#3",
    "midi": 56,
    "time": 46.038415499999964,
    "velocity": 1,
    "duration": 0.11538449999999756
  },
  {
    "name": "G#2",
    "midi": 44,
    "time": 46.15379999999996,
    "velocity": 1,
    "duration": 0.23076900000000222
  },
  {
    "name": "G#2",
    "midi": 44,
    "time": 46.38456899999996,
    "velocity": 1,
    "duration": 0.23076900000000222
  },
  {
    "name": "D#5",
    "midi": 75,
    "time": 46.615337999999966,
    "velocity": 1,
    "duration": 0.11538449999999756
  },
  {
    "name": "A#3",
    "midi": 58,
    "time": 46.73072249999996,
    "velocity": 1,
    "duration": 0.11538449999999756
  },
  {
    "name": "G3",
    "midi": 55,
    "time": 46.84610699999996,
    "velocity": 1,
    "duration": 0.11538449999999756
  },
  {
    "name": "D4",
    "midi": 62,
    "time": 46.96149149999996,
    "velocity": 1,
    "duration": 0.11538449999999756
  },
  {
    "name": "A3",
    "midi": 57,
    "time": 47.076875999999956,
    "velocity": 1,
    "duration": 0.11538449999999756
  },
  {
    "name": "F#3",
    "midi": 54,
    "time": 47.19226049999995,
    "velocity": 1,
    "duration": 0.11538449999999756
  },
  {
    "name": "C#4",
    "midi": 61,
    "time": 47.30764499999995,
    "velocity": 1,
    "duration": 0.11538449999999756
  },
  {
    "name": "G#3",
    "midi": 56,
    "time": 47.42302949999995,
    "velocity": 1,
    "duration": 0.11538449999999756
  },
  {
    "name": "F#3",
    "midi": 54,
    "time": 47.538413999999946,
    "velocity": 1,
    "duration": 0.11538449999999756
  },
  {
    "name": "C4",
    "midi": 60,
    "time": 47.653798499999944,
    "velocity": 1,
    "duration": 0.11538449999999756
  },
  {
    "name": "F#3",
    "midi": 54,
    "time": 47.76918299999994,
    "velocity": 1,
    "duration": 0.11538449999999756
  },
  {
    "name": "D#3",
    "midi": 51,
    "time": 47.88456749999994,
    "velocity": 1,
    "duration": 0.11538449999999756
  },
  {
    "name": "G5",
    "midi": 79,
    "time": 47.999951999999936,
    "velocity": 1,
    "duration": 0.6923069999999996
  },
  {
    "name": "A#2",
    "midi": 46,
    "time": 48.692258999999936,
    "velocity": 1,
    "duration": 0.11538449999999756
  },
  {
    "name": "A#3",
    "midi": 58,
    "time": 48.807643499999934,
    "velocity": 1,
    "duration": 0.11538449999999756
  },
  {
    "name": "A#2",
    "midi": 46,
    "time": 48.92302799999993,
    "velocity": 1,
    "duration": 0.23076900000000222
  },
  {
    "name": "A#2",
    "midi": 46,
    "time": 49.15379699999993,
    "velocity": 1,
    "duration": 0.23076900000000222
  },
  {
    "name": "F#5",
    "midi": 78,
    "time": 49.384565999999936,
    "velocity": 1,
    "duration": 0.6923069999999996
  },
  {
    "name": "A2",
    "midi": 45,
    "time": 50.076872999999935,
    "velocity": 1,
    "duration": 0.11538449999999756
  },
  {
    "name": "A3",
    "midi": 57,
    "time": 50.19225749999993,
    "velocity": 1,
    "duration": 0.11538449999999756
  },
  {
    "name": "A2",
    "midi": 45,
    "time": 50.30764199999993,
    "velocity": 1,
    "duration": 0.23076900000000222
  },
  {
    "name": "A2",
    "midi": 45,
    "time": 50.53841099999993,
    "velocity": 1,
    "duration": 0.23076900000000222
  },
  {
    "name": "C#4",
    "midi": 61,
    "time": 50.769179999999935,
    "velocity": 1,
    "duration": 0.11538449999999756
  },
  {
    "name": "C#4",
    "midi": 61,
    "time": 50.88456449999993,
    "velocity": 1,
    "duration": 0.11538449999999756
  },
  {
    "name": "C#4",
    "midi": 61,
    "time": 50.99994899999993,
    "velocity": 1,
    "duration": 0.11538449999999756
  },
  {
    "name": "C#4",
    "midi": 61,
    "time": 51.11533349999993,
    "velocity": 1,
    "duration": 0.11538449999999756
  },
  {
    "name": "C#4",
    "midi": 61,
    "time": 51.230717999999925,
    "velocity": 1,
    "duration": 0.11538449999999756
  },
  {
    "name": "C#4",
    "midi": 61,
    "time": 51.34610249999992,
    "velocity": 1,
    "duration": 0.11538449999999756
  },
  {
    "name": "C#4",
    "midi": 61,
    "time": 51.46148699999992,
    "velocity": 1,
    "duration": 0.23076900000000222
  },
  {
    "name": "C#4",
    "midi": 61,
    "time": 51.69225599999992,
    "velocity": 1,
    "duration": 0.11538449999999756
  },
  {
    "name": "D#4",
    "midi": 63,
    "time": 51.80764049999992,
    "velocity": 1,
    "duration": 0.3461534999999998
  },
  {
    "name": "C#5",
    "midi": 73,
    "time": 52.15379399999992,
    "velocity": 1,
    "duration": 0.11538449999999756
  },
  {
    "name": "C#5",
    "midi": 73,
    "time": 52.26917849999992,
    "velocity": 1,
    "duration": 0.11538449999999756
  },
  {
    "name": "C#5",
    "midi": 73,
    "time": 52.384562999999915,
    "velocity": 1,
    "duration": 0.11538449999999756
  },
  {
    "name": "C#5",
    "midi": 73,
    "time": 52.49994749999991,
    "velocity": 1,
    "duration": 0.11538449999999756
  },
  {
    "name": "C#5",
    "midi": 73,
    "time": 52.61533199999991,
    "velocity": 1,
    "duration": 0.11538449999999756
  },
  {
    "name": "C#5",
    "midi": 73,
    "time": 52.73071649999991,
    "velocity": 1,
    "duration": 0.11538449999999756
  },
  {
    "name": "C#5",
    "midi": 73,
    "time": 52.846100999999905,
    "velocity": 1,
    "duration": 0.23076900000000222
  },
  {
    "name": "D#5",
    "midi": 75,
    "time": 53.07686999999991,
    "velocity": 1,
    "duration": 0.23076900000000222
  },
  {
    "name": "G5",
    "midi": 79,
    "time": 53.30763899999991,
    "velocity": 1,
    "duration": 0.11538449999999756
  },
  {
    "name": "A#5",
    "midi": 82,
    "time": 53.42302349999991,
    "velocity": 1,
    "duration": 0.11538449999999756
  },
  {
    "name": "D#6",
    "midi": 87,
    "time": 53.538407999999905,
    "velocity": 1,
    "duration": 0.11538449999999756
  },
  {
    "name": "D#6",
    "midi": 87,
    "time": 53.6537924999999,
    "velocity": 1,
    "duration": 0.11538449999999756
  },
  {
    "name": "D#6",
    "midi": 87,
    "time": 53.7691769999999,
    "velocity": 1,
    "duration": 0.11538449999999756
  },
  {
    "name": "A#5",
    "midi": 82,
    "time": 53.8845614999999,
    "velocity": 1,
    "duration": 0.11538449999999756
  },
  {
    "name": "A#5",
    "midi": 82,
    "time": 53.999945999999895,
    "velocity": 1,
    "duration": 0.11538449999999756
  },
  {
    "name": "A#5",
    "midi": 82,
    "time": 54.11533049999989,
    "velocity": 1,
    "duration": 0.11538449999999756
  },
  {
    "name": "D6",
    "midi": 86,
    "time": 54.23071499999989,
    "velocity": 1,
    "duration": 0.11538449999999756
  },
  {
    "name": "D6",
    "midi": 86,
    "time": 54.34609949999989,
    "velocity": 1,
    "duration": 0.11538449999999756
  },
  {
    "name": "A#5",
    "midi": 82,
    "time": 54.461483999999885,
    "velocity": 1,
    "duration": 0.11538449999999756
  },
  {
    "name": "A#5",
    "midi": 82,
    "time": 54.57686849999988,
    "velocity": 1,
    "duration": 0.11538449999999756
  },
  {
    "name": "C#6",
    "midi": 85,
    "time": 54.69225299999988,
    "velocity": 1,
    "duration": 0.11538449999999756
  },
  {
    "name": "C#6",
    "midi": 85,
    "time": 54.80763749999988,
    "velocity": 1,
    "duration": 0.11538449999999756
  },
  {
    "name": "G#5",
    "midi": 80,
    "time": 54.923021999999875,
    "velocity": 1,
    "duration": 0.11538449999999756
  },
  {
    "name": "G#5",
    "midi": 80,
    "time": 55.03840649999987,
    "velocity": 1,
    "duration": 0.11538449999999756
  },
  {
    "name": "D#6",
    "midi": 87,
    "time": 55.15379099999987,
    "velocity": 1,
    "duration": 0.11538449999999756
  },
  {
    "name": "D#6",
    "midi": 87,
    "time": 55.26917549999987,
    "velocity": 1,
    "duration": 0.11538449999999756
  },
  {
    "name": "D#6",
    "midi": 87,
    "time": 55.384559999999865,
    "velocity": 1,
    "duration": 0.11538449999999756
  },
  {
    "name": "A#5",
    "midi": 82,
    "time": 55.49994449999986,
    "velocity": 1,
    "duration": 0.11538449999999756
  },
  {
    "name": "A#5",
    "midi": 82,
    "time": 55.61532899999986,
    "velocity": 1,
    "duration": 0.11538449999999756
  },
  {
    "name": "A#5",
    "midi": 82,
    "time": 55.73071349999986,
    "velocity": 1,
    "duration": 0.11538449999999756
  },
  {
    "name": "F6",
    "midi": 89,
    "time": 55.846097999999856,
    "velocity": 1,
    "duration": 0.11538449999999756
  },
  {
    "name": "F6",
    "midi": 89,
    "time": 55.96148249999985,
    "velocity": 1,
    "duration": 0.11538449999999756
  },
  {
    "name": "C6",
    "midi": 84,
    "time": 56.07686699999985,
    "velocity": 1,
    "duration": 0.11538449999999756
  },
  {
    "name": "C6",
    "midi": 84,
    "time": 56.19225149999985,
    "velocity": 1,
    "duration": 0.11538449999999756
  },
  {
    "name": "F#6",
    "midi": 90,
    "time": 56.307635999999846,
    "velocity": 1,
    "duration": 0.11538449999999756
  },
  {
    "name": "G#6",
    "midi": 92,
    "time": 56.42302049999984,
    "velocity": 1,
    "duration": 0.3461534999999998
  }
];