export let synth2 = [
        {
          "name": "A#3",
          "midi": 58,
          "time": 0.75,
          "velocity": 0.4330708661417323,
          "duration": 0.15000000000000002
        },
        {
          "name": "C3",
          "midi": 48,
          "time": 0.9,
          "velocity": 0.4330708661417323,
          "duration": 0.15000000000000002
        },
        {
          "name": "D3",
          "midi": 50,
          "time": 1.05,
          "velocity": 0.4330708661417323,
          "duration": 0.1499999999999999
        },
        {
          "name": "F3",
          "midi": 53,
          "time": 1.2,
          "velocity": 0.4330708661417323,
          "duration": 0.1499999999999999
        },
        {
          "name": "A#3",
          "midi": 58,
          "time": 1.3499999999999999,
          "velocity": 0.4330708661417323,
          "duration": 0.1499999999999999
        },
        {
          "name": "C4",
          "midi": 60,
          "time": 1.4999999999999998,
          "velocity": 0.4330708661417323,
          "duration": 0.1499999999999999
        },
        {
          "name": "D4",
          "midi": 62,
          "time": 1.6499999999999997,
          "velocity": 0.4330708661417323,
          "duration": 0.1499999999999999
        },
        {
          "name": "F4",
          "midi": 65,
          "time": 1.7999999999999996,
          "velocity": 0.4330708661417323,
          "duration": 0.1499999999999999
        },
        {
          "name": "A#4",
          "midi": 70,
          "time": 1.9499999999999995,
          "velocity": 0.4330708661417323,
          "duration": 0.15000000000000013
        },
        {
          "name": "C5",
          "midi": 72,
          "time": 2.0999999999999996,
          "velocity": 0.4330708661417323,
          "duration": 0.1499999999999999
        },
        {
          "name": "D5",
          "midi": 74,
          "time": 2.2499999999999996,
          "velocity": 0.4330708661417323,
          "duration": 0.1499999999999999
        },
        {
          "name": "F5",
          "midi": 77,
          "time": 2.3999999999999995,
          "velocity": 0.4330708661417323,
          "duration": 0.1499999999999999
        },
        {
          "name": "A#5",
          "midi": 82,
          "time": 2.5499999999999994,
          "velocity": 0.4330708661417323,
          "duration": 0.1499999999999999
        },
        {
          "name": "C6",
          "midi": 84,
          "time": 2.6999999999999993,
          "velocity": 0.4330708661417323,
          "duration": 0.1499999999999999
        },
        {
          "name": "D6",
          "midi": 86,
          "time": 2.849999999999999,
          "velocity": 0.4330708661417323,
          "duration": 0.1499999999999999
        },
        {
          "name": "F6",
          "midi": 89,
          "time": 2.999999999999999,
          "velocity": 0.4330708661417323,
          "duration": 0.1499999999999999
        },
        {
          "name": "A#6",
          "midi": 94,
          "time": 3.149999999999999,
          "velocity": 0.4330708661417323,
          "duration": 0.1499999999999999
        },
        {
          "name": "F6",
          "midi": 89,
          "time": 3.299999999999999,
          "velocity": 0.4330708661417323,
          "duration": 0.1499999999999999
        },
        {
          "name": "D6",
          "midi": 86,
          "time": 3.449999999999999,
          "velocity": 0.4330708661417323,
          "duration": 0.1499999999999999
        },
        {
          "name": "C6",
          "midi": 84,
          "time": 3.5999999999999988,
          "velocity": 0.4330708661417323,
          "duration": 0.1499999999999999
        },
        {
          "name": "A#5",
          "midi": 82,
          "time": 3.7499999999999987,
          "velocity": 0.4330708661417323,
          "duration": 0.1499999999999999
        },
        {
          "name": "F5",
          "midi": 77,
          "time": 3.8999999999999986,
          "velocity": 0.4330708661417323,
          "duration": 0.15000000000000036
        },
        {
          "name": "D5",
          "midi": 74,
          "time": 4.049999999999999,
          "velocity": 0.4330708661417323,
          "duration": 0.15000000000000036
        },
        {
          "name": "C5",
          "midi": 72,
          "time": 4.199999999999999,
          "velocity": 0.4330708661417323,
          "duration": 0.15000000000000036
        },
        {
          "name": "A#4",
          "midi": 70,
          "time": 4.35,
          "velocity": 0.4330708661417323,
          "duration": 0.15000000000000036
        },
        {
          "name": "F4",
          "midi": 65,
          "time": 4.5,
          "velocity": 0.4330708661417323,
          "duration": 0.15000000000000036
        },
        {
          "name": "D4",
          "midi": 62,
          "time": 4.65,
          "velocity": 0.4330708661417323,
          "duration": 0.15000000000000036
        },
        {
          "name": "C4",
          "midi": 60,
          "time": 4.800000000000001,
          "velocity": 0.4330708661417323,
          "duration": 0.15000000000000036
        },
        {
          "name": "A#3",
          "midi": 58,
          "time": 4.950000000000001,
          "velocity": 0.4330708661417323,
          "duration": 0.15000000000000036
        },
        {
          "name": "F3",
          "midi": 53,
          "time": 5.100000000000001,
          "velocity": 0.4330708661417323,
          "duration": 0.15000000000000036
        },
        {
          "name": "D3",
          "midi": 50,
          "time": 5.250000000000002,
          "velocity": 0.4330708661417323,
          "duration": 0.15000000000000036
        },
        {
          "name": "C3",
          "midi": 48,
          "time": 5.400000000000002,
          "velocity": 0.4330708661417323,
          "duration": 0.15000000000000036
        },
        {
          "name": "G3",
          "midi": 55,
          "time": 5.5500000000000025,
          "velocity": 0.4330708661417323,
          "duration": 0.15000000000000036
        },
        {
          "name": "A3",
          "midi": 57,
          "time": 5.700000000000003,
          "velocity": 0.4330708661417323,
          "duration": 0.15000000000000036
        },
        {
          "name": "A#3",
          "midi": 58,
          "time": 5.850000000000003,
          "velocity": 0.4330708661417323,
          "duration": 0.15000000000000036
        },
        {
          "name": "D3",
          "midi": 50,
          "time": 6.0000000000000036,
          "velocity": 0.4330708661417323,
          "duration": 0.15000000000000036
        },
        {
          "name": "G3",
          "midi": 55,
          "time": 6.150000000000004,
          "velocity": 0.4330708661417323,
          "duration": 0.15000000000000036
        },
        {
          "name": "A3",
          "midi": 57,
          "time": 6.300000000000004,
          "velocity": 0.4330708661417323,
          "duration": 0.15000000000000036
        },
        {
          "name": "A#3",
          "midi": 58,
          "time": 6.450000000000005,
          "velocity": 0.4330708661417323,
          "duration": 0.15000000000000036
        },
        {
          "name": "D4",
          "midi": 62,
          "time": 6.600000000000005,
          "velocity": 0.4330708661417323,
          "duration": 0.15000000000000036
        },
        {
          "name": "G4",
          "midi": 67,
          "time": 6.750000000000005,
          "velocity": 0.4330708661417323,
          "duration": 0.15000000000000036
        },
        {
          "name": "A4",
          "midi": 69,
          "time": 6.900000000000006,
          "velocity": 0.4330708661417323,
          "duration": 0.15000000000000036
        },
        {
          "name": "A#4",
          "midi": 70,
          "time": 7.050000000000006,
          "velocity": 0.4330708661417323,
          "duration": 0.15000000000000036
        },
        {
          "name": "D5",
          "midi": 74,
          "time": 7.200000000000006,
          "velocity": 0.4330708661417323,
          "duration": 0.15000000000000036
        },
        {
          "name": "G5",
          "midi": 79,
          "time": 7.350000000000007,
          "velocity": 0.4330708661417323,
          "duration": 0.15000000000000036
        },
        {
          "name": "A5",
          "midi": 81,
          "time": 7.500000000000007,
          "velocity": 0.4330708661417323,
          "duration": 0.15000000000000036
        },
        {
          "name": "A#5",
          "midi": 82,
          "time": 7.6500000000000075,
          "velocity": 0.4330708661417323,
          "duration": 0.15000000000000036
        },
        {
          "name": "D6",
          "midi": 86,
          "time": 7.800000000000008,
          "velocity": 0.4330708661417323,
          "duration": 0.15000000000000036
        },
        {
          "name": "G6",
          "midi": 91,
          "time": 7.950000000000008,
          "velocity": 0.4330708661417323,
          "duration": 0.15000000000000036
        },
        {
          "name": "D6",
          "midi": 86,
          "time": 8.100000000000009,
          "velocity": 0.4330708661417323,
          "duration": 0.15000000000000036
        },
        {
          "name": "A#5",
          "midi": 82,
          "time": 8.250000000000009,
          "velocity": 0.4330708661417323,
          "duration": 0.15000000000000036
        },
        {
          "name": "A5",
          "midi": 81,
          "time": 8.40000000000001,
          "velocity": 0.4330708661417323,
          "duration": 0.15000000000000036
        },
        {
          "name": "G5",
          "midi": 79,
          "time": 8.55000000000001,
          "velocity": 0.4330708661417323,
          "duration": 0.15000000000000036
        },
        {
          "name": "D5",
          "midi": 74,
          "time": 8.70000000000001,
          "velocity": 0.4330708661417323,
          "duration": 0.15000000000000036
        },
        {
          "name": "A#4",
          "midi": 70,
          "time": 8.85000000000001,
          "velocity": 0.4330708661417323,
          "duration": 0.15000000000000036
        },
        {
          "name": "A4",
          "midi": 69,
          "time": 9.00000000000001,
          "velocity": 0.4330708661417323,
          "duration": 0.15000000000000036
        },
        {
          "name": "G4",
          "midi": 67,
          "time": 9.150000000000011,
          "velocity": 0.4330708661417323,
          "duration": 0.15000000000000036
        },
        {
          "name": "D4",
          "midi": 62,
          "time": 9.300000000000011,
          "velocity": 0.4330708661417323,
          "duration": 0.15000000000000036
        },
        {
          "name": "A#3",
          "midi": 58,
          "time": 9.450000000000012,
          "velocity": 0.4330708661417323,
          "duration": 0.15000000000000036
        },
        {
          "name": "A3",
          "midi": 57,
          "time": 9.600000000000012,
          "velocity": 0.4330708661417323,
          "duration": 0.15000000000000036
        },
        {
          "name": "G3",
          "midi": 55,
          "time": 9.750000000000012,
          "velocity": 0.4330708661417323,
          "duration": 0.15000000000000036
        },
        {
          "name": "D3",
          "midi": 50,
          "time": 9.900000000000013,
          "velocity": 0.4330708661417323,
          "duration": 0.15000000000000036
        },
        {
          "name": "A#3",
          "midi": 58,
          "time": 10.050000000000013,
          "velocity": 0.4330708661417323,
          "duration": 0.15000000000000036
        },
        {
          "name": "A3",
          "midi": 57,
          "time": 10.200000000000014,
          "velocity": 0.4330708661417323,
          "duration": 0.15000000000000036
        },
        {
          "name": "A#3",
          "midi": 58,
          "time": 10.350000000000014,
          "velocity": 0.4330708661417323,
          "duration": 0.15000000000000036
        },
        {
          "name": "C3",
          "midi": 48,
          "time": 10.500000000000014,
          "velocity": 0.4330708661417323,
          "duration": 0.15000000000000036
        },
        {
          "name": "D3",
          "midi": 50,
          "time": 10.650000000000015,
          "velocity": 0.4330708661417323,
          "duration": 0.15000000000000036
        },
        {
          "name": "F3",
          "midi": 53,
          "time": 10.800000000000015,
          "velocity": 0.4330708661417323,
          "duration": 0.15000000000000036
        },
        {
          "name": "A#3",
          "midi": 58,
          "time": 10.950000000000015,
          "velocity": 0.4330708661417323,
          "duration": 0.15000000000000036
        },
        {
          "name": "C4",
          "midi": 60,
          "time": 11.100000000000016,
          "velocity": 0.4330708661417323,
          "duration": 0.15000000000000036
        },
        {
          "name": "D4",
          "midi": 62,
          "time": 11.250000000000016,
          "velocity": 0.4330708661417323,
          "duration": 0.15000000000000036
        },
        {
          "name": "F4",
          "midi": 65,
          "time": 11.400000000000016,
          "velocity": 0.4330708661417323,
          "duration": 0.15000000000000036
        },
        {
          "name": "A#4",
          "midi": 70,
          "time": 11.550000000000017,
          "velocity": 0.4330708661417323,
          "duration": 0.15000000000000036
        },
        {
          "name": "C5",
          "midi": 72,
          "time": 11.700000000000017,
          "velocity": 0.4330708661417323,
          "duration": 0.15000000000000036
        },
        {
          "name": "D5",
          "midi": 74,
          "time": 11.850000000000017,
          "velocity": 0.4330708661417323,
          "duration": 0.15000000000000036
        },
        {
          "name": "F5",
          "midi": 77,
          "time": 12.000000000000018,
          "velocity": 0.4330708661417323,
          "duration": 0.15000000000000036
        },
        {
          "name": "A#5",
          "midi": 82,
          "time": 12.150000000000018,
          "velocity": 0.4330708661417323,
          "duration": 0.15000000000000036
        },
        {
          "name": "C6",
          "midi": 84,
          "time": 12.300000000000018,
          "velocity": 0.4330708661417323,
          "duration": 0.15000000000000036
        },
        {
          "name": "D6",
          "midi": 86,
          "time": 12.450000000000019,
          "velocity": 0.4330708661417323,
          "duration": 0.15000000000000036
        },
        {
          "name": "F6",
          "midi": 89,
          "time": 12.60000000000002,
          "velocity": 0.4330708661417323,
          "duration": 0.15000000000000036
        },
        {
          "name": "A#6",
          "midi": 94,
          "time": 12.75000000000002,
          "velocity": 0.4330708661417323,
          "duration": 0.15000000000000036
        },
        {
          "name": "F6",
          "midi": 89,
          "time": 12.90000000000002,
          "velocity": 0.4330708661417323,
          "duration": 0.15000000000000036
        },
        {
          "name": "D6",
          "midi": 86,
          "time": 13.05000000000002,
          "velocity": 0.4330708661417323,
          "duration": 0.15000000000000036
        },
        {
          "name": "C6",
          "midi": 84,
          "time": 13.20000000000002,
          "velocity": 0.4330708661417323,
          "duration": 0.15000000000000036
        },
        {
          "name": "A#5",
          "midi": 82,
          "time": 13.350000000000021,
          "velocity": 0.4330708661417323,
          "duration": 0.15000000000000036
        },
        {
          "name": "F5",
          "midi": 77,
          "time": 13.500000000000021,
          "velocity": 0.4330708661417323,
          "duration": 0.15000000000000036
        },
        {
          "name": "D5",
          "midi": 74,
          "time": 13.650000000000022,
          "velocity": 0.4330708661417323,
          "duration": 0.15000000000000036
        },
        {
          "name": "C5",
          "midi": 72,
          "time": 13.800000000000022,
          "velocity": 0.4330708661417323,
          "duration": 0.15000000000000036
        },
        {
          "name": "A#4",
          "midi": 70,
          "time": 13.950000000000022,
          "velocity": 0.4330708661417323,
          "duration": 0.15000000000000036
        },
        {
          "name": "F4",
          "midi": 65,
          "time": 14.100000000000023,
          "velocity": 0.4330708661417323,
          "duration": 0.15000000000000036
        },
        {
          "name": "D4",
          "midi": 62,
          "time": 14.250000000000023,
          "velocity": 0.4330708661417323,
          "duration": 0.15000000000000036
        },
        {
          "name": "C4",
          "midi": 60,
          "time": 14.400000000000023,
          "velocity": 0.4330708661417323,
          "duration": 0.15000000000000036
        },
        {
          "name": "A#3",
          "midi": 58,
          "time": 14.550000000000024,
          "velocity": 0.4330708661417323,
          "duration": 0.15000000000000036
        },
        {
          "name": "F3",
          "midi": 53,
          "time": 14.700000000000024,
          "velocity": 0.4330708661417323,
          "duration": 0.15000000000000036
        },
        {
          "name": "D3",
          "midi": 50,
          "time": 14.850000000000025,
          "velocity": 0.4330708661417323,
          "duration": 0.15000000000000036
        },
        {
          "name": "C3",
          "midi": 48,
          "time": 15.000000000000025,
          "velocity": 0.4330708661417323,
          "duration": 0.15000000000000036
        },
        {
          "name": "G3",
          "midi": 55,
          "time": 15.150000000000025,
          "velocity": 0.4330708661417323,
          "duration": 0.15000000000000036
        },
        {
          "name": "A3",
          "midi": 57,
          "time": 15.300000000000026,
          "velocity": 0.4330708661417323,
          "duration": 0.15000000000000036
        },
        {
          "name": "A#3",
          "midi": 58,
          "time": 15.450000000000026,
          "velocity": 0.4330708661417323,
          "duration": 0.15000000000000036
        },
        {
          "name": "D3",
          "midi": 50,
          "time": 15.600000000000026,
          "velocity": 0.4330708661417323,
          "duration": 0.15000000000000036
        },
        {
          "name": "G3",
          "midi": 55,
          "time": 15.750000000000027,
          "velocity": 0.4330708661417323,
          "duration": 0.15000000000000036
        },
        {
          "name": "A3",
          "midi": 57,
          "time": 15.900000000000027,
          "velocity": 0.4330708661417323,
          "duration": 0.14999999999999858
        },
        {
          "name": "A#3",
          "midi": 58,
          "time": 16.050000000000026,
          "velocity": 0.4330708661417323,
          "duration": 0.14999999999999858
        },
        {
          "name": "D4",
          "midi": 62,
          "time": 16.200000000000024,
          "velocity": 0.4330708661417323,
          "duration": 0.14999999999999858
        },
        {
          "name": "G4",
          "midi": 67,
          "time": 16.350000000000023,
          "velocity": 0.4330708661417323,
          "duration": 0.14999999999999858
        },
        {
          "name": "A4",
          "midi": 69,
          "time": 16.50000000000002,
          "velocity": 0.4330708661417323,
          "duration": 0.14999999999999858
        },
        {
          "name": "A#4",
          "midi": 70,
          "time": 16.65000000000002,
          "velocity": 0.4330708661417323,
          "duration": 0.14999999999999858
        },
        {
          "name": "D5",
          "midi": 74,
          "time": 16.80000000000002,
          "velocity": 0.4330708661417323,
          "duration": 0.14999999999999858
        },
        {
          "name": "G5",
          "midi": 79,
          "time": 16.950000000000017,
          "velocity": 0.4330708661417323,
          "duration": 0.14999999999999858
        },
        {
          "name": "A5",
          "midi": 81,
          "time": 17.100000000000016,
          "velocity": 0.4330708661417323,
          "duration": 0.14999999999999858
        },
        {
          "name": "A#5",
          "midi": 82,
          "time": 17.250000000000014,
          "velocity": 0.4330708661417323,
          "duration": 0.14999999999999858
        },
        {
          "name": "D6",
          "midi": 86,
          "time": 17.400000000000013,
          "velocity": 0.4330708661417323,
          "duration": 0.14999999999999858
        },
        {
          "name": "G6",
          "midi": 91,
          "time": 17.55000000000001,
          "velocity": 0.4330708661417323,
          "duration": 0.14999999999999858
        },
        {
          "name": "D6",
          "midi": 86,
          "time": 17.70000000000001,
          "velocity": 0.4330708661417323,
          "duration": 0.14999999999999858
        },
        {
          "name": "A#5",
          "midi": 82,
          "time": 17.85000000000001,
          "velocity": 0.4330708661417323,
          "duration": 0.14999999999999858
        },
        {
          "name": "A5",
          "midi": 81,
          "time": 18.000000000000007,
          "velocity": 0.4330708661417323,
          "duration": 0.14999999999999858
        },
        {
          "name": "G5",
          "midi": 79,
          "time": 18.150000000000006,
          "velocity": 0.4330708661417323,
          "duration": 0.14999999999999858
        },
        {
          "name": "D5",
          "midi": 74,
          "time": 18.300000000000004,
          "velocity": 0.4330708661417323,
          "duration": 0.14999999999999858
        },
        {
          "name": "A#4",
          "midi": 70,
          "time": 18.450000000000003,
          "velocity": 0.4330708661417323,
          "duration": 0.14999999999999858
        },
        {
          "name": "A4",
          "midi": 69,
          "time": 18.6,
          "velocity": 0.4330708661417323,
          "duration": 0.14999999999999858
        },
        {
          "name": "G4",
          "midi": 67,
          "time": 18.75,
          "velocity": 0.4330708661417323,
          "duration": 0.14999999999999858
        },
        {
          "name": "D4",
          "midi": 62,
          "time": 18.9,
          "velocity": 0.4330708661417323,
          "duration": 0.14999999999999858
        },
        {
          "name": "A#3",
          "midi": 58,
          "time": 19.049999999999997,
          "velocity": 0.4330708661417323,
          "duration": 0.14999999999999858
        },
        {
          "name": "A3",
          "midi": 57,
          "time": 19.199999999999996,
          "velocity": 0.4330708661417323,
          "duration": 0.14999999999999858
        },
        {
          "name": "G3",
          "midi": 55,
          "time": 19.349999999999994,
          "velocity": 0.4330708661417323,
          "duration": 0.14999999999999858
        },
        {
          "name": "D3",
          "midi": 50,
          "time": 19.499999999999993,
          "velocity": 0.4330708661417323,
          "duration": 0.14999999999999858
        },
        {
          "name": "A#3",
          "midi": 58,
          "time": 19.64999999999999,
          "velocity": 0.4330708661417323,
          "duration": 0.14999999999999858
        },
        {
          "name": "A3",
          "midi": 57,
          "time": 19.79999999999999,
          "velocity": 0.4330708661417323,
          "duration": 0.14999999999999858
        },
        {
          "name": "G3",
          "midi": 55,
          "time": 19.94999999999999,
          "velocity": 0.4330708661417323,
          "duration": 0.14999999999999858
        },
        {
          "name": "A#3",
          "midi": 58,
          "time": 20.099999999999987,
          "velocity": 0.4330708661417323,
          "duration": 0.14999999999999858
        },
        {
          "name": "D#3",
          "midi": 51,
          "time": 20.249999999999986,
          "velocity": 0.4330708661417323,
          "duration": 0.14999999999999858
        },
        {
          "name": "F3",
          "midi": 53,
          "time": 20.399999999999984,
          "velocity": 0.4330708661417323,
          "duration": 0.14999999999999858
        },
        {
          "name": "G3",
          "midi": 55,
          "time": 20.549999999999983,
          "velocity": 0.4330708661417323,
          "duration": 0.14999999999999858
        },
        {
          "name": "A#3",
          "midi": 58,
          "time": 20.69999999999998,
          "velocity": 0.4330708661417323,
          "duration": 0.14999999999999858
        },
        {
          "name": "D#4",
          "midi": 63,
          "time": 20.84999999999998,
          "velocity": 0.4330708661417323,
          "duration": 0.14999999999999858
        },
        {
          "name": "F4",
          "midi": 65,
          "time": 20.99999999999998,
          "velocity": 0.4330708661417323,
          "duration": 0.14999999999999858
        },
        {
          "name": "G4",
          "midi": 67,
          "time": 21.149999999999977,
          "velocity": 0.4330708661417323,
          "duration": 0.14999999999999858
        },
        {
          "name": "A#4",
          "midi": 70,
          "time": 21.299999999999976,
          "velocity": 0.4330708661417323,
          "duration": 0.14999999999999858
        },
        {
          "name": "D#5",
          "midi": 75,
          "time": 21.449999999999974,
          "velocity": 0.4330708661417323,
          "duration": 0.14999999999999858
        },
        {
          "name": "F5",
          "midi": 77,
          "time": 21.599999999999973,
          "velocity": 0.4330708661417323,
          "duration": 0.14999999999999858
        },
        {
          "name": "G5",
          "midi": 79,
          "time": 21.74999999999997,
          "velocity": 0.4330708661417323,
          "duration": 0.14999999999999858
        },
        {
          "name": "A#5",
          "midi": 82,
          "time": 21.89999999999997,
          "velocity": 0.4330708661417323,
          "duration": 0.14999999999999858
        },
        {
          "name": "D#6",
          "midi": 87,
          "time": 22.04999999999997,
          "velocity": 0.4330708661417323,
          "duration": 0.14999999999999858
        },
        {
          "name": "F6",
          "midi": 89,
          "time": 22.199999999999967,
          "velocity": 0.4330708661417323,
          "duration": 0.14999999999999858
        },
        {
          "name": "G6",
          "midi": 91,
          "time": 22.349999999999966,
          "velocity": 0.4330708661417323,
          "duration": 0.14999999999999858
        },
        {
          "name": "F6",
          "midi": 89,
          "time": 22.499999999999964,
          "velocity": 0.4330708661417323,
          "duration": 0.14999999999999858
        },
        {
          "name": "D#6",
          "midi": 87,
          "time": 22.649999999999963,
          "velocity": 0.4330708661417323,
          "duration": 0.14999999999999858
        },
        {
          "name": "A#5",
          "midi": 82,
          "time": 22.79999999999996,
          "velocity": 0.4330708661417323,
          "duration": 0.14999999999999858
        },
        {
          "name": "G5",
          "midi": 79,
          "time": 22.94999999999996,
          "velocity": 0.4330708661417323,
          "duration": 0.14999999999999858
        },
        {
          "name": "F5",
          "midi": 77,
          "time": 23.09999999999996,
          "velocity": 0.4330708661417323,
          "duration": 0.14999999999999858
        },
        {
          "name": "D#5",
          "midi": 75,
          "time": 23.249999999999957,
          "velocity": 0.4330708661417323,
          "duration": 0.14999999999999858
        },
        {
          "name": "A#4",
          "midi": 70,
          "time": 23.399999999999956,
          "velocity": 0.4330708661417323,
          "duration": 0.14999999999999858
        },
        {
          "name": "G4",
          "midi": 67,
          "time": 23.549999999999955,
          "velocity": 0.4330708661417323,
          "duration": 0.14999999999999858
        },
        {
          "name": "F4",
          "midi": 65,
          "time": 23.699999999999953,
          "velocity": 0.4330708661417323,
          "duration": 0.14999999999999858
        },
        {
          "name": "D#4",
          "midi": 63,
          "time": 23.84999999999995,
          "velocity": 0.4330708661417323,
          "duration": 0.14999999999999858
        },
        {
          "name": "A#3",
          "midi": 58,
          "time": 23.99999999999995,
          "velocity": 0.4330708661417323,
          "duration": 0.14999999999999858
        },
        {
          "name": "G3",
          "midi": 55,
          "time": 24.14999999999995,
          "velocity": 0.4330708661417323,
          "duration": 0.14999999999999858
        },
        {
          "name": "F3",
          "midi": 53,
          "time": 24.299999999999947,
          "velocity": 0.4330708661417323,
          "duration": 0.14999999999999858
        },
        {
          "name": "D#3",
          "midi": 51,
          "time": 24.449999999999946,
          "velocity": 0.4330708661417323,
          "duration": 0.14999999999999858
        },
        {
          "name": "A#3",
          "midi": 58,
          "time": 24.599999999999945,
          "velocity": 0.4330708661417323,
          "duration": 0.14999999999999858
        },
        {
          "name": "A3",
          "midi": 57,
          "time": 24.749999999999943,
          "velocity": 0.4330708661417323,
          "duration": 0.14999999999999858
        },
        {
          "name": "C3",
          "midi": 48,
          "time": 24.89999999999994,
          "velocity": 0.4330708661417323,
          "duration": 0.14999999999999858
        },
        {
          "name": "F3",
          "midi": 53,
          "time": 25.04999999999994,
          "velocity": 0.4330708661417323,
          "duration": 0.14999999999999858
        },
        {
          "name": "G3",
          "midi": 55,
          "time": 25.19999999999994,
          "velocity": 0.4330708661417323,
          "duration": 0.14999999999999858
        },
        {
          "name": "A3",
          "midi": 57,
          "time": 25.349999999999937,
          "velocity": 0.4330708661417323,
          "duration": 0.14999999999999858
        },
        {
          "name": "C4",
          "midi": 60,
          "time": 25.499999999999936,
          "velocity": 0.4330708661417323,
          "duration": 0.14999999999999858
        },
        {
          "name": "F4",
          "midi": 65,
          "time": 25.649999999999935,
          "velocity": 0.4330708661417323,
          "duration": 0.14999999999999858
        },
        {
          "name": "G4",
          "midi": 67,
          "time": 25.799999999999933,
          "velocity": 0.4330708661417323,
          "duration": 0.14999999999999858
        },
        {
          "name": "A4",
          "midi": 69,
          "time": 25.949999999999932,
          "velocity": 0.4330708661417323,
          "duration": 0.14999999999999858
        },
        {
          "name": "C5",
          "midi": 72,
          "time": 26.09999999999993,
          "velocity": 0.4330708661417323,
          "duration": 0.14999999999999858
        },
        {
          "name": "F5",
          "midi": 77,
          "time": 26.24999999999993,
          "velocity": 0.4330708661417323,
          "duration": 0.14999999999999858
        },
        {
          "name": "G5",
          "midi": 79,
          "time": 26.399999999999928,
          "velocity": 0.4330708661417323,
          "duration": 0.14999999999999858
        },
        {
          "name": "A5",
          "midi": 81,
          "time": 26.549999999999926,
          "velocity": 0.4330708661417323,
          "duration": 0.14999999999999858
        },
        {
          "name": "C6",
          "midi": 84,
          "time": 26.699999999999925,
          "velocity": 0.4330708661417323,
          "duration": 0.14999999999999858
        },
        {
          "name": "F6",
          "midi": 89,
          "time": 26.849999999999923,
          "velocity": 0.4330708661417323,
          "duration": 0.14999999999999858
        },
        {
          "name": "G6",
          "midi": 91,
          "time": 26.999999999999922,
          "velocity": 0.4330708661417323,
          "duration": 0.14999999999999858
        },
        {
          "name": "A6",
          "midi": 93,
          "time": 27.14999999999992,
          "velocity": 0.4330708661417323,
          "duration": 0.14999999999999858
        },
        {
          "name": "G6",
          "midi": 91,
          "time": 27.29999999999992,
          "velocity": 0.4330708661417323,
          "duration": 0.14999999999999858
        },
        {
          "name": "F6",
          "midi": 89,
          "time": 27.449999999999918,
          "velocity": 0.4330708661417323,
          "duration": 0.14999999999999858
        },
        {
          "name": "C6",
          "midi": 84,
          "time": 27.599999999999916,
          "velocity": 0.4330708661417323,
          "duration": 0.14999999999999858
        },
        {
          "name": "A5",
          "midi": 81,
          "time": 27.749999999999915,
          "velocity": 0.4330708661417323,
          "duration": 0.14999999999999858
        },
        {
          "name": "G5",
          "midi": 79,
          "time": 27.899999999999913,
          "velocity": 0.4330708661417323,
          "duration": 0.14999999999999858
        },
        {
          "name": "F5",
          "midi": 77,
          "time": 28.049999999999912,
          "velocity": 0.4330708661417323,
          "duration": 0.14999999999999858
        },
        {
          "name": "C5",
          "midi": 72,
          "time": 28.19999999999991,
          "velocity": 0.4330708661417323,
          "duration": 0.14999999999999858
        },
        {
          "name": "A4",
          "midi": 69,
          "time": 28.34999999999991,
          "velocity": 0.4330708661417323,
          "duration": 0.14999999999999858
        },
        {
          "name": "G4",
          "midi": 67,
          "time": 28.499999999999908,
          "velocity": 0.4330708661417323,
          "duration": 0.14999999999999858
        },
        {
          "name": "F4",
          "midi": 65,
          "time": 28.649999999999906,
          "velocity": 0.4330708661417323,
          "duration": 0.14999999999999858
        },
        {
          "name": "C4",
          "midi": 60,
          "time": 28.799999999999905,
          "velocity": 0.4330708661417323,
          "duration": 0.14999999999999858
        },
        {
          "name": "A3",
          "midi": 57,
          "time": 28.949999999999903,
          "velocity": 0.4330708661417323,
          "duration": 0.14999999999999858
        },
        {
          "name": "G3",
          "midi": 55,
          "time": 29.099999999999902,
          "velocity": 0.4330708661417323,
          "duration": 0.14999999999999858
        },
        {
          "name": "F3",
          "midi": 53,
          "time": 29.2499999999999,
          "velocity": 0.4330708661417323,
          "duration": 0.14999999999999858
        },
        {
          "name": "C3",
          "midi": 48,
          "time": 29.3999999999999,
          "velocity": 0.4330708661417323,
          "duration": 0.14999999999999858
        },
        {
          "name": "F#3",
          "midi": 54,
          "time": 29.549999999999898,
          "velocity": 0.4330708661417323,
          "duration": 0.14999999999999858
        },
        {
          "name": "A#3",
          "midi": 58,
          "time": 29.699999999999896,
          "velocity": 0.4330708661417323,
          "duration": 0.14999999999999858
        },
        {
          "name": "C#3",
          "midi": 49,
          "time": 29.849999999999895,
          "velocity": 0.4330708661417323,
          "duration": 0.14999999999999858
        },
        {
          "name": "F3",
          "midi": 53,
          "time": 29.999999999999893,
          "velocity": 0.4330708661417323,
          "duration": 0.14999999999999858
        },
        {
          "name": "F#3",
          "midi": 54,
          "time": 30.149999999999892,
          "velocity": 0.4330708661417323,
          "duration": 0.14999999999999858
        },
        {
          "name": "A#3",
          "midi": 58,
          "time": 30.29999999999989,
          "velocity": 0.4330708661417323,
          "duration": 0.14999999999999858
        },
        {
          "name": "C#4",
          "midi": 61,
          "time": 30.44999999999989,
          "velocity": 0.4330708661417323,
          "duration": 0.14999999999999858
        },
        {
          "name": "F4",
          "midi": 65,
          "time": 30.599999999999888,
          "velocity": 0.4330708661417323,
          "duration": 0.14999999999999858
        },
        {
          "name": "F#4",
          "midi": 66,
          "time": 30.749999999999886,
          "velocity": 0.4330708661417323,
          "duration": 0.14999999999999858
        },
        {
          "name": "A#4",
          "midi": 70,
          "time": 30.899999999999885,
          "velocity": 0.4330708661417323,
          "duration": 0.14999999999999858
        },
        {
          "name": "C#5",
          "midi": 73,
          "time": 31.049999999999883,
          "velocity": 0.4330708661417323,
          "duration": 0.14999999999999858
        },
        {
          "name": "F5",
          "midi": 77,
          "time": 31.199999999999882,
          "velocity": 0.4330708661417323,
          "duration": 0.14999999999999858
        },
        {
          "name": "F#5",
          "midi": 78,
          "time": 31.34999999999988,
          "velocity": 0.4330708661417323,
          "duration": 0.14999999999999858
        },
        {
          "name": "A#5",
          "midi": 82,
          "time": 31.49999999999988,
          "velocity": 0.4330708661417323,
          "duration": 0.14999999999999858
        },
        {
          "name": "C#6",
          "midi": 85,
          "time": 31.649999999999878,
          "velocity": 0.4330708661417323,
          "duration": 0.14999999999999858
        },
        {
          "name": "F6",
          "midi": 89,
          "time": 31.799999999999876,
          "velocity": 0.4330708661417323,
          "duration": 0.14999999999999858
        },
        {
          "name": "F#6",
          "midi": 90,
          "time": 31.949999999999875,
          "velocity": 0.4330708661417323,
          "duration": 0.14999999999999858
        },
        {
          "name": "F6",
          "midi": 89,
          "time": 32.09999999999987,
          "velocity": 0.4330708661417323,
          "duration": 0.14999999999999858
        },
        {
          "name": "C#6",
          "midi": 85,
          "time": 32.24999999999987,
          "velocity": 0.4330708661417323,
          "duration": 0.14999999999999858
        },
        {
          "name": "A#5",
          "midi": 82,
          "time": 32.39999999999987,
          "velocity": 0.4330708661417323,
          "duration": 0.14999999999999858
        },
        {
          "name": "F#5",
          "midi": 78,
          "time": 32.54999999999987,
          "velocity": 0.4330708661417323,
          "duration": 0.14999999999999858
        },
        {
          "name": "F5",
          "midi": 77,
          "time": 32.69999999999987,
          "velocity": 0.4330708661417323,
          "duration": 0.14999999999999858
        },
        {
          "name": "C#5",
          "midi": 73,
          "time": 32.849999999999866,
          "velocity": 0.4330708661417323,
          "duration": 0.14999999999999858
        },
        {
          "name": "A#4",
          "midi": 70,
          "time": 32.999999999999865,
          "velocity": 0.4330708661417323,
          "duration": 0.14999999999999858
        },
        {
          "name": "F#4",
          "midi": 66,
          "time": 33.149999999999864,
          "velocity": 0.4330708661417323,
          "duration": 0.14999999999999858
        },
        {
          "name": "F4",
          "midi": 65,
          "time": 33.29999999999986,
          "velocity": 0.4330708661417323,
          "duration": 0.14999999999999858
        },
        {
          "name": "C#4",
          "midi": 61,
          "time": 33.44999999999986,
          "velocity": 0.4330708661417323,
          "duration": 0.14999999999999858
        },
        {
          "name": "A#3",
          "midi": 58,
          "time": 33.59999999999986,
          "velocity": 0.4330708661417323,
          "duration": 0.14999999999999858
        },
        {
          "name": "F#3",
          "midi": 54,
          "time": 33.74999999999986,
          "velocity": 0.4330708661417323,
          "duration": 0.14999999999999858
        },
        {
          "name": "F3",
          "midi": 53,
          "time": 33.89999999999986,
          "velocity": 0.4330708661417323,
          "duration": 0.14999999999999858
        },
        {
          "name": "C#3",
          "midi": 49,
          "time": 34.049999999999855,
          "velocity": 0.4330708661417323,
          "duration": 0.14999999999999858
        },
        {
          "name": "A#3",
          "midi": 58,
          "time": 34.199999999999854,
          "velocity": 0.4330708661417323,
          "duration": 0.14999999999999858
        },
        {
          "name": "G#3",
          "midi": 56,
          "time": 34.34999999999985,
          "velocity": 0.4330708661417323,
          "duration": 0.14999999999999858
        },
        {
          "name": "C3",
          "midi": 48,
          "time": 34.49999999999985,
          "velocity": 0.4330708661417323,
          "duration": 0.14999999999999858
        },
        {
          "name": "D#3",
          "midi": 51,
          "time": 34.64999999999985,
          "velocity": 0.4330708661417323,
          "duration": 0.14999999999999858
        },
        {
          "name": "G3",
          "midi": 55,
          "time": 34.79999999999985,
          "velocity": 0.4330708661417323,
          "duration": 0.14999999999999858
        },
        {
          "name": "G#3",
          "midi": 56,
          "time": 34.94999999999985,
          "velocity": 0.4330708661417323,
          "duration": 0.14999999999999858
        },
        {
          "name": "C4",
          "midi": 60,
          "time": 35.099999999999845,
          "velocity": 0.4330708661417323,
          "duration": 0.14999999999999858
        },
        {
          "name": "D#4",
          "midi": 63,
          "time": 35.249999999999844,
          "velocity": 0.4330708661417323,
          "duration": 0.14999999999999858
        },
        {
          "name": "G4",
          "midi": 67,
          "time": 35.39999999999984,
          "velocity": 0.4330708661417323,
          "duration": 0.14999999999999858
        },
        {
          "name": "G#4",
          "midi": 68,
          "time": 35.54999999999984,
          "velocity": 0.4330708661417323,
          "duration": 0.14999999999999858
        },
        {
          "name": "C5",
          "midi": 72,
          "time": 35.69999999999984,
          "velocity": 0.4330708661417323,
          "duration": 0.14999999999999858
        },
        {
          "name": "D#5",
          "midi": 75,
          "time": 35.84999999999984,
          "velocity": 0.4330708661417323,
          "duration": 0.14999999999999858
        },
        {
          "name": "G5",
          "midi": 79,
          "time": 35.99999999999984,
          "velocity": 0.4330708661417323,
          "duration": 0.14999999999999858
        },
        {
          "name": "G#5",
          "midi": 80,
          "time": 36.149999999999835,
          "velocity": 0.4330708661417323,
          "duration": 0.14999999999999858
        },
        {
          "name": "C6",
          "midi": 84,
          "time": 36.299999999999834,
          "velocity": 0.4330708661417323,
          "duration": 0.14999999999999858
        },
        {
          "name": "D#6",
          "midi": 87,
          "time": 36.44999999999983,
          "velocity": 0.4330708661417323,
          "duration": 0.14999999999999858
        },
        {
          "name": "G6",
          "midi": 91,
          "time": 36.59999999999983,
          "velocity": 0.4330708661417323,
          "duration": 0.14999999999999858
        },
        {
          "name": "G#6",
          "midi": 92,
          "time": 36.74999999999983,
          "velocity": 0.4330708661417323,
          "duration": 0.14999999999999858
        },
        {
          "name": "G6",
          "midi": 91,
          "time": 36.89999999999983,
          "velocity": 0.4330708661417323,
          "duration": 0.14999999999999858
        },
        {
          "name": "D#6",
          "midi": 87,
          "time": 37.04999999999983,
          "velocity": 0.4330708661417323,
          "duration": 0.14999999999999858
        },
        {
          "name": "C6",
          "midi": 84,
          "time": 37.199999999999825,
          "velocity": 0.4330708661417323,
          "duration": 0.14999999999999858
        },
        {
          "name": "G#5",
          "midi": 80,
          "time": 37.349999999999824,
          "velocity": 0.4330708661417323,
          "duration": 0.14999999999999858
        },
        {
          "name": "G5",
          "midi": 79,
          "time": 37.49999999999982,
          "velocity": 0.4330708661417323,
          "duration": 0.14999999999999858
        },
        {
          "name": "D#5",
          "midi": 75,
          "time": 37.64999999999982,
          "velocity": 0.4330708661417323,
          "duration": 0.14999999999999858
        },
        {
          "name": "C5",
          "midi": 72,
          "time": 37.79999999999982,
          "velocity": 0.4330708661417323,
          "duration": 0.14999999999999858
        },
        {
          "name": "G#4",
          "midi": 68,
          "time": 37.94999999999982,
          "velocity": 0.4330708661417323,
          "duration": 0.14999999999999858
        },
        {
          "name": "G4",
          "midi": 67,
          "time": 38.09999999999982,
          "velocity": 0.4330708661417323,
          "duration": 0.14999999999999858
        },
        {
          "name": "D#4",
          "midi": 63,
          "time": 38.249999999999815,
          "velocity": 0.4330708661417323,
          "duration": 0.14999999999999858
        },
        {
          "name": "C4",
          "midi": 60,
          "time": 38.399999999999814,
          "velocity": 0.4330708661417323,
          "duration": 0.14999999999999858
        },
        {
          "name": "G#3",
          "midi": 56,
          "time": 38.54999999999981,
          "velocity": 0.4330708661417323,
          "duration": 0.14999999999999858
        },
        {
          "name": "G3",
          "midi": 55,
          "time": 38.69999999999981,
          "velocity": 0.4330708661417323,
          "duration": 0.14999999999999858
        },
        {
          "name": "D#3",
          "midi": 51,
          "time": 38.84999999999981,
          "velocity": 0.4330708661417323,
          "duration": 0.14999999999999858
        }
      ];