export let bass2: any[] =  [
        {
          "name": "C2",
          "midi": 36,
          "time": 1.6,
          "velocity": 0.6299212598425197,
          "duration": 0.32000000000000006
        },
        {
          "name": "D2",
          "midi": 38,
          "time": 2,
          "velocity": 0.6299212598425197,
          "duration": 0.3200000000000003
        },
        {
          "name": "C2",
          "midi": 36,
          "time": 2.4000000000000004,
          "velocity": 0.6299212598425197,
          "duration": 0.16000000000000014
        },
        {
          "name": "C2",
          "midi": 36,
          "time": 2.6000000000000005,
          "velocity": 0.6299212598425197,
          "duration": 0.16000000000000014
        },
        {
          "name": "D2",
          "midi": 38,
          "time": 2.8000000000000007,
          "velocity": 0.6299212598425197,
          "duration": 0.3200000000000003
        },
        {
          "name": "C2",
          "midi": 36,
          "time": 3.200000000000001,
          "velocity": 0.6299212598425197,
          "duration": 0.3200000000000003
        },
        {
          "name": "D2",
          "midi": 38,
          "time": 3.6000000000000014,
          "velocity": 0.6299212598425197,
          "duration": 0.3200000000000003
        },
        {
          "name": "C2",
          "midi": 36,
          "time": 4.000000000000002,
          "velocity": 0.6299212598425197,
          "duration": 0.2400000000000002
        },
        {
          "name": "C2",
          "midi": 36,
          "time": 4.300000000000002,
          "velocity": 0.6299212598425197,
          "duration": 0.09499999999999975
        },
        {
          "name": "D2",
          "midi": 38,
          "time": 4.400000000000001,
          "velocity": 0.6299212598425197,
          "duration": 0.18833333333333346
        },
        {
          "name": "C2",
          "midi": 36,
          "time": 4.600000000000001,
          "velocity": 0.6299212598425197,
          "duration": 0.16000000000000014
        },
        {
          "name": "C2",
          "midi": 36,
          "time": 4.800000000000002,
          "velocity": 0.6299212598425197,
          "duration": 0.3200000000000003
        },
        {
          "name": "D2",
          "midi": 38,
          "time": 5.200000000000002,
          "velocity": 0.6299212598425197,
          "duration": 0.3200000000000003
        },
        {
          "name": "C2",
          "midi": 36,
          "time": 5.600000000000002,
          "velocity": 0.6299212598425197,
          "duration": 0.16000000000000014
        },
        {
          "name": "C2",
          "midi": 36,
          "time": 5.8000000000000025,
          "velocity": 0.6299212598425197,
          "duration": 0.16000000000000014
        },
        {
          "name": "D2",
          "midi": 38,
          "time": 6.000000000000003,
          "velocity": 0.6299212598425197,
          "duration": 0.3200000000000003
        },
        {
          "name": "C2",
          "midi": 36,
          "time": 6.400000000000003,
          "velocity": 0.6299212598425197,
          "duration": 0.3200000000000003
        },
        {
          "name": "D2",
          "midi": 38,
          "time": 6.800000000000003,
          "velocity": 0.6299212598425197,
          "duration": 0.3200000000000003
        },
        {
          "name": "C2",
          "midi": 36,
          "time": 7.200000000000004,
          "velocity": 0.6299212598425197,
          "duration": 0.2400000000000002
        },
        {
          "name": "C2",
          "midi": 36,
          "time": 7.5000000000000036,
          "velocity": 0.6299212598425197,
          "duration": 0.09499999999999975
        },
        {
          "name": "D2",
          "midi": 38,
          "time": 7.600000000000003,
          "velocity": 0.6299212598425197,
          "duration": 0.18833333333333346
        },
        {
          "name": "C2",
          "midi": 36,
          "time": 7.800000000000003,
          "velocity": 0.6299212598425197,
          "duration": 0.16000000000000014
        },
        {
          "name": "C2",
          "midi": 36,
          "time": 8.000000000000004,
          "velocity": 0.6299212598425197,
          "duration": 0.3200000000000003
        },
        {
          "name": "D2",
          "midi": 38,
          "time": 8.400000000000004,
          "velocity": 0.6299212598425197,
          "duration": 0.3200000000000003
        },
        {
          "name": "C2",
          "midi": 36,
          "time": 8.800000000000004,
          "velocity": 0.6299212598425197,
          "duration": 0.16000000000000014
        },
        {
          "name": "C2",
          "midi": 36,
          "time": 9.000000000000004,
          "velocity": 0.6299212598425197,
          "duration": 0.16000000000000014
        },
        {
          "name": "D2",
          "midi": 38,
          "time": 9.200000000000003,
          "velocity": 0.6299212598425197,
          "duration": 0.3200000000000003
        },
        {
          "name": "C2",
          "midi": 36,
          "time": 9.600000000000003,
          "velocity": 0.6299212598425197,
          "duration": 0.3200000000000003
        },
        {
          "name": "D2",
          "midi": 38,
          "time": 10.000000000000004,
          "velocity": 0.6299212598425197,
          "duration": 0.3200000000000003
        },
        {
          "name": "C2",
          "midi": 36,
          "time": 10.400000000000004,
          "velocity": 0.6299212598425197,
          "duration": 0.2400000000000002
        },
        {
          "name": "C2",
          "midi": 36,
          "time": 10.700000000000005,
          "velocity": 0.6299212598425197,
          "duration": 0.09500000000000064
        },
        {
          "name": "D2",
          "midi": 38,
          "time": 10.800000000000006,
          "velocity": 0.6299212598425197,
          "duration": 0.18833333333333258
        },
        {
          "name": "C2",
          "midi": 36,
          "time": 11.000000000000005,
          "velocity": 0.6299212598425197,
          "duration": 0.16000000000000014
        },
        {
          "name": "C2",
          "midi": 36,
          "time": 11.200000000000005,
          "velocity": 0.6299212598425197,
          "duration": 0.3200000000000003
        },
        {
          "name": "D2",
          "midi": 38,
          "time": 11.600000000000005,
          "velocity": 0.6299212598425197,
          "duration": 0.3200000000000003
        },
        {
          "name": "C2",
          "midi": 36,
          "time": 12.000000000000005,
          "velocity": 0.6299212598425197,
          "duration": 0.16000000000000014
        },
        {
          "name": "C2",
          "midi": 36,
          "time": 12.200000000000005,
          "velocity": 0.6299212598425197,
          "duration": 0.16000000000000014
        },
        {
          "name": "D2",
          "midi": 38,
          "time": 12.400000000000004,
          "velocity": 0.6299212598425197,
          "duration": 0.3200000000000003
        },
        {
          "name": "C2",
          "midi": 36,
          "time": 12.800000000000004,
          "velocity": 0.6299212598425197,
          "duration": 0.3200000000000003
        },
        {
          "name": "D2",
          "midi": 38,
          "time": 13.200000000000005,
          "velocity": 0.6299212598425197,
          "duration": 0.3200000000000003
        },
        {
          "name": "C2",
          "midi": 36,
          "time": 13.600000000000005,
          "velocity": 0.6299212598425197,
          "duration": 0.2400000000000002
        },
        {
          "name": "C2",
          "midi": 36,
          "time": 13.900000000000006,
          "velocity": 0.6299212598425197,
          "duration": 0.09500000000000064
        },
        {
          "name": "D2",
          "midi": 38,
          "time": 14.000000000000007,
          "velocity": 0.6299212598425197,
          "duration": 0.18833333333333258
        },
        {
          "name": "C2",
          "midi": 36,
          "time": 14.200000000000006,
          "velocity": 0.6299212598425197,
          "duration": 0.16000000000000014
        },
        {
          "name": "D2",
          "midi": 38,
          "time": 14.400000000000006,
          "velocity": 0.6299212598425197,
          "duration": 0.16000000000000014
        },
        {
          "name": "C2",
          "midi": 36,
          "time": 14.600000000000005,
          "velocity": 0.6299212598425197,
          "duration": 0.2400000000000002
        },
        {
          "name": "C2",
          "midi": 36,
          "time": 14.900000000000006,
          "velocity": 0.6299212598425197,
          "duration": 0.2400000000000002
        },
        {
          "name": "D2",
          "midi": 38,
          "time": 15.200000000000006,
          "velocity": 0.6299212598425197,
          "duration": 0.16000000000000014
        },
        {
          "name": "C2",
          "midi": 36,
          "time": 15.400000000000006,
          "velocity": 0.6299212598425197,
          "duration": 0.16000000000000014
        },
        {
          "name": "C2",
          "midi": 36,
          "time": 15.800000000000006,
          "velocity": 0.6299212598425197,
          "duration": 0.16000000000000014
        },
        {
          "name": "D2",
          "midi": 38,
          "time": 16.000000000000007,
          "velocity": 0.6299212598425197,
          "duration": 0.16000000000000014
        },
        {
          "name": "C2",
          "midi": 36,
          "time": 16.200000000000006,
          "velocity": 0.6299212598425197,
          "duration": 0.23999999999999844
        },
        {
          "name": "C2",
          "midi": 36,
          "time": 16.500000000000004,
          "velocity": 0.6299212598425197,
          "duration": 0.23999999999999844
        },
        {
          "name": "D2",
          "midi": 38,
          "time": 16.8,
          "velocity": 0.6299212598425197,
          "duration": 0.16000000000000014
        },
        {
          "name": "C2",
          "midi": 36,
          "time": 17,
          "velocity": 0.6299212598425197,
          "duration": 0.16000000000000014
        },
        {
          "name": "D3",
          "midi": 50,
          "time": 17.2,
          "velocity": 0.6299212598425197,
          "duration": 0.0799999999999983
        },
        {
          "name": "C3",
          "midi": 48,
          "time": 17.299999999999997,
          "velocity": 0.6299212598425197,
          "duration": 0.0799999999999983
        },
        {
          "name": "B2",
          "midi": 47,
          "time": 17.399999999999995,
          "velocity": 0.6299212598425197,
          "duration": 0.0799999999999983
        },
        {
          "name": "A2",
          "midi": 45,
          "time": 17.499999999999993,
          "velocity": 0.6299212598425197,
          "duration": 0.0799999999999983
        },
        {
          "name": "D2",
          "midi": 38,
          "time": 17.59999999999999,
          "velocity": 0.6299212598425197,
          "duration": 0.16000000000000014
        },
        {
          "name": "C2",
          "midi": 36,
          "time": 17.79999999999999,
          "velocity": 0.6299212598425197,
          "duration": 0.23999999999999844
        },
        {
          "name": "C2",
          "midi": 36,
          "time": 18.099999999999987,
          "velocity": 0.6299212598425197,
          "duration": 0.23999999999999844
        },
        {
          "name": "D2",
          "midi": 38,
          "time": 18.399999999999984,
          "velocity": 0.6299212598425197,
          "duration": 0.16000000000000014
        },
        {
          "name": "C2",
          "midi": 36,
          "time": 18.599999999999984,
          "velocity": 0.6299212598425197,
          "duration": 0.16000000000000014
        },
        {
          "name": "C2",
          "midi": 36,
          "time": 18.999999999999982,
          "velocity": 0.6299212598425197,
          "duration": 0.16000000000000014
        },
        {
          "name": "D2",
          "midi": 38,
          "time": 19.19999999999998,
          "velocity": 0.6299212598425197,
          "duration": 0.16000000000000014
        },
        {
          "name": "C2",
          "midi": 36,
          "time": 19.39999999999998,
          "velocity": 0.6299212598425197,
          "duration": 0.23999999999999844
        },
        {
          "name": "C2",
          "midi": 36,
          "time": 19.699999999999978,
          "velocity": 0.6299212598425197,
          "duration": 0.23999999999999844
        },
        {
          "name": "D2",
          "midi": 38,
          "time": 19.999999999999975,
          "velocity": 0.6299212598425197,
          "duration": 0.16000000000000014
        },
        {
          "name": "C2",
          "midi": 36,
          "time": 20.199999999999974,
          "velocity": 0.6299212598425197,
          "duration": 0.16000000000000014
        },
        {
          "name": "D3",
          "midi": 50,
          "time": 20.399999999999974,
          "velocity": 0.6299212598425197,
          "duration": 0.0799999999999983
        },
        {
          "name": "C3",
          "midi": 48,
          "time": 20.49999999999997,
          "velocity": 0.6299212598425197,
          "duration": 0.0799999999999983
        },
        {
          "name": "B2",
          "midi": 47,
          "time": 20.59999999999997,
          "velocity": 0.6299212598425197,
          "duration": 0.0799999999999983
        },
        {
          "name": "A2",
          "midi": 45,
          "time": 20.699999999999967,
          "velocity": 0.6299212598425197,
          "duration": 0.0799999999999983
        },
        {
          "name": "C2",
          "midi": 36,
          "time": 20.799999999999965,
          "velocity": 0.6299212598425197,
          "duration": 0.3200000000000003
        },
        {
          "name": "C2",
          "midi": 36,
          "time": 21.199999999999964,
          "velocity": 0.6299212598425197,
          "duration": 0.3200000000000003
        },
        {
          "name": "C2",
          "midi": 36,
          "time": 21.599999999999962,
          "velocity": 0.6299212598425197,
          "duration": 0.3200000000000003
        },
        {
          "name": "C2",
          "midi": 36,
          "time": 21.99999999999996,
          "velocity": 0.6299212598425197,
          "duration": 0.3200000000000003
        },
        {
          "name": "C2",
          "midi": 36,
          "time": 22.39999999999996,
          "velocity": 0.6299212598425197,
          "duration": 0.3200000000000003
        },
        {
          "name": "D2",
          "midi": 38,
          "time": 22.799999999999958,
          "velocity": 0.6299212598425197,
          "duration": 0.3200000000000003
        },
        {
          "name": "C2",
          "midi": 36,
          "time": 23.199999999999957,
          "velocity": 0.6299212598425197,
          "duration": 0.16000000000000014
        },
        {
          "name": "C2",
          "midi": 36,
          "time": 23.399999999999956,
          "velocity": 0.6299212598425197,
          "duration": 0.16000000000000014
        },
        {
          "name": "D2",
          "midi": 38,
          "time": 23.599999999999955,
          "velocity": 0.6299212598425197,
          "duration": 0.3200000000000003
        },
        {
          "name": "C2",
          "midi": 36,
          "time": 23.999999999999954,
          "velocity": 0.6299212598425197,
          "duration": 0.3200000000000003
        },
        {
          "name": "D2",
          "midi": 38,
          "time": 24.399999999999952,
          "velocity": 0.6299212598425197,
          "duration": 0.3200000000000003
        },
        {
          "name": "C2",
          "midi": 36,
          "time": 24.79999999999995,
          "velocity": 0.6299212598425197,
          "duration": 0.23999999999999844
        },
        {
          "name": "C2",
          "midi": 36,
          "time": 25.099999999999948,
          "velocity": 0.6299212598425197,
          "duration": 0.09499999999999886
        },
        {
          "name": "D2",
          "midi": 38,
          "time": 25.199999999999946,
          "velocity": 0.6299212598425197,
          "duration": 0.18833333333333258
        },
        {
          "name": "C2",
          "midi": 36,
          "time": 25.399999999999945,
          "velocity": 0.6299212598425197,
          "duration": 0.16000000000000014
        },
        {
          "name": "C2",
          "midi": 36,
          "time": 25.599999999999945,
          "velocity": 0.6299212598425197,
          "duration": 0.3200000000000003
        },
        {
          "name": "D2",
          "midi": 38,
          "time": 25.999999999999943,
          "velocity": 0.6299212598425197,
          "duration": 0.3200000000000003
        },
        {
          "name": "C2",
          "midi": 36,
          "time": 26.39999999999994,
          "velocity": 0.6299212598425197,
          "duration": 0.16000000000000014
        },
        {
          "name": "C2",
          "midi": 36,
          "time": 26.59999999999994,
          "velocity": 0.6299212598425197,
          "duration": 0.16000000000000014
        },
        {
          "name": "D2",
          "midi": 38,
          "time": 26.79999999999994,
          "velocity": 0.6299212598425197,
          "duration": 0.3200000000000003
        },
        {
          "name": "C2",
          "midi": 36,
          "time": 27.19999999999994,
          "velocity": 0.6299212598425197,
          "duration": 0.3200000000000003
        },
        {
          "name": "D2",
          "midi": 38,
          "time": 27.599999999999937,
          "velocity": 0.6299212598425197,
          "duration": 0.3200000000000003
        },
        {
          "name": "C2",
          "midi": 36,
          "time": 27.999999999999936,
          "velocity": 0.6299212598425197,
          "duration": 0.23999999999999844
        },
        {
          "name": "C2",
          "midi": 36,
          "time": 28.299999999999933,
          "velocity": 0.6299212598425197,
          "duration": 0.09499999999999886
        },
        {
          "name": "D2",
          "midi": 38,
          "time": 28.39999999999993,
          "velocity": 0.6299212598425197,
          "duration": 0.18833333333333258
        },
        {
          "name": "C2",
          "midi": 36,
          "time": 28.59999999999993,
          "velocity": 0.6299212598425197,
          "duration": 0.16000000000000014
        },
        {
          "name": "C2",
          "midi": 36,
          "time": 28.79999999999993,
          "velocity": 0.6299212598425197,
          "duration": 0.3200000000000003
        },
        {
          "name": "C2",
          "midi": 36,
          "time": 29.19999999999993,
          "velocity": 0.6299212598425197,
          "duration": 0.3200000000000003
        },
        {
          "name": "C2",
          "midi": 36,
          "time": 29.599999999999927,
          "velocity": 0.6299212598425197,
          "duration": 0.3200000000000003
        },
        {
          "name": "C2",
          "midi": 36,
          "time": 29.999999999999925,
          "velocity": 0.6299212598425197,
          "duration": 0.3200000000000003
        },
        {
          "name": "D2",
          "midi": 38,
          "time": 30.399999999999924,
          "velocity": 0.6299212598425197,
          "duration": 0.3200000000000003
        },
        {
          "name": "C2",
          "midi": 36,
          "time": 30.799999999999923,
          "velocity": 0.6299212598425197,
          "duration": 0.3200000000000003
        },
        {
          "name": "D2",
          "midi": 38,
          "time": 31.19999999999992,
          "velocity": 0.6299212598425197,
          "duration": 0.09499999999999886
        },
        {
          "name": "C2",
          "midi": 36,
          "time": 31.29999999999992,
          "velocity": 0.6299212598425197,
          "duration": 0.09499999999999886
        },
        {
          "name": "C2",
          "midi": 36,
          "time": 31.49999999999992,
          "velocity": 0.6299212598425197,
          "duration": 0.0799999999999983
        },
        {
          "name": "D2",
          "midi": 38,
          "time": 31.599999999999916,
          "velocity": 0.6299212598425197,
          "duration": 0.0799999999999983
        },
        {
          "name": "C2",
          "midi": 36,
          "time": 31.699999999999914,
          "velocity": 0.6299212598425197,
          "duration": 0.0799999999999983
        },
        {
          "name": "C2",
          "midi": 36,
          "time": 31.899999999999913,
          "velocity": 0.6299212598425197,
          "duration": 0.0799999999999983
        },
        {
          "name": "C2",
          "midi": 36,
          "time": 31.99999999999991,
          "velocity": 0.6299212598425197,
          "duration": 0.31999999999999673
        },
        {
          "name": "D2",
          "midi": 38,
          "time": 32.399999999999906,
          "velocity": 0.6299212598425197,
          "duration": 0.3200000000000003
        },
        {
          "name": "C2",
          "midi": 36,
          "time": 32.799999999999905,
          "velocity": 0.6299212598425197,
          "duration": 0.1599999999999966
        },
        {
          "name": "C2",
          "midi": 36,
          "time": 32.9999999999999,
          "velocity": 0.6299212598425197,
          "duration": 0.1599999999999966
        },
        {
          "name": "D2",
          "midi": 38,
          "time": 33.199999999999896,
          "velocity": 0.6299212598425197,
          "duration": 0.3200000000000003
        },
        {
          "name": "C2",
          "midi": 36,
          "time": 33.599999999999895,
          "velocity": 0.6299212598425197,
          "duration": 0.3200000000000003
        },
        {
          "name": "D2",
          "midi": 38,
          "time": 33.99999999999989,
          "velocity": 0.6299212598425197,
          "duration": 0.3200000000000003
        },
        {
          "name": "C2",
          "midi": 36,
          "time": 34.39999999999989,
          "velocity": 0.6299212598425197,
          "duration": 0.240000000000002
        },
        {
          "name": "C2",
          "midi": 36,
          "time": 34.699999999999896,
          "velocity": 0.6299212598425197,
          "duration": 0.09499999999999886
        },
        {
          "name": "D2",
          "midi": 38,
          "time": 34.7999999999999,
          "velocity": 0.6299212598425197,
          "duration": 0.18833333333333258
        },
        {
          "name": "C2",
          "midi": 36,
          "time": 34.99999999999989,
          "velocity": 0.6299212598425197,
          "duration": 0.1599999999999966
        },
        {
          "name": "C2",
          "midi": 36,
          "time": 35.19999999999989,
          "velocity": 0.6299212598425197,
          "duration": 0.3200000000000003
        },
        {
          "name": "D2",
          "midi": 38,
          "time": 35.59999999999989,
          "velocity": 0.6299212598425197,
          "duration": 0.3200000000000003
        },
        {
          "name": "C2",
          "midi": 36,
          "time": 35.999999999999886,
          "velocity": 0.6299212598425197,
          "duration": 0.1599999999999966
        },
        {
          "name": "C2",
          "midi": 36,
          "time": 36.19999999999988,
          "velocity": 0.6299212598425197,
          "duration": 0.1599999999999966
        },
        {
          "name": "D2",
          "midi": 38,
          "time": 36.39999999999988,
          "velocity": 0.6299212598425197,
          "duration": 0.3200000000000003
        },
        {
          "name": "C2",
          "midi": 36,
          "time": 36.799999999999876,
          "velocity": 0.6299212598425197,
          "duration": 0.3200000000000003
        },
        {
          "name": "D2",
          "midi": 38,
          "time": 37.199999999999875,
          "velocity": 0.6299212598425197,
          "duration": 0.3200000000000003
        },
        {
          "name": "C2",
          "midi": 36,
          "time": 37.59999999999987,
          "velocity": 0.6299212598425197,
          "duration": 0.240000000000002
        },
        {
          "name": "C2",
          "midi": 36,
          "time": 37.89999999999988,
          "velocity": 0.6299212598425197,
          "duration": 0.09499999999999886
        },
        {
          "name": "D2",
          "midi": 38,
          "time": 37.99999999999988,
          "velocity": 0.6299212598425197,
          "duration": 0.18833333333333258
        },
        {
          "name": "C2",
          "midi": 36,
          "time": 38.199999999999875,
          "velocity": 0.6299212598425197,
          "duration": 0.1599999999999966
        },
        {
          "name": "C2",
          "midi": 36,
          "time": 38.39999999999987,
          "velocity": 0.6299212598425197,
          "duration": 0.3200000000000003
        },
        {
          "name": "D2",
          "midi": 38,
          "time": 38.79999999999987,
          "velocity": 0.6299212598425197,
          "duration": 0.3200000000000003
        },
        {
          "name": "C2",
          "midi": 36,
          "time": 39.19999999999987,
          "velocity": 0.6299212598425197,
          "duration": 0.1599999999999966
        },
        {
          "name": "C2",
          "midi": 36,
          "time": 39.399999999999864,
          "velocity": 0.6299212598425197,
          "duration": 0.1599999999999966
        },
        {
          "name": "D2",
          "midi": 38,
          "time": 39.59999999999986,
          "velocity": 0.6299212598425197,
          "duration": 0.3200000000000003
        },
        {
          "name": "C2",
          "midi": 36,
          "time": 39.99999999999986,
          "velocity": 0.6299212598425197,
          "duration": 0.3200000000000003
        },
        {
          "name": "D2",
          "midi": 38,
          "time": 40.39999999999986,
          "velocity": 0.6299212598425197,
          "duration": 0.3200000000000003
        },
        {
          "name": "C2",
          "midi": 36,
          "time": 40.799999999999855,
          "velocity": 0.6299212598425197,
          "duration": 0.240000000000002
        },
        {
          "name": "C2",
          "midi": 36,
          "time": 41.09999999999986,
          "velocity": 0.6299212598425197,
          "duration": 0.09499999999999886
        },
        {
          "name": "D2",
          "midi": 38,
          "time": 41.19999999999986,
          "velocity": 0.6299212598425197,
          "duration": 0.18833333333333258
        },
        {
          "name": "C2",
          "midi": 36,
          "time": 41.39999999999986,
          "velocity": 0.6299212598425197,
          "duration": 0.1599999999999966
        },
        {
          "name": "C2",
          "midi": 36,
          "time": 41.59999999999985,
          "velocity": 0.6299212598425197,
          "duration": 0.3200000000000003
        },
        {
          "name": "D2",
          "midi": 38,
          "time": 41.99999999999985,
          "velocity": 0.6299212598425197,
          "duration": 0.3200000000000003
        },
        {
          "name": "C2",
          "midi": 36,
          "time": 42.39999999999985,
          "velocity": 0.6299212598425197,
          "duration": 0.1599999999999966
        },
        {
          "name": "C2",
          "midi": 36,
          "time": 42.599999999999845,
          "velocity": 0.6299212598425197,
          "duration": 0.1599999999999966
        },
        {
          "name": "D2",
          "midi": 38,
          "time": 42.79999999999984,
          "velocity": 0.6299212598425197,
          "duration": 0.3200000000000003
        },
        {
          "name": "C2",
          "midi": 36,
          "time": 43.19999999999984,
          "velocity": 0.6299212598425197,
          "duration": 0.3200000000000003
        },
        {
          "name": "D2",
          "midi": 38,
          "time": 43.59999999999984,
          "velocity": 0.6299212598425197,
          "duration": 0.3200000000000003
        },
        {
          "name": "C2",
          "midi": 36,
          "time": 43.99999999999984,
          "velocity": 0.6299212598425197,
          "duration": 0.240000000000002
        },
        {
          "name": "C2",
          "midi": 36,
          "time": 44.29999999999984,
          "velocity": 0.6299212598425197,
          "duration": 0.09499999999999886
        },
        {
          "name": "D2",
          "midi": 38,
          "time": 44.39999999999984,
          "velocity": 0.6299212598425197,
          "duration": 0.18833333333333258
        },
        {
          "name": "C2",
          "midi": 36,
          "time": 44.59999999999984,
          "velocity": 0.6299212598425197,
          "duration": 0.1599999999999966
        },
        {
          "name": "C2",
          "midi": 36,
          "time": 44.799999999999834,
          "velocity": 0.6299212598425197,
          "duration": 0.3200000000000003
        },
        {
          "name": "D2",
          "midi": 38,
          "time": 45.19999999999983,
          "velocity": 0.6299212598425197,
          "duration": 0.3200000000000003
        },
        {
          "name": "C2",
          "midi": 36,
          "time": 45.59999999999983,
          "velocity": 0.6299212598425197,
          "duration": 0.1599999999999966
        },
        {
          "name": "C2",
          "midi": 36,
          "time": 45.79999999999983,
          "velocity": 0.6299212598425197,
          "duration": 0.1599999999999966
        },
        {
          "name": "D2",
          "midi": 38,
          "time": 45.99999999999982,
          "velocity": 0.6299212598425197,
          "duration": 0.3200000000000003
        },
        {
          "name": "D2",
          "midi": 38,
          "time": 46.39999999999982,
          "velocity": 0.6299212598425197,
          "duration": 0.1599999999999966
        },
        {
          "name": "C2",
          "midi": 36,
          "time": 46.59999999999982,
          "velocity": 0.6299212598425197,
          "duration": 0.1599999999999966
        },
        {
          "name": "D2",
          "midi": 38,
          "time": 46.79999999999981,
          "velocity": 0.6299212598425197,
          "duration": 0.1599999999999966
        },
        {
          "name": "C2",
          "midi": 36,
          "time": 46.99999999999981,
          "velocity": 0.6299212598425197,
          "duration": 0.1599999999999966
        },
        {
          "name": "D2",
          "midi": 38,
          "time": 47.199999999999804,
          "velocity": 0.6299212598425197,
          "duration": 0.1599999999999966
        },
        {
          "name": "D2",
          "midi": 38,
          "time": 47.5999999999998,
          "velocity": 0.6299212598425197,
          "duration": 0.1599999999999966
        },
        {
          "name": "C2",
          "midi": 36,
          "time": 47.9999999999998,
          "velocity": 0.6299212598425197,
          "duration": 0.3200000000000003
        },
        {
          "name": "C2",
          "midi": 36,
          "time": 48.3999999999998,
          "velocity": 0.6299212598425197,
          "duration": 0.3200000000000003
        },
        {
          "name": "C2",
          "midi": 36,
          "time": 48.7999999999998,
          "velocity": 0.6299212598425197,
          "duration": 0.3200000000000003
        },
        {
          "name": "C2",
          "midi": 36,
          "time": 49.1999999999998,
          "velocity": 0.6299212598425197,
          "duration": 0.3200000000000003
        },
        {
          "name": "D2",
          "midi": 38,
          "time": 49.599999999999795,
          "velocity": 0.6299212598425197,
          "duration": 0.3200000000000003
        },
        {
          "name": "C2",
          "midi": 36,
          "time": 49.999999999999794,
          "velocity": 0.6299212598425197,
          "duration": 0.3200000000000003
        },
        {
          "name": "D3",
          "midi": 50,
          "time": 50.39999999999979,
          "velocity": 0.6299212598425197,
          "duration": 0.0799999999999983
        },
        {
          "name": "C3",
          "midi": 48,
          "time": 50.499999999999794,
          "velocity": 0.6299212598425197,
          "duration": 0.0799999999999983
        },
        {
          "name": "B2",
          "midi": 47,
          "time": 50.599999999999795,
          "velocity": 0.6299212598425197,
          "duration": 0.0799999999999983
        },
        {
          "name": "A2",
          "midi": 45,
          "time": 50.6999999999998,
          "velocity": 0.6299212598425197,
          "duration": 0.0799999999999983
        },
        {
          "name": "D3",
          "midi": 50,
          "time": 50.7999999999998,
          "velocity": 0.6299212598425197,
          "duration": 0.0799999999999983
        },
        {
          "name": "C3",
          "midi": 48,
          "time": 50.8999999999998,
          "velocity": 0.6299212598425197,
          "duration": 0.0799999999999983
        },
        {
          "name": "B2",
          "midi": 47,
          "time": 50.9999999999998,
          "velocity": 0.6299212598425197,
          "duration": 0.0799999999999983
        },
        {
          "name": "A2",
          "midi": 45,
          "time": 51.0999999999998,
          "velocity": 0.6299212598425197,
          "duration": 0.0799999999999983
        },
        {
          "name": "C2",
          "midi": 36,
          "time": 51.199999999999804,
          "velocity": 0.6299212598425197,
          "duration": 0.3200000000000003
        },
        {
          "name": "D2",
          "midi": 38,
          "time": 51.5999999999998,
          "velocity": 0.6299212598425197,
          "duration": 0.3200000000000003
        },
        {
          "name": "C2",
          "midi": 36,
          "time": 51.9999999999998,
          "velocity": 0.6299212598425197,
          "duration": 0.1599999999999966
        },
        {
          "name": "C2",
          "midi": 36,
          "time": 52.1999999999998,
          "velocity": 0.6299212598425197,
          "duration": 0.1599999999999966
        },
        {
          "name": "D2",
          "midi": 38,
          "time": 52.39999999999979,
          "velocity": 0.6299212598425197,
          "duration": 0.3200000000000003
        },
        {
          "name": "C2",
          "midi": 36,
          "time": 52.79999999999979,
          "velocity": 0.6299212598425197,
          "duration": 0.3200000000000003
        },
        {
          "name": "D2",
          "midi": 38,
          "time": 53.19999999999979,
          "velocity": 0.6299212598425197,
          "duration": 0.3200000000000003
        },
        {
          "name": "C2",
          "midi": 36,
          "time": 53.59999999999979,
          "velocity": 0.6299212598425197,
          "duration": 0.240000000000002
        },
        {
          "name": "C2",
          "midi": 36,
          "time": 53.89999999999979,
          "velocity": 0.6299212598425197,
          "duration": 0.09499999999999886
        },
        {
          "name": "D2",
          "midi": 38,
          "time": 53.999999999999794,
          "velocity": 0.6299212598425197,
          "duration": 0.18833333333333258
        },
        {
          "name": "C2",
          "midi": 36,
          "time": 54.19999999999979,
          "velocity": 0.6299212598425197,
          "duration": 0.1599999999999966
        },
        {
          "name": "C2",
          "midi": 36,
          "time": 54.399999999999785,
          "velocity": 0.6299212598425197,
          "duration": 0.3200000000000003
        },
        {
          "name": "D2",
          "midi": 38,
          "time": 54.799999999999784,
          "velocity": 0.6299212598425197,
          "duration": 0.3200000000000003
        },
        {
          "name": "C2",
          "midi": 36,
          "time": 55.19999999999978,
          "velocity": 0.6299212598425197,
          "duration": 0.1599999999999966
        },
        {
          "name": "C2",
          "midi": 36,
          "time": 55.39999999999978,
          "velocity": 0.6299212598425197,
          "duration": 0.1599999999999966
        },
        {
          "name": "D2",
          "midi": 38,
          "time": 55.599999999999774,
          "velocity": 0.6299212598425197,
          "duration": 0.3200000000000003
        },
        {
          "name": "C2",
          "midi": 36,
          "time": 55.99999999999977,
          "velocity": 0.6299212598425197,
          "duration": 0.3200000000000003
        },
        {
          "name": "D2",
          "midi": 38,
          "time": 56.39999999999977,
          "velocity": 0.6299212598425197,
          "duration": 0.3200000000000003
        },
        {
          "name": "C2",
          "midi": 36,
          "time": 56.79999999999977,
          "velocity": 0.6299212598425197,
          "duration": 0.240000000000002
        },
        {
          "name": "C2",
          "midi": 36,
          "time": 57.099999999999774,
          "velocity": 0.6299212598425197,
          "duration": 0.09499999999999886
        },
        {
          "name": "D2",
          "midi": 38,
          "time": 57.199999999999775,
          "velocity": 0.6299212598425197,
          "duration": 0.18833333333333258
        },
        {
          "name": "C2",
          "midi": 36,
          "time": 57.39999999999977,
          "velocity": 0.6299212598425197,
          "duration": 0.1599999999999966
        },
        {
          "name": "C2",
          "midi": 36,
          "time": 57.59999999999977,
          "velocity": 0.6299212598425197,
          "duration": 0.3200000000000003
        },
        {
          "name": "D2",
          "midi": 38,
          "time": 57.999999999999766,
          "velocity": 0.6299212598425197,
          "duration": 0.3200000000000003
        },
        {
          "name": "C2",
          "midi": 36,
          "time": 58.399999999999764,
          "velocity": 0.6299212598425197,
          "duration": 0.1599999999999966
        },
        {
          "name": "C2",
          "midi": 36,
          "time": 58.59999999999976,
          "velocity": 0.6299212598425197,
          "duration": 0.1599999999999966
        },
        {
          "name": "D2",
          "midi": 38,
          "time": 58.799999999999756,
          "velocity": 0.6299212598425197,
          "duration": 0.3200000000000003
        },
        {
          "name": "C2",
          "midi": 36,
          "time": 59.199999999999754,
          "velocity": 0.6299212598425197,
          "duration": 0.3200000000000003
        },
        {
          "name": "D2",
          "midi": 38,
          "time": 59.59999999999975,
          "velocity": 0.6299212598425197,
          "duration": 0.3200000000000003
        },
        {
          "name": "C2",
          "midi": 36,
          "time": 59.99999999999975,
          "velocity": 0.6299212598425197,
          "duration": 0.240000000000002
        },
        {
          "name": "C2",
          "midi": 36,
          "time": 60.299999999999756,
          "velocity": 0.6299212598425197,
          "duration": 0.09499999999999886
        },
        {
          "name": "D2",
          "midi": 38,
          "time": 60.39999999999976,
          "velocity": 0.6299212598425197,
          "duration": 0.18833333333333258
        },
        {
          "name": "C2",
          "midi": 36,
          "time": 60.59999999999975,
          "velocity": 0.6299212598425197,
          "duration": 0.1599999999999966
        },
        {
          "name": "C2",
          "midi": 36,
          "time": 60.79999999999975,
          "velocity": 0.6299212598425197,
          "duration": 0.3200000000000003
        },
        {
          "name": "D2",
          "midi": 38,
          "time": 61.19999999999975,
          "velocity": 0.6299212598425197,
          "duration": 0.3200000000000003
        },
        {
          "name": "C2",
          "midi": 36,
          "time": 61.599999999999746,
          "velocity": 0.6299212598425197,
          "duration": 0.1599999999999966
        },
        {
          "name": "C2",
          "midi": 36,
          "time": 61.79999999999974,
          "velocity": 0.6299212598425197,
          "duration": 0.1599999999999966
        },
        {
          "name": "D2",
          "midi": 38,
          "time": 61.99999999999974,
          "velocity": 0.6299212598425197,
          "duration": 0.3200000000000003
        },
        {
          "name": "C2",
          "midi": 36,
          "time": 62.399999999999736,
          "velocity": 0.6299212598425197,
          "duration": 0.3200000000000003
        },
        {
          "name": "D2",
          "midi": 38,
          "time": 62.799999999999734,
          "velocity": 0.6299212598425197,
          "duration": 0.3200000000000003
        },
        {
          "name": "C2",
          "midi": 36,
          "time": 63.19999999999973,
          "velocity": 0.6299212598425197,
          "duration": 0.240000000000002
        },
        {
          "name": "C2",
          "midi": 36,
          "time": 63.49999999999974,
          "velocity": 0.6299212598425197,
          "duration": 0.09499999999999886
        },
        {
          "name": "D2",
          "midi": 38,
          "time": 63.59999999999974,
          "velocity": 0.6299212598425197,
          "duration": 0.18833333333333258
        },
        {
          "name": "C2",
          "midi": 36,
          "time": 63.799999999999734,
          "velocity": 0.6299212598425197,
          "duration": 0.1599999999999966
        },
        {
          "name": "D2",
          "midi": 38,
          "time": 63.99999999999973,
          "velocity": 0.6299212598425197,
          "duration": 0.1599999999999966
        },
        {
          "name": "C2",
          "midi": 36,
          "time": 64.19999999999973,
          "velocity": 0.6299212598425197,
          "duration": 0.23999999999999488
        },
        {
          "name": "C2",
          "midi": 36,
          "time": 64.49999999999973,
          "velocity": 0.6299212598425197,
          "duration": 0.23999999999999488
        },
        {
          "name": "D2",
          "midi": 38,
          "time": 64.79999999999973,
          "velocity": 0.6299212598425197,
          "duration": 0.1599999999999966
        },
        {
          "name": "C2",
          "midi": 36,
          "time": 64.99999999999973,
          "velocity": 0.6299212598425197,
          "duration": 0.1599999999999966
        },
        {
          "name": "C2",
          "midi": 36,
          "time": 65.39999999999972,
          "velocity": 0.6299212598425197,
          "duration": 0.1599999999999966
        },
        {
          "name": "D2",
          "midi": 38,
          "time": 65.59999999999972,
          "velocity": 0.6299212598425197,
          "duration": 0.1599999999999966
        },
        {
          "name": "C2",
          "midi": 36,
          "time": 65.79999999999973,
          "velocity": 0.6299212598425197,
          "duration": 0.23999999999999488
        },
        {
          "name": "C2",
          "midi": 36,
          "time": 66.09999999999972,
          "velocity": 0.6299212598425197,
          "duration": 0.23999999999999488
        },
        {
          "name": "D2",
          "midi": 38,
          "time": 66.39999999999972,
          "velocity": 0.6299212598425197,
          "duration": 0.1599999999999966
        },
        {
          "name": "C2",
          "midi": 36,
          "time": 66.59999999999972,
          "velocity": 0.6299212598425197,
          "duration": 0.1599999999999966
        },
        {
          "name": "D3",
          "midi": 50,
          "time": 66.79999999999973,
          "velocity": 0.6299212598425197,
          "duration": 0.0799999999999983
        },
        {
          "name": "C3",
          "midi": 48,
          "time": 66.89999999999972,
          "velocity": 0.6299212598425197,
          "duration": 0.0799999999999983
        },
        {
          "name": "B2",
          "midi": 47,
          "time": 66.99999999999972,
          "velocity": 0.6299212598425197,
          "duration": 0.0799999999999983
        },
        {
          "name": "A2",
          "midi": 45,
          "time": 67.09999999999971,
          "velocity": 0.6299212598425197,
          "duration": 0.0799999999999983
        },
        {
          "name": "D2",
          "midi": 38,
          "time": 67.1999999999997,
          "velocity": 0.6299212598425197,
          "duration": 0.1599999999999966
        },
        {
          "name": "C2",
          "midi": 36,
          "time": 67.39999999999971,
          "velocity": 0.6299212598425197,
          "duration": 0.23999999999999488
        },
        {
          "name": "C2",
          "midi": 36,
          "time": 67.6999999999997,
          "velocity": 0.6299212598425197,
          "duration": 0.23999999999999488
        },
        {
          "name": "D2",
          "midi": 38,
          "time": 67.9999999999997,
          "velocity": 0.6299212598425197,
          "duration": 0.1599999999999966
        },
        {
          "name": "C2",
          "midi": 36,
          "time": 68.1999999999997,
          "velocity": 0.6299212598425197,
          "duration": 0.1599999999999966
        },
        {
          "name": "C2",
          "midi": 36,
          "time": 68.5999999999997,
          "velocity": 0.6299212598425197,
          "duration": 0.1599999999999966
        },
        {
          "name": "D2",
          "midi": 38,
          "time": 68.7999999999997,
          "velocity": 0.6299212598425197,
          "duration": 0.1599999999999966
        },
        {
          "name": "C2",
          "midi": 36,
          "time": 68.9999999999997,
          "velocity": 0.6299212598425197,
          "duration": 0.23999999999999488
        },
        {
          "name": "C2",
          "midi": 36,
          "time": 69.2999999999997,
          "velocity": 0.6299212598425197,
          "duration": 0.23999999999999488
        },
        {
          "name": "D2",
          "midi": 38,
          "time": 69.5999999999997,
          "velocity": 0.6299212598425197,
          "duration": 0.1599999999999966
        },
        {
          "name": "C2",
          "midi": 36,
          "time": 69.7999999999997,
          "velocity": 0.6299212598425197,
          "duration": 0.1599999999999966
        },
        {
          "name": "D3",
          "midi": 50,
          "time": 69.9999999999997,
          "velocity": 0.6299212598425197,
          "duration": 0.0799999999999983
        },
        {
          "name": "C3",
          "midi": 48,
          "time": 70.0999999999997,
          "velocity": 0.6299212598425197,
          "duration": 0.0799999999999983
        },
        {
          "name": "B2",
          "midi": 47,
          "time": 70.19999999999969,
          "velocity": 0.6299212598425197,
          "duration": 0.0799999999999983
        },
        {
          "name": "A2",
          "midi": 45,
          "time": 70.29999999999968,
          "velocity": 0.6299212598425197,
          "duration": 0.0799999999999983
        },
        {
          "name": "C2",
          "midi": 36,
          "time": 70.39999999999968,
          "velocity": 0.6299212598425197,
          "duration": 0.3199999999999932
        },
        {
          "name": "C2",
          "midi": 36,
          "time": 70.79999999999967,
          "velocity": 0.6299212598425197,
          "duration": 0.3199999999999932
        },
        {
          "name": "C2",
          "midi": 36,
          "time": 71.19999999999966,
          "velocity": 0.6299212598425197,
          "duration": 0.3199999999999932
        },
        {
          "name": "C2",
          "midi": 36,
          "time": 71.59999999999965,
          "velocity": 0.6299212598425197,
          "duration": 0.3199999999999932
        },
        {
          "name": "C2",
          "midi": 36,
          "time": 71.99999999999964,
          "velocity": 0.6299212598425197,
          "duration": 0.3199999999999932
        },
        {
          "name": "D2",
          "midi": 38,
          "time": 72.39999999999964,
          "velocity": 0.6299212598425197,
          "duration": 0.3199999999999932
        },
        {
          "name": "C2",
          "midi": 36,
          "time": 72.79999999999963,
          "velocity": 0.6299212598425197,
          "duration": 0.1599999999999966
        },
        {
          "name": "C2",
          "midi": 36,
          "time": 72.99999999999963,
          "velocity": 0.6299212598425197,
          "duration": 0.1599999999999966
        },
        {
          "name": "D2",
          "midi": 38,
          "time": 73.19999999999963,
          "velocity": 0.6299212598425197,
          "duration": 0.3199999999999932
        },
        {
          "name": "C2",
          "midi": 36,
          "time": 73.59999999999962,
          "velocity": 0.6299212598425197,
          "duration": 0.3199999999999932
        },
        {
          "name": "D2",
          "midi": 38,
          "time": 73.99999999999962,
          "velocity": 0.6299212598425197,
          "duration": 0.3199999999999932
        },
        {
          "name": "C2",
          "midi": 36,
          "time": 74.39999999999961,
          "velocity": 0.6299212598425197,
          "duration": 0.23999999999999488
        },
        {
          "name": "C2",
          "midi": 36,
          "time": 74.6999999999996,
          "velocity": 0.6299212598425197,
          "duration": 0.09499999999999886
        },
        {
          "name": "D2",
          "midi": 38,
          "time": 74.7999999999996,
          "velocity": 0.6299212598425197,
          "duration": 0.18833333333333258
        },
        {
          "name": "C2",
          "midi": 36,
          "time": 74.9999999999996,
          "velocity": 0.6299212598425197,
          "duration": 0.1599999999999966
        },
        {
          "name": "C2",
          "midi": 36,
          "time": 75.1999999999996,
          "velocity": 0.6299212598425197,
          "duration": 0.3199999999999932
        },
        {
          "name": "D2",
          "midi": 38,
          "time": 75.5999999999996,
          "velocity": 0.6299212598425197,
          "duration": 0.3199999999999932
        },
        {
          "name": "C2",
          "midi": 36,
          "time": 75.99999999999959,
          "velocity": 0.6299212598425197,
          "duration": 0.1599999999999966
        },
        {
          "name": "C2",
          "midi": 36,
          "time": 76.19999999999959,
          "velocity": 0.6299212598425197,
          "duration": 0.1599999999999966
        },
        {
          "name": "D2",
          "midi": 38,
          "time": 76.3999999999996,
          "velocity": 0.6299212598425197,
          "duration": 0.3199999999999932
        },
        {
          "name": "C2",
          "midi": 36,
          "time": 76.79999999999959,
          "velocity": 0.6299212598425197,
          "duration": 0.3199999999999932
        },
        {
          "name": "D2",
          "midi": 38,
          "time": 77.19999999999958,
          "velocity": 0.6299212598425197,
          "duration": 0.3199999999999932
        },
        {
          "name": "C2",
          "midi": 36,
          "time": 77.59999999999957,
          "velocity": 0.6299212598425197,
          "duration": 0.23999999999999488
        },
        {
          "name": "C2",
          "midi": 36,
          "time": 77.89999999999957,
          "velocity": 0.6299212598425197,
          "duration": 0.09499999999999886
        },
        {
          "name": "D2",
          "midi": 38,
          "time": 77.99999999999956,
          "velocity": 0.6299212598425197,
          "duration": 0.18833333333333258
        },
        {
          "name": "C2",
          "midi": 36,
          "time": 78.19999999999956,
          "velocity": 0.6299212598425197,
          "duration": 0.1599999999999966
        },
        {
          "name": "C2",
          "midi": 36,
          "time": 78.39999999999957,
          "velocity": 0.6299212598425197,
          "duration": 0.3199999999999932
        },
        {
          "name": "C2",
          "midi": 36,
          "time": 78.79999999999956,
          "velocity": 0.6299212598425197,
          "duration": 0.3199999999999932
        },
        {
          "name": "C2",
          "midi": 36,
          "time": 79.19999999999955,
          "velocity": 0.6299212598425197,
          "duration": 0.3199999999999932
        },
        {
          "name": "C2",
          "midi": 36,
          "time": 79.59999999999954,
          "velocity": 0.6299212598425197,
          "duration": 0.3199999999999932
        },
        {
          "name": "D2",
          "midi": 38,
          "time": 79.99999999999953,
          "velocity": 0.6299212598425197,
          "duration": 0.3199999999999932
        },
        {
          "name": "C2",
          "midi": 36,
          "time": 80.39999999999952,
          "velocity": 0.6299212598425197,
          "duration": 0.3199999999999932
        },
        {
          "name": "D2",
          "midi": 38,
          "time": 80.79999999999951,
          "velocity": 0.6299212598425197,
          "duration": 0.09499999999999886
        },
        {
          "name": "C2",
          "midi": 36,
          "time": 80.89999999999951,
          "velocity": 0.6299212598425197,
          "duration": 0.09499999999999886
        },
        {
          "name": "C2",
          "midi": 36,
          "time": 81.09999999999951,
          "velocity": 0.6299212598425197,
          "duration": 0.0799999999999983
        },
        {
          "name": "D2",
          "midi": 38,
          "time": 81.1999999999995,
          "velocity": 0.6299212598425197,
          "duration": 0.0799999999999983
        },
        {
          "name": "C2",
          "midi": 36,
          "time": 81.2999999999995,
          "velocity": 0.6299212598425197,
          "duration": 0.0799999999999983
        },
        {
          "name": "C2",
          "midi": 36,
          "time": 81.4999999999995,
          "velocity": 0.6299212598425197,
          "duration": 0.0799999999999983
        },
        {
          "name": "C2",
          "midi": 36,
          "time": 81.5999999999995,
          "velocity": 0.6299212598425197,
          "duration": 0.3199999999999932
        },
        {
          "name": "D2",
          "midi": 38,
          "time": 81.99999999999949,
          "velocity": 0.6299212598425197,
          "duration": 0.3199999999999932
        },
        {
          "name": "C2",
          "midi": 36,
          "time": 82.39999999999948,
          "velocity": 0.6299212598425197,
          "duration": 0.1599999999999966
        },
        {
          "name": "C2",
          "midi": 36,
          "time": 82.59999999999948,
          "velocity": 0.6299212598425197,
          "duration": 0.1599999999999966
        },
        {
          "name": "D2",
          "midi": 38,
          "time": 82.79999999999949,
          "velocity": 0.6299212598425197,
          "duration": 0.3199999999999932
        },
        {
          "name": "C2",
          "midi": 36,
          "time": 83.19999999999948,
          "velocity": 0.6299212598425197,
          "duration": 0.3199999999999932
        },
        {
          "name": "D2",
          "midi": 38,
          "time": 83.59999999999947,
          "velocity": 0.6299212598425197,
          "duration": 0.3199999999999932
        },
        {
          "name": "C2",
          "midi": 36,
          "time": 83.99999999999946,
          "velocity": 0.6299212598425197,
          "duration": 0.23999999999999488
        },
        {
          "name": "C2",
          "midi": 36,
          "time": 84.29999999999946,
          "velocity": 0.6299212598425197,
          "duration": 0.09499999999999886
        },
        {
          "name": "D2",
          "midi": 38,
          "time": 84.39999999999945,
          "velocity": 0.6299212598425197,
          "duration": 0.18833333333333258
        },
        {
          "name": "C2",
          "midi": 36,
          "time": 84.59999999999945,
          "velocity": 0.6299212598425197,
          "duration": 0.1599999999999966
        },
        {
          "name": "C2",
          "midi": 36,
          "time": 84.79999999999946,
          "velocity": 0.6299212598425197,
          "duration": 0.3199999999999932
        },
        {
          "name": "D2",
          "midi": 38,
          "time": 85.19999999999945,
          "velocity": 0.6299212598425197,
          "duration": 0.3199999999999932
        },
        {
          "name": "C2",
          "midi": 36,
          "time": 85.59999999999944,
          "velocity": 0.6299212598425197,
          "duration": 0.1599999999999966
        },
        {
          "name": "C2",
          "midi": 36,
          "time": 85.79999999999944,
          "velocity": 0.6299212598425197,
          "duration": 0.1599999999999966
        },
        {
          "name": "D2",
          "midi": 38,
          "time": 85.99999999999945,
          "velocity": 0.6299212598425197,
          "duration": 0.3199999999999932
        },
        {
          "name": "C2",
          "midi": 36,
          "time": 86.39999999999944,
          "velocity": 0.6299212598425197,
          "duration": 0.3199999999999932
        },
        {
          "name": "D2",
          "midi": 38,
          "time": 86.79999999999943,
          "velocity": 0.6299212598425197,
          "duration": 0.3199999999999932
        },
        {
          "name": "C2",
          "midi": 36,
          "time": 87.19999999999942,
          "velocity": 0.6299212598425197,
          "duration": 0.23999999999999488
        },
        {
          "name": "C2",
          "midi": 36,
          "time": 87.49999999999942,
          "velocity": 0.6299212598425197,
          "duration": 0.09499999999999886
        },
        {
          "name": "D2",
          "midi": 38,
          "time": 87.59999999999941,
          "velocity": 0.6299212598425197,
          "duration": 0.18833333333333258
        },
        {
          "name": "C2",
          "midi": 36,
          "time": 87.79999999999941,
          "velocity": 0.6299212598425197,
          "duration": 0.1599999999999966
        },
        {
          "name": "C2",
          "midi": 36,
          "time": 87.99999999999942,
          "velocity": 0.6299212598425197,
          "duration": 0.3199999999999932
        },
        {
          "name": "D2",
          "midi": 38,
          "time": 88.39999999999941,
          "velocity": 0.6299212598425197,
          "duration": 0.3199999999999932
        },
        {
          "name": "C2",
          "midi": 36,
          "time": 88.7999999999994,
          "velocity": 0.6299212598425197,
          "duration": 0.1599999999999966
        },
        {
          "name": "C2",
          "midi": 36,
          "time": 88.9999999999994,
          "velocity": 0.6299212598425197,
          "duration": 0.1599999999999966
        },
        {
          "name": "D2",
          "midi": 38,
          "time": 89.1999999999994,
          "velocity": 0.6299212598425197,
          "duration": 0.3199999999999932
        },
        {
          "name": "C2",
          "midi": 36,
          "time": 89.5999999999994,
          "velocity": 0.6299212598425197,
          "duration": 0.3199999999999932
        },
        {
          "name": "D2",
          "midi": 38,
          "time": 89.99999999999939,
          "velocity": 0.6299212598425197,
          "duration": 0.3199999999999932
        },
        {
          "name": "C2",
          "midi": 36,
          "time": 90.39999999999938,
          "velocity": 0.6299212598425197,
          "duration": 0.23999999999999488
        },
        {
          "name": "C2",
          "midi": 36,
          "time": 90.69999999999938,
          "velocity": 0.6299212598425197,
          "duration": 0.09499999999999886
        },
        {
          "name": "D2",
          "midi": 38,
          "time": 90.79999999999937,
          "velocity": 0.6299212598425197,
          "duration": 0.18833333333333258
        },
        {
          "name": "C2",
          "midi": 36,
          "time": 90.99999999999937,
          "velocity": 0.6299212598425197,
          "duration": 0.1599999999999966
        },
        {
          "name": "C2",
          "midi": 36,
          "time": 91.19999999999938,
          "velocity": 0.6299212598425197,
          "duration": 0.3199999999999932
        },
        {
          "name": "D2",
          "midi": 38,
          "time": 91.59999999999937,
          "velocity": 0.6299212598425197,
          "duration": 0.3199999999999932
        },
        {
          "name": "C2",
          "midi": 36,
          "time": 91.99999999999936,
          "velocity": 0.6299212598425197,
          "duration": 0.1599999999999966
        },
        {
          "name": "C2",
          "midi": 36,
          "time": 92.19999999999936,
          "velocity": 0.6299212598425197,
          "duration": 0.1599999999999966
        },
        {
          "name": "D2",
          "midi": 38,
          "time": 92.39999999999937,
          "velocity": 0.6299212598425197,
          "duration": 0.3199999999999932
        },
        {
          "name": "C2",
          "midi": 36,
          "time": 92.79999999999936,
          "velocity": 0.6299212598425197,
          "duration": 0.3199999999999932
        },
        {
          "name": "D2",
          "midi": 38,
          "time": 93.19999999999935,
          "velocity": 0.6299212598425197,
          "duration": 0.3199999999999932
        },
        {
          "name": "C2",
          "midi": 36,
          "time": 93.59999999999934,
          "velocity": 0.6299212598425197,
          "duration": 0.23999999999999488
        },
        {
          "name": "C2",
          "midi": 36,
          "time": 93.89999999999934,
          "velocity": 0.6299212598425197,
          "duration": 0.09499999999999886
        },
        {
          "name": "D2",
          "midi": 38,
          "time": 93.99999999999933,
          "velocity": 0.6299212598425197,
          "duration": 0.18833333333333258
        },
        {
          "name": "C2",
          "midi": 36,
          "time": 94.19999999999933,
          "velocity": 0.6299212598425197,
          "duration": 0.1599999999999966
        },
        {
          "name": "C2",
          "midi": 36,
          "time": 94.39999999999934,
          "velocity": 0.6299212598425197,
          "duration": 0.3199999999999932
        },
        {
          "name": "D2",
          "midi": 38,
          "time": 94.79999999999933,
          "velocity": 0.6299212598425197,
          "duration": 0.3199999999999932
        },
        {
          "name": "C2",
          "midi": 36,
          "time": 95.19999999999932,
          "velocity": 0.6299212598425197,
          "duration": 0.1599999999999966
        },
        {
          "name": "C2",
          "midi": 36,
          "time": 95.39999999999932,
          "velocity": 0.6299212598425197,
          "duration": 0.1599999999999966
        },
        {
          "name": "D2",
          "midi": 38,
          "time": 95.59999999999933,
          "velocity": 0.6299212598425197,
          "duration": 0.3199999999999932
        },
        {
          "name": "D2",
          "midi": 38,
          "time": 95.99999999999932,
          "velocity": 0.6299212598425197,
          "duration": 0.1599999999999966
        },
        {
          "name": "C2",
          "midi": 36,
          "time": 96.19999999999932,
          "velocity": 0.6299212598425197,
          "duration": 0.1599999999999966
        },
        {
          "name": "D2",
          "midi": 38,
          "time": 96.39999999999932,
          "velocity": 0.6299212598425197,
          "duration": 0.1599999999999966
        },
        {
          "name": "C2",
          "midi": 36,
          "time": 96.59999999999933,
          "velocity": 0.6299212598425197,
          "duration": 0.1599999999999966
        },
        {
          "name": "D2",
          "midi": 38,
          "time": 96.79999999999933,
          "velocity": 0.6299212598425197,
          "duration": 0.1599999999999966
        },
        {
          "name": "D2",
          "midi": 38,
          "time": 97.19999999999932,
          "velocity": 0.6299212598425197,
          "duration": 0.1599999999999966
        },
        {
          "name": "C2",
          "midi": 36,
          "time": 97.59999999999931,
          "velocity": 0.6299212598425197,
          "duration": 0.3199999999999932
        },
        {
          "name": "C2",
          "midi": 36,
          "time": 97.9999999999993,
          "velocity": 0.6299212598425197,
          "duration": 0.3199999999999932
        },
        {
          "name": "C2",
          "midi": 36,
          "time": 98.3999999999993,
          "velocity": 0.6299212598425197,
          "duration": 0.3199999999999932
        },
        {
          "name": "C2",
          "midi": 36,
          "time": 98.79999999999929,
          "velocity": 0.6299212598425197,
          "duration": 0.3199999999999932
        },
        {
          "name": "D2",
          "midi": 38,
          "time": 99.19999999999928,
          "velocity": 0.6299212598425197,
          "duration": 0.3199999999999932
        },
        {
          "name": "C2",
          "midi": 36,
          "time": 99.59999999999927,
          "velocity": 0.6299212598425197,
          "duration": 0.3199999999999932
        },
        {
          "name": "D3",
          "midi": 50,
          "time": 99.99999999999926,
          "velocity": 0.6299212598425197,
          "duration": 0.0799999999999983
        },
        {
          "name": "C3",
          "midi": 48,
          "time": 100.09999999999926,
          "velocity": 0.6299212598425197,
          "duration": 0.0799999999999983
        },
        {
          "name": "B2",
          "midi": 47,
          "time": 100.19999999999925,
          "velocity": 0.6299212598425197,
          "duration": 0.0799999999999983
        },
        {
          "name": "A2",
          "midi": 45,
          "time": 100.29999999999924,
          "velocity": 0.6299212598425197,
          "duration": 0.0799999999999983
        },
        {
          "name": "D3",
          "midi": 50,
          "time": 100.39999999999924,
          "velocity": 0.6299212598425197,
          "duration": 0.0799999999999983
        },
        {
          "name": "C3",
          "midi": 48,
          "time": 100.49999999999923,
          "velocity": 0.6299212598425197,
          "duration": 0.0799999999999983
        },
        {
          "name": "B2",
          "midi": 47,
          "time": 100.59999999999923,
          "velocity": 0.6299212598425197,
          "duration": 0.0799999999999983
        },
        {
          "name": "A2",
          "midi": 45,
          "time": 100.69999999999922,
          "velocity": 0.6299212598425197,
          "duration": 0.0799999999999983
        },
        {
          "name": "C2",
          "midi": 36,
          "time": 100.79999999999922,
          "velocity": 0.6299212598425197,
          "duration": 0.3199999999999932
        },
        {
          "name": "D2",
          "midi": 38,
          "time": 101.1999999999992,
          "velocity": 0.6299212598425197,
          "duration": 0.3199999999999932
        },
        {
          "name": "C2",
          "midi": 36,
          "time": 101.5999999999992,
          "velocity": 0.6299212598425197,
          "duration": 0.1599999999999966
        },
        {
          "name": "C2",
          "midi": 36,
          "time": 101.7999999999992,
          "velocity": 0.6299212598425197,
          "duration": 0.1599999999999966
        },
        {
          "name": "D2",
          "midi": 38,
          "time": 101.9999999999992,
          "velocity": 0.6299212598425197,
          "duration": 0.3199999999999932
        },
        {
          "name": "C2",
          "midi": 36,
          "time": 102.3999999999992,
          "velocity": 0.6299212598425197,
          "duration": 0.3199999999999932
        },
        {
          "name": "D2",
          "midi": 38,
          "time": 102.79999999999919,
          "velocity": 0.6299212598425197,
          "duration": 0.3199999999999932
        },
        {
          "name": "C2",
          "midi": 36,
          "time": 103.19999999999918,
          "velocity": 0.6299212598425197,
          "duration": 0.23999999999999488
        },
        {
          "name": "C2",
          "midi": 36,
          "time": 103.49999999999918,
          "velocity": 0.6299212598425197,
          "duration": 0.09499999999999886
        },
        {
          "name": "D2",
          "midi": 38,
          "time": 103.59999999999917,
          "velocity": 0.6299212598425197,
          "duration": 0.18833333333333258
        },
        {
          "name": "C2",
          "midi": 36,
          "time": 103.79999999999917,
          "velocity": 0.6299212598425197,
          "duration": 0.1599999999999966
        },
        {
          "name": "C2",
          "midi": 36,
          "time": 103.99999999999918,
          "velocity": 0.6299212598425197,
          "duration": 0.3199999999999932
        },
        {
          "name": "D2",
          "midi": 38,
          "time": 104.39999999999917,
          "velocity": 0.6299212598425197,
          "duration": 0.3199999999999932
        },
        {
          "name": "C2",
          "midi": 36,
          "time": 104.79999999999916,
          "velocity": 0.6299212598425197,
          "duration": 0.1599999999999966
        },
        {
          "name": "C2",
          "midi": 36,
          "time": 104.99999999999916,
          "velocity": 0.6299212598425197,
          "duration": 0.1599999999999966
        },
        {
          "name": "D2",
          "midi": 38,
          "time": 105.19999999999916,
          "velocity": 0.6299212598425197,
          "duration": 0.3199999999999932
        },
        {
          "name": "C2",
          "midi": 36,
          "time": 105.59999999999916,
          "velocity": 0.6299212598425197,
          "duration": 0.3199999999999932
        },
        {
          "name": "D2",
          "midi": 38,
          "time": 105.99999999999915,
          "velocity": 0.6299212598425197,
          "duration": 0.3199999999999932
        },
        {
          "name": "C2",
          "midi": 36,
          "time": 106.39999999999914,
          "velocity": 0.6299212598425197,
          "duration": 0.23999999999999488
        },
        {
          "name": "C2",
          "midi": 36,
          "time": 106.69999999999914,
          "velocity": 0.6299212598425197,
          "duration": 0.09499999999999886
        },
        {
          "name": "D2",
          "midi": 38,
          "time": 106.79999999999913,
          "velocity": 0.6299212598425197,
          "duration": 0.18833333333333258
        },
        {
          "name": "C2",
          "midi": 36,
          "time": 106.99999999999913,
          "velocity": 0.6299212598425197,
          "duration": 0.1599999999999966
        },
        {
          "name": "C2",
          "midi": 36,
          "time": 107.19999999999914,
          "velocity": 0.6299212598425197,
          "duration": 0.3199999999999932
        },
        {
          "name": "D2",
          "midi": 38,
          "time": 107.59999999999913,
          "velocity": 0.6299212598425197,
          "duration": 0.3199999999999932
        },
        {
          "name": "C2",
          "midi": 36,
          "time": 107.99999999999912,
          "velocity": 0.6299212598425197,
          "duration": 0.1599999999999966
        },
        {
          "name": "C2",
          "midi": 36,
          "time": 108.19999999999912,
          "velocity": 0.6299212598425197,
          "duration": 0.1599999999999966
        },
        {
          "name": "D2",
          "midi": 38,
          "time": 108.39999999999912,
          "velocity": 0.6299212598425197,
          "duration": 0.3199999999999932
        },
        {
          "name": "C2",
          "midi": 36,
          "time": 108.79999999999912,
          "velocity": 0.6299212598425197,
          "duration": 0.3199999999999932
        },
        {
          "name": "D2",
          "midi": 38,
          "time": 109.19999999999911,
          "velocity": 0.6299212598425197,
          "duration": 0.3199999999999932
        },
        {
          "name": "C2",
          "midi": 36,
          "time": 109.5999999999991,
          "velocity": 0.6299212598425197,
          "duration": 0.23999999999999488
        },
        {
          "name": "C2",
          "midi": 36,
          "time": 109.8999999999991,
          "velocity": 0.6299212598425197,
          "duration": 0.09499999999999886
        },
        {
          "name": "D2",
          "midi": 38,
          "time": 109.99999999999909,
          "velocity": 0.6299212598425197,
          "duration": 0.18833333333333258
        },
        {
          "name": "C2",
          "midi": 36,
          "time": 110.1999999999991,
          "velocity": 0.6299212598425197,
          "duration": 0.1599999999999966
        },
        {
          "name": "C2",
          "midi": 36,
          "time": 110.3999999999991,
          "velocity": 0.6299212598425197,
          "duration": 0.3199999999999932
        },
        {
          "name": "D2",
          "midi": 38,
          "time": 110.79999999999909,
          "velocity": 0.6299212598425197,
          "duration": 0.3199999999999932
        },
        {
          "name": "C2",
          "midi": 36,
          "time": 111.19999999999908,
          "velocity": 0.6299212598425197,
          "duration": 0.1599999999999966
        },
        {
          "name": "C2",
          "midi": 36,
          "time": 111.39999999999908,
          "velocity": 0.6299212598425197,
          "duration": 0.1599999999999966
        },
        {
          "name": "D2",
          "midi": 38,
          "time": 111.59999999999908,
          "velocity": 0.6299212598425197,
          "duration": 0.3199999999999932
        },
        {
          "name": "C2",
          "midi": 36,
          "time": 111.99999999999908,
          "velocity": 0.6299212598425197,
          "duration": 0.3199999999999932
        },
        {
          "name": "D2",
          "midi": 38,
          "time": 112.39999999999907,
          "velocity": 0.6299212598425197,
          "duration": 0.3199999999999932
        },
        {
          "name": "C2",
          "midi": 36,
          "time": 112.79999999999906,
          "velocity": 0.6299212598425197,
          "duration": 0.23999999999999488
        },
        {
          "name": "C2",
          "midi": 36,
          "time": 113.09999999999906,
          "velocity": 0.6299212598425197,
          "duration": 0.09499999999999886
        },
        {
          "name": "D2",
          "midi": 38,
          "time": 113.19999999999905,
          "velocity": 0.6299212598425197,
          "duration": 0.18833333333333258
        },
        {
          "name": "C2",
          "midi": 36,
          "time": 113.39999999999905,
          "velocity": 0.6299212598425197,
          "duration": 0.1599999999999966
        },
        {
          "name": "D2",
          "midi": 38,
          "time": 113.59999999999906,
          "velocity": 0.6299212598425197,
          "duration": 0.1599999999999966
        },
        {
          "name": "C2",
          "midi": 36,
          "time": 113.79999999999906,
          "velocity": 0.6299212598425197,
          "duration": 0.23999999999999488
        },
        {
          "name": "C2",
          "midi": 36,
          "time": 114.09999999999906,
          "velocity": 0.6299212598425197,
          "duration": 0.23999999999999488
        },
        {
          "name": "D2",
          "midi": 38,
          "time": 114.39999999999905,
          "velocity": 0.6299212598425197,
          "duration": 0.1599999999999966
        },
        {
          "name": "C2",
          "midi": 36,
          "time": 114.59999999999906,
          "velocity": 0.6299212598425197,
          "duration": 0.1599999999999966
        },
        {
          "name": "C2",
          "midi": 36,
          "time": 114.99999999999905,
          "velocity": 0.6299212598425197,
          "duration": 0.1599999999999966
        },
        {
          "name": "D2",
          "midi": 38,
          "time": 115.19999999999905,
          "velocity": 0.6299212598425197,
          "duration": 0.1599999999999966
        },
        {
          "name": "C2",
          "midi": 36,
          "time": 115.39999999999905,
          "velocity": 0.6299212598425197,
          "duration": 0.23999999999999488
        },
        {
          "name": "C2",
          "midi": 36,
          "time": 115.69999999999905,
          "velocity": 0.6299212598425197,
          "duration": 0.23999999999999488
        },
        {
          "name": "D2",
          "midi": 38,
          "time": 115.99999999999905,
          "velocity": 0.6299212598425197,
          "duration": 0.1599999999999966
        },
        {
          "name": "C2",
          "midi": 36,
          "time": 116.19999999999905,
          "velocity": 0.6299212598425197,
          "duration": 0.1599999999999966
        },
        {
          "name": "D3",
          "midi": 50,
          "time": 116.39999999999905,
          "velocity": 0.6299212598425197,
          "duration": 0.0799999999999983
        },
        {
          "name": "C3",
          "midi": 48,
          "time": 116.49999999999905,
          "velocity": 0.6299212598425197,
          "duration": 0.0799999999999983
        },
        {
          "name": "B2",
          "midi": 47,
          "time": 116.59999999999904,
          "velocity": 0.6299212598425197,
          "duration": 0.0799999999999983
        },
        {
          "name": "A2",
          "midi": 45,
          "time": 116.69999999999904,
          "velocity": 0.6299212598425197,
          "duration": 0.0799999999999983
        },
        {
          "name": "D2",
          "midi": 38,
          "time": 116.79999999999903,
          "velocity": 0.6299212598425197,
          "duration": 0.1599999999999966
        },
        {
          "name": "C2",
          "midi": 36,
          "time": 116.99999999999903,
          "velocity": 0.6299212598425197,
          "duration": 0.23999999999999488
        },
        {
          "name": "C2",
          "midi": 36,
          "time": 117.29999999999903,
          "velocity": 0.6299212598425197,
          "duration": 0.23999999999999488
        },
        {
          "name": "D2",
          "midi": 38,
          "time": 117.59999999999903,
          "velocity": 0.6299212598425197,
          "duration": 0.1599999999999966
        },
        {
          "name": "C2",
          "midi": 36,
          "time": 117.79999999999903,
          "velocity": 0.6299212598425197,
          "duration": 0.1599999999999966
        },
        {
          "name": "C2",
          "midi": 36,
          "time": 118.19999999999902,
          "velocity": 0.6299212598425197,
          "duration": 0.1599999999999966
        },
        {
          "name": "D2",
          "midi": 38,
          "time": 118.39999999999903,
          "velocity": 0.6299212598425197,
          "duration": 0.1599999999999966
        },
        {
          "name": "C2",
          "midi": 36,
          "time": 118.59999999999903,
          "velocity": 0.6299212598425197,
          "duration": 0.23999999999999488
        },
        {
          "name": "C2",
          "midi": 36,
          "time": 118.89999999999903,
          "velocity": 0.6299212598425197,
          "duration": 0.23999999999999488
        },
        {
          "name": "D2",
          "midi": 38,
          "time": 119.19999999999902,
          "velocity": 0.6299212598425197,
          "duration": 0.1599999999999966
        },
        {
          "name": "C2",
          "midi": 36,
          "time": 119.39999999999903,
          "velocity": 0.6299212598425197,
          "duration": 0.1599999999999966
        },
        {
          "name": "D3",
          "midi": 50,
          "time": 119.59999999999903,
          "velocity": 0.6299212598425197,
          "duration": 0.0799999999999983
        },
        {
          "name": "C3",
          "midi": 48,
          "time": 119.69999999999902,
          "velocity": 0.6299212598425197,
          "duration": 0.0799999999999983
        },
        {
          "name": "B2",
          "midi": 47,
          "time": 119.79999999999902,
          "velocity": 0.6299212598425197,
          "duration": 0.0799999999999983
        },
        {
          "name": "A2",
          "midi": 45,
          "time": 119.89999999999901,
          "velocity": 0.6299212598425197,
          "duration": 0.0799999999999983
        },
        {
          "name": "C2",
          "midi": 36,
          "time": 119.999999999999,
          "velocity": 0.6299212598425197,
          "duration": 0.3199999999999932
        },
        {
          "name": "C2",
          "midi": 36,
          "time": 120.399999999999,
          "velocity": 0.6299212598425197,
          "duration": 0.3199999999999932
        },
        {
          "name": "C2",
          "midi": 36,
          "time": 120.79999999999899,
          "velocity": 0.6299212598425197,
          "duration": 0.3199999999999932
        },
        {
          "name": "C2",
          "midi": 36,
          "time": 121.19999999999898,
          "velocity": 0.6299212598425197,
          "duration": 0.3199999999999932
        },
        {
          "name": "C2",
          "midi": 36,
          "time": 121.59999999999897,
          "velocity": 0.6299212598425197,
          "duration": 0.3199999999999932
        },
        {
          "name": "D2",
          "midi": 38,
          "time": 121.99999999999896,
          "velocity": 0.6299212598425197,
          "duration": 0.3199999999999932
        },
        {
          "name": "C2",
          "midi": 36,
          "time": 122.39999999999895,
          "velocity": 0.6299212598425197,
          "duration": 0.1599999999999966
        },
        {
          "name": "C2",
          "midi": 36,
          "time": 122.59999999999896,
          "velocity": 0.6299212598425197,
          "duration": 0.1599999999999966
        },
        {
          "name": "D2",
          "midi": 38,
          "time": 122.79999999999896,
          "velocity": 0.6299212598425197,
          "duration": 0.3199999999999932
        },
        {
          "name": "C2",
          "midi": 36,
          "time": 123.19999999999895,
          "velocity": 0.6299212598425197,
          "duration": 0.3199999999999932
        },
        {
          "name": "D2",
          "midi": 38,
          "time": 123.59999999999894,
          "velocity": 0.6299212598425197,
          "duration": 0.3199999999999932
        },
        {
          "name": "C2",
          "midi": 36,
          "time": 123.99999999999893,
          "velocity": 0.6299212598425197,
          "duration": 0.23999999999999488
        },
        {
          "name": "C2",
          "midi": 36,
          "time": 124.29999999999893,
          "velocity": 0.6299212598425197,
          "duration": 0.09499999999999886
        },
        {
          "name": "D2",
          "midi": 38,
          "time": 124.39999999999893,
          "velocity": 0.6299212598425197,
          "duration": 0.18833333333333258
        },
        {
          "name": "C2",
          "midi": 36,
          "time": 124.59999999999893,
          "velocity": 0.6299212598425197,
          "duration": 0.1599999999999966
        },
        {
          "name": "C2",
          "midi": 36,
          "time": 124.79999999999893,
          "velocity": 0.6299212598425197,
          "duration": 0.3199999999999932
        },
        {
          "name": "D2",
          "midi": 38,
          "time": 125.19999999999892,
          "velocity": 0.6299212598425197,
          "duration": 0.3199999999999932
        },
        {
          "name": "C2",
          "midi": 36,
          "time": 125.59999999999891,
          "velocity": 0.6299212598425197,
          "duration": 0.1599999999999966
        },
        {
          "name": "C2",
          "midi": 36,
          "time": 125.79999999999892,
          "velocity": 0.6299212598425197,
          "duration": 0.1599999999999966
        },
        {
          "name": "D2",
          "midi": 38,
          "time": 125.99999999999892,
          "velocity": 0.6299212598425197,
          "duration": 0.3199999999999932
        },
        {
          "name": "C2",
          "midi": 36,
          "time": 126.39999999999891,
          "velocity": 0.6299212598425197,
          "duration": 0.3199999999999932
        },
        {
          "name": "D2",
          "midi": 38,
          "time": 126.7999999999989,
          "velocity": 0.6299212598425197,
          "duration": 0.3199999999999932
        },
        {
          "name": "C2",
          "midi": 36,
          "time": 127.1999999999989,
          "velocity": 0.6299212598425197,
          "duration": 0.23999999999999488
        },
        {
          "name": "C2",
          "midi": 36,
          "time": 127.49999999999889,
          "velocity": 0.6299212598425197,
          "duration": 0.09499999999999886
        },
        {
          "name": "D2",
          "midi": 38,
          "time": 127.59999999999889,
          "velocity": 0.6299212598425197,
          "duration": 0.18833333333333258
        },
        {
          "name": "C2",
          "midi": 36,
          "time": 127.79999999999889,
          "velocity": 0.6299212598425197,
          "duration": 0.1599999999999966
        },
        {
          "name": "C2",
          "midi": 36,
          "time": 127.99999999999889,
          "velocity": 0.6299212598425197,
          "duration": 0.3199999999999932
        },
        {
          "name": "C2",
          "midi": 36,
          "time": 128.3999999999989,
          "velocity": 0.6299212598425197,
          "duration": 0.3199999999999932
        },
        {
          "name": "C2",
          "midi": 36,
          "time": 128.7999999999989,
          "velocity": 0.6299212598425197,
          "duration": 0.3199999999999932
        },
        {
          "name": "C2",
          "midi": 36,
          "time": 129.1999999999989,
          "velocity": 0.6299212598425197,
          "duration": 0.3199999999999932
        },
        {
          "name": "D2",
          "midi": 38,
          "time": 129.59999999999891,
          "velocity": 0.6299212598425197,
          "duration": 0.3199999999999932
        },
        {
          "name": "C2",
          "midi": 36,
          "time": 129.99999999999892,
          "velocity": 0.6299212598425197,
          "duration": 0.3199999999999932
        },
        {
          "name": "D2",
          "midi": 38,
          "time": 130.39999999999893,
          "velocity": 0.6299212598425197,
          "duration": 0.09499999999999886
        },
        {
          "name": "C2",
          "midi": 36,
          "time": 130.49999999999892,
          "velocity": 0.6299212598425197,
          "duration": 0.09499999999999886
        },
        {
          "name": "C2",
          "midi": 36,
          "time": 130.6999999999989,
          "velocity": 0.6299212598425197,
          "duration": 0.0800000000000125
        },
        {
          "name": "D2",
          "midi": 38,
          "time": 130.79999999999893,
          "velocity": 0.6299212598425197,
          "duration": 0.0800000000000125
        },
        {
          "name": "C2",
          "midi": 36,
          "time": 130.89999999999895,
          "velocity": 0.6299212598425197,
          "duration": 0.0800000000000125
        },
        {
          "name": "C2",
          "midi": 36,
          "time": 131.09999999999897,
          "velocity": 0.6299212598425197,
          "duration": 0.0800000000000125
        },
        {
          "name": "C2",
          "midi": 36,
          "time": 131.199999999999,
          "velocity": 0.6299212598425197,
          "duration": 0.3199999999999932
        },
        {
          "name": "D2",
          "midi": 38,
          "time": 131.599999999999,
          "velocity": 0.6299212598425197,
          "duration": 0.3199999999999932
        },
        {
          "name": "C2",
          "midi": 36,
          "time": 131.999999999999,
          "velocity": 0.6299212598425197,
          "duration": 0.1599999999999966
        },
        {
          "name": "C2",
          "midi": 36,
          "time": 132.199999999999,
          "velocity": 0.6299212598425197,
          "duration": 0.1599999999999966
        },
        {
          "name": "D2",
          "midi": 38,
          "time": 132.39999999999898,
          "velocity": 0.6299212598425197,
          "duration": 0.3199999999999932
        },
        {
          "name": "C2",
          "midi": 36,
          "time": 132.799999999999,
          "velocity": 0.6299212598425197,
          "duration": 0.3199999999999932
        },
        {
          "name": "D2",
          "midi": 38,
          "time": 133.199999999999,
          "velocity": 0.6299212598425197,
          "duration": 0.3199999999999932
        },
        {
          "name": "C2",
          "midi": 36,
          "time": 133.599999999999,
          "velocity": 0.6299212598425197,
          "duration": 0.2400000000000091
        },
        {
          "name": "C2",
          "midi": 36,
          "time": 133.899999999999,
          "velocity": 0.6299212598425197,
          "duration": 0.09499999999999886
        },
        {
          "name": "D2",
          "midi": 38,
          "time": 133.999999999999,
          "velocity": 0.6299212598425197,
          "duration": 0.18833333333333258
        },
        {
          "name": "C2",
          "midi": 36,
          "time": 134.199999999999,
          "velocity": 0.6299212598425197,
          "duration": 0.1599999999999966
        },
        {
          "name": "C2",
          "midi": 36,
          "time": 134.39999999999898,
          "velocity": 0.6299212598425197,
          "duration": 0.3199999999999932
        },
        {
          "name": "D2",
          "midi": 38,
          "time": 134.799999999999,
          "velocity": 0.6299212598425197,
          "duration": 0.3199999999999932
        },
        {
          "name": "C2",
          "midi": 36,
          "time": 135.199999999999,
          "velocity": 0.6299212598425197,
          "duration": 0.1599999999999966
        },
        {
          "name": "C2",
          "midi": 36,
          "time": 135.39999999999898,
          "velocity": 0.6299212598425197,
          "duration": 0.1599999999999966
        },
        {
          "name": "D2",
          "midi": 38,
          "time": 135.59999999999897,
          "velocity": 0.6299212598425197,
          "duration": 0.3199999999999932
        },
        {
          "name": "C2",
          "midi": 36,
          "time": 135.99999999999898,
          "velocity": 0.6299212598425197,
          "duration": 0.3199999999999932
        },
        {
          "name": "D2",
          "midi": 38,
          "time": 136.39999999999898,
          "velocity": 0.6299212598425197,
          "duration": 0.3199999999999932
        },
        {
          "name": "C2",
          "midi": 36,
          "time": 136.799999999999,
          "velocity": 0.6299212598425197,
          "duration": 0.2400000000000091
        },
        {
          "name": "C2",
          "midi": 36,
          "time": 137.099999999999,
          "velocity": 0.6299212598425197,
          "duration": 0.09499999999999886
        },
        {
          "name": "D2",
          "midi": 38,
          "time": 137.199999999999,
          "velocity": 0.6299212598425197,
          "duration": 0.18833333333333258
        },
        {
          "name": "C2",
          "midi": 36,
          "time": 137.39999999999898,
          "velocity": 0.6299212598425197,
          "duration": 0.1599999999999966
        },
        {
          "name": "C2",
          "midi": 36,
          "time": 137.59999999999897,
          "velocity": 0.6299212598425197,
          "duration": 0.3199999999999932
        },
        {
          "name": "D2",
          "midi": 38,
          "time": 137.99999999999898,
          "velocity": 0.6299212598425197,
          "duration": 0.3199999999999932
        },
        {
          "name": "C2",
          "midi": 36,
          "time": 138.39999999999898,
          "velocity": 0.6299212598425197,
          "duration": 0.1599999999999966
        },
        {
          "name": "C2",
          "midi": 36,
          "time": 138.59999999999897,
          "velocity": 0.6299212598425197,
          "duration": 0.1599999999999966
        },
        {
          "name": "D2",
          "midi": 38,
          "time": 138.79999999999896,
          "velocity": 0.6299212598425197,
          "duration": 0.3199999999999932
        },
        {
          "name": "C2",
          "midi": 36,
          "time": 139.19999999999897,
          "velocity": 0.6299212598425197,
          "duration": 0.3199999999999932
        },
        {
          "name": "D2",
          "midi": 38,
          "time": 139.59999999999897,
          "velocity": 0.6299212598425197,
          "duration": 0.3199999999999932
        },
        {
          "name": "C2",
          "midi": 36,
          "time": 139.99999999999898,
          "velocity": 0.6299212598425197,
          "duration": 0.2400000000000091
        },
        {
          "name": "C2",
          "midi": 36,
          "time": 140.299999999999,
          "velocity": 0.6299212598425197,
          "duration": 0.09499999999999886
        },
        {
          "name": "D2",
          "midi": 38,
          "time": 140.39999999999898,
          "velocity": 0.6299212598425197,
          "duration": 0.18833333333333258
        },
        {
          "name": "C2",
          "midi": 36,
          "time": 140.59999999999897,
          "velocity": 0.6299212598425197,
          "duration": 0.1599999999999966
        },
        {
          "name": "C2",
          "midi": 36,
          "time": 140.79999999999896,
          "velocity": 0.6299212598425197,
          "duration": 0.3199999999999932
        },
        {
          "name": "D2",
          "midi": 38,
          "time": 141.19999999999897,
          "velocity": 0.6299212598425197,
          "duration": 0.3199999999999932
        },
        {
          "name": "C2",
          "midi": 36,
          "time": 141.59999999999897,
          "velocity": 0.6299212598425197,
          "duration": 0.1599999999999966
        },
        {
          "name": "C2",
          "midi": 36,
          "time": 141.79999999999896,
          "velocity": 0.6299212598425197,
          "duration": 0.1599999999999966
        },
        {
          "name": "D2",
          "midi": 38,
          "time": 141.99999999999895,
          "velocity": 0.6299212598425197,
          "duration": 0.3199999999999932
        },
        {
          "name": "C2",
          "midi": 36,
          "time": 142.39999999999895,
          "velocity": 0.6299212598425197,
          "duration": 0.3199999999999932
        },
        {
          "name": "D2",
          "midi": 38,
          "time": 142.79999999999896,
          "velocity": 0.6299212598425197,
          "duration": 0.3199999999999932
        },
        {
          "name": "C2",
          "midi": 36,
          "time": 143.19999999999897,
          "velocity": 0.6299212598425197,
          "duration": 0.2400000000000091
        },
        {
          "name": "C2",
          "midi": 36,
          "time": 143.49999999999898,
          "velocity": 0.6299212598425197,
          "duration": 0.09499999999999886
        },
        {
          "name": "D2",
          "midi": 38,
          "time": 143.59999999999897,
          "velocity": 0.6299212598425197,
          "duration": 0.18833333333333258
        },
        {
          "name": "C2",
          "midi": 36,
          "time": 143.79999999999896,
          "velocity": 0.6299212598425197,
          "duration": 0.1599999999999966
        },
        {
          "name": "C2",
          "midi": 36,
          "time": 143.99999999999895,
          "velocity": 0.6299212598425197,
          "duration": 0.3199999999999932
        },
        {
          "name": "D2",
          "midi": 38,
          "time": 144.39999999999895,
          "velocity": 0.6299212598425197,
          "duration": 0.3199999999999932
        },
        {
          "name": "C2",
          "midi": 36,
          "time": 144.79999999999896,
          "velocity": 0.6299212598425197,
          "duration": 0.1599999999999966
        },
        {
          "name": "C2",
          "midi": 36,
          "time": 144.99999999999895,
          "velocity": 0.6299212598425197,
          "duration": 0.1599999999999966
        },
        {
          "name": "D2",
          "midi": 38,
          "time": 145.19999999999894,
          "velocity": 0.6299212598425197,
          "duration": 0.3199999999999932
        },
        {
          "name": "D2",
          "midi": 38,
          "time": 145.59999999999894,
          "velocity": 0.6299212598425197,
          "duration": 0.1599999999999966
        },
        {
          "name": "C2",
          "midi": 36,
          "time": 145.79999999999893,
          "velocity": 0.6299212598425197,
          "duration": 0.1599999999999966
        },
        {
          "name": "D2",
          "midi": 38,
          "time": 145.99999999999892,
          "velocity": 0.6299212598425197,
          "duration": 0.1599999999999966
        },
        {
          "name": "C2",
          "midi": 36,
          "time": 146.1999999999989,
          "velocity": 0.6299212598425197,
          "duration": 0.1599999999999966
        },
        {
          "name": "D2",
          "midi": 38,
          "time": 146.3999999999989,
          "velocity": 0.6299212598425197,
          "duration": 0.1599999999999966
        },
        {
          "name": "D2",
          "midi": 38,
          "time": 146.7999999999989,
          "velocity": 0.6299212598425197,
          "duration": 0.1599999999999966
        },
        {
          "name": "C2",
          "midi": 36,
          "time": 147.1999999999989,
          "velocity": 0.6299212598425197,
          "duration": 0.3199999999999932
        },
        {
          "name": "C2",
          "midi": 36,
          "time": 147.59999999999891,
          "velocity": 0.6299212598425197,
          "duration": 0.3199999999999932
        },
        {
          "name": "C2",
          "midi": 36,
          "time": 147.99999999999892,
          "velocity": 0.6299212598425197,
          "duration": 0.3199999999999932
        },
        {
          "name": "C2",
          "midi": 36,
          "time": 148.39999999999893,
          "velocity": 0.6299212598425197,
          "duration": 0.3199999999999932
        },
        {
          "name": "D2",
          "midi": 38,
          "time": 148.79999999999893,
          "velocity": 0.6299212598425197,
          "duration": 0.3199999999999932
        },
        {
          "name": "C2",
          "midi": 36,
          "time": 149.19999999999894,
          "velocity": 0.6299212598425197,
          "duration": 0.3199999999999932
        },
        {
          "name": "D3",
          "midi": 50,
          "time": 149.59999999999894,
          "velocity": 0.6299212598425197,
          "duration": 0.0800000000000125
        },
        {
          "name": "C3",
          "midi": 48,
          "time": 149.69999999999897,
          "velocity": 0.6299212598425197,
          "duration": 0.0800000000000125
        },
        {
          "name": "B2",
          "midi": 47,
          "time": 149.799999999999,
          "velocity": 0.6299212598425197,
          "duration": 0.0800000000000125
        },
        {
          "name": "A2",
          "midi": 45,
          "time": 149.899999999999,
          "velocity": 0.6299212598425197,
          "duration": 0.0800000000000125
        },
        {
          "name": "D3",
          "midi": 50,
          "time": 149.99999999999903,
          "velocity": 0.6299212598425197,
          "duration": 0.0800000000000125
        },
        {
          "name": "C3",
          "midi": 48,
          "time": 150.09999999999906,
          "velocity": 0.6299212598425197,
          "duration": 0.0800000000000125
        },
        {
          "name": "B2",
          "midi": 47,
          "time": 150.19999999999908,
          "velocity": 0.6299212598425197,
          "duration": 0.0800000000000125
        },
        {
          "name": "A2",
          "midi": 45,
          "time": 150.2999999999991,
          "velocity": 0.6299212598425197,
          "duration": 0.0800000000000125
        },
        {
          "name": "C2",
          "midi": 36,
          "time": 150.39999999999912,
          "velocity": 0.6299212598425197,
          "duration": 0.3199999999999932
        },
        {
          "name": "D2",
          "midi": 38,
          "time": 150.79999999999913,
          "velocity": 0.6299212598425197,
          "duration": 0.3199999999999932
        },
        {
          "name": "C2",
          "midi": 36,
          "time": 151.19999999999914,
          "velocity": 0.6299212598425197,
          "duration": 0.1599999999999966
        },
        {
          "name": "C2",
          "midi": 36,
          "time": 151.39999999999912,
          "velocity": 0.6299212598425197,
          "duration": 0.1599999999999966
        },
        {
          "name": "D2",
          "midi": 38,
          "time": 151.5999999999991,
          "velocity": 0.6299212598425197,
          "duration": 0.3199999999999932
        },
        {
          "name": "C2",
          "midi": 36,
          "time": 151.99999999999912,
          "velocity": 0.6299212598425197,
          "duration": 0.3199999999999932
        },
        {
          "name": "D2",
          "midi": 38,
          "time": 152.39999999999912,
          "velocity": 0.6299212598425197,
          "duration": 0.3199999999999932
        },
        {
          "name": "C2",
          "midi": 36,
          "time": 152.79999999999913,
          "velocity": 0.6299212598425197,
          "duration": 0.2400000000000091
        },
        {
          "name": "C2",
          "midi": 36,
          "time": 153.09999999999914,
          "velocity": 0.6299212598425197,
          "duration": 0.09499999999999886
        },
        {
          "name": "D2",
          "midi": 38,
          "time": 153.19999999999914,
          "velocity": 0.6299212598425197,
          "duration": 0.18833333333333258
        },
        {
          "name": "C2",
          "midi": 36,
          "time": 153.39999999999912,
          "velocity": 0.6299212598425197,
          "duration": 0.1599999999999966
        },
        {
          "name": "C2",
          "midi": 36,
          "time": 153.5999999999991,
          "velocity": 0.6299212598425197,
          "duration": 0.3199999999999932
        },
        {
          "name": "D2",
          "midi": 38,
          "time": 153.99999999999912,
          "velocity": 0.6299212598425197,
          "duration": 0.3199999999999932
        },
        {
          "name": "C2",
          "midi": 36,
          "time": 154.39999999999912,
          "velocity": 0.6299212598425197,
          "duration": 0.1599999999999966
        },
        {
          "name": "C2",
          "midi": 36,
          "time": 154.5999999999991,
          "velocity": 0.6299212598425197,
          "duration": 0.1599999999999966
        },
        {
          "name": "D2",
          "midi": 38,
          "time": 154.7999999999991,
          "velocity": 0.6299212598425197,
          "duration": 0.3199999999999932
        },
        {
          "name": "C2",
          "midi": 36,
          "time": 155.1999999999991,
          "velocity": 0.6299212598425197,
          "duration": 0.3199999999999932
        },
        {
          "name": "D2",
          "midi": 38,
          "time": 155.5999999999991,
          "velocity": 0.6299212598425197,
          "duration": 0.3199999999999932
        },
        {
          "name": "C2",
          "midi": 36,
          "time": 155.99999999999912,
          "velocity": 0.6299212598425197,
          "duration": 0.2400000000000091
        },
        {
          "name": "C2",
          "midi": 36,
          "time": 156.29999999999913,
          "velocity": 0.6299212598425197,
          "duration": 0.09499999999999886
        },
        {
          "name": "D2",
          "midi": 38,
          "time": 156.39999999999912,
          "velocity": 0.6299212598425197,
          "duration": 0.18833333333333258
        },
        {
          "name": "C2",
          "midi": 36,
          "time": 156.5999999999991,
          "velocity": 0.6299212598425197,
          "duration": 0.1599999999999966
        },
        {
          "name": "C2",
          "midi": 36,
          "time": 156.7999999999991,
          "velocity": 0.6299212598425197,
          "duration": 0.3199999999999932
        },
        {
          "name": "D2",
          "midi": 38,
          "time": 157.1999999999991,
          "velocity": 0.6299212598425197,
          "duration": 0.3199999999999932
        },
        {
          "name": "C2",
          "midi": 36,
          "time": 157.5999999999991,
          "velocity": 0.6299212598425197,
          "duration": 0.1599999999999966
        },
        {
          "name": "C2",
          "midi": 36,
          "time": 157.7999999999991,
          "velocity": 0.6299212598425197,
          "duration": 0.1599999999999966
        },
        {
          "name": "D2",
          "midi": 38,
          "time": 157.9999999999991,
          "velocity": 0.6299212598425197,
          "duration": 0.3199999999999932
        },
        {
          "name": "C2",
          "midi": 36,
          "time": 158.3999999999991,
          "velocity": 0.6299212598425197,
          "duration": 0.3199999999999932
        },
        {
          "name": "D2",
          "midi": 38,
          "time": 158.7999999999991,
          "velocity": 0.6299212598425197,
          "duration": 0.3199999999999932
        },
        {
          "name": "C2",
          "midi": 36,
          "time": 159.1999999999991,
          "velocity": 0.6299212598425197,
          "duration": 0.2400000000000091
        },
        {
          "name": "C2",
          "midi": 36,
          "time": 159.49999999999912,
          "velocity": 0.6299212598425197,
          "duration": 0.09499999999999886
        },
        {
          "name": "D2",
          "midi": 38,
          "time": 159.5999999999991,
          "velocity": 0.6299212598425197,
          "duration": 0.18833333333333258
        },
        {
          "name": "C2",
          "midi": 36,
          "time": 159.7999999999991,
          "velocity": 0.6299212598425197,
          "duration": 0.1599999999999966
        },
        {
          "name": "C2",
          "midi": 36,
          "time": 159.9999999999991,
          "velocity": 0.6299212598425197,
          "duration": 0.3199999999999932
        },
        {
          "name": "D2",
          "midi": 38,
          "time": 160.3999999999991,
          "velocity": 0.6299212598425197,
          "duration": 0.3199999999999932
        },
        {
          "name": "C2",
          "midi": 36,
          "time": 160.7999999999991,
          "velocity": 0.6299212598425197,
          "duration": 0.1599999999999966
        },
        {
          "name": "C2",
          "midi": 36,
          "time": 160.9999999999991,
          "velocity": 0.6299212598425197,
          "duration": 0.1599999999999966
        },
        {
          "name": "D2",
          "midi": 38,
          "time": 161.19999999999908,
          "velocity": 0.6299212598425197,
          "duration": 0.3199999999999932
        },
        {
          "name": "C2",
          "midi": 36,
          "time": 161.59999999999908,
          "velocity": 0.6299212598425197,
          "duration": 0.3199999999999932
        },
        {
          "name": "D2",
          "midi": 38,
          "time": 161.9999999999991,
          "velocity": 0.6299212598425197,
          "duration": 0.3199999999999932
        },
        {
          "name": "C2",
          "midi": 36,
          "time": 162.3999999999991,
          "velocity": 0.6299212598425197,
          "duration": 0.2400000000000091
        },
        {
          "name": "C2",
          "midi": 36,
          "time": 162.6999999999991,
          "velocity": 0.6299212598425197,
          "duration": 0.09499999999999886
        },
        {
          "name": "D2",
          "midi": 38,
          "time": 162.7999999999991,
          "velocity": 0.6299212598425197,
          "duration": 0.18833333333333258
        },
        {
          "name": "C2",
          "midi": 36,
          "time": 162.9999999999991,
          "velocity": 0.6299212598425197,
          "duration": 0.1599999999999966
        },
        {
          "name": "D2",
          "midi": 38,
          "time": 163.19999999999908,
          "velocity": 0.6299212598425197,
          "duration": 0.1599999999999966
        },
        {
          "name": "C2",
          "midi": 36,
          "time": 163.39999999999907,
          "velocity": 0.6299212598425197,
          "duration": 0.2400000000000091
        },
        {
          "name": "C2",
          "midi": 36,
          "time": 163.69999999999908,
          "velocity": 0.6299212598425197,
          "duration": 0.2400000000000091
        },
        {
          "name": "D2",
          "midi": 38,
          "time": 163.9999999999991,
          "velocity": 0.6299212598425197,
          "duration": 0.1599999999999966
        },
        {
          "name": "C2",
          "midi": 36,
          "time": 164.19999999999908,
          "velocity": 0.6299212598425197,
          "duration": 0.1599999999999966
        },
        {
          "name": "C2",
          "midi": 36,
          "time": 164.59999999999908,
          "velocity": 0.6299212598425197,
          "duration": 0.1599999999999966
        },
        {
          "name": "D2",
          "midi": 38,
          "time": 164.79999999999907,
          "velocity": 0.6299212598425197,
          "duration": 0.1599999999999966
        },
        {
          "name": "C2",
          "midi": 36,
          "time": 164.99999999999906,
          "velocity": 0.6299212598425197,
          "duration": 0.2400000000000091
        },
        {
          "name": "C2",
          "midi": 36,
          "time": 165.29999999999907,
          "velocity": 0.6299212598425197,
          "duration": 0.2400000000000091
        },
        {
          "name": "D2",
          "midi": 38,
          "time": 165.59999999999908,
          "velocity": 0.6299212598425197,
          "duration": 0.1599999999999966
        },
        {
          "name": "C2",
          "midi": 36,
          "time": 165.79999999999907,
          "velocity": 0.6299212598425197,
          "duration": 0.1599999999999966
        },
        {
          "name": "D3",
          "midi": 50,
          "time": 165.99999999999906,
          "velocity": 0.6299212598425197,
          "duration": 0.0800000000000125
        },
        {
          "name": "C3",
          "midi": 48,
          "time": 166.09999999999908,
          "velocity": 0.6299212598425197,
          "duration": 0.0800000000000125
        },
        {
          "name": "B2",
          "midi": 47,
          "time": 166.1999999999991,
          "velocity": 0.6299212598425197,
          "duration": 0.0800000000000125
        },
        {
          "name": "A2",
          "midi": 45,
          "time": 166.29999999999913,
          "velocity": 0.6299212598425197,
          "duration": 0.0800000000000125
        },
        {
          "name": "D2",
          "midi": 38,
          "time": 166.39999999999915,
          "velocity": 0.6299212598425197,
          "duration": 0.1599999999999966
        },
        {
          "name": "C2",
          "midi": 36,
          "time": 166.59999999999914,
          "velocity": 0.6299212598425197,
          "duration": 0.2400000000000091
        },
        {
          "name": "C2",
          "midi": 36,
          "time": 166.89999999999915,
          "velocity": 0.6299212598425197,
          "duration": 0.2400000000000091
        },
        {
          "name": "D2",
          "midi": 38,
          "time": 167.19999999999916,
          "velocity": 0.6299212598425197,
          "duration": 0.1599999999999966
        },
        {
          "name": "C2",
          "midi": 36,
          "time": 167.39999999999915,
          "velocity": 0.6299212598425197,
          "duration": 0.1599999999999966
        },
        {
          "name": "C2",
          "midi": 36,
          "time": 167.79999999999916,
          "velocity": 0.6299212598425197,
          "duration": 0.1599999999999966
        },
        {
          "name": "D2",
          "midi": 38,
          "time": 167.99999999999915,
          "velocity": 0.6299212598425197,
          "duration": 0.1599999999999966
        },
        {
          "name": "C2",
          "midi": 36,
          "time": 168.19999999999914,
          "velocity": 0.6299212598425197,
          "duration": 0.2400000000000091
        },
        {
          "name": "C2",
          "midi": 36,
          "time": 168.49999999999915,
          "velocity": 0.6299212598425197,
          "duration": 0.2400000000000091
        },
        {
          "name": "D2",
          "midi": 38,
          "time": 168.79999999999916,
          "velocity": 0.6299212598425197,
          "duration": 0.1599999999999966
        },
        {
          "name": "C2",
          "midi": 36,
          "time": 168.99999999999915,
          "velocity": 0.6299212598425197,
          "duration": 0.1599999999999966
        },
        {
          "name": "D3",
          "midi": 50,
          "time": 169.19999999999914,
          "velocity": 0.6299212598425197,
          "duration": 0.0800000000000125
        },
        {
          "name": "C3",
          "midi": 48,
          "time": 169.29999999999916,
          "velocity": 0.6299212598425197,
          "duration": 0.0800000000000125
        },
        {
          "name": "B2",
          "midi": 47,
          "time": 169.39999999999918,
          "velocity": 0.6299212598425197,
          "duration": 0.0800000000000125
        },
        {
          "name": "A2",
          "midi": 45,
          "time": 169.4999999999992,
          "velocity": 0.6299212598425197,
          "duration": 0.0800000000000125
        },
        {
          "name": "C2",
          "midi": 36,
          "time": 169.59999999999923,
          "velocity": 0.6299212598425197,
          "duration": 0.3199999999999932
        },
        {
          "name": "C2",
          "midi": 36,
          "time": 169.99999999999923,
          "velocity": 0.6299212598425197,
          "duration": 0.3199999999999932
        },
        {
          "name": "C2",
          "midi": 36,
          "time": 170.39999999999924,
          "velocity": 0.6299212598425197,
          "duration": 0.3199999999999932
        },
        {
          "name": "C2",
          "midi": 36,
          "time": 170.79999999999924,
          "velocity": 0.6299212598425197,
          "duration": 0.3199999999999932
        },
        {
          "name": "C2",
          "midi": 36,
          "time": 171.19999999999925,
          "velocity": 0.6299212598425197,
          "duration": 0.3199999999999932
        },
        {
          "name": "D2",
          "midi": 38,
          "time": 171.59999999999926,
          "velocity": 0.6299212598425197,
          "duration": 0.3199999999999932
        },
        {
          "name": "C2",
          "midi": 36,
          "time": 171.99999999999926,
          "velocity": 0.6299212598425197,
          "duration": 0.1599999999999966
        },
        {
          "name": "C2",
          "midi": 36,
          "time": 172.19999999999925,
          "velocity": 0.6299212598425197,
          "duration": 0.1599999999999966
        },
        {
          "name": "D2",
          "midi": 38,
          "time": 172.39999999999924,
          "velocity": 0.6299212598425197,
          "duration": 0.3199999999999932
        },
        {
          "name": "C2",
          "midi": 36,
          "time": 172.79999999999924,
          "velocity": 0.6299212598425197,
          "duration": 0.3199999999999932
        },
        {
          "name": "D2",
          "midi": 38,
          "time": 173.19999999999925,
          "velocity": 0.6299212598425197,
          "duration": 0.3199999999999932
        },
        {
          "name": "C2",
          "midi": 36,
          "time": 173.59999999999926,
          "velocity": 0.6299212598425197,
          "duration": 0.2400000000000091
        },
        {
          "name": "C2",
          "midi": 36,
          "time": 173.89999999999927,
          "velocity": 0.6299212598425197,
          "duration": 0.09499999999999886
        },
        {
          "name": "D2",
          "midi": 38,
          "time": 173.99999999999926,
          "velocity": 0.6299212598425197,
          "duration": 0.18833333333333258
        },
        {
          "name": "C2",
          "midi": 36,
          "time": 174.19999999999925,
          "velocity": 0.6299212598425197,
          "duration": 0.1599999999999966
        },
        {
          "name": "C2",
          "midi": 36,
          "time": 174.39999999999924,
          "velocity": 0.6299212598425197,
          "duration": 0.3199999999999932
        },
        {
          "name": "D2",
          "midi": 38,
          "time": 174.79999999999924,
          "velocity": 0.6299212598425197,
          "duration": 0.3199999999999932
        },
        {
          "name": "C2",
          "midi": 36,
          "time": 175.19999999999925,
          "velocity": 0.6299212598425197,
          "duration": 0.1599999999999966
        },
        {
          "name": "C2",
          "midi": 36,
          "time": 175.39999999999924,
          "velocity": 0.6299212598425197,
          "duration": 0.1599999999999966
        },
        {
          "name": "D2",
          "midi": 38,
          "time": 175.59999999999923,
          "velocity": 0.6299212598425197,
          "duration": 0.3199999999999932
        },
        {
          "name": "C2",
          "midi": 36,
          "time": 175.99999999999923,
          "velocity": 0.6299212598425197,
          "duration": 0.3199999999999932
        },
        {
          "name": "D2",
          "midi": 38,
          "time": 176.39999999999924,
          "velocity": 0.6299212598425197,
          "duration": 0.3199999999999932
        },
        {
          "name": "C2",
          "midi": 36,
          "time": 176.79999999999924,
          "velocity": 0.6299212598425197,
          "duration": 0.2400000000000091
        },
        {
          "name": "C2",
          "midi": 36,
          "time": 177.09999999999926,
          "velocity": 0.6299212598425197,
          "duration": 0.09499999999999886
        },
        {
          "name": "D2",
          "midi": 38,
          "time": 177.19999999999925,
          "velocity": 0.6299212598425197,
          "duration": 0.18833333333333258
        },
        {
          "name": "C2",
          "midi": 36,
          "time": 177.39999999999924,
          "velocity": 0.6299212598425197,
          "duration": 0.1599999999999966
        },
        {
          "name": "C2",
          "midi": 36,
          "time": 177.59999999999923,
          "velocity": 0.6299212598425197,
          "duration": 0.3199999999999932
        },
        {
          "name": "C2",
          "midi": 36,
          "time": 177.99999999999923,
          "velocity": 0.6299212598425197,
          "duration": 0.3199999999999932
        },
        {
          "name": "C2",
          "midi": 36,
          "time": 178.39999999999924,
          "velocity": 0.6299212598425197,
          "duration": 0.3199999999999932
        },
        {
          "name": "C2",
          "midi": 36,
          "time": 178.79999999999924,
          "velocity": 0.6299212598425197,
          "duration": 0.3199999999999932
        },
        {
          "name": "D2",
          "midi": 38,
          "time": 179.19999999999925,
          "velocity": 0.6299212598425197,
          "duration": 0.3199999999999932
        },
        {
          "name": "C2",
          "midi": 36,
          "time": 179.59999999999926,
          "velocity": 0.6299212598425197,
          "duration": 0.3199999999999932
        },
        {
          "name": "D2",
          "midi": 38,
          "time": 179.99999999999926,
          "velocity": 0.6299212598425197,
          "duration": 0.09499999999999886
        },
        {
          "name": "C2",
          "midi": 36,
          "time": 180.09999999999926,
          "velocity": 0.6299212598425197,
          "duration": 0.09499999999999886
        },
        {
          "name": "C2",
          "midi": 36,
          "time": 180.29999999999924,
          "velocity": 0.6299212598425197,
          "duration": 0.0800000000000125
        },
        {
          "name": "D2",
          "midi": 38,
          "time": 180.39999999999927,
          "velocity": 0.6299212598425197,
          "duration": 0.0800000000000125
        },
        {
          "name": "C2",
          "midi": 36,
          "time": 180.4999999999993,
          "velocity": 0.6299212598425197,
          "duration": 0.0800000000000125
        },
        {
          "name": "C2",
          "midi": 36,
          "time": 180.6999999999993,
          "velocity": 0.6299212598425197,
          "duration": 0.0800000000000125
        },
        {
          "name": "C2",
          "midi": 36,
          "time": 180.79999999999933,
          "velocity": 0.6299212598425197,
          "duration": 0.3199999999999932
        },
        {
          "name": "D2",
          "midi": 38,
          "time": 181.19999999999933,
          "velocity": 0.6299212598425197,
          "duration": 0.3199999999999932
        },
        {
          "name": "C2",
          "midi": 36,
          "time": 181.59999999999934,
          "velocity": 0.6299212598425197,
          "duration": 0.1599999999999966
        },
        {
          "name": "C2",
          "midi": 36,
          "time": 181.79999999999933,
          "velocity": 0.6299212598425197,
          "duration": 0.1599999999999966
        },
        {
          "name": "D2",
          "midi": 38,
          "time": 181.99999999999932,
          "velocity": 0.6299212598425197,
          "duration": 0.3199999999999932
        },
        {
          "name": "C2",
          "midi": 36,
          "time": 182.39999999999932,
          "velocity": 0.6299212598425197,
          "duration": 0.3199999999999932
        },
        {
          "name": "D2",
          "midi": 38,
          "time": 182.79999999999933,
          "velocity": 0.6299212598425197,
          "duration": 0.3199999999999932
        },
        {
          "name": "C2",
          "midi": 36,
          "time": 183.19999999999933,
          "velocity": 0.6299212598425197,
          "duration": 0.2400000000000091
        },
        {
          "name": "C2",
          "midi": 36,
          "time": 183.49999999999935,
          "velocity": 0.6299212598425197,
          "duration": 0.09499999999999886
        },
        {
          "name": "D2",
          "midi": 38,
          "time": 183.59999999999934,
          "velocity": 0.6299212598425197,
          "duration": 0.18833333333333258
        },
        {
          "name": "C2",
          "midi": 36,
          "time": 183.79999999999933,
          "velocity": 0.6299212598425197,
          "duration": 0.1599999999999966
        },
        {
          "name": "C2",
          "midi": 36,
          "time": 183.99999999999932,
          "velocity": 0.6299212598425197,
          "duration": 0.3199999999999932
        },
        {
          "name": "D2",
          "midi": 38,
          "time": 184.39999999999932,
          "velocity": 0.6299212598425197,
          "duration": 0.3199999999999932
        },
        {
          "name": "C2",
          "midi": 36,
          "time": 184.79999999999933,
          "velocity": 0.6299212598425197,
          "duration": 0.1599999999999966
        },
        {
          "name": "C2",
          "midi": 36,
          "time": 184.99999999999932,
          "velocity": 0.6299212598425197,
          "duration": 0.1599999999999966
        },
        {
          "name": "D2",
          "midi": 38,
          "time": 185.1999999999993,
          "velocity": 0.6299212598425197,
          "duration": 0.3199999999999932
        },
        {
          "name": "C2",
          "midi": 36,
          "time": 185.5999999999993,
          "velocity": 0.6299212598425197,
          "duration": 0.3199999999999932
        },
        {
          "name": "D2",
          "midi": 38,
          "time": 185.99999999999932,
          "velocity": 0.6299212598425197,
          "duration": 0.3199999999999932
        },
        {
          "name": "C2",
          "midi": 36,
          "time": 186.39999999999932,
          "velocity": 0.6299212598425197,
          "duration": 0.2400000000000091
        },
        {
          "name": "C2",
          "midi": 36,
          "time": 186.69999999999933,
          "velocity": 0.6299212598425197,
          "duration": 0.09499999999999886
        },
        {
          "name": "D2",
          "midi": 38,
          "time": 186.79999999999933,
          "velocity": 0.6299212598425197,
          "duration": 0.18833333333333258
        },
        {
          "name": "C2",
          "midi": 36,
          "time": 186.99999999999932,
          "velocity": 0.6299212598425197,
          "duration": 0.1599999999999966
        },
        {
          "name": "C2",
          "midi": 36,
          "time": 187.1999999999993,
          "velocity": 0.6299212598425197,
          "duration": 0.3199999999999932
        },
        {
          "name": "D2",
          "midi": 38,
          "time": 187.5999999999993,
          "velocity": 0.6299212598425197,
          "duration": 0.3199999999999932
        },
        {
          "name": "C2",
          "midi": 36,
          "time": 187.99999999999932,
          "velocity": 0.6299212598425197,
          "duration": 0.1599999999999966
        },
        {
          "name": "C2",
          "midi": 36,
          "time": 188.1999999999993,
          "velocity": 0.6299212598425197,
          "duration": 0.1599999999999966
        },
        {
          "name": "D2",
          "midi": 38,
          "time": 188.3999999999993,
          "velocity": 0.6299212598425197,
          "duration": 0.3199999999999932
        },
        {
          "name": "C2",
          "midi": 36,
          "time": 188.7999999999993,
          "velocity": 0.6299212598425197,
          "duration": 0.3199999999999932
        },
        {
          "name": "D2",
          "midi": 38,
          "time": 189.1999999999993,
          "velocity": 0.6299212598425197,
          "duration": 0.3199999999999932
        },
        {
          "name": "C2",
          "midi": 36,
          "time": 189.5999999999993,
          "velocity": 0.6299212598425197,
          "duration": 0.2400000000000091
        },
        {
          "name": "C2",
          "midi": 36,
          "time": 189.89999999999932,
          "velocity": 0.6299212598425197,
          "duration": 0.09499999999999886
        },
        {
          "name": "D2",
          "midi": 38,
          "time": 189.99999999999932,
          "velocity": 0.6299212598425197,
          "duration": 0.18833333333333258
        },
        {
          "name": "C2",
          "midi": 36,
          "time": 190.1999999999993,
          "velocity": 0.6299212598425197,
          "duration": 0.1599999999999966
        },
        {
          "name": "C2",
          "midi": 36,
          "time": 190.3999999999993,
          "velocity": 0.6299212598425197,
          "duration": 0.3199999999999932
        },
        {
          "name": "D2",
          "midi": 38,
          "time": 190.7999999999993,
          "velocity": 0.6299212598425197,
          "duration": 0.3199999999999932
        },
        {
          "name": "C2",
          "midi": 36,
          "time": 191.1999999999993,
          "velocity": 0.6299212598425197,
          "duration": 0.1599999999999966
        },
        {
          "name": "C2",
          "midi": 36,
          "time": 191.3999999999993,
          "velocity": 0.6299212598425197,
          "duration": 0.1599999999999966
        },
        {
          "name": "D2",
          "midi": 38,
          "time": 191.59999999999928,
          "velocity": 0.6299212598425197,
          "duration": 0.3199999999999932
        },
        {
          "name": "C2",
          "midi": 36,
          "time": 191.9999999999993,
          "velocity": 0.6299212598425197,
          "duration": 0.3199999999999932
        },
        {
          "name": "D2",
          "midi": 38,
          "time": 192.3999999999993,
          "velocity": 0.6299212598425197,
          "duration": 0.3199999999999932
        },
        {
          "name": "C2",
          "midi": 36,
          "time": 192.7999999999993,
          "velocity": 0.6299212598425197,
          "duration": 0.2400000000000091
        },
        {
          "name": "C2",
          "midi": 36,
          "time": 193.0999999999993,
          "velocity": 0.6299212598425197,
          "duration": 0.09499999999999886
        },
        {
          "name": "D2",
          "midi": 38,
          "time": 193.1999999999993,
          "velocity": 0.6299212598425197,
          "duration": 0.18833333333333258
        },
        {
          "name": "C2",
          "midi": 36,
          "time": 193.3999999999993,
          "velocity": 0.6299212598425197,
          "duration": 0.1599999999999966
        },
        {
          "name": "C2",
          "midi": 36,
          "time": 193.59999999999928,
          "velocity": 0.6299212598425197,
          "duration": 0.3199999999999932
        },
        {
          "name": "D2",
          "midi": 38,
          "time": 193.9999999999993,
          "velocity": 0.6299212598425197,
          "duration": 0.3199999999999932
        },
        {
          "name": "C2",
          "midi": 36,
          "time": 194.3999999999993,
          "velocity": 0.6299212598425197,
          "duration": 0.1599999999999966
        },
        {
          "name": "C2",
          "midi": 36,
          "time": 194.59999999999928,
          "velocity": 0.6299212598425197,
          "duration": 0.1599999999999966
        },
        {
          "name": "D2",
          "midi": 38,
          "time": 194.79999999999927,
          "velocity": 0.6299212598425197,
          "duration": 0.3199999999999932
        },
        {
          "name": "D2",
          "midi": 38,
          "time": 195.19999999999928,
          "velocity": 0.6299212598425197,
          "duration": 0.1599999999999966
        },
        {
          "name": "C2",
          "midi": 36,
          "time": 195.39999999999927,
          "velocity": 0.6299212598425197,
          "duration": 0.1599999999999966
        },
        {
          "name": "D2",
          "midi": 38,
          "time": 195.59999999999926,
          "velocity": 0.6299212598425197,
          "duration": 0.1599999999999966
        },
        {
          "name": "C2",
          "midi": 36,
          "time": 195.79999999999924,
          "velocity": 0.6299212598425197,
          "duration": 0.1599999999999966
        },
        {
          "name": "D2",
          "midi": 38,
          "time": 195.99999999999923,
          "velocity": 0.6299212598425197,
          "duration": 0.1599999999999966
        },
        {
          "name": "D2",
          "midi": 38,
          "time": 196.39999999999924,
          "velocity": 0.6299212598425197,
          "duration": 0.1599999999999966
        },
        {
          "name": "C2",
          "midi": 36,
          "time": 196.79999999999924,
          "velocity": 0.6299212598425197,
          "duration": 0.3199999999999932
        },
        {
          "name": "C2",
          "midi": 36,
          "time": 197.19999999999925,
          "velocity": 0.6299212598425197,
          "duration": 0.3199999999999932
        },
        {
          "name": "C2",
          "midi": 36,
          "time": 197.59999999999926,
          "velocity": 0.6299212598425197,
          "duration": 0.3199999999999932
        },
        {
          "name": "C2",
          "midi": 36,
          "time": 197.99999999999926,
          "velocity": 0.6299212598425197,
          "duration": 0.3199999999999932
        },
        {
          "name": "D2",
          "midi": 38,
          "time": 198.39999999999927,
          "velocity": 0.6299212598425197,
          "duration": 0.3199999999999932
        },
        {
          "name": "C2",
          "midi": 36,
          "time": 198.79999999999927,
          "velocity": 0.6299212598425197,
          "duration": 0.3199999999999932
        },
        {
          "name": "D3",
          "midi": 50,
          "time": 199.19999999999928,
          "velocity": 0.6299212598425197,
          "duration": 0.0800000000000125
        },
        {
          "name": "C3",
          "midi": 48,
          "time": 199.2999999999993,
          "velocity": 0.6299212598425197,
          "duration": 0.0800000000000125
        },
        {
          "name": "B2",
          "midi": 47,
          "time": 199.39999999999932,
          "velocity": 0.6299212598425197,
          "duration": 0.0800000000000125
        },
        {
          "name": "A2",
          "midi": 45,
          "time": 199.49999999999935,
          "velocity": 0.6299212598425197,
          "duration": 0.0800000000000125
        },
        {
          "name": "D3",
          "midi": 50,
          "time": 199.59999999999937,
          "velocity": 0.6299212598425197,
          "duration": 0.0800000000000125
        },
        {
          "name": "C3",
          "midi": 48,
          "time": 199.6999999999994,
          "velocity": 0.6299212598425197,
          "duration": 0.0800000000000125
        },
        {
          "name": "B2",
          "midi": 47,
          "time": 199.79999999999941,
          "velocity": 0.6299212598425197,
          "duration": 0.0800000000000125
        },
        {
          "name": "A2",
          "midi": 45,
          "time": 199.89999999999944,
          "velocity": 0.6299212598425197,
          "duration": 0.0800000000000125
        }
      ];
