export let bass1 =  [
        {
          "name": "F4",
          "midi": 65,
          "time": 0,
          "velocity": 0.6299212598425197,
          "duration": 0.1
        },
        {
          "name": "D#4",
          "midi": 63,
          "time": 0.1,
          "velocity": 0.6299212598425197,
          "duration": 0.1
        },
        {
          "name": "C4",
          "midi": 60,
          "time": 0.2,
          "velocity": 0.6299212598425197,
          "duration": 0.10000000000000003
        },
        {
          "name": "A#3",
          "midi": 58,
          "time": 0.30000000000000004,
          "velocity": 0.6299212598425197,
          "duration": 0.09999999999999998
        },
        {
          "name": "C4",
          "midi": 60,
          "time": 0.4,
          "velocity": 0.6299212598425197,
          "duration": 0.09999999999999998
        },
        {
          "name": "A#3",
          "midi": 58,
          "time": 0.5,
          "velocity": 0.6299212598425197,
          "duration": 0.09999999999999998
        },
        {
          "name": "G#3",
          "midi": 56,
          "time": 0.6,
          "velocity": 0.6299212598425197,
          "duration": 0.09999999999999998
        },
        {
          "name": "G3",
          "midi": 55,
          "time": 0.7,
          "velocity": 0.6299212598425197,
          "duration": 0.09999999999999998
        },
        {
          "name": "G#3",
          "midi": 56,
          "time": 0.7999999999999999,
          "velocity": 0.6299212598425197,
          "duration": 0.09999999999999998
        },
        {
          "name": "G3",
          "midi": 55,
          "time": 0.8999999999999999,
          "velocity": 0.6299212598425197,
          "duration": 0.09999999999999998
        },
        {
          "name": "F3",
          "midi": 53,
          "time": 0.9999999999999999,
          "velocity": 0.6299212598425197,
          "duration": 0.09999999999999998
        },
        {
          "name": "D#3",
          "midi": 51,
          "time": 1.0999999999999999,
          "velocity": 0.6299212598425197,
          "duration": 0.10000000000000009
        },
        {
          "name": "F3",
          "midi": 53,
          "time": 1.2,
          "velocity": 0.6299212598425197,
          "duration": 0.10000000000000009
        },
        {
          "name": "C3",
          "midi": 48,
          "time": 1.3,
          "velocity": 0.6299212598425197,
          "duration": 0.10000000000000009
        },
        {
          "name": "D#3",
          "midi": 51,
          "time": 1.4000000000000001,
          "velocity": 0.6299212598425197,
          "duration": 0.10000000000000009
        },
        {
          "name": "E3",
          "midi": 52,
          "time": 1.5000000000000002,
          "velocity": 0.6299212598425197,
          "duration": 0.10000000000000009
        },
        {
          "name": "C3",
          "midi": 48,
          "time": 1.6000000000000003,
          "velocity": 0.6299212598425197,
          "duration": 0.10000000000000009
        },
        {
          "name": "A#2",
          "midi": 46,
          "time": 1.7000000000000004,
          "velocity": 0.6299212598425197,
          "duration": 0.10000000000000009
        },
        {
          "name": "C3",
          "midi": 48,
          "time": 1.8000000000000005,
          "velocity": 0.6299212598425197,
          "duration": 0.10000000000000009
        },
        {
          "name": "F2",
          "midi": 41,
          "time": 1.9000000000000006,
          "velocity": 0.6299212598425197,
          "duration": 0.19999999999999996
        },
        {
          "name": "F2",
          "midi": 41,
          "time": 2.1000000000000005,
          "velocity": 0.6299212598425197,
          "duration": 0.10000000000000009
        },
        {
          "name": "G#2",
          "midi": 44,
          "time": 2.2000000000000006,
          "velocity": 0.6299212598425197,
          "duration": 0.10000000000000009
        },
        {
          "name": "A#2",
          "midi": 46,
          "time": 2.3000000000000007,
          "velocity": 0.6299212598425197,
          "duration": 0.10000000000000009
        },
        {
          "name": "C3",
          "midi": 48,
          "time": 2.400000000000001,
          "velocity": 0.6299212598425197,
          "duration": 0.10000000000000009
        },
        {
          "name": "A#2",
          "midi": 46,
          "time": 2.500000000000001,
          "velocity": 0.6299212598425197,
          "duration": 0.10000000000000009
        },
        {
          "name": "C3",
          "midi": 48,
          "time": 2.600000000000001,
          "velocity": 0.6299212598425197,
          "duration": 0.10000000000000009
        },
        {
          "name": "D#3",
          "midi": 51,
          "time": 2.700000000000001,
          "velocity": 0.6299212598425197,
          "duration": 0.20000000000000018
        },
        {
          "name": "D#3",
          "midi": 51,
          "time": 2.9000000000000012,
          "velocity": 0.6299212598425197,
          "duration": 0.10000000000000009
        },
        {
          "name": "D3",
          "midi": 50,
          "time": 3.0000000000000013,
          "velocity": 0.6299212598425197,
          "duration": 0.10000000000000009
        },
        {
          "name": "D#3",
          "midi": 51,
          "time": 3.1000000000000014,
          "velocity": 0.6299212598425197,
          "duration": 0.10000000000000009
        },
        {
          "name": "C3",
          "midi": 48,
          "time": 3.2000000000000015,
          "velocity": 0.6299212598425197,
          "duration": 0.10000000000000009
        },
        {
          "name": "A#2",
          "midi": 46,
          "time": 3.3000000000000016,
          "velocity": 0.6299212598425197,
          "duration": 0.10000000000000009
        },
        {
          "name": "C3",
          "midi": 48,
          "time": 3.4000000000000017,
          "velocity": 0.6299212598425197,
          "duration": 0.10000000000000009
        },
        {
          "name": "F2",
          "midi": 41,
          "time": 3.5000000000000018,
          "velocity": 0.6299212598425197,
          "duration": 0.20000000000000018
        },
        {
          "name": "G#2",
          "midi": 44,
          "time": 3.700000000000002,
          "velocity": 0.6299212598425197,
          "duration": 0.10000000000000009
        },
        {
          "name": "A#2",
          "midi": 46,
          "time": 3.800000000000002,
          "velocity": 0.6299212598425197,
          "duration": 0.10000000000000009
        },
        {
          "name": "C3",
          "midi": 48,
          "time": 3.900000000000002,
          "velocity": 0.6299212598425197,
          "duration": 0.09999999999999964
        },
        {
          "name": "D#3",
          "midi": 51,
          "time": 4.100000000000001,
          "velocity": 0.6299212598425197,
          "duration": 0.09999999999999964
        },
        {
          "name": "D3",
          "midi": 50,
          "time": 4.200000000000001,
          "velocity": 0.6299212598425197,
          "duration": 0.09999999999999964
        },
        {
          "name": "D#3",
          "midi": 51,
          "time": 4.300000000000001,
          "velocity": 0.6299212598425197,
          "duration": 0.09999999999999964
        },
        {
          "name": "D3",
          "midi": 50,
          "time": 4.4,
          "velocity": 0.6299212598425197,
          "duration": 0.2999999999999998
        },
        {
          "name": "A#2",
          "midi": 46,
          "time": 4.7,
          "velocity": 0.6299212598425197,
          "duration": 0.09999999999999964
        },
        {
          "name": "C3",
          "midi": 48,
          "time": 4.8,
          "velocity": 0.6299212598425197,
          "duration": 0.09999999999999964
        },
        {
          "name": "A#2",
          "midi": 46,
          "time": 4.8999999999999995,
          "velocity": 0.6299212598425197,
          "duration": 0.09999999999999964
        },
        {
          "name": "C3",
          "midi": 48,
          "time": 4.999999999999999,
          "velocity": 0.6299212598425197,
          "duration": 0.09999999999999964
        },
        {
          "name": "F2",
          "midi": 41,
          "time": 5.099999999999999,
          "velocity": 0.6299212598425197,
          "duration": 0.20000000000000018
        },
        {
          "name": "F2",
          "midi": 41,
          "time": 5.299999999999999,
          "velocity": 0.6299212598425197,
          "duration": 0.09999999999999964
        },
        {
          "name": "G#2",
          "midi": 44,
          "time": 5.399999999999999,
          "velocity": 0.6299212598425197,
          "duration": 0.09999999999999964
        },
        {
          "name": "A#2",
          "midi": 46,
          "time": 5.499999999999998,
          "velocity": 0.6299212598425197,
          "duration": 0.09999999999999964
        },
        {
          "name": "C3",
          "midi": 48,
          "time": 5.599999999999998,
          "velocity": 0.6299212598425197,
          "duration": 0.09999999999999964
        },
        {
          "name": "A#2",
          "midi": 46,
          "time": 5.6999999999999975,
          "velocity": 0.6299212598425197,
          "duration": 0.09999999999999964
        },
        {
          "name": "C3",
          "midi": 48,
          "time": 5.799999999999997,
          "velocity": 0.6299212598425197,
          "duration": 0.09999999999999964
        },
        {
          "name": "D#3",
          "midi": 51,
          "time": 5.899999999999997,
          "velocity": 0.6299212598425197,
          "duration": 0.20000000000000018
        },
        {
          "name": "D#3",
          "midi": 51,
          "time": 6.099999999999997,
          "velocity": 0.6299212598425197,
          "duration": 0.09999999999999964
        },
        {
          "name": "D3",
          "midi": 50,
          "time": 6.199999999999997,
          "velocity": 0.6299212598425197,
          "duration": 0.09999999999999964
        },
        {
          "name": "D#3",
          "midi": 51,
          "time": 6.299999999999996,
          "velocity": 0.6299212598425197,
          "duration": 0.09999999999999964
        },
        {
          "name": "C3",
          "midi": 48,
          "time": 6.399999999999996,
          "velocity": 0.6299212598425197,
          "duration": 0.09999999999999964
        },
        {
          "name": "A#2",
          "midi": 46,
          "time": 6.499999999999996,
          "velocity": 0.6299212598425197,
          "duration": 0.09999999999999964
        },
        {
          "name": "C3",
          "midi": 48,
          "time": 6.599999999999995,
          "velocity": 0.6299212598425197,
          "duration": 0.09999999999999964
        },
        {
          "name": "F2",
          "midi": 41,
          "time": 6.699999999999995,
          "velocity": 0.6299212598425197,
          "duration": 0.20000000000000018
        },
        {
          "name": "G#2",
          "midi": 44,
          "time": 6.899999999999995,
          "velocity": 0.6299212598425197,
          "duration": 0.09999999999999964
        },
        {
          "name": "A#2",
          "midi": 46,
          "time": 6.999999999999995,
          "velocity": 0.6299212598425197,
          "duration": 0.09999999999999964
        },
        {
          "name": "C3",
          "midi": 48,
          "time": 7.099999999999994,
          "velocity": 0.6299212598425197,
          "duration": 0.09999999999999964
        },
        {
          "name": "D#3",
          "midi": 51,
          "time": 7.299999999999994,
          "velocity": 0.6299212598425197,
          "duration": 0.09999999999999964
        },
        {
          "name": "D3",
          "midi": 50,
          "time": 7.399999999999993,
          "velocity": 0.6299212598425197,
          "duration": 0.09999999999999964
        },
        {
          "name": "D#3",
          "midi": 51,
          "time": 7.499999999999993,
          "velocity": 0.6299212598425197,
          "duration": 0.09999999999999964
        },
        {
          "name": "D3",
          "midi": 50,
          "time": 7.5999999999999925,
          "velocity": 0.6299212598425197,
          "duration": 0.2999999999999998
        },
        {
          "name": "A#2",
          "midi": 46,
          "time": 7.899999999999992,
          "velocity": 0.6299212598425197,
          "duration": 0.09999999999999964
        },
        {
          "name": "C3",
          "midi": 48,
          "time": 7.999999999999992,
          "velocity": 0.6299212598425197,
          "duration": 0.10000000000000053
        },
        {
          "name": "A#2",
          "midi": 46,
          "time": 8.099999999999993,
          "velocity": 0.6299212598425197,
          "duration": 0.09999999999999964
        },
        {
          "name": "C3",
          "midi": 48,
          "time": 8.199999999999992,
          "velocity": 0.6299212598425197,
          "duration": 0.09999999999999964
        },
        {
          "name": "F2",
          "midi": 41,
          "time": 8.299999999999992,
          "velocity": 0.6299212598425197,
          "duration": 0.1999999999999993
        },
        {
          "name": "F2",
          "midi": 41,
          "time": 8.499999999999991,
          "velocity": 0.6299212598425197,
          "duration": 0.09999999999999964
        },
        {
          "name": "G#2",
          "midi": 44,
          "time": 8.59999999999999,
          "velocity": 0.6299212598425197,
          "duration": 0.09999999999999964
        },
        {
          "name": "A#2",
          "midi": 46,
          "time": 8.69999999999999,
          "velocity": 0.6299212598425197,
          "duration": 0.09999999999999964
        },
        {
          "name": "C3",
          "midi": 48,
          "time": 8.79999999999999,
          "velocity": 0.6299212598425197,
          "duration": 0.09999999999999964
        },
        {
          "name": "A#2",
          "midi": 46,
          "time": 8.89999999999999,
          "velocity": 0.6299212598425197,
          "duration": 0.09999999999999964
        },
        {
          "name": "C3",
          "midi": 48,
          "time": 8.99999999999999,
          "velocity": 0.6299212598425197,
          "duration": 0.09999999999999964
        },
        {
          "name": "D#3",
          "midi": 51,
          "time": 9.099999999999989,
          "velocity": 0.6299212598425197,
          "duration": 0.1999999999999993
        },
        {
          "name": "D#3",
          "midi": 51,
          "time": 9.299999999999988,
          "velocity": 0.6299212598425197,
          "duration": 0.09999999999999964
        },
        {
          "name": "D3",
          "midi": 50,
          "time": 9.399999999999988,
          "velocity": 0.6299212598425197,
          "duration": 0.09999999999999964
        },
        {
          "name": "D#3",
          "midi": 51,
          "time": 9.499999999999988,
          "velocity": 0.6299212598425197,
          "duration": 0.09999999999999964
        },
        {
          "name": "C3",
          "midi": 48,
          "time": 9.599999999999987,
          "velocity": 0.6299212598425197,
          "duration": 0.09999999999999964
        },
        {
          "name": "A#2",
          "midi": 46,
          "time": 9.699999999999987,
          "velocity": 0.6299212598425197,
          "duration": 0.09999999999999964
        },
        {
          "name": "C3",
          "midi": 48,
          "time": 9.799999999999986,
          "velocity": 0.6299212598425197,
          "duration": 0.09999999999999964
        },
        {
          "name": "F2",
          "midi": 41,
          "time": 9.899999999999986,
          "velocity": 0.6299212598425197,
          "duration": 0.1999999999999993
        },
        {
          "name": "G#2",
          "midi": 44,
          "time": 10.099999999999985,
          "velocity": 0.6299212598425197,
          "duration": 0.09999999999999964
        },
        {
          "name": "A#2",
          "midi": 46,
          "time": 10.199999999999985,
          "velocity": 0.6299212598425197,
          "duration": 0.09999999999999964
        },
        {
          "name": "C3",
          "midi": 48,
          "time": 10.299999999999985,
          "velocity": 0.6299212598425197,
          "duration": 0.09999999999999964
        },
        {
          "name": "D#3",
          "midi": 51,
          "time": 10.499999999999984,
          "velocity": 0.6299212598425197,
          "duration": 0.09999999999999964
        },
        {
          "name": "D3",
          "midi": 50,
          "time": 10.599999999999984,
          "velocity": 0.6299212598425197,
          "duration": 0.09999999999999964
        },
        {
          "name": "D#3",
          "midi": 51,
          "time": 10.699999999999983,
          "velocity": 0.6299212598425197,
          "duration": 0.09999999999999964
        },
        {
          "name": "D3",
          "midi": 50,
          "time": 10.799999999999983,
          "velocity": 0.6299212598425197,
          "duration": 0.3000000000000007
        },
        {
          "name": "A#2",
          "midi": 46,
          "time": 11.099999999999984,
          "velocity": 0.6299212598425197,
          "duration": 0.09999999999999964
        },
        {
          "name": "C3",
          "midi": 48,
          "time": 11.199999999999983,
          "velocity": 0.6299212598425197,
          "duration": 0.09999999999999964
        },
        {
          "name": "A#2",
          "midi": 46,
          "time": 11.299999999999983,
          "velocity": 0.6299212598425197,
          "duration": 0.09999999999999964
        },
        {
          "name": "C3",
          "midi": 48,
          "time": 11.399999999999983,
          "velocity": 0.6299212598425197,
          "duration": 0.09999999999999964
        },
        {
          "name": "F2",
          "midi": 41,
          "time": 11.499999999999982,
          "velocity": 0.6299212598425197,
          "duration": 0.1999999999999993
        },
        {
          "name": "F2",
          "midi": 41,
          "time": 11.699999999999982,
          "velocity": 0.6299212598425197,
          "duration": 0.09999999999999964
        },
        {
          "name": "G#2",
          "midi": 44,
          "time": 11.799999999999981,
          "velocity": 0.6299212598425197,
          "duration": 0.09999999999999964
        },
        {
          "name": "A#2",
          "midi": 46,
          "time": 11.89999999999998,
          "velocity": 0.6299212598425197,
          "duration": 0.09999999999999964
        },
        {
          "name": "C3",
          "midi": 48,
          "time": 11.99999999999998,
          "velocity": 0.6299212598425197,
          "duration": 0.09999999999999964
        },
        {
          "name": "A#2",
          "midi": 46,
          "time": 12.09999999999998,
          "velocity": 0.6299212598425197,
          "duration": 0.09999999999999964
        },
        {
          "name": "C3",
          "midi": 48,
          "time": 12.19999999999998,
          "velocity": 0.6299212598425197,
          "duration": 0.09999999999999964
        },
        {
          "name": "D#3",
          "midi": 51,
          "time": 12.29999999999998,
          "velocity": 0.6299212598425197,
          "duration": 0.1999999999999993
        },
        {
          "name": "D#3",
          "midi": 51,
          "time": 12.499999999999979,
          "velocity": 0.6299212598425197,
          "duration": 0.09999999999999964
        },
        {
          "name": "D3",
          "midi": 50,
          "time": 12.599999999999978,
          "velocity": 0.6299212598425197,
          "duration": 0.09999999999999964
        },
        {
          "name": "D#3",
          "midi": 51,
          "time": 12.699999999999978,
          "velocity": 0.6299212598425197,
          "duration": 0.09999999999999964
        },
        {
          "name": "C3",
          "midi": 48,
          "time": 12.799999999999978,
          "velocity": 0.6299212598425197,
          "duration": 0.09999999999999964
        },
        {
          "name": "A#2",
          "midi": 46,
          "time": 12.899999999999977,
          "velocity": 0.6299212598425197,
          "duration": 0.09999999999999964
        },
        {
          "name": "C3",
          "midi": 48,
          "time": 12.999999999999977,
          "velocity": 0.6299212598425197,
          "duration": 0.09999999999999964
        },
        {
          "name": "F2",
          "midi": 41,
          "time": 13.099999999999977,
          "velocity": 0.6299212598425197,
          "duration": 0.1999999999999993
        },
        {
          "name": "G#2",
          "midi": 44,
          "time": 13.299999999999976,
          "velocity": 0.6299212598425197,
          "duration": 0.09999999999999964
        },
        {
          "name": "A#2",
          "midi": 46,
          "time": 13.399999999999975,
          "velocity": 0.6299212598425197,
          "duration": 0.09999999999999964
        },
        {
          "name": "C3",
          "midi": 48,
          "time": 13.499999999999975,
          "velocity": 0.6299212598425197,
          "duration": 0.09999999999999964
        },
        {
          "name": "D#3",
          "midi": 51,
          "time": 13.699999999999974,
          "velocity": 0.6299212598425197,
          "duration": 0.09999999999999964
        },
        {
          "name": "D3",
          "midi": 50,
          "time": 13.799999999999974,
          "velocity": 0.6299212598425197,
          "duration": 0.09999999999999964
        },
        {
          "name": "D#3",
          "midi": 51,
          "time": 13.899999999999974,
          "velocity": 0.6299212598425197,
          "duration": 0.09999999999999964
        },
        {
          "name": "D3",
          "midi": 50,
          "time": 13.999999999999973,
          "velocity": 0.6299212598425197,
          "duration": 0.3000000000000007
        },
        {
          "name": "A#2",
          "midi": 46,
          "time": 14.299999999999974,
          "velocity": 0.6299212598425197,
          "duration": 0.09999999999999964
        },
        {
          "name": "C3",
          "midi": 48,
          "time": 14.399999999999974,
          "velocity": 0.6299212598425197,
          "duration": 0.40000000000000036
        },
        {
          "name": "D3",
          "midi": 50,
          "time": 14.799999999999974,
          "velocity": 0.6299212598425197,
          "duration": 0.3000000000000007
        },
        {
          "name": "D#3",
          "midi": 51,
          "time": 15.099999999999975,
          "velocity": 0.6299212598425197,
          "duration": 0.1999999999999993
        },
        {
          "name": "C3",
          "midi": 48,
          "time": 15.299999999999974,
          "velocity": 0.6299212598425197,
          "duration": 0.09999999999999964
        },
        {
          "name": "G3",
          "midi": 55,
          "time": 15.399999999999974,
          "velocity": 0.6299212598425197,
          "duration": 0.1999999999999993
        },
        {
          "name": "A#3",
          "midi": 58,
          "time": 15.599999999999973,
          "velocity": 0.6299212598425197,
          "duration": 0.13333333333333286
        },
        {
          "name": "B3",
          "midi": 59,
          "time": 15.733333333333306,
          "velocity": 0.6299212598425197,
          "duration": 0.13333333333333286
        },
        {
          "name": "C4",
          "midi": 60,
          "time": 15.866666666666639,
          "velocity": 0.6299212598425197,
          "duration": 0.13333333333333286
        },
        {
          "name": "D3",
          "midi": 50,
          "time": 15.999999999999972,
          "velocity": 0.6299212598425197,
          "duration": 0.3999999999999986
        },
        {
          "name": "D#3",
          "midi": 51,
          "time": 16.39999999999997,
          "velocity": 0.6299212598425197,
          "duration": 0.3000000000000007
        },
        {
          "name": "F3",
          "midi": 53,
          "time": 16.69999999999997,
          "velocity": 0.6299212598425197,
          "duration": 0.3999999999999986
        },
        {
          "name": "D#3",
          "midi": 51,
          "time": 17.09999999999997,
          "velocity": 0.6299212598425197,
          "duration": 0.10000000000000142
        },
        {
          "name": "F3",
          "midi": 53,
          "time": 17.19999999999997,
          "velocity": 0.6299212598425197,
          "duration": 0.3999999999999986
        },
        {
          "name": "C3",
          "midi": 48,
          "time": 17.59999999999997,
          "velocity": 0.6299212598425197,
          "duration": 0.3999999999999986
        },
        {
          "name": "D3",
          "midi": 50,
          "time": 17.999999999999968,
          "velocity": 0.6299212598425197,
          "duration": 0.3000000000000007
        },
        {
          "name": "D#3",
          "midi": 51,
          "time": 18.29999999999997,
          "velocity": 0.6299212598425197,
          "duration": 0.1999999999999993
        },
        {
          "name": "C3",
          "midi": 48,
          "time": 18.499999999999968,
          "velocity": 0.6299212598425197,
          "duration": 0.10000000000000142
        },
        {
          "name": "G3",
          "midi": 55,
          "time": 18.59999999999997,
          "velocity": 0.6299212598425197,
          "duration": 0.1999999999999993
        },
        {
          "name": "A#3",
          "midi": 58,
          "time": 18.79999999999997,
          "velocity": 0.6299212598425197,
          "duration": 0.13333333333333286
        },
        {
          "name": "B3",
          "midi": 59,
          "time": 18.9333333333333,
          "velocity": 0.6299212598425197,
          "duration": 0.13333333333333286
        },
        {
          "name": "C4",
          "midi": 60,
          "time": 19.066666666666634,
          "velocity": 0.6299212598425197,
          "duration": 0.13333333333333286
        },
        {
          "name": "D3",
          "midi": 50,
          "time": 19.199999999999967,
          "velocity": 0.6299212598425197,
          "duration": 0.3999999999999986
        },
        {
          "name": "D#3",
          "midi": 51,
          "time": 19.599999999999966,
          "velocity": 0.6299212598425197,
          "duration": 0.3000000000000007
        },
        {
          "name": "F3",
          "midi": 53,
          "time": 19.899999999999967,
          "velocity": 0.6299212598425197,
          "duration": 0.5
        },
        {
          "name": "A#3",
          "midi": 58,
          "time": 20.399999999999967,
          "velocity": 0.6299212598425197,
          "duration": 0.3999999999999986
        },
        {
          "name": "G4",
          "midi": 67,
          "time": 20.799999999999965,
          "velocity": 0.6299212598425197,
          "duration": 0.10000000000000142
        },
        {
          "name": "F4",
          "midi": 65,
          "time": 20.899999999999967,
          "velocity": 0.6299212598425197,
          "duration": 0.10000000000000142
        },
        {
          "name": "D5",
          "midi": 74,
          "time": 20.999999999999968,
          "velocity": 0.6299212598425197,
          "duration": 0.10000000000000142
        },
        {
          "name": "C5",
          "midi": 72,
          "time": 21.09999999999997,
          "velocity": 0.6299212598425197,
          "duration": 0.10000000000000142
        },
        {
          "name": "A#4",
          "midi": 70,
          "time": 21.19999999999997,
          "velocity": 0.6299212598425197,
          "duration": 0.10000000000000142
        },
        {
          "name": "A4",
          "midi": 69,
          "time": 21.299999999999972,
          "velocity": 0.6299212598425197,
          "duration": 0.10000000000000142
        },
        {
          "name": "G4",
          "midi": 67,
          "time": 21.399999999999974,
          "velocity": 0.6299212598425197,
          "duration": 0.10000000000000142
        },
        {
          "name": "F4",
          "midi": 65,
          "time": 21.499999999999975,
          "velocity": 0.6299212598425197,
          "duration": 0.10000000000000142
        },
        {
          "name": "G4",
          "midi": 67,
          "time": 21.599999999999977,
          "velocity": 0.6299212598425197,
          "duration": 0.10000000000000142
        },
        {
          "name": "F4",
          "midi": 65,
          "time": 21.699999999999978,
          "velocity": 0.6299212598425197,
          "duration": 0.10000000000000142
        },
        {
          "name": "D4",
          "midi": 62,
          "time": 21.79999999999998,
          "velocity": 0.6299212598425197,
          "duration": 0.10000000000000142
        },
        {
          "name": "C4",
          "midi": 60,
          "time": 21.89999999999998,
          "velocity": 0.6299212598425197,
          "duration": 0.10000000000000142
        },
        {
          "name": "D4",
          "midi": 62,
          "time": 21.999999999999982,
          "velocity": 0.6299212598425197,
          "duration": 0.10000000000000142
        },
        {
          "name": "C4",
          "midi": 60,
          "time": 22.099999999999984,
          "velocity": 0.6299212598425197,
          "duration": 0.10000000000000142
        },
        {
          "name": "A#3",
          "midi": 58,
          "time": 22.199999999999985,
          "velocity": 0.6299212598425197,
          "duration": 0.10000000000000142
        },
        {
          "name": "A3",
          "midi": 57,
          "time": 22.299999999999986,
          "velocity": 0.6299212598425197,
          "duration": 0.10000000000000142
        },
        {
          "name": "C3",
          "midi": 48,
          "time": 22.399999999999988,
          "velocity": 0.6299212598425197,
          "duration": 0.3999999999999986
        },
        {
          "name": "D3",
          "midi": 50,
          "time": 22.799999999999986,
          "velocity": 0.6299212598425197,
          "duration": 0.3000000000000007
        },
        {
          "name": "D#3",
          "midi": 51,
          "time": 23.099999999999987,
          "velocity": 0.6299212598425197,
          "duration": 0.10000000000000142
        },
        {
          "name": "C3",
          "midi": 48,
          "time": 23.19999999999999,
          "velocity": 0.6299212598425197,
          "duration": 0.13333333333333286
        },
        {
          "name": "D3",
          "midi": 50,
          "time": 23.33333333333332,
          "velocity": 0.6299212598425197,
          "duration": 0.13333333333333286
        },
        {
          "name": "D#3",
          "midi": 51,
          "time": 23.466666666666654,
          "velocity": 0.6299212598425197,
          "duration": 0.13333333333333286
        },
        {
          "name": "G2",
          "midi": 43,
          "time": 23.599999999999987,
          "velocity": 0.6299212598425197,
          "duration": 0.13333333333333286
        },
        {
          "name": "A#2",
          "midi": 46,
          "time": 23.73333333333332,
          "velocity": 0.6299212598425197,
          "duration": 0.13333333333333286
        },
        {
          "name": "B2",
          "midi": 47,
          "time": 23.866666666666653,
          "velocity": 0.6299212598425197,
          "duration": 0.13333333333333286
        },
        {
          "name": "C3",
          "midi": 48,
          "time": 23.999999999999986,
          "velocity": 0.6299212598425197,
          "duration": 0.1999999999999993
        },
        {
          "name": "C3",
          "midi": 48,
          "time": 24.199999999999985,
          "velocity": 0.6299212598425197,
          "duration": 0.1999999999999993
        },
        {
          "name": "D3",
          "midi": 50,
          "time": 24.399999999999984,
          "velocity": 0.6299212598425197,
          "duration": 0.3999999999999986
        },
        {
          "name": "D#3",
          "midi": 51,
          "time": 24.799999999999983,
          "velocity": 0.6299212598425197,
          "duration": 0.3000000000000007
        },
        {
          "name": "F3",
          "midi": 53,
          "time": 25.099999999999984,
          "velocity": 0.6299212598425197,
          "duration": 0.3000000000000007
        },
        {
          "name": "G3",
          "midi": 55,
          "time": 25.399999999999984,
          "velocity": 0.6299212598425197,
          "duration": 0.1999999999999993
        },
        {
          "name": "F3",
          "midi": 53,
          "time": 25.599999999999984,
          "velocity": 0.6299212598425197,
          "duration": 0.8000000000000007
        },
        {
          "name": "A#2",
          "midi": 46,
          "time": 26.399999999999984,
          "velocity": 0.6299212598425197,
          "duration": 0.8000000000000007
        },
        {
          "name": "D#3",
          "midi": 51,
          "time": 27.199999999999985,
          "velocity": 0.6299212598425197,
          "duration": 0.8000000000000007
        },
        {
          "name": "G2",
          "midi": 43,
          "time": 27.999999999999986,
          "velocity": 0.6299212598425197,
          "duration": 0.3999999999999986
        },
        {
          "name": "F2",
          "midi": 41,
          "time": 28.399999999999984,
          "velocity": 0.6299212598425197,
          "duration": 0.10000000000000142
        },
        {
          "name": "A2",
          "midi": 45,
          "time": 28.499999999999986,
          "velocity": 0.6299212598425197,
          "duration": 0.10000000000000142
        },
        {
          "name": "A#2",
          "midi": 46,
          "time": 28.599999999999987,
          "velocity": 0.6299212598425197,
          "duration": 0.10000000000000142
        },
        {
          "name": "B2",
          "midi": 47,
          "time": 28.69999999999999,
          "velocity": 0.6299212598425197,
          "duration": 0.10000000000000142
        },
        {
          "name": "C3",
          "midi": 48,
          "time": 28.79999999999999,
          "velocity": 0.6299212598425197,
          "duration": 1.6000000000000014
        },
        {
          "name": "D#3",
          "midi": 51,
          "time": 30.39999999999999,
          "velocity": 0.6299212598425197,
          "duration": 1.6000000000000014
        },
        {
          "name": "F3",
          "midi": 53,
          "time": 31.999999999999993,
          "velocity": 0.6299212598425197,
          "duration": 0.7999999999999972
        },
        {
          "name": "A#2",
          "midi": 46,
          "time": 32.79999999999999,
          "velocity": 0.6299212598425197,
          "duration": 0.7999999999999972
        },
        {
          "name": "D#3",
          "midi": 51,
          "time": 33.59999999999999,
          "velocity": 0.6299212598425197,
          "duration": 0.3999999999999986
        },
        {
          "name": "D#3",
          "midi": 51,
          "time": 33.999999999999986,
          "velocity": 0.6299212598425197,
          "duration": 0.10000000000000142
        },
        {
          "name": "F3",
          "midi": 53,
          "time": 34.09999999999999,
          "velocity": 0.6299212598425197,
          "duration": 0.20000000000000284
        },
        {
          "name": "D#3",
          "midi": 51,
          "time": 34.29999999999999,
          "velocity": 0.6299212598425197,
          "duration": 0.10000000000000142
        },
        {
          "name": "G3",
          "midi": 55,
          "time": 34.39999999999999,
          "velocity": 0.6299212598425197,
          "duration": 0.3999999999999986
        },
        {
          "name": "F3",
          "midi": 53,
          "time": 34.79999999999999,
          "velocity": 0.6299212598425197,
          "duration": 0.3999999999999986
        },
        {
          "name": "G3",
          "midi": 55,
          "time": 35.19999999999999,
          "velocity": 0.6299212598425197,
          "duration": 0.6000000000000014
        },
        {
          "name": "G3",
          "midi": 55,
          "time": 35.79999999999999,
          "velocity": 0.6299212598425197,
          "duration": 0.3999999999999986
        },
        {
          "name": "G3",
          "midi": 55,
          "time": 36.19999999999999,
          "velocity": 0.6299212598425197,
          "duration": 0.20000000000000284
        },
        {
          "name": "F3",
          "midi": 53,
          "time": 36.39999999999999,
          "velocity": 0.6299212598425197,
          "duration": 0.3999999999999986
        },
        {
          "name": "D#3",
          "midi": 51,
          "time": 36.79999999999999,
          "velocity": 0.6299212598425197,
          "duration": 0.6000000000000014
        },
        {
          "name": "D#3",
          "midi": 51,
          "time": 37.39999999999999,
          "velocity": 0.6299212598425197,
          "duration": 0.3999999999999986
        },
        {
          "name": "D#3",
          "midi": 51,
          "time": 37.79999999999999,
          "velocity": 0.6299212598425197,
          "duration": 0.20000000000000284
        },
        {
          "name": "F3",
          "midi": 53,
          "time": 37.99999999999999,
          "velocity": 0.6299212598425197,
          "duration": 0.3999999999999986
        },
        {
          "name": "G3",
          "midi": 55,
          "time": 38.39999999999999,
          "velocity": 0.6299212598425197,
          "duration": 0.6000000000000014
        },
        {
          "name": "G3",
          "midi": 55,
          "time": 38.99999999999999,
          "velocity": 0.6299212598425197,
          "duration": 0.3999999999999986
        },
        {
          "name": "G3",
          "midi": 55,
          "time": 39.39999999999999,
          "velocity": 0.6299212598425197,
          "duration": 0.20000000000000284
        },
        {
          "name": "F3",
          "midi": 53,
          "time": 39.599999999999994,
          "velocity": 0.6299212598425197,
          "duration": 0.3999999999999986
        },
        {
          "name": "D#3",
          "midi": 51,
          "time": 39.99999999999999,
          "velocity": 0.6299212598425197,
          "duration": 0.3999999999999986
        },
        {
          "name": "D#3",
          "midi": 51,
          "time": 40.49999999999999,
          "velocity": 0.6299212598425197,
          "duration": 0.10000000000000142
        },
        {
          "name": "F3",
          "midi": 53,
          "time": 40.599999999999994,
          "velocity": 0.6299212598425197,
          "duration": 0.10000000000000142
        },
        {
          "name": "G3",
          "midi": 55,
          "time": 40.699999999999996,
          "velocity": 0.6299212598425197,
          "duration": 0.10000000000000142
        },
        {
          "name": "A3",
          "midi": 57,
          "time": 40.8,
          "velocity": 0.6299212598425197,
          "duration": 0.10000000000000142
        },
        {
          "name": "A#3",
          "midi": 58,
          "time": 40.9,
          "velocity": 0.6299212598425197,
          "duration": 0.10000000000000142
        },
        {
          "name": "A3",
          "midi": 57,
          "time": 41,
          "velocity": 0.6299212598425197,
          "duration": 0.20000000000000284
        },
        {
          "name": "F3",
          "midi": 53,
          "time": 41.2,
          "velocity": 0.6299212598425197,
          "duration": 0.3999999999999986
        },
        {
          "name": "G3",
          "midi": 55,
          "time": 41.6,
          "velocity": 0.6299212598425197,
          "duration": 0.6000000000000014
        },
        {
          "name": "G3",
          "midi": 55,
          "time": 42.2,
          "velocity": 0.6299212598425197,
          "duration": 0.3999999999999986
        },
        {
          "name": "G3",
          "midi": 55,
          "time": 42.6,
          "velocity": 0.6299212598425197,
          "duration": 0.20000000000000284
        },
        {
          "name": "F3",
          "midi": 53,
          "time": 42.800000000000004,
          "velocity": 0.6299212598425197,
          "duration": 0.3999999999999986
        },
        {
          "name": "D#3",
          "midi": 51,
          "time": 43.2,
          "velocity": 0.6299212598425197,
          "duration": 0.6000000000000014
        },
        {
          "name": "D#3",
          "midi": 51,
          "time": 43.800000000000004,
          "velocity": 0.6299212598425197,
          "duration": 0.3999999999999986
        },
        {
          "name": "D#3",
          "midi": 51,
          "time": 44.2,
          "velocity": 0.6299212598425197,
          "duration": 0.20000000000000284
        },
        {
          "name": "F3",
          "midi": 53,
          "time": 44.400000000000006,
          "velocity": 0.6299212598425197,
          "duration": 0.3999999999999986
        },
        {
          "name": "G3",
          "midi": 55,
          "time": 44.800000000000004,
          "velocity": 0.6299212598425197,
          "duration": 0.6000000000000014
        },
        {
          "name": "G3",
          "midi": 55,
          "time": 45.400000000000006,
          "velocity": 0.6299212598425197,
          "duration": 0.3999999999999986
        },
        {
          "name": "G3",
          "midi": 55,
          "time": 45.800000000000004,
          "velocity": 0.6299212598425197,
          "duration": 0.20000000000000284
        },
        {
          "name": "A#3",
          "midi": 58,
          "time": 46.00000000000001,
          "velocity": 0.6299212598425197,
          "duration": 0.3999999999999986
        },
        {
          "name": "F3",
          "midi": 53,
          "time": 46.400000000000006,
          "velocity": 0.6299212598425197,
          "duration": 0.6000000000000014
        },
        {
          "name": "F3",
          "midi": 53,
          "time": 47.00000000000001,
          "velocity": 0.6299212598425197,
          "duration": 0.3999999999999986
        },
        {
          "name": "C3",
          "midi": 48,
          "time": 51.2,
          "velocity": 0.6299212598425197,
          "duration": 0.10000000000000142
        },
        {
          "name": "A#2",
          "midi": 46,
          "time": 51.300000000000004,
          "velocity": 0.6299212598425197,
          "duration": 0.10000000000000142
        },
        {
          "name": "C3",
          "midi": 48,
          "time": 51.400000000000006,
          "velocity": 0.6299212598425197,
          "duration": 0.10000000000000142
        },
        {
          "name": "F2",
          "midi": 41,
          "time": 51.50000000000001,
          "velocity": 0.6299212598425197,
          "duration": 0.20000000000000284
        },
        {
          "name": "F2",
          "midi": 41,
          "time": 51.70000000000001,
          "velocity": 0.6299212598425197,
          "duration": 0.10000000000000142
        },
        {
          "name": "G#2",
          "midi": 44,
          "time": 51.80000000000001,
          "velocity": 0.6299212598425197,
          "duration": 0.10000000000000142
        },
        {
          "name": "A#2",
          "midi": 46,
          "time": 51.90000000000001,
          "velocity": 0.6299212598425197,
          "duration": 0.10000000000000142
        },
        {
          "name": "C3",
          "midi": 48,
          "time": 52.000000000000014,
          "velocity": 0.6299212598425197,
          "duration": 0.10000000000000142
        },
        {
          "name": "A#2",
          "midi": 46,
          "time": 52.100000000000016,
          "velocity": 0.6299212598425197,
          "duration": 0.10000000000000142
        },
        {
          "name": "C3",
          "midi": 48,
          "time": 52.20000000000002,
          "velocity": 0.6299212598425197,
          "duration": 0.10000000000000142
        },
        {
          "name": "D#3",
          "midi": 51,
          "time": 52.30000000000002,
          "velocity": 0.6299212598425197,
          "duration": 0.20000000000000284
        },
        {
          "name": "D#3",
          "midi": 51,
          "time": 52.50000000000002,
          "velocity": 0.6299212598425197,
          "duration": 0.10000000000000142
        },
        {
          "name": "D3",
          "midi": 50,
          "time": 52.60000000000002,
          "velocity": 0.6299212598425197,
          "duration": 0.10000000000000142
        },
        {
          "name": "D#3",
          "midi": 51,
          "time": 52.700000000000024,
          "velocity": 0.6299212598425197,
          "duration": 0.10000000000000142
        },
        {
          "name": "C3",
          "midi": 48,
          "time": 52.800000000000026,
          "velocity": 0.6299212598425197,
          "duration": 0.10000000000000142
        },
        {
          "name": "A#2",
          "midi": 46,
          "time": 52.90000000000003,
          "velocity": 0.6299212598425197,
          "duration": 0.10000000000000142
        },
        {
          "name": "C3",
          "midi": 48,
          "time": 53.00000000000003,
          "velocity": 0.6299212598425197,
          "duration": 0.10000000000000142
        },
        {
          "name": "F2",
          "midi": 41,
          "time": 53.10000000000003,
          "velocity": 0.6299212598425197,
          "duration": 0.20000000000000284
        },
        {
          "name": "G#2",
          "midi": 44,
          "time": 53.30000000000003,
          "velocity": 0.6299212598425197,
          "duration": 0.10000000000000142
        },
        {
          "name": "A#2",
          "midi": 46,
          "time": 53.400000000000034,
          "velocity": 0.6299212598425197,
          "duration": 0.10000000000000142
        },
        {
          "name": "C3",
          "midi": 48,
          "time": 53.500000000000036,
          "velocity": 0.6299212598425197,
          "duration": 0.10000000000000142
        },
        {
          "name": "D#3",
          "midi": 51,
          "time": 53.70000000000004,
          "velocity": 0.6299212598425197,
          "duration": 0.10000000000000142
        },
        {
          "name": "D3",
          "midi": 50,
          "time": 53.80000000000004,
          "velocity": 0.6299212598425197,
          "duration": 0.10000000000000142
        },
        {
          "name": "D#3",
          "midi": 51,
          "time": 53.90000000000004,
          "velocity": 0.6299212598425197,
          "duration": 0.10000000000000142
        },
        {
          "name": "D3",
          "midi": 50,
          "time": 54.00000000000004,
          "velocity": 0.6299212598425197,
          "duration": 0.29999999999999716
        },
        {
          "name": "A#2",
          "midi": 46,
          "time": 54.30000000000004,
          "velocity": 0.6299212598425197,
          "duration": 0.10000000000000142
        },
        {
          "name": "C3",
          "midi": 48,
          "time": 54.40000000000004,
          "velocity": 0.6299212598425197,
          "duration": 0.10000000000000142
        },
        {
          "name": "A#2",
          "midi": 46,
          "time": 54.50000000000004,
          "velocity": 0.6299212598425197,
          "duration": 0.10000000000000142
        },
        {
          "name": "C3",
          "midi": 48,
          "time": 54.600000000000044,
          "velocity": 0.6299212598425197,
          "duration": 0.10000000000000142
        },
        {
          "name": "F2",
          "midi": 41,
          "time": 54.700000000000045,
          "velocity": 0.6299212598425197,
          "duration": 0.20000000000000284
        },
        {
          "name": "F2",
          "midi": 41,
          "time": 54.90000000000005,
          "velocity": 0.6299212598425197,
          "duration": 0.10000000000000142
        },
        {
          "name": "G#2",
          "midi": 44,
          "time": 55.00000000000005,
          "velocity": 0.6299212598425197,
          "duration": 0.10000000000000142
        },
        {
          "name": "A#2",
          "midi": 46,
          "time": 55.10000000000005,
          "velocity": 0.6299212598425197,
          "duration": 0.10000000000000142
        },
        {
          "name": "C3",
          "midi": 48,
          "time": 55.20000000000005,
          "velocity": 0.6299212598425197,
          "duration": 0.10000000000000142
        },
        {
          "name": "A#2",
          "midi": 46,
          "time": 55.300000000000054,
          "velocity": 0.6299212598425197,
          "duration": 0.10000000000000142
        },
        {
          "name": "C3",
          "midi": 48,
          "time": 55.400000000000055,
          "velocity": 0.6299212598425197,
          "duration": 0.10000000000000142
        },
        {
          "name": "D#3",
          "midi": 51,
          "time": 55.50000000000006,
          "velocity": 0.6299212598425197,
          "duration": 0.20000000000000284
        },
        {
          "name": "D#3",
          "midi": 51,
          "time": 55.70000000000006,
          "velocity": 0.6299212598425197,
          "duration": 0.10000000000000142
        },
        {
          "name": "D3",
          "midi": 50,
          "time": 55.80000000000006,
          "velocity": 0.6299212598425197,
          "duration": 0.10000000000000142
        },
        {
          "name": "D#3",
          "midi": 51,
          "time": 55.90000000000006,
          "velocity": 0.6299212598425197,
          "duration": 0.10000000000000142
        },
        {
          "name": "C3",
          "midi": 48,
          "time": 56.000000000000064,
          "velocity": 0.6299212598425197,
          "duration": 0.10000000000000142
        },
        {
          "name": "A#2",
          "midi": 46,
          "time": 56.100000000000065,
          "velocity": 0.6299212598425197,
          "duration": 0.10000000000000142
        },
        {
          "name": "C3",
          "midi": 48,
          "time": 56.20000000000007,
          "velocity": 0.6299212598425197,
          "duration": 0.10000000000000142
        },
        {
          "name": "F2",
          "midi": 41,
          "time": 56.30000000000007,
          "velocity": 0.6299212598425197,
          "duration": 0.20000000000000284
        },
        {
          "name": "G#2",
          "midi": 44,
          "time": 56.50000000000007,
          "velocity": 0.6299212598425197,
          "duration": 0.10000000000000142
        },
        {
          "name": "A#2",
          "midi": 46,
          "time": 56.60000000000007,
          "velocity": 0.6299212598425197,
          "duration": 0.10000000000000142
        },
        {
          "name": "C3",
          "midi": 48,
          "time": 56.700000000000074,
          "velocity": 0.6299212598425197,
          "duration": 0.10000000000000142
        },
        {
          "name": "D#3",
          "midi": 51,
          "time": 56.90000000000008,
          "velocity": 0.6299212598425197,
          "duration": 0.10000000000000142
        },
        {
          "name": "D3",
          "midi": 50,
          "time": 57.00000000000008,
          "velocity": 0.6299212598425197,
          "duration": 0.10000000000000142
        },
        {
          "name": "D#3",
          "midi": 51,
          "time": 57.10000000000008,
          "velocity": 0.6299212598425197,
          "duration": 0.10000000000000142
        },
        {
          "name": "D3",
          "midi": 50,
          "time": 57.20000000000008,
          "velocity": 0.6299212598425197,
          "duration": 0.29999999999999716
        },
        {
          "name": "A#2",
          "midi": 46,
          "time": 57.50000000000008,
          "velocity": 0.6299212598425197,
          "duration": 0.10000000000000142
        },
        {
          "name": "C3",
          "midi": 48,
          "time": 57.60000000000008,
          "velocity": 0.6299212598425197,
          "duration": 0.10000000000000142
        },
        {
          "name": "A#2",
          "midi": 46,
          "time": 57.70000000000008,
          "velocity": 0.6299212598425197,
          "duration": 0.10000000000000142
        },
        {
          "name": "C3",
          "midi": 48,
          "time": 57.80000000000008,
          "velocity": 0.6299212598425197,
          "duration": 0.10000000000000142
        },
        {
          "name": "F2",
          "midi": 41,
          "time": 57.900000000000084,
          "velocity": 0.6299212598425197,
          "duration": 0.20000000000000284
        },
        {
          "name": "F2",
          "midi": 41,
          "time": 58.10000000000009,
          "velocity": 0.6299212598425197,
          "duration": 0.10000000000000142
        },
        {
          "name": "G#2",
          "midi": 44,
          "time": 58.20000000000009,
          "velocity": 0.6299212598425197,
          "duration": 0.10000000000000142
        },
        {
          "name": "A#2",
          "midi": 46,
          "time": 58.30000000000009,
          "velocity": 0.6299212598425197,
          "duration": 0.10000000000000142
        },
        {
          "name": "C3",
          "midi": 48,
          "time": 58.40000000000009,
          "velocity": 0.6299212598425197,
          "duration": 0.10000000000000142
        },
        {
          "name": "A#2",
          "midi": 46,
          "time": 58.50000000000009,
          "velocity": 0.6299212598425197,
          "duration": 0.10000000000000142
        },
        {
          "name": "C3",
          "midi": 48,
          "time": 58.600000000000094,
          "velocity": 0.6299212598425197,
          "duration": 0.10000000000000142
        },
        {
          "name": "D#3",
          "midi": 51,
          "time": 58.700000000000095,
          "velocity": 0.6299212598425197,
          "duration": 0.20000000000000284
        },
        {
          "name": "D#3",
          "midi": 51,
          "time": 58.9000000000001,
          "velocity": 0.6299212598425197,
          "duration": 0.10000000000000142
        },
        {
          "name": "D3",
          "midi": 50,
          "time": 59.0000000000001,
          "velocity": 0.6299212598425197,
          "duration": 0.10000000000000142
        },
        {
          "name": "D#3",
          "midi": 51,
          "time": 59.1000000000001,
          "velocity": 0.6299212598425197,
          "duration": 0.10000000000000142
        },
        {
          "name": "C3",
          "midi": 48,
          "time": 59.2000000000001,
          "velocity": 0.6299212598425197,
          "duration": 0.10000000000000142
        },
        {
          "name": "A#2",
          "midi": 46,
          "time": 59.300000000000104,
          "velocity": 0.6299212598425197,
          "duration": 0.10000000000000142
        },
        {
          "name": "C3",
          "midi": 48,
          "time": 59.400000000000105,
          "velocity": 0.6299212598425197,
          "duration": 0.10000000000000142
        },
        {
          "name": "F2",
          "midi": 41,
          "time": 59.50000000000011,
          "velocity": 0.6299212598425197,
          "duration": 0.20000000000000284
        },
        {
          "name": "G#2",
          "midi": 44,
          "time": 59.70000000000011,
          "velocity": 0.6299212598425197,
          "duration": 0.10000000000000142
        },
        {
          "name": "A#2",
          "midi": 46,
          "time": 59.80000000000011,
          "velocity": 0.6299212598425197,
          "duration": 0.10000000000000142
        },
        {
          "name": "C3",
          "midi": 48,
          "time": 59.90000000000011,
          "velocity": 0.6299212598425197,
          "duration": 0.10000000000000142
        },
        {
          "name": "D#3",
          "midi": 51,
          "time": 60.100000000000115,
          "velocity": 0.6299212598425197,
          "duration": 0.10000000000000142
        },
        {
          "name": "D3",
          "midi": 50,
          "time": 60.20000000000012,
          "velocity": 0.6299212598425197,
          "duration": 0.10000000000000142
        },
        {
          "name": "D#3",
          "midi": 51,
          "time": 60.30000000000012,
          "velocity": 0.6299212598425197,
          "duration": 0.10000000000000142
        },
        {
          "name": "D3",
          "midi": 50,
          "time": 60.40000000000012,
          "velocity": 0.6299212598425197,
          "duration": 0.29999999999999716
        },
        {
          "name": "A#2",
          "midi": 46,
          "time": 60.70000000000012,
          "velocity": 0.6299212598425197,
          "duration": 0.10000000000000142
        },
        {
          "name": "C3",
          "midi": 48,
          "time": 60.80000000000012,
          "velocity": 0.6299212598425197,
          "duration": 0.10000000000000142
        },
        {
          "name": "A#2",
          "midi": 46,
          "time": 60.90000000000012,
          "velocity": 0.6299212598425197,
          "duration": 0.10000000000000142
        },
        {
          "name": "C3",
          "midi": 48,
          "time": 61.00000000000012,
          "velocity": 0.6299212598425197,
          "duration": 0.10000000000000142
        },
        {
          "name": "F2",
          "midi": 41,
          "time": 61.10000000000012,
          "velocity": 0.6299212598425197,
          "duration": 0.20000000000000284
        },
        {
          "name": "F2",
          "midi": 41,
          "time": 61.300000000000125,
          "velocity": 0.6299212598425197,
          "duration": 0.10000000000000142
        },
        {
          "name": "G#2",
          "midi": 44,
          "time": 61.40000000000013,
          "velocity": 0.6299212598425197,
          "duration": 0.10000000000000142
        },
        {
          "name": "A#2",
          "midi": 46,
          "time": 61.50000000000013,
          "velocity": 0.6299212598425197,
          "duration": 0.10000000000000142
        },
        {
          "name": "C3",
          "midi": 48,
          "time": 61.60000000000013,
          "velocity": 0.6299212598425197,
          "duration": 0.10000000000000142
        },
        {
          "name": "A#2",
          "midi": 46,
          "time": 61.70000000000013,
          "velocity": 0.6299212598425197,
          "duration": 0.10000000000000142
        },
        {
          "name": "C3",
          "midi": 48,
          "time": 61.80000000000013,
          "velocity": 0.6299212598425197,
          "duration": 0.10000000000000142
        },
        {
          "name": "D#3",
          "midi": 51,
          "time": 61.900000000000134,
          "velocity": 0.6299212598425197,
          "duration": 0.20000000000000284
        },
        {
          "name": "D#3",
          "midi": 51,
          "time": 62.100000000000136,
          "velocity": 0.6299212598425197,
          "duration": 0.10000000000000142
        },
        {
          "name": "D3",
          "midi": 50,
          "time": 62.20000000000014,
          "velocity": 0.6299212598425197,
          "duration": 0.10000000000000142
        },
        {
          "name": "D#3",
          "midi": 51,
          "time": 62.30000000000014,
          "velocity": 0.6299212598425197,
          "duration": 0.10000000000000142
        },
        {
          "name": "C3",
          "midi": 48,
          "time": 62.40000000000014,
          "velocity": 0.6299212598425197,
          "duration": 0.10000000000000142
        },
        {
          "name": "A#2",
          "midi": 46,
          "time": 62.50000000000014,
          "velocity": 0.6299212598425197,
          "duration": 0.10000000000000142
        },
        {
          "name": "C3",
          "midi": 48,
          "time": 62.60000000000014,
          "velocity": 0.6299212598425197,
          "duration": 0.10000000000000142
        },
        {
          "name": "F2",
          "midi": 41,
          "time": 62.700000000000145,
          "velocity": 0.6299212598425197,
          "duration": 0.20000000000000284
        },
        {
          "name": "G#2",
          "midi": 44,
          "time": 62.90000000000015,
          "velocity": 0.6299212598425197,
          "duration": 0.10000000000000142
        },
        {
          "name": "A#2",
          "midi": 46,
          "time": 63.00000000000015,
          "velocity": 0.6299212598425197,
          "duration": 0.10000000000000142
        },
        {
          "name": "C3",
          "midi": 48,
          "time": 63.10000000000015,
          "velocity": 0.6299212598425197,
          "duration": 0.10000000000000142
        },
        {
          "name": "D#3",
          "midi": 51,
          "time": 63.30000000000015,
          "velocity": 0.6299212598425197,
          "duration": 0.10000000000000142
        },
        {
          "name": "D3",
          "midi": 50,
          "time": 63.400000000000155,
          "velocity": 0.6299212598425197,
          "duration": 0.10000000000000142
        },
        {
          "name": "D#3",
          "midi": 51,
          "time": 63.500000000000156,
          "velocity": 0.6299212598425197,
          "duration": 0.10000000000000142
        },
        {
          "name": "D3",
          "midi": 50,
          "time": 63.60000000000016,
          "velocity": 0.6299212598425197,
          "duration": 0.29999999999999716
        },
        {
          "name": "A#2",
          "midi": 46,
          "time": 63.900000000000155,
          "velocity": 0.6299212598425197,
          "duration": 0.10000000000000142
        },
        {
          "name": "C3",
          "midi": 48,
          "time": 64.00000000000016,
          "velocity": 0.6299212598425197,
          "duration": 0.4000000000000057
        },
        {
          "name": "D3",
          "midi": 50,
          "time": 64.40000000000016,
          "velocity": 0.6299212598425197,
          "duration": 0.29999999999999716
        },
        {
          "name": "D#3",
          "midi": 51,
          "time": 64.70000000000016,
          "velocity": 0.6299212598425197,
          "duration": 0.20000000000000284
        },
        {
          "name": "C3",
          "midi": 48,
          "time": 64.90000000000016,
          "velocity": 0.6299212598425197,
          "duration": 0.09999999999999432
        },
        {
          "name": "G3",
          "midi": 55,
          "time": 65.00000000000016,
          "velocity": 0.6299212598425197,
          "duration": 0.20000000000000284
        },
        {
          "name": "A#3",
          "midi": 58,
          "time": 65.20000000000016,
          "velocity": 0.6299212598425197,
          "duration": 0.13333333333333997
        },
        {
          "name": "B3",
          "midi": 59,
          "time": 65.3333333333335,
          "velocity": 0.6299212598425197,
          "duration": 0.13333333333333997
        },
        {
          "name": "C4",
          "midi": 60,
          "time": 65.46666666666684,
          "velocity": 0.6299212598425197,
          "duration": 0.13333333333333997
        },
        {
          "name": "D3",
          "midi": 50,
          "time": 65.60000000000018,
          "velocity": 0.6299212598425197,
          "duration": 0.4000000000000057
        },
        {
          "name": "D#3",
          "midi": 51,
          "time": 66.00000000000018,
          "velocity": 0.6299212598425197,
          "duration": 0.29999999999999716
        },
        {
          "name": "F3",
          "midi": 53,
          "time": 66.30000000000018,
          "velocity": 0.6299212598425197,
          "duration": 0.4000000000000057
        },
        {
          "name": "D#3",
          "midi": 51,
          "time": 66.70000000000019,
          "velocity": 0.6299212598425197,
          "duration": 0.09999999999999432
        },
        {
          "name": "F3",
          "midi": 53,
          "time": 66.80000000000018,
          "velocity": 0.6299212598425197,
          "duration": 0.4000000000000057
        },
        {
          "name": "C3",
          "midi": 48,
          "time": 67.20000000000019,
          "velocity": 0.6299212598425197,
          "duration": 0.4000000000000057
        },
        {
          "name": "D3",
          "midi": 50,
          "time": 67.6000000000002,
          "velocity": 0.6299212598425197,
          "duration": 0.29999999999999716
        },
        {
          "name": "D#3",
          "midi": 51,
          "time": 67.90000000000019,
          "velocity": 0.6299212598425197,
          "duration": 0.20000000000000284
        },
        {
          "name": "C3",
          "midi": 48,
          "time": 68.1000000000002,
          "velocity": 0.6299212598425197,
          "duration": 0.09999999999999432
        },
        {
          "name": "G3",
          "midi": 55,
          "time": 68.20000000000019,
          "velocity": 0.6299212598425197,
          "duration": 0.20000000000000284
        },
        {
          "name": "A#3",
          "midi": 58,
          "time": 68.40000000000019,
          "velocity": 0.6299212598425197,
          "duration": 0.13333333333333997
        },
        {
          "name": "B3",
          "midi": 59,
          "time": 68.53333333333353,
          "velocity": 0.6299212598425197,
          "duration": 0.13333333333333997
        },
        {
          "name": "C4",
          "midi": 60,
          "time": 68.66666666666687,
          "velocity": 0.6299212598425197,
          "duration": 0.13333333333333997
        },
        {
          "name": "D3",
          "midi": 50,
          "time": 68.80000000000021,
          "velocity": 0.6299212598425197,
          "duration": 0.4000000000000057
        },
        {
          "name": "D#3",
          "midi": 51,
          "time": 69.20000000000022,
          "velocity": 0.6299212598425197,
          "duration": 0.29999999999999716
        },
        {
          "name": "F3",
          "midi": 53,
          "time": 69.50000000000021,
          "velocity": 0.6299212598425197,
          "duration": 0.5
        },
        {
          "name": "A#3",
          "midi": 58,
          "time": 70.00000000000021,
          "velocity": 0.6299212598425197,
          "duration": 0.4000000000000057
        },
        {
          "name": "G4",
          "midi": 67,
          "time": 70.40000000000022,
          "velocity": 0.6299212598425197,
          "duration": 0.09999999999999432
        },
        {
          "name": "F4",
          "midi": 65,
          "time": 70.50000000000021,
          "velocity": 0.6299212598425197,
          "duration": 0.09999999999999432
        },
        {
          "name": "D5",
          "midi": 74,
          "time": 70.60000000000021,
          "velocity": 0.6299212598425197,
          "duration": 0.09999999999999432
        },
        {
          "name": "C5",
          "midi": 72,
          "time": 70.7000000000002,
          "velocity": 0.6299212598425197,
          "duration": 0.09999999999999432
        },
        {
          "name": "A#4",
          "midi": 70,
          "time": 70.8000000000002,
          "velocity": 0.6299212598425197,
          "duration": 0.09999999999999432
        },
        {
          "name": "A4",
          "midi": 69,
          "time": 70.90000000000019,
          "velocity": 0.6299212598425197,
          "duration": 0.09999999999999432
        },
        {
          "name": "G4",
          "midi": 67,
          "time": 71.00000000000018,
          "velocity": 0.6299212598425197,
          "duration": 0.09999999999999432
        },
        {
          "name": "F4",
          "midi": 65,
          "time": 71.10000000000018,
          "velocity": 0.6299212598425197,
          "duration": 0.09999999999999432
        },
        {
          "name": "G4",
          "midi": 67,
          "time": 71.20000000000017,
          "velocity": 0.6299212598425197,
          "duration": 0.09999999999999432
        },
        {
          "name": "F4",
          "midi": 65,
          "time": 71.30000000000017,
          "velocity": 0.6299212598425197,
          "duration": 0.09999999999999432
        },
        {
          "name": "D4",
          "midi": 62,
          "time": 71.40000000000016,
          "velocity": 0.6299212598425197,
          "duration": 0.09999999999999432
        },
        {
          "name": "C4",
          "midi": 60,
          "time": 71.50000000000016,
          "velocity": 0.6299212598425197,
          "duration": 0.09999999999999432
        },
        {
          "name": "D4",
          "midi": 62,
          "time": 71.60000000000015,
          "velocity": 0.6299212598425197,
          "duration": 0.09999999999999432
        },
        {
          "name": "C4",
          "midi": 60,
          "time": 71.70000000000014,
          "velocity": 0.6299212598425197,
          "duration": 0.09999999999999432
        },
        {
          "name": "A#3",
          "midi": 58,
          "time": 71.80000000000014,
          "velocity": 0.6299212598425197,
          "duration": 0.09999999999999432
        },
        {
          "name": "A3",
          "midi": 57,
          "time": 71.90000000000013,
          "velocity": 0.6299212598425197,
          "duration": 0.09999999999999432
        },
        {
          "name": "C3",
          "midi": 48,
          "time": 72.00000000000013,
          "velocity": 0.6299212598425197,
          "duration": 0.4000000000000057
        },
        {
          "name": "D3",
          "midi": 50,
          "time": 72.40000000000013,
          "velocity": 0.6299212598425197,
          "duration": 0.29999999999999716
        },
        {
          "name": "D#3",
          "midi": 51,
          "time": 72.70000000000013,
          "velocity": 0.6299212598425197,
          "duration": 0.09999999999999432
        },
        {
          "name": "C3",
          "midi": 48,
          "time": 72.80000000000013,
          "velocity": 0.6299212598425197,
          "duration": 0.13333333333333997
        },
        {
          "name": "D3",
          "midi": 50,
          "time": 72.93333333333347,
          "velocity": 0.6299212598425197,
          "duration": 0.13333333333333997
        },
        {
          "name": "D#3",
          "midi": 51,
          "time": 73.0666666666668,
          "velocity": 0.6299212598425197,
          "duration": 0.13333333333333997
        },
        {
          "name": "G2",
          "midi": 43,
          "time": 73.20000000000014,
          "velocity": 0.6299212598425197,
          "duration": 0.13333333333333997
        },
        {
          "name": "A#2",
          "midi": 46,
          "time": 73.33333333333348,
          "velocity": 0.6299212598425197,
          "duration": 0.13333333333333997
        },
        {
          "name": "B2",
          "midi": 47,
          "time": 73.46666666666682,
          "velocity": 0.6299212598425197,
          "duration": 0.13333333333333997
        },
        {
          "name": "C3",
          "midi": 48,
          "time": 73.60000000000016,
          "velocity": 0.6299212598425197,
          "duration": 0.20000000000000284
        },
        {
          "name": "C3",
          "midi": 48,
          "time": 73.80000000000017,
          "velocity": 0.6299212598425197,
          "duration": 0.20000000000000284
        },
        {
          "name": "D3",
          "midi": 50,
          "time": 74.00000000000017,
          "velocity": 0.6299212598425197,
          "duration": 0.4000000000000057
        },
        {
          "name": "D#3",
          "midi": 51,
          "time": 74.40000000000018,
          "velocity": 0.6299212598425197,
          "duration": 0.29999999999999716
        },
        {
          "name": "F3",
          "midi": 53,
          "time": 74.70000000000017,
          "velocity": 0.6299212598425197,
          "duration": 0.29999999999999716
        },
        {
          "name": "G3",
          "midi": 55,
          "time": 75.00000000000017,
          "velocity": 0.6299212598425197,
          "duration": 0.20000000000000284
        },
        {
          "name": "F3",
          "midi": 53,
          "time": 75.20000000000017,
          "velocity": 0.6299212598425197,
          "duration": 0.7999999999999972
        },
        {
          "name": "A#2",
          "midi": 46,
          "time": 76.00000000000017,
          "velocity": 0.6299212598425197,
          "duration": 0.7999999999999972
        },
        {
          "name": "D#3",
          "midi": 51,
          "time": 76.80000000000017,
          "velocity": 0.6299212598425197,
          "duration": 0.7999999999999972
        },
        {
          "name": "G2",
          "midi": 43,
          "time": 77.60000000000016,
          "velocity": 0.6299212598425197,
          "duration": 0.4000000000000057
        },
        {
          "name": "F2",
          "midi": 41,
          "time": 78.00000000000017,
          "velocity": 0.6299212598425197,
          "duration": 0.09999999999999432
        },
        {
          "name": "A2",
          "midi": 45,
          "time": 78.10000000000016,
          "velocity": 0.6299212598425197,
          "duration": 0.09999999999999432
        },
        {
          "name": "A#2",
          "midi": 46,
          "time": 78.20000000000016,
          "velocity": 0.6299212598425197,
          "duration": 0.09999999999999432
        },
        {
          "name": "B2",
          "midi": 47,
          "time": 78.30000000000015,
          "velocity": 0.6299212598425197,
          "duration": 0.09999999999999432
        },
        {
          "name": "C3",
          "midi": 48,
          "time": 78.40000000000015,
          "velocity": 0.6299212598425197,
          "duration": 1.5999999999999943
        },
        {
          "name": "D#3",
          "midi": 51,
          "time": 80.00000000000014,
          "velocity": 0.6299212598425197,
          "duration": 1.5999999999999943
        },
        {
          "name": "F3",
          "midi": 53,
          "time": 81.60000000000014,
          "velocity": 0.6299212598425197,
          "duration": 0.7999999999999972
        },
        {
          "name": "A#2",
          "midi": 46,
          "time": 82.40000000000013,
          "velocity": 0.6299212598425197,
          "duration": 0.7999999999999972
        },
        {
          "name": "D#3",
          "midi": 51,
          "time": 83.20000000000013,
          "velocity": 0.6299212598425197,
          "duration": 0.4000000000000057
        },
        {
          "name": "D#3",
          "midi": 51,
          "time": 83.60000000000014,
          "velocity": 0.6299212598425197,
          "duration": 0.09999999999999432
        },
        {
          "name": "F3",
          "midi": 53,
          "time": 83.70000000000013,
          "velocity": 0.6299212598425197,
          "duration": 0.20000000000000284
        },
        {
          "name": "D#3",
          "midi": 51,
          "time": 83.90000000000013,
          "velocity": 0.6299212598425197,
          "duration": 0.09999999999999432
        },
        {
          "name": "G3",
          "midi": 55,
          "time": 84.00000000000013,
          "velocity": 0.6299212598425197,
          "duration": 0.4000000000000057
        },
        {
          "name": "F3",
          "midi": 53,
          "time": 84.40000000000013,
          "velocity": 0.6299212598425197,
          "duration": 0.4000000000000057
        },
        {
          "name": "G3",
          "midi": 55,
          "time": 84.80000000000014,
          "velocity": 0.6299212598425197,
          "duration": 0.5999999999999943
        },
        {
          "name": "G3",
          "midi": 55,
          "time": 85.40000000000013,
          "velocity": 0.6299212598425197,
          "duration": 0.4000000000000057
        },
        {
          "name": "G3",
          "midi": 55,
          "time": 85.80000000000014,
          "velocity": 0.6299212598425197,
          "duration": 0.20000000000000284
        },
        {
          "name": "F3",
          "midi": 53,
          "time": 86.00000000000014,
          "velocity": 0.6299212598425197,
          "duration": 0.4000000000000057
        },
        {
          "name": "D#3",
          "midi": 51,
          "time": 86.40000000000015,
          "velocity": 0.6299212598425197,
          "duration": 0.5999999999999943
        },
        {
          "name": "D#3",
          "midi": 51,
          "time": 87.00000000000014,
          "velocity": 0.6299212598425197,
          "duration": 0.4000000000000057
        },
        {
          "name": "D#3",
          "midi": 51,
          "time": 87.40000000000015,
          "velocity": 0.6299212598425197,
          "duration": 0.20000000000000284
        },
        {
          "name": "F3",
          "midi": 53,
          "time": 87.60000000000015,
          "velocity": 0.6299212598425197,
          "duration": 0.4000000000000057
        },
        {
          "name": "G3",
          "midi": 55,
          "time": 88.00000000000016,
          "velocity": 0.6299212598425197,
          "duration": 0.5999999999999943
        },
        {
          "name": "G3",
          "midi": 55,
          "time": 88.60000000000015,
          "velocity": 0.6299212598425197,
          "duration": 0.4000000000000057
        },
        {
          "name": "G3",
          "midi": 55,
          "time": 89.00000000000016,
          "velocity": 0.6299212598425197,
          "duration": 0.20000000000000284
        },
        {
          "name": "F3",
          "midi": 53,
          "time": 89.20000000000016,
          "velocity": 0.6299212598425197,
          "duration": 0.4000000000000057
        },
        {
          "name": "D#3",
          "midi": 51,
          "time": 89.60000000000016,
          "velocity": 0.6299212598425197,
          "duration": 0.4000000000000057
        },
        {
          "name": "D#3",
          "midi": 51,
          "time": 90.10000000000016,
          "velocity": 0.6299212598425197,
          "duration": 0.09999999999999432
        },
        {
          "name": "F3",
          "midi": 53,
          "time": 90.20000000000016,
          "velocity": 0.6299212598425197,
          "duration": 0.09999999999999432
        },
        {
          "name": "G3",
          "midi": 55,
          "time": 90.30000000000015,
          "velocity": 0.6299212598425197,
          "duration": 0.09999999999999432
        },
        {
          "name": "A3",
          "midi": 57,
          "time": 90.40000000000015,
          "velocity": 0.6299212598425197,
          "duration": 0.09999999999999432
        },
        {
          "name": "A#3",
          "midi": 58,
          "time": 90.50000000000014,
          "velocity": 0.6299212598425197,
          "duration": 0.09999999999999432
        },
        {
          "name": "A3",
          "midi": 57,
          "time": 90.60000000000014,
          "velocity": 0.6299212598425197,
          "duration": 0.20000000000000284
        },
        {
          "name": "F3",
          "midi": 53,
          "time": 90.80000000000014,
          "velocity": 0.6299212598425197,
          "duration": 0.4000000000000057
        },
        {
          "name": "G3",
          "midi": 55,
          "time": 91.20000000000014,
          "velocity": 0.6299212598425197,
          "duration": 0.5999999999999943
        },
        {
          "name": "G3",
          "midi": 55,
          "time": 91.80000000000014,
          "velocity": 0.6299212598425197,
          "duration": 0.4000000000000057
        },
        {
          "name": "G3",
          "midi": 55,
          "time": 92.20000000000014,
          "velocity": 0.6299212598425197,
          "duration": 0.20000000000000284
        },
        {
          "name": "F3",
          "midi": 53,
          "time": 92.40000000000015,
          "velocity": 0.6299212598425197,
          "duration": 0.4000000000000057
        },
        {
          "name": "D#3",
          "midi": 51,
          "time": 92.80000000000015,
          "velocity": 0.6299212598425197,
          "duration": 0.5999999999999943
        },
        {
          "name": "D#3",
          "midi": 51,
          "time": 93.40000000000015,
          "velocity": 0.6299212598425197,
          "duration": 0.4000000000000057
        },
        {
          "name": "D#3",
          "midi": 51,
          "time": 93.80000000000015,
          "velocity": 0.6299212598425197,
          "duration": 0.20000000000000284
        },
        {
          "name": "F3",
          "midi": 53,
          "time": 94.00000000000016,
          "velocity": 0.6299212598425197,
          "duration": 0.4000000000000057
        },
        {
          "name": "G3",
          "midi": 55,
          "time": 94.40000000000016,
          "velocity": 0.6299212598425197,
          "duration": 0.5999999999999943
        },
        {
          "name": "G3",
          "midi": 55,
          "time": 95.00000000000016,
          "velocity": 0.6299212598425197,
          "duration": 0.4000000000000057
        },
        {
          "name": "G3",
          "midi": 55,
          "time": 95.40000000000016,
          "velocity": 0.6299212598425197,
          "duration": 0.20000000000000284
        },
        {
          "name": "A#3",
          "midi": 58,
          "time": 95.60000000000016,
          "velocity": 0.6299212598425197,
          "duration": 0.4000000000000057
        },
        {
          "name": "F3",
          "midi": 53,
          "time": 96.00000000000017,
          "velocity": 0.6299212598425197,
          "duration": 0.5999999999999943
        },
        {
          "name": "F3",
          "midi": 53,
          "time": 96.60000000000016,
          "velocity": 0.6299212598425197,
          "duration": 0.4000000000000057
        },
        {
          "name": "C3",
          "midi": 48,
          "time": 100.80000000000017,
          "velocity": 0.6299212598425197,
          "duration": 0.09999999999999432
        },
        {
          "name": "A#2",
          "midi": 46,
          "time": 100.90000000000016,
          "velocity": 0.6299212598425197,
          "duration": 0.09999999999999432
        },
        {
          "name": "C3",
          "midi": 48,
          "time": 101.00000000000016,
          "velocity": 0.6299212598425197,
          "duration": 0.09999999999999432
        },
        {
          "name": "F2",
          "midi": 41,
          "time": 101.10000000000015,
          "velocity": 0.6299212598425197,
          "duration": 0.20000000000000284
        },
        {
          "name": "F2",
          "midi": 41,
          "time": 101.30000000000015,
          "velocity": 0.6299212598425197,
          "duration": 0.09999999999999432
        },
        {
          "name": "G#2",
          "midi": 44,
          "time": 101.40000000000015,
          "velocity": 0.6299212598425197,
          "duration": 0.09999999999999432
        },
        {
          "name": "A#2",
          "midi": 46,
          "time": 101.50000000000014,
          "velocity": 0.6299212598425197,
          "duration": 0.09999999999999432
        },
        {
          "name": "C3",
          "midi": 48,
          "time": 101.60000000000014,
          "velocity": 0.6299212598425197,
          "duration": 0.09999999999999432
        },
        {
          "name": "A#2",
          "midi": 46,
          "time": 101.70000000000013,
          "velocity": 0.6299212598425197,
          "duration": 0.09999999999999432
        },
        {
          "name": "C3",
          "midi": 48,
          "time": 101.80000000000013,
          "velocity": 0.6299212598425197,
          "duration": 0.09999999999999432
        },
        {
          "name": "D#3",
          "midi": 51,
          "time": 101.90000000000012,
          "velocity": 0.6299212598425197,
          "duration": 0.20000000000000284
        },
        {
          "name": "D#3",
          "midi": 51,
          "time": 102.10000000000012,
          "velocity": 0.6299212598425197,
          "duration": 0.09999999999999432
        },
        {
          "name": "D3",
          "midi": 50,
          "time": 102.20000000000012,
          "velocity": 0.6299212598425197,
          "duration": 0.09999999999999432
        },
        {
          "name": "D#3",
          "midi": 51,
          "time": 102.30000000000011,
          "velocity": 0.6299212598425197,
          "duration": 0.09999999999999432
        },
        {
          "name": "C3",
          "midi": 48,
          "time": 102.4000000000001,
          "velocity": 0.6299212598425197,
          "duration": 0.09999999999999432
        },
        {
          "name": "A#2",
          "midi": 46,
          "time": 102.5000000000001,
          "velocity": 0.6299212598425197,
          "duration": 0.09999999999999432
        },
        {
          "name": "C3",
          "midi": 48,
          "time": 102.6000000000001,
          "velocity": 0.6299212598425197,
          "duration": 0.09999999999999432
        },
        {
          "name": "F2",
          "midi": 41,
          "time": 102.70000000000009,
          "velocity": 0.6299212598425197,
          "duration": 0.20000000000000284
        },
        {
          "name": "G#2",
          "midi": 44,
          "time": 102.90000000000009,
          "velocity": 0.6299212598425197,
          "duration": 0.09999999999999432
        },
        {
          "name": "A#2",
          "midi": 46,
          "time": 103.00000000000009,
          "velocity": 0.6299212598425197,
          "duration": 0.09999999999999432
        },
        {
          "name": "C3",
          "midi": 48,
          "time": 103.10000000000008,
          "velocity": 0.6299212598425197,
          "duration": 0.09999999999999432
        },
        {
          "name": "D#3",
          "midi": 51,
          "time": 103.30000000000007,
          "velocity": 0.6299212598425197,
          "duration": 0.09999999999999432
        },
        {
          "name": "D3",
          "midi": 50,
          "time": 103.40000000000006,
          "velocity": 0.6299212598425197,
          "duration": 0.09999999999999432
        },
        {
          "name": "D#3",
          "midi": 51,
          "time": 103.50000000000006,
          "velocity": 0.6299212598425197,
          "duration": 0.09999999999999432
        },
        {
          "name": "D3",
          "midi": 50,
          "time": 103.60000000000005,
          "velocity": 0.6299212598425197,
          "duration": 0.29999999999999716
        },
        {
          "name": "A#2",
          "midi": 46,
          "time": 103.90000000000005,
          "velocity": 0.6299212598425197,
          "duration": 0.09999999999999432
        },
        {
          "name": "C3",
          "midi": 48,
          "time": 104.00000000000004,
          "velocity": 0.6299212598425197,
          "duration": 0.09999999999999432
        },
        {
          "name": "A#2",
          "midi": 46,
          "time": 104.10000000000004,
          "velocity": 0.6299212598425197,
          "duration": 0.09999999999999432
        },
        {
          "name": "C3",
          "midi": 48,
          "time": 104.20000000000003,
          "velocity": 0.6299212598425197,
          "duration": 0.09999999999999432
        },
        {
          "name": "F2",
          "midi": 41,
          "time": 104.30000000000003,
          "velocity": 0.6299212598425197,
          "duration": 0.20000000000000284
        },
        {
          "name": "F2",
          "midi": 41,
          "time": 104.50000000000003,
          "velocity": 0.6299212598425197,
          "duration": 0.09999999999999432
        },
        {
          "name": "G#2",
          "midi": 44,
          "time": 104.60000000000002,
          "velocity": 0.6299212598425197,
          "duration": 0.09999999999999432
        },
        {
          "name": "A#2",
          "midi": 46,
          "time": 104.70000000000002,
          "velocity": 0.6299212598425197,
          "duration": 0.09999999999999432
        },
        {
          "name": "C3",
          "midi": 48,
          "time": 104.80000000000001,
          "velocity": 0.6299212598425197,
          "duration": 0.09999999999999432
        },
        {
          "name": "A#2",
          "midi": 46,
          "time": 104.9,
          "velocity": 0.6299212598425197,
          "duration": 0.09999999999999432
        },
        {
          "name": "C3",
          "midi": 48,
          "time": 105,
          "velocity": 0.6299212598425197,
          "duration": 0.09999999999999432
        },
        {
          "name": "D#3",
          "midi": 51,
          "time": 105.1,
          "velocity": 0.6299212598425197,
          "duration": 0.20000000000000284
        },
        {
          "name": "D#3",
          "midi": 51,
          "time": 105.3,
          "velocity": 0.6299212598425197,
          "duration": 0.09999999999999432
        },
        {
          "name": "D3",
          "midi": 50,
          "time": 105.39999999999999,
          "velocity": 0.6299212598425197,
          "duration": 0.09999999999999432
        },
        {
          "name": "D#3",
          "midi": 51,
          "time": 105.49999999999999,
          "velocity": 0.6299212598425197,
          "duration": 0.09999999999999432
        },
        {
          "name": "C3",
          "midi": 48,
          "time": 105.59999999999998,
          "velocity": 0.6299212598425197,
          "duration": 0.09999999999999432
        },
        {
          "name": "A#2",
          "midi": 46,
          "time": 105.69999999999997,
          "velocity": 0.6299212598425197,
          "duration": 0.09999999999999432
        },
        {
          "name": "C3",
          "midi": 48,
          "time": 105.79999999999997,
          "velocity": 0.6299212598425197,
          "duration": 0.09999999999999432
        },
        {
          "name": "F2",
          "midi": 41,
          "time": 105.89999999999996,
          "velocity": 0.6299212598425197,
          "duration": 0.20000000000000284
        },
        {
          "name": "G#2",
          "midi": 44,
          "time": 106.09999999999997,
          "velocity": 0.6299212598425197,
          "duration": 0.09999999999999432
        },
        {
          "name": "A#2",
          "midi": 46,
          "time": 106.19999999999996,
          "velocity": 0.6299212598425197,
          "duration": 0.09999999999999432
        },
        {
          "name": "C3",
          "midi": 48,
          "time": 106.29999999999995,
          "velocity": 0.6299212598425197,
          "duration": 0.09999999999999432
        },
        {
          "name": "D#3",
          "midi": 51,
          "time": 106.49999999999994,
          "velocity": 0.6299212598425197,
          "duration": 0.09999999999999432
        },
        {
          "name": "D3",
          "midi": 50,
          "time": 106.59999999999994,
          "velocity": 0.6299212598425197,
          "duration": 0.09999999999999432
        },
        {
          "name": "D#3",
          "midi": 51,
          "time": 106.69999999999993,
          "velocity": 0.6299212598425197,
          "duration": 0.09999999999999432
        },
        {
          "name": "D3",
          "midi": 50,
          "time": 106.79999999999993,
          "velocity": 0.6299212598425197,
          "duration": 0.29999999999999716
        },
        {
          "name": "A#2",
          "midi": 46,
          "time": 107.09999999999992,
          "velocity": 0.6299212598425197,
          "duration": 0.09999999999999432
        },
        {
          "name": "C3",
          "midi": 48,
          "time": 107.19999999999992,
          "velocity": 0.6299212598425197,
          "duration": 0.09999999999999432
        },
        {
          "name": "A#2",
          "midi": 46,
          "time": 107.29999999999991,
          "velocity": 0.6299212598425197,
          "duration": 0.09999999999999432
        },
        {
          "name": "C3",
          "midi": 48,
          "time": 107.3999999999999,
          "velocity": 0.6299212598425197,
          "duration": 0.09999999999999432
        },
        {
          "name": "F2",
          "midi": 41,
          "time": 107.4999999999999,
          "velocity": 0.6299212598425197,
          "duration": 0.20000000000000284
        },
        {
          "name": "F2",
          "midi": 41,
          "time": 107.6999999999999,
          "velocity": 0.6299212598425197,
          "duration": 0.09999999999999432
        },
        {
          "name": "G#2",
          "midi": 44,
          "time": 107.7999999999999,
          "velocity": 0.6299212598425197,
          "duration": 0.09999999999999432
        },
        {
          "name": "A#2",
          "midi": 46,
          "time": 107.89999999999989,
          "velocity": 0.6299212598425197,
          "duration": 0.09999999999999432
        },
        {
          "name": "C3",
          "midi": 48,
          "time": 107.99999999999989,
          "velocity": 0.6299212598425197,
          "duration": 0.09999999999999432
        },
        {
          "name": "A#2",
          "midi": 46,
          "time": 108.09999999999988,
          "velocity": 0.6299212598425197,
          "duration": 0.09999999999999432
        },
        {
          "name": "C3",
          "midi": 48,
          "time": 108.19999999999987,
          "velocity": 0.6299212598425197,
          "duration": 0.09999999999999432
        },
        {
          "name": "D#3",
          "midi": 51,
          "time": 108.29999999999987,
          "velocity": 0.6299212598425197,
          "duration": 0.20000000000000284
        },
        {
          "name": "D#3",
          "midi": 51,
          "time": 108.49999999999987,
          "velocity": 0.6299212598425197,
          "duration": 0.09999999999999432
        },
        {
          "name": "D3",
          "midi": 50,
          "time": 108.59999999999987,
          "velocity": 0.6299212598425197,
          "duration": 0.09999999999999432
        },
        {
          "name": "D#3",
          "midi": 51,
          "time": 108.69999999999986,
          "velocity": 0.6299212598425197,
          "duration": 0.09999999999999432
        },
        {
          "name": "C3",
          "midi": 48,
          "time": 108.79999999999986,
          "velocity": 0.6299212598425197,
          "duration": 0.09999999999999432
        },
        {
          "name": "A#2",
          "midi": 46,
          "time": 108.89999999999985,
          "velocity": 0.6299212598425197,
          "duration": 0.09999999999999432
        },
        {
          "name": "C3",
          "midi": 48,
          "time": 108.99999999999984,
          "velocity": 0.6299212598425197,
          "duration": 0.09999999999999432
        },
        {
          "name": "F2",
          "midi": 41,
          "time": 109.09999999999984,
          "velocity": 0.6299212598425197,
          "duration": 0.20000000000000284
        },
        {
          "name": "G#2",
          "midi": 44,
          "time": 109.29999999999984,
          "velocity": 0.6299212598425197,
          "duration": 0.09999999999999432
        },
        {
          "name": "A#2",
          "midi": 46,
          "time": 109.39999999999984,
          "velocity": 0.6299212598425197,
          "duration": 0.09999999999999432
        },
        {
          "name": "C3",
          "midi": 48,
          "time": 109.49999999999983,
          "velocity": 0.6299212598425197,
          "duration": 0.09999999999999432
        },
        {
          "name": "D#3",
          "midi": 51,
          "time": 109.69999999999982,
          "velocity": 0.6299212598425197,
          "duration": 0.09999999999999432
        },
        {
          "name": "D3",
          "midi": 50,
          "time": 109.79999999999981,
          "velocity": 0.6299212598425197,
          "duration": 0.09999999999999432
        },
        {
          "name": "D#3",
          "midi": 51,
          "time": 109.8999999999998,
          "velocity": 0.6299212598425197,
          "duration": 0.09999999999999432
        },
        {
          "name": "D3",
          "midi": 50,
          "time": 109.9999999999998,
          "velocity": 0.6299212598425197,
          "duration": 0.29999999999999716
        },
        {
          "name": "A#2",
          "midi": 46,
          "time": 110.2999999999998,
          "velocity": 0.6299212598425197,
          "duration": 0.09999999999999432
        },
        {
          "name": "C3",
          "midi": 48,
          "time": 110.39999999999979,
          "velocity": 0.6299212598425197,
          "duration": 0.09999999999999432
        },
        {
          "name": "A#2",
          "midi": 46,
          "time": 110.49999999999979,
          "velocity": 0.6299212598425197,
          "duration": 0.09999999999999432
        },
        {
          "name": "C3",
          "midi": 48,
          "time": 110.59999999999978,
          "velocity": 0.6299212598425197,
          "duration": 0.09999999999999432
        },
        {
          "name": "F2",
          "midi": 41,
          "time": 110.69999999999978,
          "velocity": 0.6299212598425197,
          "duration": 0.20000000000000284
        },
        {
          "name": "F2",
          "midi": 41,
          "time": 110.89999999999978,
          "velocity": 0.6299212598425197,
          "duration": 0.09999999999999432
        },
        {
          "name": "G#2",
          "midi": 44,
          "time": 110.99999999999977,
          "velocity": 0.6299212598425197,
          "duration": 0.09999999999999432
        },
        {
          "name": "A#2",
          "midi": 46,
          "time": 111.09999999999977,
          "velocity": 0.6299212598425197,
          "duration": 0.09999999999999432
        },
        {
          "name": "C3",
          "midi": 48,
          "time": 111.19999999999976,
          "velocity": 0.6299212598425197,
          "duration": 0.09999999999999432
        },
        {
          "name": "A#2",
          "midi": 46,
          "time": 111.29999999999976,
          "velocity": 0.6299212598425197,
          "duration": 0.09999999999999432
        },
        {
          "name": "C3",
          "midi": 48,
          "time": 111.39999999999975,
          "velocity": 0.6299212598425197,
          "duration": 0.09999999999999432
        },
        {
          "name": "D#3",
          "midi": 51,
          "time": 111.49999999999974,
          "velocity": 0.6299212598425197,
          "duration": 0.20000000000000284
        },
        {
          "name": "D#3",
          "midi": 51,
          "time": 111.69999999999975,
          "velocity": 0.6299212598425197,
          "duration": 0.09999999999999432
        },
        {
          "name": "D3",
          "midi": 50,
          "time": 111.79999999999974,
          "velocity": 0.6299212598425197,
          "duration": 0.09999999999999432
        },
        {
          "name": "D#3",
          "midi": 51,
          "time": 111.89999999999974,
          "velocity": 0.6299212598425197,
          "duration": 0.09999999999999432
        },
        {
          "name": "C3",
          "midi": 48,
          "time": 111.99999999999973,
          "velocity": 0.6299212598425197,
          "duration": 0.09999999999999432
        },
        {
          "name": "A#2",
          "midi": 46,
          "time": 112.09999999999972,
          "velocity": 0.6299212598425197,
          "duration": 0.09999999999999432
        },
        {
          "name": "C3",
          "midi": 48,
          "time": 112.19999999999972,
          "velocity": 0.6299212598425197,
          "duration": 0.09999999999999432
        },
        {
          "name": "F2",
          "midi": 41,
          "time": 112.29999999999971,
          "velocity": 0.6299212598425197,
          "duration": 0.20000000000000284
        },
        {
          "name": "G#2",
          "midi": 44,
          "time": 112.49999999999972,
          "velocity": 0.6299212598425197,
          "duration": 0.09999999999999432
        },
        {
          "name": "A#2",
          "midi": 46,
          "time": 112.59999999999971,
          "velocity": 0.6299212598425197,
          "duration": 0.09999999999999432
        },
        {
          "name": "C3",
          "midi": 48,
          "time": 112.6999999999997,
          "velocity": 0.6299212598425197,
          "duration": 0.09999999999999432
        },
        {
          "name": "D#3",
          "midi": 51,
          "time": 112.8999999999997,
          "velocity": 0.6299212598425197,
          "duration": 0.09999999999999432
        },
        {
          "name": "D3",
          "midi": 50,
          "time": 112.99999999999969,
          "velocity": 0.6299212598425197,
          "duration": 0.09999999999999432
        },
        {
          "name": "D#3",
          "midi": 51,
          "time": 113.09999999999968,
          "velocity": 0.6299212598425197,
          "duration": 0.09999999999999432
        },
        {
          "name": "D3",
          "midi": 50,
          "time": 113.19999999999968,
          "velocity": 0.6299212598425197,
          "duration": 0.29999999999999716
        },
        {
          "name": "A#2",
          "midi": 46,
          "time": 113.49999999999967,
          "velocity": 0.6299212598425197,
          "duration": 0.09999999999999432
        },
        {
          "name": "C3",
          "midi": 48,
          "time": 113.59999999999967,
          "velocity": 0.6299212598425197,
          "duration": 0.4000000000000057
        },
        {
          "name": "D3",
          "midi": 50,
          "time": 113.99999999999967,
          "velocity": 0.6299212598425197,
          "duration": 0.29999999999999716
        },
        {
          "name": "D#3",
          "midi": 51,
          "time": 114.29999999999967,
          "velocity": 0.6299212598425197,
          "duration": 0.20000000000000284
        },
        {
          "name": "C3",
          "midi": 48,
          "time": 114.49999999999967,
          "velocity": 0.6299212598425197,
          "duration": 0.09999999999999432
        },
        {
          "name": "G3",
          "midi": 55,
          "time": 114.59999999999967,
          "velocity": 0.6299212598425197,
          "duration": 0.20000000000000284
        },
        {
          "name": "A#3",
          "midi": 58,
          "time": 114.79999999999967,
          "velocity": 0.6299212598425197,
          "duration": 0.13333333333333997
        },
        {
          "name": "B3",
          "midi": 59,
          "time": 114.93333333333301,
          "velocity": 0.6299212598425197,
          "duration": 0.13333333333333997
        },
        {
          "name": "C4",
          "midi": 60,
          "time": 115.06666666666635,
          "velocity": 0.6299212598425197,
          "duration": 0.13333333333333997
        },
        {
          "name": "D3",
          "midi": 50,
          "time": 115.19999999999969,
          "velocity": 0.6299212598425197,
          "duration": 0.4000000000000057
        },
        {
          "name": "D#3",
          "midi": 51,
          "time": 115.5999999999997,
          "velocity": 0.6299212598425197,
          "duration": 0.29999999999999716
        },
        {
          "name": "F3",
          "midi": 53,
          "time": 115.8999999999997,
          "velocity": 0.6299212598425197,
          "duration": 0.4000000000000057
        },
        {
          "name": "D#3",
          "midi": 51,
          "time": 116.2999999999997,
          "velocity": 0.6299212598425197,
          "duration": 0.09999999999999432
        },
        {
          "name": "F3",
          "midi": 53,
          "time": 116.3999999999997,
          "velocity": 0.6299212598425197,
          "duration": 0.4000000000000057
        },
        {
          "name": "C3",
          "midi": 48,
          "time": 116.7999999999997,
          "velocity": 0.6299212598425197,
          "duration": 0.4000000000000057
        },
        {
          "name": "D3",
          "midi": 50,
          "time": 117.1999999999997,
          "velocity": 0.6299212598425197,
          "duration": 0.29999999999999716
        },
        {
          "name": "D#3",
          "midi": 51,
          "time": 117.4999999999997,
          "velocity": 0.6299212598425197,
          "duration": 0.20000000000000284
        },
        {
          "name": "C3",
          "midi": 48,
          "time": 117.6999999999997,
          "velocity": 0.6299212598425197,
          "duration": 0.09999999999999432
        },
        {
          "name": "G3",
          "midi": 55,
          "time": 117.7999999999997,
          "velocity": 0.6299212598425197,
          "duration": 0.20000000000000284
        },
        {
          "name": "A#3",
          "midi": 58,
          "time": 117.9999999999997,
          "velocity": 0.6299212598425197,
          "duration": 0.13333333333333997
        },
        {
          "name": "B3",
          "midi": 59,
          "time": 118.13333333333304,
          "velocity": 0.6299212598425197,
          "duration": 0.13333333333333997
        },
        {
          "name": "C4",
          "midi": 60,
          "time": 118.26666666666638,
          "velocity": 0.6299212598425197,
          "duration": 0.13333333333333997
        },
        {
          "name": "D3",
          "midi": 50,
          "time": 118.39999999999972,
          "velocity": 0.6299212598425197,
          "duration": 0.4000000000000057
        },
        {
          "name": "D#3",
          "midi": 51,
          "time": 118.79999999999973,
          "velocity": 0.6299212598425197,
          "duration": 0.29999999999999716
        },
        {
          "name": "F3",
          "midi": 53,
          "time": 119.09999999999972,
          "velocity": 0.6299212598425197,
          "duration": 0.5
        },
        {
          "name": "A#3",
          "midi": 58,
          "time": 119.59999999999972,
          "velocity": 0.6299212598425197,
          "duration": 0.4000000000000057
        },
        {
          "name": "G4",
          "midi": 67,
          "time": 119.99999999999973,
          "velocity": 0.6299212598425197,
          "duration": 0.09999999999999432
        },
        {
          "name": "F4",
          "midi": 65,
          "time": 120.09999999999972,
          "velocity": 0.6299212598425197,
          "duration": 0.09999999999999432
        },
        {
          "name": "D5",
          "midi": 74,
          "time": 120.19999999999972,
          "velocity": 0.6299212598425197,
          "duration": 0.09999999999999432
        },
        {
          "name": "C5",
          "midi": 72,
          "time": 120.29999999999971,
          "velocity": 0.6299212598425197,
          "duration": 0.09999999999999432
        },
        {
          "name": "A#4",
          "midi": 70,
          "time": 120.39999999999971,
          "velocity": 0.6299212598425197,
          "duration": 0.09999999999999432
        },
        {
          "name": "A4",
          "midi": 69,
          "time": 120.4999999999997,
          "velocity": 0.6299212598425197,
          "duration": 0.09999999999999432
        },
        {
          "name": "G4",
          "midi": 67,
          "time": 120.5999999999997,
          "velocity": 0.6299212598425197,
          "duration": 0.09999999999999432
        },
        {
          "name": "F4",
          "midi": 65,
          "time": 120.69999999999969,
          "velocity": 0.6299212598425197,
          "duration": 0.09999999999999432
        },
        {
          "name": "G4",
          "midi": 67,
          "time": 120.79999999999968,
          "velocity": 0.6299212598425197,
          "duration": 0.09999999999999432
        },
        {
          "name": "F4",
          "midi": 65,
          "time": 120.89999999999968,
          "velocity": 0.6299212598425197,
          "duration": 0.09999999999999432
        },
        {
          "name": "D4",
          "midi": 62,
          "time": 120.99999999999967,
          "velocity": 0.6299212598425197,
          "duration": 0.09999999999999432
        },
        {
          "name": "C4",
          "midi": 60,
          "time": 121.09999999999967,
          "velocity": 0.6299212598425197,
          "duration": 0.09999999999999432
        },
        {
          "name": "D4",
          "midi": 62,
          "time": 121.19999999999966,
          "velocity": 0.6299212598425197,
          "duration": 0.09999999999999432
        },
        {
          "name": "C4",
          "midi": 60,
          "time": 121.29999999999966,
          "velocity": 0.6299212598425197,
          "duration": 0.09999999999999432
        },
        {
          "name": "A#3",
          "midi": 58,
          "time": 121.39999999999965,
          "velocity": 0.6299212598425197,
          "duration": 0.09999999999999432
        },
        {
          "name": "A3",
          "midi": 57,
          "time": 121.49999999999964,
          "velocity": 0.6299212598425197,
          "duration": 0.09999999999999432
        },
        {
          "name": "C3",
          "midi": 48,
          "time": 121.59999999999964,
          "velocity": 0.6299212598425197,
          "duration": 0.4000000000000057
        },
        {
          "name": "D3",
          "midi": 50,
          "time": 121.99999999999964,
          "velocity": 0.6299212598425197,
          "duration": 0.29999999999999716
        },
        {
          "name": "D#3",
          "midi": 51,
          "time": 122.29999999999964,
          "velocity": 0.6299212598425197,
          "duration": 0.09999999999999432
        },
        {
          "name": "C3",
          "midi": 48,
          "time": 122.39999999999964,
          "velocity": 0.6299212598425197,
          "duration": 0.13333333333333997
        },
        {
          "name": "D3",
          "midi": 50,
          "time": 122.53333333333298,
          "velocity": 0.6299212598425197,
          "duration": 0.13333333333333997
        },
        {
          "name": "D#3",
          "midi": 51,
          "time": 122.66666666666632,
          "velocity": 0.6299212598425197,
          "duration": 0.13333333333333997
        },
        {
          "name": "G2",
          "midi": 43,
          "time": 122.79999999999966,
          "velocity": 0.6299212598425197,
          "duration": 0.13333333333333997
        },
        {
          "name": "A#2",
          "midi": 46,
          "time": 122.933333333333,
          "velocity": 0.6299212598425197,
          "duration": 0.13333333333333997
        },
        {
          "name": "B2",
          "midi": 47,
          "time": 123.06666666666634,
          "velocity": 0.6299212598425197,
          "duration": 0.13333333333333997
        },
        {
          "name": "C3",
          "midi": 48,
          "time": 123.19999999999968,
          "velocity": 0.6299212598425197,
          "duration": 0.20000000000000284
        },
        {
          "name": "C3",
          "midi": 48,
          "time": 123.39999999999968,
          "velocity": 0.6299212598425197,
          "duration": 0.20000000000000284
        },
        {
          "name": "D3",
          "midi": 50,
          "time": 123.59999999999968,
          "velocity": 0.6299212598425197,
          "duration": 0.4000000000000057
        },
        {
          "name": "D#3",
          "midi": 51,
          "time": 123.99999999999969,
          "velocity": 0.6299212598425197,
          "duration": 0.29999999999999716
        },
        {
          "name": "F3",
          "midi": 53,
          "time": 124.29999999999968,
          "velocity": 0.6299212598425197,
          "duration": 0.29999999999999716
        },
        {
          "name": "G3",
          "midi": 55,
          "time": 124.59999999999968,
          "velocity": 0.6299212598425197,
          "duration": 0.20000000000000284
        },
        {
          "name": "F3",
          "midi": 53,
          "time": 124.79999999999968,
          "velocity": 0.6299212598425197,
          "duration": 0.7999999999999972
        },
        {
          "name": "A#2",
          "midi": 46,
          "time": 125.59999999999968,
          "velocity": 0.6299212598425197,
          "duration": 0.7999999999999972
        },
        {
          "name": "D#3",
          "midi": 51,
          "time": 126.39999999999968,
          "velocity": 0.6299212598425197,
          "duration": 0.7999999999999972
        },
        {
          "name": "G2",
          "midi": 43,
          "time": 127.19999999999968,
          "velocity": 0.6299212598425197,
          "duration": 0.4000000000000057
        },
        {
          "name": "F2",
          "midi": 41,
          "time": 127.59999999999968,
          "velocity": 0.6299212598425197,
          "duration": 0.09999999999999432
        },
        {
          "name": "A2",
          "midi": 45,
          "time": 127.69999999999968,
          "velocity": 0.6299212598425197,
          "duration": 0.09999999999999432
        },
        {
          "name": "A#2",
          "midi": 46,
          "time": 127.79999999999967,
          "velocity": 0.6299212598425197,
          "duration": 0.09999999999999432
        },
        {
          "name": "B2",
          "midi": 47,
          "time": 127.89999999999966,
          "velocity": 0.6299212598425197,
          "duration": 0.09999999999999432
        },
        {
          "name": "C3",
          "midi": 48,
          "time": 127.99999999999966,
          "velocity": 0.6299212598425197,
          "duration": 1.5999999999999943
        },
        {
          "name": "D#3",
          "midi": 51,
          "time": 129.59999999999965,
          "velocity": 0.6299212598425197,
          "duration": 1.5999999999999943
        },
        {
          "name": "F3",
          "midi": 53,
          "time": 131.19999999999965,
          "velocity": 0.6299212598425197,
          "duration": 0.8000000000000114
        },
        {
          "name": "A#2",
          "midi": 46,
          "time": 131.99999999999966,
          "velocity": 0.6299212598425197,
          "duration": 0.8000000000000114
        },
        {
          "name": "D#3",
          "midi": 51,
          "time": 132.79999999999967,
          "velocity": 0.6299212598425197,
          "duration": 0.4000000000000057
        },
        {
          "name": "D#3",
          "midi": 51,
          "time": 133.19999999999968,
          "velocity": 0.6299212598425197,
          "duration": 0.09999999999999432
        },
        {
          "name": "F3",
          "midi": 53,
          "time": 133.29999999999967,
          "velocity": 0.6299212598425197,
          "duration": 0.19999999999998863
        },
        {
          "name": "D#3",
          "midi": 51,
          "time": 133.49999999999966,
          "velocity": 0.6299212598425197,
          "duration": 0.09999999999999432
        },
        {
          "name": "G3",
          "midi": 55,
          "time": 133.59999999999965,
          "velocity": 0.6299212598425197,
          "duration": 0.4000000000000057
        },
        {
          "name": "F3",
          "midi": 53,
          "time": 133.99999999999966,
          "velocity": 0.6299212598425197,
          "duration": 0.4000000000000057
        },
        {
          "name": "G3",
          "midi": 55,
          "time": 134.39999999999966,
          "velocity": 0.6299212598425197,
          "duration": 0.5999999999999943
        },
        {
          "name": "G3",
          "midi": 55,
          "time": 134.99999999999966,
          "velocity": 0.6299212598425197,
          "duration": 0.4000000000000057
        },
        {
          "name": "G3",
          "midi": 55,
          "time": 135.39999999999966,
          "velocity": 0.6299212598425197,
          "duration": 0.19999999999998863
        },
        {
          "name": "F3",
          "midi": 53,
          "time": 135.59999999999965,
          "velocity": 0.6299212598425197,
          "duration": 0.4000000000000057
        },
        {
          "name": "D#3",
          "midi": 51,
          "time": 135.99999999999966,
          "velocity": 0.6299212598425197,
          "duration": 0.5999999999999943
        },
        {
          "name": "D#3",
          "midi": 51,
          "time": 136.59999999999965,
          "velocity": 0.6299212598425197,
          "duration": 0.4000000000000057
        },
        {
          "name": "D#3",
          "midi": 51,
          "time": 136.99999999999966,
          "velocity": 0.6299212598425197,
          "duration": 0.19999999999998863
        },
        {
          "name": "F3",
          "midi": 53,
          "time": 137.19999999999965,
          "velocity": 0.6299212598425197,
          "duration": 0.4000000000000057
        },
        {
          "name": "G3",
          "midi": 55,
          "time": 137.59999999999965,
          "velocity": 0.6299212598425197,
          "duration": 0.5999999999999943
        },
        {
          "name": "G3",
          "midi": 55,
          "time": 138.19999999999965,
          "velocity": 0.6299212598425197,
          "duration": 0.4000000000000057
        },
        {
          "name": "G3",
          "midi": 55,
          "time": 138.59999999999965,
          "velocity": 0.6299212598425197,
          "duration": 0.19999999999998863
        },
        {
          "name": "F3",
          "midi": 53,
          "time": 138.79999999999964,
          "velocity": 0.6299212598425197,
          "duration": 0.4000000000000057
        },
        {
          "name": "D#3",
          "midi": 51,
          "time": 139.19999999999965,
          "velocity": 0.6299212598425197,
          "duration": 0.4000000000000057
        },
        {
          "name": "D#3",
          "midi": 51,
          "time": 139.69999999999965,
          "velocity": 0.6299212598425197,
          "duration": 0.09999999999999432
        },
        {
          "name": "F3",
          "midi": 53,
          "time": 139.79999999999964,
          "velocity": 0.6299212598425197,
          "duration": 0.09999999999999432
        },
        {
          "name": "G3",
          "midi": 55,
          "time": 139.89999999999964,
          "velocity": 0.6299212598425197,
          "duration": 0.09999999999999432
        },
        {
          "name": "A3",
          "midi": 57,
          "time": 139.99999999999963,
          "velocity": 0.6299212598425197,
          "duration": 0.09999999999999432
        },
        {
          "name": "A#3",
          "midi": 58,
          "time": 140.09999999999962,
          "velocity": 0.6299212598425197,
          "duration": 0.09999999999999432
        },
        {
          "name": "A3",
          "midi": 57,
          "time": 140.19999999999962,
          "velocity": 0.6299212598425197,
          "duration": 0.19999999999998863
        },
        {
          "name": "F3",
          "midi": 53,
          "time": 140.3999999999996,
          "velocity": 0.6299212598425197,
          "duration": 0.4000000000000057
        },
        {
          "name": "G3",
          "midi": 55,
          "time": 140.7999999999996,
          "velocity": 0.6299212598425197,
          "duration": 0.5999999999999943
        },
        {
          "name": "G3",
          "midi": 55,
          "time": 141.3999999999996,
          "velocity": 0.6299212598425197,
          "duration": 0.4000000000000057
        },
        {
          "name": "G3",
          "midi": 55,
          "time": 141.7999999999996,
          "velocity": 0.6299212598425197,
          "duration": 0.19999999999998863
        },
        {
          "name": "F3",
          "midi": 53,
          "time": 141.9999999999996,
          "velocity": 0.6299212598425197,
          "duration": 0.4000000000000057
        },
        {
          "name": "D#3",
          "midi": 51,
          "time": 142.3999999999996,
          "velocity": 0.6299212598425197,
          "duration": 0.5999999999999943
        },
        {
          "name": "D#3",
          "midi": 51,
          "time": 142.9999999999996,
          "velocity": 0.6299212598425197,
          "duration": 0.4000000000000057
        },
        {
          "name": "D#3",
          "midi": 51,
          "time": 143.3999999999996,
          "velocity": 0.6299212598425197,
          "duration": 0.19999999999998863
        },
        {
          "name": "F3",
          "midi": 53,
          "time": 143.5999999999996,
          "velocity": 0.6299212598425197,
          "duration": 0.4000000000000057
        },
        {
          "name": "G3",
          "midi": 55,
          "time": 143.9999999999996,
          "velocity": 0.6299212598425197,
          "duration": 0.5999999999999943
        },
        {
          "name": "G3",
          "midi": 55,
          "time": 144.5999999999996,
          "velocity": 0.6299212598425197,
          "duration": 0.4000000000000057
        },
        {
          "name": "G3",
          "midi": 55,
          "time": 144.9999999999996,
          "velocity": 0.6299212598425197,
          "duration": 0.19999999999998863
        },
        {
          "name": "A#3",
          "midi": 58,
          "time": 145.1999999999996,
          "velocity": 0.6299212598425197,
          "duration": 0.4000000000000057
        },
        {
          "name": "F3",
          "midi": 53,
          "time": 145.5999999999996,
          "velocity": 0.6299212598425197,
          "duration": 0.5999999999999943
        },
        {
          "name": "F3",
          "midi": 53,
          "time": 146.1999999999996,
          "velocity": 0.6299212598425197,
          "duration": 0.4000000000000057
        },
        {
          "name": "C3",
          "midi": 48,
          "time": 150.3999999999996,
          "velocity": 0.6299212598425197,
          "duration": 0.09999999999999432
        },
        {
          "name": "A#2",
          "midi": 46,
          "time": 150.4999999999996,
          "velocity": 0.6299212598425197,
          "duration": 0.09999999999999432
        },
        {
          "name": "C3",
          "midi": 48,
          "time": 150.5999999999996,
          "velocity": 0.6299212598425197,
          "duration": 0.09999999999999432
        },
        {
          "name": "F2",
          "midi": 41,
          "time": 150.6999999999996,
          "velocity": 0.6299212598425197,
          "duration": 0.19999999999998863
        },
        {
          "name": "F2",
          "midi": 41,
          "time": 150.89999999999958,
          "velocity": 0.6299212598425197,
          "duration": 0.09999999999999432
        },
        {
          "name": "G#2",
          "midi": 44,
          "time": 150.99999999999957,
          "velocity": 0.6299212598425197,
          "duration": 0.09999999999999432
        },
        {
          "name": "A#2",
          "midi": 46,
          "time": 151.09999999999957,
          "velocity": 0.6299212598425197,
          "duration": 0.09999999999999432
        },
        {
          "name": "C3",
          "midi": 48,
          "time": 151.19999999999956,
          "velocity": 0.6299212598425197,
          "duration": 0.09999999999999432
        },
        {
          "name": "A#2",
          "midi": 46,
          "time": 151.29999999999956,
          "velocity": 0.6299212598425197,
          "duration": 0.09999999999999432
        },
        {
          "name": "C3",
          "midi": 48,
          "time": 151.39999999999955,
          "velocity": 0.6299212598425197,
          "duration": 0.09999999999999432
        },
        {
          "name": "D#3",
          "midi": 51,
          "time": 151.49999999999955,
          "velocity": 0.6299212598425197,
          "duration": 0.19999999999998863
        },
        {
          "name": "D#3",
          "midi": 51,
          "time": 151.69999999999953,
          "velocity": 0.6299212598425197,
          "duration": 0.09999999999999432
        },
        {
          "name": "D3",
          "midi": 50,
          "time": 151.79999999999953,
          "velocity": 0.6299212598425197,
          "duration": 0.09999999999999432
        },
        {
          "name": "D#3",
          "midi": 51,
          "time": 151.89999999999952,
          "velocity": 0.6299212598425197,
          "duration": 0.09999999999999432
        },
        {
          "name": "C3",
          "midi": 48,
          "time": 151.99999999999952,
          "velocity": 0.6299212598425197,
          "duration": 0.09999999999999432
        },
        {
          "name": "A#2",
          "midi": 46,
          "time": 152.0999999999995,
          "velocity": 0.6299212598425197,
          "duration": 0.09999999999999432
        },
        {
          "name": "C3",
          "midi": 48,
          "time": 152.1999999999995,
          "velocity": 0.6299212598425197,
          "duration": 0.09999999999999432
        },
        {
          "name": "F2",
          "midi": 41,
          "time": 152.2999999999995,
          "velocity": 0.6299212598425197,
          "duration": 0.19999999999998863
        },
        {
          "name": "G#2",
          "midi": 44,
          "time": 152.4999999999995,
          "velocity": 0.6299212598425197,
          "duration": 0.09999999999999432
        },
        {
          "name": "A#2",
          "midi": 46,
          "time": 152.59999999999948,
          "velocity": 0.6299212598425197,
          "duration": 0.09999999999999432
        },
        {
          "name": "C3",
          "midi": 48,
          "time": 152.69999999999948,
          "velocity": 0.6299212598425197,
          "duration": 0.09999999999999432
        },
        {
          "name": "D#3",
          "midi": 51,
          "time": 152.89999999999947,
          "velocity": 0.6299212598425197,
          "duration": 0.09999999999999432
        },
        {
          "name": "D3",
          "midi": 50,
          "time": 152.99999999999946,
          "velocity": 0.6299212598425197,
          "duration": 0.09999999999999432
        },
        {
          "name": "D#3",
          "midi": 51,
          "time": 153.09999999999945,
          "velocity": 0.6299212598425197,
          "duration": 0.09999999999999432
        },
        {
          "name": "D3",
          "midi": 50,
          "time": 153.19999999999945,
          "velocity": 0.6299212598425197,
          "duration": 0.30000000000001137
        },
        {
          "name": "A#2",
          "midi": 46,
          "time": 153.49999999999946,
          "velocity": 0.6299212598425197,
          "duration": 0.09999999999999432
        },
        {
          "name": "C3",
          "midi": 48,
          "time": 153.59999999999945,
          "velocity": 0.6299212598425197,
          "duration": 0.09999999999999432
        },
        {
          "name": "A#2",
          "midi": 46,
          "time": 153.69999999999945,
          "velocity": 0.6299212598425197,
          "duration": 0.09999999999999432
        },
        {
          "name": "C3",
          "midi": 48,
          "time": 153.79999999999944,
          "velocity": 0.6299212598425197,
          "duration": 0.09999999999999432
        },
        {
          "name": "F2",
          "midi": 41,
          "time": 153.89999999999944,
          "velocity": 0.6299212598425197,
          "duration": 0.19999999999998863
        },
        {
          "name": "F2",
          "midi": 41,
          "time": 154.09999999999943,
          "velocity": 0.6299212598425197,
          "duration": 0.09999999999999432
        },
        {
          "name": "G#2",
          "midi": 44,
          "time": 154.19999999999942,
          "velocity": 0.6299212598425197,
          "duration": 0.09999999999999432
        },
        {
          "name": "A#2",
          "midi": 46,
          "time": 154.29999999999941,
          "velocity": 0.6299212598425197,
          "duration": 0.09999999999999432
        },
        {
          "name": "C3",
          "midi": 48,
          "time": 154.3999999999994,
          "velocity": 0.6299212598425197,
          "duration": 0.09999999999999432
        },
        {
          "name": "A#2",
          "midi": 46,
          "time": 154.4999999999994,
          "velocity": 0.6299212598425197,
          "duration": 0.09999999999999432
        },
        {
          "name": "C3",
          "midi": 48,
          "time": 154.5999999999994,
          "velocity": 0.6299212598425197,
          "duration": 0.09999999999999432
        },
        {
          "name": "D#3",
          "midi": 51,
          "time": 154.6999999999994,
          "velocity": 0.6299212598425197,
          "duration": 0.19999999999998863
        },
        {
          "name": "D#3",
          "midi": 51,
          "time": 154.89999999999938,
          "velocity": 0.6299212598425197,
          "duration": 0.09999999999999432
        },
        {
          "name": "D3",
          "midi": 50,
          "time": 154.99999999999937,
          "velocity": 0.6299212598425197,
          "duration": 0.09999999999999432
        },
        {
          "name": "D#3",
          "midi": 51,
          "time": 155.09999999999937,
          "velocity": 0.6299212598425197,
          "duration": 0.09999999999999432
        },
        {
          "name": "C3",
          "midi": 48,
          "time": 155.19999999999936,
          "velocity": 0.6299212598425197,
          "duration": 0.09999999999999432
        },
        {
          "name": "A#2",
          "midi": 46,
          "time": 155.29999999999936,
          "velocity": 0.6299212598425197,
          "duration": 0.09999999999999432
        },
        {
          "name": "C3",
          "midi": 48,
          "time": 155.39999999999935,
          "velocity": 0.6299212598425197,
          "duration": 0.09999999999999432
        },
        {
          "name": "F2",
          "midi": 41,
          "time": 155.49999999999935,
          "velocity": 0.6299212598425197,
          "duration": 0.19999999999998863
        },
        {
          "name": "G#2",
          "midi": 44,
          "time": 155.69999999999933,
          "velocity": 0.6299212598425197,
          "duration": 0.09999999999999432
        },
        {
          "name": "A#2",
          "midi": 46,
          "time": 155.79999999999933,
          "velocity": 0.6299212598425197,
          "duration": 0.09999999999999432
        },
        {
          "name": "C3",
          "midi": 48,
          "time": 155.89999999999932,
          "velocity": 0.6299212598425197,
          "duration": 0.09999999999999432
        },
        {
          "name": "D#3",
          "midi": 51,
          "time": 156.0999999999993,
          "velocity": 0.6299212598425197,
          "duration": 0.09999999999999432
        },
        {
          "name": "D3",
          "midi": 50,
          "time": 156.1999999999993,
          "velocity": 0.6299212598425197,
          "duration": 0.09999999999999432
        },
        {
          "name": "D#3",
          "midi": 51,
          "time": 156.2999999999993,
          "velocity": 0.6299212598425197,
          "duration": 0.09999999999999432
        },
        {
          "name": "D3",
          "midi": 50,
          "time": 156.3999999999993,
          "velocity": 0.6299212598425197,
          "duration": 0.30000000000001137
        },
        {
          "name": "A#2",
          "midi": 46,
          "time": 156.6999999999993,
          "velocity": 0.6299212598425197,
          "duration": 0.09999999999999432
        },
        {
          "name": "C3",
          "midi": 48,
          "time": 156.7999999999993,
          "velocity": 0.6299212598425197,
          "duration": 0.09999999999999432
        },
        {
          "name": "A#2",
          "midi": 46,
          "time": 156.8999999999993,
          "velocity": 0.6299212598425197,
          "duration": 0.09999999999999432
        },
        {
          "name": "C3",
          "midi": 48,
          "time": 156.9999999999993,
          "velocity": 0.6299212598425197,
          "duration": 0.09999999999999432
        },
        {
          "name": "F2",
          "midi": 41,
          "time": 157.09999999999928,
          "velocity": 0.6299212598425197,
          "duration": 0.19999999999998863
        },
        {
          "name": "F2",
          "midi": 41,
          "time": 157.29999999999927,
          "velocity": 0.6299212598425197,
          "duration": 0.09999999999999432
        },
        {
          "name": "G#2",
          "midi": 44,
          "time": 157.39999999999927,
          "velocity": 0.6299212598425197,
          "duration": 0.09999999999999432
        },
        {
          "name": "A#2",
          "midi": 46,
          "time": 157.49999999999926,
          "velocity": 0.6299212598425197,
          "duration": 0.09999999999999432
        },
        {
          "name": "C3",
          "midi": 48,
          "time": 157.59999999999926,
          "velocity": 0.6299212598425197,
          "duration": 0.09999999999999432
        },
        {
          "name": "A#2",
          "midi": 46,
          "time": 157.69999999999925,
          "velocity": 0.6299212598425197,
          "duration": 0.09999999999999432
        },
        {
          "name": "C3",
          "midi": 48,
          "time": 157.79999999999924,
          "velocity": 0.6299212598425197,
          "duration": 0.09999999999999432
        },
        {
          "name": "D#3",
          "midi": 51,
          "time": 157.89999999999924,
          "velocity": 0.6299212598425197,
          "duration": 0.19999999999998863
        },
        {
          "name": "D#3",
          "midi": 51,
          "time": 158.09999999999923,
          "velocity": 0.6299212598425197,
          "duration": 0.09999999999999432
        },
        {
          "name": "D3",
          "midi": 50,
          "time": 158.19999999999922,
          "velocity": 0.6299212598425197,
          "duration": 0.09999999999999432
        },
        {
          "name": "D#3",
          "midi": 51,
          "time": 158.29999999999922,
          "velocity": 0.6299212598425197,
          "duration": 0.09999999999999432
        },
        {
          "name": "C3",
          "midi": 48,
          "time": 158.3999999999992,
          "velocity": 0.6299212598425197,
          "duration": 0.09999999999999432
        },
        {
          "name": "A#2",
          "midi": 46,
          "time": 158.4999999999992,
          "velocity": 0.6299212598425197,
          "duration": 0.09999999999999432
        },
        {
          "name": "C3",
          "midi": 48,
          "time": 158.5999999999992,
          "velocity": 0.6299212598425197,
          "duration": 0.09999999999999432
        },
        {
          "name": "F2",
          "midi": 41,
          "time": 158.6999999999992,
          "velocity": 0.6299212598425197,
          "duration": 0.19999999999998863
        },
        {
          "name": "G#2",
          "midi": 44,
          "time": 158.89999999999918,
          "velocity": 0.6299212598425197,
          "duration": 0.09999999999999432
        },
        {
          "name": "A#2",
          "midi": 46,
          "time": 158.99999999999918,
          "velocity": 0.6299212598425197,
          "duration": 0.09999999999999432
        },
        {
          "name": "C3",
          "midi": 48,
          "time": 159.09999999999917,
          "velocity": 0.6299212598425197,
          "duration": 0.09999999999999432
        },
        {
          "name": "D#3",
          "midi": 51,
          "time": 159.29999999999916,
          "velocity": 0.6299212598425197,
          "duration": 0.09999999999999432
        },
        {
          "name": "D3",
          "midi": 50,
          "time": 159.39999999999915,
          "velocity": 0.6299212598425197,
          "duration": 0.09999999999999432
        },
        {
          "name": "D#3",
          "midi": 51,
          "time": 159.49999999999915,
          "velocity": 0.6299212598425197,
          "duration": 0.09999999999999432
        },
        {
          "name": "D3",
          "midi": 50,
          "time": 159.59999999999914,
          "velocity": 0.6299212598425197,
          "duration": 0.30000000000001137
        },
        {
          "name": "A#2",
          "midi": 46,
          "time": 159.89999999999915,
          "velocity": 0.6299212598425197,
          "duration": 0.09999999999999432
        },
        {
          "name": "C3",
          "midi": 48,
          "time": 159.99999999999915,
          "velocity": 0.6299212598425197,
          "duration": 0.09999999999999432
        },
        {
          "name": "A#2",
          "midi": 46,
          "time": 160.09999999999914,
          "velocity": 0.6299212598425197,
          "duration": 0.09999999999999432
        },
        {
          "name": "C3",
          "midi": 48,
          "time": 160.19999999999914,
          "velocity": 0.6299212598425197,
          "duration": 0.09999999999999432
        },
        {
          "name": "F2",
          "midi": 41,
          "time": 160.29999999999913,
          "velocity": 0.6299212598425197,
          "duration": 0.19999999999998863
        },
        {
          "name": "F2",
          "midi": 41,
          "time": 160.49999999999912,
          "velocity": 0.6299212598425197,
          "duration": 0.09999999999999432
        },
        {
          "name": "G#2",
          "midi": 44,
          "time": 160.5999999999991,
          "velocity": 0.6299212598425197,
          "duration": 0.09999999999999432
        },
        {
          "name": "A#2",
          "midi": 46,
          "time": 160.6999999999991,
          "velocity": 0.6299212598425197,
          "duration": 0.09999999999999432
        },
        {
          "name": "C3",
          "midi": 48,
          "time": 160.7999999999991,
          "velocity": 0.6299212598425197,
          "duration": 0.09999999999999432
        },
        {
          "name": "A#2",
          "midi": 46,
          "time": 160.8999999999991,
          "velocity": 0.6299212598425197,
          "duration": 0.09999999999999432
        },
        {
          "name": "C3",
          "midi": 48,
          "time": 160.9999999999991,
          "velocity": 0.6299212598425197,
          "duration": 0.09999999999999432
        },
        {
          "name": "D#3",
          "midi": 51,
          "time": 161.09999999999908,
          "velocity": 0.6299212598425197,
          "duration": 0.19999999999998863
        },
        {
          "name": "D#3",
          "midi": 51,
          "time": 161.29999999999907,
          "velocity": 0.6299212598425197,
          "duration": 0.09999999999999432
        },
        {
          "name": "D3",
          "midi": 50,
          "time": 161.39999999999907,
          "velocity": 0.6299212598425197,
          "duration": 0.09999999999999432
        },
        {
          "name": "D#3",
          "midi": 51,
          "time": 161.49999999999906,
          "velocity": 0.6299212598425197,
          "duration": 0.09999999999999432
        },
        {
          "name": "C3",
          "midi": 48,
          "time": 161.59999999999906,
          "velocity": 0.6299212598425197,
          "duration": 0.09999999999999432
        },
        {
          "name": "A#2",
          "midi": 46,
          "time": 161.69999999999905,
          "velocity": 0.6299212598425197,
          "duration": 0.09999999999999432
        },
        {
          "name": "C3",
          "midi": 48,
          "time": 161.79999999999905,
          "velocity": 0.6299212598425197,
          "duration": 0.09999999999999432
        },
        {
          "name": "F2",
          "midi": 41,
          "time": 161.89999999999904,
          "velocity": 0.6299212598425197,
          "duration": 0.19999999999998863
        },
        {
          "name": "G#2",
          "midi": 44,
          "time": 162.09999999999903,
          "velocity": 0.6299212598425197,
          "duration": 0.09999999999999432
        },
        {
          "name": "A#2",
          "midi": 46,
          "time": 162.19999999999902,
          "velocity": 0.6299212598425197,
          "duration": 0.09999999999999432
        },
        {
          "name": "C3",
          "midi": 48,
          "time": 162.29999999999902,
          "velocity": 0.6299212598425197,
          "duration": 0.09999999999999432
        },
        {
          "name": "D#3",
          "midi": 51,
          "time": 162.499999999999,
          "velocity": 0.6299212598425197,
          "duration": 0.09999999999999432
        },
        {
          "name": "D3",
          "midi": 50,
          "time": 162.599999999999,
          "velocity": 0.6299212598425197,
          "duration": 0.09999999999999432
        },
        {
          "name": "D#3",
          "midi": 51,
          "time": 162.699999999999,
          "velocity": 0.6299212598425197,
          "duration": 0.09999999999999432
        },
        {
          "name": "D3",
          "midi": 50,
          "time": 162.799999999999,
          "velocity": 0.6299212598425197,
          "duration": 0.30000000000001137
        },
        {
          "name": "A#2",
          "midi": 46,
          "time": 163.099999999999,
          "velocity": 0.6299212598425197,
          "duration": 0.09999999999999432
        },
        {
          "name": "C3",
          "midi": 48,
          "time": 163.199999999999,
          "velocity": 0.6299212598425197,
          "duration": 0.4000000000000057
        },
        {
          "name": "D3",
          "midi": 50,
          "time": 163.599999999999,
          "velocity": 0.6299212598425197,
          "duration": 0.30000000000001137
        },
        {
          "name": "D#3",
          "midi": 51,
          "time": 163.899999999999,
          "velocity": 0.6299212598425197,
          "duration": 0.19999999999998863
        },
        {
          "name": "C3",
          "midi": 48,
          "time": 164.099999999999,
          "velocity": 0.6299212598425197,
          "duration": 0.09999999999999432
        },
        {
          "name": "G3",
          "midi": 55,
          "time": 164.199999999999,
          "velocity": 0.6299212598425197,
          "duration": 0.19999999999998863
        },
        {
          "name": "A#3",
          "midi": 58,
          "time": 164.39999999999898,
          "velocity": 0.6299212598425197,
          "duration": 0.13333333333332575
        },
        {
          "name": "B3",
          "midi": 59,
          "time": 164.5333333333323,
          "velocity": 0.6299212598425197,
          "duration": 0.13333333333332575
        },
        {
          "name": "C4",
          "midi": 60,
          "time": 164.66666666666563,
          "velocity": 0.6299212598425197,
          "duration": 0.13333333333332575
        },
        {
          "name": "D3",
          "midi": 50,
          "time": 164.79999999999896,
          "velocity": 0.6299212598425197,
          "duration": 0.4000000000000057
        },
        {
          "name": "D#3",
          "midi": 51,
          "time": 165.19999999999897,
          "velocity": 0.6299212598425197,
          "duration": 0.30000000000001137
        },
        {
          "name": "F3",
          "midi": 53,
          "time": 165.49999999999898,
          "velocity": 0.6299212598425197,
          "duration": 0.4000000000000057
        },
        {
          "name": "D#3",
          "midi": 51,
          "time": 165.89999999999898,
          "velocity": 0.6299212598425197,
          "duration": 0.09999999999999432
        },
        {
          "name": "F3",
          "midi": 53,
          "time": 165.99999999999898,
          "velocity": 0.6299212598425197,
          "duration": 0.4000000000000057
        },
        {
          "name": "C3",
          "midi": 48,
          "time": 166.39999999999898,
          "velocity": 0.6299212598425197,
          "duration": 0.4000000000000057
        },
        {
          "name": "D3",
          "midi": 50,
          "time": 166.799999999999,
          "velocity": 0.6299212598425197,
          "duration": 0.30000000000001137
        },
        {
          "name": "D#3",
          "midi": 51,
          "time": 167.099999999999,
          "velocity": 0.6299212598425197,
          "duration": 0.19999999999998863
        },
        {
          "name": "C3",
          "midi": 48,
          "time": 167.299999999999,
          "velocity": 0.6299212598425197,
          "duration": 0.09999999999999432
        },
        {
          "name": "G3",
          "midi": 55,
          "time": 167.39999999999898,
          "velocity": 0.6299212598425197,
          "duration": 0.19999999999998863
        },
        {
          "name": "A#3",
          "midi": 58,
          "time": 167.59999999999897,
          "velocity": 0.6299212598425197,
          "duration": 0.13333333333332575
        },
        {
          "name": "B3",
          "midi": 59,
          "time": 167.7333333333323,
          "velocity": 0.6299212598425197,
          "duration": 0.13333333333332575
        },
        {
          "name": "C4",
          "midi": 60,
          "time": 167.86666666666562,
          "velocity": 0.6299212598425197,
          "duration": 0.13333333333332575
        },
        {
          "name": "D3",
          "midi": 50,
          "time": 167.99999999999895,
          "velocity": 0.6299212598425197,
          "duration": 0.4000000000000057
        },
        {
          "name": "D#3",
          "midi": 51,
          "time": 168.39999999999895,
          "velocity": 0.6299212598425197,
          "duration": 0.30000000000001137
        },
        {
          "name": "F3",
          "midi": 53,
          "time": 168.69999999999897,
          "velocity": 0.6299212598425197,
          "duration": 0.5
        },
        {
          "name": "A#3",
          "midi": 58,
          "time": 169.19999999999897,
          "velocity": 0.6299212598425197,
          "duration": 0.4000000000000057
        },
        {
          "name": "G4",
          "midi": 67,
          "time": 169.59999999999897,
          "velocity": 0.6299212598425197,
          "duration": 0.09999999999999432
        },
        {
          "name": "F4",
          "midi": 65,
          "time": 169.69999999999897,
          "velocity": 0.6299212598425197,
          "duration": 0.09999999999999432
        },
        {
          "name": "D5",
          "midi": 74,
          "time": 169.79999999999896,
          "velocity": 0.6299212598425197,
          "duration": 0.09999999999999432
        },
        {
          "name": "C5",
          "midi": 72,
          "time": 169.89999999999895,
          "velocity": 0.6299212598425197,
          "duration": 0.09999999999999432
        },
        {
          "name": "A#4",
          "midi": 70,
          "time": 169.99999999999895,
          "velocity": 0.6299212598425197,
          "duration": 0.09999999999999432
        },
        {
          "name": "A4",
          "midi": 69,
          "time": 170.09999999999894,
          "velocity": 0.6299212598425197,
          "duration": 0.09999999999999432
        },
        {
          "name": "G4",
          "midi": 67,
          "time": 170.19999999999894,
          "velocity": 0.6299212598425197,
          "duration": 0.09999999999999432
        },
        {
          "name": "F4",
          "midi": 65,
          "time": 170.29999999999893,
          "velocity": 0.6299212598425197,
          "duration": 0.09999999999999432
        },
        {
          "name": "G4",
          "midi": 67,
          "time": 170.39999999999893,
          "velocity": 0.6299212598425197,
          "duration": 0.09999999999999432
        },
        {
          "name": "F4",
          "midi": 65,
          "time": 170.49999999999892,
          "velocity": 0.6299212598425197,
          "duration": 0.09999999999999432
        },
        {
          "name": "D4",
          "midi": 62,
          "time": 170.59999999999891,
          "velocity": 0.6299212598425197,
          "duration": 0.09999999999999432
        },
        {
          "name": "C4",
          "midi": 60,
          "time": 170.6999999999989,
          "velocity": 0.6299212598425197,
          "duration": 0.09999999999999432
        },
        {
          "name": "D4",
          "midi": 62,
          "time": 170.7999999999989,
          "velocity": 0.6299212598425197,
          "duration": 0.09999999999999432
        },
        {
          "name": "C4",
          "midi": 60,
          "time": 170.8999999999989,
          "velocity": 0.6299212598425197,
          "duration": 0.09999999999999432
        },
        {
          "name": "A#3",
          "midi": 58,
          "time": 170.9999999999989,
          "velocity": 0.6299212598425197,
          "duration": 0.09999999999999432
        },
        {
          "name": "A3",
          "midi": 57,
          "time": 171.0999999999989,
          "velocity": 0.6299212598425197,
          "duration": 0.09999999999999432
        },
        {
          "name": "C3",
          "midi": 48,
          "time": 171.19999999999888,
          "velocity": 0.6299212598425197,
          "duration": 0.4000000000000057
        },
        {
          "name": "D3",
          "midi": 50,
          "time": 171.5999999999989,
          "velocity": 0.6299212598425197,
          "duration": 0.30000000000001137
        },
        {
          "name": "D#3",
          "midi": 51,
          "time": 171.8999999999989,
          "velocity": 0.6299212598425197,
          "duration": 0.09999999999999432
        },
        {
          "name": "C3",
          "midi": 48,
          "time": 171.9999999999989,
          "velocity": 0.6299212598425197,
          "duration": 0.13333333333332575
        },
        {
          "name": "D3",
          "midi": 50,
          "time": 172.13333333333222,
          "velocity": 0.6299212598425197,
          "duration": 0.13333333333332575
        },
        {
          "name": "D#3",
          "midi": 51,
          "time": 172.26666666666554,
          "velocity": 0.6299212598425197,
          "duration": 0.13333333333332575
        },
        {
          "name": "G2",
          "midi": 43,
          "time": 172.39999999999887,
          "velocity": 0.6299212598425197,
          "duration": 0.13333333333332575
        },
        {
          "name": "A#2",
          "midi": 46,
          "time": 172.5333333333322,
          "velocity": 0.6299212598425197,
          "duration": 0.13333333333332575
        },
        {
          "name": "B2",
          "midi": 47,
          "time": 172.66666666666552,
          "velocity": 0.6299212598425197,
          "duration": 0.13333333333332575
        },
        {
          "name": "C3",
          "midi": 48,
          "time": 172.79999999999885,
          "velocity": 0.6299212598425197,
          "duration": 0.19999999999998863
        },
        {
          "name": "C3",
          "midi": 48,
          "time": 172.99999999999883,
          "velocity": 0.6299212598425197,
          "duration": 0.19999999999998863
        },
        {
          "name": "D3",
          "midi": 50,
          "time": 173.19999999999882,
          "velocity": 0.6299212598425197,
          "duration": 0.4000000000000057
        },
        {
          "name": "D#3",
          "midi": 51,
          "time": 173.59999999999883,
          "velocity": 0.6299212598425197,
          "duration": 0.30000000000001137
        },
        {
          "name": "F3",
          "midi": 53,
          "time": 173.89999999999884,
          "velocity": 0.6299212598425197,
          "duration": 0.30000000000001137
        },
        {
          "name": "G3",
          "midi": 55,
          "time": 174.19999999999885,
          "velocity": 0.6299212598425197,
          "duration": 0.19999999999998863
        },
        {
          "name": "F3",
          "midi": 53,
          "time": 174.39999999999884,
          "velocity": 0.6299212598425197,
          "duration": 0.8000000000000114
        },
        {
          "name": "A#2",
          "midi": 46,
          "time": 175.19999999999885,
          "velocity": 0.6299212598425197,
          "duration": 0.8000000000000114
        },
        {
          "name": "D#3",
          "midi": 51,
          "time": 175.99999999999886,
          "velocity": 0.6299212598425197,
          "duration": 0.8000000000000114
        },
        {
          "name": "G2",
          "midi": 43,
          "time": 176.79999999999887,
          "velocity": 0.6299212598425197,
          "duration": 0.4000000000000057
        },
        {
          "name": "F2",
          "midi": 41,
          "time": 177.19999999999888,
          "velocity": 0.6299212598425197,
          "duration": 0.09999999999999432
        },
        {
          "name": "A2",
          "midi": 45,
          "time": 177.29999999999887,
          "velocity": 0.6299212598425197,
          "duration": 0.09999999999999432
        },
        {
          "name": "A#2",
          "midi": 46,
          "time": 177.39999999999887,
          "velocity": 0.6299212598425197,
          "duration": 0.09999999999999432
        },
        {
          "name": "B2",
          "midi": 47,
          "time": 177.49999999999886,
          "velocity": 0.6299212598425197,
          "duration": 0.09999999999999432
        },
        {
          "name": "C3",
          "midi": 48,
          "time": 177.59999999999886,
          "velocity": 0.6299212598425197,
          "duration": 1.5999999999999943
        },
        {
          "name": "D#3",
          "midi": 51,
          "time": 179.19999999999885,
          "velocity": 0.6299212598425197,
          "duration": 1.5999999999999943
        },
        {
          "name": "F3",
          "midi": 53,
          "time": 180.79999999999885,
          "velocity": 0.6299212598425197,
          "duration": 0.8000000000000114
        },
        {
          "name": "A#2",
          "midi": 46,
          "time": 181.59999999999886,
          "velocity": 0.6299212598425197,
          "duration": 0.8000000000000114
        },
        {
          "name": "D#3",
          "midi": 51,
          "time": 182.39999999999887,
          "velocity": 0.6299212598425197,
          "duration": 0.4000000000000057
        },
        {
          "name": "D#3",
          "midi": 51,
          "time": 182.79999999999887,
          "velocity": 0.6299212598425197,
          "duration": 0.09999999999999432
        },
        {
          "name": "F3",
          "midi": 53,
          "time": 182.89999999999887,
          "velocity": 0.6299212598425197,
          "duration": 0.19999999999998863
        },
        {
          "name": "D#3",
          "midi": 51,
          "time": 183.09999999999886,
          "velocity": 0.6299212598425197,
          "duration": 0.09999999999999432
        },
        {
          "name": "G3",
          "midi": 55,
          "time": 183.19999999999885,
          "velocity": 0.6299212598425197,
          "duration": 0.4000000000000057
        },
        {
          "name": "F3",
          "midi": 53,
          "time": 183.59999999999886,
          "velocity": 0.6299212598425197,
          "duration": 0.4000000000000057
        },
        {
          "name": "G3",
          "midi": 55,
          "time": 183.99999999999886,
          "velocity": 0.6299212598425197,
          "duration": 0.5999999999999943
        },
        {
          "name": "G3",
          "midi": 55,
          "time": 184.59999999999886,
          "velocity": 0.6299212598425197,
          "duration": 0.4000000000000057
        },
        {
          "name": "G3",
          "midi": 55,
          "time": 184.99999999999886,
          "velocity": 0.6299212598425197,
          "duration": 0.19999999999998863
        },
        {
          "name": "F3",
          "midi": 53,
          "time": 185.19999999999885,
          "velocity": 0.6299212598425197,
          "duration": 0.4000000000000057
        },
        {
          "name": "D#3",
          "midi": 51,
          "time": 185.59999999999886,
          "velocity": 0.6299212598425197,
          "duration": 0.5999999999999943
        },
        {
          "name": "D#3",
          "midi": 51,
          "time": 186.19999999999885,
          "velocity": 0.6299212598425197,
          "duration": 0.4000000000000057
        },
        {
          "name": "D#3",
          "midi": 51,
          "time": 186.59999999999886,
          "velocity": 0.6299212598425197,
          "duration": 0.19999999999998863
        },
        {
          "name": "F3",
          "midi": 53,
          "time": 186.79999999999885,
          "velocity": 0.6299212598425197,
          "duration": 0.4000000000000057
        },
        {
          "name": "G3",
          "midi": 55,
          "time": 187.19999999999885,
          "velocity": 0.6299212598425197,
          "duration": 0.5999999999999943
        },
        {
          "name": "G3",
          "midi": 55,
          "time": 187.79999999999885,
          "velocity": 0.6299212598425197,
          "duration": 0.4000000000000057
        },
        {
          "name": "G3",
          "midi": 55,
          "time": 188.19999999999885,
          "velocity": 0.6299212598425197,
          "duration": 0.19999999999998863
        },
        {
          "name": "F3",
          "midi": 53,
          "time": 188.39999999999884,
          "velocity": 0.6299212598425197,
          "duration": 0.4000000000000057
        },
        {
          "name": "D#3",
          "midi": 51,
          "time": 188.79999999999885,
          "velocity": 0.6299212598425197,
          "duration": 0.4000000000000057
        },
        {
          "name": "D#3",
          "midi": 51,
          "time": 189.29999999999885,
          "velocity": 0.6299212598425197,
          "duration": 0.09999999999999432
        },
        {
          "name": "F3",
          "midi": 53,
          "time": 189.39999999999884,
          "velocity": 0.6299212598425197,
          "duration": 0.09999999999999432
        },
        {
          "name": "G3",
          "midi": 55,
          "time": 189.49999999999883,
          "velocity": 0.6299212598425197,
          "duration": 0.09999999999999432
        },
        {
          "name": "A3",
          "midi": 57,
          "time": 189.59999999999883,
          "velocity": 0.6299212598425197,
          "duration": 0.09999999999999432
        },
        {
          "name": "A#3",
          "midi": 58,
          "time": 189.69999999999882,
          "velocity": 0.6299212598425197,
          "duration": 0.09999999999999432
        },
        {
          "name": "A3",
          "midi": 57,
          "time": 189.79999999999882,
          "velocity": 0.6299212598425197,
          "duration": 0.19999999999998863
        },
        {
          "name": "F3",
          "midi": 53,
          "time": 189.9999999999988,
          "velocity": 0.6299212598425197,
          "duration": 0.4000000000000057
        },
        {
          "name": "G3",
          "midi": 55,
          "time": 190.3999999999988,
          "velocity": 0.6299212598425197,
          "duration": 0.5999999999999943
        },
        {
          "name": "G3",
          "midi": 55,
          "time": 190.9999999999988,
          "velocity": 0.6299212598425197,
          "duration": 0.4000000000000057
        },
        {
          "name": "G3",
          "midi": 55,
          "time": 191.3999999999988,
          "velocity": 0.6299212598425197,
          "duration": 0.19999999999998863
        },
        {
          "name": "F3",
          "midi": 53,
          "time": 191.5999999999988,
          "velocity": 0.6299212598425197,
          "duration": 0.4000000000000057
        },
        {
          "name": "D#3",
          "midi": 51,
          "time": 191.9999999999988,
          "velocity": 0.6299212598425197,
          "duration": 0.5999999999999943
        },
        {
          "name": "D#3",
          "midi": 51,
          "time": 192.5999999999988,
          "velocity": 0.6299212598425197,
          "duration": 0.4000000000000057
        },
        {
          "name": "D#3",
          "midi": 51,
          "time": 192.9999999999988,
          "velocity": 0.6299212598425197,
          "duration": 0.19999999999998863
        },
        {
          "name": "F3",
          "midi": 53,
          "time": 193.1999999999988,
          "velocity": 0.6299212598425197,
          "duration": 0.4000000000000057
        },
        {
          "name": "G3",
          "midi": 55,
          "time": 193.5999999999988,
          "velocity": 0.6299212598425197,
          "duration": 0.5999999999999943
        },
        {
          "name": "G3",
          "midi": 55,
          "time": 194.1999999999988,
          "velocity": 0.6299212598425197,
          "duration": 0.4000000000000057
        },
        {
          "name": "G3",
          "midi": 55,
          "time": 194.5999999999988,
          "velocity": 0.6299212598425197,
          "duration": 0.19999999999998863
        },
        {
          "name": "A#3",
          "midi": 58,
          "time": 194.7999999999988,
          "velocity": 0.6299212598425197,
          "duration": 0.4000000000000057
        },
        {
          "name": "F3",
          "midi": 53,
          "time": 195.1999999999988,
          "velocity": 0.6299212598425197,
          "duration": 0.5999999999999943
        },
        {
          "name": "F3",
          "midi": 53,
          "time": 195.7999999999988,
          "velocity": 0.6299212598425197,
          "duration": 0.4000000000000057
        }
];