export let synth1 = [
        {
          "name": "C5",
          "midi": 72,
          "time": 0,
          "velocity": 0.6299212598425197,
          "duration": 0.08000000000000002
        },
        {
          "name": "A#4",
          "midi": 70,
          "time": 0.10000000000000002,
          "velocity": 0.6299212598425197,
          "duration": 0.08000000000000003
        },
        {
          "name": "G4",
          "midi": 67,
          "time": 0.20000000000000007,
          "velocity": 0.6299212598425197,
          "duration": 0.08000000000000002
        },
        {
          "name": "F4",
          "midi": 65,
          "time": 0.3000000000000001,
          "velocity": 0.6299212598425197,
          "duration": 0.08000000000000002
        },
        {
          "name": "G4",
          "midi": 67,
          "time": 0.40000000000000013,
          "velocity": 0.6299212598425197,
          "duration": 0.08000000000000002
        },
        {
          "name": "F4",
          "midi": 65,
          "time": 0.5000000000000001,
          "velocity": 0.6299212598425197,
          "duration": 0.07999999999999996
        },
        {
          "name": "D#4",
          "midi": 63,
          "time": 0.6000000000000001,
          "velocity": 0.6299212598425197,
          "duration": 0.08000000000000007
        },
        {
          "name": "D4",
          "midi": 62,
          "time": 0.7000000000000002,
          "velocity": 0.6299212598425197,
          "duration": 0.08000000000000007
        },
        {
          "name": "D#4",
          "midi": 63,
          "time": 0.8000000000000003,
          "velocity": 0.6299212598425197,
          "duration": 0.08000000000000007
        },
        {
          "name": "D4",
          "midi": 62,
          "time": 0.9000000000000004,
          "velocity": 0.6299212598425197,
          "duration": 0.08000000000000007
        },
        {
          "name": "C4",
          "midi": 60,
          "time": 1.0000000000000004,
          "velocity": 0.6299212598425197,
          "duration": 0.08000000000000007
        },
        {
          "name": "A#3",
          "midi": 58,
          "time": 1.1000000000000005,
          "velocity": 0.6299212598425197,
          "duration": 0.08000000000000007
        },
        {
          "name": "A#3",
          "midi": 58,
          "time": 1.2000000000000006,
          "velocity": 0.6299212598425197,
          "duration": 0.08000000000000007
        },
        {
          "name": "G3",
          "midi": 55,
          "time": 1.3000000000000007,
          "velocity": 0.6299212598425197,
          "duration": 0.08000000000000007
        },
        {
          "name": "A#3",
          "midi": 58,
          "time": 1.4000000000000008,
          "velocity": 0.6299212598425197,
          "duration": 0.08000000000000007
        },
        {
          "name": "B3",
          "midi": 59,
          "time": 1.5000000000000009,
          "velocity": 0.6299212598425197,
          "duration": 0.08000000000000007
        },
        {
          "name": "C4",
          "midi": 60,
          "time": 1.600000000000001,
          "velocity": 0.6299212598425197,
          "duration": 0.6400000000000001
        },
        {
          "name": "G4",
          "midi": 67,
          "time": 2.4000000000000012,
          "velocity": 0.6299212598425197,
          "duration": 0.16000000000000014
        },
        {
          "name": "F4",
          "midi": 65,
          "time": 2.6000000000000014,
          "velocity": 0.6299212598425197,
          "duration": 0.08000000000000007
        },
        {
          "name": "G4",
          "midi": 67,
          "time": 2.7000000000000015,
          "velocity": 0.6299212598425197,
          "duration": 0.16000000000000014
        },
        {
          "name": "G#4",
          "midi": 68,
          "time": 2.9000000000000017,
          "velocity": 0.6299212598425197,
          "duration": 0.08000000000000007
        },
        {
          "name": "A#4",
          "midi": 70,
          "time": 3.0000000000000018,
          "velocity": 0.6299212598425197,
          "duration": 1.7999999999999998
        },
        {
          "name": "C4",
          "midi": 60,
          "time": 4.800000000000002,
          "velocity": 0.6299212598425197,
          "duration": 0.6399999999999997
        },
        {
          "name": "G4",
          "midi": 67,
          "time": 5.600000000000001,
          "velocity": 0.6299212598425197,
          "duration": 0.16000000000000014
        },
        {
          "name": "F4",
          "midi": 65,
          "time": 5.800000000000002,
          "velocity": 0.6299212598425197,
          "duration": 0.08000000000000007
        },
        {
          "name": "G4",
          "midi": 67,
          "time": 5.900000000000001,
          "velocity": 0.6299212598425197,
          "duration": 0.16000000000000014
        },
        {
          "name": "A4",
          "midi": 69,
          "time": 6.100000000000001,
          "velocity": 0.6299212598425197,
          "duration": 0.08000000000000007
        },
        {
          "name": "D#4",
          "midi": 63,
          "time": 6.200000000000001,
          "velocity": 0.6299212598425197,
          "duration": 1.8000000000000007
        },
        {
          "name": "C4",
          "midi": 60,
          "time": 8.000000000000002,
          "velocity": 0.6299212598425197,
          "duration": 0.6400000000000006
        },
        {
          "name": "G4",
          "midi": 67,
          "time": 8.800000000000002,
          "velocity": 0.6299212598425197,
          "duration": 0.16000000000000014
        },
        {
          "name": "F4",
          "midi": 65,
          "time": 9.000000000000002,
          "velocity": 0.6299212598425197,
          "duration": 0.08000000000000007
        },
        {
          "name": "G4",
          "midi": 67,
          "time": 9.100000000000001,
          "velocity": 0.6299212598425197,
          "duration": 0.16000000000000014
        },
        {
          "name": "G#4",
          "midi": 68,
          "time": 9.3,
          "velocity": 0.6299212598425197,
          "duration": 0.08000000000000007
        },
        {
          "name": "A#4",
          "midi": 70,
          "time": 9.4,
          "velocity": 0.6299212598425197,
          "duration": 1.8000000000000007
        },
        {
          "name": "C4",
          "midi": 60,
          "time": 11.200000000000001,
          "velocity": 0.6299212598425197,
          "duration": 0.6400000000000006
        },
        {
          "name": "G4",
          "midi": 67,
          "time": 12.000000000000002,
          "velocity": 0.6299212598425197,
          "duration": 0.16000000000000014
        },
        {
          "name": "F4",
          "midi": 65,
          "time": 12.200000000000001,
          "velocity": 0.6299212598425197,
          "duration": 0.08000000000000007
        },
        {
          "name": "G4",
          "midi": 67,
          "time": 12.3,
          "velocity": 0.6299212598425197,
          "duration": 0.16000000000000014
        },
        {
          "name": "A4",
          "midi": 69,
          "time": 12.5,
          "velocity": 0.6299212598425197,
          "duration": 0.08000000000000007
        },
        {
          "name": "D#4",
          "midi": 63,
          "time": 12.6,
          "velocity": 0.6299212598425197,
          "duration": 1.8000000000000007
        },
        {
          "name": "G4",
          "midi": 67,
          "time": 14.4,
          "velocity": 0.6299212598425197,
          "duration": 0.09999999999999964
        },
        {
          "name": "G4",
          "midi": 67,
          "time": 14.6,
          "velocity": 0.6299212598425197,
          "duration": 0.2400000000000002
        },
        {
          "name": "A4",
          "midi": 69,
          "time": 14.9,
          "velocity": 0.6299212598425197,
          "duration": 0.2400000000000002
        },
        {
          "name": "A#4",
          "midi": 70,
          "time": 15.200000000000001,
          "velocity": 0.6299212598425197,
          "duration": 0.09999999999999964
        },
        {
          "name": "A#4",
          "midi": 70,
          "time": 15.4,
          "velocity": 0.6299212598425197,
          "duration": 0.1999999999999993
        },
        {
          "name": "A4",
          "midi": 69,
          "time": 16,
          "velocity": 0.6299212598425197,
          "duration": 0.10000000000000142
        },
        {
          "name": "A4",
          "midi": 69,
          "time": 16.200000000000003,
          "velocity": 0.6299212598425197,
          "duration": 0.23999999999999844
        },
        {
          "name": "A#4",
          "midi": 70,
          "time": 16.5,
          "velocity": 0.6299212598425197,
          "duration": 0.23999999999999844
        },
        {
          "name": "C5",
          "midi": 72,
          "time": 16.799999999999997,
          "velocity": 0.6299212598425197,
          "duration": 0.10000000000000142
        },
        {
          "name": "C5",
          "midi": 72,
          "time": 17,
          "velocity": 0.6299212598425197,
          "duration": 0.16000000000000014
        },
        {
          "name": "A#4",
          "midi": 70,
          "time": 17.2,
          "velocity": 0.6299212598425197,
          "duration": 0.0799999999999983
        },
        {
          "name": "C5",
          "midi": 72,
          "time": 17.299999999999997,
          "velocity": 0.6299212598425197,
          "duration": 0.23999999999999844
        },
        {
          "name": "G4",
          "midi": 67,
          "time": 17.599999999999994,
          "velocity": 0.6299212598425197,
          "duration": 0.10000000000000142
        },
        {
          "name": "G4",
          "midi": 67,
          "time": 17.799999999999997,
          "velocity": 0.6299212598425197,
          "duration": 0.23999999999999844
        },
        {
          "name": "A4",
          "midi": 69,
          "time": 18.099999999999994,
          "velocity": 0.6299212598425197,
          "duration": 0.23999999999999844
        },
        {
          "name": "A#4",
          "midi": 70,
          "time": 18.39999999999999,
          "velocity": 0.6299212598425197,
          "duration": 0.10000000000000142
        },
        {
          "name": "A#4",
          "midi": 70,
          "time": 18.599999999999994,
          "velocity": 0.6299212598425197,
          "duration": 0.1999999999999993
        },
        {
          "name": "A4",
          "midi": 69,
          "time": 19.199999999999992,
          "velocity": 0.6299212598425197,
          "duration": 0.10000000000000142
        },
        {
          "name": "A4",
          "midi": 69,
          "time": 19.399999999999995,
          "velocity": 0.6299212598425197,
          "duration": 0.23999999999999844
        },
        {
          "name": "A#4",
          "midi": 70,
          "time": 19.699999999999992,
          "velocity": 0.6299212598425197,
          "duration": 0.23999999999999844
        },
        {
          "name": "C5",
          "midi": 72,
          "time": 19.99999999999999,
          "velocity": 0.6299212598425197,
          "duration": 0.3200000000000003
        },
        {
          "name": "F5",
          "midi": 77,
          "time": 20.399999999999988,
          "velocity": 0.6299212598425197,
          "duration": 0.3200000000000003
        },
        {
          "name": "G5",
          "midi": 79,
          "time": 20.799999999999986,
          "velocity": 0.6299212598425197,
          "duration": 0.0799999999999983
        },
        {
          "name": "F5",
          "midi": 77,
          "time": 20.899999999999984,
          "velocity": 0.6299212598425197,
          "duration": 0.0799999999999983
        },
        {
          "name": "G5",
          "midi": 79,
          "time": 20.999999999999982,
          "velocity": 0.6299212598425197,
          "duration": 0.0799999999999983
        },
        {
          "name": "F5",
          "midi": 77,
          "time": 21.09999999999998,
          "velocity": 0.6299212598425197,
          "duration": 0.0799999999999983
        },
        {
          "name": "D6",
          "midi": 86,
          "time": 21.199999999999978,
          "velocity": 0.6299212598425197,
          "duration": 0.0799999999999983
        },
        {
          "name": "C6",
          "midi": 84,
          "time": 21.299999999999976,
          "velocity": 0.6299212598425197,
          "duration": 0.0799999999999983
        },
        {
          "name": "A#5",
          "midi": 82,
          "time": 21.399999999999974,
          "velocity": 0.6299212598425197,
          "duration": 0.0799999999999983
        },
        {
          "name": "A5",
          "midi": 81,
          "time": 21.49999999999997,
          "velocity": 0.6299212598425197,
          "duration": 0.0799999999999983
        },
        {
          "name": "G5",
          "midi": 79,
          "time": 21.59999999999997,
          "velocity": 0.6299212598425197,
          "duration": 0.0799999999999983
        },
        {
          "name": "F5",
          "midi": 77,
          "time": 21.699999999999967,
          "velocity": 0.6299212598425197,
          "duration": 0.0799999999999983
        },
        {
          "name": "G5",
          "midi": 79,
          "time": 21.799999999999965,
          "velocity": 0.6299212598425197,
          "duration": 0.0799999999999983
        },
        {
          "name": "F5",
          "midi": 77,
          "time": 21.899999999999963,
          "velocity": 0.6299212598425197,
          "duration": 0.0799999999999983
        },
        {
          "name": "D5",
          "midi": 74,
          "time": 21.99999999999996,
          "velocity": 0.6299212598425197,
          "duration": 0.0799999999999983
        },
        {
          "name": "C5",
          "midi": 72,
          "time": 22.09999999999996,
          "velocity": 0.6299212598425197,
          "duration": 0.0799999999999983
        },
        {
          "name": "D5",
          "midi": 74,
          "time": 22.199999999999957,
          "velocity": 0.6299212598425197,
          "duration": 0.0799999999999983
        },
        {
          "name": "C5",
          "midi": 72,
          "time": 22.299999999999955,
          "velocity": 0.6299212598425197,
          "duration": 0.0799999999999983
        },
        {
          "name": "G3",
          "midi": 55,
          "time": 22.399999999999952,
          "velocity": 0.6299212598425197,
          "duration": 0.3200000000000003
        },
        {
          "name": "G3",
          "midi": 55,
          "time": 22.79999999999995,
          "velocity": 0.6299212598425197,
          "duration": 0.0799999999999983
        },
        {
          "name": "D4",
          "midi": 62,
          "time": 22.89999999999995,
          "velocity": 0.6299212598425197,
          "duration": 0.18833333333333258
        },
        {
          "name": "D#4",
          "midi": 63,
          "time": 23.099999999999948,
          "velocity": 0.6299212598425197,
          "duration": 0.0799999999999983
        },
        {
          "name": "G4",
          "midi": 67,
          "time": 23.199999999999946,
          "velocity": 0.6299212598425197,
          "duration": 0.16000000000000014
        },
        {
          "name": "F4",
          "midi": 65,
          "time": 23.399999999999945,
          "velocity": 0.6299212598425197,
          "duration": 0.16000000000000014
        },
        {
          "name": "D#4",
          "midi": 63,
          "time": 23.599999999999945,
          "velocity": 0.6299212598425197,
          "duration": 0.0799999999999983
        },
        {
          "name": "D4",
          "midi": 62,
          "time": 23.699999999999942,
          "velocity": 0.6299212598425197,
          "duration": 0.16000000000000014
        },
        {
          "name": "A#3",
          "midi": 58,
          "time": 23.89999999999994,
          "velocity": 0.6299212598425197,
          "duration": 0.0799999999999983
        },
        {
          "name": "C3",
          "midi": 48,
          "time": 23.99999999999994,
          "velocity": 0.6299212598425197,
          "duration": 0.0799999999999983
        },
        {
          "name": "C3",
          "midi": 48,
          "time": 24.099999999999937,
          "velocity": 0.6299212598425197,
          "duration": 0.0799999999999983
        },
        {
          "name": "C3",
          "midi": 48,
          "time": 24.199999999999935,
          "velocity": 0.6299212598425197,
          "duration": 0.0799999999999983
        },
        {
          "name": "C3",
          "midi": 48,
          "time": 24.399999999999935,
          "velocity": 0.6299212598425197,
          "duration": 0.0799999999999983
        },
        {
          "name": "D3",
          "midi": 50,
          "time": 24.499999999999932,
          "velocity": 0.6299212598425197,
          "duration": 0.23999999999999844
        },
        {
          "name": "D#3",
          "midi": 51,
          "time": 24.79999999999993,
          "velocity": 0.6299212598425197,
          "duration": 0.23999999999999844
        },
        {
          "name": "C3",
          "midi": 48,
          "time": 25.099999999999927,
          "velocity": 0.6299212598425197,
          "duration": 0.09499999999999886
        },
        {
          "name": "F3",
          "midi": 53,
          "time": 25.199999999999925,
          "velocity": 0.6299212598425197,
          "duration": 0.0799999999999983
        },
        {
          "name": "G3",
          "midi": 55,
          "time": 25.299999999999923,
          "velocity": 0.6299212598425197,
          "duration": 0.23999999999999844
        },
        {
          "name": "F3",
          "midi": 53,
          "time": 25.59999999999992,
          "velocity": 0.6299212598425197,
          "duration": 0.3200000000000003
        },
        {
          "name": "G3",
          "midi": 55,
          "time": 25.99999999999992,
          "velocity": 0.6299212598425197,
          "duration": 0.0799999999999983
        },
        {
          "name": "A3",
          "midi": 57,
          "time": 26.099999999999916,
          "velocity": 0.6299212598425197,
          "duration": 0.23999999999999844
        },
        {
          "name": "A#3",
          "midi": 58,
          "time": 26.399999999999913,
          "velocity": 0.6299212598425197,
          "duration": 0.3200000000000003
        },
        {
          "name": "C4",
          "midi": 60,
          "time": 26.799999999999912,
          "velocity": 0.6299212598425197,
          "duration": 0.0799999999999983
        },
        {
          "name": "D4",
          "midi": 62,
          "time": 26.89999999999991,
          "velocity": 0.6299212598425197,
          "duration": 0.23999999999999844
        },
        {
          "name": "D#4",
          "midi": 63,
          "time": 27.199999999999907,
          "velocity": 0.6299212598425197,
          "duration": 0.3200000000000003
        },
        {
          "name": "D#4",
          "midi": 63,
          "time": 27.599999999999905,
          "velocity": 0.6299212598425197,
          "duration": 0.0799999999999983
        },
        {
          "name": "F4",
          "midi": 65,
          "time": 27.699999999999903,
          "velocity": 0.6299212598425197,
          "duration": 0.16000000000000014
        },
        {
          "name": "G4",
          "midi": 67,
          "time": 27.899999999999903,
          "velocity": 0.6299212598425197,
          "duration": 0.0799999999999983
        },
        {
          "name": "A#4",
          "midi": 70,
          "time": 27.9999999999999,
          "velocity": 0.6299212598425197,
          "duration": 0.3200000000000003
        },
        {
          "name": "A4",
          "midi": 69,
          "time": 28.3999999999999,
          "velocity": 0.6299212598425197,
          "duration": 0.09499999999999886
        },
        {
          "name": "C4",
          "midi": 60,
          "time": 28.499999999999897,
          "velocity": 0.6299212598425197,
          "duration": 0.0799999999999983
        },
        {
          "name": "D#4",
          "midi": 63,
          "time": 28.599999999999895,
          "velocity": 0.6299212598425197,
          "duration": 0.0799999999999983
        },
        {
          "name": "F4",
          "midi": 65,
          "time": 28.699999999999893,
          "velocity": 0.6299212598425197,
          "duration": 0.0799999999999983
        },
        {
          "name": "G4",
          "midi": 67,
          "time": 28.79999999999989,
          "velocity": 0.6299212598425197,
          "duration": 0.0799999999999983
        },
        {
          "name": "F4",
          "midi": 65,
          "time": 28.89999999999989,
          "velocity": 0.6299212598425197,
          "duration": 0.0799999999999983
        },
        {
          "name": "G4",
          "midi": 67,
          "time": 28.999999999999886,
          "velocity": 0.6299212598425197,
          "duration": 0.0799999999999983
        },
        {
          "name": "C4",
          "midi": 60,
          "time": 29.099999999999884,
          "velocity": 0.6299212598425197,
          "duration": 0.17999999999999972
        },
        {
          "name": "C4",
          "midi": 60,
          "time": 29.299999999999883,
          "velocity": 0.6299212598425197,
          "duration": 0.0799999999999983
        },
        {
          "name": "D#4",
          "midi": 63,
          "time": 29.39999999999988,
          "velocity": 0.6299212598425197,
          "duration": 0.0799999999999983
        },
        {
          "name": "F4",
          "midi": 65,
          "time": 29.49999999999988,
          "velocity": 0.6299212598425197,
          "duration": 0.0799999999999983
        },
        {
          "name": "G4",
          "midi": 67,
          "time": 29.599999999999877,
          "velocity": 0.6299212598425197,
          "duration": 0.16000000000000014
        },
        {
          "name": "A#4",
          "midi": 70,
          "time": 29.799999999999876,
          "velocity": 0.6299212598425197,
          "duration": 0.0799999999999983
        },
        {
          "name": "A4",
          "midi": 69,
          "time": 29.899999999999874,
          "velocity": 0.6299212598425197,
          "duration": 0.0799999999999983
        },
        {
          "name": "A#4",
          "midi": 70,
          "time": 29.999999999999872,
          "velocity": 0.6299212598425197,
          "duration": 0.0799999999999983
        },
        {
          "name": "A4",
          "midi": 69,
          "time": 30.09999999999987,
          "velocity": 0.6299212598425197,
          "duration": 0.16000000000000014
        },
        {
          "name": "F4",
          "midi": 65,
          "time": 30.29999999999987,
          "velocity": 0.6299212598425197,
          "duration": 0.0799999999999983
        },
        {
          "name": "G4",
          "midi": 67,
          "time": 30.399999999999867,
          "velocity": 0.6299212598425197,
          "duration": 0.0799999999999983
        },
        {
          "name": "F4",
          "midi": 65,
          "time": 30.499999999999865,
          "velocity": 0.6299212598425197,
          "duration": 0.0799999999999983
        },
        {
          "name": "G4",
          "midi": 67,
          "time": 30.599999999999863,
          "velocity": 0.6299212598425197,
          "duration": 0.0799999999999983
        },
        {
          "name": "C4",
          "midi": 60,
          "time": 30.69999999999986,
          "velocity": 0.6299212598425197,
          "duration": 0.17999999999999972
        },
        {
          "name": "C4",
          "midi": 60,
          "time": 30.89999999999986,
          "velocity": 0.6299212598425197,
          "duration": 0.0799999999999983
        },
        {
          "name": "D#4",
          "midi": 63,
          "time": 30.999999999999858,
          "velocity": 0.6299212598425197,
          "duration": 0.0799999999999983
        },
        {
          "name": "F4",
          "midi": 65,
          "time": 31.099999999999856,
          "velocity": 0.6299212598425197,
          "duration": 0.0799999999999983
        },
        {
          "name": "G4",
          "midi": 67,
          "time": 31.199999999999854,
          "velocity": 0.6299212598425197,
          "duration": 0.16000000000000014
        },
        {
          "name": "A#4",
          "midi": 70,
          "time": 31.399999999999853,
          "velocity": 0.6299212598425197,
          "duration": 0.0799999999999983
        },
        {
          "name": "A4",
          "midi": 69,
          "time": 31.49999999999985,
          "velocity": 0.6299212598425197,
          "duration": 0.0799999999999983
        },
        {
          "name": "A#4",
          "midi": 70,
          "time": 31.59999999999985,
          "velocity": 0.6299212598425197,
          "duration": 0.0799999999999983
        },
        {
          "name": "C5",
          "midi": 72,
          "time": 31.699999999999847,
          "velocity": 0.6299212598425197,
          "duration": 0.16000000000000014
        },
        {
          "name": "D5",
          "midi": 74,
          "time": 31.899999999999846,
          "velocity": 0.6299212598425197,
          "duration": 0.0799999999999983
        },
        {
          "name": "F3",
          "midi": 53,
          "time": 31.999999999999844,
          "velocity": 0.6299212598425197,
          "duration": 0.3200000000000003
        },
        {
          "name": "G3",
          "midi": 55,
          "time": 32.39999999999984,
          "velocity": 0.6299212598425197,
          "duration": 0.0799999999999983
        },
        {
          "name": "A3",
          "midi": 57,
          "time": 32.499999999999844,
          "velocity": 0.6299212598425197,
          "duration": 0.240000000000002
        },
        {
          "name": "A#3",
          "midi": 58,
          "time": 32.79999999999985,
          "velocity": 0.6299212598425197,
          "duration": 0.3200000000000003
        },
        {
          "name": "C4",
          "midi": 60,
          "time": 33.19999999999985,
          "velocity": 0.6299212598425197,
          "duration": 0.0799999999999983
        },
        {
          "name": "D4",
          "midi": 62,
          "time": 33.29999999999985,
          "velocity": 0.6299212598425197,
          "duration": 0.240000000000002
        },
        {
          "name": "D#4",
          "midi": 63,
          "time": 33.59999999999985,
          "velocity": 0.6299212598425197,
          "duration": 0.0799999999999983
        },
        {
          "name": "D#4",
          "midi": 63,
          "time": 33.699999999999854,
          "velocity": 0.6299212598425197,
          "duration": 0.0799999999999983
        },
        {
          "name": "D#4",
          "midi": 63,
          "time": 33.799999999999855,
          "velocity": 0.6299212598425197,
          "duration": 0.1599999999999966
        },
        {
          "name": "D#4",
          "midi": 63,
          "time": 33.99999999999985,
          "velocity": 0.6299212598425197,
          "duration": 0.0799999999999983
        },
        {
          "name": "F4",
          "midi": 65,
          "time": 34.09999999999985,
          "velocity": 0.6299212598425197,
          "duration": 0.1599999999999966
        },
        {
          "name": "G4",
          "midi": 67,
          "time": 34.29999999999985,
          "velocity": 0.6299212598425197,
          "duration": 0.0799999999999983
        },
        {
          "name": "A#4",
          "midi": 70,
          "time": 34.39999999999985,
          "velocity": 0.6299212598425197,
          "duration": 0.3200000000000003
        },
        {
          "name": "A4",
          "midi": 69,
          "time": 34.79999999999985,
          "velocity": 0.6299212598425197,
          "duration": 0.3200000000000003
        },
        {
          "name": "G4",
          "midi": 67,
          "time": 35.19999999999985,
          "velocity": 0.6299212598425197,
          "duration": 0.0799999999999983
        },
        {
          "name": "G4",
          "midi": 67,
          "time": 35.29999999999985,
          "velocity": 0.6299212598425197,
          "duration": 0.0799999999999983
        },
        {
          "name": "G4",
          "midi": 67,
          "time": 35.39999999999985,
          "velocity": 0.6299212598425197,
          "duration": 0.0799999999999983
        },
        {
          "name": "G4",
          "midi": 67,
          "time": 35.49999999999985,
          "velocity": 0.6299212598425197,
          "duration": 0.0799999999999983
        },
        {
          "name": "G4",
          "midi": 67,
          "time": 35.69999999999985,
          "velocity": 0.6299212598425197,
          "duration": 0.0799999999999983
        },
        {
          "name": "G4",
          "midi": 67,
          "time": 35.79999999999985,
          "velocity": 0.6299212598425197,
          "duration": 0.0799999999999983
        },
        {
          "name": "G4",
          "midi": 67,
          "time": 35.89999999999985,
          "velocity": 0.6299212598425197,
          "duration": 0.0799999999999983
        },
        {
          "name": "G4",
          "midi": 67,
          "time": 35.99999999999985,
          "velocity": 0.6299212598425197,
          "duration": 0.10000000000000142
        },
        {
          "name": "G4",
          "midi": 67,
          "time": 36.199999999999854,
          "velocity": 0.6299212598425197,
          "duration": 0.10000000000000142
        },
        {
          "name": "F4",
          "midi": 65,
          "time": 36.39999999999986,
          "velocity": 0.6299212598425197,
          "duration": 0.3200000000000003
        },
        {
          "name": "D#4",
          "midi": 63,
          "time": 36.799999999999855,
          "velocity": 0.6299212598425197,
          "duration": 0.0799999999999983
        },
        {
          "name": "D#4",
          "midi": 63,
          "time": 36.89999999999986,
          "velocity": 0.6299212598425197,
          "duration": 0.0799999999999983
        },
        {
          "name": "D#4",
          "midi": 63,
          "time": 36.99999999999986,
          "velocity": 0.6299212598425197,
          "duration": 0.0799999999999983
        },
        {
          "name": "D#4",
          "midi": 63,
          "time": 37.09999999999986,
          "velocity": 0.6299212598425197,
          "duration": 0.0799999999999983
        },
        {
          "name": "D#4",
          "midi": 63,
          "time": 37.299999999999855,
          "velocity": 0.6299212598425197,
          "duration": 0.0799999999999983
        },
        {
          "name": "D#4",
          "midi": 63,
          "time": 37.39999999999986,
          "velocity": 0.6299212598425197,
          "duration": 0.0799999999999983
        },
        {
          "name": "D#4",
          "midi": 63,
          "time": 37.49999999999986,
          "velocity": 0.6299212598425197,
          "duration": 0.0799999999999983
        },
        {
          "name": "D#4",
          "midi": 63,
          "time": 37.59999999999986,
          "velocity": 0.6299212598425197,
          "duration": 0.10000000000000142
        },
        {
          "name": "D#4",
          "midi": 63,
          "time": 37.79999999999986,
          "velocity": 0.6299212598425197,
          "duration": 0.10000000000000142
        },
        {
          "name": "F4",
          "midi": 65,
          "time": 37.999999999999865,
          "velocity": 0.6299212598425197,
          "duration": 0.3200000000000003
        },
        {
          "name": "G4",
          "midi": 67,
          "time": 38.399999999999864,
          "velocity": 0.6299212598425197,
          "duration": 0.0799999999999983
        },
        {
          "name": "G4",
          "midi": 67,
          "time": 38.499999999999865,
          "velocity": 0.6299212598425197,
          "duration": 0.0799999999999983
        },
        {
          "name": "G4",
          "midi": 67,
          "time": 38.599999999999866,
          "velocity": 0.6299212598425197,
          "duration": 0.0799999999999983
        },
        {
          "name": "G4",
          "midi": 67,
          "time": 38.69999999999987,
          "velocity": 0.6299212598425197,
          "duration": 0.0799999999999983
        },
        {
          "name": "G4",
          "midi": 67,
          "time": 38.899999999999864,
          "velocity": 0.6299212598425197,
          "duration": 0.0799999999999983
        },
        {
          "name": "G4",
          "midi": 67,
          "time": 38.999999999999865,
          "velocity": 0.6299212598425197,
          "duration": 0.0799999999999983
        },
        {
          "name": "G4",
          "midi": 67,
          "time": 39.099999999999866,
          "velocity": 0.6299212598425197,
          "duration": 0.0799999999999983
        },
        {
          "name": "G4",
          "midi": 67,
          "time": 39.19999999999987,
          "velocity": 0.6299212598425197,
          "duration": 0.10000000000000142
        },
        {
          "name": "G4",
          "midi": 67,
          "time": 39.39999999999987,
          "velocity": 0.6299212598425197,
          "duration": 0.10000000000000142
        },
        {
          "name": "F4",
          "midi": 65,
          "time": 39.59999999999987,
          "velocity": 0.6299212598425197,
          "duration": 0.3200000000000003
        },
        {
          "name": "D#4",
          "midi": 63,
          "time": 39.99999999999987,
          "velocity": 0.6299212598425197,
          "duration": 0.0799999999999983
        },
        {
          "name": "D#4",
          "midi": 63,
          "time": 40.09999999999987,
          "velocity": 0.6299212598425197,
          "duration": 0.0799999999999983
        },
        {
          "name": "D#4",
          "midi": 63,
          "time": 40.199999999999875,
          "velocity": 0.6299212598425197,
          "duration": 0.0799999999999983
        },
        {
          "name": "D#4",
          "midi": 63,
          "time": 40.299999999999876,
          "velocity": 0.6299212598425197,
          "duration": 0.0799999999999983
        },
        {
          "name": "D#4",
          "midi": 63,
          "time": 40.49999999999987,
          "velocity": 0.6299212598425197,
          "duration": 0.0799999999999983
        },
        {
          "name": "F4",
          "midi": 65,
          "time": 40.59999999999987,
          "velocity": 0.6299212598425197,
          "duration": 0.0799999999999983
        },
        {
          "name": "G4",
          "midi": 67,
          "time": 40.699999999999875,
          "velocity": 0.6299212598425197,
          "duration": 0.0799999999999983
        },
        {
          "name": "A4",
          "midi": 69,
          "time": 40.799999999999876,
          "velocity": 0.6299212598425197,
          "duration": 0.0799999999999983
        },
        {
          "name": "A#4",
          "midi": 70,
          "time": 40.89999999999988,
          "velocity": 0.6299212598425197,
          "duration": 0.0799999999999983
        },
        {
          "name": "A4",
          "midi": 69,
          "time": 40.99999999999988,
          "velocity": 0.6299212598425197,
          "duration": 0.10000000000000142
        },
        {
          "name": "F4",
          "midi": 65,
          "time": 41.19999999999988,
          "velocity": 0.6299212598425197,
          "duration": 0.3200000000000003
        },
        {
          "name": "A#4",
          "midi": 70,
          "time": 41.59999999999988,
          "velocity": 0.6299212598425197,
          "duration": 0.0799999999999983
        },
        {
          "name": "A#4",
          "midi": 70,
          "time": 41.69999999999988,
          "velocity": 0.6299212598425197,
          "duration": 0.0799999999999983
        },
        {
          "name": "A#4",
          "midi": 70,
          "time": 41.79999999999988,
          "velocity": 0.6299212598425197,
          "duration": 0.0799999999999983
        },
        {
          "name": "A#4",
          "midi": 70,
          "time": 41.899999999999885,
          "velocity": 0.6299212598425197,
          "duration": 0.0799999999999983
        },
        {
          "name": "A#4",
          "midi": 70,
          "time": 42.09999999999988,
          "velocity": 0.6299212598425197,
          "duration": 0.0799999999999983
        },
        {
          "name": "A#4",
          "midi": 70,
          "time": 42.19999999999988,
          "velocity": 0.6299212598425197,
          "duration": 0.0799999999999983
        },
        {
          "name": "A#4",
          "midi": 70,
          "time": 42.29999999999988,
          "velocity": 0.6299212598425197,
          "duration": 0.0799999999999983
        },
        {
          "name": "A#4",
          "midi": 70,
          "time": 42.399999999999885,
          "velocity": 0.6299212598425197,
          "duration": 0.10000000000000142
        },
        {
          "name": "A#4",
          "midi": 70,
          "time": 42.59999999999989,
          "velocity": 0.6299212598425197,
          "duration": 0.10000000000000142
        },
        {
          "name": "A4",
          "midi": 69,
          "time": 42.79999999999989,
          "velocity": 0.6299212598425197,
          "duration": 0.3200000000000003
        },
        {
          "name": "G4",
          "midi": 67,
          "time": 43.19999999999989,
          "velocity": 0.6299212598425197,
          "duration": 0.0799999999999983
        },
        {
          "name": "G4",
          "midi": 67,
          "time": 43.29999999999989,
          "velocity": 0.6299212598425197,
          "duration": 0.0799999999999983
        },
        {
          "name": "G4",
          "midi": 67,
          "time": 43.39999999999989,
          "velocity": 0.6299212598425197,
          "duration": 0.0799999999999983
        },
        {
          "name": "G4",
          "midi": 67,
          "time": 43.49999999999989,
          "velocity": 0.6299212598425197,
          "duration": 0.0799999999999983
        },
        {
          "name": "G4",
          "midi": 67,
          "time": 43.69999999999989,
          "velocity": 0.6299212598425197,
          "duration": 0.0799999999999983
        },
        {
          "name": "G4",
          "midi": 67,
          "time": 43.79999999999989,
          "velocity": 0.6299212598425197,
          "duration": 0.0799999999999983
        },
        {
          "name": "G4",
          "midi": 67,
          "time": 43.89999999999989,
          "velocity": 0.6299212598425197,
          "duration": 0.0799999999999983
        },
        {
          "name": "G4",
          "midi": 67,
          "time": 43.99999999999989,
          "velocity": 0.6299212598425197,
          "duration": 0.10000000000000142
        },
        {
          "name": "G4",
          "midi": 67,
          "time": 44.199999999999896,
          "velocity": 0.6299212598425197,
          "duration": 0.10000000000000142
        },
        {
          "name": "A4",
          "midi": 69,
          "time": 44.3999999999999,
          "velocity": 0.6299212598425197,
          "duration": 0.3200000000000003
        },
        {
          "name": "A#4",
          "midi": 70,
          "time": 44.7999999999999,
          "velocity": 0.6299212598425197,
          "duration": 0.0799999999999983
        },
        {
          "name": "A#4",
          "midi": 70,
          "time": 44.8999999999999,
          "velocity": 0.6299212598425197,
          "duration": 0.0799999999999983
        },
        {
          "name": "A#4",
          "midi": 70,
          "time": 44.9999999999999,
          "velocity": 0.6299212598425197,
          "duration": 0.0799999999999983
        },
        {
          "name": "A#4",
          "midi": 70,
          "time": 45.0999999999999,
          "velocity": 0.6299212598425197,
          "duration": 0.0799999999999983
        },
        {
          "name": "A#4",
          "midi": 70,
          "time": 45.2999999999999,
          "velocity": 0.6299212598425197,
          "duration": 0.0799999999999983
        },
        {
          "name": "A#4",
          "midi": 70,
          "time": 45.3999999999999,
          "velocity": 0.6299212598425197,
          "duration": 0.0799999999999983
        },
        {
          "name": "A#4",
          "midi": 70,
          "time": 45.4999999999999,
          "velocity": 0.6299212598425197,
          "duration": 0.0799999999999983
        },
        {
          "name": "A#4",
          "midi": 70,
          "time": 45.5999999999999,
          "velocity": 0.6299212598425197,
          "duration": 0.10000000000000142
        },
        {
          "name": "A4",
          "midi": 69,
          "time": 45.799999999999905,
          "velocity": 0.6299212598425197,
          "duration": 0.10000000000000142
        },
        {
          "name": "A#4",
          "midi": 70,
          "time": 45.99999999999991,
          "velocity": 0.6299212598425197,
          "duration": 0.3200000000000003
        },
        {
          "name": "C5",
          "midi": 72,
          "time": 46.399999999999906,
          "velocity": 0.6299212598425197,
          "duration": 0.0799999999999983
        },
        {
          "name": "C5",
          "midi": 72,
          "time": 46.49999999999991,
          "velocity": 0.6299212598425197,
          "duration": 0.0799999999999983
        },
        {
          "name": "C5",
          "midi": 72,
          "time": 46.59999999999991,
          "velocity": 0.6299212598425197,
          "duration": 0.0799999999999983
        },
        {
          "name": "C5",
          "midi": 72,
          "time": 46.69999999999991,
          "velocity": 0.6299212598425197,
          "duration": 0.0799999999999983
        },
        {
          "name": "C5",
          "midi": 72,
          "time": 46.899999999999906,
          "velocity": 0.6299212598425197,
          "duration": 0.0799999999999983
        },
        {
          "name": "C5",
          "midi": 72,
          "time": 46.99999999999991,
          "velocity": 0.6299212598425197,
          "duration": 0.0799999999999983
        },
        {
          "name": "C5",
          "midi": 72,
          "time": 47.09999999999991,
          "velocity": 0.6299212598425197,
          "duration": 0.0799999999999983
        },
        {
          "name": "C5",
          "midi": 72,
          "time": 47.19999999999991,
          "velocity": 0.6299212598425197,
          "duration": 0.0799999999999983
        },
        {
          "name": "G3",
          "midi": 55,
          "time": 47.69999999999991,
          "velocity": 0.6299212598425197,
          "duration": 0.0799999999999983
        },
        {
          "name": "C4",
          "midi": 60,
          "time": 47.79999999999991,
          "velocity": 0.6299212598425197,
          "duration": 0.0799999999999983
        },
        {
          "name": "D4",
          "midi": 62,
          "time": 47.89999999999991,
          "velocity": 0.6299212598425197,
          "duration": 0.0799999999999983
        },
        {
          "name": "D#4",
          "midi": 63,
          "time": 47.999999999999915,
          "velocity": 0.6299212598425197,
          "duration": 0.0799999999999983
        },
        {
          "name": "D4",
          "midi": 62,
          "time": 48.099999999999916,
          "velocity": 0.6299212598425197,
          "duration": 0.0799999999999983
        },
        {
          "name": "D#4",
          "midi": 63,
          "time": 48.19999999999992,
          "velocity": 0.6299212598425197,
          "duration": 0.0799999999999983
        },
        {
          "name": "G3",
          "midi": 55,
          "time": 48.29999999999992,
          "velocity": 0.6299212598425197,
          "duration": 0.17999999999999972
        },
        {
          "name": "G3",
          "midi": 55,
          "time": 48.49999999999992,
          "velocity": 0.6299212598425197,
          "duration": 0.0799999999999983
        },
        {
          "name": "C4",
          "midi": 60,
          "time": 48.59999999999992,
          "velocity": 0.6299212598425197,
          "duration": 0.0799999999999983
        },
        {
          "name": "D4",
          "midi": 62,
          "time": 48.699999999999925,
          "velocity": 0.6299212598425197,
          "duration": 0.0799999999999983
        },
        {
          "name": "D#4",
          "midi": 63,
          "time": 48.799999999999926,
          "velocity": 0.6299212598425197,
          "duration": 0.0799999999999983
        },
        {
          "name": "D4",
          "midi": 62,
          "time": 48.89999999999993,
          "velocity": 0.6299212598425197,
          "duration": 0.0799999999999983
        },
        {
          "name": "D#4",
          "midi": 63,
          "time": 48.99999999999993,
          "velocity": 0.6299212598425197,
          "duration": 0.0799999999999983
        },
        {
          "name": "G4",
          "midi": 67,
          "time": 49.09999999999993,
          "velocity": 0.6299212598425197,
          "duration": 0.17999999999999972
        },
        {
          "name": "G4",
          "midi": 67,
          "time": 49.29999999999993,
          "velocity": 0.6299212598425197,
          "duration": 0.0799999999999983
        },
        {
          "name": "F4",
          "midi": 65,
          "time": 49.399999999999935,
          "velocity": 0.6299212598425197,
          "duration": 0.0799999999999983
        },
        {
          "name": "G4",
          "midi": 67,
          "time": 49.499999999999936,
          "velocity": 0.6299212598425197,
          "duration": 0.0799999999999983
        },
        {
          "name": "D#4",
          "midi": 63,
          "time": 49.59999999999994,
          "velocity": 0.6299212598425197,
          "duration": 0.0799999999999983
        },
        {
          "name": "D4",
          "midi": 62,
          "time": 49.69999999999994,
          "velocity": 0.6299212598425197,
          "duration": 0.0799999999999983
        },
        {
          "name": "D#4",
          "midi": 63,
          "time": 49.79999999999994,
          "velocity": 0.6299212598425197,
          "duration": 0.0799999999999983
        },
        {
          "name": "G3",
          "midi": 55,
          "time": 49.89999999999994,
          "velocity": 0.6299212598425197,
          "duration": 0.17999999999999972
        },
        {
          "name": "G3",
          "midi": 55,
          "time": 50.099999999999945,
          "velocity": 0.6299212598425197,
          "duration": 0.0799999999999983
        },
        {
          "name": "C4",
          "midi": 60,
          "time": 50.199999999999946,
          "velocity": 0.6299212598425197,
          "duration": 0.04999999999999716
        },
        {
          "name": "D4",
          "midi": 62,
          "time": 50.29999999999994,
          "velocity": 0.6299212598425197,
          "duration": 0.10000000000000142
        },
        {
          "name": "D#4",
          "midi": 63,
          "time": 50.49999999999994,
          "velocity": 0.6299212598425197,
          "duration": 0.10000000000000142
        },
        {
          "name": "F4",
          "midi": 65,
          "time": 50.699999999999946,
          "velocity": 0.6299212598425197,
          "duration": 0.10000000000000142
        },
        {
          "name": "G4",
          "midi": 67,
          "time": 50.89999999999995,
          "velocity": 0.6299212598425197,
          "duration": 0.28000000000000114
        },
        {
          "name": "C4",
          "midi": 60,
          "time": 51.19999999999995,
          "velocity": 0.6299212598425197,
          "duration": 0.6400000000000006
        },
        {
          "name": "G4",
          "midi": 67,
          "time": 51.99999999999995,
          "velocity": 0.6299212598425197,
          "duration": 0.1599999999999966
        },
        {
          "name": "F4",
          "midi": 65,
          "time": 52.199999999999946,
          "velocity": 0.6299212598425197,
          "duration": 0.0799999999999983
        },
        {
          "name": "G4",
          "midi": 67,
          "time": 52.29999999999995,
          "velocity": 0.6299212598425197,
          "duration": 0.1599999999999966
        },
        {
          "name": "G#4",
          "midi": 68,
          "time": 52.49999999999994,
          "velocity": 0.6299212598425197,
          "duration": 0.0799999999999983
        },
        {
          "name": "A#4",
          "midi": 70,
          "time": 52.599999999999945,
          "velocity": 0.6299212598425197,
          "duration": 1.7999999999999972
        },
        {
          "name": "C4",
          "midi": 60,
          "time": 54.39999999999994,
          "velocity": 0.6299212598425197,
          "duration": 0.6400000000000006
        },
        {
          "name": "G4",
          "midi": 67,
          "time": 55.19999999999994,
          "velocity": 0.6299212598425197,
          "duration": 0.1599999999999966
        },
        {
          "name": "F4",
          "midi": 65,
          "time": 55.399999999999935,
          "velocity": 0.6299212598425197,
          "duration": 0.0799999999999983
        },
        {
          "name": "G4",
          "midi": 67,
          "time": 55.499999999999936,
          "velocity": 0.6299212598425197,
          "duration": 0.1599999999999966
        },
        {
          "name": "A4",
          "midi": 69,
          "time": 55.69999999999993,
          "velocity": 0.6299212598425197,
          "duration": 0.0799999999999983
        },
        {
          "name": "D#4",
          "midi": 63,
          "time": 55.79999999999993,
          "velocity": 0.6299212598425197,
          "duration": 1.7999999999999972
        },
        {
          "name": "C4",
          "midi": 60,
          "time": 57.59999999999993,
          "velocity": 0.6299212598425197,
          "duration": 0.6400000000000006
        },
        {
          "name": "G4",
          "midi": 67,
          "time": 58.39999999999993,
          "velocity": 0.6299212598425197,
          "duration": 0.1599999999999966
        },
        {
          "name": "F4",
          "midi": 65,
          "time": 58.59999999999992,
          "velocity": 0.6299212598425197,
          "duration": 0.0799999999999983
        },
        {
          "name": "G4",
          "midi": 67,
          "time": 58.699999999999925,
          "velocity": 0.6299212598425197,
          "duration": 0.1599999999999966
        },
        {
          "name": "G#4",
          "midi": 68,
          "time": 58.89999999999992,
          "velocity": 0.6299212598425197,
          "duration": 0.0799999999999983
        },
        {
          "name": "A#4",
          "midi": 70,
          "time": 58.99999999999992,
          "velocity": 0.6299212598425197,
          "duration": 1.7999999999999972
        },
        {
          "name": "C4",
          "midi": 60,
          "time": 60.79999999999992,
          "velocity": 0.6299212598425197,
          "duration": 0.6400000000000006
        },
        {
          "name": "G4",
          "midi": 67,
          "time": 61.599999999999916,
          "velocity": 0.6299212598425197,
          "duration": 0.1599999999999966
        },
        {
          "name": "F4",
          "midi": 65,
          "time": 61.79999999999991,
          "velocity": 0.6299212598425197,
          "duration": 0.0799999999999983
        },
        {
          "name": "G4",
          "midi": 67,
          "time": 61.89999999999991,
          "velocity": 0.6299212598425197,
          "duration": 0.1599999999999966
        },
        {
          "name": "A4",
          "midi": 69,
          "time": 62.09999999999991,
          "velocity": 0.6299212598425197,
          "duration": 0.0799999999999983
        },
        {
          "name": "D#4",
          "midi": 63,
          "time": 62.19999999999991,
          "velocity": 0.6299212598425197,
          "duration": 1.7999999999999972
        },
        {
          "name": "G4",
          "midi": 67,
          "time": 63.99999999999991,
          "velocity": 0.6299212598425197,
          "duration": 0.10000000000000142
        },
        {
          "name": "G4",
          "midi": 67,
          "time": 64.1999999999999,
          "velocity": 0.6299212598425197,
          "duration": 0.23999999999999488
        },
        {
          "name": "A4",
          "midi": 69,
          "time": 64.4999999999999,
          "velocity": 0.6299212598425197,
          "duration": 0.23999999999999488
        },
        {
          "name": "A#4",
          "midi": 70,
          "time": 64.7999999999999,
          "velocity": 0.6299212598425197,
          "duration": 0.09999999999999432
        },
        {
          "name": "A#4",
          "midi": 70,
          "time": 64.99999999999989,
          "velocity": 0.6299212598425197,
          "duration": 0.20000000000000284
        },
        {
          "name": "A4",
          "midi": 69,
          "time": 65.5999999999999,
          "velocity": 0.6299212598425197,
          "duration": 0.09999999999999432
        },
        {
          "name": "A4",
          "midi": 69,
          "time": 65.79999999999988,
          "velocity": 0.6299212598425197,
          "duration": 0.23999999999999488
        },
        {
          "name": "A#4",
          "midi": 70,
          "time": 66.09999999999988,
          "velocity": 0.6299212598425197,
          "duration": 0.23999999999999488
        },
        {
          "name": "C5",
          "midi": 72,
          "time": 66.39999999999988,
          "velocity": 0.6299212598425197,
          "duration": 0.09999999999999432
        },
        {
          "name": "C5",
          "midi": 72,
          "time": 66.59999999999987,
          "velocity": 0.6299212598425197,
          "duration": 0.1599999999999966
        },
        {
          "name": "A#4",
          "midi": 70,
          "time": 66.79999999999987,
          "velocity": 0.6299212598425197,
          "duration": 0.0799999999999983
        },
        {
          "name": "C5",
          "midi": 72,
          "time": 66.89999999999986,
          "velocity": 0.6299212598425197,
          "duration": 0.23999999999999488
        },
        {
          "name": "G4",
          "midi": 67,
          "time": 67.19999999999986,
          "velocity": 0.6299212598425197,
          "duration": 0.09999999999999432
        },
        {
          "name": "G4",
          "midi": 67,
          "time": 67.39999999999985,
          "velocity": 0.6299212598425197,
          "duration": 0.23999999999999488
        },
        {
          "name": "A4",
          "midi": 69,
          "time": 67.69999999999985,
          "velocity": 0.6299212598425197,
          "duration": 0.23999999999999488
        },
        {
          "name": "A#4",
          "midi": 70,
          "time": 67.99999999999984,
          "velocity": 0.6299212598425197,
          "duration": 0.09999999999999432
        },
        {
          "name": "A#4",
          "midi": 70,
          "time": 68.19999999999983,
          "velocity": 0.6299212598425197,
          "duration": 0.20000000000000284
        },
        {
          "name": "A4",
          "midi": 69,
          "time": 68.79999999999984,
          "velocity": 0.6299212598425197,
          "duration": 0.09999999999999432
        },
        {
          "name": "A4",
          "midi": 69,
          "time": 68.99999999999983,
          "velocity": 0.6299212598425197,
          "duration": 0.23999999999999488
        },
        {
          "name": "A#4",
          "midi": 70,
          "time": 69.29999999999983,
          "velocity": 0.6299212598425197,
          "duration": 0.23999999999999488
        },
        {
          "name": "C5",
          "midi": 72,
          "time": 69.59999999999982,
          "velocity": 0.6299212598425197,
          "duration": 0.3199999999999932
        },
        {
          "name": "F5",
          "midi": 77,
          "time": 69.99999999999982,
          "velocity": 0.6299212598425197,
          "duration": 0.3199999999999932
        },
        {
          "name": "G5",
          "midi": 79,
          "time": 70.3999999999998,
          "velocity": 0.6299212598425197,
          "duration": 0.0799999999999983
        },
        {
          "name": "F5",
          "midi": 77,
          "time": 70.4999999999998,
          "velocity": 0.6299212598425197,
          "duration": 0.0799999999999983
        },
        {
          "name": "G5",
          "midi": 79,
          "time": 70.5999999999998,
          "velocity": 0.6299212598425197,
          "duration": 0.0799999999999983
        },
        {
          "name": "F5",
          "midi": 77,
          "time": 70.69999999999979,
          "velocity": 0.6299212598425197,
          "duration": 0.0799999999999983
        },
        {
          "name": "D6",
          "midi": 86,
          "time": 70.79999999999978,
          "velocity": 0.6299212598425197,
          "duration": 0.0799999999999983
        },
        {
          "name": "C6",
          "midi": 84,
          "time": 70.89999999999978,
          "velocity": 0.6299212598425197,
          "duration": 0.0799999999999983
        },
        {
          "name": "A#5",
          "midi": 82,
          "time": 70.99999999999977,
          "velocity": 0.6299212598425197,
          "duration": 0.0799999999999983
        },
        {
          "name": "A5",
          "midi": 81,
          "time": 71.09999999999977,
          "velocity": 0.6299212598425197,
          "duration": 0.0799999999999983
        },
        {
          "name": "G5",
          "midi": 79,
          "time": 71.19999999999976,
          "velocity": 0.6299212598425197,
          "duration": 0.0799999999999983
        },
        {
          "name": "F5",
          "midi": 77,
          "time": 71.29999999999976,
          "velocity": 0.6299212598425197,
          "duration": 0.0799999999999983
        },
        {
          "name": "G5",
          "midi": 79,
          "time": 71.39999999999975,
          "velocity": 0.6299212598425197,
          "duration": 0.0799999999999983
        },
        {
          "name": "F5",
          "midi": 77,
          "time": 71.49999999999974,
          "velocity": 0.6299212598425197,
          "duration": 0.0799999999999983
        },
        {
          "name": "D5",
          "midi": 74,
          "time": 71.59999999999974,
          "velocity": 0.6299212598425197,
          "duration": 0.0799999999999983
        },
        {
          "name": "C5",
          "midi": 72,
          "time": 71.69999999999973,
          "velocity": 0.6299212598425197,
          "duration": 0.0799999999999983
        },
        {
          "name": "D5",
          "midi": 74,
          "time": 71.79999999999973,
          "velocity": 0.6299212598425197,
          "duration": 0.0799999999999983
        },
        {
          "name": "C5",
          "midi": 72,
          "time": 71.89999999999972,
          "velocity": 0.6299212598425197,
          "duration": 0.0799999999999983
        },
        {
          "name": "G3",
          "midi": 55,
          "time": 71.99999999999972,
          "velocity": 0.6299212598425197,
          "duration": 0.3199999999999932
        },
        {
          "name": "G3",
          "midi": 55,
          "time": 72.39999999999971,
          "velocity": 0.6299212598425197,
          "duration": 0.0799999999999983
        },
        {
          "name": "D4",
          "midi": 62,
          "time": 72.4999999999997,
          "velocity": 0.6299212598425197,
          "duration": 0.18833333333333258
        },
        {
          "name": "D#4",
          "midi": 63,
          "time": 72.6999999999997,
          "velocity": 0.6299212598425197,
          "duration": 0.0799999999999983
        },
        {
          "name": "G4",
          "midi": 67,
          "time": 72.7999999999997,
          "velocity": 0.6299212598425197,
          "duration": 0.1599999999999966
        },
        {
          "name": "F4",
          "midi": 65,
          "time": 72.9999999999997,
          "velocity": 0.6299212598425197,
          "duration": 0.1599999999999966
        },
        {
          "name": "D#4",
          "midi": 63,
          "time": 73.1999999999997,
          "velocity": 0.6299212598425197,
          "duration": 0.0799999999999983
        },
        {
          "name": "D4",
          "midi": 62,
          "time": 73.2999999999997,
          "velocity": 0.6299212598425197,
          "duration": 0.1599999999999966
        },
        {
          "name": "A#3",
          "midi": 58,
          "time": 73.4999999999997,
          "velocity": 0.6299212598425197,
          "duration": 0.0799999999999983
        },
        {
          "name": "C3",
          "midi": 48,
          "time": 73.5999999999997,
          "velocity": 0.6299212598425197,
          "duration": 0.0799999999999983
        },
        {
          "name": "C3",
          "midi": 48,
          "time": 73.69999999999969,
          "velocity": 0.6299212598425197,
          "duration": 0.0799999999999983
        },
        {
          "name": "C3",
          "midi": 48,
          "time": 73.79999999999968,
          "velocity": 0.6299212598425197,
          "duration": 0.0799999999999983
        },
        {
          "name": "C3",
          "midi": 48,
          "time": 73.99999999999969,
          "velocity": 0.6299212598425197,
          "duration": 0.0799999999999983
        },
        {
          "name": "D3",
          "midi": 50,
          "time": 74.09999999999968,
          "velocity": 0.6299212598425197,
          "duration": 0.23999999999999488
        },
        {
          "name": "D#3",
          "midi": 51,
          "time": 74.39999999999968,
          "velocity": 0.6299212598425197,
          "duration": 0.23999999999999488
        },
        {
          "name": "C3",
          "midi": 48,
          "time": 74.69999999999968,
          "velocity": 0.6299212598425197,
          "duration": 0.09499999999999886
        },
        {
          "name": "F3",
          "midi": 53,
          "time": 74.79999999999967,
          "velocity": 0.6299212598425197,
          "duration": 0.0799999999999983
        },
        {
          "name": "G3",
          "midi": 55,
          "time": 74.89999999999966,
          "velocity": 0.6299212598425197,
          "duration": 0.23999999999999488
        },
        {
          "name": "F3",
          "midi": 53,
          "time": 75.19999999999966,
          "velocity": 0.6299212598425197,
          "duration": 0.3199999999999932
        },
        {
          "name": "G3",
          "midi": 55,
          "time": 75.59999999999965,
          "velocity": 0.6299212598425197,
          "duration": 0.0799999999999983
        },
        {
          "name": "A3",
          "midi": 57,
          "time": 75.69999999999965,
          "velocity": 0.6299212598425197,
          "duration": 0.23999999999999488
        },
        {
          "name": "A#3",
          "midi": 58,
          "time": 75.99999999999964,
          "velocity": 0.6299212598425197,
          "duration": 0.3199999999999932
        },
        {
          "name": "C4",
          "midi": 60,
          "time": 76.39999999999964,
          "velocity": 0.6299212598425197,
          "duration": 0.0799999999999983
        },
        {
          "name": "D4",
          "midi": 62,
          "time": 76.49999999999963,
          "velocity": 0.6299212598425197,
          "duration": 0.23999999999999488
        },
        {
          "name": "D#4",
          "midi": 63,
          "time": 76.79999999999963,
          "velocity": 0.6299212598425197,
          "duration": 0.3199999999999932
        },
        {
          "name": "D#4",
          "midi": 63,
          "time": 77.19999999999962,
          "velocity": 0.6299212598425197,
          "duration": 0.0799999999999983
        },
        {
          "name": "F4",
          "midi": 65,
          "time": 77.29999999999961,
          "velocity": 0.6299212598425197,
          "duration": 0.1599999999999966
        },
        {
          "name": "G4",
          "midi": 67,
          "time": 77.49999999999962,
          "velocity": 0.6299212598425197,
          "duration": 0.0799999999999983
        },
        {
          "name": "A#4",
          "midi": 70,
          "time": 77.59999999999961,
          "velocity": 0.6299212598425197,
          "duration": 0.3199999999999932
        },
        {
          "name": "A4",
          "midi": 69,
          "time": 77.9999999999996,
          "velocity": 0.6299212598425197,
          "duration": 0.09499999999999886
        },
        {
          "name": "C4",
          "midi": 60,
          "time": 78.0999999999996,
          "velocity": 0.6299212598425197,
          "duration": 0.0799999999999983
        },
        {
          "name": "D#4",
          "midi": 63,
          "time": 78.19999999999959,
          "velocity": 0.6299212598425197,
          "duration": 0.0799999999999983
        },
        {
          "name": "F4",
          "midi": 65,
          "time": 78.29999999999959,
          "velocity": 0.6299212598425197,
          "duration": 0.0799999999999983
        },
        {
          "name": "G4",
          "midi": 67,
          "time": 78.39999999999958,
          "velocity": 0.6299212598425197,
          "duration": 0.0799999999999983
        },
        {
          "name": "F4",
          "midi": 65,
          "time": 78.49999999999957,
          "velocity": 0.6299212598425197,
          "duration": 0.0799999999999983
        },
        {
          "name": "G4",
          "midi": 67,
          "time": 78.59999999999957,
          "velocity": 0.6299212598425197,
          "duration": 0.0799999999999983
        },
        {
          "name": "C4",
          "midi": 60,
          "time": 78.69999999999956,
          "velocity": 0.6299212598425197,
          "duration": 0.18000000000000682
        },
        {
          "name": "C4",
          "midi": 60,
          "time": 78.89999999999957,
          "velocity": 0.6299212598425197,
          "duration": 0.0799999999999983
        },
        {
          "name": "D#4",
          "midi": 63,
          "time": 78.99999999999956,
          "velocity": 0.6299212598425197,
          "duration": 0.0799999999999983
        },
        {
          "name": "F4",
          "midi": 65,
          "time": 79.09999999999955,
          "velocity": 0.6299212598425197,
          "duration": 0.0799999999999983
        },
        {
          "name": "G4",
          "midi": 67,
          "time": 79.19999999999955,
          "velocity": 0.6299212598425197,
          "duration": 0.1599999999999966
        },
        {
          "name": "A#4",
          "midi": 70,
          "time": 79.39999999999955,
          "velocity": 0.6299212598425197,
          "duration": 0.0799999999999983
        },
        {
          "name": "A4",
          "midi": 69,
          "time": 79.49999999999955,
          "velocity": 0.6299212598425197,
          "duration": 0.0799999999999983
        },
        {
          "name": "A#4",
          "midi": 70,
          "time": 79.59999999999954,
          "velocity": 0.6299212598425197,
          "duration": 0.0799999999999983
        },
        {
          "name": "A4",
          "midi": 69,
          "time": 79.69999999999953,
          "velocity": 0.6299212598425197,
          "duration": 0.1599999999999966
        },
        {
          "name": "F4",
          "midi": 65,
          "time": 79.89999999999954,
          "velocity": 0.6299212598425197,
          "duration": 0.0799999999999983
        },
        {
          "name": "G4",
          "midi": 67,
          "time": 79.99999999999953,
          "velocity": 0.6299212598425197,
          "duration": 0.0799999999999983
        },
        {
          "name": "F4",
          "midi": 65,
          "time": 80.09999999999953,
          "velocity": 0.6299212598425197,
          "duration": 0.0799999999999983
        },
        {
          "name": "G4",
          "midi": 67,
          "time": 80.19999999999952,
          "velocity": 0.6299212598425197,
          "duration": 0.0799999999999983
        },
        {
          "name": "C4",
          "midi": 60,
          "time": 80.29999999999951,
          "velocity": 0.6299212598425197,
          "duration": 0.18000000000000682
        },
        {
          "name": "C4",
          "midi": 60,
          "time": 80.49999999999952,
          "velocity": 0.6299212598425197,
          "duration": 0.0799999999999983
        },
        {
          "name": "D#4",
          "midi": 63,
          "time": 80.59999999999951,
          "velocity": 0.6299212598425197,
          "duration": 0.0799999999999983
        },
        {
          "name": "F4",
          "midi": 65,
          "time": 80.6999999999995,
          "velocity": 0.6299212598425197,
          "duration": 0.0799999999999983
        },
        {
          "name": "G4",
          "midi": 67,
          "time": 80.7999999999995,
          "velocity": 0.6299212598425197,
          "duration": 0.1599999999999966
        },
        {
          "name": "A#4",
          "midi": 70,
          "time": 80.9999999999995,
          "velocity": 0.6299212598425197,
          "duration": 0.0799999999999983
        },
        {
          "name": "A4",
          "midi": 69,
          "time": 81.0999999999995,
          "velocity": 0.6299212598425197,
          "duration": 0.0799999999999983
        },
        {
          "name": "A#4",
          "midi": 70,
          "time": 81.19999999999949,
          "velocity": 0.6299212598425197,
          "duration": 0.0799999999999983
        },
        {
          "name": "C5",
          "midi": 72,
          "time": 81.29999999999949,
          "velocity": 0.6299212598425197,
          "duration": 0.1599999999999966
        },
        {
          "name": "D5",
          "midi": 74,
          "time": 81.49999999999949,
          "velocity": 0.6299212598425197,
          "duration": 0.0799999999999983
        },
        {
          "name": "F3",
          "midi": 53,
          "time": 81.59999999999948,
          "velocity": 0.6299212598425197,
          "duration": 0.3199999999999932
        },
        {
          "name": "G3",
          "midi": 55,
          "time": 81.99999999999947,
          "velocity": 0.6299212598425197,
          "duration": 0.0799999999999983
        },
        {
          "name": "A3",
          "midi": 57,
          "time": 82.09999999999947,
          "velocity": 0.6299212598425197,
          "duration": 0.23999999999999488
        },
        {
          "name": "A#3",
          "midi": 58,
          "time": 82.39999999999947,
          "velocity": 0.6299212598425197,
          "duration": 0.3199999999999932
        },
        {
          "name": "C4",
          "midi": 60,
          "time": 82.79999999999946,
          "velocity": 0.6299212598425197,
          "duration": 0.0799999999999983
        },
        {
          "name": "D4",
          "midi": 62,
          "time": 82.89999999999945,
          "velocity": 0.6299212598425197,
          "duration": 0.23999999999999488
        },
        {
          "name": "D#4",
          "midi": 63,
          "time": 83.19999999999945,
          "velocity": 0.6299212598425197,
          "duration": 0.0799999999999983
        },
        {
          "name": "D#4",
          "midi": 63,
          "time": 83.29999999999944,
          "velocity": 0.6299212598425197,
          "duration": 0.0799999999999983
        },
        {
          "name": "D#4",
          "midi": 63,
          "time": 83.39999999999944,
          "velocity": 0.6299212598425197,
          "duration": 0.1599999999999966
        },
        {
          "name": "D#4",
          "midi": 63,
          "time": 83.59999999999944,
          "velocity": 0.6299212598425197,
          "duration": 0.0799999999999983
        },
        {
          "name": "F4",
          "midi": 65,
          "time": 83.69999999999943,
          "velocity": 0.6299212598425197,
          "duration": 0.1599999999999966
        },
        {
          "name": "G4",
          "midi": 67,
          "time": 83.89999999999944,
          "velocity": 0.6299212598425197,
          "duration": 0.0799999999999983
        },
        {
          "name": "A#4",
          "midi": 70,
          "time": 83.99999999999943,
          "velocity": 0.6299212598425197,
          "duration": 0.3199999999999932
        },
        {
          "name": "A4",
          "midi": 69,
          "time": 84.39999999999942,
          "velocity": 0.6299212598425197,
          "duration": 0.3199999999999932
        },
        {
          "name": "G4",
          "midi": 67,
          "time": 84.79999999999941,
          "velocity": 0.6299212598425197,
          "duration": 0.0799999999999983
        },
        {
          "name": "G4",
          "midi": 67,
          "time": 84.89999999999941,
          "velocity": 0.6299212598425197,
          "duration": 0.0799999999999983
        },
        {
          "name": "G4",
          "midi": 67,
          "time": 84.9999999999994,
          "velocity": 0.6299212598425197,
          "duration": 0.0799999999999983
        },
        {
          "name": "G4",
          "midi": 67,
          "time": 85.0999999999994,
          "velocity": 0.6299212598425197,
          "duration": 0.0799999999999983
        },
        {
          "name": "G4",
          "midi": 67,
          "time": 85.2999999999994,
          "velocity": 0.6299212598425197,
          "duration": 0.0799999999999983
        },
        {
          "name": "G4",
          "midi": 67,
          "time": 85.3999999999994,
          "velocity": 0.6299212598425197,
          "duration": 0.0799999999999983
        },
        {
          "name": "G4",
          "midi": 67,
          "time": 85.49999999999939,
          "velocity": 0.6299212598425197,
          "duration": 0.0799999999999983
        },
        {
          "name": "G4",
          "midi": 67,
          "time": 85.59999999999938,
          "velocity": 0.6299212598425197,
          "duration": 0.09999999999999432
        },
        {
          "name": "G4",
          "midi": 67,
          "time": 85.79999999999937,
          "velocity": 0.6299212598425197,
          "duration": 0.09999999999999432
        },
        {
          "name": "F4",
          "midi": 65,
          "time": 85.99999999999936,
          "velocity": 0.6299212598425197,
          "duration": 0.3199999999999932
        },
        {
          "name": "D#4",
          "midi": 63,
          "time": 86.39999999999935,
          "velocity": 0.6299212598425197,
          "duration": 0.0799999999999983
        },
        {
          "name": "D#4",
          "midi": 63,
          "time": 86.49999999999935,
          "velocity": 0.6299212598425197,
          "duration": 0.0799999999999983
        },
        {
          "name": "D#4",
          "midi": 63,
          "time": 86.59999999999934,
          "velocity": 0.6299212598425197,
          "duration": 0.0799999999999983
        },
        {
          "name": "D#4",
          "midi": 63,
          "time": 86.69999999999933,
          "velocity": 0.6299212598425197,
          "duration": 0.0799999999999983
        },
        {
          "name": "D#4",
          "midi": 63,
          "time": 86.89999999999934,
          "velocity": 0.6299212598425197,
          "duration": 0.0799999999999983
        },
        {
          "name": "D#4",
          "midi": 63,
          "time": 86.99999999999933,
          "velocity": 0.6299212598425197,
          "duration": 0.0799999999999983
        },
        {
          "name": "D#4",
          "midi": 63,
          "time": 87.09999999999933,
          "velocity": 0.6299212598425197,
          "duration": 0.0799999999999983
        },
        {
          "name": "D#4",
          "midi": 63,
          "time": 87.19999999999932,
          "velocity": 0.6299212598425197,
          "duration": 0.09999999999999432
        },
        {
          "name": "D#4",
          "midi": 63,
          "time": 87.39999999999931,
          "velocity": 0.6299212598425197,
          "duration": 0.09999999999999432
        },
        {
          "name": "F4",
          "midi": 65,
          "time": 87.5999999999993,
          "velocity": 0.6299212598425197,
          "duration": 0.3199999999999932
        },
        {
          "name": "G4",
          "midi": 67,
          "time": 87.99999999999929,
          "velocity": 0.6299212598425197,
          "duration": 0.0799999999999983
        },
        {
          "name": "G4",
          "midi": 67,
          "time": 88.09999999999928,
          "velocity": 0.6299212598425197,
          "duration": 0.0799999999999983
        },
        {
          "name": "G4",
          "midi": 67,
          "time": 88.19999999999928,
          "velocity": 0.6299212598425197,
          "duration": 0.0799999999999983
        },
        {
          "name": "G4",
          "midi": 67,
          "time": 88.29999999999927,
          "velocity": 0.6299212598425197,
          "duration": 0.0799999999999983
        },
        {
          "name": "G4",
          "midi": 67,
          "time": 88.49999999999928,
          "velocity": 0.6299212598425197,
          "duration": 0.0799999999999983
        },
        {
          "name": "G4",
          "midi": 67,
          "time": 88.59999999999927,
          "velocity": 0.6299212598425197,
          "duration": 0.0799999999999983
        },
        {
          "name": "G4",
          "midi": 67,
          "time": 88.69999999999926,
          "velocity": 0.6299212598425197,
          "duration": 0.0799999999999983
        },
        {
          "name": "G4",
          "midi": 67,
          "time": 88.79999999999926,
          "velocity": 0.6299212598425197,
          "duration": 0.09999999999999432
        },
        {
          "name": "G4",
          "midi": 67,
          "time": 88.99999999999925,
          "velocity": 0.6299212598425197,
          "duration": 0.09999999999999432
        },
        {
          "name": "F4",
          "midi": 65,
          "time": 89.19999999999924,
          "velocity": 0.6299212598425197,
          "duration": 0.3199999999999932
        },
        {
          "name": "D#4",
          "midi": 63,
          "time": 89.59999999999923,
          "velocity": 0.6299212598425197,
          "duration": 0.0799999999999983
        },
        {
          "name": "D#4",
          "midi": 63,
          "time": 89.69999999999922,
          "velocity": 0.6299212598425197,
          "duration": 0.0799999999999983
        },
        {
          "name": "D#4",
          "midi": 63,
          "time": 89.79999999999922,
          "velocity": 0.6299212598425197,
          "duration": 0.0799999999999983
        },
        {
          "name": "D#4",
          "midi": 63,
          "time": 89.89999999999921,
          "velocity": 0.6299212598425197,
          "duration": 0.0799999999999983
        },
        {
          "name": "D#4",
          "midi": 63,
          "time": 90.09999999999921,
          "velocity": 0.6299212598425197,
          "duration": 0.0799999999999983
        },
        {
          "name": "F4",
          "midi": 65,
          "time": 90.1999999999992,
          "velocity": 0.6299212598425197,
          "duration": 0.0799999999999983
        },
        {
          "name": "G4",
          "midi": 67,
          "time": 90.2999999999992,
          "velocity": 0.6299212598425197,
          "duration": 0.0799999999999983
        },
        {
          "name": "A4",
          "midi": 69,
          "time": 90.3999999999992,
          "velocity": 0.6299212598425197,
          "duration": 0.0799999999999983
        },
        {
          "name": "A#4",
          "midi": 70,
          "time": 90.49999999999919,
          "velocity": 0.6299212598425197,
          "duration": 0.0799999999999983
        },
        {
          "name": "A4",
          "midi": 69,
          "time": 90.59999999999918,
          "velocity": 0.6299212598425197,
          "duration": 0.09999999999999432
        },
        {
          "name": "F4",
          "midi": 65,
          "time": 90.79999999999917,
          "velocity": 0.6299212598425197,
          "duration": 0.3199999999999932
        },
        {
          "name": "A#4",
          "midi": 70,
          "time": 91.19999999999916,
          "velocity": 0.6299212598425197,
          "duration": 0.0799999999999983
        },
        {
          "name": "A#4",
          "midi": 70,
          "time": 91.29999999999916,
          "velocity": 0.6299212598425197,
          "duration": 0.0799999999999983
        },
        {
          "name": "A#4",
          "midi": 70,
          "time": 91.39999999999915,
          "velocity": 0.6299212598425197,
          "duration": 0.0799999999999983
        },
        {
          "name": "A#4",
          "midi": 70,
          "time": 91.49999999999915,
          "velocity": 0.6299212598425197,
          "duration": 0.0799999999999983
        },
        {
          "name": "A#4",
          "midi": 70,
          "time": 91.69999999999915,
          "velocity": 0.6299212598425197,
          "duration": 0.0799999999999983
        },
        {
          "name": "A#4",
          "midi": 70,
          "time": 91.79999999999914,
          "velocity": 0.6299212598425197,
          "duration": 0.0799999999999983
        },
        {
          "name": "A#4",
          "midi": 70,
          "time": 91.89999999999914,
          "velocity": 0.6299212598425197,
          "duration": 0.0799999999999983
        },
        {
          "name": "A#4",
          "midi": 70,
          "time": 91.99999999999913,
          "velocity": 0.6299212598425197,
          "duration": 0.09999999999999432
        },
        {
          "name": "A#4",
          "midi": 70,
          "time": 92.19999999999912,
          "velocity": 0.6299212598425197,
          "duration": 0.09999999999999432
        },
        {
          "name": "A4",
          "midi": 69,
          "time": 92.39999999999911,
          "velocity": 0.6299212598425197,
          "duration": 0.3199999999999932
        },
        {
          "name": "G4",
          "midi": 67,
          "time": 92.7999999999991,
          "velocity": 0.6299212598425197,
          "duration": 0.0799999999999983
        },
        {
          "name": "G4",
          "midi": 67,
          "time": 92.8999999999991,
          "velocity": 0.6299212598425197,
          "duration": 0.0799999999999983
        },
        {
          "name": "G4",
          "midi": 67,
          "time": 92.99999999999909,
          "velocity": 0.6299212598425197,
          "duration": 0.0799999999999983
        },
        {
          "name": "G4",
          "midi": 67,
          "time": 93.09999999999908,
          "velocity": 0.6299212598425197,
          "duration": 0.0799999999999983
        },
        {
          "name": "G4",
          "midi": 67,
          "time": 93.29999999999909,
          "velocity": 0.6299212598425197,
          "duration": 0.0799999999999983
        },
        {
          "name": "G4",
          "midi": 67,
          "time": 93.39999999999908,
          "velocity": 0.6299212598425197,
          "duration": 0.0799999999999983
        },
        {
          "name": "G4",
          "midi": 67,
          "time": 93.49999999999908,
          "velocity": 0.6299212598425197,
          "duration": 0.0799999999999983
        },
        {
          "name": "G4",
          "midi": 67,
          "time": 93.59999999999907,
          "velocity": 0.6299212598425197,
          "duration": 0.09999999999999432
        },
        {
          "name": "G4",
          "midi": 67,
          "time": 93.79999999999906,
          "velocity": 0.6299212598425197,
          "duration": 0.09999999999999432
        },
        {
          "name": "A4",
          "midi": 69,
          "time": 93.99999999999905,
          "velocity": 0.6299212598425197,
          "duration": 0.3199999999999932
        },
        {
          "name": "A#4",
          "midi": 70,
          "time": 94.39999999999904,
          "velocity": 0.6299212598425197,
          "duration": 0.0799999999999983
        },
        {
          "name": "A#4",
          "midi": 70,
          "time": 94.49999999999903,
          "velocity": 0.6299212598425197,
          "duration": 0.0799999999999983
        },
        {
          "name": "A#4",
          "midi": 70,
          "time": 94.59999999999903,
          "velocity": 0.6299212598425197,
          "duration": 0.0799999999999983
        },
        {
          "name": "A#4",
          "midi": 70,
          "time": 94.69999999999902,
          "velocity": 0.6299212598425197,
          "duration": 0.0799999999999983
        },
        {
          "name": "A#4",
          "midi": 70,
          "time": 94.89999999999903,
          "velocity": 0.6299212598425197,
          "duration": 0.0799999999999983
        },
        {
          "name": "A#4",
          "midi": 70,
          "time": 94.99999999999902,
          "velocity": 0.6299212598425197,
          "duration": 0.0799999999999983
        },
        {
          "name": "A#4",
          "midi": 70,
          "time": 95.09999999999901,
          "velocity": 0.6299212598425197,
          "duration": 0.0799999999999983
        },
        {
          "name": "A#4",
          "midi": 70,
          "time": 95.19999999999901,
          "velocity": 0.6299212598425197,
          "duration": 0.09999999999999432
        },
        {
          "name": "A4",
          "midi": 69,
          "time": 95.399999999999,
          "velocity": 0.6299212598425197,
          "duration": 0.09999999999999432
        },
        {
          "name": "A#4",
          "midi": 70,
          "time": 95.59999999999899,
          "velocity": 0.6299212598425197,
          "duration": 0.3199999999999932
        },
        {
          "name": "C5",
          "midi": 72,
          "time": 95.99999999999898,
          "velocity": 0.6299212598425197,
          "duration": 0.0799999999999983
        },
        {
          "name": "C5",
          "midi": 72,
          "time": 96.09999999999897,
          "velocity": 0.6299212598425197,
          "duration": 0.0799999999999983
        },
        {
          "name": "C5",
          "midi": 72,
          "time": 96.19999999999897,
          "velocity": 0.6299212598425197,
          "duration": 0.0799999999999983
        },
        {
          "name": "C5",
          "midi": 72,
          "time": 96.29999999999896,
          "velocity": 0.6299212598425197,
          "duration": 0.0799999999999983
        },
        {
          "name": "C5",
          "midi": 72,
          "time": 96.49999999999896,
          "velocity": 0.6299212598425197,
          "duration": 0.0799999999999983
        },
        {
          "name": "C5",
          "midi": 72,
          "time": 96.59999999999896,
          "velocity": 0.6299212598425197,
          "duration": 0.0799999999999983
        },
        {
          "name": "C5",
          "midi": 72,
          "time": 96.69999999999895,
          "velocity": 0.6299212598425197,
          "duration": 0.0799999999999983
        },
        {
          "name": "C5",
          "midi": 72,
          "time": 96.79999999999895,
          "velocity": 0.6299212598425197,
          "duration": 0.0799999999999983
        },
        {
          "name": "G3",
          "midi": 55,
          "time": 97.29999999999895,
          "velocity": 0.6299212598425197,
          "duration": 0.0799999999999983
        },
        {
          "name": "C4",
          "midi": 60,
          "time": 97.39999999999894,
          "velocity": 0.6299212598425197,
          "duration": 0.0799999999999983
        },
        {
          "name": "D4",
          "midi": 62,
          "time": 97.49999999999893,
          "velocity": 0.6299212598425197,
          "duration": 0.0799999999999983
        },
        {
          "name": "D#4",
          "midi": 63,
          "time": 97.59999999999893,
          "velocity": 0.6299212598425197,
          "duration": 0.0799999999999983
        },
        {
          "name": "D4",
          "midi": 62,
          "time": 97.69999999999892,
          "velocity": 0.6299212598425197,
          "duration": 0.0799999999999983
        },
        {
          "name": "D#4",
          "midi": 63,
          "time": 97.79999999999892,
          "velocity": 0.6299212598425197,
          "duration": 0.0799999999999983
        },
        {
          "name": "G3",
          "midi": 55,
          "time": 97.89999999999891,
          "velocity": 0.6299212598425197,
          "duration": 0.18000000000000682
        },
        {
          "name": "G3",
          "midi": 55,
          "time": 98.09999999999891,
          "velocity": 0.6299212598425197,
          "duration": 0.0799999999999983
        },
        {
          "name": "C4",
          "midi": 60,
          "time": 98.19999999999891,
          "velocity": 0.6299212598425197,
          "duration": 0.0799999999999983
        },
        {
          "name": "D4",
          "midi": 62,
          "time": 98.2999999999989,
          "velocity": 0.6299212598425197,
          "duration": 0.0799999999999983
        },
        {
          "name": "D#4",
          "midi": 63,
          "time": 98.3999999999989,
          "velocity": 0.6299212598425197,
          "duration": 0.0799999999999983
        },
        {
          "name": "D4",
          "midi": 62,
          "time": 98.49999999999889,
          "velocity": 0.6299212598425197,
          "duration": 0.0799999999999983
        },
        {
          "name": "D#4",
          "midi": 63,
          "time": 98.59999999999889,
          "velocity": 0.6299212598425197,
          "duration": 0.0799999999999983
        },
        {
          "name": "G4",
          "midi": 67,
          "time": 98.69999999999888,
          "velocity": 0.6299212598425197,
          "duration": 0.18000000000000682
        },
        {
          "name": "G4",
          "midi": 67,
          "time": 98.89999999999888,
          "velocity": 0.6299212598425197,
          "duration": 0.0799999999999983
        },
        {
          "name": "F4",
          "midi": 65,
          "time": 98.99999999999888,
          "velocity": 0.6299212598425197,
          "duration": 0.0799999999999983
        },
        {
          "name": "G4",
          "midi": 67,
          "time": 99.09999999999887,
          "velocity": 0.6299212598425197,
          "duration": 0.0799999999999983
        },
        {
          "name": "D#4",
          "midi": 63,
          "time": 99.19999999999887,
          "velocity": 0.6299212598425197,
          "duration": 0.0799999999999983
        },
        {
          "name": "D4",
          "midi": 62,
          "time": 99.29999999999886,
          "velocity": 0.6299212598425197,
          "duration": 0.0799999999999983
        },
        {
          "name": "D#4",
          "midi": 63,
          "time": 99.39999999999885,
          "velocity": 0.6299212598425197,
          "duration": 0.0799999999999983
        },
        {
          "name": "G3",
          "midi": 55,
          "time": 99.49999999999885,
          "velocity": 0.6299212598425197,
          "duration": 0.18000000000000682
        },
        {
          "name": "G3",
          "midi": 55,
          "time": 99.69999999999885,
          "velocity": 0.6299212598425197,
          "duration": 0.0799999999999983
        },
        {
          "name": "C4",
          "midi": 60,
          "time": 99.79999999999885,
          "velocity": 0.6299212598425197,
          "duration": 0.04999999999999716
        },
        {
          "name": "D4",
          "midi": 62,
          "time": 99.89999999999884,
          "velocity": 0.6299212598425197,
          "duration": 0.09999999999999432
        },
        {
          "name": "D#4",
          "midi": 63,
          "time": 100.09999999999883,
          "velocity": 0.6299212598425197,
          "duration": 0.09999999999999432
        },
        {
          "name": "F4",
          "midi": 65,
          "time": 100.29999999999882,
          "velocity": 0.6299212598425197,
          "duration": 0.09999999999999432
        },
        {
          "name": "G4",
          "midi": 67,
          "time": 100.4999999999988,
          "velocity": 0.6299212598425197,
          "duration": 0.28000000000000114
        },
        {
          "name": "C4",
          "midi": 60,
          "time": 100.7999999999988,
          "velocity": 0.6299212598425197,
          "duration": 0.6400000000000006
        },
        {
          "name": "G4",
          "midi": 67,
          "time": 101.5999999999988,
          "velocity": 0.6299212598425197,
          "duration": 0.1599999999999966
        },
        {
          "name": "F4",
          "midi": 65,
          "time": 101.7999999999988,
          "velocity": 0.6299212598425197,
          "duration": 0.0799999999999983
        },
        {
          "name": "G4",
          "midi": 67,
          "time": 101.8999999999988,
          "velocity": 0.6299212598425197,
          "duration": 0.1599999999999966
        },
        {
          "name": "G#4",
          "midi": 68,
          "time": 102.0999999999988,
          "velocity": 0.6299212598425197,
          "duration": 0.0799999999999983
        },
        {
          "name": "A#4",
          "midi": 70,
          "time": 102.1999999999988,
          "velocity": 0.6299212598425197,
          "duration": 1.7999999999999972
        },
        {
          "name": "C4",
          "midi": 60,
          "time": 103.99999999999879,
          "velocity": 0.6299212598425197,
          "duration": 0.6400000000000006
        },
        {
          "name": "G4",
          "midi": 67,
          "time": 104.79999999999879,
          "velocity": 0.6299212598425197,
          "duration": 0.1599999999999966
        },
        {
          "name": "F4",
          "midi": 65,
          "time": 104.99999999999879,
          "velocity": 0.6299212598425197,
          "duration": 0.0799999999999983
        },
        {
          "name": "G4",
          "midi": 67,
          "time": 105.09999999999879,
          "velocity": 0.6299212598425197,
          "duration": 0.1599999999999966
        },
        {
          "name": "A4",
          "midi": 69,
          "time": 105.29999999999879,
          "velocity": 0.6299212598425197,
          "duration": 0.0799999999999983
        },
        {
          "name": "D#4",
          "midi": 63,
          "time": 105.39999999999878,
          "velocity": 0.6299212598425197,
          "duration": 1.7999999999999972
        },
        {
          "name": "C4",
          "midi": 60,
          "time": 107.19999999999878,
          "velocity": 0.6299212598425197,
          "duration": 0.6400000000000006
        },
        {
          "name": "G4",
          "midi": 67,
          "time": 107.99999999999878,
          "velocity": 0.6299212598425197,
          "duration": 0.1599999999999966
        },
        {
          "name": "F4",
          "midi": 65,
          "time": 108.19999999999878,
          "velocity": 0.6299212598425197,
          "duration": 0.0799999999999983
        },
        {
          "name": "G4",
          "midi": 67,
          "time": 108.29999999999878,
          "velocity": 0.6299212598425197,
          "duration": 0.1599999999999966
        },
        {
          "name": "G#4",
          "midi": 68,
          "time": 108.49999999999878,
          "velocity": 0.6299212598425197,
          "duration": 0.0799999999999983
        },
        {
          "name": "A#4",
          "midi": 70,
          "time": 108.59999999999877,
          "velocity": 0.6299212598425197,
          "duration": 1.7999999999999972
        },
        {
          "name": "C4",
          "midi": 60,
          "time": 110.39999999999877,
          "velocity": 0.6299212598425197,
          "duration": 0.6400000000000006
        },
        {
          "name": "G4",
          "midi": 67,
          "time": 111.19999999999877,
          "velocity": 0.6299212598425197,
          "duration": 0.1599999999999966
        },
        {
          "name": "F4",
          "midi": 65,
          "time": 111.39999999999877,
          "velocity": 0.6299212598425197,
          "duration": 0.0799999999999983
        },
        {
          "name": "G4",
          "midi": 67,
          "time": 111.49999999999876,
          "velocity": 0.6299212598425197,
          "duration": 0.1599999999999966
        },
        {
          "name": "A4",
          "midi": 69,
          "time": 111.69999999999877,
          "velocity": 0.6299212598425197,
          "duration": 0.0799999999999983
        },
        {
          "name": "D#4",
          "midi": 63,
          "time": 111.79999999999876,
          "velocity": 0.6299212598425197,
          "duration": 1.7999999999999972
        },
        {
          "name": "G4",
          "midi": 67,
          "time": 113.59999999999876,
          "velocity": 0.6299212598425197,
          "duration": 0.09999999999999432
        },
        {
          "name": "G4",
          "midi": 67,
          "time": 113.79999999999875,
          "velocity": 0.6299212598425197,
          "duration": 0.23999999999999488
        },
        {
          "name": "A4",
          "midi": 69,
          "time": 114.09999999999874,
          "velocity": 0.6299212598425197,
          "duration": 0.23999999999999488
        },
        {
          "name": "A#4",
          "midi": 70,
          "time": 114.39999999999874,
          "velocity": 0.6299212598425197,
          "duration": 0.09999999999999432
        },
        {
          "name": "A#4",
          "midi": 70,
          "time": 114.59999999999873,
          "velocity": 0.6299212598425197,
          "duration": 0.20000000000000284
        },
        {
          "name": "A4",
          "midi": 69,
          "time": 115.19999999999874,
          "velocity": 0.6299212598425197,
          "duration": 0.09999999999999432
        },
        {
          "name": "A4",
          "midi": 69,
          "time": 115.39999999999873,
          "velocity": 0.6299212598425197,
          "duration": 0.23999999999999488
        },
        {
          "name": "A#4",
          "midi": 70,
          "time": 115.69999999999872,
          "velocity": 0.6299212598425197,
          "duration": 0.23999999999999488
        },
        {
          "name": "C5",
          "midi": 72,
          "time": 115.99999999999872,
          "velocity": 0.6299212598425197,
          "duration": 0.09999999999999432
        },
        {
          "name": "C5",
          "midi": 72,
          "time": 116.19999999999871,
          "velocity": 0.6299212598425197,
          "duration": 0.1599999999999966
        },
        {
          "name": "A#4",
          "midi": 70,
          "time": 116.39999999999871,
          "velocity": 0.6299212598425197,
          "duration": 0.0799999999999983
        },
        {
          "name": "C5",
          "midi": 72,
          "time": 116.4999999999987,
          "velocity": 0.6299212598425197,
          "duration": 0.23999999999999488
        },
        {
          "name": "G4",
          "midi": 67,
          "time": 116.7999999999987,
          "velocity": 0.6299212598425197,
          "duration": 0.09999999999999432
        },
        {
          "name": "G4",
          "midi": 67,
          "time": 116.99999999999869,
          "velocity": 0.6299212598425197,
          "duration": 0.23999999999999488
        },
        {
          "name": "A4",
          "midi": 69,
          "time": 117.29999999999869,
          "velocity": 0.6299212598425197,
          "duration": 0.23999999999999488
        },
        {
          "name": "A#4",
          "midi": 70,
          "time": 117.59999999999869,
          "velocity": 0.6299212598425197,
          "duration": 0.09999999999999432
        },
        {
          "name": "A#4",
          "midi": 70,
          "time": 117.79999999999868,
          "velocity": 0.6299212598425197,
          "duration": 0.20000000000000284
        },
        {
          "name": "A4",
          "midi": 69,
          "time": 118.39999999999868,
          "velocity": 0.6299212598425197,
          "duration": 0.09999999999999432
        },
        {
          "name": "A4",
          "midi": 69,
          "time": 118.59999999999867,
          "velocity": 0.6299212598425197,
          "duration": 0.23999999999999488
        },
        {
          "name": "A#4",
          "midi": 70,
          "time": 118.89999999999867,
          "velocity": 0.6299212598425197,
          "duration": 0.23999999999999488
        },
        {
          "name": "C5",
          "midi": 72,
          "time": 119.19999999999867,
          "velocity": 0.6299212598425197,
          "duration": 0.3199999999999932
        },
        {
          "name": "F5",
          "midi": 77,
          "time": 119.59999999999866,
          "velocity": 0.6299212598425197,
          "duration": 0.3199999999999932
        },
        {
          "name": "G5",
          "midi": 79,
          "time": 119.99999999999865,
          "velocity": 0.6299212598425197,
          "duration": 0.0799999999999983
        },
        {
          "name": "F5",
          "midi": 77,
          "time": 120.09999999999864,
          "velocity": 0.6299212598425197,
          "duration": 0.0799999999999983
        },
        {
          "name": "G5",
          "midi": 79,
          "time": 120.19999999999864,
          "velocity": 0.6299212598425197,
          "duration": 0.0799999999999983
        },
        {
          "name": "F5",
          "midi": 77,
          "time": 120.29999999999863,
          "velocity": 0.6299212598425197,
          "duration": 0.0799999999999983
        },
        {
          "name": "D6",
          "midi": 86,
          "time": 120.39999999999863,
          "velocity": 0.6299212598425197,
          "duration": 0.0799999999999983
        },
        {
          "name": "C6",
          "midi": 84,
          "time": 120.49999999999862,
          "velocity": 0.6299212598425197,
          "duration": 0.0799999999999983
        },
        {
          "name": "A#5",
          "midi": 82,
          "time": 120.59999999999862,
          "velocity": 0.6299212598425197,
          "duration": 0.0799999999999983
        },
        {
          "name": "A5",
          "midi": 81,
          "time": 120.69999999999861,
          "velocity": 0.6299212598425197,
          "duration": 0.0799999999999983
        },
        {
          "name": "G5",
          "midi": 79,
          "time": 120.7999999999986,
          "velocity": 0.6299212598425197,
          "duration": 0.0799999999999983
        },
        {
          "name": "F5",
          "midi": 77,
          "time": 120.8999999999986,
          "velocity": 0.6299212598425197,
          "duration": 0.0799999999999983
        },
        {
          "name": "G5",
          "midi": 79,
          "time": 120.9999999999986,
          "velocity": 0.6299212598425197,
          "duration": 0.0799999999999983
        },
        {
          "name": "F5",
          "midi": 77,
          "time": 121.09999999999859,
          "velocity": 0.6299212598425197,
          "duration": 0.0799999999999983
        },
        {
          "name": "D5",
          "midi": 74,
          "time": 121.19999999999858,
          "velocity": 0.6299212598425197,
          "duration": 0.0799999999999983
        },
        {
          "name": "C5",
          "midi": 72,
          "time": 121.29999999999858,
          "velocity": 0.6299212598425197,
          "duration": 0.0799999999999983
        },
        {
          "name": "D5",
          "midi": 74,
          "time": 121.39999999999857,
          "velocity": 0.6299212598425197,
          "duration": 0.0799999999999983
        },
        {
          "name": "C5",
          "midi": 72,
          "time": 121.49999999999856,
          "velocity": 0.6299212598425197,
          "duration": 0.0799999999999983
        },
        {
          "name": "G3",
          "midi": 55,
          "time": 121.59999999999856,
          "velocity": 0.6299212598425197,
          "duration": 0.3199999999999932
        },
        {
          "name": "G3",
          "midi": 55,
          "time": 121.99999999999855,
          "velocity": 0.6299212598425197,
          "duration": 0.0799999999999983
        },
        {
          "name": "D4",
          "midi": 62,
          "time": 122.09999999999854,
          "velocity": 0.6299212598425197,
          "duration": 0.18833333333333258
        },
        {
          "name": "D#4",
          "midi": 63,
          "time": 122.29999999999855,
          "velocity": 0.6299212598425197,
          "duration": 0.0799999999999983
        },
        {
          "name": "G4",
          "midi": 67,
          "time": 122.39999999999854,
          "velocity": 0.6299212598425197,
          "duration": 0.1599999999999966
        },
        {
          "name": "F4",
          "midi": 65,
          "time": 122.59999999999854,
          "velocity": 0.6299212598425197,
          "duration": 0.1599999999999966
        },
        {
          "name": "D#4",
          "midi": 63,
          "time": 122.79999999999855,
          "velocity": 0.6299212598425197,
          "duration": 0.0799999999999983
        },
        {
          "name": "D4",
          "midi": 62,
          "time": 122.89999999999854,
          "velocity": 0.6299212598425197,
          "duration": 0.1599999999999966
        },
        {
          "name": "A#3",
          "midi": 58,
          "time": 123.09999999999854,
          "velocity": 0.6299212598425197,
          "duration": 0.0799999999999983
        },
        {
          "name": "C3",
          "midi": 48,
          "time": 123.19999999999854,
          "velocity": 0.6299212598425197,
          "duration": 0.0799999999999983
        },
        {
          "name": "C3",
          "midi": 48,
          "time": 123.29999999999853,
          "velocity": 0.6299212598425197,
          "duration": 0.0799999999999983
        },
        {
          "name": "C3",
          "midi": 48,
          "time": 123.39999999999853,
          "velocity": 0.6299212598425197,
          "duration": 0.0799999999999983
        },
        {
          "name": "C3",
          "midi": 48,
          "time": 123.59999999999853,
          "velocity": 0.6299212598425197,
          "duration": 0.0799999999999983
        },
        {
          "name": "D3",
          "midi": 50,
          "time": 123.69999999999852,
          "velocity": 0.6299212598425197,
          "duration": 0.23999999999999488
        },
        {
          "name": "D#3",
          "midi": 51,
          "time": 123.99999999999852,
          "velocity": 0.6299212598425197,
          "duration": 0.23999999999999488
        },
        {
          "name": "C3",
          "midi": 48,
          "time": 124.29999999999852,
          "velocity": 0.6299212598425197,
          "duration": 0.09499999999999886
        },
        {
          "name": "F3",
          "midi": 53,
          "time": 124.39999999999851,
          "velocity": 0.6299212598425197,
          "duration": 0.0799999999999983
        },
        {
          "name": "G3",
          "midi": 55,
          "time": 124.49999999999851,
          "velocity": 0.6299212598425197,
          "duration": 0.23999999999999488
        },
        {
          "name": "F3",
          "midi": 53,
          "time": 124.7999999999985,
          "velocity": 0.6299212598425197,
          "duration": 0.3199999999999932
        },
        {
          "name": "G3",
          "midi": 55,
          "time": 125.1999999999985,
          "velocity": 0.6299212598425197,
          "duration": 0.0799999999999983
        },
        {
          "name": "A3",
          "midi": 57,
          "time": 125.29999999999849,
          "velocity": 0.6299212598425197,
          "duration": 0.23999999999999488
        },
        {
          "name": "A#3",
          "midi": 58,
          "time": 125.59999999999849,
          "velocity": 0.6299212598425197,
          "duration": 0.3199999999999932
        },
        {
          "name": "C4",
          "midi": 60,
          "time": 125.99999999999848,
          "velocity": 0.6299212598425197,
          "duration": 0.0799999999999983
        },
        {
          "name": "D4",
          "midi": 62,
          "time": 126.09999999999847,
          "velocity": 0.6299212598425197,
          "duration": 0.23999999999999488
        },
        {
          "name": "D#4",
          "midi": 63,
          "time": 126.39999999999847,
          "velocity": 0.6299212598425197,
          "duration": 0.3199999999999932
        },
        {
          "name": "D#4",
          "midi": 63,
          "time": 126.79999999999846,
          "velocity": 0.6299212598425197,
          "duration": 0.0799999999999983
        },
        {
          "name": "F4",
          "midi": 65,
          "time": 126.89999999999846,
          "velocity": 0.6299212598425197,
          "duration": 0.1599999999999966
        },
        {
          "name": "G4",
          "midi": 67,
          "time": 127.09999999999846,
          "velocity": 0.6299212598425197,
          "duration": 0.0799999999999983
        },
        {
          "name": "A#4",
          "midi": 70,
          "time": 127.19999999999845,
          "velocity": 0.6299212598425197,
          "duration": 0.3199999999999932
        },
        {
          "name": "A4",
          "midi": 69,
          "time": 127.59999999999845,
          "velocity": 0.6299212598425197,
          "duration": 0.09499999999999886
        },
        {
          "name": "C4",
          "midi": 60,
          "time": 127.69999999999844,
          "velocity": 0.6299212598425197,
          "duration": 0.0799999999999983
        },
        {
          "name": "D#4",
          "midi": 63,
          "time": 127.79999999999843,
          "velocity": 0.6299212598425197,
          "duration": 0.0799999999999983
        },
        {
          "name": "F4",
          "midi": 65,
          "time": 127.89999999999843,
          "velocity": 0.6299212598425197,
          "duration": 0.0799999999999983
        },
        {
          "name": "G4",
          "midi": 67,
          "time": 127.99999999999842,
          "velocity": 0.6299212598425197,
          "duration": 0.0799999999999983
        },
        {
          "name": "F4",
          "midi": 65,
          "time": 128.09999999999843,
          "velocity": 0.6299212598425197,
          "duration": 0.0800000000000125
        },
        {
          "name": "G4",
          "midi": 67,
          "time": 128.19999999999845,
          "velocity": 0.6299212598425197,
          "duration": 0.0800000000000125
        },
        {
          "name": "C4",
          "midi": 60,
          "time": 128.29999999999848,
          "velocity": 0.6299212598425197,
          "duration": 0.18000000000000682
        },
        {
          "name": "C4",
          "midi": 60,
          "time": 128.4999999999985,
          "velocity": 0.6299212598425197,
          "duration": 0.0800000000000125
        },
        {
          "name": "D#4",
          "midi": 63,
          "time": 128.59999999999852,
          "velocity": 0.6299212598425197,
          "duration": 0.0800000000000125
        },
        {
          "name": "F4",
          "midi": 65,
          "time": 128.69999999999854,
          "velocity": 0.6299212598425197,
          "duration": 0.0800000000000125
        },
        {
          "name": "G4",
          "midi": 67,
          "time": 128.79999999999856,
          "velocity": 0.6299212598425197,
          "duration": 0.1599999999999966
        },
        {
          "name": "A#4",
          "midi": 70,
          "time": 128.99999999999855,
          "velocity": 0.6299212598425197,
          "duration": 0.0800000000000125
        },
        {
          "name": "A4",
          "midi": 69,
          "time": 129.09999999999857,
          "velocity": 0.6299212598425197,
          "duration": 0.0800000000000125
        },
        {
          "name": "A#4",
          "midi": 70,
          "time": 129.1999999999986,
          "velocity": 0.6299212598425197,
          "duration": 0.0800000000000125
        },
        {
          "name": "A4",
          "midi": 69,
          "time": 129.29999999999862,
          "velocity": 0.6299212598425197,
          "duration": 0.1599999999999966
        },
        {
          "name": "F4",
          "midi": 65,
          "time": 129.4999999999986,
          "velocity": 0.6299212598425197,
          "duration": 0.0800000000000125
        },
        {
          "name": "G4",
          "midi": 67,
          "time": 129.59999999999863,
          "velocity": 0.6299212598425197,
          "duration": 0.0800000000000125
        },
        {
          "name": "F4",
          "midi": 65,
          "time": 129.69999999999865,
          "velocity": 0.6299212598425197,
          "duration": 0.0800000000000125
        },
        {
          "name": "G4",
          "midi": 67,
          "time": 129.79999999999868,
          "velocity": 0.6299212598425197,
          "duration": 0.0800000000000125
        },
        {
          "name": "C4",
          "midi": 60,
          "time": 129.8999999999987,
          "velocity": 0.6299212598425197,
          "duration": 0.18000000000000682
        },
        {
          "name": "C4",
          "midi": 60,
          "time": 130.09999999999872,
          "velocity": 0.6299212598425197,
          "duration": 0.0800000000000125
        },
        {
          "name": "D#4",
          "midi": 63,
          "time": 130.19999999999874,
          "velocity": 0.6299212598425197,
          "duration": 0.0800000000000125
        },
        {
          "name": "F4",
          "midi": 65,
          "time": 130.29999999999876,
          "velocity": 0.6299212598425197,
          "duration": 0.0800000000000125
        },
        {
          "name": "G4",
          "midi": 67,
          "time": 130.39999999999878,
          "velocity": 0.6299212598425197,
          "duration": 0.1599999999999966
        },
        {
          "name": "A#4",
          "midi": 70,
          "time": 130.59999999999877,
          "velocity": 0.6299212598425197,
          "duration": 0.0800000000000125
        },
        {
          "name": "A4",
          "midi": 69,
          "time": 130.6999999999988,
          "velocity": 0.6299212598425197,
          "duration": 0.0800000000000125
        },
        {
          "name": "A#4",
          "midi": 70,
          "time": 130.79999999999882,
          "velocity": 0.6299212598425197,
          "duration": 0.0800000000000125
        },
        {
          "name": "C5",
          "midi": 72,
          "time": 130.89999999999884,
          "velocity": 0.6299212598425197,
          "duration": 0.1599999999999966
        },
        {
          "name": "D5",
          "midi": 74,
          "time": 131.09999999999883,
          "velocity": 0.6299212598425197,
          "duration": 0.0800000000000125
        },
        {
          "name": "F3",
          "midi": 53,
          "time": 131.19999999999885,
          "velocity": 0.6299212598425197,
          "duration": 0.3199999999999932
        },
        {
          "name": "G3",
          "midi": 55,
          "time": 131.59999999999886,
          "velocity": 0.6299212598425197,
          "duration": 0.0800000000000125
        },
        {
          "name": "A3",
          "midi": 57,
          "time": 131.69999999999888,
          "velocity": 0.6299212598425197,
          "duration": 0.2400000000000091
        },
        {
          "name": "A#3",
          "midi": 58,
          "time": 131.9999999999989,
          "velocity": 0.6299212598425197,
          "duration": 0.3199999999999932
        },
        {
          "name": "C4",
          "midi": 60,
          "time": 132.3999999999989,
          "velocity": 0.6299212598425197,
          "duration": 0.0800000000000125
        },
        {
          "name": "D4",
          "midi": 62,
          "time": 132.49999999999892,
          "velocity": 0.6299212598425197,
          "duration": 0.2400000000000091
        },
        {
          "name": "D#4",
          "midi": 63,
          "time": 132.79999999999893,
          "velocity": 0.6299212598425197,
          "duration": 0.0800000000000125
        },
        {
          "name": "D#4",
          "midi": 63,
          "time": 132.89999999999895,
          "velocity": 0.6299212598425197,
          "duration": 0.0800000000000125
        },
        {
          "name": "D#4",
          "midi": 63,
          "time": 132.99999999999898,
          "velocity": 0.6299212598425197,
          "duration": 0.1599999999999966
        },
        {
          "name": "D#4",
          "midi": 63,
          "time": 133.19999999999897,
          "velocity": 0.6299212598425197,
          "duration": 0.0800000000000125
        },
        {
          "name": "F4",
          "midi": 65,
          "time": 133.299999999999,
          "velocity": 0.6299212598425197,
          "duration": 0.1599999999999966
        },
        {
          "name": "G4",
          "midi": 67,
          "time": 133.49999999999898,
          "velocity": 0.6299212598425197,
          "duration": 0.0800000000000125
        },
        {
          "name": "A#4",
          "midi": 70,
          "time": 133.599999999999,
          "velocity": 0.6299212598425197,
          "duration": 0.3199999999999932
        },
        {
          "name": "A4",
          "midi": 69,
          "time": 133.999999999999,
          "velocity": 0.6299212598425197,
          "duration": 0.3199999999999932
        },
        {
          "name": "G4",
          "midi": 67,
          "time": 134.399999999999,
          "velocity": 0.6299212598425197,
          "duration": 0.0800000000000125
        },
        {
          "name": "G4",
          "midi": 67,
          "time": 134.49999999999903,
          "velocity": 0.6299212598425197,
          "duration": 0.0800000000000125
        },
        {
          "name": "G4",
          "midi": 67,
          "time": 134.59999999999906,
          "velocity": 0.6299212598425197,
          "duration": 0.0800000000000125
        },
        {
          "name": "G4",
          "midi": 67,
          "time": 134.69999999999908,
          "velocity": 0.6299212598425197,
          "duration": 0.0800000000000125
        },
        {
          "name": "G4",
          "midi": 67,
          "time": 134.8999999999991,
          "velocity": 0.6299212598425197,
          "duration": 0.0800000000000125
        },
        {
          "name": "G4",
          "midi": 67,
          "time": 134.99999999999912,
          "velocity": 0.6299212598425197,
          "duration": 0.0800000000000125
        },
        {
          "name": "G4",
          "midi": 67,
          "time": 135.09999999999914,
          "velocity": 0.6299212598425197,
          "duration": 0.0800000000000125
        },
        {
          "name": "G4",
          "midi": 67,
          "time": 135.19999999999916,
          "velocity": 0.6299212598425197,
          "duration": 0.09999999999999432
        },
        {
          "name": "G4",
          "midi": 67,
          "time": 135.39999999999915,
          "velocity": 0.6299212598425197,
          "duration": 0.09999999999999432
        },
        {
          "name": "F4",
          "midi": 65,
          "time": 135.59999999999914,
          "velocity": 0.6299212598425197,
          "duration": 0.3199999999999932
        },
        {
          "name": "D#4",
          "midi": 63,
          "time": 135.99999999999915,
          "velocity": 0.6299212598425197,
          "duration": 0.0800000000000125
        },
        {
          "name": "D#4",
          "midi": 63,
          "time": 136.09999999999917,
          "velocity": 0.6299212598425197,
          "duration": 0.0800000000000125
        },
        {
          "name": "D#4",
          "midi": 63,
          "time": 136.1999999999992,
          "velocity": 0.6299212598425197,
          "duration": 0.0800000000000125
        },
        {
          "name": "D#4",
          "midi": 63,
          "time": 136.29999999999922,
          "velocity": 0.6299212598425197,
          "duration": 0.0800000000000125
        },
        {
          "name": "D#4",
          "midi": 63,
          "time": 136.49999999999923,
          "velocity": 0.6299212598425197,
          "duration": 0.0800000000000125
        },
        {
          "name": "D#4",
          "midi": 63,
          "time": 136.59999999999926,
          "velocity": 0.6299212598425197,
          "duration": 0.0800000000000125
        },
        {
          "name": "D#4",
          "midi": 63,
          "time": 136.69999999999928,
          "velocity": 0.6299212598425197,
          "duration": 0.0800000000000125
        },
        {
          "name": "D#4",
          "midi": 63,
          "time": 136.7999999999993,
          "velocity": 0.6299212598425197,
          "duration": 0.09999999999999432
        },
        {
          "name": "D#4",
          "midi": 63,
          "time": 136.9999999999993,
          "velocity": 0.6299212598425197,
          "duration": 0.09999999999999432
        },
        {
          "name": "F4",
          "midi": 65,
          "time": 137.19999999999928,
          "velocity": 0.6299212598425197,
          "duration": 0.3199999999999932
        },
        {
          "name": "G4",
          "midi": 67,
          "time": 137.59999999999928,
          "velocity": 0.6299212598425197,
          "duration": 0.0800000000000125
        },
        {
          "name": "G4",
          "midi": 67,
          "time": 137.6999999999993,
          "velocity": 0.6299212598425197,
          "duration": 0.0800000000000125
        },
        {
          "name": "G4",
          "midi": 67,
          "time": 137.79999999999933,
          "velocity": 0.6299212598425197,
          "duration": 0.0800000000000125
        },
        {
          "name": "G4",
          "midi": 67,
          "time": 137.89999999999935,
          "velocity": 0.6299212598425197,
          "duration": 0.0800000000000125
        },
        {
          "name": "G4",
          "midi": 67,
          "time": 138.09999999999937,
          "velocity": 0.6299212598425197,
          "duration": 0.0800000000000125
        },
        {
          "name": "G4",
          "midi": 67,
          "time": 138.1999999999994,
          "velocity": 0.6299212598425197,
          "duration": 0.0800000000000125
        },
        {
          "name": "G4",
          "midi": 67,
          "time": 138.29999999999941,
          "velocity": 0.6299212598425197,
          "duration": 0.0800000000000125
        },
        {
          "name": "G4",
          "midi": 67,
          "time": 138.39999999999944,
          "velocity": 0.6299212598425197,
          "duration": 0.09999999999999432
        },
        {
          "name": "G4",
          "midi": 67,
          "time": 138.59999999999943,
          "velocity": 0.6299212598425197,
          "duration": 0.09999999999999432
        },
        {
          "name": "F4",
          "midi": 65,
          "time": 138.79999999999941,
          "velocity": 0.6299212598425197,
          "duration": 0.3199999999999932
        },
        {
          "name": "D#4",
          "midi": 63,
          "time": 139.19999999999942,
          "velocity": 0.6299212598425197,
          "duration": 0.0800000000000125
        },
        {
          "name": "D#4",
          "midi": 63,
          "time": 139.29999999999944,
          "velocity": 0.6299212598425197,
          "duration": 0.0800000000000125
        },
        {
          "name": "D#4",
          "midi": 63,
          "time": 139.39999999999947,
          "velocity": 0.6299212598425197,
          "duration": 0.0800000000000125
        },
        {
          "name": "D#4",
          "midi": 63,
          "time": 139.4999999999995,
          "velocity": 0.6299212598425197,
          "duration": 0.0800000000000125
        },
        {
          "name": "D#4",
          "midi": 63,
          "time": 139.6999999999995,
          "velocity": 0.6299212598425197,
          "duration": 0.0800000000000125
        },
        {
          "name": "F4",
          "midi": 65,
          "time": 139.79999999999953,
          "velocity": 0.6299212598425197,
          "duration": 0.0800000000000125
        },
        {
          "name": "G4",
          "midi": 67,
          "time": 139.89999999999955,
          "velocity": 0.6299212598425197,
          "duration": 0.0800000000000125
        },
        {
          "name": "A4",
          "midi": 69,
          "time": 139.99999999999957,
          "velocity": 0.6299212598425197,
          "duration": 0.0800000000000125
        },
        {
          "name": "A#4",
          "midi": 70,
          "time": 140.0999999999996,
          "velocity": 0.6299212598425197,
          "duration": 0.0800000000000125
        },
        {
          "name": "A4",
          "midi": 69,
          "time": 140.19999999999962,
          "velocity": 0.6299212598425197,
          "duration": 0.09999999999999432
        },
        {
          "name": "F4",
          "midi": 65,
          "time": 140.3999999999996,
          "velocity": 0.6299212598425197,
          "duration": 0.3199999999999932
        },
        {
          "name": "A#4",
          "midi": 70,
          "time": 140.7999999999996,
          "velocity": 0.6299212598425197,
          "duration": 0.0800000000000125
        },
        {
          "name": "A#4",
          "midi": 70,
          "time": 140.89999999999964,
          "velocity": 0.6299212598425197,
          "duration": 0.0800000000000125
        },
        {
          "name": "A#4",
          "midi": 70,
          "time": 140.99999999999966,
          "velocity": 0.6299212598425197,
          "duration": 0.0800000000000125
        },
        {
          "name": "A#4",
          "midi": 70,
          "time": 141.09999999999968,
          "velocity": 0.6299212598425197,
          "duration": 0.0800000000000125
        },
        {
          "name": "A#4",
          "midi": 70,
          "time": 141.2999999999997,
          "velocity": 0.6299212598425197,
          "duration": 0.0800000000000125
        },
        {
          "name": "A#4",
          "midi": 70,
          "time": 141.39999999999972,
          "velocity": 0.6299212598425197,
          "duration": 0.0800000000000125
        },
        {
          "name": "A#4",
          "midi": 70,
          "time": 141.49999999999974,
          "velocity": 0.6299212598425197,
          "duration": 0.0800000000000125
        },
        {
          "name": "A#4",
          "midi": 70,
          "time": 141.59999999999977,
          "velocity": 0.6299212598425197,
          "duration": 0.09999999999999432
        },
        {
          "name": "A#4",
          "midi": 70,
          "time": 141.79999999999976,
          "velocity": 0.6299212598425197,
          "duration": 0.09999999999999432
        },
        {
          "name": "A4",
          "midi": 69,
          "time": 141.99999999999974,
          "velocity": 0.6299212598425197,
          "duration": 0.3199999999999932
        },
        {
          "name": "G4",
          "midi": 67,
          "time": 142.39999999999975,
          "velocity": 0.6299212598425197,
          "duration": 0.0800000000000125
        },
        {
          "name": "G4",
          "midi": 67,
          "time": 142.49999999999977,
          "velocity": 0.6299212598425197,
          "duration": 0.0800000000000125
        },
        {
          "name": "G4",
          "midi": 67,
          "time": 142.5999999999998,
          "velocity": 0.6299212598425197,
          "duration": 0.0800000000000125
        },
        {
          "name": "G4",
          "midi": 67,
          "time": 142.69999999999982,
          "velocity": 0.6299212598425197,
          "duration": 0.0800000000000125
        },
        {
          "name": "G4",
          "midi": 67,
          "time": 142.89999999999984,
          "velocity": 0.6299212598425197,
          "duration": 0.0800000000000125
        },
        {
          "name": "G4",
          "midi": 67,
          "time": 142.99999999999986,
          "velocity": 0.6299212598425197,
          "duration": 0.0800000000000125
        },
        {
          "name": "G4",
          "midi": 67,
          "time": 143.09999999999988,
          "velocity": 0.6299212598425197,
          "duration": 0.0800000000000125
        },
        {
          "name": "G4",
          "midi": 67,
          "time": 143.1999999999999,
          "velocity": 0.6299212598425197,
          "duration": 0.09999999999999432
        },
        {
          "name": "G4",
          "midi": 67,
          "time": 143.3999999999999,
          "velocity": 0.6299212598425197,
          "duration": 0.09999999999999432
        },
        {
          "name": "A4",
          "midi": 69,
          "time": 143.59999999999988,
          "velocity": 0.6299212598425197,
          "duration": 0.3199999999999932
        },
        {
          "name": "A#4",
          "midi": 70,
          "time": 143.9999999999999,
          "velocity": 0.6299212598425197,
          "duration": 0.0800000000000125
        },
        {
          "name": "A#4",
          "midi": 70,
          "time": 144.0999999999999,
          "velocity": 0.6299212598425197,
          "duration": 0.0800000000000125
        },
        {
          "name": "A#4",
          "midi": 70,
          "time": 144.19999999999993,
          "velocity": 0.6299212598425197,
          "duration": 0.0800000000000125
        },
        {
          "name": "A#4",
          "midi": 70,
          "time": 144.29999999999995,
          "velocity": 0.6299212598425197,
          "duration": 0.0800000000000125
        },
        {
          "name": "A#4",
          "midi": 70,
          "time": 144.49999999999997,
          "velocity": 0.6299212598425197,
          "duration": 0.0800000000000125
        },
        {
          "name": "A#4",
          "midi": 70,
          "time": 144.6,
          "velocity": 0.6299212598425197,
          "duration": 0.0800000000000125
        },
        {
          "name": "A#4",
          "midi": 70,
          "time": 144.70000000000002,
          "velocity": 0.6299212598425197,
          "duration": 0.0800000000000125
        },
        {
          "name": "A#4",
          "midi": 70,
          "time": 144.80000000000004,
          "velocity": 0.6299212598425197,
          "duration": 0.09999999999999432
        },
        {
          "name": "A4",
          "midi": 69,
          "time": 145.00000000000003,
          "velocity": 0.6299212598425197,
          "duration": 0.09999999999999432
        },
        {
          "name": "A#4",
          "midi": 70,
          "time": 145.20000000000002,
          "velocity": 0.6299212598425197,
          "duration": 0.3199999999999932
        },
        {
          "name": "C5",
          "midi": 72,
          "time": 145.60000000000002,
          "velocity": 0.6299212598425197,
          "duration": 0.0800000000000125
        },
        {
          "name": "C5",
          "midi": 72,
          "time": 145.70000000000005,
          "velocity": 0.6299212598425197,
          "duration": 0.0800000000000125
        },
        {
          "name": "C5",
          "midi": 72,
          "time": 145.80000000000007,
          "velocity": 0.6299212598425197,
          "duration": 0.0800000000000125
        },
        {
          "name": "C5",
          "midi": 72,
          "time": 145.9000000000001,
          "velocity": 0.6299212598425197,
          "duration": 0.0800000000000125
        },
        {
          "name": "C5",
          "midi": 72,
          "time": 146.1000000000001,
          "velocity": 0.6299212598425197,
          "duration": 0.0800000000000125
        },
        {
          "name": "C5",
          "midi": 72,
          "time": 146.20000000000013,
          "velocity": 0.6299212598425197,
          "duration": 0.0800000000000125
        },
        {
          "name": "C5",
          "midi": 72,
          "time": 146.30000000000015,
          "velocity": 0.6299212598425197,
          "duration": 0.0800000000000125
        },
        {
          "name": "C5",
          "midi": 72,
          "time": 146.40000000000018,
          "velocity": 0.6299212598425197,
          "duration": 0.0800000000000125
        },
        {
          "name": "G3",
          "midi": 55,
          "time": 146.90000000000018,
          "velocity": 0.6299212598425197,
          "duration": 0.0800000000000125
        },
        {
          "name": "C4",
          "midi": 60,
          "time": 147.0000000000002,
          "velocity": 0.6299212598425197,
          "duration": 0.0800000000000125
        },
        {
          "name": "D4",
          "midi": 62,
          "time": 147.10000000000022,
          "velocity": 0.6299212598425197,
          "duration": 0.0800000000000125
        },
        {
          "name": "D#4",
          "midi": 63,
          "time": 147.20000000000024,
          "velocity": 0.6299212598425197,
          "duration": 0.0800000000000125
        },
        {
          "name": "D4",
          "midi": 62,
          "time": 147.30000000000027,
          "velocity": 0.6299212598425197,
          "duration": 0.0800000000000125
        },
        {
          "name": "D#4",
          "midi": 63,
          "time": 147.4000000000003,
          "velocity": 0.6299212598425197,
          "duration": 0.0800000000000125
        },
        {
          "name": "G3",
          "midi": 55,
          "time": 147.5000000000003,
          "velocity": 0.6299212598425197,
          "duration": 0.18000000000000682
        },
        {
          "name": "G3",
          "midi": 55,
          "time": 147.70000000000033,
          "velocity": 0.6299212598425197,
          "duration": 0.0800000000000125
        },
        {
          "name": "C4",
          "midi": 60,
          "time": 147.80000000000035,
          "velocity": 0.6299212598425197,
          "duration": 0.0800000000000125
        },
        {
          "name": "D4",
          "midi": 62,
          "time": 147.90000000000038,
          "velocity": 0.6299212598425197,
          "duration": 0.0800000000000125
        },
        {
          "name": "D#4",
          "midi": 63,
          "time": 148.0000000000004,
          "velocity": 0.6299212598425197,
          "duration": 0.0800000000000125
        },
        {
          "name": "D4",
          "midi": 62,
          "time": 148.10000000000042,
          "velocity": 0.6299212598425197,
          "duration": 0.0800000000000125
        },
        {
          "name": "D#4",
          "midi": 63,
          "time": 148.20000000000044,
          "velocity": 0.6299212598425197,
          "duration": 0.0800000000000125
        },
        {
          "name": "G4",
          "midi": 67,
          "time": 148.30000000000047,
          "velocity": 0.6299212598425197,
          "duration": 0.18000000000000682
        },
        {
          "name": "G4",
          "midi": 67,
          "time": 148.50000000000048,
          "velocity": 0.6299212598425197,
          "duration": 0.0800000000000125
        },
        {
          "name": "F4",
          "midi": 65,
          "time": 148.6000000000005,
          "velocity": 0.6299212598425197,
          "duration": 0.0800000000000125
        },
        {
          "name": "G4",
          "midi": 67,
          "time": 148.70000000000053,
          "velocity": 0.6299212598425197,
          "duration": 0.0800000000000125
        },
        {
          "name": "D#4",
          "midi": 63,
          "time": 148.80000000000055,
          "velocity": 0.6299212598425197,
          "duration": 0.0800000000000125
        },
        {
          "name": "D4",
          "midi": 62,
          "time": 148.90000000000057,
          "velocity": 0.6299212598425197,
          "duration": 0.0800000000000125
        },
        {
          "name": "D#4",
          "midi": 63,
          "time": 149.0000000000006,
          "velocity": 0.6299212598425197,
          "duration": 0.0800000000000125
        },
        {
          "name": "G3",
          "midi": 55,
          "time": 149.10000000000062,
          "velocity": 0.6299212598425197,
          "duration": 0.18000000000000682
        },
        {
          "name": "G3",
          "midi": 55,
          "time": 149.30000000000064,
          "velocity": 0.6299212598425197,
          "duration": 0.0800000000000125
        },
        {
          "name": "C4",
          "midi": 60,
          "time": 149.40000000000066,
          "velocity": 0.6299212598425197,
          "duration": 0.05000000000001137
        },
        {
          "name": "D4",
          "midi": 62,
          "time": 149.50000000000068,
          "velocity": 0.6299212598425197,
          "duration": 0.09999999999999432
        },
        {
          "name": "D#4",
          "midi": 63,
          "time": 149.70000000000067,
          "velocity": 0.6299212598425197,
          "duration": 0.09999999999999432
        },
        {
          "name": "F4",
          "midi": 65,
          "time": 149.90000000000066,
          "velocity": 0.6299212598425197,
          "duration": 0.09999999999999432
        },
        {
          "name": "G4",
          "midi": 67,
          "time": 150.10000000000065,
          "velocity": 0.6299212598425197,
          "duration": 0.28000000000000114
        },
        {
          "name": "C4",
          "midi": 60,
          "time": 150.40000000000066,
          "velocity": 0.6299212598425197,
          "duration": 0.6399999999999864
        },
        {
          "name": "G4",
          "midi": 67,
          "time": 151.20000000000064,
          "velocity": 0.6299212598425197,
          "duration": 0.1599999999999966
        },
        {
          "name": "F4",
          "midi": 65,
          "time": 151.40000000000063,
          "velocity": 0.6299212598425197,
          "duration": 0.0800000000000125
        },
        {
          "name": "G4",
          "midi": 67,
          "time": 151.50000000000065,
          "velocity": 0.6299212598425197,
          "duration": 0.1599999999999966
        },
        {
          "name": "G#4",
          "midi": 68,
          "time": 151.70000000000064,
          "velocity": 0.6299212598425197,
          "duration": 0.0800000000000125
        },
        {
          "name": "A#4",
          "midi": 70,
          "time": 151.80000000000067,
          "velocity": 0.6299212598425197,
          "duration": 1.8000000000000114
        },
        {
          "name": "C4",
          "midi": 60,
          "time": 153.60000000000068,
          "velocity": 0.6299212598425197,
          "duration": 0.6399999999999864
        },
        {
          "name": "G4",
          "midi": 67,
          "time": 154.40000000000066,
          "velocity": 0.6299212598425197,
          "duration": 0.1599999999999966
        },
        {
          "name": "F4",
          "midi": 65,
          "time": 154.60000000000065,
          "velocity": 0.6299212598425197,
          "duration": 0.0800000000000125
        },
        {
          "name": "G4",
          "midi": 67,
          "time": 154.70000000000067,
          "velocity": 0.6299212598425197,
          "duration": 0.1599999999999966
        },
        {
          "name": "A4",
          "midi": 69,
          "time": 154.90000000000066,
          "velocity": 0.6299212598425197,
          "duration": 0.0800000000000125
        },
        {
          "name": "D#4",
          "midi": 63,
          "time": 155.00000000000068,
          "velocity": 0.6299212598425197,
          "duration": 1.8000000000000114
        },
        {
          "name": "C4",
          "midi": 60,
          "time": 156.8000000000007,
          "velocity": 0.6299212598425197,
          "duration": 0.6399999999999864
        },
        {
          "name": "G4",
          "midi": 67,
          "time": 157.60000000000068,
          "velocity": 0.6299212598425197,
          "duration": 0.1599999999999966
        },
        {
          "name": "F4",
          "midi": 65,
          "time": 157.80000000000067,
          "velocity": 0.6299212598425197,
          "duration": 0.0800000000000125
        },
        {
          "name": "G4",
          "midi": 67,
          "time": 157.9000000000007,
          "velocity": 0.6299212598425197,
          "duration": 0.1599999999999966
        },
        {
          "name": "G#4",
          "midi": 68,
          "time": 158.10000000000068,
          "velocity": 0.6299212598425197,
          "duration": 0.0800000000000125
        },
        {
          "name": "A#4",
          "midi": 70,
          "time": 158.2000000000007,
          "velocity": 0.6299212598425197,
          "duration": 1.8000000000000114
        },
        {
          "name": "C4",
          "midi": 60,
          "time": 160.0000000000007,
          "velocity": 0.6299212598425197,
          "duration": 0.6399999999999864
        },
        {
          "name": "G4",
          "midi": 67,
          "time": 160.8000000000007,
          "velocity": 0.6299212598425197,
          "duration": 0.1599999999999966
        },
        {
          "name": "F4",
          "midi": 65,
          "time": 161.00000000000068,
          "velocity": 0.6299212598425197,
          "duration": 0.0800000000000125
        },
        {
          "name": "G4",
          "midi": 67,
          "time": 161.1000000000007,
          "velocity": 0.6299212598425197,
          "duration": 0.1599999999999966
        },
        {
          "name": "A4",
          "midi": 69,
          "time": 161.3000000000007,
          "velocity": 0.6299212598425197,
          "duration": 0.0800000000000125
        },
        {
          "name": "D#4",
          "midi": 63,
          "time": 161.40000000000072,
          "velocity": 0.6299212598425197,
          "duration": 1.8000000000000114
        },
        {
          "name": "G4",
          "midi": 67,
          "time": 163.20000000000073,
          "velocity": 0.6299212598425197,
          "duration": 0.09999999999999432
        },
        {
          "name": "G4",
          "midi": 67,
          "time": 163.40000000000072,
          "velocity": 0.6299212598425197,
          "duration": 0.2400000000000091
        },
        {
          "name": "A4",
          "midi": 69,
          "time": 163.70000000000073,
          "velocity": 0.6299212598425197,
          "duration": 0.2400000000000091
        },
        {
          "name": "A#4",
          "midi": 70,
          "time": 164.00000000000074,
          "velocity": 0.6299212598425197,
          "duration": 0.09999999999999432
        },
        {
          "name": "A#4",
          "midi": 70,
          "time": 164.20000000000073,
          "velocity": 0.6299212598425197,
          "duration": 0.19999999999998863
        },
        {
          "name": "A4",
          "midi": 69,
          "time": 164.80000000000072,
          "velocity": 0.6299212598425197,
          "duration": 0.09999999999999432
        },
        {
          "name": "A4",
          "midi": 69,
          "time": 165.0000000000007,
          "velocity": 0.6299212598425197,
          "duration": 0.2400000000000091
        },
        {
          "name": "A#4",
          "midi": 70,
          "time": 165.30000000000072,
          "velocity": 0.6299212598425197,
          "duration": 0.2400000000000091
        },
        {
          "name": "C5",
          "midi": 72,
          "time": 165.60000000000073,
          "velocity": 0.6299212598425197,
          "duration": 0.09999999999999432
        },
        {
          "name": "C5",
          "midi": 72,
          "time": 165.80000000000072,
          "velocity": 0.6299212598425197,
          "duration": 0.1599999999999966
        },
        {
          "name": "A#4",
          "midi": 70,
          "time": 166.0000000000007,
          "velocity": 0.6299212598425197,
          "duration": 0.0800000000000125
        },
        {
          "name": "C5",
          "midi": 72,
          "time": 166.10000000000073,
          "velocity": 0.6299212598425197,
          "duration": 0.2400000000000091
        },
        {
          "name": "G4",
          "midi": 67,
          "time": 166.40000000000074,
          "velocity": 0.6299212598425197,
          "duration": 0.09999999999999432
        },
        {
          "name": "G4",
          "midi": 67,
          "time": 166.60000000000073,
          "velocity": 0.6299212598425197,
          "duration": 0.2400000000000091
        },
        {
          "name": "A4",
          "midi": 69,
          "time": 166.90000000000074,
          "velocity": 0.6299212598425197,
          "duration": 0.2400000000000091
        },
        {
          "name": "A#4",
          "midi": 70,
          "time": 167.20000000000076,
          "velocity": 0.6299212598425197,
          "duration": 0.09999999999999432
        },
        {
          "name": "A#4",
          "midi": 70,
          "time": 167.40000000000074,
          "velocity": 0.6299212598425197,
          "duration": 0.19999999999998863
        },
        {
          "name": "A4",
          "midi": 69,
          "time": 168.00000000000074,
          "velocity": 0.6299212598425197,
          "duration": 0.09999999999999432
        },
        {
          "name": "A4",
          "midi": 69,
          "time": 168.20000000000073,
          "velocity": 0.6299212598425197,
          "duration": 0.2400000000000091
        },
        {
          "name": "A#4",
          "midi": 70,
          "time": 168.50000000000074,
          "velocity": 0.6299212598425197,
          "duration": 0.2400000000000091
        },
        {
          "name": "C5",
          "midi": 72,
          "time": 168.80000000000075,
          "velocity": 0.6299212598425197,
          "duration": 0.3199999999999932
        },
        {
          "name": "F5",
          "midi": 77,
          "time": 169.20000000000076,
          "velocity": 0.6299212598425197,
          "duration": 0.3199999999999932
        },
        {
          "name": "G5",
          "midi": 79,
          "time": 169.60000000000076,
          "velocity": 0.6299212598425197,
          "duration": 0.0800000000000125
        },
        {
          "name": "F5",
          "midi": 77,
          "time": 169.70000000000078,
          "velocity": 0.6299212598425197,
          "duration": 0.0800000000000125
        },
        {
          "name": "G5",
          "midi": 79,
          "time": 169.8000000000008,
          "velocity": 0.6299212598425197,
          "duration": 0.0800000000000125
        },
        {
          "name": "F5",
          "midi": 77,
          "time": 169.90000000000083,
          "velocity": 0.6299212598425197,
          "duration": 0.0800000000000125
        },
        {
          "name": "D6",
          "midi": 86,
          "time": 170.00000000000085,
          "velocity": 0.6299212598425197,
          "duration": 0.0800000000000125
        },
        {
          "name": "C6",
          "midi": 84,
          "time": 170.10000000000088,
          "velocity": 0.6299212598425197,
          "duration": 0.0800000000000125
        },
        {
          "name": "A#5",
          "midi": 82,
          "time": 170.2000000000009,
          "velocity": 0.6299212598425197,
          "duration": 0.0800000000000125
        },
        {
          "name": "A5",
          "midi": 81,
          "time": 170.30000000000092,
          "velocity": 0.6299212598425197,
          "duration": 0.0800000000000125
        },
        {
          "name": "G5",
          "midi": 79,
          "time": 170.40000000000094,
          "velocity": 0.6299212598425197,
          "duration": 0.0800000000000125
        },
        {
          "name": "F5",
          "midi": 77,
          "time": 170.50000000000097,
          "velocity": 0.6299212598425197,
          "duration": 0.0800000000000125
        },
        {
          "name": "G5",
          "midi": 79,
          "time": 170.600000000001,
          "velocity": 0.6299212598425197,
          "duration": 0.0800000000000125
        },
        {
          "name": "F5",
          "midi": 77,
          "time": 170.700000000001,
          "velocity": 0.6299212598425197,
          "duration": 0.0800000000000125
        },
        {
          "name": "D5",
          "midi": 74,
          "time": 170.80000000000103,
          "velocity": 0.6299212598425197,
          "duration": 0.0800000000000125
        },
        {
          "name": "C5",
          "midi": 72,
          "time": 170.90000000000106,
          "velocity": 0.6299212598425197,
          "duration": 0.0800000000000125
        },
        {
          "name": "D5",
          "midi": 74,
          "time": 171.00000000000108,
          "velocity": 0.6299212598425197,
          "duration": 0.0800000000000125
        },
        {
          "name": "C5",
          "midi": 72,
          "time": 171.1000000000011,
          "velocity": 0.6299212598425197,
          "duration": 0.0800000000000125
        },
        {
          "name": "G3",
          "midi": 55,
          "time": 171.20000000000113,
          "velocity": 0.6299212598425197,
          "duration": 0.3199999999999932
        },
        {
          "name": "G3",
          "midi": 55,
          "time": 171.60000000000113,
          "velocity": 0.6299212598425197,
          "duration": 0.0800000000000125
        },
        {
          "name": "D4",
          "midi": 62,
          "time": 171.70000000000115,
          "velocity": 0.6299212598425197,
          "duration": 0.18833333333333258
        },
        {
          "name": "D#4",
          "midi": 63,
          "time": 171.90000000000114,
          "velocity": 0.6299212598425197,
          "duration": 0.0800000000000125
        },
        {
          "name": "G4",
          "midi": 67,
          "time": 172.00000000000117,
          "velocity": 0.6299212598425197,
          "duration": 0.1599999999999966
        },
        {
          "name": "F4",
          "midi": 65,
          "time": 172.20000000000115,
          "velocity": 0.6299212598425197,
          "duration": 0.1599999999999966
        },
        {
          "name": "D#4",
          "midi": 63,
          "time": 172.40000000000114,
          "velocity": 0.6299212598425197,
          "duration": 0.0800000000000125
        },
        {
          "name": "D4",
          "midi": 62,
          "time": 172.50000000000117,
          "velocity": 0.6299212598425197,
          "duration": 0.1599999999999966
        },
        {
          "name": "A#3",
          "midi": 58,
          "time": 172.70000000000115,
          "velocity": 0.6299212598425197,
          "duration": 0.0800000000000125
        },
        {
          "name": "C3",
          "midi": 48,
          "time": 172.80000000000118,
          "velocity": 0.6299212598425197,
          "duration": 0.0800000000000125
        },
        {
          "name": "C3",
          "midi": 48,
          "time": 172.9000000000012,
          "velocity": 0.6299212598425197,
          "duration": 0.0800000000000125
        },
        {
          "name": "C3",
          "midi": 48,
          "time": 173.00000000000122,
          "velocity": 0.6299212598425197,
          "duration": 0.0800000000000125
        },
        {
          "name": "C3",
          "midi": 48,
          "time": 173.20000000000124,
          "velocity": 0.6299212598425197,
          "duration": 0.0800000000000125
        },
        {
          "name": "D3",
          "midi": 50,
          "time": 173.30000000000126,
          "velocity": 0.6299212598425197,
          "duration": 0.2400000000000091
        },
        {
          "name": "D#3",
          "midi": 51,
          "time": 173.60000000000127,
          "velocity": 0.6299212598425197,
          "duration": 0.2400000000000091
        },
        {
          "name": "C3",
          "midi": 48,
          "time": 173.90000000000128,
          "velocity": 0.6299212598425197,
          "duration": 0.09499999999999886
        },
        {
          "name": "F3",
          "midi": 53,
          "time": 174.00000000000128,
          "velocity": 0.6299212598425197,
          "duration": 0.0800000000000125
        },
        {
          "name": "G3",
          "midi": 55,
          "time": 174.1000000000013,
          "velocity": 0.6299212598425197,
          "duration": 0.2400000000000091
        },
        {
          "name": "F3",
          "midi": 53,
          "time": 174.4000000000013,
          "velocity": 0.6299212598425197,
          "duration": 0.3199999999999932
        },
        {
          "name": "G3",
          "midi": 55,
          "time": 174.80000000000132,
          "velocity": 0.6299212598425197,
          "duration": 0.0800000000000125
        },
        {
          "name": "A3",
          "midi": 57,
          "time": 174.90000000000134,
          "velocity": 0.6299212598425197,
          "duration": 0.2400000000000091
        },
        {
          "name": "A#3",
          "midi": 58,
          "time": 175.20000000000135,
          "velocity": 0.6299212598425197,
          "duration": 0.3199999999999932
        },
        {
          "name": "C4",
          "midi": 60,
          "time": 175.60000000000136,
          "velocity": 0.6299212598425197,
          "duration": 0.0800000000000125
        },
        {
          "name": "D4",
          "midi": 62,
          "time": 175.70000000000138,
          "velocity": 0.6299212598425197,
          "duration": 0.2400000000000091
        },
        {
          "name": "D#4",
          "midi": 63,
          "time": 176.0000000000014,
          "velocity": 0.6299212598425197,
          "duration": 0.3199999999999932
        },
        {
          "name": "D#4",
          "midi": 63,
          "time": 176.4000000000014,
          "velocity": 0.6299212598425197,
          "duration": 0.0800000000000125
        },
        {
          "name": "F4",
          "midi": 65,
          "time": 176.50000000000142,
          "velocity": 0.6299212598425197,
          "duration": 0.1599999999999966
        },
        {
          "name": "G4",
          "midi": 67,
          "time": 176.7000000000014,
          "velocity": 0.6299212598425197,
          "duration": 0.0800000000000125
        },
        {
          "name": "A#4",
          "midi": 70,
          "time": 176.80000000000143,
          "velocity": 0.6299212598425197,
          "duration": 0.3199999999999932
        },
        {
          "name": "A4",
          "midi": 69,
          "time": 177.20000000000144,
          "velocity": 0.6299212598425197,
          "duration": 0.09499999999999886
        },
        {
          "name": "C4",
          "midi": 60,
          "time": 177.30000000000143,
          "velocity": 0.6299212598425197,
          "duration": 0.0800000000000125
        },
        {
          "name": "D#4",
          "midi": 63,
          "time": 177.40000000000146,
          "velocity": 0.6299212598425197,
          "duration": 0.0800000000000125
        },
        {
          "name": "F4",
          "midi": 65,
          "time": 177.50000000000148,
          "velocity": 0.6299212598425197,
          "duration": 0.0800000000000125
        },
        {
          "name": "G4",
          "midi": 67,
          "time": 177.6000000000015,
          "velocity": 0.6299212598425197,
          "duration": 0.0800000000000125
        },
        {
          "name": "F4",
          "midi": 65,
          "time": 177.70000000000152,
          "velocity": 0.6299212598425197,
          "duration": 0.0800000000000125
        },
        {
          "name": "G4",
          "midi": 67,
          "time": 177.80000000000155,
          "velocity": 0.6299212598425197,
          "duration": 0.0800000000000125
        },
        {
          "name": "C4",
          "midi": 60,
          "time": 177.90000000000157,
          "velocity": 0.6299212598425197,
          "duration": 0.18000000000000682
        },
        {
          "name": "C4",
          "midi": 60,
          "time": 178.1000000000016,
          "velocity": 0.6299212598425197,
          "duration": 0.0800000000000125
        },
        {
          "name": "D#4",
          "midi": 63,
          "time": 178.2000000000016,
          "velocity": 0.6299212598425197,
          "duration": 0.0800000000000125
        },
        {
          "name": "F4",
          "midi": 65,
          "time": 178.30000000000163,
          "velocity": 0.6299212598425197,
          "duration": 0.0800000000000125
        },
        {
          "name": "G4",
          "midi": 67,
          "time": 178.40000000000165,
          "velocity": 0.6299212598425197,
          "duration": 0.1599999999999966
        },
        {
          "name": "A#4",
          "midi": 70,
          "time": 178.60000000000164,
          "velocity": 0.6299212598425197,
          "duration": 0.0800000000000125
        },
        {
          "name": "A4",
          "midi": 69,
          "time": 178.70000000000167,
          "velocity": 0.6299212598425197,
          "duration": 0.0800000000000125
        },
        {
          "name": "A#4",
          "midi": 70,
          "time": 178.8000000000017,
          "velocity": 0.6299212598425197,
          "duration": 0.0800000000000125
        },
        {
          "name": "A4",
          "midi": 69,
          "time": 178.9000000000017,
          "velocity": 0.6299212598425197,
          "duration": 0.1599999999999966
        },
        {
          "name": "F4",
          "midi": 65,
          "time": 179.1000000000017,
          "velocity": 0.6299212598425197,
          "duration": 0.0800000000000125
        },
        {
          "name": "G4",
          "midi": 67,
          "time": 179.20000000000172,
          "velocity": 0.6299212598425197,
          "duration": 0.0800000000000125
        },
        {
          "name": "F4",
          "midi": 65,
          "time": 179.30000000000175,
          "velocity": 0.6299212598425197,
          "duration": 0.0800000000000125
        },
        {
          "name": "G4",
          "midi": 67,
          "time": 179.40000000000177,
          "velocity": 0.6299212598425197,
          "duration": 0.0800000000000125
        },
        {
          "name": "C4",
          "midi": 60,
          "time": 179.5000000000018,
          "velocity": 0.6299212598425197,
          "duration": 0.18000000000000682
        },
        {
          "name": "C4",
          "midi": 60,
          "time": 179.7000000000018,
          "velocity": 0.6299212598425197,
          "duration": 0.0800000000000125
        },
        {
          "name": "D#4",
          "midi": 63,
          "time": 179.80000000000183,
          "velocity": 0.6299212598425197,
          "duration": 0.0800000000000125
        },
        {
          "name": "F4",
          "midi": 65,
          "time": 179.90000000000185,
          "velocity": 0.6299212598425197,
          "duration": 0.0800000000000125
        },
        {
          "name": "G4",
          "midi": 67,
          "time": 180.00000000000188,
          "velocity": 0.6299212598425197,
          "duration": 0.1599999999999966
        },
        {
          "name": "A#4",
          "midi": 70,
          "time": 180.20000000000186,
          "velocity": 0.6299212598425197,
          "duration": 0.0800000000000125
        },
        {
          "name": "A4",
          "midi": 69,
          "time": 180.3000000000019,
          "velocity": 0.6299212598425197,
          "duration": 0.0800000000000125
        },
        {
          "name": "A#4",
          "midi": 70,
          "time": 180.4000000000019,
          "velocity": 0.6299212598425197,
          "duration": 0.0800000000000125
        },
        {
          "name": "C5",
          "midi": 72,
          "time": 180.50000000000193,
          "velocity": 0.6299212598425197,
          "duration": 0.1599999999999966
        },
        {
          "name": "D5",
          "midi": 74,
          "time": 180.70000000000192,
          "velocity": 0.6299212598425197,
          "duration": 0.0800000000000125
        },
        {
          "name": "F3",
          "midi": 53,
          "time": 180.80000000000194,
          "velocity": 0.6299212598425197,
          "duration": 0.3199999999999932
        },
        {
          "name": "G3",
          "midi": 55,
          "time": 181.20000000000195,
          "velocity": 0.6299212598425197,
          "duration": 0.0800000000000125
        },
        {
          "name": "A3",
          "midi": 57,
          "time": 181.30000000000197,
          "velocity": 0.6299212598425197,
          "duration": 0.2400000000000091
        },
        {
          "name": "A#3",
          "midi": 58,
          "time": 181.60000000000198,
          "velocity": 0.6299212598425197,
          "duration": 0.3199999999999932
        },
        {
          "name": "C4",
          "midi": 60,
          "time": 182.000000000002,
          "velocity": 0.6299212598425197,
          "duration": 0.0800000000000125
        },
        {
          "name": "D4",
          "midi": 62,
          "time": 182.100000000002,
          "velocity": 0.6299212598425197,
          "duration": 0.2400000000000091
        },
        {
          "name": "D#4",
          "midi": 63,
          "time": 182.40000000000202,
          "velocity": 0.6299212598425197,
          "duration": 0.0800000000000125
        },
        {
          "name": "D#4",
          "midi": 63,
          "time": 182.50000000000205,
          "velocity": 0.6299212598425197,
          "duration": 0.0800000000000125
        },
        {
          "name": "D#4",
          "midi": 63,
          "time": 182.60000000000207,
          "velocity": 0.6299212598425197,
          "duration": 0.1599999999999966
        },
        {
          "name": "D#4",
          "midi": 63,
          "time": 182.80000000000206,
          "velocity": 0.6299212598425197,
          "duration": 0.0800000000000125
        },
        {
          "name": "F4",
          "midi": 65,
          "time": 182.90000000000208,
          "velocity": 0.6299212598425197,
          "duration": 0.1599999999999966
        },
        {
          "name": "G4",
          "midi": 67,
          "time": 183.10000000000207,
          "velocity": 0.6299212598425197,
          "duration": 0.0800000000000125
        },
        {
          "name": "A#4",
          "midi": 70,
          "time": 183.2000000000021,
          "velocity": 0.6299212598425197,
          "duration": 0.3199999999999932
        },
        {
          "name": "A4",
          "midi": 69,
          "time": 183.6000000000021,
          "velocity": 0.6299212598425197,
          "duration": 0.3199999999999932
        },
        {
          "name": "G4",
          "midi": 67,
          "time": 184.0000000000021,
          "velocity": 0.6299212598425197,
          "duration": 0.0800000000000125
        },
        {
          "name": "G4",
          "midi": 67,
          "time": 184.10000000000213,
          "velocity": 0.6299212598425197,
          "duration": 0.0800000000000125
        },
        {
          "name": "G4",
          "midi": 67,
          "time": 184.20000000000215,
          "velocity": 0.6299212598425197,
          "duration": 0.0800000000000125
        },
        {
          "name": "G4",
          "midi": 67,
          "time": 184.30000000000217,
          "velocity": 0.6299212598425197,
          "duration": 0.0800000000000125
        },
        {
          "name": "G4",
          "midi": 67,
          "time": 184.5000000000022,
          "velocity": 0.6299212598425197,
          "duration": 0.0800000000000125
        },
        {
          "name": "G4",
          "midi": 67,
          "time": 184.6000000000022,
          "velocity": 0.6299212598425197,
          "duration": 0.0800000000000125
        },
        {
          "name": "G4",
          "midi": 67,
          "time": 184.70000000000223,
          "velocity": 0.6299212598425197,
          "duration": 0.0800000000000125
        },
        {
          "name": "G4",
          "midi": 67,
          "time": 184.80000000000226,
          "velocity": 0.6299212598425197,
          "duration": 0.09999999999999432
        },
        {
          "name": "G4",
          "midi": 67,
          "time": 185.00000000000225,
          "velocity": 0.6299212598425197,
          "duration": 0.09999999999999432
        },
        {
          "name": "F4",
          "midi": 65,
          "time": 185.20000000000223,
          "velocity": 0.6299212598425197,
          "duration": 0.3199999999999932
        },
        {
          "name": "D#4",
          "midi": 63,
          "time": 185.60000000000224,
          "velocity": 0.6299212598425197,
          "duration": 0.0800000000000125
        },
        {
          "name": "D#4",
          "midi": 63,
          "time": 185.70000000000226,
          "velocity": 0.6299212598425197,
          "duration": 0.0800000000000125
        },
        {
          "name": "D#4",
          "midi": 63,
          "time": 185.80000000000229,
          "velocity": 0.6299212598425197,
          "duration": 0.0800000000000125
        },
        {
          "name": "D#4",
          "midi": 63,
          "time": 185.9000000000023,
          "velocity": 0.6299212598425197,
          "duration": 0.0800000000000125
        },
        {
          "name": "D#4",
          "midi": 63,
          "time": 186.10000000000232,
          "velocity": 0.6299212598425197,
          "duration": 0.0800000000000125
        },
        {
          "name": "D#4",
          "midi": 63,
          "time": 186.20000000000235,
          "velocity": 0.6299212598425197,
          "duration": 0.0800000000000125
        },
        {
          "name": "D#4",
          "midi": 63,
          "time": 186.30000000000237,
          "velocity": 0.6299212598425197,
          "duration": 0.0800000000000125
        },
        {
          "name": "D#4",
          "midi": 63,
          "time": 186.4000000000024,
          "velocity": 0.6299212598425197,
          "duration": 0.09999999999999432
        },
        {
          "name": "D#4",
          "midi": 63,
          "time": 186.60000000000238,
          "velocity": 0.6299212598425197,
          "duration": 0.09999999999999432
        },
        {
          "name": "F4",
          "midi": 65,
          "time": 186.80000000000237,
          "velocity": 0.6299212598425197,
          "duration": 0.3199999999999932
        },
        {
          "name": "G4",
          "midi": 67,
          "time": 187.20000000000238,
          "velocity": 0.6299212598425197,
          "duration": 0.0800000000000125
        },
        {
          "name": "G4",
          "midi": 67,
          "time": 187.3000000000024,
          "velocity": 0.6299212598425197,
          "duration": 0.0800000000000125
        },
        {
          "name": "G4",
          "midi": 67,
          "time": 187.40000000000242,
          "velocity": 0.6299212598425197,
          "duration": 0.0800000000000125
        },
        {
          "name": "G4",
          "midi": 67,
          "time": 187.50000000000244,
          "velocity": 0.6299212598425197,
          "duration": 0.0800000000000125
        },
        {
          "name": "G4",
          "midi": 67,
          "time": 187.70000000000246,
          "velocity": 0.6299212598425197,
          "duration": 0.0800000000000125
        },
        {
          "name": "G4",
          "midi": 67,
          "time": 187.80000000000248,
          "velocity": 0.6299212598425197,
          "duration": 0.0800000000000125
        },
        {
          "name": "G4",
          "midi": 67,
          "time": 187.9000000000025,
          "velocity": 0.6299212598425197,
          "duration": 0.0800000000000125
        },
        {
          "name": "G4",
          "midi": 67,
          "time": 188.00000000000253,
          "velocity": 0.6299212598425197,
          "duration": 0.09999999999999432
        },
        {
          "name": "G4",
          "midi": 67,
          "time": 188.20000000000252,
          "velocity": 0.6299212598425197,
          "duration": 0.09999999999999432
        },
        {
          "name": "F4",
          "midi": 65,
          "time": 188.4000000000025,
          "velocity": 0.6299212598425197,
          "duration": 0.3199999999999932
        },
        {
          "name": "D#4",
          "midi": 63,
          "time": 188.8000000000025,
          "velocity": 0.6299212598425197,
          "duration": 0.0800000000000125
        },
        {
          "name": "D#4",
          "midi": 63,
          "time": 188.90000000000254,
          "velocity": 0.6299212598425197,
          "duration": 0.0800000000000125
        },
        {
          "name": "D#4",
          "midi": 63,
          "time": 189.00000000000256,
          "velocity": 0.6299212598425197,
          "duration": 0.0800000000000125
        },
        {
          "name": "D#4",
          "midi": 63,
          "time": 189.10000000000258,
          "velocity": 0.6299212598425197,
          "duration": 0.0800000000000125
        },
        {
          "name": "D#4",
          "midi": 63,
          "time": 189.3000000000026,
          "velocity": 0.6299212598425197,
          "duration": 0.0800000000000125
        },
        {
          "name": "F4",
          "midi": 65,
          "time": 189.40000000000262,
          "velocity": 0.6299212598425197,
          "duration": 0.0800000000000125
        },
        {
          "name": "G4",
          "midi": 67,
          "time": 189.50000000000264,
          "velocity": 0.6299212598425197,
          "duration": 0.0800000000000125
        },
        {
          "name": "A4",
          "midi": 69,
          "time": 189.60000000000267,
          "velocity": 0.6299212598425197,
          "duration": 0.0800000000000125
        },
        {
          "name": "A#4",
          "midi": 70,
          "time": 189.7000000000027,
          "velocity": 0.6299212598425197,
          "duration": 0.0800000000000125
        },
        {
          "name": "A4",
          "midi": 69,
          "time": 189.8000000000027,
          "velocity": 0.6299212598425197,
          "duration": 0.09999999999999432
        },
        {
          "name": "F4",
          "midi": 65,
          "time": 190.0000000000027,
          "velocity": 0.6299212598425197,
          "duration": 0.3199999999999932
        },
        {
          "name": "A#4",
          "midi": 70,
          "time": 190.4000000000027,
          "velocity": 0.6299212598425197,
          "duration": 0.0800000000000125
        },
        {
          "name": "A#4",
          "midi": 70,
          "time": 190.50000000000273,
          "velocity": 0.6299212598425197,
          "duration": 0.0800000000000125
        },
        {
          "name": "A#4",
          "midi": 70,
          "time": 190.60000000000275,
          "velocity": 0.6299212598425197,
          "duration": 0.0800000000000125
        },
        {
          "name": "A#4",
          "midi": 70,
          "time": 190.70000000000277,
          "velocity": 0.6299212598425197,
          "duration": 0.0800000000000125
        },
        {
          "name": "A#4",
          "midi": 70,
          "time": 190.9000000000028,
          "velocity": 0.6299212598425197,
          "duration": 0.0800000000000125
        },
        {
          "name": "A#4",
          "midi": 70,
          "time": 191.0000000000028,
          "velocity": 0.6299212598425197,
          "duration": 0.0800000000000125
        },
        {
          "name": "A#4",
          "midi": 70,
          "time": 191.10000000000284,
          "velocity": 0.6299212598425197,
          "duration": 0.0800000000000125
        },
        {
          "name": "A#4",
          "midi": 70,
          "time": 191.20000000000286,
          "velocity": 0.6299212598425197,
          "duration": 0.09999999999999432
        },
        {
          "name": "A#4",
          "midi": 70,
          "time": 191.40000000000285,
          "velocity": 0.6299212598425197,
          "duration": 0.09999999999999432
        },
        {
          "name": "A4",
          "midi": 69,
          "time": 191.60000000000284,
          "velocity": 0.6299212598425197,
          "duration": 0.3199999999999932
        },
        {
          "name": "G4",
          "midi": 67,
          "time": 192.00000000000284,
          "velocity": 0.6299212598425197,
          "duration": 0.0800000000000125
        },
        {
          "name": "G4",
          "midi": 67,
          "time": 192.10000000000286,
          "velocity": 0.6299212598425197,
          "duration": 0.0800000000000125
        },
        {
          "name": "G4",
          "midi": 67,
          "time": 192.2000000000029,
          "velocity": 0.6299212598425197,
          "duration": 0.0800000000000125
        },
        {
          "name": "G4",
          "midi": 67,
          "time": 192.3000000000029,
          "velocity": 0.6299212598425197,
          "duration": 0.0800000000000125
        },
        {
          "name": "G4",
          "midi": 67,
          "time": 192.50000000000293,
          "velocity": 0.6299212598425197,
          "duration": 0.0800000000000125
        },
        {
          "name": "G4",
          "midi": 67,
          "time": 192.60000000000295,
          "velocity": 0.6299212598425197,
          "duration": 0.0800000000000125
        },
        {
          "name": "G4",
          "midi": 67,
          "time": 192.70000000000297,
          "velocity": 0.6299212598425197,
          "duration": 0.0800000000000125
        },
        {
          "name": "G4",
          "midi": 67,
          "time": 192.800000000003,
          "velocity": 0.6299212598425197,
          "duration": 0.09999999999999432
        },
        {
          "name": "G4",
          "midi": 67,
          "time": 193.00000000000298,
          "velocity": 0.6299212598425197,
          "duration": 0.09999999999999432
        },
        {
          "name": "A4",
          "midi": 69,
          "time": 193.20000000000297,
          "velocity": 0.6299212598425197,
          "duration": 0.3199999999999932
        },
        {
          "name": "A#4",
          "midi": 70,
          "time": 193.60000000000298,
          "velocity": 0.6299212598425197,
          "duration": 0.0800000000000125
        },
        {
          "name": "A#4",
          "midi": 70,
          "time": 193.700000000003,
          "velocity": 0.6299212598425197,
          "duration": 0.0800000000000125
        },
        {
          "name": "A#4",
          "midi": 70,
          "time": 193.80000000000302,
          "velocity": 0.6299212598425197,
          "duration": 0.0800000000000125
        },
        {
          "name": "A#4",
          "midi": 70,
          "time": 193.90000000000305,
          "velocity": 0.6299212598425197,
          "duration": 0.0800000000000125
        },
        {
          "name": "A#4",
          "midi": 70,
          "time": 194.10000000000306,
          "velocity": 0.6299212598425197,
          "duration": 0.0800000000000125
        },
        {
          "name": "A#4",
          "midi": 70,
          "time": 194.2000000000031,
          "velocity": 0.6299212598425197,
          "duration": 0.0800000000000125
        },
        {
          "name": "A#4",
          "midi": 70,
          "time": 194.3000000000031,
          "velocity": 0.6299212598425197,
          "duration": 0.0800000000000125
        },
        {
          "name": "A#4",
          "midi": 70,
          "time": 194.40000000000313,
          "velocity": 0.6299212598425197,
          "duration": 0.09999999999999432
        },
        {
          "name": "A4",
          "midi": 69,
          "time": 194.60000000000312,
          "velocity": 0.6299212598425197,
          "duration": 0.09999999999999432
        },
        {
          "name": "A#4",
          "midi": 70,
          "time": 194.8000000000031,
          "velocity": 0.6299212598425197,
          "duration": 0.3199999999999932
        },
        {
          "name": "C5",
          "midi": 72,
          "time": 195.20000000000312,
          "velocity": 0.6299212598425197,
          "duration": 0.0800000000000125
        },
        {
          "name": "C5",
          "midi": 72,
          "time": 195.30000000000314,
          "velocity": 0.6299212598425197,
          "duration": 0.0800000000000125
        },
        {
          "name": "C5",
          "midi": 72,
          "time": 195.40000000000316,
          "velocity": 0.6299212598425197,
          "duration": 0.0800000000000125
        },
        {
          "name": "C5",
          "midi": 72,
          "time": 195.50000000000318,
          "velocity": 0.6299212598425197,
          "duration": 0.0800000000000125
        },
        {
          "name": "C5",
          "midi": 72,
          "time": 195.7000000000032,
          "velocity": 0.6299212598425197,
          "duration": 0.0800000000000125
        },
        {
          "name": "C5",
          "midi": 72,
          "time": 195.80000000000322,
          "velocity": 0.6299212598425197,
          "duration": 0.0800000000000125
        },
        {
          "name": "C5",
          "midi": 72,
          "time": 195.90000000000325,
          "velocity": 0.6299212598425197,
          "duration": 0.0800000000000125
        },
        {
          "name": "C5",
          "midi": 72,
          "time": 196.00000000000327,
          "velocity": 0.6299212598425197,
          "duration": 0.0800000000000125
        },
        {
          "name": "G3",
          "midi": 55,
          "time": 196.50000000000327,
          "velocity": 0.6299212598425197,
          "duration": 0.0800000000000125
        },
        {
          "name": "C4",
          "midi": 60,
          "time": 196.6000000000033,
          "velocity": 0.6299212598425197,
          "duration": 0.0800000000000125
        },
        {
          "name": "D4",
          "midi": 62,
          "time": 196.7000000000033,
          "velocity": 0.6299212598425197,
          "duration": 0.0800000000000125
        },
        {
          "name": "D#4",
          "midi": 63,
          "time": 196.80000000000334,
          "velocity": 0.6299212598425197,
          "duration": 0.0800000000000125
        },
        {
          "name": "D4",
          "midi": 62,
          "time": 196.90000000000336,
          "velocity": 0.6299212598425197,
          "duration": 0.0800000000000125
        },
        {
          "name": "D#4",
          "midi": 63,
          "time": 197.00000000000338,
          "velocity": 0.6299212598425197,
          "duration": 0.0800000000000125
        },
        {
          "name": "G3",
          "midi": 55,
          "time": 197.1000000000034,
          "velocity": 0.6299212598425197,
          "duration": 0.18000000000000682
        },
        {
          "name": "G3",
          "midi": 55,
          "time": 197.30000000000342,
          "velocity": 0.6299212598425197,
          "duration": 0.0800000000000125
        },
        {
          "name": "C4",
          "midi": 60,
          "time": 197.40000000000344,
          "velocity": 0.6299212598425197,
          "duration": 0.0800000000000125
        },
        {
          "name": "D4",
          "midi": 62,
          "time": 197.50000000000347,
          "velocity": 0.6299212598425197,
          "duration": 0.0800000000000125
        },
        {
          "name": "D#4",
          "midi": 63,
          "time": 197.6000000000035,
          "velocity": 0.6299212598425197,
          "duration": 0.0800000000000125
        },
        {
          "name": "D4",
          "midi": 62,
          "time": 197.7000000000035,
          "velocity": 0.6299212598425197,
          "duration": 0.0800000000000125
        },
        {
          "name": "D#4",
          "midi": 63,
          "time": 197.80000000000354,
          "velocity": 0.6299212598425197,
          "duration": 0.0800000000000125
        },
        {
          "name": "G4",
          "midi": 67,
          "time": 197.90000000000356,
          "velocity": 0.6299212598425197,
          "duration": 0.18000000000000682
        },
        {
          "name": "G4",
          "midi": 67,
          "time": 198.10000000000358,
          "velocity": 0.6299212598425197,
          "duration": 0.0800000000000125
        },
        {
          "name": "F4",
          "midi": 65,
          "time": 198.2000000000036,
          "velocity": 0.6299212598425197,
          "duration": 0.0800000000000125
        },
        {
          "name": "G4",
          "midi": 67,
          "time": 198.30000000000362,
          "velocity": 0.6299212598425197,
          "duration": 0.0800000000000125
        },
        {
          "name": "D#4",
          "midi": 63,
          "time": 198.40000000000364,
          "velocity": 0.6299212598425197,
          "duration": 0.0800000000000125
        },
        {
          "name": "D4",
          "midi": 62,
          "time": 198.50000000000367,
          "velocity": 0.6299212598425197,
          "duration": 0.0800000000000125
        },
        {
          "name": "D#4",
          "midi": 63,
          "time": 198.6000000000037,
          "velocity": 0.6299212598425197,
          "duration": 0.0800000000000125
        },
        {
          "name": "G3",
          "midi": 55,
          "time": 198.7000000000037,
          "velocity": 0.6299212598425197,
          "duration": 0.18000000000000682
        },
        {
          "name": "G3",
          "midi": 55,
          "time": 198.90000000000373,
          "velocity": 0.6299212598425197,
          "duration": 0.0800000000000125
        },
        {
          "name": "C4",
          "midi": 60,
          "time": 199.00000000000375,
          "velocity": 0.6299212598425197,
          "duration": 0.05000000000001137
        },
        {
          "name": "D4",
          "midi": 62,
          "time": 199.10000000000377,
          "velocity": 0.6299212598425197,
          "duration": 0.09999999999999432
        },
        {
          "name": "D#4",
          "midi": 63,
          "time": 199.30000000000376,
          "velocity": 0.6299212598425197,
          "duration": 0.09999999999999432
        },
        {
          "name": "F4",
          "midi": 65,
          "time": 199.50000000000375,
          "velocity": 0.6299212598425197,
          "duration": 0.09999999999999432
        },
        {
          "name": "G4",
          "midi": 67,
          "time": 199.70000000000374,
          "velocity": 0.6299212598425197,
          "duration": 0.28000000000000114
        }
      ];